<?xml version="1.0" encoding="UTF-8"?>
<svg xmlns="http://www.w3.org/2000/svg" viewBox="0 0 160 90" width="160" height="90">
<defs>
  <marker id="arrowhead" markerWidth="6" markerHeight="4" refX="5" refY="2" orient="auto">
    <polygon points="0 0, 6 2, 0 4" fill="#000000" />
  </marker>
  <linearGradient id="fiber-grad" x1="0" y1="0" x2="0" y2="1">
      <stop offset="0%" stop-color="#ADACC6"/>
      <stop offset="22%" stop-color="#1B1E89"/>
      <stop offset="100%" stop-color="#0D0F42"/>
    </linearGradient>
  <linearGradient id="comp-grad" x1="0" y1="0" x2="0" y2="1">
      <stop offset="0%" stop-color="#F0F0F8"/>
      <stop offset="50%" stop-color="#B0B0C8"/>
      <stop offset="100%" stop-color="#707088"/>
    </linearGradient>
</defs>
<rect x="35" y="10" width="80" height="65" rx="3" fill="url(#comp-grad)" stroke="#000000" stroke-width="0.75" />
<text x="75" y="45" font-family="Helvetica, Arial, sans-serif" font-size="7" fill="#000000" text-anchor="middle" font-weight="normal" font-style="normal">OXC</text>
<line x1="5" y1="25" x2="35" y2="25" stroke="url(#fiber-grad)" stroke-width="3.0" stroke-linecap="round" />
<line x1="5" y1="42" x2="35" y2="42" stroke="url(#fiber-grad)" stroke-width="3.0" stroke-linecap="round" />
<line x1="5" y1="60" x2="35" y2="60" stroke="url(#fiber-grad)" stroke-width="3.0" stroke-linecap="round" />
<line x1="115" y1="25" x2="155" y2="25" stroke="url(#fiber-grad)" stroke-width="3.0" stroke-linecap="round" />
<line x1="115" y1="42" x2="155" y2="42" stroke="url(#fiber-grad)" stroke-width="3.0" stroke-linecap="round" />
<line x1="115" y1="60" x2="155" y2="60" stroke="url(#fiber-grad)" stroke-width="3.0" stroke-linecap="round" />
<line x1="45" y1="25" x2="105" y2="60" stroke="#000000" stroke-width="0.4" stroke-dasharray="2,2" opacity="0.4"/>
<line x1="45" y1="42" x2="105" y2="25" stroke="#000000" stroke-width="0.4" stroke-dasharray="2,2" opacity="0.4"/>
<line x1="45" y1="60" x2="105" y2="42" stroke="#000000" stroke-width="0.4" stroke-dasharray="2,2" opacity="0.4"/>
<text x="75" y="85" font-family="Helvetica, Arial, sans-serif" font-size="8" fill="#000000" text-anchor="middle" font-weight="bold" font-style="normal">Optical cross-connect</text>
</svg>
