<?xml version="1.0" encoding="UTF-8"?>
<svg xmlns="http://www.w3.org/2000/svg" viewBox="0 0 280 80" width="280" height="80">
<defs>
  <marker id="arrowhead" markerWidth="6" markerHeight="4" refX="5" refY="2" orient="auto">
    <polygon points="0 0, 6 2, 0 4" fill="#000000" />
  </marker>
  <linearGradient id="fiber-grad" x1="0" y1="0" x2="0" y2="1">
      <stop offset="0%" stop-color="#ADACC6"/>
      <stop offset="22%" stop-color="#1B1E89"/>
      <stop offset="100%" stop-color="#0D0F42"/>
    </linearGradient>
  <linearGradient id="comp-grad" x1="0" y1="0" x2="0" y2="1">
      <stop offset="0%" stop-color="#F0F0F8"/>
      <stop offset="50%" stop-color="#B0B0C8"/>
      <stop offset="100%" stop-color="#707088"/>
    </linearGradient>
</defs>
<rect x="15" y="8" width="240" height="55" rx="4" fill="GRADIENT" stroke="#000000" stroke-width="0.75"/>
<rect x="25" y="16" width="40" height="30" rx="2" fill="none" stroke="#000000" stroke-width="0.4"/>
<text x="45" y="34" font-family="Helvetica, Arial, sans-serif" font-size="6" fill="#000000" text-anchor="middle" font-weight="normal" font-style="normal">Mux</text>
<rect x="75" y="22" width="35" height="20" rx="2" fill="none" stroke="#000000" stroke-width="0.4"/>
<text x="92" y="35" font-family="Helvetica, Arial, sans-serif" font-size="6" fill="#000000" text-anchor="middle" font-weight="normal" font-style="normal">BA</text>
<rect x="120" y="22" width="30" height="20" rx="2" fill="none" stroke="#000000" stroke-width="0.4"/>
<text x="135" y="35" font-family="Helvetica, Arial, sans-serif" font-size="6" fill="#000000" text-anchor="middle" font-weight="normal" font-style="normal">OSC</text>
<rect x="160" y="22" width="35" height="20" rx="2" fill="none" stroke="#000000" stroke-width="0.4"/>
<text x="177" y="35" font-family="Helvetica, Arial, sans-serif" font-size="6" fill="#000000" text-anchor="middle" font-weight="normal" font-style="normal">PA</text>
<rect x="205" y="16" width="40" height="30" rx="2" fill="none" stroke="#000000" stroke-width="0.4"/>
<text x="225" y="34" font-family="Helvetica, Arial, sans-serif" font-size="6" fill="#000000" text-anchor="middle" font-weight="normal" font-style="normal">Demux</text>
<line x1="65" y1="32" x2="75" y2="32" stroke="#000000" stroke-width="0.3"/>
<line x1="110" y1="32" x2="120" y2="32" stroke="#000000" stroke-width="0.3"/>
<line x1="150" y1="32" x2="160" y2="32" stroke="#000000" stroke-width="0.3"/>
<line x1="195" y1="32" x2="205" y2="32" stroke="#000000" stroke-width="0.3"/>
<line x1="2" y1="20" x2="15" y2="20" stroke="url(#fiber-grad)" stroke-width="3.0" stroke-linecap="round" />
<line x1="2" y1="30" x2="15" y2="30" stroke="url(#fiber-grad)" stroke-width="3.0" stroke-linecap="round" />
<line x1="2" y1="40" x2="15" y2="40" stroke="url(#fiber-grad)" stroke-width="3.0" stroke-linecap="round" />
<line x1="255" y1="32" x2="278" y2="32" stroke="url(#fiber-grad)" stroke-width="3.0" stroke-linecap="round" />
<text x="140" y="74" font-family="Helvetica, Arial, sans-serif" font-size="8" fill="#000000" text-anchor="middle" font-weight="bold" font-style="normal">WDM terminal</text>
</svg>
