<?xml version="1.0" encoding="UTF-8"?>
<svg xmlns="http://www.w3.org/2000/svg" viewBox="0 0 200 80" width="200" height="80">
<defs>
  <marker id="arrowhead" markerWidth="6" markerHeight="4" refX="5" refY="2" orient="auto">
    <polygon points="0 0, 6 2, 0 4" fill="#1a1a1a" />
  </marker>
  <marker id="arrowhead-beam" markerWidth="6" markerHeight="4" refX="5" refY="2" orient="auto">
    <polygon points="0 0, 6 2, 0 4" fill="#c0392b" />
  </marker>
  <marker id="arrowhead-gray" markerWidth="5" markerHeight="3.5" refX="4" refY="1.75" orient="auto">
    <polygon points="0 0, 5 1.75, 0 3.5" fill="#888888" />
  </marker>
</defs>
<rect x="20" y="10" width="140" height="50" rx="10" fill="none" stroke="#333333" stroke-width="0.7"/>
<line x1="50" y1="10" x2="70" y2="10" stroke="#888888" stroke-width="0.5" marker-end="url(#arrowhead-gray)" />
<rect x="55" y="6" width="40" height="8" rx="2" fill="#888888" stroke="#1a1a1a" stroke-width="0.4" opacity="0.4"/>
<text x="75" y="12" font-family="Arial, Helvetica, sans-serif" font-size="4" fill="#1a1a1a" text-anchor="middle" font-weight="normal" font-style="normal">gain</text>
<rect x="65" y="56" width="25" height="8" rx="2" fill="#f0f0f0" stroke="#1a1a1a" stroke-width="0.4"/>
<text x="77" y="62" font-family="Arial, Helvetica, sans-serif" font-size="4" fill="#1a1a1a" text-anchor="middle" font-weight="normal" font-style="normal">SA</text>
<rect x="153" y="28" width="10" height="10" rx="1" fill="#f0f0f0" stroke="#1a1a1a" stroke-width="0.5" />
<polygon points="155,30 155,36 161,33" fill="#1a1a1a" opacity="0.3"/>
<circle cx="28" cy="35" r="2.5" fill="#1a1a1a"/>
<line x1="28" y1="38" x2="28" y2="70" stroke="#333333" stroke-width="0.7" stroke-linecap="round" />
<line x1="28" y1="50" x2="28" y2="65" stroke="#888888" stroke-width="0.5" marker-end="url(#arrowhead-gray)" />
<text x="34" y="68" font-family="Arial, Helvetica, sans-serif" font-size="7" fill="#888888" text-anchor="start" font-weight="normal" font-style="italic">out</text>
<line x1="75" y1="0" x2="75" y2="6" stroke="#c0392b" stroke-width="1"/>
<polygon points="72,-3 75,-6 78,-3" fill="#c0392b" opacity="0.7"/>
<text x="100" y="78" font-family="Arial, Helvetica, sans-serif" font-size="8" fill="#1a1a1a" text-anchor="middle" font-weight="bold" font-style="normal">ML oscillator</text>
</svg>
