<?xml version="1.0" encoding="UTF-8"?>
<svg xmlns="http://www.w3.org/2000/svg" viewBox="0 0 260 70" width="260" height="70">
<defs>
  <marker id="arrowhead" markerWidth="6" markerHeight="4" refX="5" refY="2" orient="auto">
    <polygon points="0 0, 6 2, 0 4" fill="#1a1a1a" />
  </marker>
  <marker id="arrowhead-beam" markerWidth="6" markerHeight="4" refX="5" refY="2" orient="auto">
    <polygon points="0 0, 6 2, 0 4" fill="#c0392b" />
  </marker>
  <marker id="arrowhead-gray" markerWidth="5" markerHeight="3.5" refX="4" refY="1.75" orient="auto">
    <polygon points="0 0, 5 1.75, 0 3.5" fill="#888888" />
  </marker>
</defs>
<rect x="10" y="18" width="55" height="30" rx="3" fill="#f0f0f0" stroke="#1a1a1a" stroke-width="0.5" />
<text x="37" y="36" font-family="Arial, Helvetica, sans-serif" font-size="6" fill="#1a1a1a" text-anchor="middle" font-weight="normal" font-style="normal">MO / Seed</text>
<line x1="65" y1="33" x2="85" y2="33" stroke="#333333" stroke-width="0.7" stroke-linecap="round" />
<line x1="68" y1="33" x2="80" y2="33" stroke="#888888" stroke-width="0.5" marker-end="url(#arrowhead-gray)" />
<rect x="85" y="27" width="14" height="12" rx="1" fill="#f0f0f0" stroke="#1a1a1a" stroke-width="0.5" />
<polygon points="88,30 88,36 96,33" fill="#1a1a1a" opacity="0.4"/>
<line x1="99" y1="33" x2="110" y2="33" stroke="#333333" stroke-width="0.7" stroke-linecap="round" />
<rect x="110" y="20" width="40" height="26" rx="2" fill="#f0f0f0" stroke="#1a1a1a" stroke-width="0.5" />
<text x="130" y="36" font-family="Arial, Helvetica, sans-serif" font-size="6" fill="#1a1a1a" text-anchor="middle" font-weight="normal" font-style="normal">Pre-amp</text>
<line x1="150" y1="33" x2="165" y2="33" stroke="#333333" stroke-width="0.7" stroke-linecap="round" />
<rect x="165" y="27" width="14" height="12" rx="1" fill="#f0f0f0" stroke="#1a1a1a" stroke-width="0.5" />
<polygon points="168,30 168,36 176,33" fill="#1a1a1a" opacity="0.4"/>
<line x1="179" y1="33" x2="190" y2="33" stroke="#333333" stroke-width="0.7" stroke-linecap="round" />
<rect x="190" y="18" width="50" height="30" rx="2" fill="#f0f0f0" stroke="#1a1a1a" stroke-width="0.5" />
<text x="215" y="36" font-family="Arial, Helvetica, sans-serif" font-size="6" fill="#1a1a1a" text-anchor="middle" font-weight="normal" font-style="normal">Power amp</text>
<line x1="215" y1="10" x2="215" y2="18" stroke="#c0392b" stroke-width="1"/>
<polygon points="212,6 215,2 218,6" fill="#c0392b" opacity="0.7"/>
<line x1="240" y1="33" x2="255" y2="33" stroke="#333333" stroke-width="0.7" stroke-linecap="round" />
<line x1="245" y1="33" x2="253" y2="33" stroke="#888888" stroke-width="0.5" marker-end="url(#arrowhead-gray)" />
<text x="254" y="27" font-family="Arial, Helvetica, sans-serif" font-size="7" fill="#888888" text-anchor="end" font-weight="normal" font-style="italic">out</text>
<text x="130" y="66" font-family="Arial, Helvetica, sans-serif" font-size="8" fill="#1a1a1a" text-anchor="middle" font-weight="bold" font-style="normal">MOPA system</text>
</svg>
