<?xml version="1.0" encoding="UTF-8"?>
<svg xmlns="http://www.w3.org/2000/svg" viewBox="0 0 180 90" width="180" height="90">
<defs>
  <marker id="arrowhead" markerWidth="6" markerHeight="4" refX="5" refY="2" orient="auto">
    <polygon points="0 0, 6 2, 0 4" fill="#1a1a1a" />
  </marker>
  <marker id="arrowhead-beam" markerWidth="6" markerHeight="4" refX="5" refY="2" orient="auto">
    <polygon points="0 0, 6 2, 0 4" fill="#c0392b" />
  </marker>
  <marker id="arrowhead-gray" markerWidth="5" markerHeight="3.5" refX="4" refY="1.75" orient="auto">
    <polygon points="0 0, 5 1.75, 0 3.5" fill="#888888" />
  </marker>
</defs>
<line x1="5" y1="45" x2="40" y2="45" stroke="#333333" stroke-width="0.7" stroke-linecap="round" />
<line x1="140" y1="45" x2="175" y2="45" stroke="#333333" stroke-width="0.7" stroke-linecap="round" />
<line x1="10" y1="45" x2="25" y2="45" stroke="#888888" stroke-width="0.5" marker-end="url(#arrowhead-gray)" />
<circle cx="60" cy="45" r="3" fill="#1a1a1a"/>
<path d="M60,42 C60,10 130,10 130,42" fill="none" stroke="#333333" stroke-width="0.7"/>
<path d="M60,48 C60,80 130,80 130,48" fill="none" stroke="#333333" stroke-width="0.7"/>
<circle cx="130" cy="45" r="3" fill="#1a1a1a"/>
<line x1="130" y1="45" x2="140" y2="45" stroke="#333333" stroke-width="0.7" stroke-linecap="round" />
<text x="8" y="39" font-family="Arial, Helvetica, sans-serif" font-size="7" fill="#888888" text-anchor="start" font-weight="normal" font-style="italic">in</text>
<text x="173" y="39" font-family="Arial, Helvetica, sans-serif" font-size="7" fill="#888888" text-anchor="end" font-weight="normal" font-style="italic">out</text>
<text x="95" y="50" font-family="Arial, Helvetica, sans-serif" font-size="6" fill="#888888" text-anchor="middle" font-weight="normal" font-style="normal">loop</text>
<text x="90" y="88" font-family="Arial, Helvetica, sans-serif" font-size="8" fill="#1a1a1a" text-anchor="middle" font-weight="bold" font-style="normal">NOLM</text>
</svg>
