<svg xmlns="http://www.w3.org/2000/svg" viewBox="0 0 100 75" width="100" height="75" font-family="Arial, Helvetica, sans-serif">
<defs>
<marker id="arrowhead" markerWidth="6" markerHeight="4" refX="5" refY="2" orient="auto"><polygon points="0,0 6,2 0,4" fill="#000000"/></marker>
<marker id="arrowhead-beam" markerWidth="6" markerHeight="4" refX="5" refY="2" orient="auto"><polygon points="0,0 6,2 0,4" fill="#CC0000"/></marker>
<linearGradient id="mount-grad" x1="0" y1="0" x2="0" y2="1"><stop offset="0%" stop-color="#A0A0A8"/><stop offset="100%" stop-color="#606068"/></linearGradient>
</defs>
<rect x="15" y="50" width="65" height="10" rx="2" fill="url(#mount-grad)" stroke="#000000" stroke-width="0.75"/>
<path d="M20,50 A35,35 0 0,1 75,50" fill="none" stroke="url(#mount-grad)" stroke-width="3"/>
<path d="M20,50 A35,35 0 0,1 75,50" fill="none" stroke="#000000" stroke-width="0.5"/>
<line x1="47" y1="50" x2="47" y2="18" stroke="#000000" stroke-width="0.5"/>
<line x1="47" y1="18" x2="42" y2="15" stroke="#000000" stroke-width="0.3"/>
<line x1="47" y1="18" x2="52" y2="15" stroke="#000000" stroke-width="0.3"/>
<circle cx="33" cy="26" r="0.5" fill="#000000" opacity="0.3"/>
<circle cx="40" cy="23" r="0.5" fill="#000000" opacity="0.3"/>
<circle cx="47" cy="22" r="0.5" fill="#000000" opacity="0.3"/>
<circle cx="54" cy="23" r="0.5" fill="#000000" opacity="0.3"/>
<circle cx="61" cy="26" r="0.5" fill="#000000" opacity="0.3"/>
<text x="47" y="72" font-family="Arial, Helvetica, sans-serif" font-size="7" fill="#000000" text-anchor="middle" font-weight="bold">Goniometer</text>
</svg>
