<?xml version="1.0" encoding="UTF-8"?>
<svg xmlns="http://www.w3.org/2000/svg" viewBox="0 0 200 70" width="200" height="70">
<defs>
  <marker id="arrowhead" markerWidth="6" markerHeight="4" refX="5" refY="2" orient="auto">
    <polygon points="0 0, 6 2, 0 4" fill="#000000" />
  </marker>
  <linearGradient id="fiber-grad" x1="0" y1="0" x2="0" y2="1">
      <stop offset="0%" stop-color="#ADACC6"/>
      <stop offset="22%" stop-color="#1B1E89"/>
      <stop offset="100%" stop-color="#0D0F42"/>
    </linearGradient>
  <linearGradient id="comp-grad" x1="0" y1="0" x2="0" y2="1">
      <stop offset="0%" stop-color="#F0F0F8"/>
      <stop offset="50%" stop-color="#B0B0C8"/>
      <stop offset="100%" stop-color="#707088"/>
    </linearGradient>
</defs>
<rect x="15" y="8" width="110" height="48" rx="3" fill="url(#comp-grad)" stroke="#000000" stroke-width="0.75" />
<rect x="22" y="14" width="70" height="28" rx="2" fill="#101828" stroke="#000000" stroke-width="0.3"/>
<path d="M30,36 L38,34 L46,32 L52,20 L58,32 L66,34 L74,36 L82,36 L88,36" fill="none" stroke="#4488CC" stroke-width="0.7"/>
<text x="105" y="35" font-family="Helvetica, Arial, sans-serif" font-size="6" fill="#444444" text-anchor="middle" font-weight="normal" font-style="normal">BOTDA</text>
<line x1="125" y1="25" x2="195" y2="25" stroke="url(#fiber-grad)" stroke-width="3.0" stroke-linecap="round" />
<line x1="125" y1="42" x2="195" y2="42" stroke="url(#fiber-grad)" stroke-width="3.0" stroke-linecap="round" />
<text x="193" y="19" font-family="Helvetica, Arial, sans-serif" font-size="7" fill="#444444" text-anchor="end" font-weight="normal" font-style="normal">probe</text>
<text x="193" y="48" font-family="Helvetica, Arial, sans-serif" font-size="7" fill="#444444" text-anchor="end" font-weight="normal" font-style="normal">pump</text>
<text x="70" y="66" font-family="Helvetica, Arial, sans-serif" font-size="8" fill="#000000" text-anchor="middle" font-weight="bold" font-style="normal">BOTDA interrogator</text>
</svg>
