<?xml version="1.0" encoding="UTF-8"?>
<svg xmlns="http://www.w3.org/2000/svg" viewBox="0 0 160 50" width="160" height="50">
<defs>
  <marker id="arrowhead" markerWidth="6" markerHeight="4" refX="5" refY="2" orient="auto">
    <polygon points="0 0, 6 2, 0 4" fill="#000000" />
  </marker>
  <linearGradient id="fiber-grad" x1="0" y1="0" x2="0" y2="1">
      <stop offset="0%" stop-color="#ADACC6"/>
      <stop offset="22%" stop-color="#1B1E89"/>
      <stop offset="100%" stop-color="#0D0F42"/>
    </linearGradient>
  <linearGradient id="comp-grad" x1="0" y1="0" x2="0" y2="1">
      <stop offset="0%" stop-color="#F0F0F8"/>
      <stop offset="50%" stop-color="#B0B0C8"/>
      <stop offset="100%" stop-color="#707088"/>
    </linearGradient>
</defs>
<line x1="5" y1="25" x2="45" y2="25" stroke="url(#fiber-grad)" stroke-width="3.0" stroke-linecap="round" />
<rect x="45" y="8" width="60" height="34" rx="2" fill="url(#comp-grad)" stroke="#000000" stroke-width="0.75" />
<circle cx="58" cy="17" r="1" fill="#CC0000" opacity="0.4"/>
<circle cx="54" cy="18" r="1" fill="#CC0000" opacity="0.4"/>
<circle cx="65" cy="19" r="1" fill="#CC0000" opacity="0.4"/>
<circle cx="58" cy="30" r="1" fill="#CC0000" opacity="0.4"/>
<circle cx="61" cy="36" r="1" fill="#CC0000" opacity="0.4"/>
<circle cx="60" cy="23" r="1" fill="#CC0000" opacity="0.4"/>
<circle cx="62" cy="18" r="1" fill="#CC0000" opacity="0.4"/>
<circle cx="68" cy="22" r="1" fill="#CC0000" opacity="0.4"/>
<circle cx="58" cy="30" r="1" fill="#CC0000" opacity="0.4"/>
<circle cx="53" cy="29" r="1" fill="#CC0000" opacity="0.4"/>
<circle cx="67" cy="21" r="1" fill="#CC0000" opacity="0.4"/>
<circle cx="69" cy="26" r="1" fill="#CC0000" opacity="0.4"/>
<line x1="80" y1="14" x2="100" y2="14" stroke="#CC0000" stroke-width="0.5" opacity="0.25"/>
<line x1="80" y1="18" x2="100" y2="18" stroke="#CC0000" stroke-width="0.5" opacity="0.25"/>
<line x1="80" y1="22" x2="100" y2="22" stroke="#CC0000" stroke-width="0.5" opacity="0.25"/>
<line x1="80" y1="26" x2="100" y2="26" stroke="#CC0000" stroke-width="0.5" opacity="0.25"/>
<line x1="80" y1="30" x2="100" y2="30" stroke="#CC0000" stroke-width="0.5" opacity="0.25"/>
<line x1="80" y1="34" x2="100" y2="34" stroke="#CC0000" stroke-width="0.5" opacity="0.25"/>
<line x1="105" y1="25" x2="155" y2="25" stroke="url(#fiber-grad)" stroke-width="3.0" stroke-linecap="round" />
<text x="75" y="48" font-family="Helvetica, Arial, sans-serif" font-size="8" fill="#000000" text-anchor="middle" font-weight="bold" font-style="normal">Homogenizer</text>
</svg>
