<svg xmlns="http://www.w3.org/2000/svg" viewBox="0 0 140 80" width="140" height="80" font-family="Arial, Helvetica, sans-serif">
<defs>
<marker id="arrowhead" markerWidth="6" markerHeight="4" refX="5" refY="2" orient="auto"><polygon points="0,0 6,2 0,4" fill="#000000"/></marker>
<marker id="arrowhead-beam" markerWidth="6" markerHeight="4" refX="5" refY="2" orient="auto"><polygon points="0,0 6,2 0,4" fill="#CC0000"/></marker>
</defs>
<rect x="35" y="30" width="60" height="30" rx="2" fill="#808088" stroke="#000000" stroke-width="0.75"/>
<path d="M38,30 C45,25 55,32 65,27 C75,22 85,28 92,30" fill="#B0B8C8" stroke="#000000" stroke-width="0.75"/>
<line x1="45" y1="30" x2="45" y2="55" stroke="#666666" stroke-width="0.4" opacity="0.3"/>
<line x1="55" y1="30" x2="55" y2="55" stroke="#666666" stroke-width="0.4" opacity="0.3"/>
<line x1="65" y1="30" x2="65" y2="55" stroke="#666666" stroke-width="0.4" opacity="0.3"/>
<line x1="75" y1="30" x2="75" y2="55" stroke="#666666" stroke-width="0.4" opacity="0.3"/>
<line x1="85" y1="30" x2="85" y2="55" stroke="#666666" stroke-width="0.4" opacity="0.3"/>
<text x="65" y="50" font-family="Arial, Helvetica, sans-serif" font-size="4.5" fill="#CC6600" text-anchor="middle" font-weight="normal">PZT</text>
<line x1="95" y1="45" x2="135" y2="45" stroke="#000000" stroke-width="0.4"/>
<line x1="5" y1="15" x2="55" y2="26" stroke="#CC0000" stroke-width="0.8" opacity="0.4"/>
<line x1="10" y1="16" x2="30" y2="20" stroke="#CC0000" stroke-width="0.8" marker-end="url(#arrowhead-beam)"/>
<line x1="75" y1="22" x2="135" y2="10" stroke="#CC0000" stroke-width="0.8" opacity="0.4"/>
<line x1="90" y1="18" x2="120" y2="12" stroke="#CC0000" stroke-width="0.8" marker-end="url(#arrowhead-beam)"/>
<text x="65" y="72" font-family="Arial, Helvetica, sans-serif" font-size="7" fill="#000000" text-anchor="middle" font-weight="bold">Piezo DM</text>
</svg>
