<svg xmlns="http://www.w3.org/2000/svg" viewBox="0 0 200 120" width="200" height="120" font-family="Arial, Helvetica, sans-serif">
<defs>
<marker id="arrowhead" markerWidth="6" markerHeight="4" refX="5" refY="2" orient="auto"><polygon points="0,0 6,2 0,4" fill="#000000"/></marker>
<marker id="arrowhead-beam" markerWidth="6" markerHeight="4" refX="5" refY="2" orient="auto"><polygon points="0,0 6,2 0,4" fill="#CC0000"/></marker>
<linearGradient id="bs-grad" x1="0" y1="0" x2="1" y2="1"><stop offset="0%" stop-color="#D8E0F0"/><stop offset="50%" stop-color="#F0F4FF" stop-opacity="0.8"/><stop offset="100%" stop-color="#B8C0D8"/></linearGradient>
</defs>
<line x1="5" y1="30" x2="30" y2="30" stroke="#CC0000" stroke-width="0.8" opacity="0.5"/>
<line x1="8" y1="30" x2="22" y2="30" stroke="#CC0000" stroke-width="0.8" marker-end="url(#arrowhead-beam)"/>
<rect x="32" y="18" width="22" height="22" fill="url(#bs-grad)" stroke="#000000" stroke-width="0.75"/>
<text x="43" y="32" font-family="Arial, Helvetica, sans-serif" font-size="4.5" fill="#000000" text-anchor="middle" font-weight="normal">BS₁</text>
<line x1="54" y1="28" x2="135" y2="28" stroke="#CC0000" stroke-width="0.8" opacity="0.35"/>
<line x1="43" y1="40" x2="43" y2="85" stroke="#CC0000" stroke-width="0.8" opacity="0.35"/>
<line x1="32" y1="88" x2="55" y2="88" stroke="#000000" stroke-width="1.5"/>
<line x1="34.9" y1="88.0" x2="34.9" y2="83.0" stroke="#666666" stroke-width="0.3"/>
<line x1="40.6" y1="88.0" x2="40.6" y2="83.0" stroke="#666666" stroke-width="0.3"/>
<line x1="46.4" y1="88.0" x2="46.4" y2="83.0" stroke="#666666" stroke-width="0.3"/>
<line x1="52.1" y1="88.0" x2="52.1" y2="83.0" stroke="#666666" stroke-width="0.3"/>
<line x1="43" y1="92" x2="150" y2="92" stroke="#CC0000" stroke-width="0.8" opacity="0.35"/>
<line x1="138" y1="18" x2="138" y2="42" stroke="#000000" stroke-width="1.5"/>
<line x1="138.0" y1="21.0" x2="133.0" y2="21.0" stroke="#666666" stroke-width="0.3"/>
<line x1="138.0" y1="27.0" x2="133.0" y2="27.0" stroke="#666666" stroke-width="0.3"/>
<line x1="138.0" y1="33.0" x2="133.0" y2="33.0" stroke="#666666" stroke-width="0.3"/>
<line x1="138.0" y1="39.0" x2="133.0" y2="39.0" stroke="#666666" stroke-width="0.3"/>
<line x1="142" y1="30" x2="155" y2="50" stroke="#CC0000" stroke-width="0.8" opacity="0.25"/>
<rect x="140" y="48" width="22" height="22" fill="url(#bs-grad)" stroke="#000000" stroke-width="0.75"/>
<text x="151" y="62" font-family="Arial, Helvetica, sans-serif" font-size="4.5" fill="#000000" text-anchor="middle" font-weight="normal">BS₂</text>
<line x1="150" y1="92" x2="150" y2="70" stroke="#CC0000" stroke-width="0.8" opacity="0.25"/>
<line x1="162" y1="59" x2="195" y2="59" stroke="#CC0000" stroke-width="0.8" opacity="0.4"/>
<line x1="170" y1="59" x2="188" y2="59" stroke="#CC0000" stroke-width="0.8" marker-end="url(#arrowhead-beam)"/>
<line x1="150" y1="48" x2="150" y2="15" stroke="#CC0000" stroke-width="0.8" opacity="0.3"/>
<text x="36" y="90" font-family="Arial, Helvetica, sans-serif" font-size="5.5" fill="#666666" text-anchor="middle" font-weight="normal">M₁</text>
<text x="142" y="15" font-family="Arial, Helvetica, sans-serif" font-size="5.5" fill="#666666" text-anchor="middle" font-weight="normal">M₂</text>
<text x="100" y="112" font-family="Arial, Helvetica, sans-serif" font-size="7" fill="#000000" text-anchor="middle" font-weight="bold">Mach-Zehnder interferometer</text>
</svg>
