<svg xmlns="http://www.w3.org/2000/svg" viewBox="0 0 150 65" width="150" height="65" font-family="Arial, Helvetica, sans-serif">
<defs>
<marker id="arrowhead" markerWidth="6" markerHeight="4" refX="5" refY="2" orient="auto"><polygon points="0,0 6,2 0,4" fill="#000000"/></marker>
<marker id="arrowhead-beam" markerWidth="6" markerHeight="4" refX="5" refY="2" orient="auto"><polygon points="0,0 6,2 0,4" fill="#CC0000"/></marker>
<linearGradient id="housing-grad" x1="0" y1="0" x2="0" y2="1"><stop offset="0%" stop-color="#B0B0B8"/><stop offset="100%" stop-color="#707078"/></linearGradient>
</defs>
<line x1="5" y1="32" x2="30" y2="32" stroke="#CC0000" stroke-width="0.8" opacity="0.5"/>
<line x1="8" y1="32" x2="20" y2="32" stroke="#CC0000" stroke-width="0.8" marker-end="url(#arrowhead-beam)"/>
<rect x="33" y="8" width="70" height="48" rx="3" fill="url(#housing-grad)" stroke="#000000" stroke-width="0.75"/>
<rect x="36" y="16" width="16" height="16" rx="1" fill="#101828" stroke="#000000" stroke-width="0.3"/>
<path d="M52,24 L58,20 L64,28 L70,20 L76,28 L82,20 L88,24" fill="none" stroke="#CC6600" stroke-width="0.4" opacity="0.4"/>
<text x="70" y="42" font-family="Arial, Helvetica, sans-serif" font-size="4.5" fill="#CC6600" text-anchor="middle" font-weight="normal">EM gain</text>
<rect x="103" y="30" width="12" height="8" rx="1" fill="none" stroke="#000000" stroke-width="0.3"/>
<line x1="115" y1="34" x2="145" y2="34" stroke="#000000" stroke-width="0.4"/>
<text x="75" y="60" font-family="Arial, Helvetica, sans-serif" font-size="7" fill="#000000" text-anchor="middle" font-weight="bold">EMCCD camera</text>
</svg>
