<svg xmlns="http://www.w3.org/2000/svg" viewBox="0 0 170 80" width="170" height="80" font-family="Arial, Helvetica, sans-serif">
<defs>
<marker id="arrowhead" markerWidth="6" markerHeight="4" refX="5" refY="2" orient="auto"><polygon points="0,0 6,2 0,4" fill="#1a1a1a"/></marker>
<marker id="arrowhead-beam" markerWidth="6" markerHeight="4" refX="5" refY="2" orient="auto"><polygon points="0,0 6,2 0,4" fill="#c0392b"/></marker>
</defs>
<line x1="5" y1="40" x2="40" y2="40" stroke="#c0392b" stroke-width="0.6" opacity="0.5"/>
<line x1="10" y1="40" x2="28" y2="40" stroke="#c0392b" stroke-width="0.6" marker-end="url(#arrowhead-beam)"/>
<path d="M44.0,25.0 L44.0,55.0 C56,47.5 56,32.5 44.0,25.0 Z" fill="#f4f6fa" stroke="#1a1a1a" stroke-width="0.5"/>
<polygon points="72,30 80,40 72,50" fill="#f4f6fa" stroke="#1a1a1a" stroke-width="0.5"/>
<line x1="80" y1="35" x2="120" y2="25" stroke="#c0392b" stroke-width="0.4" opacity="0.3"/>
<line x1="80" y1="38" x2="120" y2="35" stroke="#c0392b" stroke-width="0.4" opacity="0.3"/>
<line x1="80" y1="42" x2="120" y2="45" stroke="#c0392b" stroke-width="0.4" opacity="0.3"/>
<line x1="80" y1="45" x2="120" y2="55" stroke="#c0392b" stroke-width="0.4" opacity="0.3"/>
<path d="M124.0,22.5 L124.0,57.5 C136,48.75 136,31.25 124.0,22.5 Z" fill="#f4f6fa" stroke="#1a1a1a" stroke-width="0.5"/>
<rect x="142" y="25" width="22" height="30" rx="2" fill="#f0f0f0" stroke="#1a1a1a" stroke-width="0.4"/>
<rect x="145" y="30" width="12" height="16" fill="#101828" stroke="#1a1a1a" stroke-width="0.2"/>
<text x="85" y="75" font-family="Arial, Helvetica, sans-serif" font-size="7" fill="#1a1a1a" text-anchor="middle" font-weight="bold">Pyramid WFS</text>
</svg>
