<svg xmlns="http://www.w3.org/2000/svg" viewBox="0 0 130 75" width="130" height="75" font-family="Arial, Helvetica, sans-serif">
<defs>
<marker id="arrowhead" markerWidth="6" markerHeight="4" refX="5" refY="2" orient="auto"><polygon points="0,0 6,2 0,4" fill="#000000"/></marker>
<marker id="arrowhead-beam" markerWidth="6" markerHeight="4" refX="5" refY="2" orient="auto"><polygon points="0,0 6,2 0,4" fill="#CC0000"/></marker>
<linearGradient id="lens-grad" x1="0" y1="0" x2="1" y2="0"><stop offset="0%" stop-color="#D0E0F8"/><stop offset="50%" stop-color="#E8F0FF"/><stop offset="100%" stop-color="#B8C8E0"/></linearGradient>
<linearGradient id="glass-grad" x1="0" y1="0" x2="1" y2="1"><stop offset="0%" stop-color="#D8E4F8"/><stop offset="100%" stop-color="#A8B8D8"/></linearGradient>
</defs>
<line x1="5" y1="37" x2="45" y2="37" stroke="#CC0000" stroke-width="0.8" opacity="0.4"/>
<line x1="10" y1="37" x2="30" y2="37" stroke="#CC0000" stroke-width="0.8" marker-end="url(#arrowhead-beam)"/>
<path d="M50,12 C42,22 42,52 50,62 L56,62 L56,12 Z" fill="url(#lens-grad)" stroke="#000000" stroke-width="0.75"/>
<rect x="56" y="12" width="8" height="50" fill="url(#glass-grad)" stroke="#000000" stroke-width="0.75"/>
<path d="M64,12 L64,62 L70,62 C78,52 78,22 70,12 Z" fill="url(#lens-grad)" stroke="#000000" stroke-width="0.75"/>
<line x1="56" y1="12" x2="56" y2="62" stroke="#000000" stroke-width="0.35" opacity="0.4"/>
<line x1="64" y1="12" x2="64" y2="62" stroke="#000000" stroke-width="0.35" opacity="0.4"/>
<line x1="78" y1="37" x2="125" y2="37" stroke="#CC0000" stroke-width="0.8" opacity="0.4"/>
<text x="60" y="72" font-family="Arial, Helvetica, sans-serif" font-size="7" fill="#000000" text-anchor="middle" font-weight="bold">Apochromatic triplet</text>
</svg>
