<svg xmlns="http://www.w3.org/2000/svg" viewBox="0 0 140 80" width="140" height="80" font-family="Arial, Helvetica, sans-serif">
<defs>
<marker id="arrowhead" markerWidth="6" markerHeight="4" refX="5" refY="2" orient="auto"><polygon points="0,0 6,2 0,4" fill="#000000"/></marker>
<marker id="arrowhead-beam" markerWidth="6" markerHeight="4" refX="5" refY="2" orient="auto"><polygon points="0,0 6,2 0,4" fill="#CC0000"/></marker>
<linearGradient id="grating-grad" x1="0" y1="0" x2="0" y2="1"><stop offset="0%" stop-color="#C8C0A0"/><stop offset="100%" stop-color="#908860"/></linearGradient>
</defs>
<rect x="60" y="10" width="14" height="52" rx="1" fill="url(#grating-grad)" stroke="#000000" stroke-width="0.75"/>
<path d="M60,14 L56,20 L60,22" fill="none" stroke="#000000" stroke-width="0.5" opacity="0.5"/>
<path d="M60,22 L56,28 L60,30" fill="none" stroke="#000000" stroke-width="0.5" opacity="0.5"/>
<path d="M60,30 L56,36 L60,38" fill="none" stroke="#000000" stroke-width="0.5" opacity="0.5"/>
<path d="M60,38 L56,44 L60,46" fill="none" stroke="#000000" stroke-width="0.5" opacity="0.5"/>
<path d="M60,46 L56,52 L60,54" fill="none" stroke="#000000" stroke-width="0.5" opacity="0.5"/>
<path d="M60,54 L56,60 L60,62" fill="none" stroke="#000000" stroke-width="0.5" opacity="0.5"/>
<line x1="5" y1="50" x2="60" y2="36" stroke="#CC0000" stroke-width="0.8" opacity="0.5"/>
<line x1="10" y1="48" x2="35" y2="42" stroke="#CC0000" stroke-width="0.8" marker-end="url(#arrowhead-beam)"/>
<line x1="60" y1="36" x2="135" y2="18" stroke="#CC0000" stroke-width="0.6" opacity="0.5"/>
<line x1="60" y1="36" x2="135" y2="28" stroke="#CC0000" stroke-width="0.4" opacity="0.3"/>
<text x="125" y="15" font-family="Arial, Helvetica, sans-serif" font-size="4.5" fill="#666666" text-anchor="middle" font-weight="normal">m=50+</text>
<text x="70" y="75" font-family="Arial, Helvetica, sans-serif" font-size="7" fill="#000000" text-anchor="middle" font-weight="bold">Echelle grating</text>
</svg>
