<?xml version="1.0" encoding="UTF-8"?>
<svg xmlns="http://www.w3.org/2000/svg" viewBox="0 0 160 50" width="160" height="50">
<defs>
  <marker id="arrowhead" markerWidth="6" markerHeight="4" refX="5" refY="2" orient="auto">
    <polygon points="0 0, 6 2, 0 4" fill="#000000" />
  </marker>
</defs>
<line x1="5" y1="25" x2="30" y2="25" stroke="#1B1E89" stroke-width="2.5" stroke-linecap="round" />
<rect x="30" y="8" width="85" height="34" rx="3" fill="#D4D8E8" stroke="#000000" stroke-width="0.75" />
<path d="M48,12 C52,18 52,32 48,38" fill="none" stroke="#000000" stroke-width="0.5"/>
<path d="M50,12 C54,18 54,32 50,38" fill="none" stroke="#6688CC" stroke-width="0.4" opacity="0.5"/>
<line x1="55" y1="18" x2="80" y2="18" stroke="#CC0000" stroke-width="0.4" opacity="0.4"/>
<line x1="55" y1="25" x2="80" y2="25" stroke="#CC0000" stroke-width="0.4" opacity="0.4"/>
<line x1="55" y1="32" x2="80" y2="32" stroke="#CC0000" stroke-width="0.4" opacity="0.4"/>
<path d="M82,12 C86,18 86,32 82,38" fill="none" stroke="#000000" stroke-width="0.5"/>
<path d="M84,12 C88,18 88,32 84,38" fill="none" stroke="#6688CC" stroke-width="0.4" opacity="0.5"/>
<line x1="115" y1="25" x2="155" y2="25" stroke="#1B1E89" stroke-width="2.5" stroke-linecap="round" />
<text x="72" y="48" font-family="Helvetica, Arial, sans-serif" font-size="8" fill="#000000" text-anchor="middle" font-weight="bold" font-style="normal">Expanded beam</text>
</svg>
