<svg xmlns="http://www.w3.org/2000/svg" viewBox="0 0 150 70" width="150" height="70" font-family="Arial, Helvetica, sans-serif">
<defs>
<marker id="arrowhead" markerWidth="6" markerHeight="4" refX="5" refY="2" orient="auto"><polygon points="0,0 6,2 0,4" fill="#1a1a1a"/></marker>
<marker id="arrowhead-beam" markerWidth="6" markerHeight="4" refX="5" refY="2" orient="auto"><polygon points="0,0 6,2 0,4" fill="#c0392b"/></marker>
</defs>
<rect x="35" y="8" width="65" height="46" rx="3" fill="#f0f0f0" stroke="#1a1a1a" stroke-width="0.5"/>
<rect x="42" y="14" width="38" height="28" rx="1" fill="#101828" stroke="#1a1a1a" stroke-width="0.3"/>
<rect x="44" y="16" width="3" height="3" fill="#222244" opacity="0.4"/>
<rect x="44" y="20" width="3" height="3" fill="#444466" opacity="0.4"/>
<rect x="44" y="24" width="3" height="3" fill="#222244" opacity="0.4"/>
<rect x="44" y="28" width="3" height="3" fill="#444466" opacity="0.4"/>
<rect x="44" y="32" width="3" height="3" fill="#222244" opacity="0.4"/>
<rect x="44" y="36" width="3" height="3" fill="#444466" opacity="0.4"/>
<rect x="48" y="16" width="3" height="3" fill="#444466" opacity="0.4"/>
<rect x="48" y="20" width="3" height="3" fill="#222244" opacity="0.4"/>
<rect x="48" y="24" width="3" height="3" fill="#444466" opacity="0.4"/>
<rect x="48" y="28" width="3" height="3" fill="#222244" opacity="0.4"/>
<rect x="48" y="32" width="3" height="3" fill="#444466" opacity="0.4"/>
<rect x="48" y="36" width="3" height="3" fill="#222244" opacity="0.4"/>
<rect x="52" y="16" width="3" height="3" fill="#222244" opacity="0.4"/>
<rect x="52" y="20" width="3" height="3" fill="#444466" opacity="0.4"/>
<rect x="52" y="24" width="3" height="3" fill="#222244" opacity="0.4"/>
<rect x="52" y="28" width="3" height="3" fill="#444466" opacity="0.4"/>
<rect x="52" y="32" width="3" height="3" fill="#222244" opacity="0.4"/>
<rect x="52" y="36" width="3" height="3" fill="#444466" opacity="0.4"/>
<rect x="56" y="16" width="3" height="3" fill="#444466" opacity="0.4"/>
<rect x="56" y="20" width="3" height="3" fill="#222244" opacity="0.4"/>
<rect x="56" y="24" width="3" height="3" fill="#444466" opacity="0.4"/>
<rect x="56" y="28" width="3" height="3" fill="#222244" opacity="0.4"/>
<rect x="56" y="32" width="3" height="3" fill="#444466" opacity="0.4"/>
<rect x="56" y="36" width="3" height="3" fill="#222244" opacity="0.4"/>
<rect x="60" y="16" width="3" height="3" fill="#222244" opacity="0.4"/>
<rect x="60" y="20" width="3" height="3" fill="#444466" opacity="0.4"/>
<rect x="60" y="24" width="3" height="3" fill="#222244" opacity="0.4"/>
<rect x="60" y="28" width="3" height="3" fill="#444466" opacity="0.4"/>
<rect x="60" y="32" width="3" height="3" fill="#222244" opacity="0.4"/>
<rect x="60" y="36" width="3" height="3" fill="#444466" opacity="0.4"/>
<rect x="64" y="16" width="3" height="3" fill="#444466" opacity="0.4"/>
<rect x="64" y="20" width="3" height="3" fill="#222244" opacity="0.4"/>
<rect x="64" y="24" width="3" height="3" fill="#444466" opacity="0.4"/>
<rect x="64" y="28" width="3" height="3" fill="#222244" opacity="0.4"/>
<rect x="64" y="32" width="3" height="3" fill="#444466" opacity="0.4"/>
<rect x="64" y="36" width="3" height="3" fill="#222244" opacity="0.4"/>
<rect x="68" y="16" width="3" height="3" fill="#222244" opacity="0.4"/>
<rect x="68" y="20" width="3" height="3" fill="#444466" opacity="0.4"/>
<rect x="68" y="24" width="3" height="3" fill="#222244" opacity="0.4"/>
<rect x="68" y="28" width="3" height="3" fill="#444466" opacity="0.4"/>
<rect x="68" y="32" width="3" height="3" fill="#222244" opacity="0.4"/>
<rect x="68" y="36" width="3" height="3" fill="#444466" opacity="0.4"/>
<rect x="72" y="16" width="3" height="3" fill="#444466" opacity="0.4"/>
<rect x="72" y="20" width="3" height="3" fill="#222244" opacity="0.4"/>
<rect x="72" y="24" width="3" height="3" fill="#444466" opacity="0.4"/>
<rect x="72" y="28" width="3" height="3" fill="#222244" opacity="0.4"/>
<rect x="72" y="32" width="3" height="3" fill="#444466" opacity="0.4"/>
<rect x="72" y="36" width="3" height="3" fill="#222244" opacity="0.4"/>
<rect x="76" y="16" width="3" height="3" fill="#222244" opacity="0.4"/>
<rect x="76" y="20" width="3" height="3" fill="#444466" opacity="0.4"/>
<rect x="76" y="24" width="3" height="3" fill="#222244" opacity="0.4"/>
<rect x="76" y="28" width="3" height="3" fill="#444466" opacity="0.4"/>
<rect x="76" y="32" width="3" height="3" fill="#222244" opacity="0.4"/>
<rect x="76" y="36" width="3" height="3" fill="#444466" opacity="0.4"/>
<text x="85" y="20" font-family="Arial, Helvetica, sans-serif" font-size="4.5" fill="#888888" text-anchor="middle" font-weight="normal">binary</text>
<text x="85" y="30" font-family="Arial, Helvetica, sans-serif" font-size="4.5" fill="#888888" text-anchor="middle" font-weight="normal">phase</text>
<line x1="5" y1="32" x2="35" y2="32" stroke="#c0392b" stroke-width="0.6" opacity="0.4"/>
<line x1="10" y1="32" x2="25" y2="32" stroke="#c0392b" stroke-width="0.6" marker-end="url(#arrowhead-beam)"/>
<line x1="100" y1="22" x2="145" y2="12" stroke="#c0392b" stroke-width="0.6" opacity="0.4"/>
<line x1="100" y1="30" x2="130" y2="30" stroke="#1a1a1a" stroke-width="0.4"/>
<text x="67" y="64" font-family="Arial, Helvetica, sans-serif" font-size="7" fill="#1a1a1a" text-anchor="middle" font-weight="bold">Ferroelectric LCoS</text>
</svg>
