<svg xmlns="http://www.w3.org/2000/svg" viewBox="0 0 100 100" width="100" height="100" font-family="Arial, Helvetica, sans-serif">
<defs>
<marker id="arrowhead" markerWidth="6" markerHeight="4" refX="5" refY="2" orient="auto"><polygon points="0,0 6,2 0,4" fill="#000000"/></marker>
<marker id="arrowhead-beam" markerWidth="6" markerHeight="4" refX="5" refY="2" orient="auto"><polygon points="0,0 6,2 0,4" fill="#CC0000"/></marker>
</defs>
<line x1="20" y1="65" x2="45" y2="40" stroke="#000000" stroke-width="1.5"/>
<line x1="21.8" y1="63.2" x2="25.3" y2="66.7" stroke="#666666" stroke-width="0.3"/>
<line x1="25.4" y1="59.6" x2="28.9" y2="63.2" stroke="#666666" stroke-width="0.3"/>
<line x1="28.9" y1="56.1" x2="32.5" y2="59.6" stroke="#666666" stroke-width="0.3"/>
<line x1="32.5" y1="52.5" x2="36.0" y2="56.0" stroke="#666666" stroke-width="0.3"/>
<line x1="36.1" y1="48.9" x2="39.6" y2="52.5" stroke="#666666" stroke-width="0.3"/>
<line x1="39.6" y1="45.4" x2="43.2" y2="48.9" stroke="#666666" stroke-width="0.3"/>
<line x1="43.2" y1="41.8" x2="46.7" y2="45.3" stroke="#666666" stroke-width="0.3"/>
<line x1="55" y1="25" x2="80" y2="0" stroke="#000000" stroke-width="1.5"/>
<line x1="56.8" y1="23.2" x2="60.3" y2="26.7" stroke="#666666" stroke-width="0.3"/>
<line x1="60.4" y1="19.6" x2="63.9" y2="23.2" stroke="#666666" stroke-width="0.3"/>
<line x1="63.9" y1="16.1" x2="67.5" y2="19.6" stroke="#666666" stroke-width="0.3"/>
<line x1="67.5" y1="12.5" x2="71.0" y2="16.0" stroke="#666666" stroke-width="0.3"/>
<line x1="71.1" y1="8.9" x2="74.6" y2="12.5" stroke="#666666" stroke-width="0.3"/>
<line x1="74.6" y1="5.4" x2="78.2" y2="8.9" stroke="#666666" stroke-width="0.3"/>
<line x1="78.2" y1="1.8" x2="81.7" y2="5.3" stroke="#666666" stroke-width="0.3"/>
<line x1="5" y1="52" x2="32" y2="52" stroke="#CC0000" stroke-width="0.8" opacity="0.5"/>
<line x1="8" y1="52" x2="22" y2="52" stroke="#CC0000" stroke-width="0.8" marker-end="url(#arrowhead-beam)"/>
<line x1="32" y1="52" x2="68" y2="12" stroke="#CC0000" stroke-width="0.8" opacity="0.4"/>
<line x1="68" y1="12" x2="95" y2="12" stroke="#CC0000" stroke-width="0.8" opacity="0.5"/>
<line x1="75" y1="12" x2="90" y2="12" stroke="#CC0000" stroke-width="0.8" marker-end="url(#arrowhead-beam)"/>
<text x="50" y="95" font-family="Arial, Helvetica, sans-serif" font-size="7" fill="#000000" text-anchor="middle" font-weight="bold">Periscope</text>
</svg>
