<svg xmlns="http://www.w3.org/2000/svg" viewBox="0 0 130 75" width="130" height="75" font-family="Arial, Helvetica, sans-serif">
<defs>
<marker id="arrowhead" markerWidth="6" markerHeight="4" refX="5" refY="2" orient="auto"><polygon points="0,0 6,2 0,4" fill="#1a1a1a"/></marker>
<marker id="arrowhead-beam" markerWidth="6" markerHeight="4" refX="5" refY="2" orient="auto"><polygon points="0,0 6,2 0,4" fill="#c0392b"/></marker>
</defs>
<rect x="30" y="25" width="55" height="30" rx="2" fill="#f0f0f0" stroke="#1a1a1a" stroke-width="0.5"/>
<rect x="35" y="28" width="4" height="4" fill="#e8e8ec" stroke="#1a1a1a" stroke-width="0.2" opacity="0.5"/>
<rect x="35" y="34" width="4" height="4" fill="#e8e8ec" stroke="#1a1a1a" stroke-width="0.2" opacity="0.5"/>
<rect x="35" y="40" width="4" height="4" fill="#e8e8ec" stroke="#1a1a1a" stroke-width="0.2" opacity="0.5"/>
<rect x="35" y="46" width="4" height="4" fill="#e8e8ec" stroke="#1a1a1a" stroke-width="0.2" opacity="0.5"/>
<rect x="41" y="28" width="4" height="4" fill="#e8e8ec" stroke="#1a1a1a" stroke-width="0.2" opacity="0.5"/>
<rect x="41" y="34" width="4" height="4" fill="#e8e8ec" stroke="#1a1a1a" stroke-width="0.2" opacity="0.5"/>
<rect x="41" y="40" width="4" height="4" fill="#e8e8ec" stroke="#1a1a1a" stroke-width="0.2" opacity="0.5"/>
<rect x="41" y="46" width="4" height="4" fill="#e8e8ec" stroke="#1a1a1a" stroke-width="0.2" opacity="0.5"/>
<rect x="47" y="28" width="4" height="4" fill="#e8e8ec" stroke="#1a1a1a" stroke-width="0.2" opacity="0.5"/>
<rect x="47" y="34" width="4" height="4" fill="#e8e8ec" stroke="#1a1a1a" stroke-width="0.2" opacity="0.5"/>
<rect x="47" y="40" width="4" height="4" fill="#e8e8ec" stroke="#1a1a1a" stroke-width="0.2" opacity="0.5"/>
<rect x="47" y="46" width="4" height="4" fill="#e8e8ec" stroke="#1a1a1a" stroke-width="0.2" opacity="0.5"/>
<rect x="53" y="28" width="4" height="4" fill="#e8e8ec" stroke="#1a1a1a" stroke-width="0.2" opacity="0.5"/>
<rect x="53" y="34" width="4" height="4" fill="#e8e8ec" stroke="#1a1a1a" stroke-width="0.2" opacity="0.5"/>
<rect x="53" y="40" width="4" height="4" fill="#e8e8ec" stroke="#1a1a1a" stroke-width="0.2" opacity="0.5"/>
<rect x="53" y="46" width="4" height="4" fill="#e8e8ec" stroke="#1a1a1a" stroke-width="0.2" opacity="0.5"/>
<rect x="59" y="28" width="4" height="4" fill="#e8e8ec" stroke="#1a1a1a" stroke-width="0.2" opacity="0.5"/>
<rect x="59" y="34" width="4" height="4" fill="#e8e8ec" stroke="#1a1a1a" stroke-width="0.2" opacity="0.5"/>
<rect x="59" y="40" width="4" height="4" fill="#e8e8ec" stroke="#1a1a1a" stroke-width="0.2" opacity="0.5"/>
<rect x="59" y="46" width="4" height="4" fill="#e8e8ec" stroke="#1a1a1a" stroke-width="0.2" opacity="0.5"/>
<rect x="65" y="28" width="4" height="4" fill="#e8e8ec" stroke="#1a1a1a" stroke-width="0.2" opacity="0.5"/>
<rect x="65" y="34" width="4" height="4" fill="#e8e8ec" stroke="#1a1a1a" stroke-width="0.2" opacity="0.5"/>
<rect x="65" y="40" width="4" height="4" fill="#e8e8ec" stroke="#1a1a1a" stroke-width="0.2" opacity="0.5"/>
<rect x="65" y="46" width="4" height="4" fill="#e8e8ec" stroke="#1a1a1a" stroke-width="0.2" opacity="0.5"/>
<rect x="71" y="28" width="4" height="4" fill="#e8e8ec" stroke="#1a1a1a" stroke-width="0.2" opacity="0.5"/>
<rect x="71" y="34" width="4" height="4" fill="#e8e8ec" stroke="#1a1a1a" stroke-width="0.2" opacity="0.5"/>
<rect x="71" y="40" width="4" height="4" fill="#e8e8ec" stroke="#1a1a1a" stroke-width="0.2" opacity="0.5"/>
<rect x="71" y="46" width="4" height="4" fill="#e8e8ec" stroke="#1a1a1a" stroke-width="0.2" opacity="0.5"/>
<rect x="77" y="28" width="4" height="4" fill="#e8e8ec" stroke="#1a1a1a" stroke-width="0.2" opacity="0.5"/>
<rect x="77" y="34" width="4" height="4" fill="#e8e8ec" stroke="#1a1a1a" stroke-width="0.2" opacity="0.5"/>
<rect x="77" y="40" width="4" height="4" fill="#e8e8ec" stroke="#1a1a1a" stroke-width="0.2" opacity="0.5"/>
<rect x="77" y="46" width="4" height="4" fill="#e8e8ec" stroke="#1a1a1a" stroke-width="0.2" opacity="0.5"/>
<line x1="5" y1="15" x2="45" y2="26" stroke="#c0392b" stroke-width="0.6" opacity="0.4"/>
<line x1="10" y1="17" x2="28" y2="22" stroke="#c0392b" stroke-width="0.6" marker-end="url(#arrowhead-beam)"/>
<line x1="70" y1="22" x2="125" y2="10" stroke="#c0392b" stroke-width="0.6" opacity="0.4"/>
<line x1="85" y1="18" x2="110" y2="12" stroke="#c0392b" stroke-width="0.6" marker-end="url(#arrowhead-beam)"/>
<line x1="85" y1="40" x2="125" y2="40" stroke="#1a1a1a" stroke-width="0.4"/>
<text x="105" y="37" font-family="Arial, Helvetica, sans-serif" font-size="4.5" fill="#888888" text-anchor="middle" font-weight="normal">USB</text>
<text x="57" y="68" font-family="Arial, Helvetica, sans-serif" font-size="7" fill="#1a1a1a" text-anchor="middle" font-weight="bold">MEMS DM</text>
</svg>
