<svg xmlns="http://www.w3.org/2000/svg" viewBox="0 0 160 100" width="160" height="100" font-family="Arial, Helvetica, sans-serif">
<defs>
<marker id="arrowhead" markerWidth="6" markerHeight="4" refX="5" refY="2" orient="auto"><polygon points="0,0 6,2 0,4" fill="#000000"/></marker>
<marker id="arrowhead-beam" markerWidth="6" markerHeight="4" refX="5" refY="2" orient="auto"><polygon points="0,0 6,2 0,4" fill="#CC0000"/></marker>
</defs>
<line x1="5" y1="45" x2="55" y2="45" stroke="#CC0000" stroke-width="0.8" opacity="0.5"/>
<line x1="10" y1="45" x2="35" y2="45" stroke="#CC0000" stroke-width="0.8" marker-end="url(#arrowhead-beam)"/>
<rect x="55" y="30" width="25" height="25" fill="#C8D8F0" stroke="#000000" stroke-width="0.75"/>
<line x1="55" y1="55" x2="80" y2="30" stroke="#4060C0" stroke-width="0.4" opacity="0.3"/>
<text x="67" y="45" font-family="Arial, Helvetica, sans-serif" font-size="4.5" fill="#000000" text-anchor="middle" font-weight="normal">50/50</text>
<line x1="80" y1="42" x2="120" y2="42" stroke="#CC0000" stroke-width="0.8" opacity="0.4"/>
<rect x="123" y="34" width="16" height="16" rx="2" fill="#333366" stroke="#000000" stroke-width="0.4" opacity="0.7"/>
<text x="131" y="44" font-family="Arial, Helvetica, sans-serif" font-size="4.5" fill="white" text-anchor="middle" font-weight="normal">D₁</text>
<line x1="67" y1="55" x2="67" y2="78" stroke="#CC0000" stroke-width="0.8" opacity="0.4"/>
<rect x="59" y="80" width="16" height="16" rx="2" fill="#333366" stroke="#000000" stroke-width="0.4" opacity="0.7"/>
<text x="67" y="90" font-family="Arial, Helvetica, sans-serif" font-size="4.5" fill="white" text-anchor="middle" font-weight="normal">D₂</text>
<text x="8" y="40" font-family="Arial, Helvetica, sans-serif" font-size="4.5" fill="#666666" text-anchor="middle" font-weight="normal">source</text>
<text x="145" y="50" font-family="Arial, Helvetica, sans-serif" font-size="5.5" fill="#666666" text-anchor="middle" font-weight="normal">g²(τ)</text>
<text x="80" y="98" font-family="Arial, Helvetica, sans-serif" font-size="7" fill="#000000" text-anchor="middle" font-weight="bold">HBT correlator</text>
</svg>
