<?xml version="1.0" encoding="UTF-8"?>
<svg xmlns="http://www.w3.org/2000/svg" viewBox="0 0 200 50" width="200" height="50">
<defs>
  <marker id="arrowhead" markerWidth="6" markerHeight="4" refX="5" refY="2" orient="auto">
    <polygon points="0 0, 6 2, 0 4" fill="#1a1a1a" />
  </marker>
  <marker id="arrowhead-beam" markerWidth="6" markerHeight="4" refX="5" refY="2" orient="auto">
    <polygon points="0 0, 6 2, 0 4" fill="#c0392b" />
  </marker>
  <marker id="arrowhead-gray" markerWidth="5" markerHeight="3.5" refX="4" refY="1.75" orient="auto">
    <polygon points="0 0, 5 1.75, 0 3.5" fill="#888888" />
  </marker>
</defs>
<line x1="5" y1="25" x2="30" y2="25" stroke="#333333" stroke-width="0.7" stroke-linecap="round" />
<path d="M30,25 C35,8 50,8 55,25 C60,42 75,42 80,25 C85,8 100,8 105,25 C110,42 125,42 130,25 C135,8 150,8 155,25" fill="none" stroke="#333333" stroke-width="0.7" />
<line x1="155" y1="25" x2="195" y2="25" stroke="#333333" stroke-width="0.7" stroke-linecap="round" />
<line x1="10" y1="25" x2="25" y2="25" stroke="#888888" stroke-width="0.5" marker-end="url(#arrowhead-gray)" />
<line x1="165" y1="25" x2="180" y2="25" stroke="#888888" stroke-width="0.5" marker-end="url(#arrowhead-gray)" />
<text x="100" y="48" font-family="Arial, Helvetica, sans-serif" font-size="8" fill="#1a1a1a" text-anchor="middle" font-weight="bold" font-style="normal">Delay line</text>
</svg>
