<?xml version="1.0" encoding="UTF-8"?>
<svg xmlns="http://www.w3.org/2000/svg" viewBox="0 0 200 70" width="200" height="70">
<defs>
  <marker id="arrowhead" markerWidth="6" markerHeight="4" refX="5" refY="2" orient="auto">
    <polygon points="0 0, 6 2, 0 4" fill="#1a1a1a" />
  </marker>
  <marker id="arrowhead-beam" markerWidth="6" markerHeight="4" refX="5" refY="2" orient="auto">
    <polygon points="0 0, 6 2, 0 4" fill="#c0392b" />
  </marker>
  <marker id="arrowhead-gray" markerWidth="5" markerHeight="3.5" refX="4" refY="1.75" orient="auto">
    <polygon points="0 0, 5 1.75, 0 3.5" fill="#888888" />
  </marker>
</defs>
<line x1="5" y1="35" x2="35" y2="35" stroke="#333333" stroke-width="0.7" stroke-linecap="round" />
<line x1="10" y1="35" x2="25" y2="35" stroke="#888888" stroke-width="0.5" marker-end="url(#arrowhead-gray)" />
<rect x="35" y="10" width="110" height="50" rx="3" fill="#f0f0f0" stroke="#1a1a1a" stroke-width="0.5" />
<line x1="45" y1="20" x2="135" y2="20" stroke="#1a1a1a" stroke-width="0.4" opacity="0.4"/>
<text x="90" y="23" font-family="Arial, Helvetica, sans-serif" font-size="6" fill="#888888" text-anchor="middle" font-weight="normal" font-style="normal">0</text>
<line x1="45" y1="35" x2="135" y2="35" stroke="#1a1a1a" stroke-width="0.4" opacity="0.4"/>
<text x="90" y="38" font-family="Arial, Helvetica, sans-serif" font-size="6" fill="#888888" text-anchor="middle" font-weight="normal" font-style="normal">τ</text>
<line x1="45" y1="50" x2="135" y2="50" stroke="#1a1a1a" stroke-width="0.4" opacity="0.4"/>
<text x="90" y="53" font-family="Arial, Helvetica, sans-serif" font-size="6" fill="#888888" text-anchor="middle" font-weight="normal" font-style="normal">2τ</text>
<circle cx="50" cy="35" r="3" fill="#1a1a1a" opacity="0.3"/>
<circle cx="130" cy="35" r="3" fill="#1a1a1a" opacity="0.3"/>
<line x1="145" y1="35" x2="195" y2="35" stroke="#333333" stroke-width="0.7" stroke-linecap="round" />
<line x1="160" y1="35" x2="180" y2="35" stroke="#888888" stroke-width="0.5" marker-end="url(#arrowhead-gray)" />
<text x="90" y="66" font-family="Arial, Helvetica, sans-serif" font-size="8" fill="#1a1a1a" text-anchor="middle" font-weight="bold" font-style="normal">Optical buffer</text>
</svg>
