<?xml version="1.0" encoding="UTF-8"?>
<svg xmlns="http://www.w3.org/2000/svg" viewBox="0 0 200 80" width="200" height="80">
<defs>
  <marker id="arrowhead" markerWidth="6" markerHeight="4" refX="5" refY="2" orient="auto">
    <polygon points="0 0, 6 2, 0 4" fill="#1a1a1a" />
  </marker>
  <marker id="arrowhead-beam" markerWidth="6" markerHeight="4" refX="5" refY="2" orient="auto">
    <polygon points="0 0, 6 2, 0 4" fill="#c0392b" />
  </marker>
  <marker id="arrowhead-gray" markerWidth="5" markerHeight="3.5" refX="4" refY="1.75" orient="auto">
    <polygon points="0 0, 5 1.75, 0 3.5" fill="#888888" />
  </marker>
</defs>
<line x1="5" y1="20" x2="60" y2="20" stroke="#333333" stroke-width="0.7" stroke-linecap="round" />
<line x1="5" y1="35" x2="60" y2="35" stroke="#333333" stroke-width="0.7" stroke-linecap="round" />
<line x1="5" y1="50" x2="60" y2="50" stroke="#333333" stroke-width="0.7" stroke-linecap="round" />
<line x1="5" y1="65" x2="60" y2="65" stroke="#333333" stroke-width="0.7" stroke-linecap="round" />
<rect x="60" y="10" width="50" height="65" rx="3" fill="#f0f0f0" stroke="#1a1a1a" stroke-width="0.5" />
<line x1="65" y1="20" x2="105" y2="42" stroke="#1a1a1a" stroke-width="0.35" opacity="0.3"/>
<line x1="65" y1="35" x2="105" y2="42" stroke="#1a1a1a" stroke-width="0.35" opacity="0.3"/>
<line x1="65" y1="50" x2="105" y2="42" stroke="#1a1a1a" stroke-width="0.35" opacity="0.3"/>
<line x1="65" y1="65" x2="105" y2="42" stroke="#1a1a1a" stroke-width="0.35" opacity="0.3"/>
<line x1="110" y1="42" x2="195" y2="42" stroke="#333333" stroke-width="1.4" stroke-linecap="round"/>
<line x1="150" y1="42" x2="170" y2="42" stroke="#888888" stroke-width="0.5" marker-end="url(#arrowhead-gray)" />
<text x="85" y="48" font-family="Arial, Helvetica, sans-serif" font-size="6" fill="#888888" text-anchor="middle" font-weight="normal" font-style="normal">taper</text>
<text x="8" y="14" font-family="Arial, Helvetica, sans-serif" font-size="7" fill="#888888" text-anchor="start" font-weight="normal" font-style="italic">SM₁</text>
<text x="193" y="36" font-family="Arial, Helvetica, sans-serif" font-size="7" fill="#888888" text-anchor="end" font-weight="normal" font-style="italic">MM</text>
<text x="100" y="78" font-family="Arial, Helvetica, sans-serif" font-size="8" fill="#1a1a1a" text-anchor="middle" font-weight="bold" font-style="normal">Photonic lantern</text>
</svg>
