<svg xmlns="http://www.w3.org/2000/svg" viewBox="0 0 120 80" width="120" height="80" font-family="Arial, Helvetica, sans-serif">
<defs>
<marker id="arrowhead" markerWidth="6" markerHeight="4" refX="5" refY="2" orient="auto"><polygon points="0,0 6,2 0,4" fill="#1a1a1a"/></marker>
<marker id="arrowhead-beam" markerWidth="6" markerHeight="4" refX="5" refY="2" orient="auto"><polygon points="0,0 6,2 0,4" fill="#c0392b"/></marker>
</defs>
<rect x="48" y="55" width="20" height="15" rx="2" fill="#f0f0f0" stroke="#1a1a1a" stroke-width="0.5"/>
<circle cx="58" cy="55" r="3" fill="#f0f0f0" stroke="#1a1a1a" stroke-width="0.4"/>
<line x1="45" y1="15" x2="68" y2="48" stroke="#1a1a1a" stroke-width="0.8"/>
<line x1="47.3" y1="18.3" x2="51.3" y2="15.3" stroke="#888888" stroke-width="0.25"/>
<line x1="51.9" y1="24.9" x2="55.9" y2="21.9" stroke="#888888" stroke-width="0.25"/>
<line x1="56.5" y1="31.5" x2="60.5" y2="28.5" stroke="#888888" stroke-width="0.25"/>
<line x1="61.1" y1="38.1" x2="65.1" y2="35.1" stroke="#888888" stroke-width="0.25"/>
<line x1="65.7" y1="44.7" x2="69.7" y2="41.7" stroke="#888888" stroke-width="0.25"/>
<line x1="5" y1="42" x2="55" y2="32" stroke="#c0392b" stroke-width="0.6" opacity="0.4"/>
<line x1="55" y1="32" x2="55" y2="5" stroke="#c0392b" stroke-width="0.6" opacity="0.4"/>
<line x1="55" y1="25" x2="55" y2="10" stroke="#c0392b" stroke-width="0.6" marker-end="url(#arrowhead-beam)"/>
<path d="M58,55 L90,52" fill="none" stroke="#888888" stroke-width="0.35" stroke-dasharray="2,2"/>
<text x="60" y="78" font-family="Arial, Helvetica, sans-serif" font-size="7" fill="#1a1a1a" text-anchor="middle" font-weight="bold">Flip mirror</text>
</svg>
