<svg xmlns="http://www.w3.org/2000/svg" viewBox="0 0 120 70" width="120" height="70" font-family="Arial, Helvetica, sans-serif">
<defs>
<marker id="arrowhead" markerWidth="6" markerHeight="4" refX="5" refY="2" orient="auto"><polygon points="0,0 6,2 0,4" fill="#000000"/></marker>
<marker id="arrowhead-beam" markerWidth="6" markerHeight="4" refX="5" refY="2" orient="auto"><polygon points="0,0 6,2 0,4" fill="#CC0000"/></marker>
</defs>
<line x1="5" y1="35" x2="42" y2="35" stroke="#CC0000" stroke-width="0.8" opacity="0.4"/>
<line x1="10" y1="35" x2="28" y2="35" stroke="#CC0000" stroke-width="0.8" marker-end="url(#arrowhead-beam)"/>
<rect x="45" y="8" width="10" height="52" fill="#C8D8F0" stroke="#000000" stroke-width="0.75"/>
<path d="M55,12 C58,13.5 58,17.5 55,19" fill="none" stroke="#000000" stroke-width="0.4"/>
<path d="M55,19 C58,20.5 58,24.5 55,26" fill="none" stroke="#000000" stroke-width="0.4"/>
<path d="M55,26 C58,27.5 58,31.5 55,33" fill="none" stroke="#000000" stroke-width="0.4"/>
<path d="M55,33 C58,34.5 58,38.5 55,40" fill="none" stroke="#000000" stroke-width="0.4"/>
<path d="M55,40 C58,41.5 58,45.5 55,47" fill="none" stroke="#000000" stroke-width="0.4"/>
<path d="M55,47 C58,48.5 58,52.5 55,54" fill="none" stroke="#000000" stroke-width="0.4"/>
<path d="M55,54 C58,55.5 58,59.5 55,61" fill="none" stroke="#000000" stroke-width="0.4"/>
<line x1="55" y1="18" x2="85" y2="19" stroke="#CC0000" stroke-width="0.3" opacity="0.2"/>
<line x1="55" y1="30" x2="85" y2="31" stroke="#CC0000" stroke-width="0.3" opacity="0.2"/>
<line x1="55" y1="44" x2="85" y2="45" stroke="#CC0000" stroke-width="0.3" opacity="0.2"/>
<line x1="55" y1="54" x2="85" y2="55" stroke="#CC0000" stroke-width="0.3" opacity="0.2"/>
<line x1="85" y1="35" x2="115" y2="35" stroke="#CC0000" stroke-width="0.8" opacity="0.3"/>
<text x="55" y="66" font-family="Arial, Helvetica, sans-serif" font-size="7" fill="#000000" text-anchor="middle" font-weight="bold">Cylindrical MLA</text>
</svg>
