<?xml version="1.0" encoding="UTF-8"?>
<svg xmlns="http://www.w3.org/2000/svg" viewBox="0 0 130 60" width="130" height="60">
<defs>
  <marker id="arrowhead" markerWidth="6" markerHeight="4" refX="5" refY="2" orient="auto">
    <polygon points="0 0, 6 2, 0 4" fill="#1a1a1a" />
  </marker>
  <marker id="arrowhead-beam" markerWidth="6" markerHeight="4" refX="5" refY="2" orient="auto">
    <polygon points="0 0, 6 2, 0 4" fill="#c0392b" />
  </marker>
  <marker id="arrowhead-gray" markerWidth="5" markerHeight="3.5" refX="4" refY="1.75" orient="auto">
    <polygon points="0 0, 5 1.75, 0 3.5" fill="#888888" />
  </marker>
</defs>
<line x1="5" y1="30" x2="40" y2="30" stroke="#333333" stroke-width="0.7" stroke-linecap="round" />
<circle cx="65" cy="30" r="18" fill="none" stroke="#1a1a1a" stroke-width="0.5"/>
<path d="M65,30 L83.0,30.0 A18,18 0 0,1 76.6,43.8 Z" fill="#1a1a1a" opacity="0.3"/>
<path d="M65,30 L56.0,45.6 A18,18 0 0,1 47.3,33.1 Z" fill="#1a1a1a" opacity="0.3"/>
<path d="M65,30 L56.0,14.4 A18,18 0 0,1 71.2,13.1 Z" fill="#1a1a1a" opacity="0.3"/>
<circle cx="65" cy="30" r="3" fill="#1a1a1a"/>
<line x1="83" y1="30" x2="125" y2="30" stroke="#333333" stroke-width="0.7" stroke-linecap="round" />
<line x1="10" y1="30" x2="28" y2="30" stroke="#888888" stroke-width="0.5" marker-end="url(#arrowhead-gray)" />
<text x="65" y="56" font-family="Arial, Helvetica, sans-serif" font-size="8" fill="#1a1a1a" text-anchor="middle" font-weight="bold" font-style="normal">Chopper</text>
</svg>
