<?xml version="1.0" encoding="UTF-8"?>
<svg xmlns="http://www.w3.org/2000/svg" viewBox="0 0 160 65" width="160" height="65">
<defs>
  <marker id="arrowhead" markerWidth="6" markerHeight="4" refX="5" refY="2" orient="auto">
    <polygon points="0 0, 6 2, 0 4" fill="#1a1a1a" />
  </marker>
  <marker id="arrowhead-beam" markerWidth="6" markerHeight="4" refX="5" refY="2" orient="auto">
    <polygon points="0 0, 6 2, 0 4" fill="#c0392b" />
  </marker>
  <marker id="arrowhead-gray" markerWidth="5" markerHeight="3.5" refX="4" refY="1.75" orient="auto">
    <polygon points="0 0, 5 1.75, 0 3.5" fill="#888888" />
  </marker>
</defs>
<rect x="15" y="8" width="120" height="45" rx="3" fill="#f0f0f0" stroke="#1a1a1a" stroke-width="0.5" />
<rect x="30" y="25" width="30" height="10" fill="none" stroke="#1a1a1a" stroke-width="0.4"/>
<rect x="90" y="25" width="30" height="10" fill="none" stroke="#1a1a1a" stroke-width="0.4"/>
<line x1="30" y1="30" x2="72" y2="30" stroke="#333333" stroke-width="0.7"/>
<line x1="78" y1="30" x2="120" y2="30" stroke="#333333" stroke-width="0.7"/>
<path d="M72,22 C75,28 75,32 72,38" fill="none" stroke="#c0392b" stroke-width="0.5" opacity="0.6"/>
<path d="M78,22 C75,28 75,32 78,38" fill="none" stroke="#c0392b" stroke-width="0.5" opacity="0.6"/>
<rect x="68" y="12" width="14" height="8" rx="1" fill="#f0f0f0" stroke="#1a1a1a" stroke-width="0.3"/>
<circle cx="75" cy="16" r="2" fill="none" stroke="#1a1a1a" stroke-width="0.3"/>
<text x="75" y="62" font-family="Arial, Helvetica, sans-serif" font-size="8" fill="#1a1a1a" text-anchor="middle" font-weight="bold" font-style="normal">Fusion splicer</text>
</svg>
