<svg xmlns="http://www.w3.org/2000/svg" viewBox="0 0 140 110" width="140" height="110" font-family="Arial, Helvetica, sans-serif">
<defs>
<marker id="arrowhead" markerWidth="6" markerHeight="4" refX="5" refY="2" orient="auto"><polygon points="0,0 6,2 0,4" fill="#1a1a1a"/></marker>
<marker id="arrowhead-beam" markerWidth="6" markerHeight="4" refX="5" refY="2" orient="auto"><polygon points="0,0 6,2 0,4" fill="#c0392b"/></marker>
</defs>
<circle cx="30" cy="15" r="8" fill="#f0f0f0" stroke="#1a1a1a" stroke-width="0.5"/>
<line x1="26" y1="11" x2="34" y2="19" stroke="#1a1a1a" stroke-width="0.5" opacity="0.5"/>
<circle cx="70" cy="15" r="8" fill="#f0f0f0" stroke="#1a1a1a" stroke-width="0.5"/>
<line x1="66" y1="11" x2="74" y2="19" stroke="#1a1a1a" stroke-width="0.5" opacity="0.5"/>
<circle cx="100" cy="40" r="8" fill="#f0f0f0" stroke="#1a1a1a" stroke-width="0.5"/>
<line x1="96" y1="36" x2="104" y2="44" stroke="#1a1a1a" stroke-width="0.5" opacity="0.5"/>
<circle cx="100" cy="75" r="8" fill="#f0f0f0" stroke="#1a1a1a" stroke-width="0.5"/>
<line x1="96" y1="71" x2="104" y2="79" stroke="#1a1a1a" stroke-width="0.5" opacity="0.5"/>
<line x1="38" y1="15" x2="62" y2="15" stroke="#1a1a1a" stroke-width="3" opacity="0.3"/>
<line x1="76" y1="20" x2="95" y2="35" stroke="#1a1a1a" stroke-width="3" opacity="0.3"/>
<line x1="100" y1="48" x2="100" y2="67" stroke="#1a1a1a" stroke-width="3" opacity="0.3"/>
<line x1="5" y1="15" x2="22" y2="15" stroke="#c0392b" stroke-width="0.6" opacity="0.4"/>
<line x1="8" y1="15" x2="18" y2="15" stroke="#c0392b" stroke-width="0.6" marker-end="url(#arrowhead-beam)"/>
<path d="M38,15 L62,15 L100,40 L100,67" fill="none" stroke="#c0392b" stroke-width="0.4" opacity="0.2"/>
<polygon points="93,83 107,83 103,98 97,98" fill="#f0f0f0" stroke="#1a1a1a" stroke-width="0.4"/>
<line x1="100" y1="83" x2="100" y2="105" stroke="#c0392b" stroke-width="0.6" opacity="0.3"/>
<text x="70" y="108" font-family="Arial, Helvetica, sans-serif" font-size="7" fill="#1a1a1a" text-anchor="middle" font-weight="bold">Articulated arm</text>
</svg>
