<?xml version="1.0" encoding="UTF-8"?>
<svg xmlns="http://www.w3.org/2000/svg" viewBox="0 0 120 55" width="120" height="55">
<defs>
  <marker id="arrowhead" markerWidth="6" markerHeight="4" refX="5" refY="2" orient="auto">
    <polygon points="0 0, 6 2, 0 4" fill="#1a1a1a" />
  </marker>
  <marker id="arrowhead-beam" markerWidth="6" markerHeight="4" refX="5" refY="2" orient="auto">
    <polygon points="0 0, 6 2, 0 4" fill="#c0392b" />
  </marker>
  <marker id="arrowhead-gray" markerWidth="5" markerHeight="3.5" refX="4" refY="1.75" orient="auto">
    <polygon points="0 0, 5 1.75, 0 3.5" fill="#888888" />
  </marker>
</defs>
<line x1="5" y1="27" x2="60" y2="27" stroke="#1a1a1a" stroke-width="0.35"/>
<line x1="60" y1="27" x2="115" y2="27" stroke="#1a1a1a" stroke-width="0.35"/>
<line x1="60" y1="27" x2="60" y2="50" stroke="#1a1a1a" stroke-width="0.35"/>
<line x1="35" y1="22" x2="35" y2="32" stroke="#1a1a1a" stroke-width="0.75"/>
<line x1="39" y1="22" x2="39" y2="32" stroke="#1a1a1a" stroke-width="0.75"/>
<path d="M60,32 C63,34 63,36 60,38 C57,40 57,42 60,44" fill="none" stroke="#1a1a1a" stroke-width="0.5"/>
<text x="8" y="21" font-family="Arial, Helvetica, sans-serif" font-size="7" fill="#888888" text-anchor="start" font-weight="normal" font-style="italic">RF+DC</text>
<text x="113" y="21" font-family="Arial, Helvetica, sans-serif" font-size="7" fill="#888888" text-anchor="end" font-weight="normal" font-style="italic">RF</text>
<text x="65" y="50" font-family="Arial, Helvetica, sans-serif" font-size="7" fill="#888888" text-anchor="start" font-weight="normal" font-style="italic">DC</text>
<text x="60" y="8" font-family="Arial, Helvetica, sans-serif" font-size="8" fill="#1a1a1a" text-anchor="middle" font-weight="bold" font-style="normal">Bias tee</text>
</svg>
