<?xml version="1.0" encoding="UTF-8"?>
<svg xmlns="http://www.w3.org/2000/svg" viewBox="0 0 170 70" width="170" height="70">
<defs>
  <marker id="arrowhead" markerWidth="6" markerHeight="4" refX="5" refY="2" orient="auto">
    <polygon points="0 0, 6 2, 0 4" fill="#1a1a1a" />
  </marker>
  <marker id="arrowhead-beam" markerWidth="6" markerHeight="4" refX="5" refY="2" orient="auto">
    <polygon points="0 0, 6 2, 0 4" fill="#c0392b" />
  </marker>
  <marker id="arrowhead-gray" markerWidth="5" markerHeight="3.5" refX="4" refY="1.75" orient="auto">
    <polygon points="0 0, 5 1.75, 0 3.5" fill="#888888" />
  </marker>
</defs>
<line x1="5" y1="35" x2="25" y2="35" stroke="#333333" stroke-width="0.7" stroke-linecap="round" />
<line x1="8" y1="35" x2="18" y2="35" stroke="#888888" stroke-width="0.5" marker-end="url(#arrowhead-gray)" />
<rect x="25" y="8" width="110" height="48" rx="3" fill="#f0f0f0" stroke="#1a1a1a" stroke-width="0.5" />
<rect x="32" y="14" width="75" height="28" rx="2" fill="#101828" stroke="#1a1a1a" stroke-width="0.3"/>
<circle cx="64" cy="22" r="1.5" fill="#00CC66" opacity="0.7"/>
<circle cx="76" cy="22" r="1.5" fill="#00CC66" opacity="0.7"/>
<circle cx="64" cy="34" r="1.5" fill="#00CC66" opacity="0.7"/>
<circle cx="76" cy="34" r="1.5" fill="#00CC66" opacity="0.7"/>
<line x1="55" y1="28" x2="85" y2="28" stroke="#00CC66" stroke-width="0.3" opacity="0.3"/>
<line x1="70" y1="16" x2="70" y2="40" stroke="#00CC66" stroke-width="0.3" opacity="0.3"/>
<text x="100" y="22" font-family="Arial, Helvetica, sans-serif" font-size="6" fill="#888888" text-anchor="middle" font-weight="normal" font-style="normal">I/Q</text>
<text x="80" y="66" font-family="Arial, Helvetica, sans-serif" font-size="8" fill="#1a1a1a" text-anchor="middle" font-weight="bold" font-style="normal">Signal analyzer</text>
</svg>
