<svg xmlns="http://www.w3.org/2000/svg" viewBox="0 0 120 80" width="120" height="80" font-family="Arial, Helvetica, sans-serif">
<defs>
<marker id="arrowhead" markerWidth="6" markerHeight="4" refX="5" refY="2" orient="auto"><polygon points="0,0 6,2 0,4" fill="#000000"/></marker>
<marker id="arrowhead-beam" markerWidth="6" markerHeight="4" refX="5" refY="2" orient="auto"><polygon points="0,0 6,2 0,4" fill="#CC0000"/></marker>
<linearGradient id="lens-grad" x1="0" y1="0" x2="1" y2="0"><stop offset="0%" stop-color="#D0E0F8"/><stop offset="50%" stop-color="#E8F0FF"/><stop offset="100%" stop-color="#B8C8E0"/></linearGradient>
</defs>
<line x1="5" y1="40" x2="50" y2="40" stroke="#CC0000" stroke-width="0.8" opacity="0.4"/>
<rect x="52" y="15" width="6" height="50" fill="url(#lens-grad)" stroke="#000000" stroke-width="0.75"/>
<line x1="58" y1="18" x2="62" y2="18" stroke="#000000" stroke-width="0.4"/>
<line x1="62" y1="18" x2="62" y2="23" stroke="#000000" stroke-width="0.4"/>
<line x1="58" y1="24" x2="62" y2="24" stroke="#000000" stroke-width="0.4"/>
<line x1="62" y1="24" x2="62" y2="29" stroke="#000000" stroke-width="0.4"/>
<line x1="58" y1="30" x2="62" y2="30" stroke="#000000" stroke-width="0.4"/>
<line x1="62" y1="30" x2="62" y2="35" stroke="#000000" stroke-width="0.4"/>
<line x1="58" y1="36" x2="62" y2="36" stroke="#000000" stroke-width="0.4"/>
<line x1="62" y1="36" x2="62" y2="41" stroke="#000000" stroke-width="0.4"/>
<line x1="58" y1="42" x2="62" y2="42" stroke="#000000" stroke-width="0.4"/>
<line x1="62" y1="42" x2="62" y2="47" stroke="#000000" stroke-width="0.4"/>
<line x1="58" y1="48" x2="62" y2="48" stroke="#000000" stroke-width="0.4"/>
<line x1="62" y1="48" x2="62" y2="53" stroke="#000000" stroke-width="0.4"/>
<line x1="58" y1="54" x2="62" y2="54" stroke="#000000" stroke-width="0.4"/>
<line x1="62" y1="54" x2="62" y2="59" stroke="#000000" stroke-width="0.4"/>
<line x1="58" y1="60" x2="62" y2="60" stroke="#000000" stroke-width="0.4"/>
<line x1="62" y1="60" x2="62" y2="65" stroke="#000000" stroke-width="0.4"/>
<line x1="65" y1="40" x2="115" y2="40" stroke="#CC0000" stroke-width="0.8" opacity="0.4"/>
<line x1="10" y1="40" x2="30" y2="40" stroke="#CC0000" stroke-width="0.8" marker-end="url(#arrowhead-beam)"/>
<text x="60" y="75" font-family="Arial, Helvetica, sans-serif" font-size="7" fill="#000000" text-anchor="middle" font-weight="bold">Fresnel lens</text>
</svg>
