<svg xmlns="http://www.w3.org/2000/svg" viewBox="0 0 130 80" width="130" height="80" font-family="Arial, Helvetica, sans-serif">
<defs>
<marker id="arrowhead" markerWidth="6" markerHeight="4" refX="5" refY="2" orient="auto"><polygon points="0,0 6,2 0,4" fill="#000000"/></marker>
<marker id="arrowhead-beam" markerWidth="6" markerHeight="4" refX="5" refY="2" orient="auto"><polygon points="0,0 6,2 0,4" fill="#CC0000"/></marker>
<linearGradient id="lens-grad" x1="0" y1="0" x2="1" y2="0"><stop offset="0%" stop-color="#D0E0F8"/><stop offset="50%" stop-color="#E8F0FF"/><stop offset="100%" stop-color="#B8C8E0"/></linearGradient>
</defs>
<line x1="5" y1="40" x2="50" y2="40" stroke="#CC0000" stroke-width="0.8" opacity="0.4"/>
<path d="M53,18 L53,62 L60,62 C64,55 65,45 68,40 C65,35 64,25 60,18 Z" fill="url(#lens-grad)" stroke="#000000" stroke-width="0.75"/>
<line x1="68" y1="40" x2="125" y2="13.0" stroke="#CC0000" stroke-width="0.4" opacity="0.3"/>
<line x1="68" y1="40" x2="125" y2="22.0" stroke="#CC0000" stroke-width="0.4" opacity="0.3"/>
<line x1="68" y1="40" x2="125" y2="31.0" stroke="#CC0000" stroke-width="0.4" opacity="0.3"/>
<line x1="68" y1="40" x2="125" y2="40.0" stroke="#CC0000" stroke-width="0.4" opacity="0.3"/>
<line x1="68" y1="40" x2="125" y2="49.0" stroke="#CC0000" stroke-width="0.4" opacity="0.3"/>
<line x1="68" y1="40" x2="125" y2="58.0" stroke="#CC0000" stroke-width="0.4" opacity="0.3"/>
<line x1="68" y1="40" x2="125" y2="67.0" stroke="#CC0000" stroke-width="0.4" opacity="0.3"/>
<line x1="10" y1="40" x2="30" y2="40" stroke="#CC0000" stroke-width="0.8" marker-end="url(#arrowhead-beam)"/>
<text x="65" y="75" font-family="Arial, Helvetica, sans-serif" font-size="7" fill="#000000" text-anchor="middle" font-weight="bold">Powell lens</text>
</svg>
