<?xml version="1.0" encoding="UTF-8"?>
<svg xmlns="http://www.w3.org/2000/svg" viewBox="0 0 220 40" width="220" height="40">
<defs>
  <marker id="arrowhead" markerWidth="6" markerHeight="4" refX="5" refY="2" orient="auto">
    <polygon points="0 0, 6 2, 0 4" fill="#1a1a1a" />
  </marker>
  <marker id="arrowhead-beam" markerWidth="6" markerHeight="4" refX="5" refY="2" orient="auto">
    <polygon points="0 0, 6 2, 0 4" fill="#c0392b" />
  </marker>
  <marker id="arrowhead-gray" markerWidth="5" markerHeight="3.5" refX="4" refY="1.75" orient="auto">
    <polygon points="0 0, 5 1.75, 0 3.5" fill="#888888" />
  </marker>
</defs>
<line x1="10" y1="20" x2="210" y2="20" stroke="#333333" stroke-width="0.7" stroke-linecap="round" />
<line x1="20" y1="20" x2="40" y2="20" stroke="#888888" stroke-width="0.5" marker-end="url(#arrowhead-gray)" />
<line x1="40" y1="14" x2="40" y2="26" stroke="#888888" stroke-width="0.35" />
<line x1="55" y1="14" x2="55" y2="26" stroke="#888888" stroke-width="0.35" />
<line x1="70" y1="14" x2="70" y2="26" stroke="#888888" stroke-width="0.35" />
<line x1="85" y1="14" x2="85" y2="26" stroke="#888888" stroke-width="0.35" />
<line x1="100" y1="14" x2="100" y2="26" stroke="#888888" stroke-width="0.35" />
<line x1="115" y1="14" x2="115" y2="26" stroke="#888888" stroke-width="0.35" />
<line x1="130" y1="14" x2="130" y2="26" stroke="#888888" stroke-width="0.35" />
<line x1="145" y1="14" x2="145" y2="26" stroke="#888888" stroke-width="0.35" />
<line x1="160" y1="14" x2="160" y2="26" stroke="#888888" stroke-width="0.35" />
<line x1="175" y1="14" x2="175" y2="26" stroke="#888888" stroke-width="0.35" />
<line x1="190" y1="14" x2="190" y2="26" stroke="#888888" stroke-width="0.35" />
<text x="110" y="12" font-family="Arial, Helvetica, sans-serif" font-size="7" fill="#888888" text-anchor="middle" font-weight="normal" font-style="italic">PM Fiber</text>
</svg>
