<?xml version="1.0" encoding="UTF-8"?>
<svg xmlns="http://www.w3.org/2000/svg" viewBox="0 0 180 55" width="180" height="55">
<defs>
  <marker id="arrowhead" markerWidth="6" markerHeight="4" refX="5" refY="2" orient="auto">
    <polygon points="0 0, 6 2, 0 4" fill="#1a1a1a" />
  </marker>
  <marker id="arrowhead-beam" markerWidth="6" markerHeight="4" refX="5" refY="2" orient="auto">
    <polygon points="0 0, 6 2, 0 4" fill="#c0392b" />
  </marker>
  <marker id="arrowhead-gray" markerWidth="5" markerHeight="3.5" refX="4" refY="1.75" orient="auto">
    <polygon points="0 0, 5 1.75, 0 3.5" fill="#888888" />
  </marker>
</defs>
<rect x="15" y="10" width="105" height="35" rx="2" fill="#f0f0f0" stroke="#1a1a1a" stroke-width="0.5" />
<line x1="22" y1="18" x2="22" y2="38" stroke="#888888" stroke-width="0.4" opacity="0.3"/>
<line x1="25" y1="18" x2="25" y2="38" stroke="#888888" stroke-width="0.4" opacity="0.3"/>
<line x1="28" y1="18" x2="28" y2="38" stroke="#888888" stroke-width="0.4" opacity="0.3"/>
<line x1="31" y1="18" x2="31" y2="38" stroke="#888888" stroke-width="0.4" opacity="0.3"/>
<line x1="34" y1="18" x2="34" y2="38" stroke="#888888" stroke-width="0.4" opacity="0.3"/>
<line x1="37" y1="18" x2="37" y2="38" stroke="#888888" stroke-width="0.4" opacity="0.3"/>
<line x1="40" y1="18" x2="40" y2="38" stroke="#888888" stroke-width="0.4" opacity="0.3"/>
<rect x="45" y="18" width="30" height="20" fill="#888888" stroke="#1a1a1a" stroke-width="0.3" opacity="0.2"/>
<rect x="78" y="18" width="15" height="20" fill="#f0f0f0" stroke="#1a1a1a" stroke-width="0.3"/>
<text x="60" y="30" font-family="Arial, Helvetica, sans-serif" font-size="6" fill="#888888" text-anchor="middle" font-weight="normal" font-style="normal">gain</text>
<text x="85" y="30" font-family="Arial, Helvetica, sans-serif" font-size="6" fill="#1a1a1a" text-anchor="middle" font-weight="normal" font-style="normal">φ</text>
<line x1="96" y1="18" x2="96" y2="38" stroke="#888888" stroke-width="0.4" opacity="0.3"/>
<line x1="99" y1="18" x2="99" y2="38" stroke="#888888" stroke-width="0.4" opacity="0.3"/>
<line x1="102" y1="18" x2="102" y2="38" stroke="#888888" stroke-width="0.4" opacity="0.3"/>
<line x1="105" y1="18" x2="105" y2="38" stroke="#888888" stroke-width="0.4" opacity="0.3"/>
<line x1="108" y1="18" x2="108" y2="38" stroke="#888888" stroke-width="0.4" opacity="0.3"/>
<line x1="111" y1="18" x2="111" y2="38" stroke="#888888" stroke-width="0.4" opacity="0.3"/>
<line x1="114" y1="18" x2="114" y2="38" stroke="#888888" stroke-width="0.4" opacity="0.3"/>
<line x1="120" y1="28" x2="175" y2="28" stroke="#333333" stroke-width="0.7" stroke-linecap="round" />
<line x1="135" y1="28" x2="155" y2="28" stroke="#888888" stroke-width="0.5" marker-end="url(#arrowhead-gray)" />
<line x1="45" y1="10" x2="45" y2="4" stroke="#1a1a1a" stroke-width="0.75"/>
<line x1="85" y1="10" x2="85" y2="4" stroke="#1a1a1a" stroke-width="0.75"/>
<text x="67" y="52" font-family="Arial, Helvetica, sans-serif" font-size="8" fill="#1a1a1a" text-anchor="middle" font-weight="bold" font-style="normal">DBR laser</text>
</svg>
