<?xml version="1.0" encoding="UTF-8"?>
<svg xmlns="http://www.w3.org/2000/svg" viewBox="0 0 180 60" width="180" height="60">
<defs>
  <marker id="arrowhead" markerWidth="6" markerHeight="4" refX="5" refY="2" orient="auto">
    <polygon points="0 0, 6 2, 0 4" fill="#1a1a1a" />
  </marker>
  <marker id="arrowhead-beam" markerWidth="6" markerHeight="4" refX="5" refY="2" orient="auto">
    <polygon points="0 0, 6 2, 0 4" fill="#c0392b" />
  </marker>
  <marker id="arrowhead-gray" markerWidth="5" markerHeight="3.5" refX="4" refY="1.75" orient="auto">
    <polygon points="0 0, 5 1.75, 0 3.5" fill="#888888" />
  </marker>
</defs>
<rect x="15" y="12" width="80" height="35" rx="3" fill="#f0f0f0" stroke="#1a1a1a" stroke-width="0.5" />
<line x1="30" y1="18" x2="30" y2="42" stroke="#888888" stroke-width="0.35" opacity="0.25"/>
<line x1="34" y1="18" x2="34" y2="42" stroke="#888888" stroke-width="0.35" opacity="0.25"/>
<line x1="38" y1="18" x2="38" y2="42" stroke="#888888" stroke-width="0.35" opacity="0.25"/>
<line x1="42" y1="18" x2="42" y2="42" stroke="#888888" stroke-width="0.35" opacity="0.25"/>
<line x1="46" y1="18" x2="46" y2="42" stroke="#888888" stroke-width="0.35" opacity="0.25"/>
<line x1="50" y1="18" x2="50" y2="42" stroke="#888888" stroke-width="0.35" opacity="0.25"/>
<line x1="54" y1="18" x2="54" y2="42" stroke="#888888" stroke-width="0.35" opacity="0.25"/>
<line x1="58" y1="18" x2="58" y2="42" stroke="#888888" stroke-width="0.35" opacity="0.25"/>
<line x1="62" y1="18" x2="62" y2="42" stroke="#888888" stroke-width="0.35" opacity="0.25"/>
<line x1="66" y1="18" x2="66" y2="42" stroke="#888888" stroke-width="0.35" opacity="0.25"/>
<line x1="70" y1="18" x2="70" y2="42" stroke="#888888" stroke-width="0.35" opacity="0.25"/>
<line x1="74" y1="18" x2="74" y2="42" stroke="#888888" stroke-width="0.35" opacity="0.25"/>
<line x1="78" y1="18" x2="78" y2="42" stroke="#888888" stroke-width="0.35" opacity="0.25"/>
<line x1="82" y1="18" x2="82" y2="42" stroke="#888888" stroke-width="0.35" opacity="0.25"/>
<polygon points="40,22 40,38 60,30" fill="none" stroke="#c0392b" stroke-width="0.5"/>
<line x1="60" y1="22" x2="60" y2="38" stroke="#c0392b" stroke-width="0.5"/>
<line x1="95" y1="30" x2="175" y2="30" stroke="#333333" stroke-width="0.7" stroke-linecap="round" />
<line x1="40" y1="12" x2="40" y2="5" stroke="#1a1a1a" stroke-width="0.75"/>
<line x1="60" y1="12" x2="60" y2="5" stroke="#1a1a1a" stroke-width="0.75"/>
<line x1="120" y1="30" x2="140" y2="30" stroke="#888888" stroke-width="0.5" marker-end="url(#arrowhead-gray)" />
<text x="55" y="56" font-family="Arial, Helvetica, sans-serif" font-size="8" fill="#1a1a1a" text-anchor="middle" font-weight="bold" font-style="normal">DFB Laser</text>
</svg>
