<?xml version="1.0" encoding="UTF-8"?>
<svg xmlns="http://www.w3.org/2000/svg" viewBox="0 0 180 55" width="180" height="55">
<defs>
  <marker id="arrowhead" markerWidth="6" markerHeight="4" refX="5" refY="2" orient="auto">
    <polygon points="0 0, 6 2, 0 4" fill="#1a1a1a" />
  </marker>
  <marker id="arrowhead-beam" markerWidth="6" markerHeight="4" refX="5" refY="2" orient="auto">
    <polygon points="0 0, 6 2, 0 4" fill="#c0392b" />
  </marker>
  <marker id="arrowhead-gray" markerWidth="5" markerHeight="3.5" refX="4" refY="1.75" orient="auto">
    <polygon points="0 0, 5 1.75, 0 3.5" fill="#888888" />
  </marker>
</defs>
<rect x="15" y="10" width="100" height="35" rx="3" fill="#f0f0f0" stroke="#1a1a1a" stroke-width="0.5" />
<polygon points="30,20 30,36 50,28" fill="none" stroke="#1a1a1a" stroke-width="0.5"/>
<line x1="50" y1="20" x2="50" y2="36" stroke="#1a1a1a" stroke-width="0.5"/>
<line x1="70" y1="18" x2="70" y2="38" stroke="#1a1a1a" stroke-width="0.3" opacity="0.3"/>
<line x1="73" y1="18" x2="73" y2="38" stroke="#1a1a1a" stroke-width="0.3" opacity="0.3"/>
<line x1="76" y1="18" x2="76" y2="38" stroke="#1a1a1a" stroke-width="0.3" opacity="0.3"/>
<line x1="79" y1="18" x2="79" y2="38" stroke="#1a1a1a" stroke-width="0.3" opacity="0.3"/>
<line x1="82" y1="18" x2="82" y2="38" stroke="#1a1a1a" stroke-width="0.3" opacity="0.3"/>
<line x1="85" y1="18" x2="85" y2="38" stroke="#1a1a1a" stroke-width="0.3" opacity="0.3"/>
<line x1="88" y1="18" x2="88" y2="38" stroke="#1a1a1a" stroke-width="0.3" opacity="0.3"/>
<line x1="91" y1="18" x2="91" y2="38" stroke="#1a1a1a" stroke-width="0.3" opacity="0.3"/>
<line x1="94" y1="18" x2="94" y2="38" stroke="#1a1a1a" stroke-width="0.3" opacity="0.3"/>
<line x1="97" y1="18" x2="97" y2="38" stroke="#1a1a1a" stroke-width="0.3" opacity="0.3"/>
<line x1="100" y1="18" x2="100" y2="38" stroke="#1a1a1a" stroke-width="0.3" opacity="0.3"/>
<line x1="103" y1="18" x2="103" y2="38" stroke="#1a1a1a" stroke-width="0.3" opacity="0.3"/>
<path d="M80,14 L95,14" fill="none" stroke="#1a1a1a" stroke-width="0.5" marker-end="url(#arrowhead)"/>
<text x="87" y="11" font-family="Arial, Helvetica, sans-serif" font-size="6" fill="#888888" text-anchor="middle" font-weight="normal" font-style="normal">tune</text>
<line x1="115" y1="28" x2="175" y2="28" stroke="#333333" stroke-width="0.7" stroke-linecap="round" />
<line x1="130" y1="28" x2="150" y2="28" stroke="#888888" stroke-width="0.5" marker-end="url(#arrowhead-gray)" />
<line x1="35" y1="10" x2="35" y2="4" stroke="#1a1a1a" stroke-width="0.75"/>
<text x="65" y="52" font-family="Arial, Helvetica, sans-serif" font-size="8" fill="#1a1a1a" text-anchor="middle" font-weight="bold" font-style="normal">ECL / tunable</text>
</svg>
