<?xml version="1.0" encoding="UTF-8"?>
<svg xmlns="http://www.w3.org/2000/svg" viewBox="0 0 180 55" width="180" height="55">
<defs>
  <marker id="arrowhead" markerWidth="6" markerHeight="4" refX="5" refY="2" orient="auto">
    <polygon points="0 0, 6 2, 0 4" fill="#1a1a1a" />
  </marker>
  <marker id="arrowhead-beam" markerWidth="6" markerHeight="4" refX="5" refY="2" orient="auto">
    <polygon points="0 0, 6 2, 0 4" fill="#c0392b" />
  </marker>
  <marker id="arrowhead-gray" markerWidth="5" markerHeight="3.5" refX="4" refY="1.75" orient="auto">
    <polygon points="0 0, 5 1.75, 0 3.5" fill="#888888" />
  </marker>
</defs>
<rect x="15" y="10" width="100" height="35" rx="3" fill="#f0f0f0" stroke="#1a1a1a" stroke-width="0.5" />
<line x1="35" y1="43.6" x2="35" y2="38" stroke="#c0392b" stroke-width="0.6" opacity="0.6"/>
<line x1="40" y1="39.6" x2="40" y2="38" stroke="#c0392b" stroke-width="0.6" opacity="0.6"/>
<line x1="45" y1="35.6" x2="45" y2="38" stroke="#c0392b" stroke-width="0.6" opacity="0.6"/>
<line x1="50" y1="31.6" x2="50" y2="38" stroke="#c0392b" stroke-width="0.6" opacity="0.6"/>
<line x1="55" y1="27.6" x2="55" y2="38" stroke="#c0392b" stroke-width="0.6" opacity="0.6"/>
<line x1="60" y1="23.6" x2="60" y2="38" stroke="#c0392b" stroke-width="0.6" opacity="0.6"/>
<line x1="65" y1="19.6" x2="65" y2="38" stroke="#c0392b" stroke-width="0.6" opacity="0.6"/>
<line x1="70" y1="20.4" x2="70" y2="38" stroke="#c0392b" stroke-width="0.6" opacity="0.6"/>
<line x1="75" y1="24.4" x2="75" y2="38" stroke="#c0392b" stroke-width="0.6" opacity="0.6"/>
<line x1="80" y1="28.4" x2="80" y2="38" stroke="#c0392b" stroke-width="0.6" opacity="0.6"/>
<line x1="85" y1="32.4" x2="85" y2="38" stroke="#c0392b" stroke-width="0.6" opacity="0.6"/>
<line x1="90" y1="36.4" x2="90" y2="38" stroke="#c0392b" stroke-width="0.6" opacity="0.6"/>
<line x1="95" y1="40.4" x2="95" y2="38" stroke="#c0392b" stroke-width="0.6" opacity="0.6"/>
<line x1="115" y1="27" x2="175" y2="27" stroke="#333333" stroke-width="0.7" stroke-linecap="round" />
<line x1="130" y1="27" x2="150" y2="27" stroke="#888888" stroke-width="0.5" marker-end="url(#arrowhead-gray)" />
<text x="65" y="52" font-family="Arial, Helvetica, sans-serif" font-size="8" fill="#1a1a1a" text-anchor="middle" font-weight="bold" font-style="normal">Frequency comb</text>
</svg>
