<?xml version="1.0" encoding="UTF-8"?>
<svg xmlns="http://www.w3.org/2000/svg" viewBox="0 0 160 55" width="160" height="55">
<defs>
  <marker id="arrowhead" markerWidth="6" markerHeight="4" refX="5" refY="2" orient="auto">
    <polygon points="0 0, 6 2, 0 4" fill="#1a1a1a" />
  </marker>
  <marker id="arrowhead-beam" markerWidth="6" markerHeight="4" refX="5" refY="2" orient="auto">
    <polygon points="0 0, 6 2, 0 4" fill="#c0392b" />
  </marker>
  <marker id="arrowhead-gray" markerWidth="5" markerHeight="3.5" refX="4" refY="1.75" orient="auto">
    <polygon points="0 0, 5 1.75, 0 3.5" fill="#888888" />
  </marker>
</defs>
<rect x="15" y="10" width="80" height="35" rx="3" fill="#f0f0f0" stroke="#1a1a1a" stroke-width="0.5" />
<path d="M30,36 L35,36 L35,30 L40,30 L40,24 L45,24 L45,18 L50,18 L55,18 L55,24 L60,24 L60,30 L65,30 L65,36 L70,36" fill="none" stroke="#c0392b" stroke-width="0.5"/>
<text x="78" y="20" font-family="Arial, Helvetica, sans-serif" font-size="6" fill="#888888" text-anchor="middle" font-weight="normal" font-style="normal">mid-IR</text>
<line x1="95" y1="28" x2="155" y2="28" stroke="#333333" stroke-width="0.7" stroke-linecap="round" />
<line x1="110" y1="28" x2="130" y2="28" stroke="#888888" stroke-width="0.5" marker-end="url(#arrowhead-gray)" />
<line x1="35" y1="10" x2="35" y2="4" stroke="#1a1a1a" stroke-width="0.75"/>
<line x1="60" y1="10" x2="60" y2="4" stroke="#1a1a1a" stroke-width="0.75"/>
<text x="55" y="52" font-family="Arial, Helvetica, sans-serif" font-size="8" fill="#1a1a1a" text-anchor="middle" font-weight="bold" font-style="normal">QCL</text>
</svg>
