<?xml version="1.0" encoding="UTF-8"?>
<svg xmlns="http://www.w3.org/2000/svg" viewBox="0 0 180 55" width="180" height="55">
<defs>
  <marker id="arrowhead" markerWidth="6" markerHeight="4" refX="5" refY="2" orient="auto">
    <polygon points="0 0, 6 2, 0 4" fill="#1a1a1a" />
  </marker>
  <marker id="arrowhead-beam" markerWidth="6" markerHeight="4" refX="5" refY="2" orient="auto">
    <polygon points="0 0, 6 2, 0 4" fill="#c0392b" />
  </marker>
  <marker id="arrowhead-gray" markerWidth="5" markerHeight="3.5" refX="4" refY="1.75" orient="auto">
    <polygon points="0 0, 5 1.75, 0 3.5" fill="#888888" />
  </marker>
</defs>
<rect x="15" y="10" width="100" height="35" rx="3" fill="#f0f0f0" stroke="#1a1a1a" stroke-width="0.5" />
<line x1="40" y1="16" x2="40" y2="40" stroke="#c0392b" stroke-width="0.6"/>
<line x1="38" y1="28" x2="42" y2="28" stroke="#c0392b" stroke-width="0.4"/>
<text x="52" y="28" font-family="Arial, Helvetica, sans-serif" font-size="6" fill="#888888" text-anchor="middle" font-weight="normal" font-style="normal">Δν &lt; kHz</text>
<line x1="70" y1="18" x2="70" y2="38" stroke="#1a1a1a" stroke-width="0.4" opacity="0.3"/>
<line x1="73" y1="18" x2="73" y2="38" stroke="#1a1a1a" stroke-width="0.4" opacity="0.3"/>
<line x1="76" y1="18" x2="76" y2="38" stroke="#1a1a1a" stroke-width="0.4" opacity="0.3"/>
<line x1="79" y1="18" x2="79" y2="38" stroke="#1a1a1a" stroke-width="0.4" opacity="0.3"/>
<line x1="90" y1="18" x2="90" y2="38" stroke="#1a1a1a" stroke-width="0.4" opacity="0.3"/>
<line x1="93" y1="18" x2="93" y2="38" stroke="#1a1a1a" stroke-width="0.4" opacity="0.3"/>
<line x1="96" y1="18" x2="96" y2="38" stroke="#1a1a1a" stroke-width="0.4" opacity="0.3"/>
<line x1="99" y1="18" x2="99" y2="38" stroke="#1a1a1a" stroke-width="0.4" opacity="0.3"/>
<line x1="115" y1="28" x2="175" y2="28" stroke="#333333" stroke-width="0.7" stroke-linecap="round" />
<line x1="130" y1="28" x2="150" y2="28" stroke="#888888" stroke-width="0.5" marker-end="url(#arrowhead-gray)" />
<text x="65" y="52" font-family="Arial, Helvetica, sans-serif" font-size="8" fill="#1a1a1a" text-anchor="middle" font-weight="bold" font-style="normal">Single-freq laser</text>
</svg>
