<?xml version="1.0" encoding="UTF-8"?>
<svg xmlns="http://www.w3.org/2000/svg" viewBox="0 0 160 60" width="160" height="60">
<defs>
  <marker id="arrowhead" markerWidth="6" markerHeight="4" refX="5" refY="2" orient="auto">
    <polygon points="0 0, 6 2, 0 4" fill="#1a1a1a" />
  </marker>
  <marker id="arrowhead-beam" markerWidth="6" markerHeight="4" refX="5" refY="2" orient="auto">
    <polygon points="0 0, 6 2, 0 4" fill="#c0392b" />
  </marker>
  <marker id="arrowhead-gray" markerWidth="5" markerHeight="3.5" refX="4" refY="1.75" orient="auto">
    <polygon points="0 0, 5 1.75, 0 3.5" fill="#888888" />
  </marker>
</defs>
<rect x="15" y="10" width="80" height="40" rx="3" fill="#f0f0f0" stroke="#1a1a1a" stroke-width="0.5" />
<path d="M55,22 C60,18 65,22 70,18" fill="none" stroke="#c0392b" stroke-width="0.5"/>
<path d="M55,30 C60,26 65,30 70,26" fill="none" stroke="#c0392b" stroke-width="0.5"/>
<path d="M55,38 C60,34 65,38 70,34" fill="none" stroke="#c0392b" stroke-width="0.5"/>
<polygon points="30,20 30,40 50,30" fill="none" stroke="#1a1a1a" stroke-width="0.5"/>
<line x1="50" y1="20" x2="50" y2="40" stroke="#1a1a1a" stroke-width="0.5"/>
<line x1="95" y1="30" x2="155" y2="30" stroke="#333333" stroke-width="0.7" stroke-linecap="round" />
<line x1="110" y1="30" x2="130" y2="30" stroke="#888888" stroke-width="0.5" marker-end="url(#arrowhead-gray)" />
<line x1="35" y1="10" x2="35" y2="3" stroke="#1a1a1a" stroke-width="0.75"/>
<line x1="50" y1="10" x2="50" y2="3" stroke="#1a1a1a" stroke-width="0.75"/>
<text x="55" y="58" font-family="Arial, Helvetica, sans-serif" font-size="8" fill="#1a1a1a" text-anchor="middle" font-weight="bold" font-style="normal">SLD / SLED</text>
</svg>
