<?xml version="1.0" encoding="UTF-8"?>
<svg xmlns="http://www.w3.org/2000/svg" viewBox="0 0 120 60" width="120" height="60">
<defs>
  <marker id="arrowhead" markerWidth="6" markerHeight="4" refX="5" refY="2" orient="auto">
    <polygon points="0 0, 6 2, 0 4" fill="#1a1a1a" />
  </marker>
  <marker id="arrowhead-beam" markerWidth="6" markerHeight="4" refX="5" refY="2" orient="auto">
    <polygon points="0 0, 6 2, 0 4" fill="#c0392b" />
  </marker>
  <marker id="arrowhead-gray" markerWidth="5" markerHeight="3.5" refX="4" refY="1.75" orient="auto">
    <polygon points="0 0, 5 1.75, 0 3.5" fill="#888888" />
  </marker>
</defs>
<rect x="15" y="10" width="55" height="40" rx="2" fill="#f0f0f0" stroke="#1a1a1a" stroke-width="0.5" />
<line x1="25" y1="18" x2="60" y2="18" stroke="#1a1a1a" stroke-width="0.5"/>
<line x1="25" y1="42" x2="60" y2="42" stroke="#1a1a1a" stroke-width="0.5"/>
<rect x="30" y="27" width="25" height="6" fill="#c0392b" opacity="0.4" stroke="#1a1a1a" stroke-width="0.3"/>
<line x1="42" y1="10" x2="42" y2="2" stroke="#c0392b" stroke-width="0.6"/>
<polygon points="40,3 42,0 44,3" fill="#c0392b"/>
<line x1="70" y1="30" x2="115" y2="30" stroke="#333333" stroke-width="0.7" stroke-linecap="round" />
<line x1="80" y1="30" x2="100" y2="30" stroke="#888888" stroke-width="0.5" marker-end="url(#arrowhead-gray)" />
<line x1="25" y1="50" x2="25" y2="56" stroke="#1a1a1a" stroke-width="0.75"/>
<line x1="55" y1="50" x2="55" y2="56" stroke="#1a1a1a" stroke-width="0.75"/>
<text x="42" y="58" font-family="Arial, Helvetica, sans-serif" font-size="6" fill="#1a1a1a" text-anchor="middle" font-weight="bold" font-style="normal">VCSEL</text>
</svg>
