<?xml version="1.0" encoding="UTF-8"?>
<svg xmlns="http://www.w3.org/2000/svg" viewBox="0 0 150 55" width="150" height="55">
<defs>
  <marker id="arrowhead" markerWidth="6" markerHeight="4" refX="5" refY="2" orient="auto">
    <polygon points="0 0, 6 2, 0 4" fill="#1a1a1a" />
  </marker>
  <marker id="arrowhead-beam" markerWidth="6" markerHeight="4" refX="5" refY="2" orient="auto">
    <polygon points="0 0, 6 2, 0 4" fill="#c0392b" />
  </marker>
  <marker id="arrowhead-gray" markerWidth="5" markerHeight="3.5" refX="4" refY="1.75" orient="auto">
    <polygon points="0 0, 5 1.75, 0 3.5" fill="#888888" />
  </marker>
</defs>
<line x1="5" y1="27" x2="25" y2="27" stroke="#333333" stroke-width="0.7" stroke-linecap="round" />
<line x1="8" y1="27" x2="18" y2="27" stroke="#888888" stroke-width="0.5" marker-end="url(#arrowhead-gray)" />
<rect x="25" y="8" width="70" height="38" rx="4" fill="#f0f0f0" stroke="#1a1a1a" stroke-width="0.5"/>
<line x1="35" y1="8" x2="35" y2="46" stroke="#888888" stroke-width="0.3" opacity="0.25"/>
<line x1="43" y1="8" x2="43" y2="46" stroke="#888888" stroke-width="0.3" opacity="0.25"/>
<line x1="51" y1="8" x2="51" y2="46" stroke="#888888" stroke-width="0.3" opacity="0.25"/>
<line x1="59" y1="8" x2="59" y2="46" stroke="#888888" stroke-width="0.3" opacity="0.25"/>
<line x1="67" y1="8" x2="67" y2="46" stroke="#888888" stroke-width="0.3" opacity="0.25"/>
<line x1="75" y1="8" x2="75" y2="46" stroke="#888888" stroke-width="0.3" opacity="0.25"/>
<line x1="83" y1="8" x2="83" y2="46" stroke="#888888" stroke-width="0.3" opacity="0.25"/>
<rect x="95" y="18" width="12" height="18" rx="2" fill="#f0f0f0" stroke="#1a1a1a" stroke-width="0.4"/>
<line x1="107" y1="27" x2="145" y2="27" stroke="#c0392b" stroke-width="0.8" opacity="0.5"/>
<text x="60" y="30" font-family="Arial, Helvetica, sans-serif" font-size="6" fill="#888888" text-anchor="middle" font-weight="normal" font-style="normal">kW</text>
<text x="65" y="52" font-family="Arial, Helvetica, sans-serif" font-size="8" fill="#1a1a1a" text-anchor="middle" font-weight="bold" font-style="normal">LLK connector</text>
</svg>
