<svg xmlns="http://www.w3.org/2000/svg" viewBox="0 0 110 70" width="110" height="70" font-family="Arial, Helvetica, sans-serif">
<defs>
<marker id="arrowhead" markerWidth="6" markerHeight="4" refX="5" refY="2" orient="auto"><polygon points="0,0 6,2 0,4" fill="#1a1a1a"/></marker>
<marker id="arrowhead-beam" markerWidth="6" markerHeight="4" refX="5" refY="2" orient="auto"><polygon points="0,0 6,2 0,4" fill="#c0392b"/></marker>
</defs>
<rect x="32" y="8" width="30" height="50" rx="2" fill="#f4f6fa" stroke="#1a1a1a" stroke-width="0.5"/>
<rect x="40" y="15" width="12" height="36" fill="#f4f6fa" opacity="0.3"/>
<line x1="46" y1="8" x2="46" y2="0" stroke="#888888" stroke-width="0.5"/>
<polygon points="44,2 46,0 48,2" fill="#888888" opacity="0.4"/>
<line x1="46" y1="58" x2="46" y2="66" stroke="#888888" stroke-width="0.5"/>
<polygon points="44,64 46,66 48,64" fill="#888888" opacity="0.4"/>
<line x1="5" y1="33" x2="32" y2="33" stroke="#c0392b" stroke-width="0.6" opacity="0.4"/>
<line x1="8" y1="33" x2="22" y2="33" stroke="#c0392b" stroke-width="0.6" marker-end="url(#arrowhead-beam)"/>
<line x1="62" y1="33" x2="105" y2="33" stroke="#c0392b" stroke-width="0.6" opacity="0.3"/>
<text x="48" y="4" font-family="Arial, Helvetica, sans-serif" font-size="4.5" fill="#888888" text-anchor="middle" font-weight="normal">in</text>
<text x="48" y="64" font-family="Arial, Helvetica, sans-serif" font-size="4.5" fill="#888888" text-anchor="middle" font-weight="normal">out</text>
<text x="47" y="70" font-family="Arial, Helvetica, sans-serif" font-size="7" fill="#1a1a1a" text-anchor="middle" font-weight="bold">Flow cell</text>
</svg>
