<svg xmlns="http://www.w3.org/2000/svg" viewBox="0 0 130 75" width="130" height="75" font-family="Arial, Helvetica, sans-serif">
<defs>
<marker id="arrowhead" markerWidth="6" markerHeight="4" refX="5" refY="2" orient="auto"><polygon points="0,0 6,2 0,4" fill="#000000"/></marker>
<marker id="arrowhead-beam" markerWidth="6" markerHeight="4" refX="5" refY="2" orient="auto"><polygon points="0,0 6,2 0,4" fill="#CC0000"/></marker>
<linearGradient id="housing-grad" x1="0" y1="0" x2="0" y2="1"><stop offset="0%" stop-color="#B0B0B8"/><stop offset="100%" stop-color="#707078"/></linearGradient>
</defs>
<rect x="30" y="25" width="55" height="30" rx="2" fill="url(#housing-grad)" stroke="#000000" stroke-width="0.75"/>
<rect x="35" y="28" width="4" height="4" fill="#B0B8C8" stroke="#000000" stroke-width="0.2" opacity="0.5"/>
<rect x="35" y="34" width="4" height="4" fill="#B0B8C8" stroke="#000000" stroke-width="0.2" opacity="0.5"/>
<rect x="35" y="40" width="4" height="4" fill="#B0B8C8" stroke="#000000" stroke-width="0.2" opacity="0.5"/>
<rect x="35" y="46" width="4" height="4" fill="#B0B8C8" stroke="#000000" stroke-width="0.2" opacity="0.5"/>
<rect x="41" y="28" width="4" height="4" fill="#B0B8C8" stroke="#000000" stroke-width="0.2" opacity="0.5"/>
<rect x="41" y="34" width="4" height="4" fill="#B0B8C8" stroke="#000000" stroke-width="0.2" opacity="0.5"/>
<rect x="41" y="40" width="4" height="4" fill="#B0B8C8" stroke="#000000" stroke-width="0.2" opacity="0.5"/>
<rect x="41" y="46" width="4" height="4" fill="#B0B8C8" stroke="#000000" stroke-width="0.2" opacity="0.5"/>
<rect x="47" y="28" width="4" height="4" fill="#B0B8C8" stroke="#000000" stroke-width="0.2" opacity="0.5"/>
<rect x="47" y="34" width="4" height="4" fill="#B0B8C8" stroke="#000000" stroke-width="0.2" opacity="0.5"/>
<rect x="47" y="40" width="4" height="4" fill="#B0B8C8" stroke="#000000" stroke-width="0.2" opacity="0.5"/>
<rect x="47" y="46" width="4" height="4" fill="#B0B8C8" stroke="#000000" stroke-width="0.2" opacity="0.5"/>
<rect x="53" y="28" width="4" height="4" fill="#B0B8C8" stroke="#000000" stroke-width="0.2" opacity="0.5"/>
<rect x="53" y="34" width="4" height="4" fill="#B0B8C8" stroke="#000000" stroke-width="0.2" opacity="0.5"/>
<rect x="53" y="40" width="4" height="4" fill="#B0B8C8" stroke="#000000" stroke-width="0.2" opacity="0.5"/>
<rect x="53" y="46" width="4" height="4" fill="#B0B8C8" stroke="#000000" stroke-width="0.2" opacity="0.5"/>
<rect x="59" y="28" width="4" height="4" fill="#B0B8C8" stroke="#000000" stroke-width="0.2" opacity="0.5"/>
<rect x="59" y="34" width="4" height="4" fill="#B0B8C8" stroke="#000000" stroke-width="0.2" opacity="0.5"/>
<rect x="59" y="40" width="4" height="4" fill="#B0B8C8" stroke="#000000" stroke-width="0.2" opacity="0.5"/>
<rect x="59" y="46" width="4" height="4" fill="#B0B8C8" stroke="#000000" stroke-width="0.2" opacity="0.5"/>
<rect x="65" y="28" width="4" height="4" fill="#B0B8C8" stroke="#000000" stroke-width="0.2" opacity="0.5"/>
<rect x="65" y="34" width="4" height="4" fill="#B0B8C8" stroke="#000000" stroke-width="0.2" opacity="0.5"/>
<rect x="65" y="40" width="4" height="4" fill="#B0B8C8" stroke="#000000" stroke-width="0.2" opacity="0.5"/>
<rect x="65" y="46" width="4" height="4" fill="#B0B8C8" stroke="#000000" stroke-width="0.2" opacity="0.5"/>
<rect x="71" y="28" width="4" height="4" fill="#B0B8C8" stroke="#000000" stroke-width="0.2" opacity="0.5"/>
<rect x="71" y="34" width="4" height="4" fill="#B0B8C8" stroke="#000000" stroke-width="0.2" opacity="0.5"/>
<rect x="71" y="40" width="4" height="4" fill="#B0B8C8" stroke="#000000" stroke-width="0.2" opacity="0.5"/>
<rect x="71" y="46" width="4" height="4" fill="#B0B8C8" stroke="#000000" stroke-width="0.2" opacity="0.5"/>
<rect x="77" y="28" width="4" height="4" fill="#B0B8C8" stroke="#000000" stroke-width="0.2" opacity="0.5"/>
<rect x="77" y="34" width="4" height="4" fill="#B0B8C8" stroke="#000000" stroke-width="0.2" opacity="0.5"/>
<rect x="77" y="40" width="4" height="4" fill="#B0B8C8" stroke="#000000" stroke-width="0.2" opacity="0.5"/>
<rect x="77" y="46" width="4" height="4" fill="#B0B8C8" stroke="#000000" stroke-width="0.2" opacity="0.5"/>
<line x1="5" y1="15" x2="45" y2="26" stroke="#CC0000" stroke-width="0.8" opacity="0.4"/>
<line x1="10" y1="17" x2="28" y2="22" stroke="#CC0000" stroke-width="0.8" marker-end="url(#arrowhead-beam)"/>
<line x1="70" y1="22" x2="125" y2="10" stroke="#CC0000" stroke-width="0.8" opacity="0.4"/>
<line x1="85" y1="18" x2="110" y2="12" stroke="#CC0000" stroke-width="0.8" marker-end="url(#arrowhead-beam)"/>
<line x1="85" y1="40" x2="125" y2="40" stroke="#000000" stroke-width="0.4"/>
<text x="105" y="37" font-family="Arial, Helvetica, sans-serif" font-size="4.5" fill="#666666" text-anchor="middle" font-weight="normal">USB</text>
<text x="57" y="68" font-family="Arial, Helvetica, sans-serif" font-size="7" fill="#000000" text-anchor="middle" font-weight="bold">MEMS DM</text>
</svg>
