<svg xmlns="http://www.w3.org/2000/svg" viewBox="0 0 130 65" width="130" height="65" font-family="Arial, Helvetica, sans-serif">
<defs>
<marker id="arrowhead" markerWidth="6" markerHeight="4" refX="5" refY="2" orient="auto"><polygon points="0,0 6,2 0,4" fill="#1a1a1a"/></marker>
<marker id="arrowhead-beam" markerWidth="6" markerHeight="4" refX="5" refY="2" orient="auto"><polygon points="0,0 6,2 0,4" fill="#c0392b"/></marker>
</defs>
<rect x="25" y="8" width="65" height="40" rx="3" fill="#f0f0f0" stroke="#1a1a1a" stroke-width="0.5"/>
<ellipse cx="32" cy="28" rx="3" ry="10" fill="#f4f6fa" stroke="#1a1a1a" stroke-width="0.3"/>
<rect x="55" y="18" width="18" height="18" fill="#101828" stroke="#1a1a1a" stroke-width="0.3"/>
<rect x="57" y="20" width="2" height="2" fill="#333366" opacity="0.2"/>
<rect x="57" y="23" width="2" height="2" fill="#333366" opacity="0.2"/>
<rect x="57" y="26" width="2" height="2" fill="#333366" opacity="0.2"/>
<rect x="57" y="29" width="2" height="2" fill="#333366" opacity="0.2"/>
<rect x="57" y="32" width="2" height="2" fill="#333366" opacity="0.2"/>
<rect x="60" y="20" width="2" height="2" fill="#333366" opacity="0.2"/>
<rect x="60" y="23" width="2" height="2" fill="#333366" opacity="0.2"/>
<rect x="60" y="26" width="2" height="2" fill="#333366" opacity="0.2"/>
<rect x="60" y="29" width="2" height="2" fill="#333366" opacity="0.2"/>
<rect x="60" y="32" width="2" height="2" fill="#333366" opacity="0.2"/>
<rect x="63" y="20" width="2" height="2" fill="#333366" opacity="0.2"/>
<rect x="63" y="23" width="2" height="2" fill="#333366" opacity="0.2"/>
<rect x="63" y="26" width="2" height="2" fill="#333366" opacity="0.2"/>
<rect x="63" y="29" width="2" height="2" fill="#333366" opacity="0.2"/>
<rect x="63" y="32" width="2" height="2" fill="#333366" opacity="0.2"/>
<rect x="66" y="20" width="2" height="2" fill="#333366" opacity="0.2"/>
<rect x="66" y="23" width="2" height="2" fill="#333366" opacity="0.2"/>
<rect x="66" y="26" width="2" height="2" fill="#333366" opacity="0.2"/>
<rect x="66" y="29" width="2" height="2" fill="#333366" opacity="0.2"/>
<rect x="66" y="32" width="2" height="2" fill="#333366" opacity="0.2"/>
<rect x="69" y="20" width="2" height="2" fill="#333366" opacity="0.2"/>
<rect x="69" y="23" width="2" height="2" fill="#333366" opacity="0.2"/>
<rect x="69" y="26" width="2" height="2" fill="#333366" opacity="0.2"/>
<rect x="69" y="29" width="2" height="2" fill="#333366" opacity="0.2"/>
<rect x="69" y="32" width="2" height="2" fill="#333366" opacity="0.2"/>
<line x1="42" y1="15" x2="48" y2="42" stroke="#888888" stroke-width="0.4" opacity="0.4"/>
<line x1="45" y1="48" x2="45" y2="62" stroke="#c0392b" stroke-width="0.6" opacity="0.3"/>
<line x1="90" y1="28" x2="125" y2="28" stroke="#1a1a1a" stroke-width="0.4"/>
<text x="115" y="25" font-family="Arial, Helvetica, sans-serif" font-size="4.5" fill="#888888" text-anchor="middle" font-weight="normal">data</text>
<text x="57" y="60" font-family="Arial, Helvetica, sans-serif" font-size="7" fill="#1a1a1a" text-anchor="middle" font-weight="bold">Process camera</text>
</svg>
