<svg xmlns="http://www.w3.org/2000/svg" viewBox="0 0 160 62" width="160" height="62" font-family="Arial, Helvetica, sans-serif">
<defs>
<marker id="arrowhead" markerWidth="6" markerHeight="4" refX="5" refY="2" orient="auto"><polygon points="0,0 6,2 0,4" fill="#000000"/></marker>
<marker id="arrowhead-beam" markerWidth="6" markerHeight="4" refX="5" refY="2" orient="auto"><polygon points="0,0 6,2 0,4" fill="#CC0000"/></marker>
<linearGradient id="housing-grad" x1="0" y1="0" x2="0" y2="1"><stop offset="0%" stop-color="#B0B0B8"/><stop offset="100%" stop-color="#707078"/></linearGradient>
</defs>
<rect x="35" y="8" width="70" height="38" rx="3" fill="url(#housing-grad)" stroke="#000000" stroke-width="0.75"/>
<rect x="45" y="14" width="50" height="24" rx="1" fill="#C0D0E8" stroke="#000000" stroke-width="0.4" opacity="0.4"/>
<text x="70" y="29" font-family="Arial, Helvetica, sans-serif" font-size="5.5" fill="#000000" text-anchor="middle" font-weight="normal">CS₂ / liquid</text>
<rect x="48" y="14" width="2" height="24" fill="#CC9900" opacity="0.4"/>
<rect x="90" y="14" width="2" height="24" fill="#CC9900" opacity="0.4"/>
<line x1="70" y1="8" x2="70" y2="0" stroke="#000000" stroke-width="0.5"/>
<text x="76" y="5" font-family="Arial, Helvetica, sans-serif" font-size="4.5" fill="#000000" text-anchor="middle" font-weight="normal">HV</text>
<line x1="5" y1="27" x2="35" y2="27" stroke="#CC0000" stroke-width="0.8" opacity="0.5"/>
<line x1="10" y1="27" x2="25" y2="27" stroke="#CC0000" stroke-width="0.8" marker-end="url(#arrowhead-beam)"/>
<line x1="105" y1="27" x2="155" y2="27" stroke="#CC0000" stroke-width="0.8" opacity="0.5"/>
<line x1="115" y1="27" x2="142" y2="27" stroke="#CC0000" stroke-width="0.8" marker-end="url(#arrowhead-beam)"/>
<text x="70" y="56" font-family="Arial, Helvetica, sans-serif" font-size="7" fill="#000000" text-anchor="middle" font-weight="bold">Kerr cell</text>
</svg>
