<?xml version="1.0" encoding="UTF-8"?>
<svg xmlns="http://www.w3.org/2000/svg" viewBox="0 0 180 55" width="180" height="55">
<defs>
  <marker id="arrowhead" markerWidth="6" markerHeight="4" refX="5" refY="2" orient="auto">
    <polygon points="0 0, 6 2, 0 4" fill="#1a1a1a" />
  </marker>
  <marker id="arrowhead-beam" markerWidth="6" markerHeight="4" refX="5" refY="2" orient="auto">
    <polygon points="0 0, 6 2, 0 4" fill="#c0392b" />
  </marker>
  <marker id="arrowhead-gray" markerWidth="5" markerHeight="3.5" refX="4" refY="1.75" orient="auto">
    <polygon points="0 0, 5 1.75, 0 3.5" fill="#888888" />
  </marker>
</defs>
<rect x="10" y="8" width="160" height="35" rx="3" fill="#f0f0f0" stroke="#1a1a1a" stroke-width="0.5"/>
<path d="M18,16 C50,16 80,19 120,16 C140,16 155,16" fill="none" stroke="#333333" stroke-width="0.4" opacity="0.4"/>
<path d="M18,23 C50,23 80,20 120,23 C140,23 155,23" fill="none" stroke="#333333" stroke-width="0.4" opacity="0.4"/>
<path d="M18,30 C50,30 80,33 120,30 C140,30 155,30" fill="none" stroke="#333333" stroke-width="0.4" opacity="0.4"/>
<path d="M18,37 C50,37 80,34 120,37 C140,37 155,37" fill="none" stroke="#333333" stroke-width="0.4" opacity="0.4"/>
<rect x="57" y="14" width="6" height="22" rx="1" fill="none" stroke="#888888" stroke-width="0.3"/>
<rect x="87" y="14" width="6" height="22" rx="1" fill="none" stroke="#888888" stroke-width="0.3"/>
<rect x="117" y="14" width="6" height="22" rx="1" fill="none" stroke="#888888" stroke-width="0.3"/>
<text x="90" y="52" font-family="Arial, Helvetica, sans-serif" font-size="8" fill="#1a1a1a" text-anchor="middle" font-weight="bold" font-style="normal">Splice tray</text>
</svg>
