<svg xmlns="http://www.w3.org/2000/svg" viewBox="0 0 150 75" width="150" height="75" font-family="Arial, Helvetica, sans-serif">
<defs>
<marker id="arrowhead" markerWidth="6" markerHeight="4" refX="5" refY="2" orient="auto"><polygon points="0,0 6,2 0,4" fill="#000000"/></marker>
<marker id="arrowhead-beam" markerWidth="6" markerHeight="4" refX="5" refY="2" orient="auto"><polygon points="0,0 6,2 0,4" fill="#CC0000"/></marker>
</defs>
<rect x="35" y="8" width="65" height="50" rx="3" fill="#808088" stroke="#000000" stroke-width="0.75"/>
<rect x="42" y="14" width="42" height="30" fill="#E0D8C0" stroke="#000000" stroke-width="0.3"/>
<line x1="44" y1="16" x2="48" y2="19" stroke="#000000" stroke-width="0.3" opacity="0.4"/>
<line x1="44" y1="22" x2="48" y2="19" stroke="#000000" stroke-width="0.3" opacity="0.4"/>
<line x1="44" y1="28" x2="48" y2="31" stroke="#000000" stroke-width="0.3" opacity="0.4"/>
<line x1="44" y1="34" x2="48" y2="31" stroke="#000000" stroke-width="0.3" opacity="0.4"/>
<line x1="44" y1="40" x2="48" y2="43" stroke="#000000" stroke-width="0.3" opacity="0.4"/>
<line x1="50" y1="16" x2="54" y2="13" stroke="#000000" stroke-width="0.3" opacity="0.4"/>
<line x1="50" y1="22" x2="54" y2="25" stroke="#000000" stroke-width="0.3" opacity="0.4"/>
<line x1="50" y1="28" x2="54" y2="25" stroke="#000000" stroke-width="0.3" opacity="0.4"/>
<line x1="50" y1="34" x2="54" y2="37" stroke="#000000" stroke-width="0.3" opacity="0.4"/>
<line x1="50" y1="40" x2="54" y2="37" stroke="#000000" stroke-width="0.3" opacity="0.4"/>
<line x1="56" y1="16" x2="60" y2="19" stroke="#000000" stroke-width="0.3" opacity="0.4"/>
<line x1="56" y1="22" x2="60" y2="19" stroke="#000000" stroke-width="0.3" opacity="0.4"/>
<line x1="56" y1="28" x2="60" y2="31" stroke="#000000" stroke-width="0.3" opacity="0.4"/>
<line x1="56" y1="34" x2="60" y2="31" stroke="#000000" stroke-width="0.3" opacity="0.4"/>
<line x1="56" y1="40" x2="60" y2="43" stroke="#000000" stroke-width="0.3" opacity="0.4"/>
<line x1="62" y1="16" x2="66" y2="13" stroke="#000000" stroke-width="0.3" opacity="0.4"/>
<line x1="62" y1="22" x2="66" y2="25" stroke="#000000" stroke-width="0.3" opacity="0.4"/>
<line x1="62" y1="28" x2="66" y2="25" stroke="#000000" stroke-width="0.3" opacity="0.4"/>
<line x1="62" y1="34" x2="66" y2="37" stroke="#000000" stroke-width="0.3" opacity="0.4"/>
<line x1="62" y1="40" x2="66" y2="37" stroke="#000000" stroke-width="0.3" opacity="0.4"/>
<line x1="68" y1="16" x2="72" y2="19" stroke="#000000" stroke-width="0.3" opacity="0.4"/>
<line x1="68" y1="22" x2="72" y2="19" stroke="#000000" stroke-width="0.3" opacity="0.4"/>
<line x1="68" y1="28" x2="72" y2="31" stroke="#000000" stroke-width="0.3" opacity="0.4"/>
<line x1="68" y1="34" x2="72" y2="31" stroke="#000000" stroke-width="0.3" opacity="0.4"/>
<line x1="68" y1="40" x2="72" y2="43" stroke="#000000" stroke-width="0.3" opacity="0.4"/>
<line x1="74" y1="16" x2="78" y2="13" stroke="#000000" stroke-width="0.3" opacity="0.4"/>
<line x1="74" y1="22" x2="78" y2="25" stroke="#000000" stroke-width="0.3" opacity="0.4"/>
<line x1="74" y1="28" x2="78" y2="25" stroke="#000000" stroke-width="0.3" opacity="0.4"/>
<line x1="74" y1="34" x2="78" y2="37" stroke="#000000" stroke-width="0.3" opacity="0.4"/>
<line x1="74" y1="40" x2="78" y2="37" stroke="#000000" stroke-width="0.3" opacity="0.4"/>
<line x1="80" y1="16" x2="84" y2="19" stroke="#000000" stroke-width="0.3" opacity="0.4"/>
<line x1="80" y1="22" x2="84" y2="19" stroke="#000000" stroke-width="0.3" opacity="0.4"/>
<line x1="80" y1="28" x2="84" y2="31" stroke="#000000" stroke-width="0.3" opacity="0.4"/>
<line x1="80" y1="34" x2="84" y2="31" stroke="#000000" stroke-width="0.3" opacity="0.4"/>
<line x1="80" y1="40" x2="84" y2="43" stroke="#000000" stroke-width="0.3" opacity="0.4"/>
<line x1="5" y1="50" x2="50" y2="30" stroke="#CC0000" stroke-width="0.8" opacity="0.4"/>
<line x1="10" y1="48" x2="28" y2="40" stroke="#CC0000" stroke-width="0.8" marker-end="url(#arrowhead-beam)"/>
<line x1="70" y1="25" x2="145" y2="10" stroke="#CC0000" stroke-width="0.8" opacity="0.5"/>
<line x1="85" y1="22" x2="125" y2="14" stroke="#CC0000" stroke-width="0.8" marker-end="url(#arrowhead-beam)"/>
<line x1="65" y1="35" x2="100" y2="60" stroke="#666666" stroke-width="0.4" opacity="0.2" stroke-dasharray="2,2"/>
<text x="105" y="8" font-family="Arial, Helvetica, sans-serif" font-size="5.5" fill="#CC0000" text-anchor="middle" font-weight="normal">ON</text>
<text x="95" y="60" font-family="Arial, Helvetica, sans-serif" font-size="4.5" fill="#666666" text-anchor="middle" font-weight="normal">OFF</text>
<text x="67" y="70" font-family="Arial, Helvetica, sans-serif" font-size="7" fill="#000000" text-anchor="middle" font-weight="bold">DMD</text>
</svg>
