<svg xmlns="http://www.w3.org/2000/svg" viewBox="0 0 160 75" width="160" height="75" font-family="Arial, Helvetica, sans-serif">
<defs>
<marker id="arrowhead" markerWidth="6" markerHeight="4" refX="5" refY="2" orient="auto"><polygon points="0,0 6,2 0,4" fill="#000000"/></marker>
<marker id="arrowhead-beam" markerWidth="6" markerHeight="4" refX="5" refY="2" orient="auto"><polygon points="0,0 6,2 0,4" fill="#CC0000"/></marker>
</defs>
<rect x="40" y="8" width="70" height="50" rx="3" fill="#808088" stroke="#000000" stroke-width="0.75"/>
<rect x="48" y="14" width="40" height="30" rx="1" fill="#101828" stroke="#000000" stroke-width="0.3"/>
<rect x="50" y="16" width="3.5" height="3.5" fill="#222844" stroke="none" opacity="0.5"/>
<rect x="50" y="21" width="3.5" height="3.5" fill="#222844" stroke="none" opacity="0.5"/>
<rect x="50" y="26" width="3.5" height="3.5" fill="#222844" stroke="none" opacity="0.5"/>
<rect x="50" y="31" width="3.5" height="3.5" fill="#222844" stroke="none" opacity="0.5"/>
<rect x="50" y="36" width="3.5" height="3.5" fill="#222844" stroke="none" opacity="0.5"/>
<rect x="50" y="41" width="3.5" height="3.5" fill="#222844" stroke="none" opacity="0.5"/>
<rect x="55" y="16" width="3.5" height="3.5" fill="#222844" stroke="none" opacity="0.5"/>
<rect x="55" y="21" width="3.5" height="3.5" fill="#222844" stroke="none" opacity="0.5"/>
<rect x="55" y="26" width="3.5" height="3.5" fill="#222844" stroke="none" opacity="0.5"/>
<rect x="55" y="31" width="3.5" height="3.5" fill="#222844" stroke="none" opacity="0.5"/>
<rect x="55" y="36" width="3.5" height="3.5" fill="#222844" stroke="none" opacity="0.5"/>
<rect x="55" y="41" width="3.5" height="3.5" fill="#222844" stroke="none" opacity="0.5"/>
<rect x="60" y="16" width="3.5" height="3.5" fill="#222844" stroke="none" opacity="0.5"/>
<rect x="60" y="21" width="3.5" height="3.5" fill="#222844" stroke="none" opacity="0.5"/>
<rect x="60" y="26" width="3.5" height="3.5" fill="#222844" stroke="none" opacity="0.5"/>
<rect x="60" y="31" width="3.5" height="3.5" fill="#222844" stroke="none" opacity="0.5"/>
<rect x="60" y="36" width="3.5" height="3.5" fill="#222844" stroke="none" opacity="0.5"/>
<rect x="60" y="41" width="3.5" height="3.5" fill="#222844" stroke="none" opacity="0.5"/>
<rect x="65" y="16" width="3.5" height="3.5" fill="#222844" stroke="none" opacity="0.5"/>
<rect x="65" y="21" width="3.5" height="3.5" fill="#222844" stroke="none" opacity="0.5"/>
<rect x="65" y="26" width="3.5" height="3.5" fill="#222844" stroke="none" opacity="0.5"/>
<rect x="65" y="31" width="3.5" height="3.5" fill="#222844" stroke="none" opacity="0.5"/>
<rect x="65" y="36" width="3.5" height="3.5" fill="#222844" stroke="none" opacity="0.5"/>
<rect x="65" y="41" width="3.5" height="3.5" fill="#222844" stroke="none" opacity="0.5"/>
<rect x="70" y="16" width="3.5" height="3.5" fill="#222844" stroke="none" opacity="0.5"/>
<rect x="70" y="21" width="3.5" height="3.5" fill="#222844" stroke="none" opacity="0.5"/>
<rect x="70" y="26" width="3.5" height="3.5" fill="#222844" stroke="none" opacity="0.5"/>
<rect x="70" y="31" width="3.5" height="3.5" fill="#222844" stroke="none" opacity="0.5"/>
<rect x="70" y="36" width="3.5" height="3.5" fill="#222844" stroke="none" opacity="0.5"/>
<rect x="70" y="41" width="3.5" height="3.5" fill="#222844" stroke="none" opacity="0.5"/>
<rect x="75" y="16" width="3.5" height="3.5" fill="#222844" stroke="none" opacity="0.5"/>
<rect x="75" y="21" width="3.5" height="3.5" fill="#222844" stroke="none" opacity="0.5"/>
<rect x="75" y="26" width="3.5" height="3.5" fill="#222844" stroke="none" opacity="0.5"/>
<rect x="75" y="31" width="3.5" height="3.5" fill="#222844" stroke="none" opacity="0.5"/>
<rect x="75" y="36" width="3.5" height="3.5" fill="#222844" stroke="none" opacity="0.5"/>
<rect x="75" y="41" width="3.5" height="3.5" fill="#222844" stroke="none" opacity="0.5"/>
<rect x="80" y="16" width="3.5" height="3.5" fill="#222844" stroke="none" opacity="0.5"/>
<rect x="80" y="21" width="3.5" height="3.5" fill="#222844" stroke="none" opacity="0.5"/>
<rect x="80" y="26" width="3.5" height="3.5" fill="#222844" stroke="none" opacity="0.5"/>
<rect x="80" y="31" width="3.5" height="3.5" fill="#222844" stroke="none" opacity="0.5"/>
<rect x="80" y="36" width="3.5" height="3.5" fill="#222844" stroke="none" opacity="0.5"/>
<rect x="80" y="41" width="3.5" height="3.5" fill="#222844" stroke="none" opacity="0.5"/>
<rect x="85" y="16" width="3.5" height="3.5" fill="#222844" stroke="none" opacity="0.5"/>
<rect x="85" y="21" width="3.5" height="3.5" fill="#222844" stroke="none" opacity="0.5"/>
<rect x="85" y="26" width="3.5" height="3.5" fill="#222844" stroke="none" opacity="0.5"/>
<rect x="85" y="31" width="3.5" height="3.5" fill="#222844" stroke="none" opacity="0.5"/>
<rect x="85" y="36" width="3.5" height="3.5" fill="#222844" stroke="none" opacity="0.5"/>
<rect x="85" y="41" width="3.5" height="3.5" fill="#222844" stroke="none" opacity="0.5"/>
<rect x="55" y="20" width="4" height="20" fill="#4060A0" opacity="0.2"/>
<rect x="65" y="20" width="4" height="20" fill="#4060A0" opacity="0.2"/>
<rect x="75" y="20" width="4" height="20" fill="#4060A0" opacity="0.2"/>
<line x1="5" y1="55" x2="55" y2="32" stroke="#CC0000" stroke-width="0.8" opacity="0.4"/>
<line x1="10" y1="52" x2="30" y2="43" stroke="#CC0000" stroke-width="0.8" marker-end="url(#arrowhead-beam)"/>
<line x1="70" y1="32" x2="155" y2="12" stroke="#CC0000" stroke-width="0.8" opacity="0.4"/>
<line x1="90" y1="26" x2="130" y2="16" stroke="#CC0000" stroke-width="0.8" marker-end="url(#arrowhead-beam)"/>
<rect x="110" y="35" width="12" height="8" rx="1" fill="none" stroke="#000000" stroke-width="0.3"/>
<line x1="122" y1="39" x2="155" y2="39" stroke="#000000" stroke-width="0.4"/>
<text x="75" y="70" font-family="Arial, Helvetica, sans-serif" font-size="7" fill="#000000" text-anchor="middle" font-weight="bold">LCoS SLM</text>
</svg>
