<?xml version="1.0" encoding="UTF-8"?>
<svg xmlns="http://www.w3.org/2000/svg" viewBox="0 0 160 60" width="160" height="60">
<defs>
  <marker id="arrowhead" markerWidth="6" markerHeight="4" refX="5" refY="2" orient="auto">
    <polygon points="0 0, 6 2, 0 4" fill="#1a1a1a" />
  </marker>
  <marker id="arrowhead-beam" markerWidth="6" markerHeight="4" refX="5" refY="2" orient="auto">
    <polygon points="0 0, 6 2, 0 4" fill="#c0392b" />
  </marker>
  <marker id="arrowhead-gray" markerWidth="5" markerHeight="3.5" refX="4" refY="1.75" orient="auto">
    <polygon points="0 0, 5 1.75, 0 3.5" fill="#888888" />
  </marker>
</defs>
<rect x="25" y="10" width="95" height="38" rx="2" fill="#f0f0f0" stroke="#1a1a1a" stroke-width="0.5" />
<path d="M35,22 L55,22 C60,22 60,28 65,28 L80,28" fill="none" stroke="#888888" stroke-width="0.4"/>
<path d="M35,35 L55,35 C60,35 60,32 65,32 L80,32" fill="none" stroke="#888888" stroke-width="0.4"/>
<path d="M80,28 C85,28 85,22 90,22 L105,22" fill="none" stroke="#888888" stroke-width="0.4"/>
<path d="M80,32 C85,32 85,38 90,38 L105,38" fill="none" stroke="#888888" stroke-width="0.4"/>
<text x="70" y="30" font-family="Arial, Helvetica, sans-serif" font-size="7" fill="#1a1a1a" text-anchor="middle" font-weight="normal" font-style="italic">PIC</text>
<line x1="5" y1="22" x2="25" y2="22" stroke="#333333" stroke-width="0.7" stroke-linecap="round" />
<line x1="5" y1="35" x2="25" y2="35" stroke="#333333" stroke-width="0.7" stroke-linecap="round" />
<line x1="120" y1="22" x2="155" y2="22" stroke="#333333" stroke-width="0.7" stroke-linecap="round" />
<line x1="120" y1="38" x2="155" y2="38" stroke="#333333" stroke-width="0.7" stroke-linecap="round" />
<text x="75" y="56" font-family="Arial, Helvetica, sans-serif" font-size="8" fill="#1a1a1a" text-anchor="middle" font-weight="bold" font-style="normal">Photonic IC</text>
</svg>
