<?xml version="1.0" encoding="UTF-8"?>
<svg xmlns="http://www.w3.org/2000/svg" viewBox="0 0 170 55" width="170" height="55">
<defs>
  <marker id="arrowhead" markerWidth="6" markerHeight="4" refX="5" refY="2" orient="auto">
    <polygon points="0 0, 6 2, 0 4" fill="#1a1a1a" />
  </marker>
  <marker id="arrowhead-beam" markerWidth="6" markerHeight="4" refX="5" refY="2" orient="auto">
    <polygon points="0 0, 6 2, 0 4" fill="#c0392b" />
  </marker>
  <marker id="arrowhead-gray" markerWidth="5" markerHeight="3.5" refX="4" refY="1.75" orient="auto">
    <polygon points="0 0, 5 1.75, 0 3.5" fill="#888888" />
  </marker>
</defs>
<line x1="5" y1="30" x2="45" y2="30" stroke="#333333" stroke-width="0.7" stroke-linecap="round" />
<rect x="45" y="12" width="70" height="36" rx="2" fill="#f0f0f0" stroke="#1a1a1a" stroke-width="0.5" />
<rect x="60" y="6" width="30" height="6" rx="1" fill="#888888" stroke="#1a1a1a" stroke-width="0.5"/>
<path d="M60,25 L68,25 L72,18 L78,18 L82,25 L90,25" fill="none" stroke="#c0392b" stroke-width="0.5"/>
<line x1="75" y1="6" x2="75" y2="0" stroke="#1a1a1a" stroke-width="0.75"/>
<text x="82" y="4" font-family="Arial, Helvetica, sans-serif" font-size="6" fill="#1a1a1a" text-anchor="middle" font-weight="normal" font-style="normal">RF</text>
<line x1="115" y1="30" x2="165" y2="30" stroke="#333333" stroke-width="0.7" stroke-linecap="round" />
<line x1="10" y1="30" x2="30" y2="30" stroke="#888888" stroke-width="0.5" marker-end="url(#arrowhead-gray)" />
<text x="80" y="53" font-family="Arial, Helvetica, sans-serif" font-size="8" fill="#1a1a1a" text-anchor="middle" font-weight="bold" font-style="normal">AOTF</text>
</svg>
