<?xml version="1.0" encoding="UTF-8"?>
<svg xmlns="http://www.w3.org/2000/svg" viewBox="0 0 160 55" width="160" height="55">
<defs>
  <marker id="arrowhead" markerWidth="6" markerHeight="4" refX="5" refY="2" orient="auto">
    <polygon points="0 0, 6 2, 0 4" fill="#1a1a1a" />
  </marker>
  <marker id="arrowhead-beam" markerWidth="6" markerHeight="4" refX="5" refY="2" orient="auto">
    <polygon points="0 0, 6 2, 0 4" fill="#c0392b" />
  </marker>
  <marker id="arrowhead-gray" markerWidth="5" markerHeight="3.5" refX="4" refY="1.75" orient="auto">
    <polygon points="0 0, 5 1.75, 0 3.5" fill="#888888" />
  </marker>
</defs>
<line x1="5" y1="27" x2="40" y2="27" stroke="#333333" stroke-width="0.7" stroke-linecap="round" />
<line x1="10" y1="27" x2="28" y2="27" stroke="#888888" stroke-width="0.5" marker-end="url(#arrowhead-gray)" />
<rect x="40" y="10" width="60" height="34" rx="2" fill="#f0f0f0" stroke="#1a1a1a" stroke-width="0.5" />
<rect x="48" y="16" width="20" height="22" rx="1" fill="#f0f0f0" stroke="#1a1a1a" stroke-width="0.3"/>
<rect x="48" y="12" width="20" height="4" rx="1" fill="#888888" stroke="#1a1a1a" stroke-width="0.3"/>
<path d="M72,34 L72,18 L80,18 L80,34 L88,34 L88,18 L92,18" fill="none" stroke="#888888" stroke-width="0.5"/>
<line x1="58" y1="10" x2="58" y2="4" stroke="#1a1a1a" stroke-width="0.5"/>
<text x="65" y="4" font-family="Arial, Helvetica, sans-serif" font-size="6" fill="#888888" text-anchor="middle" font-weight="normal" font-style="normal">gate</text>
<line x1="100" y1="27" x2="155" y2="27" stroke="#333333" stroke-width="0.7" stroke-linecap="round" />
<line x1="115" y1="27" x2="135" y2="27" stroke="#888888" stroke-width="0.5" marker-end="url(#arrowhead-gray)" />
<text x="70" y="52" font-family="Arial, Helvetica, sans-serif" font-size="8" fill="#1a1a1a" text-anchor="middle" font-weight="bold" font-style="normal">Pulse picker</text>
</svg>
