<svg xmlns="http://www.w3.org/2000/svg" viewBox="0 0 120 70" width="120" height="70" font-family="Arial, Helvetica, sans-serif">
<defs>
<marker id="arrowhead" markerWidth="6" markerHeight="4" refX="5" refY="2" orient="auto"><polygon points="0,0 6,2 0,4" fill="#1a1a1a"/></marker>
<marker id="arrowhead-beam" markerWidth="6" markerHeight="4" refX="5" refY="2" orient="auto"><polygon points="0,0 6,2 0,4" fill="#c0392b"/></marker>
</defs>
<line x1="5" y1="35" x2="40" y2="35" stroke="#c0392b" stroke-width="0.6" opacity="0.5"/>
<line x1="10" y1="35" x2="28" y2="35" stroke="#c0392b" stroke-width="0.6" marker-end="url(#arrowhead-beam)"/>
<rect x="43" y="8" width="18" height="50" rx="1" fill="#f4f6fa" stroke="#1a1a1a" stroke-width="0.5"/>
<rect x="45" y="12" width="2" height="2" fill="#1a1a1a" opacity="0.15"/>
<rect x="54" y="12" width="2" height="2" fill="#1a1a1a" opacity="0.15"/>
<rect x="48" y="15" width="2" height="2" fill="#1a1a1a" opacity="0.15"/>
<rect x="51" y="15" width="2" height="2" fill="#1a1a1a" opacity="0.15"/>
<rect x="57" y="15" width="2" height="2" fill="#1a1a1a" opacity="0.15"/>
<rect x="45" y="18" width="2" height="2" fill="#1a1a1a" opacity="0.15"/>
<rect x="48" y="18" width="2" height="2" fill="#1a1a1a" opacity="0.15"/>
<rect x="54" y="18" width="2" height="2" fill="#1a1a1a" opacity="0.15"/>
<rect x="45" y="21" width="2" height="2" fill="#1a1a1a" opacity="0.15"/>
<rect x="48" y="21" width="2" height="2" fill="#1a1a1a" opacity="0.15"/>
<rect x="51" y="21" width="2" height="2" fill="#1a1a1a" opacity="0.15"/>
<rect x="48" y="24" width="2" height="2" fill="#1a1a1a" opacity="0.15"/>
<rect x="51" y="24" width="2" height="2" fill="#1a1a1a" opacity="0.15"/>
<rect x="51" y="27" width="2" height="2" fill="#1a1a1a" opacity="0.15"/>
<rect x="57" y="27" width="2" height="2" fill="#1a1a1a" opacity="0.15"/>
<rect x="48" y="30" width="2" height="2" fill="#1a1a1a" opacity="0.15"/>
<rect x="51" y="30" width="2" height="2" fill="#1a1a1a" opacity="0.15"/>
<rect x="54" y="30" width="2" height="2" fill="#1a1a1a" opacity="0.15"/>
<rect x="57" y="30" width="2" height="2" fill="#1a1a1a" opacity="0.15"/>
<rect x="45" y="33" width="2" height="2" fill="#1a1a1a" opacity="0.15"/>
<rect x="57" y="33" width="2" height="2" fill="#1a1a1a" opacity="0.15"/>
<rect x="45" y="36" width="2" height="2" fill="#1a1a1a" opacity="0.15"/>
<rect x="54" y="36" width="2" height="2" fill="#1a1a1a" opacity="0.15"/>
<rect x="57" y="36" width="2" height="2" fill="#1a1a1a" opacity="0.15"/>
<rect x="48" y="39" width="2" height="2" fill="#1a1a1a" opacity="0.15"/>
<rect x="54" y="39" width="2" height="2" fill="#1a1a1a" opacity="0.15"/>
<rect x="57" y="39" width="2" height="2" fill="#1a1a1a" opacity="0.15"/>
<rect x="45" y="42" width="2" height="2" fill="#1a1a1a" opacity="0.15"/>
<rect x="48" y="42" width="2" height="2" fill="#1a1a1a" opacity="0.15"/>
<rect x="51" y="42" width="2" height="2" fill="#1a1a1a" opacity="0.15"/>
<rect x="45" y="45" width="2" height="2" fill="#1a1a1a" opacity="0.15"/>
<rect x="48" y="45" width="2" height="2" fill="#1a1a1a" opacity="0.15"/>
<rect x="54" y="45" width="2" height="2" fill="#1a1a1a" opacity="0.15"/>
<rect x="54" y="48" width="2" height="2" fill="#1a1a1a" opacity="0.15"/>
<rect x="45" y="51" width="2" height="2" fill="#1a1a1a" opacity="0.15"/>
<rect x="48" y="51" width="2" height="2" fill="#1a1a1a" opacity="0.15"/>
<rect x="51" y="51" width="2" height="2" fill="#1a1a1a" opacity="0.15"/>
<rect x="45" y="54" width="2" height="2" fill="#1a1a1a" opacity="0.15"/>
<rect x="57" y="54" width="2" height="2" fill="#1a1a1a" opacity="0.15"/>
<line x1="61" y1="35" x2="115" y2="35" stroke="#c0392b" stroke-width="0.6" opacity="0.4"/>
<text x="52" y="5" font-family="Arial, Helvetica, sans-serif" font-size="5.5" fill="#888888" text-anchor="middle" font-weight="normal">CGH</text>
<text x="55" y="66" font-family="Arial, Helvetica, sans-serif" font-size="7" fill="#1a1a1a" text-anchor="middle" font-weight="bold">Comp. hologram</text>
</svg>
