<?xml version="1.0" encoding="UTF-8"?>
<svg xmlns="http://www.w3.org/2000/svg" viewBox="0 0 180 55" width="180" height="55">
<defs>
  <marker id="arrowhead" markerWidth="6" markerHeight="4" refX="5" refY="2" orient="auto">
    <polygon points="0 0, 6 2, 0 4" fill="#000000" />
  </marker>
  <linearGradient id="fiber-grad" x1="0" y1="0" x2="0" y2="1">
      <stop offset="0%" stop-color="#ADACC6"/>
      <stop offset="22%" stop-color="#1B1E89"/>
      <stop offset="100%" stop-color="#0D0F42"/>
    </linearGradient>
</defs>
<rect x="10" y="30" width="160" height="14" rx="1" fill="#444444" stroke="#000000" stroke-width="0.4" opacity="0.2"/>
<line x1="10" y1="28" x2="170" y2="28" stroke="url(#fiber-grad)" stroke-width="3.0" stroke-linecap="round" />
<line x1="70" y1="22" x2="70" y2="34" stroke="#000000" stroke-width="0.5" opacity="0.4"/>
<line x1="74" y1="22" x2="74" y2="34" stroke="#000000" stroke-width="0.5" opacity="0.4"/>
<line x1="78" y1="22" x2="78" y2="34" stroke="#000000" stroke-width="0.5" opacity="0.4"/>
<line x1="82" y1="22" x2="82" y2="34" stroke="#000000" stroke-width="0.5" opacity="0.4"/>
<line x1="86" y1="22" x2="86" y2="34" stroke="#000000" stroke-width="0.5" opacity="0.4"/>
<line x1="90" y1="22" x2="90" y2="34" stroke="#000000" stroke-width="0.5" opacity="0.4"/>
<line x1="94" y1="22" x2="94" y2="34" stroke="#000000" stroke-width="0.5" opacity="0.4"/>
<line x1="98" y1="22" x2="98" y2="34" stroke="#000000" stroke-width="0.5" opacity="0.4"/>
<line x1="102" y1="22" x2="102" y2="34" stroke="#000000" stroke-width="0.5" opacity="0.4"/>
<line x1="106" y1="22" x2="106" y2="34" stroke="#000000" stroke-width="0.5" opacity="0.4"/>
<line x1="110" y1="22" x2="110" y2="34" stroke="#000000" stroke-width="0.5" opacity="0.4"/>
<line x1="114" y1="22" x2="114" y2="34" stroke="#000000" stroke-width="0.5" opacity="0.4"/>
<line x1="55" y1="37" x2="40" y2="37" stroke="#CC3300" stroke-width="0.4" marker-end="url(#arrowhead)"/>
<line x1="125" y1="37" x2="140" y2="37" stroke="#CC3300" stroke-width="0.4" marker-end="url(#arrowhead)"/>
<text x="90" y="42" font-family="Helvetica, Arial, sans-serif" font-size="7" fill="#CC3300" text-anchor="middle" font-weight="normal" font-style="normal">ε</text>
<text x="90" y="52" font-family="Helvetica, Arial, sans-serif" font-size="8" fill="#000000" text-anchor="middle" font-weight="bold" font-style="normal">FBG strain gauge</text>
</svg>
