<?xml version="1.0" encoding="UTF-8"?>
<svg xmlns="http://www.w3.org/2000/svg" viewBox="0 0 130 65" width="130" height="65">
<defs>
  <marker id="arrowhead" markerWidth="6" markerHeight="4" refX="5" refY="2" orient="auto">
    <polygon points="0 0, 6 2, 0 4" fill="#000000" />
  </marker>
  <linearGradient id="fiber-grad" x1="0" y1="0" x2="0" y2="1">
      <stop offset="0%" stop-color="#ADACC6"/>
      <stop offset="22%" stop-color="#1B1E89"/>
      <stop offset="100%" stop-color="#0D0F42"/>
    </linearGradient>
  <linearGradient id="comp-grad" x1="0" y1="0" x2="0" y2="1">
      <stop offset="0%" stop-color="#F0F0F8"/>
      <stop offset="50%" stop-color="#B0B0C8"/>
      <stop offset="100%" stop-color="#707088"/>
    </linearGradient>
</defs>
<line x1="5" y1="32" x2="25" y2="32" stroke="url(#fiber-grad)" stroke-width="3.0" stroke-linecap="round" />
<rect x="25" y="10" width="65" height="42" rx="3" fill="url(#comp-grad)" stroke="#000000" stroke-width="0.75" />
<path d="M45,18 C48,22 42,26 45,30" fill="none" stroke="#000000" stroke-width="0.5"/>
<rect x="40" y="30" width="10" height="10" fill="#000000" opacity="0.3" stroke="#000000" stroke-width="0.4"/>
<line x1="62" y1="28" x2="62" y2="38" stroke="#444444" stroke-width="0.3" opacity="0.4"/>
<line x1="65" y1="28" x2="65" y2="38" stroke="#444444" stroke-width="0.3" opacity="0.4"/>
<line x1="68" y1="28" x2="68" y2="38" stroke="#444444" stroke-width="0.3" opacity="0.4"/>
<line x1="71" y1="28" x2="71" y2="38" stroke="#444444" stroke-width="0.3" opacity="0.4"/>
<line x1="74" y1="28" x2="74" y2="38" stroke="#444444" stroke-width="0.3" opacity="0.4"/>
<line x1="77" y1="28" x2="77" y2="38" stroke="#444444" stroke-width="0.3" opacity="0.4"/>
<line x1="80" y1="28" x2="80" y2="38" stroke="#444444" stroke-width="0.3" opacity="0.4"/>
<line x1="55" y1="48" x2="55" y2="55" stroke="#000000" stroke-width="0.5" marker-end="url(#arrowhead)"/>
<text x="62" y="55" font-family="Helvetica, Arial, sans-serif" font-size="6" fill="#000000" text-anchor="middle" font-weight="normal" font-style="italic">a</text>
<line x1="90" y1="32" x2="125" y2="32" stroke="url(#fiber-grad)" stroke-width="3.0" stroke-linecap="round" />
<text x="57" y="64" font-family="Helvetica, Arial, sans-serif" font-size="8" fill="#000000" text-anchor="middle" font-weight="bold" font-style="normal">Fiber accelerometer</text>
</svg>
