<?xml version="1.0" encoding="UTF-8"?>
<svg xmlns="http://www.w3.org/2000/svg" viewBox="0 0 140 65" width="140" height="65">
<defs>
  <marker id="arrowhead" markerWidth="6" markerHeight="4" refX="5" refY="2" orient="auto">
    <polygon points="0 0, 6 2, 0 4" fill="#000000" />
  </marker>
  <linearGradient id="fiber-grad" x1="0" y1="0" x2="0" y2="1">
      <stop offset="0%" stop-color="#ADACC6"/>
      <stop offset="22%" stop-color="#1B1E89"/>
      <stop offset="100%" stop-color="#0D0F42"/>
    </linearGradient>
  <linearGradient id="comp-grad" x1="0" y1="0" x2="0" y2="1">
      <stop offset="0%" stop-color="#F0F0F8"/>
      <stop offset="50%" stop-color="#B0B0C8"/>
      <stop offset="100%" stop-color="#707088"/>
    </linearGradient>
</defs>
<line x1="5" y1="32" x2="30" y2="32" stroke="url(#fiber-grad)" stroke-width="3.0" stroke-linecap="round" />
<rect x="30" y="10" width="60" height="44" rx="3" fill="url(#comp-grad)" stroke="#000000" stroke-width="0.75" />
<path d="M95,32 A8,8 0 0,1 95,40" fill="none" stroke="#4488CC" stroke-width="0.4" opacity="0.4"/>
<path d="M95,32 A14,14 0 0,1 95,46" fill="none" stroke="#4488CC" stroke-width="0.4" opacity="0.4"/>
<path d="M95,32 A20,20 0 0,1 95,52" fill="none" stroke="#4488CC" stroke-width="0.4" opacity="0.4"/>
<circle cx="60" cy="32" r="10" fill="none" stroke="GRADIENT" stroke-width="3.0" opacity="0.4"/>
<circle cx="60" cy="32" r="6" fill="none" stroke="GRADIENT" stroke-width="3.0" opacity="0.3"/>
<line x1="90" y1="32" x2="135" y2="32" stroke="url(#fiber-grad)" stroke-width="3.0" stroke-linecap="round" />
<text x="60" y="62" font-family="Helvetica, Arial, sans-serif" font-size="8" fill="#000000" text-anchor="middle" font-weight="bold" font-style="normal">Fiber hydrophone</text>
</svg>
