<?xml version="1.0" encoding="UTF-8"?>
<svg xmlns="http://www.w3.org/2000/svg" viewBox="0 0 100 55" width="100" height="55">
<defs>
  <marker id="arrowhead" markerWidth="6" markerHeight="4" refX="5" refY="2" orient="auto">
    <polygon points="0 0, 6 2, 0 4" fill="#000000" />
  </marker>
</defs>
<line x1="5" y1="27" x2="40" y2="27" stroke="#1B1E89" stroke-width="2.5" stroke-linecap="round" />
<rect x="44" y="7" width="12" height="40" rx="1" fill="#404050" stroke="#000" stroke-width="0.75"/>
<line x1="44" y1="11" x2="56" y2="11" stroke="#808090" stroke-width="0.4"/>
<line x1="44" y1="15" x2="56" y2="15" stroke="#808090" stroke-width="0.4"/>
<line x1="44" y1="19" x2="56" y2="19" stroke="#808090" stroke-width="0.4"/>
<line x1="44" y1="23" x2="56" y2="23" stroke="#808090" stroke-width="0.4"/>
<line x1="44" y1="27" x2="56" y2="27" stroke="#808090" stroke-width="0.4"/>
<line x1="44" y1="31" x2="56" y2="31" stroke="#808090" stroke-width="0.4"/>
<line x1="44" y1="35" x2="56" y2="35" stroke="#808090" stroke-width="0.4"/>
<line x1="44" y1="39" x2="56" y2="39" stroke="#808090" stroke-width="0.4"/>
<line x1="44" y1="43" x2="56" y2="43" stroke="#808090" stroke-width="0.4"/>
<rect x="40" y="22" width="4" height="10" fill="#CC6600" stroke="#000000" stroke-width="0.3"/>
<line x1="56" y1="9" x2="60" y2="5" stroke="#444444" stroke-width="0.5"/>
<line x1="56" y1="16" x2="60" y2="12" stroke="#444444" stroke-width="0.5"/>
<line x1="56" y1="23" x2="60" y2="19" stroke="#444444" stroke-width="0.5"/>
<line x1="56" y1="30" x2="60" y2="26" stroke="#444444" stroke-width="0.5"/>
<line x1="56" y1="37" x2="60" y2="33" stroke="#444444" stroke-width="0.5"/>
<line x1="56" y1="44" x2="60" y2="40" stroke="#444444" stroke-width="0.5"/>
<text x="45" y="53" font-family="Helvetica, Arial, sans-serif" font-size="8" fill="#000000" text-anchor="middle" font-weight="bold" font-style="normal">SESAM</text>
</svg>
