<svg xmlns="http://www.w3.org/2000/svg" viewBox="0 0 120 65" width="120" height="65" font-family="Arial, Helvetica, sans-serif">
<defs>
<marker id="arrowhead" markerWidth="6" markerHeight="4" refX="5" refY="2" orient="auto"><polygon points="0,0 6,2 0,4" fill="#1a1a1a"/></marker>
<marker id="arrowhead-beam" markerWidth="6" markerHeight="4" refX="5" refY="2" orient="auto"><polygon points="0,0 6,2 0,4" fill="#c0392b"/></marker>
</defs>
<line x1="5" y1="32" x2="40" y2="32" stroke="#c0392b" stroke-width="0.6" opacity="0.5"/>
<line x1="10" y1="32" x2="28" y2="32" stroke="#c0392b" stroke-width="0.6" marker-end="url(#arrowhead-beam)"/>
<rect x="42" y="8" width="18" height="46" rx="1" fill="#f4f6fa" stroke="#1a1a1a" stroke-width="0.5"/>
<line x1="44" y1="12" x2="58" y2="14" stroke="#888888" stroke-width="0.3" opacity="0.25"/>
<line x1="44" y1="16" x2="58" y2="18" stroke="#888888" stroke-width="0.3" opacity="0.25"/>
<line x1="44" y1="20" x2="58" y2="22" stroke="#888888" stroke-width="0.3" opacity="0.25"/>
<line x1="44" y1="24" x2="58" y2="26" stroke="#888888" stroke-width="0.3" opacity="0.25"/>
<line x1="44" y1="28" x2="58" y2="30" stroke="#888888" stroke-width="0.3" opacity="0.25"/>
<line x1="44" y1="32" x2="58" y2="34" stroke="#888888" stroke-width="0.3" opacity="0.25"/>
<line x1="44" y1="36" x2="58" y2="38" stroke="#888888" stroke-width="0.3" opacity="0.25"/>
<line x1="44" y1="40" x2="58" y2="42" stroke="#888888" stroke-width="0.3" opacity="0.25"/>
<line x1="44" y1="44" x2="58" y2="46" stroke="#888888" stroke-width="0.3" opacity="0.25"/>
<line x1="44" y1="48" x2="58" y2="50" stroke="#888888" stroke-width="0.3" opacity="0.25"/>
<text x="51" y="6" font-family="Arial, Helvetica, sans-serif" font-size="5.5" fill="#888888" text-anchor="middle" font-weight="normal">VBG</text>
<line x1="42" y1="30" x2="5" y2="15" stroke="#c0392b" stroke-width="0.5" opacity="0.4"/>
<line x1="60" y1="32" x2="115" y2="32" stroke="#c0392b" stroke-width="0.6" opacity="0.35"/>
<text x="55" y="60" font-family="Arial, Helvetica, sans-serif" font-size="7" fill="#1a1a1a" text-anchor="middle" font-weight="bold">VBG filter</text>
</svg>
