<?xml version="1.0" encoding="UTF-8"?>
<svg xmlns="http://www.w3.org/2000/svg" viewBox="0 0 130 50" width="130" height="50">
<defs>
  <marker id="arrowhead" markerWidth="6" markerHeight="4" refX="5" refY="2" orient="auto">
    <polygon points="0 0, 6 2, 0 4" fill="#1a1a1a" />
  </marker>
  <marker id="arrowhead-beam" markerWidth="6" markerHeight="4" refX="5" refY="2" orient="auto">
    <polygon points="0 0, 6 2, 0 4" fill="#c0392b" />
  </marker>
  <marker id="arrowhead-gray" markerWidth="5" markerHeight="3.5" refX="4" refY="1.75" orient="auto">
    <polygon points="0 0, 5 1.75, 0 3.5" fill="#888888" />
  </marker>
</defs>
<rect x="20" y="10" width="75" height="25" rx="2" fill="#f0f0f0" stroke="#1a1a1a" stroke-width="0.5"/>
<line x1="25" y1="35" x2="25" y2="44" stroke="#1a1a1a" stroke-width="0.4"/>
<line x1="33" y1="35" x2="33" y2="44" stroke="#1a1a1a" stroke-width="0.4"/>
<line x1="41" y1="35" x2="41" y2="44" stroke="#1a1a1a" stroke-width="0.4"/>
<line x1="49" y1="35" x2="49" y2="44" stroke="#1a1a1a" stroke-width="0.4"/>
<line x1="57" y1="35" x2="57" y2="44" stroke="#1a1a1a" stroke-width="0.4"/>
<line x1="65" y1="35" x2="65" y2="44" stroke="#1a1a1a" stroke-width="0.4"/>
<line x1="73" y1="35" x2="73" y2="44" stroke="#1a1a1a" stroke-width="0.4"/>
<line x1="81" y1="35" x2="81" y2="44" stroke="#1a1a1a" stroke-width="0.4"/>
<line x1="95" y1="22" x2="125" y2="22" stroke="#333333" stroke-width="0.7" stroke-linecap="round" />
<line x1="100" y1="22" x2="115" y2="22" stroke="#888888" stroke-width="0.5" marker-end="url(#arrowhead-gray)" />
<text x="57" y="26" font-family="Arial, Helvetica, sans-serif" font-size="6" fill="#1a1a1a" text-anchor="middle" font-weight="normal" font-style="normal">DIL</text>
<text x="57" y="48" font-family="Arial, Helvetica, sans-serif" font-size="8" fill="#1a1a1a" text-anchor="middle" font-weight="bold" font-style="normal">Mini-DIL</text>
</svg>
