<svg xmlns="http://www.w3.org/2000/svg" viewBox="0 0 110 75" width="110" height="75" font-family="Arial, Helvetica, sans-serif">
<defs>
<marker id="arrowhead" markerWidth="6" markerHeight="4" refX="5" refY="2" orient="auto"><polygon points="0,0 6,2 0,4" fill="#000000"/></marker>
<marker id="arrowhead-beam" markerWidth="6" markerHeight="4" refX="5" refY="2" orient="auto"><polygon points="0,0 6,2 0,4" fill="#CC0000"/></marker>
</defs>
<line x1="5" y1="37" x2="32" y2="37" stroke="#CC0000" stroke-width="0.8" opacity="0.5"/>
<line x1="8" y1="37" x2="22" y2="37" stroke="#CC0000" stroke-width="0.8" marker-end="url(#arrowhead-beam)"/>
<circle cx="55" cy="37" r="20" fill="none" stroke="#000000" stroke-width="0.75"/>
<path d="M35,37 A20,20 0 0,1 55,17 L55,27 A10,10 0 0,0 45,37 Z" fill="#404048" opacity="0.5"/>
<path d="M75,37 A20,20 0 0,1 55,57 L55,47 A10,10 0 0,0 65,37 Z" fill="#404048" opacity="0.5"/>
<line x1="75" y1="37" x2="105" y2="37" stroke="#CC0000" stroke-width="0.8" opacity="0.35"/>
<text x="55" y="68" font-family="Arial, Helvetica, sans-serif" font-size="7" fill="#000000" text-anchor="middle" font-weight="bold">Shaped pupil mask</text>
</svg>
