<?xml version="1.0" encoding="UTF-8"?>
<svg xmlns="http://www.w3.org/2000/svg" viewBox="0 0 200 40" width="200" height="40">
<defs>
  <marker id="arrowhead" markerWidth="6" markerHeight="4" refX="5" refY="2" orient="auto">
    <polygon points="0 0, 6 2, 0 4" fill="#1a1a1a" />
  </marker>
  <marker id="arrowhead-beam" markerWidth="6" markerHeight="4" refX="5" refY="2" orient="auto">
    <polygon points="0 0, 6 2, 0 4" fill="#c0392b" />
  </marker>
  <marker id="arrowhead-gray" markerWidth="5" markerHeight="3.5" refX="4" refY="1.75" orient="auto">
    <polygon points="0 0, 5 1.75, 0 3.5" fill="#888888" />
  </marker>
</defs>
<line x1="10" y1="20" x2="190" y2="20" stroke="#333333" stroke-width="0.7" stroke-linecap="round" />
<line x1="15" y1="20" x2="35" y2="20" stroke="#888888" stroke-width="0.5" marker-end="url(#arrowhead-gray)" />
<line x1="55" y1="10" x2="55" y2="30" stroke="#1a1a1a" stroke-width="0.5" opacity="0.10"/>
<line x1="59" y1="10" x2="59" y2="30" stroke="#1a1a1a" stroke-width="0.5" opacity="0.11"/>
<line x1="63" y1="10" x2="63" y2="30" stroke="#1a1a1a" stroke-width="0.5" opacity="0.16"/>
<line x1="67" y1="10" x2="67" y2="30" stroke="#1a1a1a" stroke-width="0.5" opacity="0.20"/>
<line x1="71" y1="10" x2="71" y2="30" stroke="#1a1a1a" stroke-width="0.5" opacity="0.26"/>
<line x1="75" y1="10" x2="75" y2="30" stroke="#1a1a1a" stroke-width="0.5" opacity="0.32"/>
<line x1="79" y1="10" x2="79" y2="30" stroke="#1a1a1a" stroke-width="0.5" opacity="0.39"/>
<line x1="83" y1="10" x2="83" y2="30" stroke="#1a1a1a" stroke-width="0.5" opacity="0.45"/>
<line x1="87" y1="10" x2="87" y2="30" stroke="#1a1a1a" stroke-width="0.5" opacity="0.51"/>
<line x1="91" y1="10" x2="91" y2="30" stroke="#1a1a1a" stroke-width="0.5" opacity="0.55"/>
<line x1="95" y1="10" x2="95" y2="30" stroke="#1a1a1a" stroke-width="0.5" opacity="0.59"/>
<line x1="99" y1="10" x2="99" y2="30" stroke="#1a1a1a" stroke-width="0.5" opacity="0.60"/>
<line x1="103" y1="10" x2="103" y2="30" stroke="#1a1a1a" stroke-width="0.5" opacity="0.59"/>
<line x1="107" y1="10" x2="107" y2="30" stroke="#1a1a1a" stroke-width="0.5" opacity="0.57"/>
<line x1="111" y1="10" x2="111" y2="30" stroke="#1a1a1a" stroke-width="0.5" opacity="0.53"/>
<line x1="115" y1="10" x2="115" y2="30" stroke="#1a1a1a" stroke-width="0.5" opacity="0.48"/>
<line x1="119" y1="10" x2="119" y2="30" stroke="#1a1a1a" stroke-width="0.5" opacity="0.42"/>
<line x1="123" y1="10" x2="123" y2="30" stroke="#1a1a1a" stroke-width="0.5" opacity="0.36"/>
<line x1="127" y1="10" x2="127" y2="30" stroke="#1a1a1a" stroke-width="0.5" opacity="0.29"/>
<line x1="131" y1="10" x2="131" y2="30" stroke="#1a1a1a" stroke-width="0.5" opacity="0.23"/>
<line x1="135" y1="10" x2="135" y2="30" stroke="#1a1a1a" stroke-width="0.5" opacity="0.18"/>
<line x1="139" y1="10" x2="139" y2="30" stroke="#1a1a1a" stroke-width="0.5" opacity="0.13"/>
<line x1="143" y1="10" x2="143" y2="30" stroke="#1a1a1a" stroke-width="0.5" opacity="0.10"/>
<line x1="147" y1="10" x2="147" y2="30" stroke="#1a1a1a" stroke-width="0.5" opacity="0.10"/>
<text x="100" y="38" font-family="Arial, Helvetica, sans-serif" font-size="8" fill="#1a1a1a" text-anchor="middle" font-weight="bold" font-style="normal">Apodized FBG</text>
</svg>
