<?xml version="1.0" encoding="UTF-8"?>
<svg xmlns="http://www.w3.org/2000/svg" viewBox="0 0 140 55" width="140" height="55">
<defs>
  <marker id="arrowhead" markerWidth="6" markerHeight="4" refX="5" refY="2" orient="auto">
    <polygon points="0 0, 6 2, 0 4" fill="#1a1a1a" />
  </marker>
  <marker id="arrowhead-beam" markerWidth="6" markerHeight="4" refX="5" refY="2" orient="auto">
    <polygon points="0 0, 6 2, 0 4" fill="#c0392b" />
  </marker>
  <marker id="arrowhead-gray" markerWidth="5" markerHeight="3.5" refX="4" refY="1.75" orient="auto">
    <polygon points="0 0, 5 1.75, 0 3.5" fill="#888888" />
  </marker>
</defs>
<line x1="5" y1="27" x2="25" y2="27" stroke="#333333" stroke-width="0.7" stroke-linecap="round" />
<line x1="8" y1="27" x2="18" y2="27" stroke="#888888" stroke-width="0.5" marker-end="url(#arrowhead-gray)" />
<rect x="25" y="8" width="65" height="38" rx="3" fill="#f0f0f0" stroke="#1a1a1a" stroke-width="0.5"/>
<rect x="90" y="12" width="12" height="30" rx="2" fill="#888888" stroke="#1a1a1a" stroke-width="0.4" opacity="0.5"/>
<line x1="92" y1="14" x2="100" y2="14" stroke="#1a1a1a" stroke-width="0.2" opacity="0.35"/>
<line x1="92" y1="17" x2="100" y2="17" stroke="#1a1a1a" stroke-width="0.2" opacity="0.35"/>
<line x1="92" y1="20" x2="100" y2="20" stroke="#1a1a1a" stroke-width="0.2" opacity="0.35"/>
<line x1="92" y1="23" x2="100" y2="23" stroke="#1a1a1a" stroke-width="0.2" opacity="0.35"/>
<line x1="92" y1="26" x2="100" y2="26" stroke="#1a1a1a" stroke-width="0.2" opacity="0.35"/>
<line x1="92" y1="29" x2="100" y2="29" stroke="#1a1a1a" stroke-width="0.2" opacity="0.35"/>
<line x1="92" y1="32" x2="100" y2="32" stroke="#1a1a1a" stroke-width="0.2" opacity="0.35"/>
<line x1="92" y1="35" x2="100" y2="35" stroke="#1a1a1a" stroke-width="0.2" opacity="0.35"/>
<line x1="92" y1="38" x2="100" y2="38" stroke="#1a1a1a" stroke-width="0.2" opacity="0.35"/>
<line x1="104" y1="12" x2="104" y2="42" stroke="#1a1a1a" stroke-width="0.75"/>
<line x1="106" y1="27" x2="135" y2="27" stroke="#c0392b" stroke-width="0.8" opacity="0.5"/>
<text x="57" y="30" font-family="Arial, Helvetica, sans-serif" font-size="6" fill="#888888" text-anchor="middle" font-weight="normal" font-style="normal">kW</text>
<text x="65" y="52" font-family="Arial, Helvetica, sans-serif" font-size="8" fill="#1a1a1a" text-anchor="middle" font-weight="bold" font-style="normal">LCA/HLC connector</text>
</svg>
