<?xml version="1.0" encoding="UTF-8"?>
<svg xmlns="http://www.w3.org/2000/svg" viewBox="0 0 140 48" width="140" height="48">
<defs>
  <marker id="arrowhead" markerWidth="6" markerHeight="4" refX="5" refY="2" orient="auto">
    <polygon points="0 0, 6 2, 0 4" fill="#000000" />
  </marker>
  <linearGradient id="fiber-grad" x1="0" y1="0" x2="0" y2="1">
      <stop offset="0%" stop-color="#ADACC6"/>
      <stop offset="22%" stop-color="#1B1E89"/>
      <stop offset="100%" stop-color="#0D0F42"/>
    </linearGradient>
  <linearGradient id="comp-grad" x1="0" y1="0" x2="0" y2="1">
      <stop offset="0%" stop-color="#F0F0F8"/>
      <stop offset="50%" stop-color="#B0B0C8"/>
      <stop offset="100%" stop-color="#707088"/>
    </linearGradient>
</defs>
<rect x="15" y="8" width="85" height="30" rx="2" fill="url(#comp-grad)" stroke="#000000" stroke-width="0.75"/>
<rect x="5" y="14" width="10" height="18" fill="#000000" opacity="0.2"/>
<line x1="5" y1="16" x2="12" y2="16" stroke="#000000" stroke-width="0.2" opacity="0.4"/>
<line x1="5" y1="18" x2="12" y2="18" stroke="#000000" stroke-width="0.2" opacity="0.4"/>
<line x1="5" y1="20" x2="12" y2="20" stroke="#000000" stroke-width="0.2" opacity="0.4"/>
<line x1="5" y1="22" x2="12" y2="22" stroke="#000000" stroke-width="0.2" opacity="0.4"/>
<line x1="5" y1="24" x2="12" y2="24" stroke="#000000" stroke-width="0.2" opacity="0.4"/>
<line x1="5" y1="26" x2="12" y2="26" stroke="#000000" stroke-width="0.2" opacity="0.4"/>
<line x1="5" y1="28" x2="12" y2="28" stroke="#000000" stroke-width="0.2" opacity="0.4"/>
<line x1="5" y1="30" x2="12" y2="30" stroke="#000000" stroke-width="0.2" opacity="0.4"/>
<rect x="100" y="14" width="8" height="8" rx="1" fill="#000000" opacity="0.3"/>
<line x1="108" y1="18" x2="135" y2="18" stroke="url(#fiber-grad)" stroke-width="3.0" stroke-linecap="round" />
<rect x="100" y="28" width="8" height="8" rx="1" fill="#000000" opacity="0.3"/>
<line x1="108" y1="32" x2="135" y2="32" stroke="url(#fiber-grad)" stroke-width="3.0" stroke-linecap="round" />
<text x="57" y="26" font-family="Helvetica, Arial, sans-serif" font-size="6" fill="#000000" text-anchor="middle" font-weight="normal" font-style="normal">SFP28</text>
<text x="70" y="44" font-family="Helvetica, Arial, sans-serif" font-size="8" fill="#000000" text-anchor="middle" font-weight="bold" font-style="normal">SFP28 (25G)</text>
</svg>
