<?xml version="1.0" encoding="UTF-8"?>
<svg xmlns="http://www.w3.org/2000/svg" viewBox="0 0 220 90" width="220" height="90">
<defs>
  <marker id="arrowhead" markerWidth="6" markerHeight="4" refX="5" refY="2" orient="auto">
    <polygon points="0 0, 6 2, 0 4" fill="#1a1a1a" />
  </marker>
  <marker id="arrowhead-beam" markerWidth="6" markerHeight="4" refX="5" refY="2" orient="auto">
    <polygon points="0 0, 6 2, 0 4" fill="#c0392b" />
  </marker>
  <marker id="arrowhead-gray" markerWidth="5" markerHeight="3.5" refX="4" refY="1.75" orient="auto">
    <polygon points="0 0, 5 1.75, 0 3.5" fill="#888888" />
  </marker>
</defs>
<line x1="5" y1="30" x2="40" y2="30" stroke="#333333" stroke-width="0.7" stroke-linecap="round" />
<line x1="10" y1="30" x2="25" y2="30" stroke="#888888" stroke-width="0.5" marker-end="url(#arrowhead-gray)" />
<text x="8" y="24" font-family="Arial, Helvetica, sans-serif" font-size="7" fill="#888888" text-anchor="start" font-weight="normal" font-style="italic">source</text>
<rect x="40" y="22" width="30" height="40" rx="2" fill="#f0f0f0" stroke="#1a1a1a" stroke-width="0.5" />
<text x="55" y="45" font-family="Arial, Helvetica, sans-serif" font-size="6" fill="#1a1a1a" text-anchor="middle" font-weight="normal" font-style="normal">2×2</text>
<line x1="70" y1="30" x2="140" y2="30" stroke="#333333" stroke-width="0.7" stroke-linecap="round" />
<line x1="140" y1="20" x2="140" y2="40" stroke="#1a1a1a" stroke-width="1"/>
<line x1="140" y1="22" x2="144" y2="19" stroke="#888888" stroke-width="0.35"/>
<line x1="140" y1="26" x2="144" y2="23" stroke="#888888" stroke-width="0.35"/>
<line x1="140" y1="30" x2="144" y2="27" stroke="#888888" stroke-width="0.35"/>
<line x1="140" y1="34" x2="144" y2="31" stroke="#888888" stroke-width="0.35"/>
<line x1="140" y1="38" x2="144" y2="35" stroke="#888888" stroke-width="0.35"/>
<text x="105" y="24" font-family="Arial, Helvetica, sans-serif" font-size="6" fill="#888888" text-anchor="middle" font-weight="normal" font-style="normal">ref arm</text>
<line x1="70" y1="55" x2="140" y2="55" stroke="#333333" stroke-width="0.7" stroke-linecap="round" />
<line x1="140" y1="55" x2="165" y2="55" stroke="#c0392b" stroke-width="0.6" marker-end="url(#arrowhead)"/>
<text x="105" y="64" font-family="Arial, Helvetica, sans-serif" font-size="6" fill="#888888" text-anchor="middle" font-weight="normal" font-style="normal">sample arm</text>
<line x1="55" y1="62" x2="55" y2="80" stroke="#333333" stroke-width="0.7" stroke-linecap="round" />
<text x="65" y="78" font-family="Arial, Helvetica, sans-serif" font-size="6" fill="#888888" text-anchor="middle" font-weight="normal" font-style="normal">det</text>
<text x="100" y="88" font-family="Arial, Helvetica, sans-serif" font-size="8" fill="#1a1a1a" text-anchor="middle" font-weight="bold" font-style="normal">OCT interferometer</text>
</svg>
