<?xml version="1.0" encoding="UTF-8"?>
<svg xmlns="http://www.w3.org/2000/svg" viewBox="0 0 150 60" width="150" height="60">
<defs>
  <marker id="arrowhead" markerWidth="6" markerHeight="4" refX="5" refY="2" orient="auto">
    <polygon points="0 0, 6 2, 0 4" fill="#1a1a1a" />
  </marker>
  <marker id="arrowhead-beam" markerWidth="6" markerHeight="4" refX="5" refY="2" orient="auto">
    <polygon points="0 0, 6 2, 0 4" fill="#c0392b" />
  </marker>
  <marker id="arrowhead-gray" markerWidth="5" markerHeight="3.5" refX="4" refY="1.75" orient="auto">
    <polygon points="0 0, 5 1.75, 0 3.5" fill="#888888" />
  </marker>
</defs>
<rect x="15" y="8" width="95" height="42" rx="3" fill="#f0f0f0" stroke="#1a1a1a" stroke-width="0.5" />
<rect x="22" y="14" width="55" height="24" rx="2" fill="#101828" stroke="#1a1a1a" stroke-width="0.3"/>
<line x1="26" y1="31" x2="26" y2="34" stroke="#00CC66" stroke-width="2" opacity="0.7"/>
<line x1="31" y1="28" x2="31" y2="34" stroke="#00CC66" stroke-width="2" opacity="0.7"/>
<line x1="36" y1="24" x2="36" y2="34" stroke="#00CC66" stroke-width="2" opacity="0.7"/>
<line x1="41" y1="20" x2="41" y2="34" stroke="#00CC66" stroke-width="2" opacity="0.7"/>
<line x1="46" y1="22" x2="46" y2="34" stroke="#00CC66" stroke-width="2" opacity="0.7"/>
<line x1="51" y1="26" x2="51" y2="34" stroke="#00CC66" stroke-width="2" opacity="0.7"/>
<line x1="56" y1="29" x2="56" y2="34" stroke="#00CC66" stroke-width="2" opacity="0.7"/>
<line x1="61" y1="31" x2="61" y2="34" stroke="#00CC66" stroke-width="2" opacity="0.7"/>
<line x1="66" y1="32" x2="66" y2="34" stroke="#00CC66" stroke-width="2" opacity="0.7"/>
<line x1="71" y1="33" x2="71" y2="34" stroke="#00CC66" stroke-width="2" opacity="0.7"/>
<text x="90" y="30" font-family="Arial, Helvetica, sans-serif" font-size="6" fill="#888888" text-anchor="middle" font-weight="normal" font-style="normal">TCSPC</text>
<line x1="5" y1="22" x2="15" y2="22" stroke="#1a1a1a" stroke-width="0.35"/>
<line x1="5" y1="36" x2="15" y2="36" stroke="#1a1a1a" stroke-width="0.35"/>
<text x="8" y="16" font-family="Arial, Helvetica, sans-serif" font-size="7" fill="#888888" text-anchor="start" font-weight="normal" font-style="italic">start</text>
<text x="8" y="43" font-family="Arial, Helvetica, sans-serif" font-size="7" fill="#888888" text-anchor="start" font-weight="normal" font-style="italic">stop</text>
<line x1="110" y1="29" x2="145" y2="29" stroke="#1a1a1a" stroke-width="0.35"/>
<text x="143" y="23" font-family="Arial, Helvetica, sans-serif" font-size="7" fill="#888888" text-anchor="end" font-weight="normal" font-style="italic">USB</text>
<text x="62" y="58" font-family="Arial, Helvetica, sans-serif" font-size="8" fill="#1a1a1a" text-anchor="middle" font-weight="bold" font-style="normal">TCSPC</text>
</svg>
