<svg xmlns="http://www.w3.org/2000/svg" viewBox="0 0 110 65" width="110" height="65" font-family="Arial, Helvetica, sans-serif">
<defs>
<marker id="arrowhead" markerWidth="6" markerHeight="4" refX="5" refY="2" orient="auto"><polygon points="0,0 6,2 0,4" fill="#1a1a1a"/></marker>
<marker id="arrowhead-beam" markerWidth="6" markerHeight="4" refX="5" refY="2" orient="auto"><polygon points="0,0 6,2 0,4" fill="#c0392b"/></marker>
</defs>
<rect x="50" y="8" width="14" height="44" rx="1" fill="#e8e8ec" stroke="#1a1a1a" stroke-width="0.5"/>
<line x1="50" y1="11" x2="64" y2="11" stroke="#888888" stroke-width="0.4" opacity="0.3"/>
<line x1="50" y1="16" x2="64" y2="16" stroke="#888888" stroke-width="0.4" opacity="0.3"/>
<line x1="50" y1="21" x2="64" y2="21" stroke="#888888" stroke-width="0.4" opacity="0.3"/>
<line x1="50" y1="26" x2="64" y2="26" stroke="#888888" stroke-width="0.4" opacity="0.3"/>
<line x1="50" y1="31" x2="64" y2="31" stroke="#888888" stroke-width="0.4" opacity="0.3"/>
<line x1="50" y1="36" x2="64" y2="36" stroke="#888888" stroke-width="0.4" opacity="0.3"/>
<line x1="50" y1="41" x2="64" y2="41" stroke="#888888" stroke-width="0.4" opacity="0.3"/>
<line x1="50" y1="46" x2="64" y2="46" stroke="#888888" stroke-width="0.4" opacity="0.3"/>
<line x1="5" y1="30" x2="50" y2="30" stroke="#c0392b" stroke-width="0.6" opacity="0.5"/>
<line x1="10" y1="30" x2="30" y2="30" stroke="#c0392b" stroke-width="0.6" marker-end="url(#arrowhead-beam)"/>
<line x1="50" y1="32" x2="5" y2="38" stroke="#c0392b" stroke-width="0.4" opacity="0.3"/>
<text x="68" y="15" font-family="Arial, Helvetica, sans-serif" font-size="4.5" fill="#888888" text-anchor="middle" font-weight="normal">>99.999%</text>
<text x="68" y="25" font-family="Arial, Helvetica, sans-serif" font-size="4.5" fill="#888888" text-anchor="middle" font-weight="normal">IBS</text>
<text x="50" y="60" font-family="Arial, Helvetica, sans-serif" font-size="7" fill="#1a1a1a" text-anchor="middle" font-weight="bold">Supermirror</text>
</svg>
