<?xml version="1.0" encoding="UTF-8"?>
<svg xmlns="http://www.w3.org/2000/svg" viewBox="0 0 220 70" width="220" height="70">
<defs>
  <marker id="arrowhead" markerWidth="6" markerHeight="4" refX="5" refY="2" orient="auto">
    <polygon points="0 0, 6 2, 0 4" fill="#000000" />
  </marker>
  <linearGradient id="fiber-grad" x1="0" y1="0" x2="0" y2="1">
      <stop offset="0%" stop-color="#ADACC6"/>
      <stop offset="22%" stop-color="#1B1E89"/>
      <stop offset="100%" stop-color="#0D0F42"/>
    </linearGradient>
  <linearGradient id="comp-grad" x1="0" y1="0" x2="0" y2="1">
      <stop offset="0%" stop-color="#F0F0F8"/>
      <stop offset="50%" stop-color="#B0B0C8"/>
      <stop offset="100%" stop-color="#707088"/>
    </linearGradient>
</defs>
<rect x="30" y="10" width="130" height="45" rx="3" fill="url(#comp-grad)" stroke="#000000" stroke-width="0.75" />
<line x1="10" y1="32" x2="30" y2="32" stroke="#CC3300" stroke-width="0.6"/>
<text x="15" y="26" font-family="Helvetica, Arial, sans-serif" font-size="6" fill="#CC3300" text-anchor="middle" font-weight="normal" font-style="normal">pump</text>
<rect x="55" y="22" width="16" height="16" rx="1" fill="url(#comp-grad)" stroke="#000000" stroke-width="0.75" />
<text x="63" y="33" font-family="Helvetica, Arial, sans-serif" font-size="4" fill="#000000" text-anchor="middle" font-weight="normal" font-style="normal">PBS</text>
<path d="M71,26 C90,12 120,12 135,26" fill="none" stroke="#000000" stroke-width="0.4"/>
<path d="M71,34 C90,48 120,48 135,34" fill="none" stroke="#000000" stroke-width="0.4"/>
<rect x="92" y="16" width="16" height="8" rx="1" fill="GRADIENT" stroke="#000000" stroke-width="0.3"/>
<text x="100" y="22" font-family="Helvetica, Arial, sans-serif" font-size="4" fill="#000000" text-anchor="middle" font-weight="normal" font-style="normal">χ²</text>
<line x1="160" y1="25" x2="215" y2="25" stroke="url(#fiber-grad)" stroke-width="3.0" stroke-linecap="round" />
<line x1="160" y1="40" x2="215" y2="40" stroke="url(#fiber-grad)" stroke-width="3.0" stroke-linecap="round" />
<text x="213" y="19" font-family="Helvetica, Arial, sans-serif" font-size="7" fill="#444444" text-anchor="end" font-weight="normal" font-style="normal">H/V</text>
<text x="213" y="46" font-family="Helvetica, Arial, sans-serif" font-size="7" fill="#444444" text-anchor="end" font-weight="normal" font-style="normal">H/V</text>
<text x="110" y="66" font-family="Helvetica, Arial, sans-serif" font-size="8" fill="#000000" text-anchor="middle" font-weight="bold" font-style="normal">Pol. entanglement source</text>
</svg>
