<?xml version="1.0" encoding="UTF-8"?>
<svg xmlns="http://www.w3.org/2000/svg" viewBox="0 0 160 55" width="160" height="55">
<defs>
  <marker id="arrowhead" markerWidth="6" markerHeight="4" refX="5" refY="2" orient="auto">
    <polygon points="0 0, 6 2, 0 4" fill="#1a1a1a" />
  </marker>
  <marker id="arrowhead-beam" markerWidth="6" markerHeight="4" refX="5" refY="2" orient="auto">
    <polygon points="0 0, 6 2, 0 4" fill="#c0392b" />
  </marker>
  <marker id="arrowhead-gray" markerWidth="5" markerHeight="3.5" refX="4" refY="1.75" orient="auto">
    <polygon points="0 0, 5 1.75, 0 3.5" fill="#888888" />
  </marker>
</defs>
<rect x="15" y="10" width="80" height="35" rx="2" fill="#f0f0f0" stroke="#1a1a1a" stroke-width="0.5" />
<line x1="28" y1="18" x2="28" y2="38" stroke="#1a1a1a" stroke-width="0.75"/>
<line x1="82" y1="18" x2="82" y2="38" stroke="#1a1a1a" stroke-width="0.5"/>
<line x1="84" y1="18" x2="84" y2="38" stroke="#1a1a1a" stroke-width="0.5"/>
<path d="M32,28 C42,22 52,34 62,28 C72,22 78,32 82,28" fill="none" stroke="#c0392b" stroke-width="0.5"/>
<line x1="95" y1="28" x2="155" y2="28" stroke="#333333" stroke-width="0.7" stroke-linecap="round" />
<line x1="110" y1="28" x2="130" y2="28" stroke="#888888" stroke-width="0.5" marker-end="url(#arrowhead-gray)" />
<line x1="40" y1="10" x2="40" y2="4" stroke="#1a1a1a" stroke-width="0.75"/>
<line x1="60" y1="10" x2="60" y2="4" stroke="#1a1a1a" stroke-width="0.75"/>
<text x="55" y="52" font-family="Arial, Helvetica, sans-serif" font-size="8" fill="#1a1a1a" text-anchor="middle" font-weight="bold" font-style="normal">FP laser</text>
</svg>
