<?xml version="1.0" encoding="UTF-8"?>
<svg xmlns="http://www.w3.org/2000/svg" viewBox="0 0 180 60" width="180" height="60">
<defs>
  <marker id="arrowhead" markerWidth="6" markerHeight="4" refX="5" refY="2" orient="auto">
    <polygon points="0 0, 6 2, 0 4" fill="#1a1a1a" />
  </marker>
  <marker id="arrowhead-beam" markerWidth="6" markerHeight="4" refX="5" refY="2" orient="auto">
    <polygon points="0 0, 6 2, 0 4" fill="#c0392b" />
  </marker>
  <marker id="arrowhead-gray" markerWidth="5" markerHeight="3.5" refX="4" refY="1.75" orient="auto">
    <polygon points="0 0, 5 1.75, 0 3.5" fill="#888888" />
  </marker>
</defs>
<line x1="5" y1="30" x2="30" y2="30" stroke="#333333" stroke-width="0.7" stroke-linecap="round" />
<line x1="8" y1="30" x2="20" y2="30" stroke="#888888" stroke-width="0.5" marker-end="url(#arrowhead-gray)" />
<rect x="30" y="8" width="100" height="44" rx="3" fill="#f0f0f0" stroke="#1a1a1a" stroke-width="0.5" />
<path d="M55,14 C60,22 60,38 55,46" fill="none" stroke="#1a1a1a" stroke-width="0.5"/>
<line x1="62" y1="22" x2="90" y2="22" stroke="#c0392b" stroke-width="0.4" opacity="0.3"/>
<line x1="62" y1="30" x2="90" y2="30" stroke="#c0392b" stroke-width="0.4" opacity="0.3"/>
<line x1="62" y1="38" x2="90" y2="38" stroke="#c0392b" stroke-width="0.4" opacity="0.3"/>
<path d="M92,14 C98,22 98,38 92,46" fill="none" stroke="#1a1a1a" stroke-width="0.5"/>
<line x1="100" y1="22" x2="118" y2="30" stroke="#c0392b" stroke-width="0.4" opacity="0.4"/>
<line x1="100" y1="38" x2="118" y2="30" stroke="#c0392b" stroke-width="0.4" opacity="0.4"/>
<circle cx="118" cy="30" r="1.5" fill="#c0392b" opacity="0.5"/>
<line x1="118" y1="30" x2="175" y2="30" stroke="#c0392b" stroke-width="0.6" opacity="0.4"/>
<text x="80" y="56" font-family="Arial, Helvetica, sans-serif" font-size="8" fill="#1a1a1a" text-anchor="middle" font-weight="bold" font-style="normal">Processing head</text>
</svg>
