<?xml version="1.0" encoding="UTF-8"?>
<svg xmlns="http://www.w3.org/2000/svg" viewBox="0 0 200 70" width="200" height="70">
<defs>
  <marker id="arrowhead" markerWidth="6" markerHeight="4" refX="5" refY="2" orient="auto">
    <polygon points="0 0, 6 2, 0 4" fill="#1a1a1a" />
  </marker>
  <marker id="arrowhead-beam" markerWidth="6" markerHeight="4" refX="5" refY="2" orient="auto">
    <polygon points="0 0, 6 2, 0 4" fill="#c0392b" />
  </marker>
  <marker id="arrowhead-gray" markerWidth="5" markerHeight="3.5" refX="4" refY="1.75" orient="auto">
    <polygon points="0 0, 5 1.75, 0 3.5" fill="#888888" />
  </marker>
</defs>
<rect x="15" y="12" width="100" height="40" rx="3" fill="#f0f0f0" stroke="#1a1a1a" stroke-width="0.5" />
<line x1="30" y1="20" x2="30" y2="44" stroke="#1a1a1a" stroke-width="0.75"/>
<path d="M30,32 C40,25 55,39 65,32 C75,25 90,39 100,32" fill="none" stroke="#c0392b" stroke-width="0.6"/>
<line x1="100" y1="20" x2="100" y2="44" stroke="#1a1a1a" stroke-width="0.5"/>
<line x1="102" y1="20" x2="102" y2="44" stroke="#1a1a1a" stroke-width="0.5"/>
<line x1="115" y1="32" x2="195" y2="32" stroke="#333333" stroke-width="0.7" stroke-linecap="round" />
<polygon points="118,28 126,32 118,36" fill="#c0392b" opacity="0.5"/>
<line x1="155" y1="32" x2="175" y2="32" stroke="#888888" stroke-width="0.5" marker-end="url(#arrowhead-gray)" />
<text x="65" y="8" font-family="Arial, Helvetica, sans-serif" font-size="8" fill="#1a1a1a" text-anchor="middle" font-weight="bold" font-style="normal">LASER</text>
<text x="193" y="26" font-family="Arial, Helvetica, sans-serif" font-size="7" fill="#888888" text-anchor="end" font-weight="normal" font-style="italic">out</text>
<text x="100" y="65" font-family="Arial, Helvetica, sans-serif" font-size="8" fill="#1a1a1a" text-anchor="middle" font-weight="bold" font-style="normal">Fiber laser source</text>
</svg>
