<svg xmlns="http://www.w3.org/2000/svg" viewBox="0 0 130 70" width="130" height="70" font-family="Arial, Helvetica, sans-serif">
<defs>
<marker id="arrowhead" markerWidth="6" markerHeight="4" refX="5" refY="2" orient="auto"><polygon points="0,0 6,2 0,4" fill="#000000"/></marker>
<marker id="arrowhead-beam" markerWidth="6" markerHeight="4" refX="5" refY="2" orient="auto"><polygon points="0,0 6,2 0,4" fill="#CC0000"/></marker>
<linearGradient id="lens-grad" x1="0" y1="0" x2="1" y2="0"><stop offset="0%" stop-color="#D0E0F8"/><stop offset="50%" stop-color="#E8F0FF"/><stop offset="100%" stop-color="#B8C8E0"/></linearGradient>
</defs>
<path d="M50,8 C42,18 42,52 50,62 C68,52 68,18 50,8 Z" fill="url(#lens-grad)" stroke="#000000" stroke-width="0.75"/>
<line x1="5" y1="20" x2="42" y2="30" stroke="#CC0000" stroke-width="0.4" opacity="0.3"/>
<line x1="5" y1="35" x2="42" y2="35" stroke="#CC0000" stroke-width="0.4" opacity="0.3"/>
<line x1="5" y1="50" x2="42" y2="40" stroke="#CC0000" stroke-width="0.4" opacity="0.3"/>
<line x1="58" y1="30" x2="95" y2="35" stroke="#CC0000" stroke-width="0.4" opacity="0.3"/>
<line x1="58" y1="35" x2="95" y2="35" stroke="#CC0000" stroke-width="0.4" opacity="0.3"/>
<line x1="58" y1="40" x2="95" y2="35" stroke="#CC0000" stroke-width="0.4" opacity="0.3"/>
<circle cx="95" cy="35" r="2" fill="#CC0000" opacity="0.3"/>
<text x="5" y="15" font-family="Arial, Helvetica, sans-serif" font-size="4.5" fill="#666666" text-anchor="middle" font-weight="normal">source</text>
<text x="50" y="68" font-family="Arial, Helvetica, sans-serif" font-size="7" fill="#000000" text-anchor="middle" font-weight="bold">Condenser lens</text>
</svg>
