<svg xmlns="http://www.w3.org/2000/svg" viewBox="0 0 160 70" width="160" height="70" font-family="Arial, Helvetica, sans-serif">
<defs>
<marker id="arrowhead" markerWidth="6" markerHeight="4" refX="5" refY="2" orient="auto"><polygon points="0,0 6,2 0,4" fill="#000000"/></marker>
<marker id="arrowhead-beam" markerWidth="6" markerHeight="4" refX="5" refY="2" orient="auto"><polygon points="0,0 6,2 0,4" fill="#CC0000"/></marker>
</defs>
<rect x="40" y="12" width="60" height="38" rx="3" fill="#808088" stroke="#000000" stroke-width="0.75"/>
<rect x="50" y="8" width="30" height="4" rx="1" fill="#A8A8B0" stroke="#000000" stroke-width="0.4"/>
<line x1="55" y1="16" x2="55" y2="46" stroke="#666666" stroke-width="0.3" opacity="0.25"/>
<line x1="65" y1="16" x2="65" y2="46" stroke="#666666" stroke-width="0.3" opacity="0.25"/>
<line x1="75" y1="16" x2="75" y2="46" stroke="#666666" stroke-width="0.3" opacity="0.25"/>
<line x1="85" y1="16" x2="85" y2="46" stroke="#666666" stroke-width="0.3" opacity="0.25"/>
<line x1="65" y1="8" x2="65" y2="0" stroke="#000000" stroke-width="0.5"/>
<text x="72" y="5" font-family="Arial, Helvetica, sans-serif" font-size="5.5" fill="#000000" text-anchor="middle" font-weight="normal">RF</text>
<line x1="5" y1="30" x2="40" y2="30" stroke="#CC0000" stroke-width="0.8" opacity="0.5"/>
<line x1="10" y1="30" x2="28" y2="30" stroke="#CC0000" stroke-width="0.8" marker-end="url(#arrowhead-beam)"/>
<line x1="100" y1="30" x2="155" y2="30" stroke="#CC0000" stroke-width="0.8" opacity="0.3"/>
<line x1="100" y1="30" x2="155" y2="18" stroke="#CC0000" stroke-width="0.8" opacity="0.5"/>
<line x1="115" y1="26" x2="140" y2="20" stroke="#CC0000" stroke-width="0.8" marker-end="url(#arrowhead-beam)"/>
<text x="148" y="28" font-family="Arial, Helvetica, sans-serif" font-size="4.5" fill="#666666" text-anchor="middle" font-weight="normal">0th</text>
<text x="148" y="16" font-family="Arial, Helvetica, sans-serif" font-size="4.5" fill="#CC0000" text-anchor="middle" font-weight="normal">1st</text>
<text x="70" y="62" font-family="Arial, Helvetica, sans-serif" font-size="7" fill="#000000" text-anchor="middle" font-weight="bold">AOM (free-space)</text>
</svg>
