<?xml version="1.0" encoding="UTF-8"?>
<svg xmlns="http://www.w3.org/2000/svg" viewBox="0 0 140 55" width="140" height="55">
<defs>
  <marker id="arrowhead" markerWidth="6" markerHeight="4" refX="5" refY="2" orient="auto">
    <polygon points="0 0, 6 2, 0 4" fill="#1a1a1a" />
  </marker>
  <marker id="arrowhead-beam" markerWidth="6" markerHeight="4" refX="5" refY="2" orient="auto">
    <polygon points="0 0, 6 2, 0 4" fill="#c0392b" />
  </marker>
  <marker id="arrowhead-gray" markerWidth="5" markerHeight="3.5" refX="4" refY="1.75" orient="auto">
    <polygon points="0 0, 5 1.75, 0 3.5" fill="#888888" />
  </marker>
</defs>
<line x1="5" y1="27" x2="25" y2="27" stroke="#333333" stroke-width="0.7" stroke-linecap="round" />
<line x1="8" y1="27" x2="18" y2="27" stroke="#888888" stroke-width="0.5" marker-end="url(#arrowhead-gray)" />
<rect x="25" y="10" width="60" height="30" rx="2" fill="#f0f0f0" stroke="#1a1a1a" stroke-width="0.5"/>
<line x1="30" y1="10" x2="31.5" y2="12" stroke="#888888" stroke-width="0.3" opacity="0.4"/>
<line x1="33" y1="10" x2="34.5" y2="12" stroke="#888888" stroke-width="0.3" opacity="0.4"/>
<line x1="36" y1="10" x2="37.5" y2="12" stroke="#888888" stroke-width="0.3" opacity="0.4"/>
<line x1="39" y1="10" x2="40.5" y2="12" stroke="#888888" stroke-width="0.3" opacity="0.4"/>
<line x1="42" y1="10" x2="43.5" y2="12" stroke="#888888" stroke-width="0.3" opacity="0.4"/>
<line x1="45" y1="10" x2="46.5" y2="12" stroke="#888888" stroke-width="0.3" opacity="0.4"/>
<line x1="48" y1="10" x2="49.5" y2="12" stroke="#888888" stroke-width="0.3" opacity="0.4"/>
<line x1="51" y1="10" x2="52.5" y2="12" stroke="#888888" stroke-width="0.3" opacity="0.4"/>
<line x1="54" y1="10" x2="55.5" y2="12" stroke="#888888" stroke-width="0.3" opacity="0.4"/>
<line x1="57" y1="10" x2="58.5" y2="12" stroke="#888888" stroke-width="0.3" opacity="0.4"/>
<line x1="60" y1="10" x2="61.5" y2="12" stroke="#888888" stroke-width="0.3" opacity="0.4"/>
<line x1="63" y1="10" x2="64.5" y2="12" stroke="#888888" stroke-width="0.3" opacity="0.4"/>
<line x1="66" y1="10" x2="67.5" y2="12" stroke="#888888" stroke-width="0.3" opacity="0.4"/>
<line x1="69" y1="10" x2="70.5" y2="12" stroke="#888888" stroke-width="0.3" opacity="0.4"/>
<line x1="72" y1="10" x2="73.5" y2="12" stroke="#888888" stroke-width="0.3" opacity="0.4"/>
<line x1="75" y1="10" x2="76.5" y2="12" stroke="#888888" stroke-width="0.3" opacity="0.4"/>
<line x1="78" y1="10" x2="79.5" y2="12" stroke="#888888" stroke-width="0.3" opacity="0.4"/>
<line x1="81" y1="10" x2="82.5" y2="12" stroke="#888888" stroke-width="0.3" opacity="0.4"/>
<line x1="40" y1="40" x2="40" y2="50" stroke="#888888" stroke-width="1" stroke-linecap="round"/>
<line x1="55" y1="40" x2="55" y2="50" stroke="#888888" stroke-width="1" stroke-linecap="round"/>
<text x="42" y="52" font-family="Arial, Helvetica, sans-serif" font-size="7" fill="#888888" text-anchor="start" font-weight="normal" font-style="italic">H₂O</text>
<line x1="87" y1="14" x2="87" y2="36" stroke="#1a1a1a" stroke-width="0.75"/>
<line x1="89" y1="25" x2="135" y2="25" stroke="#c0392b" stroke-width="0.8" opacity="0.5"/>
<text x="65" y="6" font-family="Arial, Helvetica, sans-serif" font-size="8" fill="#1a1a1a" text-anchor="middle" font-weight="bold" font-style="normal">HP-SMA (cooled)</text>
</svg>
