<svg xmlns="http://www.w3.org/2000/svg" viewBox="0 0 160 60" width="160" height="60" font-family="Arial, Helvetica, sans-serif">
<defs>
<marker id="arrowhead" markerWidth="6" markerHeight="4" refX="5" refY="2" orient="auto"><polygon points="0,0 6,2 0,4" fill="#000000"/></marker>
<marker id="arrowhead-beam" markerWidth="6" markerHeight="4" refX="5" refY="2" orient="auto"><polygon points="0,0 6,2 0,4" fill="#CC0000"/></marker>
<linearGradient id="crystal-grad" x1="0" y1="0" x2="1" y2="1"><stop offset="0%" stop-color="#E8D8F0"/><stop offset="100%" stop-color="#C0A8D0"/></linearGradient>
</defs>
<line x1="5" y1="30" x2="45" y2="30" stroke="#CC0000" stroke-width="0.8" opacity="0.5"/>
<line x1="10" y1="30" x2="30" y2="30" stroke="#CC0000" stroke-width="0.8" marker-end="url(#arrowhead-beam)"/>
<text x="15" y="24" font-family="Arial, Helvetica, sans-serif" font-size="4.5" fill="#666666" text-anchor="middle" font-weight="normal">fs pulse</text>
<rect x="48" y="10" width="35" height="38" rx="2" fill="url(#crystal-grad)" stroke="#000000" stroke-width="0.75"/>
<text x="65" y="32" font-family="Arial, Helvetica, sans-serif" font-size="5.5" fill="#000000" text-anchor="middle" font-weight="normal">ZnTe</text>
<path d="M83,30 C93,24 98,36 108,30 C113,26 118,34 128,30 C133,28 138,32 148,30" fill="none" stroke="#CC0000" stroke-width="0.5" opacity="0.4"/>
<line x1="100" y1="30" x2="135" y2="30" stroke="#CC0000" stroke-width="0.8" marker-end="url(#arrowhead-beam)"/>
<text x="140" y="24" font-family="Arial, Helvetica, sans-serif" font-size="5.5" fill="#666666" text-anchor="middle" font-weight="normal">THz</text>
<text x="80" y="55" font-family="Arial, Helvetica, sans-serif" font-size="7" fill="#000000" text-anchor="middle" font-weight="bold">THz (opt. rect.)</text>
</svg>
