<?xml version="1.0" encoding="UTF-8"?>
<svg xmlns="http://www.w3.org/2000/svg" viewBox="0 0 160 50" width="160" height="50">
<defs>
  <marker id="arrowhead" markerWidth="6" markerHeight="4" refX="5" refY="2" orient="auto">
    <polygon points="0 0, 6 2, 0 4" fill="#000000" />
  </marker>
  <linearGradient id="fiber-grad" x1="0" y1="0" x2="0" y2="1">
      <stop offset="0%" stop-color="#ADACC6"/>
      <stop offset="22%" stop-color="#1B1E89"/>
      <stop offset="100%" stop-color="#0D0F42"/>
    </linearGradient>
  <linearGradient id="comp-grad" x1="0" y1="0" x2="0" y2="1">
      <stop offset="0%" stop-color="#F0F0F8"/>
      <stop offset="50%" stop-color="#B0B0C8"/>
      <stop offset="100%" stop-color="#707088"/>
    </linearGradient>
</defs>
<line x1="5" y1="25" x2="45" y2="25" stroke="url(#fiber-grad)" stroke-width="3.0" stroke-linecap="round" />
<rect x="45" y="10" width="60" height="30" rx="2" fill="url(#comp-grad)" stroke="#000000" stroke-width="0.75" />
<line x1="50" y1="10" x2="50" y2="5" stroke="#444444" stroke-width="0.5"/>
<line x1="58" y1="10" x2="58" y2="5" stroke="#444444" stroke-width="0.5"/>
<line x1="66" y1="10" x2="66" y2="5" stroke="#444444" stroke-width="0.5"/>
<line x1="74" y1="10" x2="74" y2="5" stroke="#444444" stroke-width="0.5"/>
<line x1="82" y1="10" x2="82" y2="5" stroke="#444444" stroke-width="0.5"/>
<line x1="90" y1="10" x2="90" y2="5" stroke="#444444" stroke-width="0.5"/>
<line x1="98" y1="10" x2="98" y2="5" stroke="#444444" stroke-width="0.5"/>
<path d="M55,35 C57,38 53,42 55,45" fill="none" stroke="#CC3300" stroke-width="0.5" opacity="0.5"/>
<path d="M70,35 C72,38 68,42 70,45" fill="none" stroke="#CC3300" stroke-width="0.5" opacity="0.5"/>
<path d="M85,35 C87,38 83,42 85,45" fill="none" stroke="#CC3300" stroke-width="0.5" opacity="0.5"/>
<line x1="105" y1="25" x2="155" y2="25" stroke="url(#fiber-grad)" stroke-width="3.0" stroke-linecap="round" />
<text x="75" y="48" font-family="Helvetica, Arial, sans-serif" font-size="8" fill="#000000" text-anchor="middle" font-weight="bold" font-style="normal">CLS</text>
</svg>
