<?xml version="1.0" encoding="UTF-8"?>
<svg xmlns="http://www.w3.org/2000/svg" viewBox="0 0 200 80" width="200" height="80">
<defs>
  <marker id="arrowhead" markerWidth="6" markerHeight="4" refX="5" refY="2" orient="auto">
    <polygon points="0 0, 6 2, 0 4" fill="#000000" />
  </marker>
  <linearGradient id="fiber-grad" x1="0" y1="0" x2="0" y2="1">
      <stop offset="0%" stop-color="#ADACC6"/>
      <stop offset="22%" stop-color="#1B1E89"/>
      <stop offset="100%" stop-color="#0D0F42"/>
    </linearGradient>
</defs>
<line x1="5" y1="20" x2="60" y2="20" stroke="url(#fiber-grad)" stroke-width="3.0" stroke-linecap="round" />
<line x1="5" y1="35" x2="60" y2="35" stroke="url(#fiber-grad)" stroke-width="3.0" stroke-linecap="round" />
<line x1="5" y1="50" x2="60" y2="50" stroke="url(#fiber-grad)" stroke-width="3.0" stroke-linecap="round" />
<line x1="5" y1="65" x2="60" y2="65" stroke="url(#fiber-grad)" stroke-width="3.0" stroke-linecap="round" />
<rect x="60" y="10" width="50" height="65" rx="3" fill="url(#comp-grad)" stroke="#000000" stroke-width="0.75" />
<line x1="65" y1="20" x2="105" y2="42" stroke="#000000" stroke-width="0.5" opacity="0.3"/>
<line x1="65" y1="35" x2="105" y2="42" stroke="#000000" stroke-width="0.5" opacity="0.3"/>
<line x1="65" y1="50" x2="105" y2="42" stroke="#000000" stroke-width="0.5" opacity="0.3"/>
<line x1="65" y1="65" x2="105" y2="42" stroke="#000000" stroke-width="0.5" opacity="0.3"/>
<line x1="110" y1="42" x2="195" y2="42" stroke="url(#fiber-grad)" stroke-width="5" stroke-linecap="round"/>
<text x="85" y="48" font-family="Helvetica, Arial, sans-serif" font-size="6" fill="#444444" text-anchor="middle" font-weight="normal" font-style="normal">taper</text>
<text x="8" y="14" font-family="Helvetica, Arial, sans-serif" font-size="7" fill="#444444" text-anchor="start" font-weight="normal" font-style="normal">SM₁</text>
<text x="193" y="36" font-family="Helvetica, Arial, sans-serif" font-size="7" fill="#444444" text-anchor="end" font-weight="normal" font-style="normal">MM</text>
<text x="100" y="78" font-family="Helvetica, Arial, sans-serif" font-size="8" fill="#000000" text-anchor="middle" font-weight="bold" font-style="normal">Photonic lantern</text>
</svg>
