<?xml version="1.0" encoding="UTF-8"?>
<svg xmlns="http://www.w3.org/2000/svg" viewBox="0 0 120 55" width="120" height="55">
<defs>
  <marker id="arrowhead" markerWidth="6" markerHeight="4" refX="5" refY="2" orient="auto">
    <polygon points="0 0, 6 2, 0 4" fill="#1a1a1a" />
  </marker>
  <marker id="arrowhead-beam" markerWidth="6" markerHeight="4" refX="5" refY="2" orient="auto">
    <polygon points="0 0, 6 2, 0 4" fill="#c0392b" />
  </marker>
  <marker id="arrowhead-gray" markerWidth="5" markerHeight="3.5" refX="4" refY="1.75" orient="auto">
    <polygon points="0 0, 5 1.75, 0 3.5" fill="#888888" />
  </marker>
</defs>
<rect x="15" y="30" width="80" height="8" fill="#f0f0f0" stroke="#1a1a1a" stroke-width="0.5"/>
<rect x="20" y="8" width="3" height="22" fill="#f0f0f0" stroke="#1a1a1a" stroke-width="0.3"/>
<rect x="28" y="8" width="3" height="22" fill="#f0f0f0" stroke="#1a1a1a" stroke-width="0.3"/>
<rect x="36" y="8" width="3" height="22" fill="#f0f0f0" stroke="#1a1a1a" stroke-width="0.3"/>
<rect x="44" y="8" width="3" height="22" fill="#f0f0f0" stroke="#1a1a1a" stroke-width="0.3"/>
<rect x="52" y="8" width="3" height="22" fill="#f0f0f0" stroke="#1a1a1a" stroke-width="0.3"/>
<rect x="60" y="8" width="3" height="22" fill="#f0f0f0" stroke="#1a1a1a" stroke-width="0.3"/>
<rect x="68" y="8" width="3" height="22" fill="#f0f0f0" stroke="#1a1a1a" stroke-width="0.3"/>
<rect x="76" y="8" width="3" height="22" fill="#f0f0f0" stroke="#1a1a1a" stroke-width="0.3"/>
<rect x="84" y="8" width="3" height="22" fill="#f0f0f0" stroke="#1a1a1a" stroke-width="0.3"/>
<path d="M35,6 C37,3 33,0 35,0" fill="none" stroke="#888888" stroke-width="0.35" opacity="0.5"/>
<path d="M55,6 C57,3 53,0 55,0" fill="none" stroke="#888888" stroke-width="0.35" opacity="0.5"/>
<path d="M75,6 C77,3 73,0 75,0" fill="none" stroke="#888888" stroke-width="0.35" opacity="0.5"/>
<text x="55" y="50" font-family="Arial, Helvetica, sans-serif" font-size="8" fill="#1a1a1a" text-anchor="middle" font-weight="bold" font-style="normal">Heat sink</text>
</svg>
