<?xml version="1.0" encoding="UTF-8"?>
<svg xmlns="http://www.w3.org/2000/svg" viewBox="0 0 120 55" width="120" height="55">
<defs>
  <marker id="arrowhead" markerWidth="6" markerHeight="4" refX="5" refY="2" orient="auto">
    <polygon points="0 0, 6 2, 0 4" fill="#1a1a1a" />
  </marker>
  <marker id="arrowhead-beam" markerWidth="6" markerHeight="4" refX="5" refY="2" orient="auto">
    <polygon points="0 0, 6 2, 0 4" fill="#c0392b" />
  </marker>
  <marker id="arrowhead-gray" markerWidth="5" markerHeight="3.5" refX="4" refY="1.75" orient="auto">
    <polygon points="0 0, 5 1.75, 0 3.5" fill="#888888" />
  </marker>
</defs>
<rect x="15" y="10" width="80" height="35" rx="2" fill="#f0f0f0" stroke="#1a1a1a" stroke-width="0.5" />
<rect x="25" y="15" width="6" height="12" fill="#1a1a1a" stroke="#1a1a1a" stroke-width="0.3" opacity="0.4"/>
<rect x="25" y="30" width="6" height="10" fill="#888888" stroke="#1a1a1a" stroke-width="0.3" opacity="0.4"/>
<rect x="35" y="15" width="6" height="12" fill="#1a1a1a" stroke="#1a1a1a" stroke-width="0.3" opacity="0.4"/>
<rect x="35" y="30" width="6" height="10" fill="#888888" stroke="#1a1a1a" stroke-width="0.3" opacity="0.4"/>
<rect x="45" y="15" width="6" height="12" fill="#1a1a1a" stroke="#1a1a1a" stroke-width="0.3" opacity="0.4"/>
<rect x="45" y="30" width="6" height="10" fill="#888888" stroke="#1a1a1a" stroke-width="0.3" opacity="0.4"/>
<rect x="55" y="15" width="6" height="12" fill="#1a1a1a" stroke="#1a1a1a" stroke-width="0.3" opacity="0.4"/>
<rect x="55" y="30" width="6" height="10" fill="#888888" stroke="#1a1a1a" stroke-width="0.3" opacity="0.4"/>
<rect x="65" y="15" width="6" height="12" fill="#1a1a1a" stroke="#1a1a1a" stroke-width="0.3" opacity="0.4"/>
<rect x="65" y="30" width="6" height="10" fill="#888888" stroke="#1a1a1a" stroke-width="0.3" opacity="0.4"/>
<rect x="75" y="15" width="6" height="12" fill="#1a1a1a" stroke="#1a1a1a" stroke-width="0.3" opacity="0.4"/>
<rect x="75" y="30" width="6" height="10" fill="#888888" stroke="#1a1a1a" stroke-width="0.3" opacity="0.4"/>
<text x="100" y="18" font-family="Arial, Helvetica, sans-serif" font-size="6" fill="#888888" text-anchor="middle" font-weight="normal" font-style="normal">hot</text>
<text x="100" y="40" font-family="Arial, Helvetica, sans-serif" font-size="6" fill="#888888" text-anchor="middle" font-weight="normal" font-style="normal">cold</text>
<line x1="30" y1="10" x2="30" y2="4" stroke="#1a1a1a" stroke-width="0.75"/>
<line x1="80" y1="10" x2="80" y2="4" stroke="#1a1a1a" stroke-width="0.75"/>
<text x="55" y="52" font-family="Arial, Helvetica, sans-serif" font-size="8" fill="#1a1a1a" text-anchor="middle" font-weight="bold" font-style="normal">TEC module</text>
</svg>
