<?xml version="1.0" encoding="UTF-8"?>
<svg xmlns="http://www.w3.org/2000/svg" viewBox="0 0 160 55" width="160" height="55">
<defs>
  <marker id="arrowhead" markerWidth="6" markerHeight="4" refX="5" refY="2" orient="auto">
    <polygon points="0 0, 6 2, 0 4" fill="#1a1a1a" />
  </marker>
  <marker id="arrowhead-beam" markerWidth="6" markerHeight="4" refX="5" refY="2" orient="auto">
    <polygon points="0 0, 6 2, 0 4" fill="#c0392b" />
  </marker>
  <marker id="arrowhead-gray" markerWidth="5" markerHeight="3.5" refX="4" refY="1.75" orient="auto">
    <polygon points="0 0, 5 1.75, 0 3.5" fill="#888888" />
  </marker>
</defs>
<line x1="5" y1="27" x2="45" y2="27" stroke="#333333" stroke-width="0.7" stroke-linecap="round" />
<line x1="10" y1="27" x2="30" y2="27" stroke="#888888" stroke-width="0.5" marker-end="url(#arrowhead-gray)" />
<rect x="45" y="8" width="60" height="38" rx="2" fill="#f0f0f0" stroke="#1a1a1a" stroke-width="0.5" />
<path d="M55,36 L62,35 L68,32 L72,18 L76,32 L82,35 L90,36" fill="none" stroke="#c0392b" stroke-width="0.5"/>
<line x1="72" y1="8" x2="72" y2="2" stroke="#1a1a1a" stroke-width="0.5"/>
<path d="M68,4 L76,4" fill="none" stroke="#1a1a1a" stroke-width="0.4" marker-end="url(#arrowhead)"/>
<text x="80" y="5" font-family="Arial, Helvetica, sans-serif" font-size="6" fill="#888888" text-anchor="middle" font-weight="normal" font-style="normal">tune</text>
<line x1="105" y1="27" x2="155" y2="27" stroke="#333333" stroke-width="0.7" stroke-linecap="round" />
<text x="75" y="52" font-family="Arial, Helvetica, sans-serif" font-size="8" fill="#1a1a1a" text-anchor="middle" font-weight="bold" font-style="normal">Tunable filter</text>
</svg>
