<svg xmlns="http://www.w3.org/2000/svg" viewBox="0 0 160 80" width="160" height="80" font-family="Arial, Helvetica, sans-serif">
<defs>
<marker id="arrowhead" markerWidth="6" markerHeight="4" refX="5" refY="2" orient="auto"><polygon points="0,0 6,2 0,4" fill="#1a1a1a"/></marker>
<marker id="arrowhead-beam" markerWidth="6" markerHeight="4" refX="5" refY="2" orient="auto"><polygon points="0,0 6,2 0,4" fill="#c0392b"/></marker>
</defs>
<rect x="10" y="10" width="140" height="55" rx="2" fill="#e8e8e8" stroke="#1a1a1a" stroke-width="0.5"/>
<circle cx="25" cy="20" r="1.5" fill="none" stroke="#888888" stroke-width="0.3"/>
<circle cx="25" cy="32" r="1.5" fill="none" stroke="#888888" stroke-width="0.3"/>
<circle cx="25" cy="44" r="1.5" fill="none" stroke="#888888" stroke-width="0.3"/>
<circle cx="25" cy="56" r="1.5" fill="none" stroke="#888888" stroke-width="0.3"/>
<circle cx="40" cy="20" r="1.5" fill="none" stroke="#888888" stroke-width="0.3"/>
<circle cx="40" cy="32" r="1.5" fill="none" stroke="#888888" stroke-width="0.3"/>
<circle cx="40" cy="44" r="1.5" fill="none" stroke="#888888" stroke-width="0.3"/>
<circle cx="40" cy="56" r="1.5" fill="none" stroke="#888888" stroke-width="0.3"/>
<circle cx="55" cy="20" r="1.5" fill="none" stroke="#888888" stroke-width="0.3"/>
<circle cx="55" cy="32" r="1.5" fill="none" stroke="#888888" stroke-width="0.3"/>
<circle cx="55" cy="44" r="1.5" fill="none" stroke="#888888" stroke-width="0.3"/>
<circle cx="55" cy="56" r="1.5" fill="none" stroke="#888888" stroke-width="0.3"/>
<circle cx="70" cy="20" r="1.5" fill="none" stroke="#888888" stroke-width="0.3"/>
<circle cx="70" cy="32" r="1.5" fill="none" stroke="#888888" stroke-width="0.3"/>
<circle cx="70" cy="44" r="1.5" fill="none" stroke="#888888" stroke-width="0.3"/>
<circle cx="70" cy="56" r="1.5" fill="none" stroke="#888888" stroke-width="0.3"/>
<circle cx="85" cy="20" r="1.5" fill="none" stroke="#888888" stroke-width="0.3"/>
<circle cx="85" cy="32" r="1.5" fill="none" stroke="#888888" stroke-width="0.3"/>
<circle cx="85" cy="44" r="1.5" fill="none" stroke="#888888" stroke-width="0.3"/>
<circle cx="85" cy="56" r="1.5" fill="none" stroke="#888888" stroke-width="0.3"/>
<circle cx="100" cy="20" r="1.5" fill="none" stroke="#888888" stroke-width="0.3"/>
<circle cx="100" cy="32" r="1.5" fill="none" stroke="#888888" stroke-width="0.3"/>
<circle cx="100" cy="44" r="1.5" fill="none" stroke="#888888" stroke-width="0.3"/>
<circle cx="100" cy="56" r="1.5" fill="none" stroke="#888888" stroke-width="0.3"/>
<circle cx="115" cy="20" r="1.5" fill="none" stroke="#888888" stroke-width="0.3"/>
<circle cx="115" cy="32" r="1.5" fill="none" stroke="#888888" stroke-width="0.3"/>
<circle cx="115" cy="44" r="1.5" fill="none" stroke="#888888" stroke-width="0.3"/>
<circle cx="115" cy="56" r="1.5" fill="none" stroke="#888888" stroke-width="0.3"/>
<circle cx="130" cy="20" r="1.5" fill="none" stroke="#888888" stroke-width="0.3"/>
<circle cx="130" cy="32" r="1.5" fill="none" stroke="#888888" stroke-width="0.3"/>
<circle cx="130" cy="44" r="1.5" fill="none" stroke="#888888" stroke-width="0.3"/>
<circle cx="130" cy="56" r="1.5" fill="none" stroke="#888888" stroke-width="0.3"/>
<text x="80" y="75" font-family="Arial, Helvetica, sans-serif" font-size="7" fill="#1a1a1a" text-anchor="middle" font-weight="bold">Optical table</text>
</svg>
