<svg xmlns="http://www.w3.org/2000/svg" viewBox="0 0 180 55" width="180" height="55" font-family="Arial, Helvetica, sans-serif">
<defs>
<marker id="arrowhead" markerWidth="6" markerHeight="4" refX="5" refY="2" orient="auto"><polygon points="0,0 6,2 0,4" fill="#1a1a1a"/></marker>
<marker id="arrowhead-beam" markerWidth="6" markerHeight="4" refX="5" refY="2" orient="auto"><polygon points="0,0 6,2 0,4" fill="#c0392b"/></marker>
</defs>
<rect x="5" y="30" width="170" height="8" rx="1" fill="#f0f0f0" stroke="#1a1a1a" stroke-width="0.5"/>
<path d="M5,30 L8,38 L172,38 L175,30" fill="none" stroke="#1a1a1a" stroke-width="0.3"/>
<rect x="35" y="22" width="15" height="8" rx="1" fill="#f0f0f0" stroke="#1a1a1a" stroke-width="0.4"/>
<line x1="42" y1="22" x2="42" y2="12" stroke="#1a1a1a" stroke-width="0.5"/>
<circle cx="42" cy="10" r="4" fill="#f4f6fa" stroke="#1a1a1a" stroke-width="0.3"/>
<rect x="85" y="22" width="15" height="8" rx="1" fill="#f0f0f0" stroke="#1a1a1a" stroke-width="0.4"/>
<line x1="92" y1="22" x2="92" y2="12" stroke="#1a1a1a" stroke-width="0.5"/>
<circle cx="92" cy="10" r="4" fill="#f4f6fa" stroke="#1a1a1a" stroke-width="0.3"/>
<rect x="135" y="22" width="15" height="8" rx="1" fill="#f0f0f0" stroke="#1a1a1a" stroke-width="0.4"/>
<line x1="142" y1="22" x2="142" y2="12" stroke="#1a1a1a" stroke-width="0.5"/>
<circle cx="142" cy="10" r="4" fill="#f4f6fa" stroke="#1a1a1a" stroke-width="0.3"/>
<line x1="5" y1="10" x2="175" y2="10" stroke="#c0392b" stroke-width="0.6" opacity="0.2"/>
<text x="90" y="50" font-family="Arial, Helvetica, sans-serif" font-size="7" fill="#1a1a1a" text-anchor="middle" font-weight="bold">Optical rail</text>
</svg>
