<?xml version="1.0" encoding="UTF-8"?>
<svg xmlns="http://www.w3.org/2000/svg" viewBox="0 0 220 90" width="220" height="90">
<defs>
  <marker id="arrowhead" markerWidth="6" markerHeight="4" refX="5" refY="2" orient="auto">
    <polygon points="0 0, 6 2, 0 4" fill="#000000" />
  </marker>
  <linearGradient id="fiber-grad" x1="0" y1="0" x2="0" y2="1">
      <stop offset="0%" stop-color="#ADACC6"/>
      <stop offset="22%" stop-color="#1B1E89"/>
      <stop offset="100%" stop-color="#0D0F42"/>
    </linearGradient>
  <linearGradient id="comp-grad" x1="0" y1="0" x2="0" y2="1">
      <stop offset="0%" stop-color="#F0F0F8"/>
      <stop offset="50%" stop-color="#B0B0C8"/>
      <stop offset="100%" stop-color="#707088"/>
    </linearGradient>
</defs>
<line x1="5" y1="30" x2="40" y2="30" stroke="url(#fiber-grad)" stroke-width="3.0" stroke-linecap="round" />
<text x="8" y="24" font-family="Helvetica, Arial, sans-serif" font-size="7" fill="#444444" text-anchor="start" font-weight="normal" font-style="normal">source</text>
<rect x="40" y="22" width="30" height="40" rx="2" fill="url(#comp-grad)" stroke="#000000" stroke-width="0.75" />
<text x="55" y="45" font-family="Helvetica, Arial, sans-serif" font-size="6" fill="#000000" text-anchor="middle" font-weight="normal" font-style="normal">2×2</text>
<line x1="70" y1="30" x2="140" y2="30" stroke="url(#fiber-grad)" stroke-width="3.0" stroke-linecap="round" />
<line x1="140" y1="20" x2="140" y2="40" stroke="#000000" stroke-width="1"/>
<line x1="140" y1="22" x2="144" y2="19" stroke="#444444" stroke-width="0.5"/>
<line x1="140" y1="26" x2="144" y2="23" stroke="#444444" stroke-width="0.5"/>
<line x1="140" y1="30" x2="144" y2="27" stroke="#444444" stroke-width="0.5"/>
<line x1="140" y1="34" x2="144" y2="31" stroke="#444444" stroke-width="0.5"/>
<line x1="140" y1="38" x2="144" y2="35" stroke="#444444" stroke-width="0.5"/>
<text x="105" y="24" font-family="Helvetica, Arial, sans-serif" font-size="6" fill="#444444" text-anchor="middle" font-weight="normal" font-style="normal">ref arm</text>
<line x1="70" y1="55" x2="140" y2="55" stroke="url(#fiber-grad)" stroke-width="3.0" stroke-linecap="round" />
<line x1="140" y1="55" x2="165" y2="55" stroke="#CC0000" stroke-width="0.6" marker-end="url(#arrowhead)"/>
<text x="105" y="64" font-family="Helvetica, Arial, sans-serif" font-size="6" fill="#444444" text-anchor="middle" font-weight="normal" font-style="normal">sample arm</text>
<line x1="55" y1="62" x2="55" y2="80" stroke="url(#fiber-grad)" stroke-width="3.0" stroke-linecap="round" />
<text x="65" y="78" font-family="Helvetica, Arial, sans-serif" font-size="6" fill="#444444" text-anchor="middle" font-weight="normal" font-style="normal">det</text>
<text x="100" y="88" font-family="Helvetica, Arial, sans-serif" font-size="8" fill="#000000" text-anchor="middle" font-weight="bold" font-style="normal">OCT interferometer</text>
</svg>
