<?xml version="1.0" encoding="UTF-8"?>
<svg xmlns="http://www.w3.org/2000/svg" viewBox="0 0 140 50" width="140" height="50">
<defs>
  <marker id="arrowhead" markerWidth="6" markerHeight="4" refX="5" refY="2" orient="auto">
    <polygon points="0 0, 6 2, 0 4" fill="#000000" />
  </marker>
  <linearGradient id="fiber-grad" x1="0" y1="0" x2="0" y2="1">
      <stop offset="0%" stop-color="#ADACC6"/>
      <stop offset="22%" stop-color="#1B1E89"/>
      <stop offset="100%" stop-color="#0D0F42"/>
    </linearGradient>
  <linearGradient id="comp-grad" x1="0" y1="0" x2="0" y2="1">
      <stop offset="0%" stop-color="#F0F0F8"/>
      <stop offset="50%" stop-color="#B0B0C8"/>
      <stop offset="100%" stop-color="#707088"/>
    </linearGradient>
</defs>
<rect x="15" y="8" width="80" height="30" rx="2" fill="url(#comp-grad)" stroke="#000000" stroke-width="0.75"/>
<rect x="95" y="14" width="8" height="8" rx="1" fill="#000000" opacity="0.3"/>
<rect x="95" y="26" width="8" height="8" rx="1" fill="#000000" opacity="0.3"/>
<line x1="103" y1="18" x2="135" y2="18" stroke="url(#fiber-grad)" stroke-width="3.0" stroke-linecap="round" />
<line x1="103" y1="30" x2="135" y2="30" stroke="url(#fiber-grad)" stroke-width="3.0" stroke-linecap="round" />
<rect x="5" y="15" width="10" height="16" fill="#000000" opacity="0.2"/>
<line x1="5" y1="17" x2="12" y2="17" stroke="#000000" stroke-width="0.3" opacity="0.4"/>
<line x1="5" y1="20" x2="12" y2="20" stroke="#000000" stroke-width="0.3" opacity="0.4"/>
<line x1="5" y1="23" x2="12" y2="23" stroke="#000000" stroke-width="0.3" opacity="0.4"/>
<line x1="5" y1="26" x2="12" y2="26" stroke="#000000" stroke-width="0.3" opacity="0.4"/>
<line x1="5" y1="29" x2="12" y2="29" stroke="#000000" stroke-width="0.3" opacity="0.4"/>
<text x="55" y="27" font-family="Helvetica, Arial, sans-serif" font-size="6" fill="#000000" text-anchor="middle" font-weight="normal" font-style="normal">SFP</text>
<text x="133" y="12" font-family="Helvetica, Arial, sans-serif" font-size="7" fill="#444444" text-anchor="end" font-weight="normal" font-style="normal">Tx</text>
<text x="133" y="37" font-family="Helvetica, Arial, sans-serif" font-size="7" fill="#444444" text-anchor="end" font-weight="normal" font-style="normal">Rx</text>
<text x="60" y="46" font-family="Helvetica, Arial, sans-serif" font-size="8" fill="#000000" text-anchor="middle" font-weight="bold" font-style="normal">SFP transceiver</text>
</svg>
