<?xml version="1.0" encoding="UTF-8"?>
<svg xmlns="http://www.w3.org/2000/svg" viewBox="0 0 200 80" width="200" height="80">
<defs>
  <marker id="arrowhead" markerWidth="6" markerHeight="4" refX="5" refY="2" orient="auto">
    <polygon points="0 0, 6 2, 0 4" fill="#000000" />
  </marker>
</defs>
<rect x="30" y="10" width="120" height="55" rx="3" fill="#D4D8E8" stroke="#000000" stroke-width="0.75" />
<circle cx="55" cy="37" r="8" fill="none" stroke="#000000" stroke-width="0.3"/>
<path d="M55,33 A3,3 0 1,1 57,38" fill="none" stroke="#CC0000" stroke-width="0.3"/>
<circle cx="80" cy="37" r="8" fill="none" stroke="#000000" stroke-width="0.3"/>
<path d="M80,33 A3,3 0 1,1 82,38" fill="none" stroke="#CC0000" stroke-width="0.3"/>
<circle cx="105" cy="37" r="8" fill="none" stroke="#000000" stroke-width="0.3"/>
<path d="M105,33 A3,3 0 1,1 107,38" fill="none" stroke="#CC0000" stroke-width="0.3"/>
<circle cx="130" cy="37" r="8" fill="none" stroke="#000000" stroke-width="0.3"/>
<path d="M130,33 A3,3 0 1,1 132,38" fill="none" stroke="#CC0000" stroke-width="0.3"/>
<line x1="5" y1="20" x2="30" y2="20" stroke="#1B1E89" stroke-width="2.5" stroke-linecap="round" />
<line x1="150" y1="20" x2="195" y2="20" stroke="#1B1E89" stroke-width="2.5" stroke-linecap="round" />
<line x1="5" y1="32" x2="30" y2="32" stroke="#1B1E89" stroke-width="2.5" stroke-linecap="round" />
<line x1="150" y1="32" x2="195" y2="32" stroke="#1B1E89" stroke-width="2.5" stroke-linecap="round" />
<line x1="5" y1="44" x2="30" y2="44" stroke="#1B1E89" stroke-width="2.5" stroke-linecap="round" />
<line x1="150" y1="44" x2="195" y2="44" stroke="#1B1E89" stroke-width="2.5" stroke-linecap="round" />
<line x1="5" y1="56" x2="30" y2="56" stroke="#1B1E89" stroke-width="2.5" stroke-linecap="round" />
<line x1="150" y1="56" x2="195" y2="56" stroke="#1B1E89" stroke-width="2.5" stroke-linecap="round" />
<text x="90" y="74" font-family="Helvetica, Arial, sans-serif" font-size="8" fill="#000000" text-anchor="middle" font-weight="bold" font-style="normal">Circulator array</text>
</svg>
