<svg xmlns="http://www.w3.org/2000/svg" viewBox="0 0 140 65" width="140" height="65" font-family="Arial, Helvetica, sans-serif">
<defs>
<marker id="arrowhead" markerWidth="6" markerHeight="4" refX="5" refY="2" orient="auto"><polygon points="0,0 6,2 0,4" fill="#000000"/></marker>
<marker id="arrowhead-beam" markerWidth="6" markerHeight="4" refX="5" refY="2" orient="auto"><polygon points="0,0 6,2 0,4" fill="#CC0000"/></marker>
<linearGradient id="housing-grad" x1="0" y1="0" x2="0" y2="1"><stop offset="0%" stop-color="#B0B0B8"/><stop offset="100%" stop-color="#707078"/></linearGradient>
</defs>
<line x1="5" y1="32" x2="30" y2="32" stroke="#CC0000" stroke-width="0.8" opacity="0.5"/>
<line x1="8" y1="32" x2="20" y2="32" stroke="#CC0000" stroke-width="0.8" marker-end="url(#arrowhead-beam)"/>
<rect x="33" y="8" width="65" height="48" rx="3" fill="url(#housing-grad)" stroke="#000000" stroke-width="0.75"/>
<rect x="36" y="18" width="14" height="18" rx="1" fill="#101828" stroke="#000000" stroke-width="0.3"/>
<rect x="38" y="20" width="2" height="2" fill="#333366" opacity="0.3"/>
<rect x="38" y="23" width="2" height="2" fill="#333366" opacity="0.3"/>
<rect x="38" y="26" width="2" height="2" fill="#333366" opacity="0.3"/>
<rect x="38" y="29" width="2" height="2" fill="#333366" opacity="0.3"/>
<rect x="38" y="32" width="2" height="2" fill="#333366" opacity="0.3"/>
<rect x="41" y="20" width="2" height="2" fill="#333366" opacity="0.3"/>
<rect x="41" y="23" width="2" height="2" fill="#333366" opacity="0.3"/>
<rect x="41" y="26" width="2" height="2" fill="#333366" opacity="0.3"/>
<rect x="41" y="29" width="2" height="2" fill="#333366" opacity="0.3"/>
<rect x="41" y="32" width="2" height="2" fill="#333366" opacity="0.3"/>
<rect x="44" y="20" width="2" height="2" fill="#333366" opacity="0.3"/>
<rect x="44" y="23" width="2" height="2" fill="#333366" opacity="0.3"/>
<rect x="44" y="26" width="2" height="2" fill="#333366" opacity="0.3"/>
<rect x="44" y="29" width="2" height="2" fill="#333366" opacity="0.3"/>
<rect x="44" y="32" width="2" height="2" fill="#333366" opacity="0.3"/>
<rect x="47" y="20" width="2" height="2" fill="#333366" opacity="0.3"/>
<rect x="47" y="23" width="2" height="2" fill="#333366" opacity="0.3"/>
<rect x="47" y="26" width="2" height="2" fill="#333366" opacity="0.3"/>
<rect x="47" y="29" width="2" height="2" fill="#333366" opacity="0.3"/>
<rect x="47" y="32" width="2" height="2" fill="#333366" opacity="0.3"/>
<line x1="55" y1="8" x2="55" y2="3" stroke="#666666" stroke-width="0.35"/>
<line x1="60" y1="8" x2="60" y2="3" stroke="#666666" stroke-width="0.35"/>
<line x1="65" y1="8" x2="65" y2="3" stroke="#666666" stroke-width="0.35"/>
<line x1="70" y1="8" x2="70" y2="3" stroke="#666666" stroke-width="0.35"/>
<line x1="75" y1="8" x2="75" y2="3" stroke="#666666" stroke-width="0.35"/>
<line x1="80" y1="8" x2="80" y2="3" stroke="#666666" stroke-width="0.35"/>
<line x1="85" y1="8" x2="85" y2="3" stroke="#666666" stroke-width="0.35"/>
<line x1="90" y1="8" x2="90" y2="3" stroke="#666666" stroke-width="0.35"/>
<rect x="98" y="24" width="14" height="10" rx="1" fill="none" stroke="#000000" stroke-width="0.4"/>
<line x1="112" y1="29" x2="135" y2="29" stroke="#000000" stroke-width="0.5"/>
<text x="65" y="62" font-family="Arial, Helvetica, sans-serif" font-size="7" fill="#000000" text-anchor="middle" font-weight="bold">CCD/CMOS camera</text>
</svg>
