<svg xmlns="http://www.w3.org/2000/svg" viewBox="0 0 150 65" width="150" height="65" font-family="Arial, Helvetica, sans-serif">
<defs>
<marker id="arrowhead" markerWidth="6" markerHeight="4" refX="5" refY="2" orient="auto"><polygon points="0,0 6,2 0,4" fill="#000000"/></marker>
<marker id="arrowhead-beam" markerWidth="6" markerHeight="4" refX="5" refY="2" orient="auto"><polygon points="0,0 6,2 0,4" fill="#CC0000"/></marker>
<linearGradient id="housing-grad" x1="0" y1="0" x2="0" y2="1"><stop offset="0%" stop-color="#B0B0B8"/><stop offset="100%" stop-color="#707078"/></linearGradient>
</defs>
<line x1="5" y1="32" x2="30" y2="32" stroke="#CC0000" stroke-width="0.8" opacity="0.5"/>
<line x1="8" y1="32" x2="20" y2="32" stroke="#CC0000" stroke-width="0.8" marker-end="url(#arrowhead-beam)"/>
<rect x="33" y="8" width="70" height="48" rx="3" fill="url(#housing-grad)" stroke="#000000" stroke-width="0.75"/>
<rect x="36" y="16" width="18" height="18" rx="1" fill="#101828" stroke="#000000" stroke-width="0.3"/>
<rect x="38" y="18" width="2" height="2" fill="#333366" opacity="0.3"/>
<rect x="38" y="21" width="2" height="2" fill="#333366" opacity="0.3"/>
<rect x="38" y="24" width="2" height="2" fill="#333366" opacity="0.3"/>
<rect x="38" y="27" width="2" height="2" fill="#333366" opacity="0.3"/>
<rect x="38" y="30" width="2" height="2" fill="#333366" opacity="0.3"/>
<rect x="41" y="18" width="2" height="2" fill="#333366" opacity="0.3"/>
<rect x="41" y="21" width="2" height="2" fill="#333366" opacity="0.3"/>
<rect x="41" y="24" width="2" height="2" fill="#333366" opacity="0.3"/>
<rect x="41" y="27" width="2" height="2" fill="#333366" opacity="0.3"/>
<rect x="41" y="30" width="2" height="2" fill="#333366" opacity="0.3"/>
<rect x="44" y="18" width="2" height="2" fill="#333366" opacity="0.3"/>
<rect x="44" y="21" width="2" height="2" fill="#333366" opacity="0.3"/>
<rect x="44" y="24" width="2" height="2" fill="#333366" opacity="0.3"/>
<rect x="44" y="27" width="2" height="2" fill="#333366" opacity="0.3"/>
<rect x="44" y="30" width="2" height="2" fill="#333366" opacity="0.3"/>
<rect x="47" y="18" width="2" height="2" fill="#333366" opacity="0.3"/>
<rect x="47" y="21" width="2" height="2" fill="#333366" opacity="0.3"/>
<rect x="47" y="24" width="2" height="2" fill="#333366" opacity="0.3"/>
<rect x="47" y="27" width="2" height="2" fill="#333366" opacity="0.3"/>
<rect x="47" y="30" width="2" height="2" fill="#333366" opacity="0.3"/>
<rect x="50" y="18" width="2" height="2" fill="#333366" opacity="0.3"/>
<rect x="50" y="21" width="2" height="2" fill="#333366" opacity="0.3"/>
<rect x="50" y="24" width="2" height="2" fill="#333366" opacity="0.3"/>
<rect x="50" y="27" width="2" height="2" fill="#333366" opacity="0.3"/>
<rect x="50" y="30" width="2" height="2" fill="#333366" opacity="0.3"/>
<text x="76" y="35" font-family="Arial, Helvetica, sans-serif" font-size="5.5" fill="#000000" text-anchor="middle" font-weight="normal">sCMOS</text>
<line x1="103" y1="32" x2="145" y2="32" stroke="#000000" stroke-width="0.4"/>
<text x="75" y="60" font-family="Arial, Helvetica, sans-serif" font-size="7" fill="#000000" text-anchor="middle" font-weight="bold">sCMOS camera</text>
</svg>
