<svg xmlns="http://www.w3.org/2000/svg" viewBox="0 0 180 65" width="180" height="65" font-family="Arial, Helvetica, sans-serif">
<defs>
<marker id="arrowhead" markerWidth="6" markerHeight="4" refX="5" refY="2" orient="auto"><polygon points="0,0 6,2 0,4" fill="#000000"/></marker>
<marker id="arrowhead-beam" markerWidth="6" markerHeight="4" refX="5" refY="2" orient="auto"><polygon points="0,0 6,2 0,4" fill="#CC0000"/></marker>
<linearGradient id="wp-grad" x1="0" y1="0" x2="0" y2="1"><stop offset="0%" stop-color="#E0E8F8"/><stop offset="100%" stop-color="#B0B8D0"/></linearGradient>
<linearGradient id="bs-grad" x1="0" y1="0" x2="1" y2="1"><stop offset="0%" stop-color="#D8E0F0"/><stop offset="50%" stop-color="#F0F4FF" stop-opacity="0.8"/><stop offset="100%" stop-color="#B8C0D8"/></linearGradient>
</defs>
<line x1="5" y1="32" x2="25" y2="32" stroke="#CC0000" stroke-width="0.8" opacity="0.5"/>
<line x1="8" y1="32" x2="18" y2="32" stroke="#CC0000" stroke-width="0.8" marker-end="url(#arrowhead-beam)"/>
<rect x="28" y="15" width="6" height="34" rx="1" fill="url(#wp-grad)" stroke="#000000" stroke-width="0.4"/>
<text x="31" y="12" font-family="Arial, Helvetica, sans-serif" font-size="4.5" fill="#000000" text-anchor="middle" font-weight="normal">λ/4</text>
<rect x="45" y="15" width="6" height="34" rx="1" fill="url(#wp-grad)" stroke="#000000" stroke-width="0.4"/>
<text x="48" y="12" font-family="Arial, Helvetica, sans-serif" font-size="4.5" fill="#000000" text-anchor="middle" font-weight="normal">λ/2</text>
<line x1="34" y1="32" x2="45" y2="32" stroke="#CC0000" stroke-width="0.8" opacity="0.3"/>
<line x1="51" y1="32" x2="68" y2="32" stroke="#CC0000" stroke-width="0.8" opacity="0.3"/>
<rect x="70" y="18" width="26" height="26" fill="url(#bs-grad)" stroke="#000000" stroke-width="0.75"/>
<text x="83" y="34" font-family="Arial, Helvetica, sans-serif" font-size="4.5" fill="#000000" text-anchor="middle" font-weight="normal">PBS</text>
<line x1="96" y1="31" x2="130" y2="31" stroke="#CC0000" stroke-width="0.8" opacity="0.4"/>
<rect x="133" y="23" width="14" height="14" rx="2" fill="url(#detector-grad)" stroke="#000000" stroke-width="0.3" opacity="0.7"/>
<line x1="83" y1="44" x2="83" y2="58" stroke="#CC0000" stroke-width="0.8" opacity="0.4"/>
<rect x="76" y="58" width="14" height="14" rx="2" fill="url(#detector-grad)" stroke="#000000" stroke-width="0.3" opacity="0.7"/>
<path d="M31,50 A5,3 0 1,1 36,50" fill="none" stroke="#666666" stroke-width="0.3" marker-end="url(#arrowhead)"/>
<path d="M48,50 A5,3 0 1,1 53,50" fill="none" stroke="#666666" stroke-width="0.3" marker-end="url(#arrowhead)"/>
<text x="155" y="32" font-family="Arial, Helvetica, sans-serif" font-size="5.5" fill="#666666" text-anchor="middle" font-weight="normal">rho</text>
<text x="100" y="60" font-family="Arial, Helvetica, sans-serif" font-size="7" fill="#000000" text-anchor="middle" font-weight="bold">State tomography</text>
</svg>
