<?xml version="1.0" encoding="UTF-8"?>
<svg xmlns="http://www.w3.org/2000/svg" viewBox="0 0 180 55" width="180" height="55">
<defs>
  <marker id="arrowhead" markerWidth="6" markerHeight="4" refX="5" refY="2" orient="auto">
    <polygon points="0 0, 6 2, 0 4" fill="#1a1a1a" />
  </marker>
  <marker id="arrowhead-beam" markerWidth="6" markerHeight="4" refX="5" refY="2" orient="auto">
    <polygon points="0 0, 6 2, 0 4" fill="#c0392b" />
  </marker>
  <marker id="arrowhead-gray" markerWidth="5" markerHeight="3.5" refX="4" refY="1.75" orient="auto">
    <polygon points="0 0, 5 1.75, 0 3.5" fill="#888888" />
  </marker>
</defs>
<rect x="10" y="30" width="160" height="14" rx="1" fill="#888888" stroke="#1a1a1a" stroke-width="0.4" opacity="0.2"/>
<line x1="10" y1="28" x2="170" y2="28" stroke="#333333" stroke-width="0.7" stroke-linecap="round" />
<line x1="15" y1="28" x2="35" y2="28" stroke="#888888" stroke-width="0.5" marker-end="url(#arrowhead-gray)" />
<line x1="70" y1="22" x2="70" y2="34" stroke="#1a1a1a" stroke-width="0.5" opacity="0.4"/>
<line x1="74" y1="22" x2="74" y2="34" stroke="#1a1a1a" stroke-width="0.5" opacity="0.4"/>
<line x1="78" y1="22" x2="78" y2="34" stroke="#1a1a1a" stroke-width="0.5" opacity="0.4"/>
<line x1="82" y1="22" x2="82" y2="34" stroke="#1a1a1a" stroke-width="0.5" opacity="0.4"/>
<line x1="86" y1="22" x2="86" y2="34" stroke="#1a1a1a" stroke-width="0.5" opacity="0.4"/>
<line x1="90" y1="22" x2="90" y2="34" stroke="#1a1a1a" stroke-width="0.5" opacity="0.4"/>
<line x1="94" y1="22" x2="94" y2="34" stroke="#1a1a1a" stroke-width="0.5" opacity="0.4"/>
<line x1="98" y1="22" x2="98" y2="34" stroke="#1a1a1a" stroke-width="0.5" opacity="0.4"/>
<line x1="102" y1="22" x2="102" y2="34" stroke="#1a1a1a" stroke-width="0.5" opacity="0.4"/>
<line x1="106" y1="22" x2="106" y2="34" stroke="#1a1a1a" stroke-width="0.5" opacity="0.4"/>
<line x1="110" y1="22" x2="110" y2="34" stroke="#1a1a1a" stroke-width="0.5" opacity="0.4"/>
<line x1="114" y1="22" x2="114" y2="34" stroke="#1a1a1a" stroke-width="0.5" opacity="0.4"/>
<line x1="55" y1="37" x2="40" y2="37" stroke="#888888" stroke-width="0.4" marker-end="url(#arrowhead)"/>
<line x1="125" y1="37" x2="140" y2="37" stroke="#888888" stroke-width="0.4" marker-end="url(#arrowhead)"/>
<text x="90" y="42" font-family="Arial, Helvetica, sans-serif" font-size="7" fill="#888888" text-anchor="middle" font-weight="normal" font-style="italic">ε</text>
<text x="90" y="52" font-family="Arial, Helvetica, sans-serif" font-size="8" fill="#1a1a1a" text-anchor="middle" font-weight="bold" font-style="normal">FBG strain gauge</text>
</svg>
