<?xml version="1.0" encoding="UTF-8"?>
<svg xmlns="http://www.w3.org/2000/svg" viewBox="0 0 200 55" width="200" height="55">
<defs>
  <marker id="arrowhead" markerWidth="6" markerHeight="4" refX="5" refY="2" orient="auto">
    <polygon points="0 0, 6 2, 0 4" fill="#1a1a1a" />
  </marker>
  <marker id="arrowhead-beam" markerWidth="6" markerHeight="4" refX="5" refY="2" orient="auto">
    <polygon points="0 0, 6 2, 0 4" fill="#c0392b" />
  </marker>
  <marker id="arrowhead-gray" markerWidth="5" markerHeight="3.5" refX="4" refY="1.75" orient="auto">
    <polygon points="0 0, 5 1.75, 0 3.5" fill="#888888" />
  </marker>
</defs>
<line x1="10" y1="27" x2="190" y2="27" stroke="#333333" stroke-width="0.7" stroke-linecap="round" />
<line x1="15" y1="27" x2="35" y2="27" stroke="#888888" stroke-width="0.5" marker-end="url(#arrowhead-gray)" />
<line x1="50" y1="18" x2="55" y2="18" stroke="#888888" stroke-width="0.4" marker-end="url(#arrowhead)"/>
<line x1="70" y1="18" x2="65" y2="18" stroke="#888888" stroke-width="0.4" marker-end="url(#arrowhead)"/>
<text x="60" y="16" font-family="Arial, Helvetica, sans-serif" font-size="6" fill="#888888" text-anchor="middle" font-weight="normal" font-style="normal">ε</text>
<line x1="90" y1="18" x2="95" y2="18" stroke="#888888" stroke-width="0.4" marker-end="url(#arrowhead)"/>
<line x1="110" y1="18" x2="105" y2="18" stroke="#888888" stroke-width="0.4" marker-end="url(#arrowhead)"/>
<text x="100" y="16" font-family="Arial, Helvetica, sans-serif" font-size="6" fill="#888888" text-anchor="middle" font-weight="normal" font-style="normal">ε</text>
<line x1="130" y1="18" x2="135" y2="18" stroke="#888888" stroke-width="0.4" marker-end="url(#arrowhead)"/>
<line x1="150" y1="18" x2="145" y2="18" stroke="#888888" stroke-width="0.4" marker-end="url(#arrowhead)"/>
<text x="140" y="16" font-family="Arial, Helvetica, sans-serif" font-size="6" fill="#888888" text-anchor="middle" font-weight="normal" font-style="normal">ε</text>
<text x="100" y="48" font-family="Arial, Helvetica, sans-serif" font-size="8" fill="#1a1a1a" text-anchor="middle" font-weight="bold" font-style="normal">Distributed strain sensor</text>
</svg>
