<svg xmlns="http://www.w3.org/2000/svg" viewBox="0 0 160 65" width="160" height="65" font-family="Arial, Helvetica, sans-serif">
<defs>
<marker id="arrowhead" markerWidth="6" markerHeight="4" refX="5" refY="2" orient="auto"><polygon points="0,0 6,2 0,4" fill="#1a1a1a"/></marker>
<marker id="arrowhead-beam" markerWidth="6" markerHeight="4" refX="5" refY="2" orient="auto"><polygon points="0,0 6,2 0,4" fill="#c0392b"/></marker>
</defs>
<rect x="35" y="8" width="70" height="40" rx="3" fill="#f0f0f0" stroke="#1a1a1a" stroke-width="0.5"/>
<rect x="48" y="14" width="40" height="28" rx="1" fill="#f4f6fa" stroke="#1a1a1a" stroke-width="0.4"/>
<text x="68" y="32" font-family="Arial, Helvetica, sans-serif" font-size="5.5" fill="#1a1a1a" text-anchor="middle" font-weight="normal">TeO₂</text>
<rect x="52" y="8" width="20" height="4" fill="#f0f0f0" stroke="#1a1a1a" stroke-width="0.3"/>
<line x1="62" y1="8" x2="62" y2="0" stroke="#1a1a1a" stroke-width="0.5"/>
<text x="68" y="5" font-family="Arial, Helvetica, sans-serif" font-size="4.5" fill="#888888" text-anchor="middle" font-weight="normal">RF</text>
<line x1="5" y1="28" x2="35" y2="28" stroke="#c0392b" stroke-width="0.6" opacity="0.5"/>
<line x1="8" y1="28" x2="25" y2="28" stroke="#c0392b" stroke-width="0.6" marker-end="url(#arrowhead-beam)"/>
<line x1="105" y1="22" x2="155" y2="15" stroke="#c0392b" stroke-width="0.6" opacity="0.5"/>
<line x1="115" y1="20" x2="140" y2="16" stroke="#c0392b" stroke-width="0.6" marker-end="url(#arrowhead-beam)"/>
<line x1="105" y1="28" x2="155" y2="28" stroke="#c0392b" stroke-width="0.6" opacity="0.2"/>
<text x="150" y="12" font-family="Arial, Helvetica, sans-serif" font-size="4.5" fill="#c0392b" text-anchor="middle" font-weight="normal">λ_sel</text>
<text x="70" y="58" font-family="Arial, Helvetica, sans-serif" font-size="7" fill="#1a1a1a" text-anchor="middle" font-weight="bold">AOTF</text>
</svg>
