<svg xmlns="http://www.w3.org/2000/svg" viewBox="0 0 180 65" width="180" height="65" font-family="Arial, Helvetica, sans-serif">
<defs>
<marker id="arrowhead" markerWidth="6" markerHeight="4" refX="5" refY="2" orient="auto"><polygon points="0,0 6,2 0,4" fill="#000000"/></marker>
<marker id="arrowhead-beam" markerWidth="6" markerHeight="4" refX="5" refY="2" orient="auto"><polygon points="0,0 6,2 0,4" fill="#CC0000"/></marker>
</defs>
<rect x="25" y="12" width="10" height="36" rx="1" fill="#D4D8E8" stroke="#000000" stroke-width="0.75"/>
<rect x="50" y="8" width="50" height="44" rx="3" fill="#D4D8E8" stroke="#000000" stroke-width="0.75"/>
<line x1="55" y1="30" x2="95" y2="30" stroke="#6666AA" stroke-width="0.5" marker-end="url(#arrowhead)" opacity="0.4"/>
<text x="75" y="38" font-family="Arial, Helvetica, sans-serif" font-size="5.5" fill="#000000" text-anchor="middle" font-weight="normal">45° FR</text>
<text x="75" y="22" font-family="Arial, Helvetica, sans-serif" font-size="5.5" fill="#6666AA" text-anchor="middle" font-weight="normal">B</text>
<rect x="115" y="12" width="10" height="36" rx="1" fill="#D4D8E8" stroke="#000000" stroke-width="0.75"/>
<line x1="5" y1="30" x2="25" y2="30" stroke="#CC0000" stroke-width="0.8" opacity="0.5"/>
<line x1="8" y1="30" x2="18" y2="30" stroke="#CC0000" stroke-width="0.8" marker-end="url(#arrowhead-beam)"/>
<line x1="35" y1="30" x2="50" y2="30" stroke="#CC0000" stroke-width="0.8" opacity="0.4"/>
<line x1="100" y1="30" x2="115" y2="30" stroke="#CC0000" stroke-width="0.8" opacity="0.4"/>
<line x1="125" y1="30" x2="175" y2="30" stroke="#CC0000" stroke-width="0.8" opacity="0.5"/>
<line x1="140" y1="30" x2="160" y2="30" stroke="#CC0000" stroke-width="0.8" marker-end="url(#arrowhead-beam)"/>
<text x="30" y="8" font-family="Arial, Helvetica, sans-serif" font-size="5.5" fill="#666666" text-anchor="middle" font-weight="normal">0°</text>
<text x="120" y="8" font-family="Arial, Helvetica, sans-serif" font-size="5.5" fill="#666666" text-anchor="middle" font-weight="normal">45°</text>
<text x="90" y="62" font-family="Arial, Helvetica, sans-serif" font-size="7" fill="#000000" text-anchor="middle" font-weight="bold">Faraday isolator</text>
</svg>
