<?xml version="1.0" encoding="UTF-8"?>
<svg xmlns="http://www.w3.org/2000/svg" viewBox="0 0 160 60" width="160" height="60">
<defs>
  <marker id="arrowhead" markerWidth="6" markerHeight="4" refX="5" refY="2" orient="auto">
    <polygon points="0 0, 6 2, 0 4" fill="#000000" />
  </marker>
  <linearGradient id="fiber-grad" x1="0" y1="0" x2="0" y2="1">
      <stop offset="0%" stop-color="#ADACC6"/>
      <stop offset="22%" stop-color="#1B1E89"/>
      <stop offset="100%" stop-color="#0D0F42"/>
    </linearGradient>
  <linearGradient id="comp-grad" x1="0" y1="0" x2="0" y2="1">
      <stop offset="0%" stop-color="#F0F0F8"/>
      <stop offset="50%" stop-color="#B0B0C8"/>
      <stop offset="100%" stop-color="#707088"/>
    </linearGradient>
</defs>
<rect x="25" y="10" width="95" height="38" rx="2" fill="url(#comp-grad)" stroke="#000000" stroke-width="0.75" />
<path d="M35,22 L55,22 C60,22 60,28 65,28 L80,28" fill="none" stroke="#444444" stroke-width="0.4"/>
<path d="M35,35 L55,35 C60,35 60,32 65,32 L80,32" fill="none" stroke="#444444" stroke-width="0.4"/>
<path d="M80,28 C85,28 85,22 90,22 L105,22" fill="none" stroke="#444444" stroke-width="0.4"/>
<path d="M80,32 C85,32 85,38 90,38 L105,38" fill="none" stroke="#444444" stroke-width="0.4"/>
<text x="70" y="30" font-family="Helvetica, Arial, sans-serif" font-size="7" fill="#000000" text-anchor="middle" font-weight="normal" font-style="normal">PIC</text>
<line x1="5" y1="22" x2="25" y2="22" stroke="url(#fiber-grad)" stroke-width="3.0" stroke-linecap="round" />
<line x1="5" y1="35" x2="25" y2="35" stroke="url(#fiber-grad)" stroke-width="3.0" stroke-linecap="round" />
<line x1="120" y1="22" x2="155" y2="22" stroke="url(#fiber-grad)" stroke-width="3.0" stroke-linecap="round" />
<line x1="120" y1="38" x2="155" y2="38" stroke="url(#fiber-grad)" stroke-width="3.0" stroke-linecap="round" />
<text x="75" y="56" font-family="Helvetica, Arial, sans-serif" font-size="8" fill="#000000" text-anchor="middle" font-weight="bold" font-style="normal">Photonic IC</text>
</svg>
