<?xml version="1.0" encoding="UTF-8"?>
<svg xmlns="http://www.w3.org/2000/svg" viewBox="0 0 200 40" width="200" height="40">
<defs>
  <marker id="arrowhead" markerWidth="6" markerHeight="4" refX="5" refY="2" orient="auto">
    <polygon points="0 0, 6 2, 0 4" fill="#000000" />
  </marker>
</defs>
<line x1="10" y1="20" x2="190" y2="20" stroke="#1B1E89" stroke-width="2.5" stroke-linecap="round" />
<path d="M40,14 C44,18 43,22 47,26" fill="none" stroke="#444444" stroke-width="0.5" opacity="0.6"/>
<path d="M54,14 C58,18 57,22 61,26" fill="none" stroke="#444444" stroke-width="0.5" opacity="0.6"/>
<path d="M68,14 C72,18 71,22 75,26" fill="none" stroke="#444444" stroke-width="0.5" opacity="0.6"/>
<path d="M82,14 C86,18 85,22 89,26" fill="none" stroke="#444444" stroke-width="0.5" opacity="0.6"/>
<path d="M96,14 C100,18 99,22 103,26" fill="none" stroke="#444444" stroke-width="0.5" opacity="0.6"/>
<path d="M110,14 C114,18 113,22 117,26" fill="none" stroke="#444444" stroke-width="0.5" opacity="0.6"/>
<path d="M124,14 C128,18 127,22 131,26" fill="none" stroke="#444444" stroke-width="0.5" opacity="0.6"/>
<path d="M138,14 C142,18 141,22 145,26" fill="none" stroke="#444444" stroke-width="0.5" opacity="0.6"/>
<path d="M152,14 C156,18 155,22 159,26" fill="none" stroke="#444444" stroke-width="0.5" opacity="0.6"/>
<path d="M166,14 C170,18 169,22 173,26" fill="none" stroke="#444444" stroke-width="0.5" opacity="0.6"/>
<text x="100" y="12" font-family="Helvetica, Arial, sans-serif" font-size="7" fill="#444444" text-anchor="middle" font-weight="normal" font-style="normal">Spun fiber</text>
</svg>
