<svg xmlns="http://www.w3.org/2000/svg" viewBox="0 0 140 100" width="140" height="100" font-family="Arial, Helvetica, sans-serif">
<defs>
<marker id="arrowhead" markerWidth="6" markerHeight="4" refX="5" refY="2" orient="auto"><polygon points="0,0 6,2 0,4" fill="#000000"/></marker>
<marker id="arrowhead-beam" markerWidth="6" markerHeight="4" refX="5" refY="2" orient="auto"><polygon points="0,0 6,2 0,4" fill="#CC0000"/></marker>
</defs>
<path d="M90,10 C75,30 75,60 90,80" fill="none" stroke="#000000" stroke-width="1.5"/>
<line x1="87.4" y1="13.9" x2="92.4" y2="10.9" stroke="#666666" stroke-width="0.3"/>
<line x1="82.5" y1="21.7" x2="87.5" y2="18.7" stroke="#666666" stroke-width="0.3"/>
<line x1="78.5" y1="29.4" x2="83.5" y2="26.4" stroke="#666666" stroke-width="0.3"/>
<line x1="75.9" y1="37.2" x2="80.9" y2="34.2" stroke="#666666" stroke-width="0.3"/>
<line x1="75.0" y1="45.0" x2="80.0" y2="42.0" stroke="#666666" stroke-width="0.3"/>
<line x1="75.9" y1="52.8" x2="80.9" y2="49.8" stroke="#666666" stroke-width="0.3"/>
<line x1="78.5" y1="60.6" x2="83.5" y2="57.6" stroke="#666666" stroke-width="0.3"/>
<line x1="82.5" y1="68.3" x2="87.5" y2="65.3" stroke="#666666" stroke-width="0.3"/>
<line x1="87.4" y1="76.1" x2="92.4" y2="73.1" stroke="#666666" stroke-width="0.3"/>
<line x1="5" y1="25" x2="80.647652972119" y2="25" stroke="#CC0000" stroke-width="0.8" opacity="0.3"/>
<line x1="5" y1="45" x2="75.0" y2="45" stroke="#CC0000" stroke-width="0.8" opacity="0.3"/>
<line x1="5" y1="65" x2="80.64765297211899" y2="65" stroke="#CC0000" stroke-width="0.8" opacity="0.3"/>
<line x1="81" y1="25" x2="50" y2="90" stroke="#CC0000" stroke-width="0.5" opacity="0.3"/>
<line x1="75" y1="45" x2="50" y2="90" stroke="#CC0000" stroke-width="0.5" opacity="0.3"/>
<line x1="81" y1="65" x2="50" y2="90" stroke="#CC0000" stroke-width="0.5" opacity="0.3"/>
<circle cx="50" cy="90" r="2" fill="#CC0000" opacity="0.5"/>
<text x="50" y="87" font-family="Arial, Helvetica, sans-serif" font-size="5.5" fill="#666666" text-anchor="middle" font-weight="normal">f</text>
<text x="70" y="98" font-family="Arial, Helvetica, sans-serif" font-size="7" fill="#000000" text-anchor="middle" font-weight="bold">90° OAP</text>
</svg>
