<svg xmlns="http://www.w3.org/2000/svg" viewBox="0 0 130 75" width="130" height="75" font-family="Arial, Helvetica, sans-serif">
<defs>
<marker id="arrowhead" markerWidth="6" markerHeight="4" refX="5" refY="2" orient="auto"><polygon points="0,0 6,2 0,4" fill="#1a1a1a"/></marker>
<marker id="arrowhead-beam" markerWidth="6" markerHeight="4" refX="5" refY="2" orient="auto"><polygon points="0,0 6,2 0,4" fill="#c0392b"/></marker>
</defs>
<line x1="5" y1="37" x2="45" y2="37" stroke="#c0392b" stroke-width="0.6" opacity="0.4"/>
<line x1="10" y1="37" x2="30" y2="37" stroke="#c0392b" stroke-width="0.6" marker-end="url(#arrowhead-beam)"/>
<path d="M50,12 C42,22 42,52 50,62 L56,62 L56,12 Z" fill="#f4f6fa" stroke="#1a1a1a" stroke-width="0.5"/>
<rect x="56" y="12" width="8" height="50" fill="#e8eaf0" stroke="#1a1a1a" stroke-width="0.5"/>
<path d="M64,12 L64,62 L70,62 C78,52 78,22 70,12 Z" fill="#f4f6fa" stroke="#1a1a1a" stroke-width="0.5"/>
<line x1="56" y1="12" x2="56" y2="62" stroke="#1a1a1a" stroke-width="0.35" opacity="0.4"/>
<line x1="64" y1="12" x2="64" y2="62" stroke="#1a1a1a" stroke-width="0.35" opacity="0.4"/>
<line x1="78" y1="37" x2="125" y2="37" stroke="#c0392b" stroke-width="0.6" opacity="0.4"/>
<text x="60" y="72" font-family="Arial, Helvetica, sans-serif" font-size="7" fill="#1a1a1a" text-anchor="middle" font-weight="bold">Apochromatic triplet</text>
</svg>
