<?xml version="1.0" encoding="UTF-8"?>
<svg xmlns="http://www.w3.org/2000/svg" viewBox="0 0 200 70" width="200" height="70">
<defs>
  <marker id="arrowhead" markerWidth="6" markerHeight="4" refX="5" refY="2" orient="auto">
    <polygon points="0 0, 6 2, 0 4" fill="#1a1a1a" />
  </marker>
  <marker id="arrowhead-beam" markerWidth="6" markerHeight="4" refX="5" refY="2" orient="auto">
    <polygon points="0 0, 6 2, 0 4" fill="#c0392b" />
  </marker>
  <marker id="arrowhead-gray" markerWidth="5" markerHeight="3.5" refX="4" refY="1.75" orient="auto">
    <polygon points="0 0, 5 1.75, 0 3.5" fill="#888888" />
  </marker>
</defs>
<rect x="15" y="8" width="110" height="48" rx="3" fill="#f0f0f0" stroke="#1a1a1a" stroke-width="0.5" />
<rect x="22" y="14" width="70" height="28" rx="2" fill="#101828" stroke="#1a1a1a" stroke-width="0.3"/>
<path d="M30,36 L38,34 L46,32 L52,20 L58,32 L66,34 L74,36 L82,36 L88,36" fill="none" stroke="#4488CC" stroke-width="0.7"/>
<text x="105" y="35" font-family="Arial, Helvetica, sans-serif" font-size="6" fill="#888888" text-anchor="middle" font-weight="normal" font-style="normal">BOTDA</text>
<line x1="125" y1="25" x2="195" y2="25" stroke="#333333" stroke-width="0.7" stroke-linecap="round" />
<line x1="125" y1="42" x2="195" y2="42" stroke="#333333" stroke-width="0.7" stroke-linecap="round" />
<line x1="140" y1="25" x2="160" y2="25" stroke="#888888" stroke-width="0.5" marker-end="url(#arrowhead-gray)" />
<text x="193" y="19" font-family="Arial, Helvetica, sans-serif" font-size="7" fill="#888888" text-anchor="end" font-weight="normal" font-style="italic">probe</text>
<text x="193" y="48" font-family="Arial, Helvetica, sans-serif" font-size="7" fill="#888888" text-anchor="end" font-weight="normal" font-style="italic">pump</text>
<text x="70" y="66" font-family="Arial, Helvetica, sans-serif" font-size="8" fill="#1a1a1a" text-anchor="middle" font-weight="bold" font-style="normal">BOTDA interrogator</text>
</svg>
