<?xml version="1.0" encoding="UTF-8"?>
<svg xmlns="http://www.w3.org/2000/svg" viewBox="0 0 180 70" width="180" height="70">
<defs>
  <marker id="arrowhead" markerWidth="6" markerHeight="4" refX="5" refY="2" orient="auto">
    <polygon points="0 0, 6 2, 0 4" fill="#1a1a1a" />
  </marker>
  <marker id="arrowhead-beam" markerWidth="6" markerHeight="4" refX="5" refY="2" orient="auto">
    <polygon points="0 0, 6 2, 0 4" fill="#c0392b" />
  </marker>
  <marker id="arrowhead-gray" markerWidth="5" markerHeight="3.5" refX="4" refY="1.75" orient="auto">
    <polygon points="0 0, 5 1.75, 0 3.5" fill="#888888" />
  </marker>
</defs>
<rect x="15" y="8" width="110" height="48" rx="3" fill="#f0f0f0" stroke="#1a1a1a" stroke-width="0.5" />
<rect x="22" y="14" width="70" height="28" rx="2" fill="#101828" stroke="#1a1a1a" stroke-width="0.3"/>
<path d="M26,32 L30,28 L34,34 L38,26 L42,30 L46,22 L50,28 L54,34 L58,26 L62,32 L66,24 L70,30 L74,28 L78,34 L82,26 L86,32 L88,30" fill="none" stroke="#00CC66" stroke-width="0.6"/>
<text x="105" y="35" font-family="Arial, Helvetica, sans-serif" font-size="6" fill="#888888" text-anchor="middle" font-weight="normal" font-style="normal">OFDR</text>
<line x1="125" y1="32" x2="175" y2="32" stroke="#333333" stroke-width="0.7" stroke-linecap="round" />
<line x1="135" y1="32" x2="155" y2="32" stroke="#888888" stroke-width="0.5" marker-end="url(#arrowhead-gray)" />
<text x="173" y="26" font-family="Arial, Helvetica, sans-serif" font-size="7" fill="#888888" text-anchor="end" font-weight="normal" font-style="italic">sense</text>
<text x="70" y="66" font-family="Arial, Helvetica, sans-serif" font-size="8" fill="#1a1a1a" text-anchor="middle" font-weight="bold" font-style="normal">Rayleigh OFDR</text>
</svg>
