<?xml version="1.0" encoding="UTF-8"?>
<svg xmlns="http://www.w3.org/2000/svg" viewBox="0 0 160 100" width="160" height="100">
<defs>
  <marker id="arrowhead" markerWidth="6" markerHeight="4" refX="5" refY="2" orient="auto">
    <polygon points="0 0, 6 2, 0 4" fill="#000000" />
  </marker>
  <linearGradient id="fiber-grad" x1="0" y1="0" x2="0" y2="1">
      <stop offset="0%" stop-color="#ADACC6"/>
      <stop offset="22%" stop-color="#1B1E89"/>
      <stop offset="100%" stop-color="#0D0F42"/>
    </linearGradient>
  <linearGradient id="comp-grad" x1="0" y1="0" x2="0" y2="1">
      <stop offset="0%" stop-color="#F0F0F8"/>
      <stop offset="50%" stop-color="#B0B0C8"/>
      <stop offset="100%" stop-color="#707088"/>
    </linearGradient>
</defs>
<rect x="35" y="10" width="75" height="75" rx="3" fill="url(#comp-grad)" stroke="#000000" stroke-width="0.75" />
<rect x="47" y="22" width="6" height="6" rx="0.5" fill="#444444" stroke="#000000" stroke-width="0.2" opacity="0.3"/>
<rect x="47" y="36" width="6" height="6" rx="0.5" fill="#444444" stroke="#000000" stroke-width="0.2" opacity="0.3"/>
<rect x="47" y="50" width="6" height="6" rx="0.5" fill="#444444" stroke="#000000" stroke-width="0.2" opacity="0.3"/>
<rect x="47" y="64" width="6" height="6" rx="0.5" fill="#444444" stroke="#000000" stroke-width="0.2" opacity="0.3"/>
<rect x="61" y="22" width="6" height="6" rx="0.5" fill="#444444" stroke="#000000" stroke-width="0.2" opacity="0.3"/>
<rect x="61" y="36" width="6" height="6" rx="0.5" fill="#444444" stroke="#000000" stroke-width="0.2" opacity="0.3"/>
<rect x="61" y="50" width="6" height="6" rx="0.5" fill="#444444" stroke="#000000" stroke-width="0.2" opacity="0.3"/>
<rect x="61" y="64" width="6" height="6" rx="0.5" fill="#444444" stroke="#000000" stroke-width="0.2" opacity="0.3"/>
<rect x="75" y="22" width="6" height="6" rx="0.5" fill="#444444" stroke="#000000" stroke-width="0.2" opacity="0.3"/>
<rect x="75" y="36" width="6" height="6" rx="0.5" fill="#444444" stroke="#000000" stroke-width="0.2" opacity="0.3"/>
<rect x="75" y="50" width="6" height="6" rx="0.5" fill="#444444" stroke="#000000" stroke-width="0.2" opacity="0.3"/>
<rect x="75" y="64" width="6" height="6" rx="0.5" fill="#444444" stroke="#000000" stroke-width="0.2" opacity="0.3"/>
<rect x="89" y="22" width="6" height="6" rx="0.5" fill="#444444" stroke="#000000" stroke-width="0.2" opacity="0.3"/>
<rect x="89" y="36" width="6" height="6" rx="0.5" fill="#444444" stroke="#000000" stroke-width="0.2" opacity="0.3"/>
<rect x="89" y="50" width="6" height="6" rx="0.5" fill="#444444" stroke="#000000" stroke-width="0.2" opacity="0.3"/>
<rect x="89" y="64" width="6" height="6" rx="0.5" fill="#444444" stroke="#000000" stroke-width="0.2" opacity="0.3"/>
<line x1="5" y1="25" x2="35" y2="25" stroke="url(#fiber-grad)" stroke-width="3.0" stroke-linecap="round" />
<line x1="5" y1="39" x2="35" y2="39" stroke="url(#fiber-grad)" stroke-width="3.0" stroke-linecap="round" />
<line x1="5" y1="53" x2="35" y2="53" stroke="url(#fiber-grad)" stroke-width="3.0" stroke-linecap="round" />
<line x1="5" y1="67" x2="35" y2="67" stroke="url(#fiber-grad)" stroke-width="3.0" stroke-linecap="round" />
<line x1="110" y1="25" x2="155" y2="25" stroke="url(#fiber-grad)" stroke-width="3.0" stroke-linecap="round" />
<line x1="110" y1="39" x2="155" y2="39" stroke="url(#fiber-grad)" stroke-width="3.0" stroke-linecap="round" />
<line x1="110" y1="53" x2="155" y2="53" stroke="url(#fiber-grad)" stroke-width="3.0" stroke-linecap="round" />
<line x1="110" y1="67" x2="155" y2="67" stroke="url(#fiber-grad)" stroke-width="3.0" stroke-linecap="round" />
<text x="72" y="55" font-family="Helvetica, Arial, sans-serif" font-size="6" fill="#000000" text-anchor="middle" font-weight="normal" font-style="normal">MEMS</text>
<text x="80" y="96" font-family="Helvetica, Arial, sans-serif" font-size="8" fill="#000000" text-anchor="middle" font-weight="bold" font-style="normal">MEMS switch</text>
</svg>
