<?xml version="1.0" encoding="UTF-8"?>
<svg xmlns="http://www.w3.org/2000/svg" viewBox="0 0 160 100" width="160" height="100">
<defs>
  <marker id="arrowhead" markerWidth="6" markerHeight="4" refX="5" refY="2" orient="auto">
    <polygon points="0 0, 6 2, 0 4" fill="#000000" />
  </marker>
  <linearGradient id="fiber-grad" x1="0" y1="0" x2="0" y2="1">
      <stop offset="0%" stop-color="#ADACC6"/>
      <stop offset="22%" stop-color="#1B1E89"/>
      <stop offset="100%" stop-color="#0D0F42"/>
    </linearGradient>
  <linearGradient id="comp-grad" x1="0" y1="0" x2="0" y2="1">
      <stop offset="0%" stop-color="#F0F0F8"/>
      <stop offset="50%" stop-color="#B0B0C8"/>
      <stop offset="100%" stop-color="#707088"/>
    </linearGradient>
</defs>
<rect x="35" y="10" width="75" height="75" rx="3" fill="url(#comp-grad)" stroke="#000000" stroke-width="0.75" />
<text x="72" y="50" font-family="Helvetica, Arial, sans-serif" font-size="7" fill="#000000" text-anchor="middle" font-weight="normal" font-style="normal">N×N</text>
<line x1="5" y1="22" x2="35" y2="22" stroke="url(#fiber-grad)" stroke-width="3.0" stroke-linecap="round" />
<line x1="110" y1="22" x2="155" y2="22" stroke="url(#fiber-grad)" stroke-width="3.0" stroke-linecap="round" />
<line x1="5" y1="40" x2="35" y2="40" stroke="url(#fiber-grad)" stroke-width="3.0" stroke-linecap="round" />
<line x1="110" y1="40" x2="155" y2="40" stroke="url(#fiber-grad)" stroke-width="3.0" stroke-linecap="round" />
<line x1="5" y1="58" x2="35" y2="58" stroke="url(#fiber-grad)" stroke-width="3.0" stroke-linecap="round" />
<line x1="110" y1="58" x2="155" y2="58" stroke="url(#fiber-grad)" stroke-width="3.0" stroke-linecap="round" />
<line x1="5" y1="76" x2="35" y2="76" stroke="url(#fiber-grad)" stroke-width="3.0" stroke-linecap="round" />
<line x1="110" y1="76" x2="155" y2="76" stroke="url(#fiber-grad)" stroke-width="3.0" stroke-linecap="round" />
<circle cx="48" cy="22" r="1.5" fill="#000000" opacity="0.2"/>
<circle cx="48" cy="40" r="1.5" fill="#000000" opacity="0.2"/>
<circle cx="48" cy="58" r="1.5" fill="#000000" opacity="0.2"/>
<circle cx="48" cy="76" r="1.5" fill="#000000" opacity="0.2"/>
<circle cx="64" cy="22" r="1.5" fill="#000000" opacity="0.2"/>
<circle cx="64" cy="40" r="1.5" fill="#000000" opacity="0.2"/>
<circle cx="64" cy="58" r="1.5" fill="#000000" opacity="0.2"/>
<circle cx="64" cy="76" r="1.5" fill="#000000" opacity="0.2"/>
<circle cx="80" cy="22" r="1.5" fill="#000000" opacity="0.2"/>
<circle cx="80" cy="40" r="1.5" fill="#000000" opacity="0.2"/>
<circle cx="80" cy="58" r="1.5" fill="#000000" opacity="0.2"/>
<circle cx="80" cy="76" r="1.5" fill="#000000" opacity="0.2"/>
<circle cx="96" cy="22" r="1.5" fill="#000000" opacity="0.2"/>
<circle cx="96" cy="40" r="1.5" fill="#000000" opacity="0.2"/>
<circle cx="96" cy="58" r="1.5" fill="#000000" opacity="0.2"/>
<circle cx="96" cy="76" r="1.5" fill="#000000" opacity="0.2"/>
<text x="72" y="96" font-family="Helvetica, Arial, sans-serif" font-size="8" fill="#000000" text-anchor="middle" font-weight="bold" font-style="normal">Switch matrix</text>
</svg>
