<svg xmlns="http://www.w3.org/2000/svg" viewBox="0 0 160 65" width="160" height="65" font-family="Arial, Helvetica, sans-serif">
<defs>
<marker id="arrowhead" markerWidth="6" markerHeight="4" refX="5" refY="2" orient="auto"><polygon points="0,0 6,2 0,4" fill="#000000"/></marker>
<marker id="arrowhead-beam" markerWidth="6" markerHeight="4" refX="5" refY="2" orient="auto"><polygon points="0,0 6,2 0,4" fill="#CC0000"/></marker>
<linearGradient id="crystal-grad" x1="0" y1="0" x2="1" y2="1"><stop offset="0%" stop-color="#E8D8F0"/><stop offset="100%" stop-color="#C0A8D0"/></linearGradient>
<linearGradient id="housing-grad" x1="0" y1="0" x2="0" y2="1"><stop offset="0%" stop-color="#B0B0B8"/><stop offset="100%" stop-color="#707078"/></linearGradient>
</defs>
<rect x="35" y="8" width="70" height="40" rx="3" fill="url(#housing-grad)" stroke="#000000" stroke-width="0.75"/>
<rect x="48" y="14" width="40" height="28" rx="1" fill="url(#crystal-grad)" stroke="#000000" stroke-width="0.4"/>
<text x="68" y="32" font-family="Arial, Helvetica, sans-serif" font-size="5.5" fill="#000000" text-anchor="middle" font-weight="normal">TeO₂</text>
<rect x="52" y="8" width="20" height="4" fill="#A8A8B0" stroke="#000000" stroke-width="0.3"/>
<line x1="62" y1="8" x2="62" y2="0" stroke="#000000" stroke-width="0.5"/>
<text x="68" y="5" font-family="Arial, Helvetica, sans-serif" font-size="4.5" fill="#666666" text-anchor="middle" font-weight="normal">RF</text>
<line x1="5" y1="28" x2="35" y2="28" stroke="#CC0000" stroke-width="0.8" opacity="0.5"/>
<line x1="8" y1="28" x2="25" y2="28" stroke="#CC0000" stroke-width="0.8" marker-end="url(#arrowhead-beam)"/>
<line x1="105" y1="22" x2="155" y2="15" stroke="#CC0000" stroke-width="0.8" opacity="0.5"/>
<line x1="115" y1="20" x2="140" y2="16" stroke="#CC0000" stroke-width="0.8" marker-end="url(#arrowhead-beam)"/>
<line x1="105" y1="28" x2="155" y2="28" stroke="#CC0000" stroke-width="0.8" opacity="0.2"/>
<text x="150" y="12" font-family="Arial, Helvetica, sans-serif" font-size="4.5" fill="#CC0000" text-anchor="middle" font-weight="normal">λ_sel</text>
<text x="70" y="58" font-family="Arial, Helvetica, sans-serif" font-size="7" fill="#000000" text-anchor="middle" font-weight="bold">AOTF</text>
</svg>
