<svg xmlns="http://www.w3.org/2000/svg" viewBox="0 0 120 65" width="120" height="65" font-family="Arial, Helvetica, sans-serif">
<defs>
<marker id="arrowhead" markerWidth="6" markerHeight="4" refX="5" refY="2" orient="auto"><polygon points="0,0 6,2 0,4" fill="#000000"/></marker>
<marker id="arrowhead-beam" markerWidth="6" markerHeight="4" refX="5" refY="2" orient="auto"><polygon points="0,0 6,2 0,4" fill="#CC0000"/></marker>
<linearGradient id="glass-grad" x1="0" y1="0" x2="1" y2="1"><stop offset="0%" stop-color="#D8E4F8"/><stop offset="100%" stop-color="#A8B8D8"/></linearGradient>
</defs>
<line x1="5" y1="32" x2="40" y2="32" stroke="#CC0000" stroke-width="0.8" opacity="0.5"/>
<line x1="10" y1="32" x2="28" y2="32" stroke="#CC0000" stroke-width="0.8" marker-end="url(#arrowhead-beam)"/>
<rect x="42" y="8" width="18" height="46" rx="1" fill="url(#glass-grad)" stroke="#000000" stroke-width="0.75"/>
<line x1="44" y1="12" x2="58" y2="14" stroke="#666666" stroke-width="0.3" opacity="0.25"/>
<line x1="44" y1="16" x2="58" y2="18" stroke="#666666" stroke-width="0.3" opacity="0.25"/>
<line x1="44" y1="20" x2="58" y2="22" stroke="#666666" stroke-width="0.3" opacity="0.25"/>
<line x1="44" y1="24" x2="58" y2="26" stroke="#666666" stroke-width="0.3" opacity="0.25"/>
<line x1="44" y1="28" x2="58" y2="30" stroke="#666666" stroke-width="0.3" opacity="0.25"/>
<line x1="44" y1="32" x2="58" y2="34" stroke="#666666" stroke-width="0.3" opacity="0.25"/>
<line x1="44" y1="36" x2="58" y2="38" stroke="#666666" stroke-width="0.3" opacity="0.25"/>
<line x1="44" y1="40" x2="58" y2="42" stroke="#666666" stroke-width="0.3" opacity="0.25"/>
<line x1="44" y1="44" x2="58" y2="46" stroke="#666666" stroke-width="0.3" opacity="0.25"/>
<line x1="44" y1="48" x2="58" y2="50" stroke="#666666" stroke-width="0.3" opacity="0.25"/>
<text x="51" y="6" font-family="Arial, Helvetica, sans-serif" font-size="5.5" fill="#666666" text-anchor="middle" font-weight="normal">VBG</text>
<line x1="42" y1="30" x2="5" y2="15" stroke="#CC0000" stroke-width="0.5" opacity="0.4"/>
<line x1="60" y1="32" x2="115" y2="32" stroke="#CC0000" stroke-width="0.8" opacity="0.35"/>
<text x="55" y="60" font-family="Arial, Helvetica, sans-serif" font-size="7" fill="#000000" text-anchor="middle" font-weight="bold">VBG filter</text>
</svg>
