<?xml version="1.0" encoding="UTF-8"?>
<svg xmlns="http://www.w3.org/2000/svg" viewBox="0 0 100 55" width="100" height="55">
<defs>
  <marker id="arrowhead" markerWidth="6" markerHeight="4" refX="5" refY="2" orient="auto">
    <polygon points="0 0, 6 2, 0 4" fill="#1a1a1a" />
  </marker>
  <marker id="arrowhead-beam" markerWidth="6" markerHeight="4" refX="5" refY="2" orient="auto">
    <polygon points="0 0, 6 2, 0 4" fill="#c0392b" />
  </marker>
  <marker id="arrowhead-gray" markerWidth="5" markerHeight="3.5" refX="4" refY="1.75" orient="auto">
    <polygon points="0 0, 5 1.75, 0 3.5" fill="#888888" />
  </marker>
</defs>
<line x1="5" y1="27" x2="40" y2="27" stroke="#333333" stroke-width="0.7" stroke-linecap="round" />
<line x1="8" y1="27" x2="22" y2="27" stroke="#888888" stroke-width="0.5" marker-end="url(#arrowhead-gray)" />
<rect x="40" y="10" width="20" height="34" rx="1" fill="#f0f0f0" stroke="#1a1a1a" stroke-width="0.5"/>
<line x1="60" y1="10" x2="60" y2="44" stroke="#1a1a1a" stroke-width="1.5"/>
<line x1="60" y1="12" x2="64" y2="8" stroke="#888888" stroke-width="0.35"/>
<line x1="60" y1="17" x2="64" y2="13" stroke="#888888" stroke-width="0.35"/>
<line x1="60" y1="22" x2="64" y2="18" stroke="#888888" stroke-width="0.35"/>
<line x1="60" y1="27" x2="64" y2="23" stroke="#888888" stroke-width="0.35"/>
<line x1="60" y1="32" x2="64" y2="28" stroke="#888888" stroke-width="0.35"/>
<line x1="60" y1="37" x2="64" y2="33" stroke="#888888" stroke-width="0.35"/>
<line x1="60" y1="42" x2="64" y2="38" stroke="#888888" stroke-width="0.35"/>
<rect x="40" y="22" width="5" height="10" fill="#c0392b" opacity="0.3" stroke="none"/>
<path d="M35,30 L28,33" fill="none" stroke="#888888" stroke-width="0.4" marker-end="url(#arrowhead)"/>
<text x="45" y="52" font-family="Arial, Helvetica, sans-serif" font-size="8" fill="#1a1a1a" text-anchor="middle" font-weight="bold" font-style="normal">SAM</text>
</svg>
