<svg xmlns="http://www.w3.org/2000/svg" viewBox="0 0 140 90" width="140" height="90" font-family="Arial, Helvetica, sans-serif">
<defs>
<marker id="arrowhead" markerWidth="6" markerHeight="4" refX="5" refY="2" orient="auto"><polygon points="0,0 6,2 0,4" fill="#000000"/></marker>
<marker id="arrowhead-beam" markerWidth="6" markerHeight="4" refX="5" refY="2" orient="auto"><polygon points="0,0 6,2 0,4" fill="#CC0000"/></marker>
</defs>
<path d="M85,15 C100,30 100,55 85,70" fill="none" stroke="#000000" stroke-width="1.5"/>
<line x1="87.9" y1="18.4" x2="92.9" y2="21.4" stroke="#666666" stroke-width="0.3"/>
<line x1="93.3" y1="25.3" x2="98.3" y2="28.3" stroke="#666666" stroke-width="0.3"/>
<line x1="97.5" y1="32.2" x2="102.5" y2="35.2" stroke="#666666" stroke-width="0.3"/>
<line x1="99.7" y1="39.1" x2="104.7" y2="42.1" stroke="#666666" stroke-width="0.3"/>
<line x1="99.7" y1="45.9" x2="104.7" y2="48.9" stroke="#666666" stroke-width="0.3"/>
<line x1="97.5" y1="52.8" x2="102.5" y2="55.8" stroke="#666666" stroke-width="0.3"/>
<line x1="93.3" y1="59.7" x2="98.3" y2="62.7" stroke="#666666" stroke-width="0.3"/>
<line x1="87.9" y1="66.6" x2="92.9" y2="69.6" stroke="#666666" stroke-width="0.3"/>
<line x1="5" y1="28" x2="95.14262350411029" y2="28" stroke="#CC0000" stroke-width="0.8" opacity="0.4"/>
<line x1="5" y1="42" x2="99.99388289242285" y2="42" stroke="#CC0000" stroke-width="0.8" opacity="0.4"/>
<line x1="5" y1="56" x2="95.75697707138445" y2="56" stroke="#CC0000" stroke-width="0.8" opacity="0.4"/>
<line x1="100" y1="28" x2="30" y2="18" stroke="#CC0000" stroke-width="0.5" opacity="0.3"/>
<line x1="100" y1="42" x2="30" y2="42" stroke="#CC0000" stroke-width="0.5" opacity="0.3"/>
<line x1="100" y1="56" x2="30" y2="66" stroke="#CC0000" stroke-width="0.5" opacity="0.3"/>
<text x="70" y="85" font-family="Arial, Helvetica, sans-serif" font-size="7" fill="#000000" text-anchor="middle" font-weight="bold">Convex mirror</text>
</svg>
