<svg xmlns="http://www.w3.org/2000/svg" viewBox="0 0 110 75" width="110" height="75" font-family="Arial, Helvetica, sans-serif">
<defs>
<marker id="arrowhead" markerWidth="6" markerHeight="4" refX="5" refY="2" orient="auto"><polygon points="0,0 6,2 0,4" fill="#000000"/></marker>
<marker id="arrowhead-beam" markerWidth="6" markerHeight="4" refX="5" refY="2" orient="auto"><polygon points="0,0 6,2 0,4" fill="#CC0000"/></marker>
</defs>
<circle cx="55" cy="35" r="25" fill="#808088" stroke="#000000" stroke-width="0.75"/>
<line x1="77.0" y1="35.0" x2="80.0" y2="35.0" stroke="#000000" stroke-width="0.2"/>
<line x1="75.7" y1="42.5" x2="78.5" y2="43.6" stroke="#000000" stroke-width="0.2"/>
<line x1="71.9" y1="49.1" x2="74.2" y2="51.1" stroke="#000000" stroke-width="0.2"/>
<line x1="66.0" y1="54.1" x2="67.5" y2="56.7" stroke="#000000" stroke-width="0.2"/>
<line x1="58.8" y1="56.7" x2="59.3" y2="59.6" stroke="#000000" stroke-width="0.2"/>
<line x1="51.2" y1="56.7" x2="50.7" y2="59.6" stroke="#000000" stroke-width="0.2"/>
<line x1="44.0" y1="54.1" x2="42.5" y2="56.7" stroke="#000000" stroke-width="0.2"/>
<line x1="38.1" y1="49.1" x2="35.8" y2="51.1" stroke="#000000" stroke-width="0.2"/>
<line x1="34.3" y1="42.5" x2="31.5" y2="43.6" stroke="#000000" stroke-width="0.2"/>
<line x1="33.0" y1="35.0" x2="30.0" y2="35.0" stroke="#000000" stroke-width="0.2"/>
<line x1="34.3" y1="27.5" x2="31.5" y2="26.4" stroke="#000000" stroke-width="0.2"/>
<line x1="38.1" y1="20.9" x2="35.8" y2="18.9" stroke="#000000" stroke-width="0.2"/>
<line x1="44.0" y1="15.9" x2="42.5" y2="13.3" stroke="#000000" stroke-width="0.2"/>
<line x1="51.2" y1="13.3" x2="50.7" y2="10.4" stroke="#000000" stroke-width="0.2"/>
<line x1="58.8" y1="13.3" x2="59.3" y2="10.4" stroke="#000000" stroke-width="0.2"/>
<line x1="66.0" y1="15.9" x2="67.5" y2="13.3" stroke="#000000" stroke-width="0.2"/>
<line x1="71.9" y1="20.9" x2="74.2" y2="18.9" stroke="#000000" stroke-width="0.2"/>
<line x1="75.7" y1="27.5" x2="78.5" y2="26.4" stroke="#000000" stroke-width="0.2"/>
<rect x="45" y="25" width="20" height="20" rx="1" fill="#E0D0E8" stroke="#000000" stroke-width="0.4"/>
<path d="M35,14 A22,22 0 0,1 48,12" fill="none" stroke="#666666" stroke-width="0.4" marker-end="url(#arrowhead)"/>
<line x1="5" y1="35" x2="30" y2="35" stroke="#CC0000" stroke-width="0.8" opacity="0.4"/>
<line x1="8" y1="35" x2="22" y2="35" stroke="#CC0000" stroke-width="0.8" marker-end="url(#arrowhead-beam)"/>
<line x1="80" y1="35" x2="105" y2="35" stroke="#CC0000" stroke-width="0.8" opacity="0.4"/>
<text x="55" y="70" font-family="Arial, Helvetica, sans-serif" font-size="7" fill="#000000" text-anchor="middle" font-weight="bold">Crystal angle mount</text>
</svg>
