<svg xmlns="http://www.w3.org/2000/svg" viewBox="0 0 110 80" width="110" height="80" font-family="Arial, Helvetica, sans-serif">
<defs>
<marker id="arrowhead" markerWidth="6" markerHeight="4" refX="5" refY="2" orient="auto"><polygon points="0,0 6,2 0,4" fill="#1a1a1a"/></marker>
<marker id="arrowhead-beam" markerWidth="6" markerHeight="4" refX="5" refY="2" orient="auto"><polygon points="0,0 6,2 0,4" fill="#c0392b"/></marker>
</defs>
<rect x="18" y="12" width="65" height="12" rx="2" fill="#f0f0f0" stroke="#1a1a1a" stroke-width="0.5"/>
<rect x="15" y="55" width="70" height="10" rx="2" fill="#f0f0f0" stroke="#1a1a1a" stroke-width="0.5"/>
<line x1="25" y1="24" x2="20" y2="55" stroke="#1a1a1a" stroke-width="0.6"/>
<line x1="30" y1="24" x2="15" y2="55" stroke="#1a1a1a" stroke-width="0.6"/>
<circle cx="25" cy="24" r="1.5" fill="#1a1a1a" opacity="0.4"/>
<circle cx="20" cy="55" r="1.5" fill="#1a1a1a" opacity="0.4"/>
<line x1="50" y1="24" x2="50" y2="55" stroke="#1a1a1a" stroke-width="0.6"/>
<line x1="55" y1="24" x2="45" y2="55" stroke="#1a1a1a" stroke-width="0.6"/>
<circle cx="50" cy="24" r="1.5" fill="#1a1a1a" opacity="0.4"/>
<circle cx="50" cy="55" r="1.5" fill="#1a1a1a" opacity="0.4"/>
<line x1="75" y1="24" x2="80" y2="55" stroke="#1a1a1a" stroke-width="0.6"/>
<line x1="80" y1="24" x2="75" y2="55" stroke="#1a1a1a" stroke-width="0.6"/>
<circle cx="75" cy="24" r="1.5" fill="#1a1a1a" opacity="0.4"/>
<circle cx="80" cy="55" r="1.5" fill="#1a1a1a" opacity="0.4"/>
<text x="50" y="8" font-family="Arial, Helvetica, sans-serif" font-size="5.5" fill="#888888" text-anchor="middle" font-weight="normal">6-DOF</text>
<text x="50" y="75" font-family="Arial, Helvetica, sans-serif" font-size="7" fill="#1a1a1a" text-anchor="middle" font-weight="bold">Hexapod</text>
</svg>
