<?xml version="1.0" encoding="UTF-8"?>
<svg xmlns="http://www.w3.org/2000/svg" viewBox="0 0 180 55" width="180" height="55">
<defs>
  <marker id="arrowhead" markerWidth="6" markerHeight="4" refX="5" refY="2" orient="auto">
    <polygon points="0 0, 6 2, 0 4" fill="#000000" />
  </marker>
  <linearGradient id="fiber-grad" x1="0" y1="0" x2="0" y2="1">
      <stop offset="0%" stop-color="#ADACC6"/>
      <stop offset="22%" stop-color="#1B1E89"/>
      <stop offset="100%" stop-color="#0D0F42"/>
    </linearGradient>
  <linearGradient id="diode-grad" x1="0" y1="0" x2="0" y2="1">
      <stop offset="0%" stop-color="#F8F0E0"/>
      <stop offset="50%" stop-color="#D8C8A8"/>
      <stop offset="100%" stop-color="#A89878"/>
    </linearGradient>
</defs>
<rect x="15" y="10" width="55" height="35" rx="2" fill="url(#diode-grad)" stroke="#000000" stroke-width="0.75"/>
<polygon points="30,18 30,37 50,27.5" fill="#CC3300" stroke="#000000" stroke-width="0.5" opacity="1"/>
<line x1="50" y1="18" x2="50" y2="37" stroke="#000000" stroke-width="0.75"/>
<rect x="75" y="14" width="16" height="26" rx="1" fill="GRADIENT" stroke="#000000" stroke-width="0.5"/>
<line x1="77" y1="17" x2="89" y2="17" stroke="#444444" stroke-width="0.3" opacity="0.4"/>
<line x1="77" y1="20" x2="89" y2="20" stroke="#444444" stroke-width="0.3" opacity="0.4"/>
<line x1="77" y1="23" x2="89" y2="23" stroke="#444444" stroke-width="0.3" opacity="0.4"/>
<line x1="77" y1="26" x2="89" y2="26" stroke="#444444" stroke-width="0.3" opacity="0.4"/>
<line x1="77" y1="29" x2="89" y2="29" stroke="#444444" stroke-width="0.3" opacity="0.4"/>
<line x1="77" y1="32" x2="89" y2="32" stroke="#444444" stroke-width="0.3" opacity="0.4"/>
<line x1="77" y1="35" x2="89" y2="35" stroke="#444444" stroke-width="0.3" opacity="0.4"/>
<text x="83" y="44" font-family="Helvetica, Arial, sans-serif" font-size="6" fill="#000000" text-anchor="middle" font-weight="normal" font-style="normal">VBG</text>
<line x1="91" y1="27.5" x2="175" y2="27.5" stroke="url(#pump-grad)" stroke-width="3.0" stroke-linecap="round" />
<line x1="30" y1="10" x2="30" y2="3" stroke="#000000" stroke-width="0.75"/>
<text x="100" y="52" font-family="Helvetica, Arial, sans-serif" font-size="8" fill="#000000" text-anchor="middle" font-weight="bold" font-style="normal">VBG-stabilized pump</text>
</svg>
