<svg xmlns="http://www.w3.org/2000/svg" viewBox="0 0 200 100" width="200" height="100" font-family="Arial, Helvetica, sans-serif">
<defs>
<marker id="arrowhead" markerWidth="6" markerHeight="4" refX="5" refY="2" orient="auto"><polygon points="0,0 6,2 0,4" fill="#1a1a1a"/></marker>
<marker id="arrowhead-beam" markerWidth="6" markerHeight="4" refX="5" refY="2" orient="auto"><polygon points="0,0 6,2 0,4" fill="#c0392b"/></marker>
</defs>
<line x1="5" y1="30" x2="25" y2="30" stroke="#c0392b" stroke-width="0.6" opacity="0.4"/>
<rect x="28" y="18" width="22" height="24" rx="2" fill="#f4f6fa" stroke="#1a1a1a" stroke-width="0.5"/>
<text x="39" y="32" font-family="Arial, Helvetica, sans-serif" font-size="4.5" fill="#1a1a1a" text-anchor="middle" font-weight="normal">S₁</text>
<line x1="5" y1="65" x2="25" y2="65" stroke="#c0392b" stroke-width="0.6" opacity="0.4"/>
<rect x="28" y="53" width="22" height="24" rx="2" fill="#f4f6fa" stroke="#1a1a1a" stroke-width="0.5"/>
<text x="39" y="67" font-family="Arial, Helvetica, sans-serif" font-size="4.5" fill="#1a1a1a" text-anchor="middle" font-weight="normal">S₂</text>
<line x1="50" y1="25" x2="90" y2="25" stroke="#c0392b" stroke-width="0.6" opacity="0.3"/>
<line x1="50" y1="35" x2="90" y2="50" stroke="#c0392b" stroke-width="0.6" opacity="0.3"/>
<line x1="50" y1="60" x2="90" y2="50" stroke="#c0392b" stroke-width="0.6" opacity="0.3"/>
<line x1="50" y1="70" x2="90" y2="70" stroke="#c0392b" stroke-width="0.6" opacity="0.3"/>
<rect x="92" y="40" width="18" height="18" fill="#f4f6fa" stroke="#1a1a1a" stroke-width="0.5"/>
<text x="101" y="52" font-family="Arial, Helvetica, sans-serif" font-size="4.5" fill="#1a1a1a" text-anchor="middle" font-weight="normal">PBS</text>
<line x1="110" y1="50" x2="190" y2="50" stroke="#c0392b" stroke-width="0.6" opacity="0.4"/>
<line x1="90" y1="25" x2="190" y2="25" stroke="#c0392b" stroke-width="0.6" opacity="0.4"/>
<line x1="90" y1="70" x2="190" y2="70" stroke="#c0392b" stroke-width="0.6" opacity="0.4"/>
<line x1="140" y1="25" x2="175" y2="25" stroke="#c0392b" stroke-width="0.6" marker-end="url(#arrowhead-beam)"/>
<line x1="140" y1="50" x2="175" y2="50" stroke="#c0392b" stroke-width="0.6" marker-end="url(#arrowhead-beam)"/>
<line x1="140" y1="70" x2="175" y2="70" stroke="#c0392b" stroke-width="0.6" marker-end="url(#arrowhead-beam)"/>
<text x="185" y="22" font-family="Arial, Helvetica, sans-serif" font-size="5.5" fill="#888888" text-anchor="middle" font-weight="normal">A</text>
<text x="185" y="47" font-family="Arial, Helvetica, sans-serif" font-size="5.5" fill="#888888" text-anchor="middle" font-weight="normal">B</text>
<text x="185" y="67" font-family="Arial, Helvetica, sans-serif" font-size="5.5" fill="#888888" text-anchor="middle" font-weight="normal">C</text>
<text x="100" y="92" font-family="Arial, Helvetica, sans-serif" font-size="7" fill="#1a1a1a" text-anchor="middle" font-weight="bold">GHZ state generator</text>
</svg>
