<svg xmlns="http://www.w3.org/2000/svg" viewBox="0 0 160 110" width="160" height="110" font-family="Arial, Helvetica, sans-serif">
<defs>
<marker id="arrowhead" markerWidth="6" markerHeight="4" refX="5" refY="2" orient="auto"><polygon points="0,0 6,2 0,4" fill="#1a1a1a"/></marker>
<marker id="arrowhead-beam" markerWidth="6" markerHeight="4" refX="5" refY="2" orient="auto"><polygon points="0,0 6,2 0,4" fill="#c0392b"/></marker>
</defs>
<rect x="55" y="35" width="30" height="30" fill="#f4f6fa" stroke="#1a1a1a" stroke-width="0.5"/>
<line x1="55" y1="65" x2="85" y2="35" stroke="#888888" stroke-width="0.5" opacity="0.4"/>
<line x1="5" y1="50" x2="55" y2="50" stroke="#c0392b" stroke-width="0.6" opacity="0.5"/>
<line x1="10" y1="50" x2="35" y2="50" stroke="#c0392b" stroke-width="0.6" marker-end="url(#arrowhead-beam)"/>
<line x1="70" y1="5" x2="70" y2="35" stroke="#c0392b" stroke-width="0.6" opacity="0.5"/>
<line x1="70" y1="10" x2="70" y2="25" stroke="#c0392b" stroke-width="0.6" marker-end="url(#arrowhead-beam)"/>
<text x="8" y="44" font-family="Arial, Helvetica, sans-serif" font-size="4.5" fill="#888888" text-anchor="middle" font-weight="normal">photon 1</text>
<text x="78" y="12" font-family="Arial, Helvetica, sans-serif" font-size="4.5" fill="#888888" text-anchor="middle" font-weight="normal">photon 2</text>
<line x1="85" y1="50" x2="130" y2="50" stroke="#c0392b" stroke-width="0.6" opacity="0.4"/>
<rect x="133" y="42" width="16" height="16" rx="2" fill="#1a1a1a" stroke="#1a1a1a" stroke-width="0.4" opacity="0.3"/>
<text x="141" y="52" font-family="Arial, Helvetica, sans-serif" font-size="4.5" fill="#1a1a1a" text-anchor="middle" font-weight="normal">D₁</text>
<line x1="70" y1="65" x2="70" y2="90" stroke="#c0392b" stroke-width="0.6" opacity="0.4"/>
<rect x="62" y="92" width="16" height="16" rx="2" fill="#1a1a1a" stroke="#1a1a1a" stroke-width="0.4" opacity="0.3"/>
<text x="70" y="102" font-family="Arial, Helvetica, sans-serif" font-size="4.5" fill="#1a1a1a" text-anchor="middle" font-weight="normal">D₂</text>
<text x="70" y="15" font-family="Arial, Helvetica, sans-serif" font-size="7" fill="#1a1a1a" text-anchor="middle" font-weight="bold"></text>
<text x="80" y="108" font-family="Arial, Helvetica, sans-serif" font-size="7" fill="#1a1a1a" text-anchor="middle" font-weight="bold">HOM interferometer</text>
</svg>
