<?xml version="1.0" encoding="UTF-8"?>
<svg xmlns="http://www.w3.org/2000/svg" viewBox="0 0 180 65" width="180" height="65">
<defs>
  <marker id="arrowhead" markerWidth="6" markerHeight="4" refX="5" refY="2" orient="auto">
    <polygon points="0 0, 6 2, 0 4" fill="#1a1a1a" />
  </marker>
  <marker id="arrowhead-beam" markerWidth="6" markerHeight="4" refX="5" refY="2" orient="auto">
    <polygon points="0 0, 6 2, 0 4" fill="#c0392b" />
  </marker>
  <marker id="arrowhead-gray" markerWidth="5" markerHeight="3.5" refX="4" refY="1.75" orient="auto">
    <polygon points="0 0, 5 1.75, 0 3.5" fill="#888888" />
  </marker>
</defs>
<rect x="15" y="10" width="90" height="45" rx="3" fill="#f0f0f0" stroke="#1a1a1a" stroke-width="0.5"/>
<polygon points="30,18 30,26 45,22" fill="#1a1a1a" stroke="#1a1a1a" stroke-width="0.3" opacity="0.3"/>
<polygon points="30,28 30,36 45,32" fill="#1a1a1a" stroke="#1a1a1a" stroke-width="0.3" opacity="0.3"/>
<polygon points="30,38 30,46 45,42" fill="#1a1a1a" stroke="#1a1a1a" stroke-width="0.3" opacity="0.3"/>
<path d="M50,22 L70,32 M50,32 L70,32 M50,42 L70,32" fill="none" stroke="#1a1a1a" stroke-width="0.4"/>
<line x1="105" y1="32" x2="175" y2="32" stroke="#333333" stroke-width="1.4" stroke-linecap="round"/>
<line x1="30" y1="10" x2="30" y2="3" stroke="#1a1a1a" stroke-width="0.75"/>
<line x1="55" y1="10" x2="55" y2="3" stroke="#1a1a1a" stroke-width="0.75"/>
<text x="140" y="24" font-family="Arial, Helvetica, sans-serif" font-size="6" fill="#c0392b" text-anchor="middle" font-weight="normal" font-style="normal">976 nm</text>
<text x="90" y="62" font-family="Arial, Helvetica, sans-serif" font-size="8" fill="#1a1a1a" text-anchor="middle" font-weight="bold" font-style="normal">MM pump module</text>
</svg>
