<?xml version="1.0" encoding="UTF-8"?>
<svg xmlns="http://www.w3.org/2000/svg" viewBox="0 0 200 80" width="200" height="80">
<defs>
  <marker id="arrowhead" markerWidth="6" markerHeight="4" refX="5" refY="2" orient="auto">
    <polygon points="0 0, 6 2, 0 4" fill="#1a1a1a" />
  </marker>
  <marker id="arrowhead-beam" markerWidth="6" markerHeight="4" refX="5" refY="2" orient="auto">
    <polygon points="0 0, 6 2, 0 4" fill="#c0392b" />
  </marker>
  <marker id="arrowhead-gray" markerWidth="5" markerHeight="3.5" refX="4" refY="1.75" orient="auto">
    <polygon points="0 0, 5 1.75, 0 3.5" fill="#888888" />
  </marker>
</defs>
<rect x="20" y="8" width="140" height="60" rx="3" fill="#f0f0f0" stroke="#1a1a1a" stroke-width="0.5" />
<rect x="30" y="16" width="40" height="16" rx="2" fill="#f0f0f0" stroke="#1a1a1a" stroke-width="0.4"/>
<text x="50" y="27" font-family="Arial, Helvetica, sans-serif" font-size="6" fill="#1a1a1a" text-anchor="middle" font-weight="normal" font-style="normal">Pump A</text>
<rect x="30" y="40" width="40" height="16" rx="2" fill="#f0f0f0" stroke="#1a1a1a" stroke-width="0.4"/>
<text x="50" y="51" font-family="Arial, Helvetica, sans-serif" font-size="6" fill="#1a1a1a" text-anchor="middle" font-weight="normal" font-style="normal">Pump B</text>
<path d="M70,24 L100,38" fill="none" stroke="#c0392b" stroke-width="0.5"/>
<path d="M70,48 L100,38" fill="none" stroke="#c0392b" stroke-width="0.5" stroke-dasharray="2,2"/>
<circle cx="100" cy="38" r="3" fill="#f0f0f0" stroke="#1a1a1a" stroke-width="0.4"/>
<rect x="112" y="30" width="35" height="16" rx="1" fill="#f0f0f0" stroke="#1a1a1a" stroke-width="0.3"/>
<text x="130" y="41" font-family="Arial, Helvetica, sans-serif" font-size="6" fill="#1a1a1a" text-anchor="middle" font-weight="normal" font-style="normal">ctrl</text>
<line x1="160" y1="38" x2="195" y2="38" stroke="#333333" stroke-width="0.7" stroke-linecap="round" />
<line x1="168" y1="38" x2="185" y2="38" stroke="#888888" stroke-width="0.5" marker-end="url(#arrowhead-gray)" />
<text x="100" y="76" font-family="Arial, Helvetica, sans-serif" font-size="8" fill="#1a1a1a" text-anchor="middle" font-weight="bold" font-style="normal">Pump redundancy</text>
</svg>
