<?xml version="1.0" encoding="UTF-8"?>
<svg xmlns="http://www.w3.org/2000/svg" viewBox="0 0 180 80" width="180" height="80">
<defs>
  <marker id="arrowhead" markerWidth="6" markerHeight="4" refX="5" refY="2" orient="auto">
    <polygon points="0 0, 6 2, 0 4" fill="#1a1a1a" />
  </marker>
  <marker id="arrowhead-beam" markerWidth="6" markerHeight="4" refX="5" refY="2" orient="auto">
    <polygon points="0 0, 6 2, 0 4" fill="#c0392b" />
  </marker>
  <marker id="arrowhead-gray" markerWidth="5" markerHeight="3.5" refX="4" refY="1.75" orient="auto">
    <polygon points="0 0, 5 1.75, 0 3.5" fill="#888888" />
  </marker>
</defs>
<line x1="5" y1="20" x2="45" y2="20" stroke="#333333" stroke-width="0.7" stroke-linecap="round" />
<line x1="10" y1="20" x2="28" y2="20" stroke="#888888" stroke-width="0.5" marker-end="url(#arrowhead-gray)" />
<text x="8" y="14" font-family="Arial, Helvetica, sans-serif" font-size="7" fill="#888888" text-anchor="start" font-weight="normal" font-style="italic">λ₁</text>
<line x1="5" y1="40" x2="45" y2="40" stroke="#333333" stroke-width="0.7" stroke-linecap="round" />
<line x1="10" y1="40" x2="28" y2="40" stroke="#888888" stroke-width="0.5" marker-end="url(#arrowhead-gray)" />
<text x="8" y="34" font-family="Arial, Helvetica, sans-serif" font-size="7" fill="#888888" text-anchor="start" font-weight="normal" font-style="italic">λ₂</text>
<line x1="5" y1="60" x2="45" y2="60" stroke="#333333" stroke-width="0.7" stroke-linecap="round" />
<line x1="10" y1="60" x2="28" y2="60" stroke="#888888" stroke-width="0.5" marker-end="url(#arrowhead-gray)" />
<text x="8" y="54" font-family="Arial, Helvetica, sans-serif" font-size="7" fill="#888888" text-anchor="start" font-weight="normal" font-style="italic">λ₃</text>
<rect x="45" y="10" width="55" height="60" rx="3" fill="#f0f0f0" stroke="#1a1a1a" stroke-width="0.5" />
<text x="72" y="44" font-family="Arial, Helvetica, sans-serif" font-size="6" fill="#1a1a1a" text-anchor="middle" font-weight="normal" font-style="normal">WDM</text>
<line x1="100" y1="40" x2="175" y2="40" stroke="#333333" stroke-width="0.7" stroke-linecap="round" />
<line x1="130" y1="40" x2="150" y2="40" stroke="#888888" stroke-width="0.5" marker-end="url(#arrowhead-gray)" />
<text x="173" y="34" font-family="Arial, Helvetica, sans-serif" font-size="7" fill="#888888" text-anchor="end" font-weight="normal" font-style="italic">out</text>
<text x="90" y="78" font-family="Arial, Helvetica, sans-serif" font-size="8" fill="#1a1a1a" text-anchor="middle" font-weight="bold" font-style="normal">Seed combiner</text>
</svg>
