<?xml version="1.0" encoding="UTF-8"?>
<svg xmlns="http://www.w3.org/2000/svg" viewBox="0 0 160 55" width="160" height="55">
<defs>
  <marker id="arrowhead" markerWidth="6" markerHeight="4" refX="5" refY="2" orient="auto">
    <polygon points="0 0, 6 2, 0 4" fill="#000000" />
  </marker>
</defs>
<rect x="15" y="8" width="105" height="37" rx="2" fill="#D4D8E8" stroke="#000000" stroke-width="0.75"/>
<rect x="5" y="14" width="10" height="25" fill="#000000" opacity="0.2"/>
<line x1="5" y1="16" x2="12" y2="16" stroke="#000000" stroke-width="0.2" opacity="0.4"/>
<line x1="5" y1="18" x2="12" y2="18" stroke="#000000" stroke-width="0.2" opacity="0.4"/>
<line x1="5" y1="20" x2="12" y2="20" stroke="#000000" stroke-width="0.2" opacity="0.4"/>
<line x1="5" y1="22" x2="12" y2="22" stroke="#000000" stroke-width="0.2" opacity="0.4"/>
<line x1="5" y1="24" x2="12" y2="24" stroke="#000000" stroke-width="0.2" opacity="0.4"/>
<line x1="5" y1="26" x2="12" y2="26" stroke="#000000" stroke-width="0.2" opacity="0.4"/>
<line x1="5" y1="28" x2="12" y2="28" stroke="#000000" stroke-width="0.2" opacity="0.4"/>
<line x1="5" y1="30" x2="12" y2="30" stroke="#000000" stroke-width="0.2" opacity="0.4"/>
<line x1="5" y1="32" x2="12" y2="32" stroke="#000000" stroke-width="0.2" opacity="0.4"/>
<line x1="5" y1="34" x2="12" y2="34" stroke="#000000" stroke-width="0.2" opacity="0.4"/>
<line x1="5" y1="36" x2="12" y2="36" stroke="#000000" stroke-width="0.2" opacity="0.4"/>
<line x1="5" y1="38" x2="12" y2="38" stroke="#000000" stroke-width="0.2" opacity="0.4"/>
<rect x="120" y="12" width="10" height="29" rx="1" fill="#000000" opacity="0.3"/>
<line x1="130" y1="15" x2="155" y2="15" stroke="#1B1E89" stroke-width="0.8"/>
<line x1="130" y1="23" x2="155" y2="23" stroke="#1B1E89" stroke-width="0.8"/>
<line x1="130" y1="32" x2="155" y2="32" stroke="#1B1E89" stroke-width="0.8"/>
<line x1="130" y1="40" x2="155" y2="40" stroke="#1B1E89" stroke-width="0.8"/>
<text x="67" y="29" font-family="Helvetica, Arial, sans-serif" font-size="6" fill="#000000" text-anchor="middle" font-weight="normal" font-style="normal">CFP2</text>
<text x="80" y="51" font-family="Helvetica, Arial, sans-serif" font-size="8" fill="#000000" text-anchor="middle" font-weight="bold" font-style="normal">CFP2 (200G)</text>
</svg>
