<?xml version="1.0" encoding="UTF-8"?>
<svg xmlns="http://www.w3.org/2000/svg" viewBox="0 0 200 90" width="200" height="90">
<defs>
  <marker id="arrowhead" markerWidth="6" markerHeight="4" refX="5" refY="2" orient="auto">
    <polygon points="0 0, 6 2, 0 4" fill="#1a1a1a" />
  </marker>
  <marker id="arrowhead-beam" markerWidth="6" markerHeight="4" refX="5" refY="2" orient="auto">
    <polygon points="0 0, 6 2, 0 4" fill="#c0392b" />
  </marker>
  <marker id="arrowhead-gray" markerWidth="5" markerHeight="3.5" refX="4" refY="1.75" orient="auto">
    <polygon points="0 0, 5 1.75, 0 3.5" fill="#888888" />
  </marker>
</defs>
<line x1="5" y1="30" x2="40" y2="30" stroke="#333333" stroke-width="0.7" stroke-linecap="round" />
<line x1="5" y1="60" x2="40" y2="60" stroke="#333333" stroke-width="0.7" stroke-linecap="round" />
<line x1="8" y1="30" x2="22" y2="30" stroke="#888888" stroke-width="0.5" marker-end="url(#arrowhead-gray)" />
<line x1="8" y1="60" x2="22" y2="60" stroke="#888888" stroke-width="0.5" marker-end="url(#arrowhead-gray)" />
<rect x="40" y="15" width="100" height="60" rx="3" fill="#f0f0f0" stroke="#1a1a1a" stroke-width="0.5" />
<rect x="55" y="35" width="20" height="20" rx="2" fill="none" stroke="#1a1a1a" stroke-width="0.4"/>
<text x="65" y="48" font-family="Arial, Helvetica, sans-serif" font-size="4" fill="#1a1a1a" text-anchor="middle" font-weight="normal" font-style="normal">BS</text>
<polygon points="110,21 120,25 110,29" fill="#1a1a1a" stroke="#1a1a1a" stroke-width="0.3" opacity="0.3"/>
<line x1="120" y1="25" x2="135" y2="25" stroke="#1a1a1a" stroke-width="0.35"/>
<polygon points="110,36 120,40 110,44" fill="#1a1a1a" stroke="#1a1a1a" stroke-width="0.3" opacity="0.3"/>
<line x1="120" y1="40" x2="135" y2="40" stroke="#1a1a1a" stroke-width="0.35"/>
<polygon points="110,51 120,55 110,59" fill="#1a1a1a" stroke="#1a1a1a" stroke-width="0.3" opacity="0.3"/>
<line x1="120" y1="55" x2="135" y2="55" stroke="#1a1a1a" stroke-width="0.35"/>
<polygon points="110,66 120,70 110,74" fill="#1a1a1a" stroke="#1a1a1a" stroke-width="0.3" opacity="0.3"/>
<line x1="120" y1="70" x2="135" y2="70" stroke="#1a1a1a" stroke-width="0.35"/>
<text x="8" y="24" font-family="Arial, Helvetica, sans-serif" font-size="7" fill="#888888" text-anchor="start" font-weight="normal" font-style="italic">A</text>
<text x="8" y="54" font-family="Arial, Helvetica, sans-serif" font-size="7" fill="#888888" text-anchor="start" font-weight="normal" font-style="italic">B</text>
<text x="133" y="19" font-family="Arial, Helvetica, sans-serif" font-size="6" fill="#1a1a1a" text-anchor="middle" font-weight="bold" font-style="normal">D1</text>
<text x="133" y="64" font-family="Arial, Helvetica, sans-serif" font-size="6" fill="#1a1a1a" text-anchor="middle" font-weight="bold" font-style="normal">D4</text>
<text x="90" y="86" font-family="Arial, Helvetica, sans-serif" font-size="8" fill="#1a1a1a" text-anchor="middle" font-weight="bold" font-style="normal">Bell state analyzer</text>
</svg>
