<?xml version="1.0" encoding="UTF-8"?>
<svg xmlns="http://www.w3.org/2000/svg" viewBox="0 0 220 70" width="220" height="70">
<defs>
  <marker id="arrowhead" markerWidth="6" markerHeight="4" refX="5" refY="2" orient="auto">
    <polygon points="0 0, 6 2, 0 4" fill="#1a1a1a" />
  </marker>
  <marker id="arrowhead-beam" markerWidth="6" markerHeight="4" refX="5" refY="2" orient="auto">
    <polygon points="0 0, 6 2, 0 4" fill="#c0392b" />
  </marker>
  <marker id="arrowhead-gray" markerWidth="5" markerHeight="3.5" refX="4" refY="1.75" orient="auto">
    <polygon points="0 0, 5 1.75, 0 3.5" fill="#888888" />
  </marker>
</defs>
<rect x="30" y="10" width="130" height="45" rx="3" fill="#f0f0f0" stroke="#1a1a1a" stroke-width="0.5" />
<line x1="10" y1="32" x2="30" y2="32" stroke="#c0392b" stroke-width="0.6"/>
<text x="15" y="26" font-family="Arial, Helvetica, sans-serif" font-size="6" fill="#c0392b" text-anchor="middle" font-weight="normal" font-style="normal">pump</text>
<rect x="55" y="22" width="16" height="16" rx="1" fill="#f0f0f0" stroke="#1a1a1a" stroke-width="0.5" />
<text x="63" y="33" font-family="Arial, Helvetica, sans-serif" font-size="4" fill="#1a1a1a" text-anchor="middle" font-weight="normal" font-style="normal">PBS</text>
<path d="M71,26 C90,12 120,12 135,26" fill="none" stroke="#1a1a1a" stroke-width="0.4"/>
<path d="M71,34 C90,48 120,48 135,34" fill="none" stroke="#1a1a1a" stroke-width="0.4"/>
<rect x="92" y="16" width="16" height="8" rx="1" fill="#f0f0f0" stroke="#1a1a1a" stroke-width="0.3"/>
<text x="100" y="22" font-family="Arial, Helvetica, sans-serif" font-size="4" fill="#1a1a1a" text-anchor="middle" font-weight="normal" font-style="normal">χ²</text>
<line x1="160" y1="25" x2="215" y2="25" stroke="#333333" stroke-width="0.7" stroke-linecap="round" />
<line x1="160" y1="40" x2="215" y2="40" stroke="#333333" stroke-width="0.7" stroke-linecap="round" />
<line x1="175" y1="25" x2="195" y2="25" stroke="#888888" stroke-width="0.5" marker-end="url(#arrowhead-gray)" />
<line x1="175" y1="40" x2="195" y2="40" stroke="#888888" stroke-width="0.5" marker-end="url(#arrowhead-gray)" />
<text x="213" y="19" font-family="Arial, Helvetica, sans-serif" font-size="7" fill="#888888" text-anchor="end" font-weight="normal" font-style="italic">H/V</text>
<text x="213" y="46" font-family="Arial, Helvetica, sans-serif" font-size="7" fill="#888888" text-anchor="end" font-weight="normal" font-style="italic">H/V</text>
<text x="110" y="66" font-family="Arial, Helvetica, sans-serif" font-size="8" fill="#1a1a1a" text-anchor="middle" font-weight="bold" font-style="normal">Pol. entanglement source</text>
</svg>
