<?xml version="1.0" encoding="UTF-8"?>
<svg xmlns="http://www.w3.org/2000/svg" viewBox="0 0 120 60" width="120" height="60">
<defs>
  <marker id="arrowhead" markerWidth="6" markerHeight="4" refX="5" refY="2" orient="auto">
    <polygon points="0 0, 6 2, 0 4" fill="#000000" />
  </marker>
  <linearGradient id="fiber-grad" x1="0" y1="0" x2="0" y2="1">
      <stop offset="0%" stop-color="#ADACC6"/>
      <stop offset="22%" stop-color="#1B1E89"/>
      <stop offset="100%" stop-color="#0D0F42"/>
    </linearGradient>
  <linearGradient id="comp-grad" x1="0" y1="0" x2="0" y2="1">
      <stop offset="0%" stop-color="#F0F0F8"/>
      <stop offset="50%" stop-color="#B0B0C8"/>
      <stop offset="100%" stop-color="#707088"/>
    </linearGradient>
</defs>
<line x1="5" y1="30" x2="50" y2="30" stroke="url(#fiber-grad)" stroke-width="3.0" stroke-linecap="round" />
<rect x="50" y="18" width="24" height="24" rx="2" fill="url(#comp-grad)" stroke="#000000" stroke-width="0.75" />
<text x="62" y="33" font-family="Helvetica, Arial, sans-serif" font-size="6" fill="#000000" text-anchor="middle" font-weight="normal" font-style="normal">45°</text>
<line x1="80" y1="10" x2="80" y2="50" stroke="#000000" stroke-width="2.0"/>
<line x1="80" y1="12" x2="88" y2="7" stroke="#444444" stroke-width="0.5"/>
<line x1="80" y1="17" x2="88" y2="12" stroke="#444444" stroke-width="0.5"/>
<line x1="80" y1="22" x2="88" y2="17" stroke="#444444" stroke-width="0.5"/>
<line x1="80" y1="27" x2="88" y2="22" stroke="#444444" stroke-width="0.5"/>
<line x1="80" y1="32" x2="88" y2="27" stroke="#444444" stroke-width="0.5"/>
<line x1="80" y1="37" x2="88" y2="32" stroke="#444444" stroke-width="0.5"/>
<line x1="80" y1="42" x2="88" y2="37" stroke="#444444" stroke-width="0.5"/>
<line x1="80" y1="47" x2="88" y2="42" stroke="#444444" stroke-width="0.5"/>
<text x="50" y="56" font-family="Helvetica, Arial, sans-serif" font-size="8" fill="#000000" text-anchor="middle" font-weight="bold" font-style="normal">Faraday mirror</text>
</svg>
