<?xml version="1.0" encoding="UTF-8"?>
<svg xmlns="http://www.w3.org/2000/svg" viewBox="0 0 180 130" width="180" height="130">
<defs>
  <marker id="arrowhead" markerWidth="6" markerHeight="4" refX="5" refY="2" orient="auto">
    <polygon points="0 0, 6 2, 0 4" fill="#000000" />
  </marker>
  <linearGradient id="comp-grad" x1="0" y1="0" x2="0" y2="1">
      <stop offset="0%" stop-color="#F0F0F8"/>
      <stop offset="50%" stop-color="#B0B0C8"/>
      <stop offset="100%" stop-color="#707088"/>
    </linearGradient>
</defs>
<circle cx="90" cy="60" r="28" fill="url(#comp-grad)" stroke="#000000" stroke-width="0.75" />
<path d="M90,48 A10,10 0 1,1 95,62" fill="none" stroke="#CC0000" stroke-width="0.6" marker-end="url(#arrowhead)"/>
<line x1="5" y1="45" x2="62" y2="45" stroke="url(#fiber-grad)" stroke-width="3.0" stroke-linecap="round" />
<line x1="118" y1="45" x2="175" y2="45" stroke="url(#fiber-grad)" stroke-width="3.0" stroke-linecap="round" />
<line x1="5" y1="80" x2="62" y2="80" stroke="url(#fiber-grad)" stroke-width="3.0" stroke-linecap="round" />
<line x1="12" y1="40" x2="12" y2="50" stroke="#CC0000" stroke-width="0.5"/>
<line x1="22" y1="40" x2="22" y2="50" stroke="#CC0000" stroke-width="0.5"/>
<line x1="32" y1="40" x2="32" y2="50" stroke="#CC0000" stroke-width="0.5"/>
<line x1="42" y1="40" x2="42" y2="50" stroke="#CC0000" stroke-width="0.5"/>
<line x1="52" y1="40" x2="52" y2="50" stroke="#CC0000" stroke-width="0.5"/>
<line x1="125" y1="40" x2="125" y2="50" stroke="#CC0000" stroke-width="0.5"/>
<line x1="135" y1="40" x2="135" y2="50" stroke="#CC0000" stroke-width="0.5"/>
<line x1="145" y1="40" x2="145" y2="50" stroke="#CC0000" stroke-width="0.5"/>
<line x1="155" y1="40" x2="155" y2="50" stroke="#CC0000" stroke-width="0.5"/>
<line x1="165" y1="40" x2="165" y2="50" stroke="#CC0000" stroke-width="0.5"/>
<text x="8" y="38" font-family="Helvetica, Arial, sans-serif" font-size="7" fill="#444444" text-anchor="start" font-weight="normal" font-style="normal">1</text>
<text x="172" y="38" font-family="Helvetica, Arial, sans-serif" font-size="7" fill="#444444" text-anchor="end" font-weight="normal" font-style="normal">2</text>
<text x="8" y="92" font-family="Helvetica, Arial, sans-serif" font-size="7" fill="#444444" text-anchor="start" font-weight="normal" font-style="normal">3</text>
<text x="90" y="63" font-family="Helvetica, Arial, sans-serif" font-size="6" fill="#CC0000" text-anchor="middle" font-weight="normal" font-style="normal">1→2→3</text>
<text x="90" y="120" font-family="Helvetica, Arial, sans-serif" font-size="8" fill="#000000" text-anchor="middle" font-weight="bold" font-style="normal">PM Circulator</text>
</svg>
