<?xml version="1.0" encoding="UTF-8"?>
<svg xmlns="http://www.w3.org/2000/svg" viewBox="0 0 140 55" width="140" height="55">
<defs>
  <marker id="arrowhead" markerWidth="6" markerHeight="4" refX="5" refY="2" orient="auto">
    <polygon points="0 0, 6 2, 0 4" fill="#000000" />
  </marker>
  <linearGradient id="fiber-grad" x1="0" y1="0" x2="0" y2="1">
      <stop offset="0%" stop-color="#ADACC6"/>
      <stop offset="22%" stop-color="#1B1E89"/>
      <stop offset="100%" stop-color="#0D0F42"/>
    </linearGradient>
  <linearGradient id="comp-grad" x1="0" y1="0" x2="0" y2="1">
      <stop offset="0%" stop-color="#F0F0F8"/>
      <stop offset="50%" stop-color="#B0B0C8"/>
      <stop offset="100%" stop-color="#707088"/>
    </linearGradient>
</defs>
<line x1="5" y1="27" x2="25" y2="27" stroke="url(#fiber-grad)" stroke-width="3.0" stroke-linecap="round" />
<rect x="25" y="8" width="75" height="38" rx="3" fill="url(#comp-grad)" stroke="#000000" stroke-width="0.75" />
<line x1="38" y1="14" x2="38" y2="32" stroke="#000000" stroke-width="0.5" opacity="0.5"/>
<line x1="50" y1="22" x2="50" y2="40" stroke="#000000" stroke-width="0.5" opacity="0.5"/>
<line x1="62" y1="14" x2="62" y2="32" stroke="#000000" stroke-width="0.5" opacity="0.5"/>
<line x1="74" y1="22" x2="74" y2="40" stroke="#000000" stroke-width="0.5" opacity="0.5"/>
<line x1="86" y1="14" x2="86" y2="32" stroke="#000000" stroke-width="0.5" opacity="0.5"/>
<path d="M35,27 L44,20 L50,30 L56,16 L62,34 L68,18 L74,36 L80,22 L88,27" fill="none" stroke="#CC3300" stroke-width="0.4" opacity="0.4"/>
<line x1="62" y1="8" x2="62" y2="2" stroke="#000000" stroke-width="0.75"/>
<text x="69" y="5" font-family="Helvetica, Arial, sans-serif" font-size="6" fill="#000000" text-anchor="middle" font-weight="normal" font-style="normal">HV</text>
<line x1="100" y1="27" x2="135" y2="27" stroke="#000000" stroke-width="0.5"/>
<text x="133" y="21" font-family="Helvetica, Arial, sans-serif" font-size="7" fill="#444444" text-anchor="end" font-weight="normal" font-style="normal">out</text>
<text x="62" y="52" font-family="Helvetica, Arial, sans-serif" font-size="8" fill="#000000" text-anchor="middle" font-weight="bold" font-style="normal">PMT</text>
</svg>
