<?xml version="1.0" encoding="UTF-8"?>
<svg xmlns="http://www.w3.org/2000/svg" viewBox="0 0 200 70" width="200" height="70">
<defs>
  <marker id="arrowhead" markerWidth="6" markerHeight="4" refX="5" refY="2" orient="auto">
    <polygon points="0 0, 6 2, 0 4" fill="#000000" />
  </marker>
  <linearGradient id="fiber-grad" x1="0" y1="0" x2="0" y2="1">
      <stop offset="0%" stop-color="#ADACC6"/>
      <stop offset="22%" stop-color="#1B1E89"/>
      <stop offset="100%" stop-color="#0D0F42"/>
    </linearGradient>
  <linearGradient id="comp-grad" x1="0" y1="0" x2="0" y2="1">
      <stop offset="0%" stop-color="#F0F0F8"/>
      <stop offset="50%" stop-color="#B0B0C8"/>
      <stop offset="100%" stop-color="#707088"/>
    </linearGradient>
</defs>
<line x1="5" y1="35" x2="40" y2="35" stroke="url(#fiber-grad)" stroke-width="3.0" stroke-linecap="round" />
<rect x="40" y="10" width="100" height="50" rx="3" fill="url(#comp-grad)" stroke="#000000" stroke-width="0.75" />
<path d="M55,35 C62,25 72,45 82,35 C92,25 102,45 112,35" fill="none" stroke="url(#fiber-grad)" stroke-width="3.0" stroke-linecap="round" />
<line x1="85" y1="2" x2="85" y2="10" stroke="#CC3300" stroke-width="1"/>
<polygon points="82,2 85,0 88,2" fill="#CC3300" opacity="0.7"/>
<text x="93" y="8" font-family="Helvetica, Arial, sans-serif" font-size="6" fill="#CC3300" text-anchor="middle" font-weight="normal" font-style="normal">pump</text>
<text x="8" y="29" font-family="Helvetica, Arial, sans-serif" font-size="7" fill="#444444" text-anchor="start" font-weight="normal" font-style="normal">λ₁</text>
<text x="193" y="29" font-family="Helvetica, Arial, sans-serif" font-size="7" fill="#444444" text-anchor="end" font-weight="normal" font-style="normal">λ₂</text>
<line x1="140" y1="35" x2="195" y2="35" stroke="url(#fiber-grad)" stroke-width="3.0" stroke-linecap="round" />
<text x="90" y="66" font-family="Helvetica, Arial, sans-serif" font-size="8" fill="#000000" text-anchor="middle" font-weight="bold" font-style="normal">Wavelength converter</text>
</svg>
