<svg xmlns="http://www.w3.org/2000/svg" viewBox="0 0 140 80" width="140" height="80" font-family="Arial, Helvetica, sans-serif">
<defs>
<marker id="arrowhead" markerWidth="6" markerHeight="4" refX="5" refY="2" orient="auto"><polygon points="0,0 6,2 0,4" fill="#000000"/></marker>
<marker id="arrowhead-beam" markerWidth="6" markerHeight="4" refX="5" refY="2" orient="auto"><polygon points="0,0 6,2 0,4" fill="#CC0000"/></marker>
<linearGradient id="grating-grad" x1="0" y1="0" x2="0" y2="1"><stop offset="0%" stop-color="#C8C0A0"/><stop offset="100%" stop-color="#908860"/></linearGradient>
</defs>
<path d="M90,10 C75,30 75,50 90,70" fill="none" stroke="#000000" stroke-width="1.5"/>
<line x1="87" y1="14" x2="92" y2="12" stroke="#666666" stroke-width="0.3"/>
<line x1="82" y1="21" x2="87" y2="19" stroke="#666666" stroke-width="0.3"/>
<line x1="78" y1="29" x2="83" y2="27" stroke="#666666" stroke-width="0.3"/>
<line x1="75" y1="36" x2="80" y2="34" stroke="#666666" stroke-width="0.3"/>
<line x1="75" y1="44" x2="80" y2="42" stroke="#666666" stroke-width="0.3"/>
<line x1="78" y1="51" x2="83" y2="49" stroke="#666666" stroke-width="0.3"/>
<line x1="82" y1="59" x2="87" y2="57" stroke="#666666" stroke-width="0.3"/>
<line x1="87" y1="66" x2="92" y2="64" stroke="#666666" stroke-width="0.3"/>
<line x1="5" y1="28" x2="82" y2="28" stroke="#CC0000" stroke-width="0.8" opacity="0.5"/>
<line x1="10" y1="28" x2="40" y2="28" stroke="#CC0000" stroke-width="0.8" marker-end="url(#arrowhead-beam)"/>
<line x1="82" y1="28" x2="50" y2="65" stroke="#CC0000" stroke-width="0.5" opacity="0.4"/>
<circle cx="50" cy="65" r="2" fill="#CC0000" opacity="0.4"/>
<text x="48" y="62" font-family="Arial, Helvetica, sans-serif" font-size="4.5" fill="#666666" text-anchor="middle" font-weight="normal">focus</text>
<text x="70" y="78" font-family="Arial, Helvetica, sans-serif" font-size="7" fill="#000000" text-anchor="middle" font-weight="bold">Concave grating</text>
</svg>
