<?xml version="1.0" encoding="UTF-8"?>
<svg xmlns="http://www.w3.org/2000/svg" viewBox="0 0 160 55" width="160" height="55">
<defs>
  <marker id="arrowhead" markerWidth="6" markerHeight="4" refX="5" refY="2" orient="auto">
    <polygon points="0 0, 6 2, 0 4" fill="#1a1a1a" />
  </marker>
  <marker id="arrowhead-beam" markerWidth="6" markerHeight="4" refX="5" refY="2" orient="auto">
    <polygon points="0 0, 6 2, 0 4" fill="#c0392b" />
  </marker>
  <marker id="arrowhead-gray" markerWidth="5" markerHeight="3.5" refX="4" refY="1.75" orient="auto">
    <polygon points="0 0, 5 1.75, 0 3.5" fill="#888888" />
  </marker>
</defs>
<rect x="15" y="8" width="90" height="35" rx="2" fill="#f0f0f0" stroke="#1a1a1a" stroke-width="0.5"/>
<rect x="105" y="15" width="12" height="20" rx="1" fill="#1a1a1a" opacity="0.3"/>
<line x1="117" y1="19" x2="155" y2="19" stroke="#333333" stroke-width="0.4" stroke-linecap="round"/>
<line x1="117" y1="23" x2="155" y2="23" stroke="#333333" stroke-width="0.4" stroke-linecap="round"/>
<line x1="117" y1="27" x2="155" y2="27" stroke="#333333" stroke-width="0.4" stroke-linecap="round"/>
<line x1="117" y1="31" x2="155" y2="31" stroke="#333333" stroke-width="0.4" stroke-linecap="round"/>
<rect x="5" y="14" width="10" height="22" fill="#1a1a1a" opacity="0.2"/>
<line x1="5" y1="16" x2="12" y2="16" stroke="#1a1a1a" stroke-width="0.2" opacity="0.4"/>
<line x1="5" y1="18" x2="12" y2="18" stroke="#1a1a1a" stroke-width="0.2" opacity="0.4"/>
<line x1="5" y1="20" x2="12" y2="20" stroke="#1a1a1a" stroke-width="0.2" opacity="0.4"/>
<line x1="5" y1="22" x2="12" y2="22" stroke="#1a1a1a" stroke-width="0.2" opacity="0.4"/>
<line x1="5" y1="24" x2="12" y2="24" stroke="#1a1a1a" stroke-width="0.2" opacity="0.4"/>
<line x1="5" y1="26" x2="12" y2="26" stroke="#1a1a1a" stroke-width="0.2" opacity="0.4"/>
<line x1="5" y1="28" x2="12" y2="28" stroke="#1a1a1a" stroke-width="0.2" opacity="0.4"/>
<line x1="5" y1="30" x2="12" y2="30" stroke="#1a1a1a" stroke-width="0.2" opacity="0.4"/>
<line x1="5" y1="32" x2="12" y2="32" stroke="#1a1a1a" stroke-width="0.2" opacity="0.4"/>
<line x1="5" y1="34" x2="12" y2="34" stroke="#1a1a1a" stroke-width="0.2" opacity="0.4"/>
<text x="60" y="30" font-family="Arial, Helvetica, sans-serif" font-size="6" fill="#1a1a1a" text-anchor="middle" font-weight="normal" font-style="normal">QSFP28</text>
<text x="80" y="52" font-family="Arial, Helvetica, sans-serif" font-size="8" fill="#1a1a1a" text-anchor="middle" font-weight="bold" font-style="normal">QSFP transceiver</text>
</svg>
