<svg xmlns="http://www.w3.org/2000/svg" viewBox="0 0 110 70" width="110" height="70" font-family="Arial, Helvetica, sans-serif">
<defs>
<marker id="arrowhead" markerWidth="6" markerHeight="4" refX="5" refY="2" orient="auto"><polygon points="0,0 6,2 0,4" fill="#000000"/></marker>
<marker id="arrowhead-beam" markerWidth="6" markerHeight="4" refX="5" refY="2" orient="auto"><polygon points="0,0 6,2 0,4" fill="#CC0000"/></marker>
</defs>
<line x1="5" y1="35" x2="42" y2="35" stroke="#CC0000" stroke-width="0.8" opacity="0.4"/>
<line x1="10" y1="35" x2="28" y2="35" stroke="#CC0000" stroke-width="0.8" marker-end="url(#arrowhead-beam)"/>
<rect x="45" y="8" width="8" height="54" rx="1" fill="#C8D8F0" stroke="#000000" stroke-width="0.75"/>
<line x1="45" y1="12" x2="53" y2="12" stroke="#AA8800" stroke-width="0.3" opacity="0.4"/>
<line x1="45" y1="15" x2="53" y2="15" stroke="#AA8800" stroke-width="0.3" opacity="0.4"/>
<line x1="45" y1="18" x2="53" y2="18" stroke="#AA8800" stroke-width="0.3" opacity="0.4"/>
<line x1="45" y1="21" x2="53" y2="21" stroke="#AA8800" stroke-width="0.3" opacity="0.4"/>
<line x1="45" y1="24" x2="53" y2="24" stroke="#AA8800" stroke-width="0.3" opacity="0.4"/>
<line x1="45" y1="27" x2="53" y2="27" stroke="#AA8800" stroke-width="0.3" opacity="0.4"/>
<line x1="45" y1="30" x2="53" y2="30" stroke="#AA8800" stroke-width="0.3" opacity="0.4"/>
<line x1="45" y1="33" x2="53" y2="33" stroke="#AA8800" stroke-width="0.3" opacity="0.4"/>
<line x1="45" y1="36" x2="53" y2="36" stroke="#AA8800" stroke-width="0.3" opacity="0.4"/>
<line x1="45" y1="39" x2="53" y2="39" stroke="#AA8800" stroke-width="0.3" opacity="0.4"/>
<line x1="45" y1="42" x2="53" y2="42" stroke="#AA8800" stroke-width="0.3" opacity="0.4"/>
<line x1="45" y1="45" x2="53" y2="45" stroke="#AA8800" stroke-width="0.3" opacity="0.4"/>
<line x1="45" y1="48" x2="53" y2="48" stroke="#AA8800" stroke-width="0.3" opacity="0.4"/>
<line x1="45" y1="51" x2="53" y2="51" stroke="#AA8800" stroke-width="0.3" opacity="0.4"/>
<line x1="45" y1="54" x2="53" y2="54" stroke="#AA8800" stroke-width="0.3" opacity="0.4"/>
<line x1="45" y1="57" x2="53" y2="57" stroke="#AA8800" stroke-width="0.3" opacity="0.4"/>
<line x1="53" y1="35" x2="105" y2="35" stroke="#CC0000" stroke-width="0.8" opacity="0.4"/>
<text x="49" y="68" font-family="Arial, Helvetica, sans-serif" font-size="7" fill="#000000" text-anchor="middle" font-weight="bold">Wire-grid polarizer</text>
</svg>
