<svg xmlns="http://www.w3.org/2000/svg" viewBox="0 0 220 80" width="220" height="80" font-family="Arial, Helvetica, sans-serif">
<defs>
<marker id="arrowhead" markerWidth="6" markerHeight="4" refX="5" refY="2" orient="auto"><polygon points="0,0 6,2 0,4" fill="#1a1a1a"/></marker>
<marker id="arrowhead-beam" markerWidth="6" markerHeight="4" refX="5" refY="2" orient="auto"><polygon points="0,0 6,2 0,4" fill="#c0392b"/></marker>
</defs>
<line x1="30" y1="18" x2="30" y2="58" stroke="#1a1a1a" stroke-width="0.8"/>
<line x1="30.0" y1="20.5" x2="35.0" y2="20.5" stroke="#888888" stroke-width="0.25"/>
<line x1="30.0" y1="25.5" x2="35.0" y2="25.5" stroke="#888888" stroke-width="0.25"/>
<line x1="30.0" y1="30.5" x2="35.0" y2="30.5" stroke="#888888" stroke-width="0.25"/>
<line x1="30.0" y1="35.5" x2="35.0" y2="35.5" stroke="#888888" stroke-width="0.25"/>
<line x1="30.0" y1="40.5" x2="35.0" y2="40.5" stroke="#888888" stroke-width="0.25"/>
<line x1="30.0" y1="45.5" x2="35.0" y2="45.5" stroke="#888888" stroke-width="0.25"/>
<line x1="30.0" y1="50.5" x2="35.0" y2="50.5" stroke="#888888" stroke-width="0.25"/>
<line x1="30.0" y1="55.5" x2="35.0" y2="55.5" stroke="#888888" stroke-width="0.25"/>
<line x1="170" y1="18" x2="170" y2="58" stroke="#1a1a1a" stroke-width="0.6"/>
<line x1="172" y1="18" x2="172" y2="58" stroke="#1a1a1a" stroke-width="0.6"/>
<rect x="80" y="22" width="40" height="32" rx="2" fill="#f4f6fa" stroke="#1a1a1a" stroke-width="0.5"/>
<text x="100" y="42" font-family="Arial, Helvetica, sans-serif" font-size="5.5" fill="#1a1a1a" text-anchor="middle" font-weight="normal">NLO</text>
<line x1="100" y1="5" x2="100" y2="22" stroke="#c0392b" stroke-width="0.6" opacity="0.5"/>
<polygon points="97,5 100,0 103,5" fill="#c0392b" opacity="0.6"/>
<text x="108" y="10" font-family="Arial, Helvetica, sans-serif" font-size="5.5" fill="#c0392b" text-anchor="middle" font-weight="normal">pump</text>
<line x1="32" y1="38" x2="80" y2="38" stroke="#c0392b" stroke-width="0.6" opacity="0.3"/>
<line x1="120" y1="38" x2="170" y2="38" stroke="#c0392b" stroke-width="0.6" opacity="0.3"/>
<line x1="172" y1="32" x2="215" y2="32" stroke="#c0392b" stroke-width="0.6" opacity="0.5"/>
<line x1="172" y1="44" x2="215" y2="44" stroke="#c0392b" stroke-width="0.6" opacity="0.3"/>
<text x="210" y="28" font-family="Arial, Helvetica, sans-serif" font-size="5.5" fill="#888888" text-anchor="middle" font-weight="normal">sig</text>
<text x="210" y="48" font-family="Arial, Helvetica, sans-serif" font-size="5.5" fill="#888888" text-anchor="middle" font-weight="normal">idl</text>
<text x="100" y="75" font-family="Arial, Helvetica, sans-serif" font-size="7" fill="#1a1a1a" text-anchor="middle" font-weight="bold">OPO</text>
</svg>
