<svg xmlns="http://www.w3.org/2000/svg" viewBox="0 0 140 70" width="140" height="70" font-family="Arial, Helvetica, sans-serif">
<defs>
<marker id="arrowhead" markerWidth="6" markerHeight="4" refX="5" refY="2" orient="auto"><polygon points="0,0 6,2 0,4" fill="#000000"/></marker>
<marker id="arrowhead-beam" markerWidth="6" markerHeight="4" refX="5" refY="2" orient="auto"><polygon points="0,0 6,2 0,4" fill="#CC0000"/></marker>
<linearGradient id="glass-grad" x1="0" y1="0" x2="1" y2="1"><stop offset="0%" stop-color="#D8E4F8"/><stop offset="100%" stop-color="#A8B8D8"/></linearGradient>
</defs>
<line x1="5" y1="35" x2="42" y2="35" stroke="#CC0000" stroke-width="0.8" opacity="0.5"/>
<line x1="10" y1="35" x2="28" y2="35" stroke="#CC0000" stroke-width="0.8" marker-end="url(#arrowhead-beam)"/>
<rect x="45" y="8" width="15" height="50" rx="1" fill="url(#glass-grad)" stroke="#000000" stroke-width="0.75" transform="rotate(5, 52, 33)"/>
<line x1="57" y1="30" x2="105" y2="25" stroke="#CC0000" stroke-width="0.4" opacity="0.3"/>
<line x1="60" y1="36" x2="105" y2="32" stroke="#CC0000" stroke-width="0.4" opacity="0.3"/>
<rect x="108" y="12" width="20" height="40" fill="#F0F0E8" stroke="#000000" stroke-width="0.4"/>
<line x1="110" y1="16" x2="126" y2="16" stroke="#000000" stroke-width="0.5" opacity="0.45"/>
<line x1="110" y1="20" x2="126" y2="20" stroke="#000000" stroke-width="0.5" opacity="0.22"/>
<line x1="110" y1="24" x2="126" y2="24" stroke="#000000" stroke-width="0.5" opacity="0.22"/>
<line x1="110" y1="28" x2="126" y2="28" stroke="#000000" stroke-width="0.5" opacity="0.45"/>
<line x1="110" y1="32" x2="126" y2="32" stroke="#000000" stroke-width="0.5" opacity="0.26"/>
<line x1="110" y1="36" x2="126" y2="36" stroke="#000000" stroke-width="0.5" opacity="0.19"/>
<line x1="110" y1="40" x2="126" y2="40" stroke="#000000" stroke-width="0.5" opacity="0.44"/>
<line x1="110" y1="44" x2="126" y2="44" stroke="#000000" stroke-width="0.5" opacity="0.30"/>
<text x="70" y="66" font-family="Arial, Helvetica, sans-serif" font-size="7" fill="#000000" text-anchor="middle" font-weight="bold">Lateral shearing int.</text>
</svg>
