<?xml version="1.0" encoding="UTF-8"?>
<svg xmlns="http://www.w3.org/2000/svg" viewBox="0 0 220 55" width="220" height="55">
<defs>
  <marker id="arrowhead" markerWidth="6" markerHeight="4" refX="5" refY="2" orient="auto">
    <polygon points="0 0, 6 2, 0 4" fill="#000000" />
  </marker>
  <linearGradient id="fiber-grad" x1="0" y1="0" x2="0" y2="1">
      <stop offset="0%" stop-color="#ADACC6"/>
      <stop offset="22%" stop-color="#1B1E89"/>
      <stop offset="100%" stop-color="#0D0F42"/>
    </linearGradient>
  <linearGradient id="comp-grad" x1="0" y1="0" x2="0" y2="1">
      <stop offset="0%" stop-color="#F0F0F8"/>
      <stop offset="50%" stop-color="#B0B0C8"/>
      <stop offset="100%" stop-color="#707088"/>
    </linearGradient>
</defs>
<line x1="5" y1="27" x2="215" y2="27" stroke="url(#fiber-grad)" stroke-width="3.0" stroke-linecap="round" />
<line x1="30" y1="22" x2="30" y2="32" stroke="#CC0000" stroke-width="0.5"/>
<line x1="36" y1="22" x2="36" y2="32" stroke="#CC0000" stroke-width="0.5"/>
<line x1="42" y1="22" x2="42" y2="32" stroke="#CC0000" stroke-width="0.5"/>
<line x1="48" y1="22" x2="48" y2="32" stroke="#CC0000" stroke-width="0.5"/>
<line x1="54" y1="22" x2="54" y2="32" stroke="#CC0000" stroke-width="0.5"/>
<rect x="60" y="18" width="8" height="18" rx="1" fill="GRADIENT" stroke="#000000" stroke-width="0.4"/>
<line x1="64" y1="20" x2="64" y2="34" stroke="#000000" stroke-width="0.5"/>
<line x1="80" y1="22" x2="80" y2="32" stroke="#CC0000" stroke-width="0.5"/>
<line x1="86" y1="22" x2="86" y2="32" stroke="#CC0000" stroke-width="0.5"/>
<line x1="92" y1="22" x2="92" y2="32" stroke="#CC0000" stroke-width="0.5"/>
<line x1="98" y1="22" x2="98" y2="32" stroke="#CC0000" stroke-width="0.5"/>
<line x1="104" y1="22" x2="104" y2="32" stroke="#CC0000" stroke-width="0.5"/>
<rect x="110" y="18" width="8" height="18" rx="1" fill="GRADIENT" stroke="#000000" stroke-width="0.4"/>
<line x1="114" y1="20" x2="114" y2="34" stroke="#000000" stroke-width="0.5"/>
<line x1="130" y1="22" x2="130" y2="32" stroke="#CC0000" stroke-width="0.5"/>
<line x1="136" y1="22" x2="136" y2="32" stroke="#CC0000" stroke-width="0.5"/>
<line x1="142" y1="22" x2="142" y2="32" stroke="#CC0000" stroke-width="0.5"/>
<line x1="148" y1="22" x2="148" y2="32" stroke="#CC0000" stroke-width="0.5"/>
<line x1="154" y1="22" x2="154" y2="32" stroke="#CC0000" stroke-width="0.5"/>
<rect x="160" y="18" width="8" height="18" rx="1" fill="GRADIENT" stroke="#000000" stroke-width="0.4"/>
<line x1="164" y1="20" x2="164" y2="34" stroke="#000000" stroke-width="0.5"/>
<text x="110" y="50" font-family="Helvetica, Arial, sans-serif" font-size="8" fill="#000000" text-anchor="middle" font-weight="bold" font-style="normal">Lyot filter</text>
</svg>
