<svg xmlns="http://www.w3.org/2000/svg" viewBox="0 0 180 80" width="180" height="80" font-family="Arial, Helvetica, sans-serif">
<defs>
<marker id="arrowhead" markerWidth="6" markerHeight="4" refX="5" refY="2" orient="auto"><polygon points="0,0 6,2 0,4" fill="#000000"/></marker>
<marker id="arrowhead-beam" markerWidth="6" markerHeight="4" refX="5" refY="2" orient="auto"><polygon points="0,0 6,2 0,4" fill="#CC0000"/></marker>
<linearGradient id="glass-grad" x1="0" y1="0" x2="1" y2="1"><stop offset="0%" stop-color="#D8E4F8"/><stop offset="100%" stop-color="#A8B8D8"/></linearGradient>
</defs>
<line x1="5" y1="40" x2="30" y2="40" stroke="#CC0000" stroke-width="0.8" opacity="0.5"/>
<line x1="8" y1="40" x2="20" y2="40" stroke="#CC0000" stroke-width="0.8" marker-end="url(#arrowhead-beam)"/>
<path d="M34.0,25.0 L34.0,55.0 C46,47.5 46,32.5 34.0,25.0 Z" fill="url(#lens-grad)" stroke="#000000" stroke-width="0.75"/>
<rect x="70" y="18" width="8" height="44" rx="1" fill="#C8D8F0" stroke="#000000" stroke-width="0.75"/>
<text x="74" y="15" font-family="Arial, Helvetica, sans-serif" font-size="4.5" fill="#666666" text-anchor="middle" font-weight="normal">ref</text>
<line x1="80" y1="40" x2="95" y2="40" stroke="#666666" stroke-width="0.35" stroke-dasharray="2,2"/>
<rect x="98" y="16" width="10" height="48" rx="1" fill="#C8D8F0" stroke="#000000" stroke-width="0.75"/>
<text x="103" y="13" font-family="Arial, Helvetica, sans-serif" font-size="4.5" fill="#666666" text-anchor="middle" font-weight="normal">test</text>
<path d="M70,36 L55,36 L55,10 L170,10 L170,40" fill="none" stroke="#CC0000" stroke-width="0.4" opacity="0.2"/>
<rect x="158" y="32" width="18" height="16" rx="2" fill="#808088" stroke="#000000" stroke-width="0.4"/>
<rect x="160" y="35" width="8" height="10" fill="#101828" stroke="#000000" stroke-width="0.2"/>
<text x="90" y="75" font-family="Arial, Helvetica, sans-serif" font-size="7" fill="#000000" text-anchor="middle" font-weight="bold">Fizeau interferometer</text>
</svg>
