<svg xmlns="http://www.w3.org/2000/svg" viewBox="0 0 180 140" width="180" height="140" font-family="Arial, Helvetica, sans-serif">
<defs>
<marker id="arrowhead" markerWidth="6" markerHeight="4" refX="5" refY="2" orient="auto"><polygon points="0,0 6,2 0,4" fill="#000000"/></marker>
<marker id="arrowhead-beam" markerWidth="6" markerHeight="4" refX="5" refY="2" orient="auto"><polygon points="0,0 6,2 0,4" fill="#CC0000"/></marker>
<linearGradient id="bs-grad" x1="0" y1="0" x2="1" y2="1"><stop offset="0%" stop-color="#D8E0F0"/><stop offset="50%" stop-color="#F0F4FF" stop-opacity="0.8"/><stop offset="100%" stop-color="#B8C0D8"/></linearGradient>
<linearGradient id="lens-grad" x1="0" y1="0" x2="1" y2="0"><stop offset="0%" stop-color="#D0E0F8"/><stop offset="50%" stop-color="#E8F0FF"/><stop offset="100%" stop-color="#B8C8E0"/></linearGradient>
</defs>
<line x1="5" y1="70" x2="55" y2="70" stroke="#CC0000" stroke-width="0.8" opacity="0.5"/>
<line x1="10" y1="70" x2="35" y2="70" stroke="#CC0000" stroke-width="0.8" marker-end="url(#arrowhead-beam)"/>
<text x="8" y="64" font-family="Arial, Helvetica, sans-serif" font-size="4.5" fill="#666666" text-anchor="middle" font-weight="normal">source</text>
<rect x="58" y="55" width="25" height="25" fill="url(#bs-grad)" stroke="#000000" stroke-width="0.75"/>
<line x1="58" y1="80" x2="83" y2="55" stroke="#4060C0" stroke-width="0.4" opacity="0.3"/>
<line x1="83" y1="67" x2="150" y2="67" stroke="#CC0000" stroke-width="0.8" opacity="0.35"/>
<line x1="155" y1="52" x2="155" y2="82" stroke="#000000" stroke-width="1.5"/>
<line x1="155.0" y1="54.5" x2="150.0" y2="54.5" stroke="#666666" stroke-width="0.3"/>
<line x1="155.0" y1="59.5" x2="150.0" y2="59.5" stroke="#666666" stroke-width="0.3"/>
<line x1="155.0" y1="64.5" x2="150.0" y2="64.5" stroke="#666666" stroke-width="0.3"/>
<line x1="155.0" y1="69.5" x2="150.0" y2="69.5" stroke="#666666" stroke-width="0.3"/>
<line x1="155.0" y1="74.5" x2="150.0" y2="74.5" stroke="#666666" stroke-width="0.3"/>
<line x1="155.0" y1="79.5" x2="150.0" y2="79.5" stroke="#666666" stroke-width="0.3"/>
<text x="155" y="48" font-family="Arial, Helvetica, sans-serif" font-size="5.5" fill="#666666" text-anchor="middle" font-weight="normal">M₁</text>
<line x1="155" y1="73" x2="83" y2="73" stroke="#CC0000" stroke-width="0.8" opacity="0.2"/>
<line x1="70" y1="55" x2="70" y2="15" stroke="#CC0000" stroke-width="0.8" opacity="0.35"/>
<line x1="55" y1="10" x2="85" y2="10" stroke="#000000" stroke-width="1.5"/>
<line x1="57.5" y1="10.0" x2="57.5" y2="5.0" stroke="#666666" stroke-width="0.3"/>
<line x1="62.5" y1="10.0" x2="62.5" y2="5.0" stroke="#666666" stroke-width="0.3"/>
<line x1="67.5" y1="10.0" x2="67.5" y2="5.0" stroke="#666666" stroke-width="0.3"/>
<line x1="72.5" y1="10.0" x2="72.5" y2="5.0" stroke="#666666" stroke-width="0.3"/>
<line x1="77.5" y1="10.0" x2="77.5" y2="5.0" stroke="#666666" stroke-width="0.3"/>
<line x1="82.5" y1="10.0" x2="82.5" y2="5.0" stroke="#666666" stroke-width="0.3"/>
<text x="50" y="12" font-family="Arial, Helvetica, sans-serif" font-size="5.5" fill="#666666" text-anchor="middle" font-weight="normal">M₂</text>
<line x1="88" y1="10" x2="98" y2="10" stroke="#666666" stroke-width="0.4" marker-end="url(#arrowhead)"/>
<line x1="98" y1="13" x2="88" y2="13" stroke="#666666" stroke-width="0.4" marker-end="url(#arrowhead)"/>
<line x1="75" y1="10" x2="75" y2="55" stroke="#CC0000" stroke-width="0.8" opacity="0.2"/>
<line x1="70" y1="80" x2="70" y2="120" stroke="#CC0000" stroke-width="0.8" opacity="0.4"/>
<rect x="62" y="122" width="16" height="14" rx="2" fill="url(#detector-grad)" stroke="#000000" stroke-width="0.4" opacity="0.7"/>
<text x="70" y="132" font-family="Arial, Helvetica, sans-serif" font-size="4.5" fill="white" text-anchor="middle" font-weight="normal">Det</text>
<text x="90" y="135" font-family="Arial, Helvetica, sans-serif" font-size="7" fill="#000000" text-anchor="middle" font-weight="bold">Michelson interferometer</text>
</svg>
