<svg xmlns="http://www.w3.org/2000/svg" viewBox="0 0 160 80" width="160" height="80" font-family="Arial, Helvetica, sans-serif">
<defs>
<marker id="arrowhead" markerWidth="6" markerHeight="4" refX="5" refY="2" orient="auto"><polygon points="0,0 6,2 0,4" fill="#000000"/></marker>
<marker id="arrowhead-beam" markerWidth="6" markerHeight="4" refX="5" refY="2" orient="auto"><polygon points="0,0 6,2 0,4" fill="#CC0000"/></marker>
</defs>
<line x1="20" y1="18" x2="140" y2="18" stroke="#000000" stroke-width="1.5" opacity="0.4"/>
<line x1="20" y1="58" x2="140" y2="58" stroke="#000000" stroke-width="1.5" opacity="0.4"/>
<rect x="30" y="12" width="5" height="52" rx="1" fill="#D4D8E8" stroke="#000000" stroke-width="0.5"/>
<circle cx="32.5" cy="18" r="2" fill="none" stroke="#000000" stroke-width="0.3"/>
<circle cx="32.5" cy="58" r="2" fill="none" stroke="#000000" stroke-width="0.3"/>
<rect x="70" y="12" width="5" height="52" rx="1" fill="#D4D8E8" stroke="#000000" stroke-width="0.5"/>
<circle cx="72.5" cy="18" r="2" fill="none" stroke="#000000" stroke-width="0.3"/>
<circle cx="72.5" cy="58" r="2" fill="none" stroke="#000000" stroke-width="0.3"/>
<rect x="110" y="12" width="5" height="52" rx="1" fill="#D4D8E8" stroke="#000000" stroke-width="0.5"/>
<circle cx="112.5" cy="18" r="2" fill="none" stroke="#000000" stroke-width="0.3"/>
<circle cx="112.5" cy="58" r="2" fill="none" stroke="#000000" stroke-width="0.3"/>
<circle cx="72" cy="38" r="8" fill="#C8D8F0" stroke="#000000" stroke-width="0.4"/>
<line x1="5" y1="38" x2="64" y2="38" stroke="#CC0000" stroke-width="0.8" opacity="0.3"/>
<line x1="80" y1="38" x2="155" y2="38" stroke="#CC0000" stroke-width="0.8" opacity="0.3"/>
<text x="80" y="75" font-family="Arial, Helvetica, sans-serif" font-size="7" fill="#000000" text-anchor="middle" font-weight="bold">30mm cage system</text>
</svg>
