<?xml version="1.0" encoding="UTF-8"?>
<svg xmlns="http://www.w3.org/2000/svg" viewBox="0 0 180 55" width="180" height="55">
<defs>
  <marker id="arrowhead" markerWidth="6" markerHeight="4" refX="5" refY="2" orient="auto">
    <polygon points="0 0, 6 2, 0 4" fill="#1a1a1a" />
  </marker>
  <marker id="arrowhead-beam" markerWidth="6" markerHeight="4" refX="5" refY="2" orient="auto">
    <polygon points="0 0, 6 2, 0 4" fill="#c0392b" />
  </marker>
  <marker id="arrowhead-gray" markerWidth="5" markerHeight="3.5" refX="4" refY="1.75" orient="auto">
    <polygon points="0 0, 5 1.75, 0 3.5" fill="#888888" />
  </marker>
</defs>
<rect x="10" y="8" width="160" height="35" rx="3" fill="#f0f0f0" stroke="#1a1a1a" stroke-width="0.5"/>
<path d="M20,20 C40,15 60,30 80,20 C100,10 120,25 140,22 L160,22" fill="none" stroke="#333333" stroke-width="0.5" opacity="0.4"/>
<path d="M20,30 C45,35 65,22 90,30 C115,38 135,25 160,30" fill="none" stroke="#333333" stroke-width="0.5" opacity="0.3"/>
<circle cx="50" cy="25" r="2" fill="#1a1a1a" opacity="0.2"/>
<circle cx="90" cy="25" r="2" fill="#1a1a1a" opacity="0.2"/>
<circle cx="130" cy="25" r="2" fill="#1a1a1a" opacity="0.2"/>
<text x="90" y="52" font-family="Arial, Helvetica, sans-serif" font-size="8" fill="#1a1a1a" text-anchor="middle" font-weight="bold" font-style="normal">Fiber routing tray</text>
</svg>
