<svg xmlns="http://www.w3.org/2000/svg" viewBox="0 0 130 70" width="130" height="70" font-family="Arial, Helvetica, sans-serif">
<defs>
<marker id="arrowhead" markerWidth="6" markerHeight="4" refX="5" refY="2" orient="auto"><polygon points="0,0 6,2 0,4" fill="#000000"/></marker>
<marker id="arrowhead-beam" markerWidth="6" markerHeight="4" refX="5" refY="2" orient="auto"><polygon points="0,0 6,2 0,4" fill="#CC0000"/></marker>
</defs>
<line x1="5" y1="35" x2="42" y2="35" stroke="#CC0000" stroke-width="0.8" opacity="0.5"/>
<line x1="10" y1="35" x2="28" y2="35" stroke="#CC0000" stroke-width="0.8" marker-end="url(#arrowhead-beam)"/>
<rect x="45" y="8" width="12" height="52" rx="1" fill="#C8D8F0" stroke="#000000" stroke-width="0.75"/>
<rect x="45" y="12" width="12" height="3" fill="#000000" opacity="0.1"/>
<rect x="45" y="18" width="12" height="3" fill="#000000" opacity="0.1"/>
<rect x="45" y="24" width="12" height="3" fill="#000000" opacity="0.1"/>
<rect x="45" y="30" width="12" height="3" fill="#000000" opacity="0.1"/>
<rect x="45" y="36" width="12" height="3" fill="#000000" opacity="0.1"/>
<rect x="45" y="42" width="12" height="3" fill="#000000" opacity="0.1"/>
<rect x="45" y="48" width="12" height="3" fill="#000000" opacity="0.1"/>
<rect x="45" y="54" width="12" height="3" fill="#000000" opacity="0.1"/>
<line x1="57" y1="35" x2="125" y2="17" stroke="#CC0000" stroke-width="0.4" opacity="0.35"/>
<circle cx="125" cy="17" r="1.5" fill="#CC0000" opacity="0.3"/>
<line x1="57" y1="35" x2="125" y2="26" stroke="#CC0000" stroke-width="0.4" opacity="0.35"/>
<circle cx="125" cy="26" r="1.5" fill="#CC0000" opacity="0.3"/>
<line x1="57" y1="35" x2="125" y2="35" stroke="#CC0000" stroke-width="0.4" opacity="0.45"/>
<circle cx="125" cy="35" r="1.5" fill="#CC0000" opacity="0.3"/>
<line x1="57" y1="35" x2="125" y2="44" stroke="#CC0000" stroke-width="0.4" opacity="0.35"/>
<circle cx="125" cy="44" r="1.5" fill="#CC0000" opacity="0.3"/>
<line x1="57" y1="35" x2="125" y2="53" stroke="#CC0000" stroke-width="0.4" opacity="0.35"/>
<circle cx="125" cy="53" r="1.5" fill="#CC0000" opacity="0.3"/>
<text x="60" y="66" font-family="Arial, Helvetica, sans-serif" font-size="7" fill="#000000" text-anchor="middle" font-weight="bold">Dammann grating</text>
</svg>
