<?xml version="1.0" encoding="UTF-8"?>
<svg xmlns="http://www.w3.org/2000/svg" viewBox="0 0 120 55" width="120" height="55">
<defs>
  <marker id="arrowhead" markerWidth="6" markerHeight="4" refX="5" refY="2" orient="auto">
    <polygon points="0 0, 6 2, 0 4" fill="#000000" />
  </marker>
  <linearGradient id="comp-grad" x1="0" y1="0" x2="0" y2="1">
      <stop offset="0%" stop-color="#F0F0F8"/>
      <stop offset="50%" stop-color="#B0B0C8"/>
      <stop offset="100%" stop-color="#707088"/>
    </linearGradient>
</defs>
<rect x="15" y="30" width="80" height="8" fill="#A0A0B0" stroke="#000000" stroke-width="0.75"/>
<rect x="20" y="8" width="3" height="22" fill="#A0A0B0" stroke="#000000" stroke-width="0.3"/>
<rect x="28" y="8" width="3" height="22" fill="#A0A0B0" stroke="#000000" stroke-width="0.3"/>
<rect x="36" y="8" width="3" height="22" fill="#A0A0B0" stroke="#000000" stroke-width="0.3"/>
<rect x="44" y="8" width="3" height="22" fill="#A0A0B0" stroke="#000000" stroke-width="0.3"/>
<rect x="52" y="8" width="3" height="22" fill="#A0A0B0" stroke="#000000" stroke-width="0.3"/>
<rect x="60" y="8" width="3" height="22" fill="#A0A0B0" stroke="#000000" stroke-width="0.3"/>
<rect x="68" y="8" width="3" height="22" fill="#A0A0B0" stroke="#000000" stroke-width="0.3"/>
<rect x="76" y="8" width="3" height="22" fill="#A0A0B0" stroke="#000000" stroke-width="0.3"/>
<rect x="84" y="8" width="3" height="22" fill="#A0A0B0" stroke="#000000" stroke-width="0.3"/>
<path d="M35,6 C37,3 33,0 35,0" fill="none" stroke="#CC4444" stroke-width="0.5" opacity="0.5"/>
<path d="M55,6 C57,3 53,0 55,0" fill="none" stroke="#CC4444" stroke-width="0.5" opacity="0.5"/>
<path d="M75,6 C77,3 73,0 75,0" fill="none" stroke="#CC4444" stroke-width="0.5" opacity="0.5"/>
<text x="55" y="50" font-family="Helvetica, Arial, sans-serif" font-size="8" fill="#000000" text-anchor="middle" font-weight="bold" font-style="normal">Heat sink</text>
</svg>
