<?xml version="1.0" encoding="UTF-8"?>
<svg xmlns="http://www.w3.org/2000/svg" viewBox="0 0 120 55" width="120" height="55">
<defs>
  <marker id="arrowhead" markerWidth="6" markerHeight="4" refX="5" refY="2" orient="auto">
    <polygon points="0 0, 6 2, 0 4" fill="#000000" />
  </marker>
  <linearGradient id="comp-grad" x1="0" y1="0" x2="0" y2="1">
      <stop offset="0%" stop-color="#F0F0F8"/>
      <stop offset="50%" stop-color="#B0B0C8"/>
      <stop offset="100%" stop-color="#707088"/>
    </linearGradient>
</defs>
<rect x="15" y="10" width="80" height="35" rx="2" fill="url(#comp-grad)" stroke="#000000" stroke-width="0.75" />
<rect x="25" y="15" width="6" height="12" fill="#CC4444" stroke="#000000" stroke-width="0.3" opacity="0.4"/>
<rect x="25" y="30" width="6" height="10" fill="#4444CC" stroke="#000000" stroke-width="0.3" opacity="0.4"/>
<rect x="35" y="15" width="6" height="12" fill="#CC4444" stroke="#000000" stroke-width="0.3" opacity="0.4"/>
<rect x="35" y="30" width="6" height="10" fill="#4444CC" stroke="#000000" stroke-width="0.3" opacity="0.4"/>
<rect x="45" y="15" width="6" height="12" fill="#CC4444" stroke="#000000" stroke-width="0.3" opacity="0.4"/>
<rect x="45" y="30" width="6" height="10" fill="#4444CC" stroke="#000000" stroke-width="0.3" opacity="0.4"/>
<rect x="55" y="15" width="6" height="12" fill="#CC4444" stroke="#000000" stroke-width="0.3" opacity="0.4"/>
<rect x="55" y="30" width="6" height="10" fill="#4444CC" stroke="#000000" stroke-width="0.3" opacity="0.4"/>
<rect x="65" y="15" width="6" height="12" fill="#CC4444" stroke="#000000" stroke-width="0.3" opacity="0.4"/>
<rect x="65" y="30" width="6" height="10" fill="#4444CC" stroke="#000000" stroke-width="0.3" opacity="0.4"/>
<rect x="75" y="15" width="6" height="12" fill="#CC4444" stroke="#000000" stroke-width="0.3" opacity="0.4"/>
<rect x="75" y="30" width="6" height="10" fill="#4444CC" stroke="#000000" stroke-width="0.3" opacity="0.4"/>
<text x="100" y="18" font-family="Helvetica, Arial, sans-serif" font-size="6" fill="#CC0000" text-anchor="middle" font-weight="normal" font-style="normal">hot</text>
<text x="100" y="40" font-family="Helvetica, Arial, sans-serif" font-size="6" fill="#0066CC" text-anchor="middle" font-weight="normal" font-style="normal">cold</text>
<line x1="30" y1="10" x2="30" y2="4" stroke="#000000" stroke-width="0.75"/>
<line x1="80" y1="10" x2="80" y2="4" stroke="#000000" stroke-width="0.75"/>
<text x="55" y="52" font-family="Helvetica, Arial, sans-serif" font-size="8" fill="#000000" text-anchor="middle" font-weight="bold" font-style="normal">TEC module</text>
</svg>
