<?xml version="1.0" encoding="UTF-8"?>
<svg xmlns="http://www.w3.org/2000/svg" viewBox="0 0 140 48" width="140" height="48">
<defs>
  <marker id="arrowhead" markerWidth="6" markerHeight="4" refX="5" refY="2" orient="auto">
    <polygon points="0 0, 6 2, 0 4" fill="#1a1a1a" />
  </marker>
  <marker id="arrowhead-beam" markerWidth="6" markerHeight="4" refX="5" refY="2" orient="auto">
    <polygon points="0 0, 6 2, 0 4" fill="#c0392b" />
  </marker>
  <marker id="arrowhead-gray" markerWidth="5" markerHeight="3.5" refX="4" refY="1.75" orient="auto">
    <polygon points="0 0, 5 1.75, 0 3.5" fill="#888888" />
  </marker>
</defs>
<rect x="15" y="8" width="75" height="28" rx="2" fill="#f0f0f0" stroke="#1a1a1a" stroke-width="0.5"/>
<line x1="22.0" y1="36" x2="22.0" y2="44" stroke="#1a1a1a" stroke-width="0.5"/>
<line x1="29.5" y1="36" x2="29.5" y2="44" stroke="#1a1a1a" stroke-width="0.5"/>
<line x1="37.0" y1="36" x2="37.0" y2="44" stroke="#1a1a1a" stroke-width="0.5"/>
<line x1="44.5" y1="36" x2="44.5" y2="44" stroke="#1a1a1a" stroke-width="0.5"/>
<line x1="52.0" y1="36" x2="52.0" y2="44" stroke="#1a1a1a" stroke-width="0.5"/>
<line x1="59.5" y1="36" x2="59.5" y2="44" stroke="#1a1a1a" stroke-width="0.5"/>
<line x1="67.0" y1="36" x2="67.0" y2="44" stroke="#1a1a1a" stroke-width="0.5"/>
<line x1="74.5" y1="36" x2="74.5" y2="44" stroke="#1a1a1a" stroke-width="0.5"/>
<line x1="82.0" y1="36" x2="82.0" y2="44" stroke="#1a1a1a" stroke-width="0.5"/>
<rect x="90" y="14" width="8" height="8" rx="1" fill="#1a1a1a" opacity="0.3"/>
<rect x="90" y="24" width="8" height="8" rx="1" fill="#1a1a1a" opacity="0.3"/>
<line x1="98" y1="18" x2="135" y2="18" stroke="#333333" stroke-width="0.7" stroke-linecap="round" />
<line x1="98" y1="28" x2="135" y2="28" stroke="#333333" stroke-width="0.7" stroke-linecap="round" />
<text x="52" y="26" font-family="Arial, Helvetica, sans-serif" font-size="6" fill="#1a1a1a" text-anchor="middle" font-weight="normal" font-style="normal">1×9</text>
<text x="70" y="48" font-family="Arial, Helvetica, sans-serif" font-size="8" fill="#1a1a1a" text-anchor="middle" font-weight="bold" font-style="normal">1×9 transceiver</text>
</svg>
