<?xml version="1.0" encoding="UTF-8"?>
<svg xmlns="http://www.w3.org/2000/svg" viewBox="0 0 140 50" width="140" height="50">
<defs>
  <marker id="arrowhead" markerWidth="6" markerHeight="4" refX="5" refY="2" orient="auto">
    <polygon points="0 0, 6 2, 0 4" fill="#1a1a1a" />
  </marker>
  <marker id="arrowhead-beam" markerWidth="6" markerHeight="4" refX="5" refY="2" orient="auto">
    <polygon points="0 0, 6 2, 0 4" fill="#c0392b" />
  </marker>
  <marker id="arrowhead-gray" markerWidth="5" markerHeight="3.5" refX="4" refY="1.75" orient="auto">
    <polygon points="0 0, 5 1.75, 0 3.5" fill="#888888" />
  </marker>
</defs>
<rect x="15" y="8" width="80" height="30" rx="2" fill="#f0f0f0" stroke="#1a1a1a" stroke-width="0.5"/>
<rect x="95" y="14" width="8" height="8" rx="1" fill="#1a1a1a" opacity="0.3"/>
<rect x="95" y="26" width="8" height="8" rx="1" fill="#1a1a1a" opacity="0.3"/>
<line x1="103" y1="18" x2="135" y2="18" stroke="#333333" stroke-width="0.7" stroke-linecap="round" />
<line x1="103" y1="30" x2="135" y2="30" stroke="#333333" stroke-width="0.7" stroke-linecap="round" />
<line x1="110" y1="18" x2="122" y2="18" stroke="#888888" stroke-width="0.5" marker-end="url(#arrowhead-gray)" />
<rect x="5" y="15" width="10" height="16" fill="#1a1a1a" opacity="0.2"/>
<line x1="5" y1="17" x2="12" y2="17" stroke="#1a1a1a" stroke-width="0.3" opacity="0.4"/>
<line x1="5" y1="20" x2="12" y2="20" stroke="#1a1a1a" stroke-width="0.3" opacity="0.4"/>
<line x1="5" y1="23" x2="12" y2="23" stroke="#1a1a1a" stroke-width="0.3" opacity="0.4"/>
<line x1="5" y1="26" x2="12" y2="26" stroke="#1a1a1a" stroke-width="0.3" opacity="0.4"/>
<line x1="5" y1="29" x2="12" y2="29" stroke="#1a1a1a" stroke-width="0.3" opacity="0.4"/>
<text x="55" y="27" font-family="Arial, Helvetica, sans-serif" font-size="6" fill="#1a1a1a" text-anchor="middle" font-weight="normal" font-style="normal">SFP</text>
<text x="133" y="12" font-family="Arial, Helvetica, sans-serif" font-size="7" fill="#888888" text-anchor="end" font-weight="normal" font-style="italic">Tx</text>
<text x="133" y="37" font-family="Arial, Helvetica, sans-serif" font-size="7" fill="#888888" text-anchor="end" font-weight="normal" font-style="italic">Rx</text>
<text x="60" y="46" font-family="Arial, Helvetica, sans-serif" font-size="8" fill="#1a1a1a" text-anchor="middle" font-weight="bold" font-style="normal">SFP transceiver</text>
</svg>
