<?xml version="1.0" encoding="UTF-8"?>
<svg xmlns="http://www.w3.org/2000/svg" viewBox="0 0 150 52" width="150" height="52">
<defs>
  <marker id="arrowhead" markerWidth="6" markerHeight="4" refX="5" refY="2" orient="auto">
    <polygon points="0 0, 6 2, 0 4" fill="#1a1a1a" />
  </marker>
  <marker id="arrowhead-beam" markerWidth="6" markerHeight="4" refX="5" refY="2" orient="auto">
    <polygon points="0 0, 6 2, 0 4" fill="#c0392b" />
  </marker>
  <marker id="arrowhead-gray" markerWidth="5" markerHeight="3.5" refX="4" refY="1.75" orient="auto">
    <polygon points="0 0, 5 1.75, 0 3.5" fill="#888888" />
  </marker>
</defs>
<rect x="15" y="8" width="95" height="34" rx="2" fill="#f0f0f0" stroke="#1a1a1a" stroke-width="0.5"/>
<rect x="5" y="14" width="10" height="22" fill="#1a1a1a" opacity="0.2"/>
<line x1="5" y1="16" x2="12" y2="16" stroke="#1a1a1a" stroke-width="0.2" opacity="0.4"/>
<line x1="5" y1="18" x2="12" y2="18" stroke="#1a1a1a" stroke-width="0.2" opacity="0.4"/>
<line x1="5" y1="20" x2="12" y2="20" stroke="#1a1a1a" stroke-width="0.2" opacity="0.4"/>
<line x1="5" y1="22" x2="12" y2="22" stroke="#1a1a1a" stroke-width="0.2" opacity="0.4"/>
<line x1="5" y1="24" x2="12" y2="24" stroke="#1a1a1a" stroke-width="0.2" opacity="0.4"/>
<line x1="5" y1="26" x2="12" y2="26" stroke="#1a1a1a" stroke-width="0.2" opacity="0.4"/>
<line x1="5" y1="28" x2="12" y2="28" stroke="#1a1a1a" stroke-width="0.2" opacity="0.4"/>
<line x1="5" y1="30" x2="12" y2="30" stroke="#1a1a1a" stroke-width="0.2" opacity="0.4"/>
<line x1="5" y1="32" x2="12" y2="32" stroke="#1a1a1a" stroke-width="0.2" opacity="0.4"/>
<line x1="5" y1="34" x2="12" y2="34" stroke="#1a1a1a" stroke-width="0.2" opacity="0.4"/>
<rect x="110" y="14" width="8" height="8" rx="1" fill="#1a1a1a" opacity="0.3"/>
<line x1="118" y1="18" x2="145" y2="18" stroke="#333333" stroke-width="0.7" stroke-linecap="round" />
<rect x="110" y="28" width="8" height="8" rx="1" fill="#1a1a1a" opacity="0.3"/>
<line x1="118" y1="32" x2="145" y2="32" stroke="#333333" stroke-width="0.7" stroke-linecap="round" />
<text x="62" y="28" font-family="Arial, Helvetica, sans-serif" font-size="6" fill="#1a1a1a" text-anchor="middle" font-weight="normal" font-style="normal">SFP-DD</text>
<text x="75" y="48" font-family="Arial, Helvetica, sans-serif" font-size="8" fill="#1a1a1a" text-anchor="middle" font-weight="bold" font-style="normal">SFP-DD (100G)</text>
</svg>
