<?xml version="1.0" encoding="UTF-8"?>
<svg xmlns="http://www.w3.org/2000/svg" viewBox="0 0 100 60" width="100" height="60">
<defs>
  <marker id="arrowhead" markerWidth="6" markerHeight="4" refX="5" refY="2" orient="auto">
    <polygon points="0 0, 6 2, 0 4" fill="#1a1a1a" />
  </marker>
  <marker id="arrowhead-beam" markerWidth="6" markerHeight="4" refX="5" refY="2" orient="auto">
    <polygon points="0 0, 6 2, 0 4" fill="#c0392b" />
  </marker>
  <marker id="arrowhead-gray" markerWidth="5" markerHeight="3.5" refX="4" refY="1.75" orient="auto">
    <polygon points="0 0, 5 1.75, 0 3.5" fill="#888888" />
  </marker>
</defs>
<line x1="5" y1="30" x2="70" y2="30" stroke="#333333" stroke-width="0.7" stroke-linecap="round" />
<line x1="70" y1="10" x2="70" y2="50" stroke="#1a1a1a" stroke-width="1.5"/>
<line x1="70" y1="12" x2="78" y2="7" stroke="#888888" stroke-width="0.35"/>
<line x1="70" y1="17" x2="78" y2="12" stroke="#888888" stroke-width="0.35"/>
<line x1="70" y1="22" x2="78" y2="17" stroke="#888888" stroke-width="0.35"/>
<line x1="70" y1="27" x2="78" y2="22" stroke="#888888" stroke-width="0.35"/>
<line x1="70" y1="32" x2="78" y2="27" stroke="#888888" stroke-width="0.35"/>
<line x1="70" y1="37" x2="78" y2="32" stroke="#888888" stroke-width="0.35"/>
<line x1="70" y1="42" x2="78" y2="37" stroke="#888888" stroke-width="0.35"/>
<line x1="70" y1="47" x2="78" y2="42" stroke="#888888" stroke-width="0.35"/>
<line x1="10" y1="30" x2="30" y2="30" stroke="#888888" stroke-width="0.5" marker-end="url(#arrowhead-gray)" />
<text x="40" y="56" font-family="Arial, Helvetica, sans-serif" font-size="8" fill="#1a1a1a" text-anchor="middle" font-weight="bold" font-style="normal">Mirror</text>
</svg>
