<?xml version="1.0" encoding="UTF-8"?>
<svg xmlns="http://www.w3.org/2000/svg" viewBox="0 0 160 50" width="160" height="50">
<defs>
  <marker id="arrowhead" markerWidth="6" markerHeight="4" refX="5" refY="2" orient="auto">
    <polygon points="0 0, 6 2, 0 4" fill="#1a1a1a" />
  </marker>
  <marker id="arrowhead-beam" markerWidth="6" markerHeight="4" refX="5" refY="2" orient="auto">
    <polygon points="0 0, 6 2, 0 4" fill="#c0392b" />
  </marker>
  <marker id="arrowhead-gray" markerWidth="5" markerHeight="3.5" refX="4" refY="1.75" orient="auto">
    <polygon points="0 0, 5 1.75, 0 3.5" fill="#888888" />
  </marker>
</defs>
<line x1="5" y1="25" x2="45" y2="25" stroke="#333333" stroke-width="0.7" stroke-linecap="round" />
<line x1="10" y1="25" x2="28" y2="25" stroke="#888888" stroke-width="0.5" marker-end="url(#arrowhead-gray)" />
<rect x="45" y="8" width="60" height="34" rx="2" fill="#f0f0f0" stroke="#1a1a1a" stroke-width="0.5" />
<rect x="52" y="14" width="46" height="22" rx="4" fill="#f0f0f0" stroke="#1a1a1a" stroke-width="0.4"/>
<line x1="60" y1="18" x2="60" y2="32" stroke="#c0392b" stroke-width="0.4" opacity="0.3"/>
<line x1="68" y1="18" x2="68" y2="32" stroke="#c0392b" stroke-width="0.4" opacity="0.3"/>
<line x1="76" y1="18" x2="76" y2="32" stroke="#c0392b" stroke-width="0.4" opacity="0.3"/>
<line x1="84" y1="18" x2="84" y2="32" stroke="#c0392b" stroke-width="0.4" opacity="0.3"/>
<line x1="90" y1="18" x2="90" y2="32" stroke="#c0392b" stroke-width="0.4" opacity="0.3"/>
<line x1="105" y1="25" x2="155" y2="25" stroke="#333333" stroke-width="0.7" stroke-linecap="round" />
<text x="75" y="48" font-family="Arial, Helvetica, sans-serif" font-size="8" fill="#1a1a1a" text-anchor="middle" font-weight="bold" font-style="normal">λ reference cell</text>
</svg>
