<?xml version="1.0" encoding="UTF-8"?>
<svg xmlns="http://www.w3.org/2000/svg" viewBox="0 0 180 90" width="180" height="90">
<defs>
  <marker id="arrowhead" markerWidth="6" markerHeight="4" refX="5" refY="2" orient="auto">
    <polygon points="0 0, 6 2, 0 4" fill="#1a1a1a" />
  </marker>
  <marker id="arrowhead-beam" markerWidth="6" markerHeight="4" refX="5" refY="2" orient="auto">
    <polygon points="0 0, 6 2, 0 4" fill="#c0392b" />
  </marker>
  <marker id="arrowhead-gray" markerWidth="5" markerHeight="3.5" refX="4" refY="1.75" orient="auto">
    <polygon points="0 0, 5 1.75, 0 3.5" fill="#888888" />
  </marker>
</defs>
<rect x="40" y="10" width="80" height="65" rx="3" fill="#f0f0f0" stroke="#1a1a1a" stroke-width="0.5" />
<text x="80" y="46" font-family="Arial, Helvetica, sans-serif" font-size="6" fill="#1a1a1a" text-anchor="middle" font-weight="normal" font-style="normal">MUX/
DMUX</text>
<line x1="5" y1="42" x2="40" y2="42" stroke="#333333" stroke-width="0.7" stroke-linecap="round" />
<line x1="10" y1="42" x2="28" y2="42" stroke="#888888" stroke-width="0.5" marker-end="url(#arrowhead-gray)" />
<text x="8" y="36" font-family="Arial, Helvetica, sans-serif" font-size="7" fill="#888888" text-anchor="start" font-weight="normal" font-style="italic">com</text>
<line x1="120" y1="20" x2="175" y2="20" stroke="#333333" stroke-width="0.7" stroke-linecap="round" />
<text x="173" y="14" font-family="Arial, Helvetica, sans-serif" font-size="7" fill="#888888" text-anchor="end" font-weight="normal" font-style="italic">ch1</text>
<line x1="120" y1="36" x2="175" y2="36" stroke="#333333" stroke-width="0.7" stroke-linecap="round" />
<text x="173" y="30" font-family="Arial, Helvetica, sans-serif" font-size="7" fill="#888888" text-anchor="end" font-weight="normal" font-style="italic">ch2</text>
<line x1="120" y1="52" x2="175" y2="52" stroke="#333333" stroke-width="0.7" stroke-linecap="round" />
<text x="173" y="46" font-family="Arial, Helvetica, sans-serif" font-size="7" fill="#888888" text-anchor="end" font-weight="normal" font-style="italic">ch3</text>
<line x1="120" y1="68" x2="175" y2="68" stroke="#333333" stroke-width="0.7" stroke-linecap="round" />
<text x="173" y="62" font-family="Arial, Helvetica, sans-serif" font-size="7" fill="#888888" text-anchor="end" font-weight="normal" font-style="italic">ch4</text>
<text x="90" y="86" font-family="Arial, Helvetica, sans-serif" font-size="8" fill="#1a1a1a" text-anchor="middle" font-weight="bold" font-style="normal">Mux/Demux</text>
</svg>
