<?xml version="1.0" encoding="UTF-8"?>
<svg xmlns="http://www.w3.org/2000/svg" viewBox="0 0 200 90" width="200" height="90">
<defs>
  <marker id="arrowhead" markerWidth="6" markerHeight="4" refX="5" refY="2" orient="auto">
    <polygon points="0 0, 6 2, 0 4" fill="#1a1a1a" />
  </marker>
  <marker id="arrowhead-beam" markerWidth="6" markerHeight="4" refX="5" refY="2" orient="auto">
    <polygon points="0 0, 6 2, 0 4" fill="#c0392b" />
  </marker>
  <marker id="arrowhead-gray" markerWidth="5" markerHeight="3.5" refX="4" refY="1.75" orient="auto">
    <polygon points="0 0, 5 1.75, 0 3.5" fill="#888888" />
  </marker>
</defs>
<path d="M10,25 C40,25 50,40 70,43" fill="none" stroke="#333333" stroke-width="0.7" />
<path d="M10,65 C40,65 50,50 70,47" fill="none" stroke="#333333" stroke-width="0.7" />
<rect x="65" y="35" width="50" height="20" rx="2" fill="#f0f0f0" stroke="#1a1a1a" stroke-width="0.5" />
<text x="90" y="48" font-family="Arial, Helvetica, sans-serif" font-size="6" fill="#1a1a1a" text-anchor="middle" font-weight="normal" font-style="normal">WDM</text>
<line x1="115" y1="45" x2="190" y2="45" stroke="#333333" stroke-width="0.7" stroke-linecap="round" />
<line x1="15" y1="25" x2="35" y2="25" stroke="#888888" stroke-width="0.5" marker-end="url(#arrowhead-gray)" />
<line x1="150" y1="45" x2="170" y2="45" stroke="#888888" stroke-width="0.5" marker-end="url(#arrowhead-gray)" />
<text x="8" y="19" font-family="Arial, Helvetica, sans-serif" font-size="6" fill="#888888" text-anchor="start" font-weight="normal" font-style="normal">λs</text>
<text x="8" y="78" font-family="Arial, Helvetica, sans-serif" font-size="6" fill="#888888" text-anchor="start" font-weight="normal" font-style="normal">λp</text>
<text x="100" y="85" font-family="Arial, Helvetica, sans-serif" font-size="8" fill="#1a1a1a" text-anchor="middle" font-weight="bold" font-style="normal">WDM Coupler</text>
</svg>
