<?xml version="1.0" encoding="UTF-8"?>
<svg xmlns="http://www.w3.org/2000/svg" viewBox="0 0 200 140" width="200" height="140">
<defs>
  <marker id="arrowhead" markerWidth="6" markerHeight="4" refX="5" refY="2" orient="auto">
    <polygon points="0 0, 6 2, 0 4" fill="#1a1a1a" />
  </marker>
  <marker id="arrowhead-beam" markerWidth="6" markerHeight="4" refX="5" refY="2" orient="auto">
    <polygon points="0 0, 6 2, 0 4" fill="#c0392b" />
  </marker>
  <marker id="arrowhead-gray" markerWidth="5" markerHeight="3.5" refX="4" refY="1.75" orient="auto">
    <polygon points="0 0, 5 1.75, 0 3.5" fill="#888888" />
  </marker>
</defs>
<circle cx="100" cy="65" r="30" fill="#f0f0f0" stroke="#1a1a1a" stroke-width="0.5" />
<path d="M100,51 A12,12 0 1,1 106,67" fill="none" stroke="#c0392b" stroke-width="0.6" marker-end="url(#arrowhead)"/>
<line x1="5" y1="48" x2="70" y2="48" stroke="#333333" stroke-width="0.7" stroke-linecap="round" />
<line x1="130" y1="48" x2="195" y2="48" stroke="#333333" stroke-width="0.7" stroke-linecap="round" />
<line x1="5" y1="85" x2="70" y2="85" stroke="#333333" stroke-width="0.7" stroke-linecap="round" />
<line x1="130" y1="85" x2="195" y2="85" stroke="#333333" stroke-width="0.7" stroke-linecap="round" />
<circle cx="73" cy="48" r="2" fill="#1a1a1a"/>
<circle cx="127" cy="48" r="2" fill="#1a1a1a"/>
<circle cx="73" cy="85" r="2" fill="#1a1a1a"/>
<circle cx="127" cy="85" r="2" fill="#1a1a1a"/>
<text x="8" y="41" font-family="Arial, Helvetica, sans-serif" font-size="7" fill="#888888" text-anchor="start" font-weight="normal" font-style="italic">1</text>
<text x="192" y="41" font-family="Arial, Helvetica, sans-serif" font-size="7" fill="#888888" text-anchor="end" font-weight="normal" font-style="italic">2</text>
<text x="8" y="97" font-family="Arial, Helvetica, sans-serif" font-size="7" fill="#888888" text-anchor="start" font-weight="normal" font-style="italic">3</text>
<text x="192" y="97" font-family="Arial, Helvetica, sans-serif" font-size="7" fill="#888888" text-anchor="end" font-weight="normal" font-style="italic">4</text>
<text x="100" y="68" font-family="Arial, Helvetica, sans-serif" font-size="6" fill="#c0392b" text-anchor="middle" font-weight="normal" font-style="normal">1→2→3→4</text>
<text x="100" y="128" font-family="Arial, Helvetica, sans-serif" font-size="8" fill="#1a1a1a" text-anchor="middle" font-weight="bold" font-style="normal">4-port circulator</text>
</svg>
