<?xml version="1.0" encoding="UTF-8"?>
<svg xmlns="http://www.w3.org/2000/svg" viewBox="0 0 180 130" width="180" height="130">
<defs>
  <marker id="arrowhead" markerWidth="6" markerHeight="4" refX="5" refY="2" orient="auto">
    <polygon points="0 0, 6 2, 0 4" fill="#1a1a1a" />
  </marker>
  <marker id="arrowhead-beam" markerWidth="6" markerHeight="4" refX="5" refY="2" orient="auto">
    <polygon points="0 0, 6 2, 0 4" fill="#c0392b" />
  </marker>
  <marker id="arrowhead-gray" markerWidth="5" markerHeight="3.5" refX="4" refY="1.75" orient="auto">
    <polygon points="0 0, 5 1.75, 0 3.5" fill="#888888" />
  </marker>
</defs>
<circle cx="90" cy="60" r="28" fill="#f0f0f0" stroke="#1a1a1a" stroke-width="0.5" />
<path d="M90,48 A10,10 0 1,1 95,62" fill="none" stroke="#c0392b" stroke-width="0.6" marker-end="url(#arrowhead-beam)"/>
<line x1="5" y1="45" x2="62" y2="45" stroke="#333333" stroke-width="0.7" stroke-linecap="round" />
<line x1="118" y1="45" x2="175" y2="45" stroke="#333333" stroke-width="0.7" stroke-linecap="round" />
<line x1="5" y1="80" x2="62" y2="80" stroke="#333333" stroke-width="0.7" stroke-linecap="round" />
<line x1="10" y1="45" x2="30" y2="45" stroke="#888888" stroke-width="0.5" marker-end="url(#arrowhead-gray)" />
<line x1="135" y1="45" x2="155" y2="45" stroke="#888888" stroke-width="0.5" marker-end="url(#arrowhead-gray)" />
<line x1="40" y1="80" x2="20" y2="80" stroke="#888888" stroke-width="0.5" marker-end="url(#arrowhead-gray)" />
<circle cx="65" cy="45" r="2" fill="#1a1a1a"/>
<circle cx="115" cy="45" r="2" fill="#1a1a1a"/>
<circle cx="65" cy="80" r="2" fill="#1a1a1a"/>
<text x="8" y="38" font-family="Arial, Helvetica, sans-serif" font-size="7" fill="#888888" text-anchor="start" font-weight="normal" font-style="italic">1</text>
<text x="172" y="38" font-family="Arial, Helvetica, sans-serif" font-size="7" fill="#888888" text-anchor="end" font-weight="normal" font-style="italic">2</text>
<text x="8" y="92" font-family="Arial, Helvetica, sans-serif" font-size="7" fill="#888888" text-anchor="start" font-weight="normal" font-style="italic">3</text>
<text x="90" y="63" font-family="Arial, Helvetica, sans-serif" font-size="6" fill="#c0392b" text-anchor="middle" font-weight="normal" font-style="normal">1→2→3</text>
<text x="90" y="120" font-family="Arial, Helvetica, sans-serif" font-size="8" fill="#1a1a1a" text-anchor="middle" font-weight="bold" font-style="normal">Circulator</text>
</svg>
