<?xml version="1.0" encoding="UTF-8"?>
<svg xmlns="http://www.w3.org/2000/svg" viewBox="0 0 160 55" width="160" height="55">
<defs>
  <marker id="arrowhead" markerWidth="6" markerHeight="4" refX="5" refY="2" orient="auto">
    <polygon points="0 0, 6 2, 0 4" fill="#1a1a1a" />
  </marker>
  <marker id="arrowhead-beam" markerWidth="6" markerHeight="4" refX="5" refY="2" orient="auto">
    <polygon points="0 0, 6 2, 0 4" fill="#c0392b" />
  </marker>
  <marker id="arrowhead-gray" markerWidth="5" markerHeight="3.5" refX="4" refY="1.75" orient="auto">
    <polygon points="0 0, 5 1.75, 0 3.5" fill="#888888" />
  </marker>
</defs>
<line x1="5" y1="27" x2="45" y2="27" stroke="#333333" stroke-width="0.7" stroke-linecap="round" />
<line x1="15" y1="22" x2="15" y2="32" stroke="#888888" stroke-width="0.35"/>
<line x1="23" y1="22" x2="23" y2="32" stroke="#888888" stroke-width="0.35"/>
<line x1="31" y1="22" x2="31" y2="32" stroke="#888888" stroke-width="0.35"/>
<line x1="39" y1="22" x2="39" y2="32" stroke="#888888" stroke-width="0.35"/>
<rect x="45" y="10" width="60" height="34" rx="2" fill="#f0f0f0" stroke="#1a1a1a" stroke-width="0.5" />
<polygon points="60,17 84,27 60,37" fill="#1a1a1a" opacity="0.3"/>
<line x1="105" y1="27" x2="155" y2="27" stroke="#333333" stroke-width="0.7" stroke-linecap="round" />
<line x1="115" y1="22" x2="115" y2="32" stroke="#888888" stroke-width="0.35"/>
<line x1="123" y1="22" x2="123" y2="32" stroke="#888888" stroke-width="0.35"/>
<line x1="131" y1="22" x2="131" y2="32" stroke="#888888" stroke-width="0.35"/>
<line x1="139" y1="22" x2="139" y2="32" stroke="#888888" stroke-width="0.35"/>
<line x1="147" y1="22" x2="147" y2="32" stroke="#888888" stroke-width="0.35"/>
<line x1="10" y1="27" x2="28" y2="27" stroke="#888888" stroke-width="0.5" marker-end="url(#arrowhead-gray)" />
<text x="75" y="50" font-family="Arial, Helvetica, sans-serif" font-size="8" fill="#1a1a1a" text-anchor="middle" font-weight="bold" font-style="normal">PM Isolator</text>
</svg>
