<?xml version="1.0" encoding="UTF-8"?>
<svg xmlns="http://www.w3.org/2000/svg" viewBox="0 0 120 50" width="120" height="50">
<defs>
  <marker id="arrowhead" markerWidth="6" markerHeight="4" refX="5" refY="2" orient="auto">
    <polygon points="0 0, 6 2, 0 4" fill="#1a1a1a" />
  </marker>
  <marker id="arrowhead-beam" markerWidth="6" markerHeight="4" refX="5" refY="2" orient="auto">
    <polygon points="0 0, 6 2, 0 4" fill="#c0392b" />
  </marker>
  <marker id="arrowhead-gray" markerWidth="5" markerHeight="3.5" refX="4" refY="1.75" orient="auto">
    <polygon points="0 0, 5 1.75, 0 3.5" fill="#888888" />
  </marker>
</defs>
<line x1="5" y1="25" x2="48" y2="25" stroke="#333333" stroke-width="0.7" stroke-linecap="round" />
<line x1="52" y1="10" x2="52" y2="40" stroke="#1a1a1a" stroke-width="1" opacity="0.5"/>
<path d="M49,18 L51,16 L53,18 L53,21 L51,23 L49,21 Z" fill="none" stroke="#1a1a1a" stroke-width="0.3" opacity="0.4"/>
<path d="M49,28 L51,26 L53,28 L53,31 L51,33 L49,31 Z" fill="none" stroke="#1a1a1a" stroke-width="0.3" opacity="0.4"/>
<line x1="56" y1="25" x2="115" y2="25" stroke="#333333" stroke-width="0.7" stroke-linecap="round" />
<line x1="10" y1="25" x2="28" y2="25" stroke="#888888" stroke-width="0.5" marker-end="url(#arrowhead-gray)" />
<text x="56" y="46" font-family="Arial, Helvetica, sans-serif" font-size="8" fill="#1a1a1a" text-anchor="middle" font-weight="bold" font-style="normal">Graphene SA</text>
</svg>
