<?xml version="1.0" encoding="UTF-8"?>
<svg xmlns="http://www.w3.org/2000/svg" viewBox="0 0 140 55" width="140" height="55">
<defs>
  <marker id="arrowhead" markerWidth="6" markerHeight="4" refX="5" refY="2" orient="auto">
    <polygon points="0 0, 6 2, 0 4" fill="#000000" />
  </marker>
</defs>
<line x1="5" y1="27" x2="25" y2="27" stroke="#1B1E89" stroke-width="2.5" stroke-linecap="round" />
<rect x="25" y="8" width="65" height="38" rx="3" fill="#D4D8E8" stroke="#000000" stroke-width="0.75"/>
<rect x="90" y="12" width="12" height="30" rx="2" fill="#444444" stroke="#000000" stroke-width="0.4" opacity="0.5"/>
<line x1="92" y1="14" x2="100" y2="14" stroke="#000000" stroke-width="0.2" opacity="0.35"/>
<line x1="92" y1="17" x2="100" y2="17" stroke="#000000" stroke-width="0.2" opacity="0.35"/>
<line x1="92" y1="20" x2="100" y2="20" stroke="#000000" stroke-width="0.2" opacity="0.35"/>
<line x1="92" y1="23" x2="100" y2="23" stroke="#000000" stroke-width="0.2" opacity="0.35"/>
<line x1="92" y1="26" x2="100" y2="26" stroke="#000000" stroke-width="0.2" opacity="0.35"/>
<line x1="92" y1="29" x2="100" y2="29" stroke="#000000" stroke-width="0.2" opacity="0.35"/>
<line x1="92" y1="32" x2="100" y2="32" stroke="#000000" stroke-width="0.2" opacity="0.35"/>
<line x1="92" y1="35" x2="100" y2="35" stroke="#000000" stroke-width="0.2" opacity="0.35"/>
<line x1="92" y1="38" x2="100" y2="38" stroke="#000000" stroke-width="0.2" opacity="0.35"/>
<line x1="104" y1="12" x2="104" y2="42" stroke="#000000" stroke-width="0.75"/>
<line x1="106" y1="27" x2="135" y2="27" stroke="#CC0000" stroke-width="0.8" opacity="0.5"/>
<text x="57" y="30" font-family="Helvetica, Arial, sans-serif" font-size="6" fill="#CC4444" text-anchor="middle" font-weight="normal" font-style="normal">kW</text>
<text x="65" y="52" font-family="Helvetica, Arial, sans-serif" font-size="8" fill="#000000" text-anchor="middle" font-weight="bold" font-style="normal">LCA/HLC connector</text>
</svg>
