<svg xmlns="http://www.w3.org/2000/svg" viewBox="0 0 170 65" width="170" height="65" font-family="Arial, Helvetica, sans-serif">
<defs>
<marker id="arrowhead" markerWidth="6" markerHeight="4" refX="5" refY="2" orient="auto"><polygon points="0,0 6,2 0,4" fill="#1a1a1a"/></marker>
<marker id="arrowhead-beam" markerWidth="6" markerHeight="4" refX="5" refY="2" orient="auto"><polygon points="0,0 6,2 0,4" fill="#c0392b"/></marker>
</defs>
<line x1="5" y1="20" x2="40" y2="20" stroke="#c0392b" stroke-width="0.6" opacity="0.15"/>
<line x1="5" y1="28" x2="40" y2="28" stroke="#c0392b" stroke-width="0.6" opacity="0.15"/>
<line x1="5" y1="33" x2="40" y2="33" stroke="#c0392b" stroke-width="0.6" opacity="0.15"/>
<line x1="5" y1="38" x2="40" y2="38" stroke="#c0392b" stroke-width="0.6" opacity="0.15"/>
<line x1="5" y1="46" x2="40" y2="46" stroke="#c0392b" stroke-width="0.6" opacity="0.15"/>
<line x1="10" y1="33" x2="28" y2="33" stroke="#c0392b" stroke-width="0.6" marker-end="url(#arrowhead-beam)"/>
<path d="M42.0,13.0 L42.0,53.0 C60,43.0 60,23.0 42.0,13.0 Z" fill="#f4f6fa" stroke="#1a1a1a" stroke-width="0.5"/>
<line x1="58" y1="20" x2="100" y2="30" stroke="#c0392b" stroke-width="0.3" opacity="0.15"/>
<line x1="58" y1="46" x2="100" y2="36" stroke="#c0392b" stroke-width="0.3" opacity="0.15"/>
<path d="M112.5,22.0 L112.5,44.0 L103.5,44.0 C108,38.5 108,27.5 103.5,22.0 Z" fill="#f4f6fa" stroke="#1a1a1a" stroke-width="0.5"/>
<line x1="118" y1="30" x2="165" y2="30" stroke="#c0392b" stroke-width="0.6" opacity="0.2"/>
<line x1="118" y1="33" x2="165" y2="33" stroke="#c0392b" stroke-width="0.6" opacity="0.2"/>
<line x1="118" y1="36" x2="165" y2="36" stroke="#c0392b" stroke-width="0.6" opacity="0.2"/>
<text x="85" y="60" font-family="Arial, Helvetica, sans-serif" font-size="7" fill="#1a1a1a" text-anchor="middle" font-weight="bold">Beam reducer</text>
</svg>
