<?xml version="1.0" encoding="UTF-8"?>
<svg xmlns="http://www.w3.org/2000/svg" viewBox="0 0 200 80" width="200" height="80">
<defs>
  <marker id="arrowhead" markerWidth="6" markerHeight="4" refX="5" refY="2" orient="auto">
    <polygon points="0 0, 6 2, 0 4" fill="#1a1a1a" />
  </marker>
  <marker id="arrowhead-beam" markerWidth="6" markerHeight="4" refX="5" refY="2" orient="auto">
    <polygon points="0 0, 6 2, 0 4" fill="#c0392b" />
  </marker>
  <marker id="arrowhead-gray" markerWidth="5" markerHeight="3.5" refX="4" refY="1.75" orient="auto">
    <polygon points="0 0, 5 1.75, 0 3.5" fill="#888888" />
  </marker>
</defs>
<rect x="30" y="10" width="120" height="55" rx="3" fill="#f0f0f0" stroke="#1a1a1a" stroke-width="0.5" />
<circle cx="55" cy="37" r="8" fill="none" stroke="#1a1a1a" stroke-width="0.3"/>
<path d="M55,33 A3,3 0 1,1 57,38" fill="none" stroke="#c0392b" stroke-width="0.3"/>
<circle cx="80" cy="37" r="8" fill="none" stroke="#1a1a1a" stroke-width="0.3"/>
<path d="M80,33 A3,3 0 1,1 82,38" fill="none" stroke="#c0392b" stroke-width="0.3"/>
<circle cx="105" cy="37" r="8" fill="none" stroke="#1a1a1a" stroke-width="0.3"/>
<path d="M105,33 A3,3 0 1,1 107,38" fill="none" stroke="#c0392b" stroke-width="0.3"/>
<circle cx="130" cy="37" r="8" fill="none" stroke="#1a1a1a" stroke-width="0.3"/>
<path d="M130,33 A3,3 0 1,1 132,38" fill="none" stroke="#c0392b" stroke-width="0.3"/>
<line x1="5" y1="20" x2="30" y2="20" stroke="#333333" stroke-width="0.7" stroke-linecap="round" />
<line x1="150" y1="20" x2="195" y2="20" stroke="#333333" stroke-width="0.7" stroke-linecap="round" />
<line x1="5" y1="32" x2="30" y2="32" stroke="#333333" stroke-width="0.7" stroke-linecap="round" />
<line x1="150" y1="32" x2="195" y2="32" stroke="#333333" stroke-width="0.7" stroke-linecap="round" />
<line x1="5" y1="44" x2="30" y2="44" stroke="#333333" stroke-width="0.7" stroke-linecap="round" />
<line x1="150" y1="44" x2="195" y2="44" stroke="#333333" stroke-width="0.7" stroke-linecap="round" />
<line x1="5" y1="56" x2="30" y2="56" stroke="#333333" stroke-width="0.7" stroke-linecap="round" />
<line x1="150" y1="56" x2="195" y2="56" stroke="#333333" stroke-width="0.7" stroke-linecap="round" />
<text x="90" y="74" font-family="Arial, Helvetica, sans-serif" font-size="8" fill="#1a1a1a" text-anchor="middle" font-weight="bold" font-style="normal">Circulator array</text>
</svg>
