<svg xmlns="http://www.w3.org/2000/svg" viewBox="0 0 200 65" width="200" height="65" font-family="Arial, Helvetica, sans-serif">
<defs>
<marker id="arrowhead" markerWidth="6" markerHeight="4" refX="5" refY="2" orient="auto"><polygon points="0,0 6,2 0,4" fill="#000000"/></marker>
<marker id="arrowhead-beam" markerWidth="6" markerHeight="4" refX="5" refY="2" orient="auto"><polygon points="0,0 6,2 0,4" fill="#CC0000"/></marker>
<linearGradient id="crystal-grad" x1="0" y1="0" x2="1" y2="1"><stop offset="0%" stop-color="#E8D8F0"/><stop offset="100%" stop-color="#C0A8D0"/></linearGradient>
<linearGradient id="housing-grad" x1="0" y1="0" x2="0" y2="1"><stop offset="0%" stop-color="#B0B0B8"/><stop offset="100%" stop-color="#707078"/></linearGradient>
</defs>
<rect x="20" y="15" width="8" height="30" rx="1" fill="url(#housing-grad)" stroke="#000000" stroke-width="0.75"/>
<text x="24" y="12" font-family="Arial, Helvetica, sans-serif" font-size="4.5" fill="#666666" text-anchor="middle" font-weight="normal">Pol</text>
<rect x="50" y="12" width="65" height="36" rx="3" fill="url(#housing-grad)" stroke="#000000" stroke-width="0.75"/>
<rect x="60" y="18" width="45" height="24" rx="1" fill="url(#crystal-grad)" stroke="#000000" stroke-width="0.4"/>
<line x1="82" y1="12" x2="82" y2="4" stroke="#000000" stroke-width="0.5"/>
<text x="88" y="8" font-family="Arial, Helvetica, sans-serif" font-size="5.5" fill="#000000" text-anchor="middle" font-weight="normal">HV</text>
<rect x="130" y="18" width="6" height="24" rx="1" fill="#C8D8F0" stroke="#000000" stroke-width="0.4"/>
<text x="133" y="15" font-family="Arial, Helvetica, sans-serif" font-size="4.5" fill="#000000" text-anchor="middle" font-weight="normal">λ/4</text>
<line x1="5" y1="30" x2="20" y2="30" stroke="#CC0000" stroke-width="0.8" opacity="0.4"/>
<line x1="8" y1="30" x2="16" y2="30" stroke="#CC0000" stroke-width="0.8" marker-end="url(#arrowhead-beam)"/>
<line x1="136" y1="30" x2="195" y2="30" stroke="#CC0000" stroke-width="0.8" opacity="0.4"/>
<line x1="150" y1="30" x2="180" y2="30" stroke="#CC0000" stroke-width="0.8" marker-end="url(#arrowhead-beam)"/>
<text x="100" y="60" font-family="Arial, Helvetica, sans-serif" font-size="7" fill="#000000" text-anchor="middle" font-weight="bold">EO Q-switch</text>
</svg>
