<svg xmlns="http://www.w3.org/2000/svg" viewBox="0 0 220 75" width="220" height="75" font-family="Arial, Helvetica, sans-serif">
<defs>
<marker id="arrowhead" markerWidth="6" markerHeight="4" refX="5" refY="2" orient="auto"><polygon points="0,0 6,2 0,4" fill="#1a1a1a"/></marker>
<marker id="arrowhead-beam" markerWidth="6" markerHeight="4" refX="5" refY="2" orient="auto"><polygon points="0,0 6,2 0,4" fill="#c0392b"/></marker>
</defs>
<rect x="10" y="8" width="190" height="48" rx="4" fill="#f0f0f0" stroke="#1a1a1a" stroke-width="0.5"/>
<rect x="18" y="22" width="14" height="10" rx="2" fill="#888888" opacity="0.3" stroke="#1a1a1a" stroke-width="0.3"/>
<text x="25" y="20" font-family="Arial, Helvetica, sans-serif" font-size="4.5" fill="#888888" text-anchor="middle" font-weight="normal">SiC</text>
<line x1="65" y1="18" x2="75" y2="42" stroke="#1a1a1a" stroke-width="0.4"/>
<line x1="52" y1="14" x2="52" y2="22" stroke="#1a1a1a" stroke-width="0.6"/>
<line x1="82" y1="25" x2="95" y2="25" stroke="#1a1a1a" stroke-width="0.6"/>
<line x1="88" y1="18" x2="92" y2="18" stroke="#888888" stroke-width="0.3" marker-end="url(#arrowhead)"/>
<rect x="110" y="18" width="22" height="22" fill="none" stroke="#1a1a1a" stroke-width="0.4" stroke-dasharray="2,2"/>
<text x="121" y="32" font-family="Arial, Helvetica, sans-serif" font-size="5.5" fill="#1a1a1a" text-anchor="middle" font-weight="normal">S</text>
<rect x="150" y="20" width="14" height="14" fill="#202040" stroke="#1a1a1a" stroke-width="0.3" opacity="0.5"/>
<text x="157" y="30" font-family="Arial, Helvetica, sans-serif" font-size="4.5" fill="#1a1a1a" text-anchor="middle" font-weight="normal">MCT</text>
<line x1="164" y1="27" x2="195" y2="27" stroke="#1a1a1a" stroke-width="0.4"/>
<text x="180" y="24" font-family="Arial, Helvetica, sans-serif" font-size="4.5" fill="#888888" text-anchor="middle" font-weight="normal">FFT</text>
<text x="100" y="68" font-family="Arial, Helvetica, sans-serif" font-size="7" fill="#1a1a1a" text-anchor="middle" font-weight="bold">FTIR spectrometer</text>
</svg>
