<svg xmlns="http://www.w3.org/2000/svg" viewBox="0 0 180 80" width="180" height="80" font-family="Arial, Helvetica, sans-serif">
<defs>
<marker id="arrowhead" markerWidth="6" markerHeight="4" refX="5" refY="2" orient="auto"><polygon points="0,0 6,2 0,4" fill="#1a1a1a"/></marker>
<marker id="arrowhead-beam" markerWidth="6" markerHeight="4" refX="5" refY="2" orient="auto"><polygon points="0,0 6,2 0,4" fill="#c0392b"/></marker>
</defs>
<rect x="20" y="8" width="130" height="55" rx="4" fill="#f0f0f0" stroke="#1a1a1a" stroke-width="0.5"/>
<line x1="20" y1="28" x2="20" y2="32" stroke="#1a1a1a" stroke-width="0.5"/>
<line x1="20" y1="38" x2="20" y2="42" stroke="#1a1a1a" stroke-width="0.5"/>
<line x1="5" y1="35" x2="20" y2="35" stroke="#c0392b" stroke-width="0.6" opacity="0.4"/>
<line x1="8" y1="35" x2="16" y2="35" stroke="#c0392b" stroke-width="0.6" marker-end="url(#arrowhead-beam)"/>
<path d="M55,15 C48,25 48,45 55,55" fill="none" stroke="#1a1a1a" stroke-width="0.6"/>
<rect x="82" y="20" width="10" height="30" rx="1" fill="#f0f0f0" stroke="#1a1a1a" stroke-width="0.5"/>
<line x1="82" y1="22" x2="80" y2="23.5" stroke="#1a1a1a" stroke-width="0.3" opacity="0.3"/>
<line x1="82" y1="25" x2="80" y2="26.5" stroke="#1a1a1a" stroke-width="0.3" opacity="0.3"/>
<line x1="82" y1="28" x2="80" y2="29.5" stroke="#1a1a1a" stroke-width="0.3" opacity="0.3"/>
<line x1="82" y1="31" x2="80" y2="32.5" stroke="#1a1a1a" stroke-width="0.3" opacity="0.3"/>
<line x1="82" y1="34" x2="80" y2="35.5" stroke="#1a1a1a" stroke-width="0.3" opacity="0.3"/>
<line x1="82" y1="37" x2="80" y2="38.5" stroke="#1a1a1a" stroke-width="0.3" opacity="0.3"/>
<line x1="82" y1="40" x2="80" y2="41.5" stroke="#1a1a1a" stroke-width="0.3" opacity="0.3"/>
<line x1="82" y1="43" x2="80" y2="44.5" stroke="#1a1a1a" stroke-width="0.3" opacity="0.3"/>
<line x1="82" y1="46" x2="80" y2="47.5" stroke="#1a1a1a" stroke-width="0.3" opacity="0.3"/>
<path d="M115,15 C122,25 122,45 115,55" fill="none" stroke="#1a1a1a" stroke-width="0.6"/>
<line x1="150" y1="28" x2="150" y2="32" stroke="#1a1a1a" stroke-width="0.5"/>
<line x1="150" y1="38" x2="150" y2="42" stroke="#1a1a1a" stroke-width="0.5"/>
<line x1="150" y1="35" x2="175" y2="35" stroke="#c0392b" stroke-width="0.6" opacity="0.4"/>
<line x1="155" y1="35" x2="170" y2="35" stroke="#c0392b" stroke-width="0.6" marker-end="url(#arrowhead-beam)"/>
<text x="85" y="70" font-family="Arial, Helvetica, sans-serif" font-size="7" fill="#1a1a1a" text-anchor="middle" font-weight="bold">Monochromator (C-T)</text>
</svg>
