<?xml version="1.0" encoding="UTF-8"?>
<svg xmlns="http://www.w3.org/2000/svg" viewBox="0 0 180 60" width="180" height="60">
<defs>
  <marker id="arrowhead" markerWidth="6" markerHeight="4" refX="5" refY="2" orient="auto">
    <polygon points="0 0, 6 2, 0 4" fill="#000000" />
  </marker>
</defs>
<rect x="15" y="12" width="80" height="35" rx="3" fill="#D4D8E8" stroke="#000000" stroke-width="0.75" />
<line x1="30" y1="18" x2="30" y2="42" stroke="#000000" stroke-width="0.5" opacity="0.25"/>
<line x1="34" y1="18" x2="34" y2="42" stroke="#000000" stroke-width="0.5" opacity="0.25"/>
<line x1="38" y1="18" x2="38" y2="42" stroke="#000000" stroke-width="0.5" opacity="0.25"/>
<line x1="42" y1="18" x2="42" y2="42" stroke="#000000" stroke-width="0.5" opacity="0.25"/>
<line x1="46" y1="18" x2="46" y2="42" stroke="#000000" stroke-width="0.5" opacity="0.25"/>
<line x1="50" y1="18" x2="50" y2="42" stroke="#000000" stroke-width="0.5" opacity="0.25"/>
<line x1="54" y1="18" x2="54" y2="42" stroke="#000000" stroke-width="0.5" opacity="0.25"/>
<line x1="58" y1="18" x2="58" y2="42" stroke="#000000" stroke-width="0.5" opacity="0.25"/>
<line x1="62" y1="18" x2="62" y2="42" stroke="#000000" stroke-width="0.5" opacity="0.25"/>
<line x1="66" y1="18" x2="66" y2="42" stroke="#000000" stroke-width="0.5" opacity="0.25"/>
<line x1="70" y1="18" x2="70" y2="42" stroke="#000000" stroke-width="0.5" opacity="0.25"/>
<line x1="74" y1="18" x2="74" y2="42" stroke="#000000" stroke-width="0.5" opacity="0.25"/>
<line x1="78" y1="18" x2="78" y2="42" stroke="#000000" stroke-width="0.5" opacity="0.25"/>
<line x1="82" y1="18" x2="82" y2="42" stroke="#000000" stroke-width="0.5" opacity="0.25"/>
<polygon points="40,22 40,38 60,30" fill="none" stroke="#CC3300" stroke-width="0.5"/>
<line x1="60" y1="22" x2="60" y2="38" stroke="#CC3300" stroke-width="0.5"/>
<line x1="95" y1="30" x2="175" y2="30" stroke="#1B1E89" stroke-width="2.5" stroke-linecap="round" />
<line x1="40" y1="12" x2="40" y2="5" stroke="#000000" stroke-width="0.75"/>
<line x1="60" y1="12" x2="60" y2="5" stroke="#000000" stroke-width="0.75"/>
<text x="55" y="56" font-family="Helvetica, Arial, sans-serif" font-size="8" fill="#000000" text-anchor="middle" font-weight="bold" font-style="normal">DFB Laser</text>
</svg>
