<?xml version="1.0" encoding="UTF-8"?>
<svg xmlns="http://www.w3.org/2000/svg" viewBox="0 0 160 50" width="160" height="50">
<defs>
  <marker id="arrowhead" markerWidth="6" markerHeight="4" refX="5" refY="2" orient="auto">
    <polygon points="0 0, 6 2, 0 4" fill="#1a1a1a" />
  </marker>
  <marker id="arrowhead-beam" markerWidth="6" markerHeight="4" refX="5" refY="2" orient="auto">
    <polygon points="0 0, 6 2, 0 4" fill="#c0392b" />
  </marker>
  <marker id="arrowhead-gray" markerWidth="5" markerHeight="3.5" refX="4" refY="1.75" orient="auto">
    <polygon points="0 0, 5 1.75, 0 3.5" fill="#888888" />
  </marker>
</defs>
<line x1="5" y1="25" x2="30" y2="25" stroke="#333333" stroke-width="0.7" stroke-linecap="round" />
<line x1="8" y1="25" x2="20" y2="25" stroke="#888888" stroke-width="0.5" marker-end="url(#arrowhead-gray)" />
<rect x="30" y="8" width="85" height="34" rx="3" fill="#f0f0f0" stroke="#1a1a1a" stroke-width="0.5" />
<path d="M48,12 C52,18 52,32 48,38" fill="none" stroke="#1a1a1a" stroke-width="0.5"/>
<path d="M50,12 C54,18 54,32 50,38" fill="none" stroke="#888888" stroke-width="0.4" opacity="0.5"/>
<line x1="55" y1="18" x2="80" y2="18" stroke="#c0392b" stroke-width="0.4" opacity="0.4"/>
<line x1="55" y1="25" x2="80" y2="25" stroke="#c0392b" stroke-width="0.4" opacity="0.4"/>
<line x1="55" y1="32" x2="80" y2="32" stroke="#c0392b" stroke-width="0.4" opacity="0.4"/>
<path d="M82,12 C86,18 86,32 82,38" fill="none" stroke="#1a1a1a" stroke-width="0.5"/>
<path d="M84,12 C88,18 88,32 84,38" fill="none" stroke="#888888" stroke-width="0.4" opacity="0.5"/>
<line x1="115" y1="25" x2="155" y2="25" stroke="#333333" stroke-width="0.7" stroke-linecap="round" />
<text x="72" y="48" font-family="Arial, Helvetica, sans-serif" font-size="8" fill="#1a1a1a" text-anchor="middle" font-weight="bold" font-style="normal">Expanded beam</text>
</svg>
