<?xml version="1.0" encoding="UTF-8"?>
<svg xmlns="http://www.w3.org/2000/svg" viewBox="0 0 200 100" width="200" height="100">
<defs>
  <marker id="arrowhead" markerWidth="6" markerHeight="4" refX="5" refY="2" orient="auto">
    <polygon points="0 0, 6 2, 0 4" fill="#000000" />
  </marker>
  <linearGradient id="fiber-grad" x1="0" y1="0" x2="0" y2="1">
      <stop offset="0%" stop-color="#ADACC6"/>
      <stop offset="22%" stop-color="#1B1E89"/>
      <stop offset="100%" stop-color="#0D0F42"/>
    </linearGradient>
  <linearGradient id="gain-grad" x1="0" y1="0" x2="0" y2="1">
      <stop offset="0%" stop-color="#5DC85D"/>
      <stop offset="25%" stop-color="#2D8B2D"/>
      <stop offset="100%" stop-color="#145A14"/>
    </linearGradient>
  <linearGradient id="comp-grad" x1="0" y1="0" x2="0" y2="1">
      <stop offset="0%" stop-color="#F0F0F8"/>
      <stop offset="50%" stop-color="#B0B0C8"/>
      <stop offset="100%" stop-color="#707088"/>
    </linearGradient>
</defs>
<line x1="5" y1="50" x2="40" y2="50" stroke="url(#fiber-grad)" stroke-width="3.0" stroke-linecap="round" />
<line x1="155" y1="50" x2="195" y2="50" stroke="url(#fiber-grad)" stroke-width="3.0" stroke-linecap="round" />
<circle cx="55" cy="50" r="3" fill="#000000"/>
<path d="M55,47 C55,15 140,15 140,47" fill="none" stroke="GRADIENT" stroke-width="3.0"/>
<path d="M55,53 C55,80 80,80 90,65" fill="none" stroke="GRADIENT" stroke-width="3.0"/>
<path d="M90,65 C100,55 110,55 120,65" fill="none" stroke="#2D8B2D" stroke-width="3.5"/>
<path d="M120,65 C130,80 140,80 140,53" fill="none" stroke="GRADIENT" stroke-width="3.0"/>
<circle cx="140" cy="50" r="3" fill="#000000"/>
<line x1="140" y1="50" x2="155" y2="50" stroke="url(#fiber-grad)" stroke-width="3.0" stroke-linecap="round" />
<text x="97" y="30" font-family="Helvetica, Arial, sans-serif" font-size="6" fill="#444444" text-anchor="middle" font-weight="normal" font-style="normal">gain</text>
<text x="100" y="96" font-family="Helvetica, Arial, sans-serif" font-size="8" fill="#000000" text-anchor="middle" font-weight="bold" font-style="normal">NALM</text>
</svg>
