<?xml version="1.0" encoding="UTF-8"?>
<svg xmlns="http://www.w3.org/2000/svg" viewBox="0 0 180 120" width="180" height="120">
<defs>
  <marker id="arrowhead" markerWidth="6" markerHeight="4" refX="5" refY="2" orient="auto">
    <polygon points="0 0, 6 2, 0 4" fill="#000000" />
  </marker>
  <linearGradient id="fiber-grad" x1="0" y1="0" x2="0" y2="1">
      <stop offset="0%" stop-color="#ADACC6"/>
      <stop offset="22%" stop-color="#1B1E89"/>
      <stop offset="100%" stop-color="#0D0F42"/>
    </linearGradient>
  <linearGradient id="gain-grad" x1="0" y1="0" x2="0" y2="1">
      <stop offset="0%" stop-color="#5DC85D"/>
      <stop offset="25%" stop-color="#2D8B2D"/>
      <stop offset="100%" stop-color="#145A14"/>
    </linearGradient>
  <linearGradient id="comp-grad" x1="0" y1="0" x2="0" y2="1">
      <stop offset="0%" stop-color="#F0F0F8"/>
      <stop offset="50%" stop-color="#B0B0C8"/>
      <stop offset="100%" stop-color="#707088"/>
    </linearGradient>
</defs>
<line x1="30" y1="25" x2="150" y2="25" stroke="url(#fiber-grad)" stroke-width="3.0" stroke-linecap="round" />
<line x1="150" y1="25" x2="150" y2="85" stroke="url(#fiber-grad)" stroke-width="3.0" stroke-linecap="round" />
<line x1="150" y1="85" x2="30" y2="85" stroke="url(#fiber-grad)" stroke-width="3.0" stroke-linecap="round" />
<line x1="30" y1="85" x2="30" y2="25" stroke="url(#fiber-grad)" stroke-width="3.0" stroke-linecap="round" />
<path d="M70,25 C78,15 88,35 98,25" fill="none" stroke="url(#gain-grad)" stroke-width="3.0" stroke-linecap="round" />
<text x="84" y="15" font-family="Helvetica, Arial, sans-serif" font-size="6" fill="#2D8B2D" text-anchor="middle" font-weight="normal" font-style="normal">gain</text>
<rect x="143" y="48" width="14" height="14" rx="1" fill="url(#comp-grad)" stroke="#000000" stroke-width="0.75" />
<polygon points="147,51 147,59 154,55" fill="#000000" opacity="0.4"/>
<circle cx="90" cy="85" r="3" fill="#000000"/>
<line x1="90" y1="88" x2="90" y2="110" stroke="url(#fiber-grad)" stroke-width="3.0" stroke-linecap="round" />
<text x="95" y="108" font-family="Helvetica, Arial, sans-serif" font-size="7" fill="#444444" text-anchor="start" font-weight="normal" font-style="normal">out</text>
<text x="90" y="118" font-family="Helvetica, Arial, sans-serif" font-size="8" fill="#000000" text-anchor="middle" font-weight="bold" font-style="normal">Ring cavity</text>
</svg>
