<svg xmlns="http://www.w3.org/2000/svg" viewBox="0 0 180 70" width="180" height="70" font-family="Arial, Helvetica, sans-serif">
<defs>
<marker id="arrowhead" markerWidth="6" markerHeight="4" refX="5" refY="2" orient="auto"><polygon points="0,0 6,2 0,4" fill="#000000"/></marker>
<marker id="arrowhead-beam" markerWidth="6" markerHeight="4" refX="5" refY="2" orient="auto"><polygon points="0,0 6,2 0,4" fill="#CC0000"/></marker>
</defs>
<rect x="10" y="18" width="5" height="28" rx="1" fill="#D4D8E8" stroke="#000000" stroke-width="0.4"/>
<text x="12" y="14" font-family="Arial, Helvetica, sans-serif" font-size="4.5" fill="#000000" text-anchor="middle" font-weight="normal">P</text>
<line x1="5" y1="32" x2="10" y2="32" stroke="#CC0000" stroke-width="0.8" opacity="0.4"/>
<rect x="25" y="18" width="12" height="28" fill="#C8D0E0" stroke="#000000" stroke-width="0.4"/>
<text x="31" y="14" font-family="Arial, Helvetica, sans-serif" font-size="4.5" fill="#000000" text-anchor="middle" font-weight="normal">N₁</text>
<path d="M47.5,21.0 L47.5,43.0 C55,37.5 55,26.5 47.5,21.0 Z" fill="#C8D8F0" stroke="#000000" stroke-width="0.75"/>
<rect x="62" y="26" width="18" height="12" rx="1" fill="#D0C8A0" opacity="0.3" stroke="#000000" stroke-width="0.3"/>
<text x="71" y="35" font-family="Arial, Helvetica, sans-serif" font-size="5.5" fill="#000000" text-anchor="middle" font-weight="normal">S</text>
<path d="M94.5,21.0 L94.5,43.0 C87,37.5 87,26.5 94.5,21.0 Z" fill="#C8D8F0" stroke="#000000" stroke-width="0.75"/>
<rect x="108" y="18" width="12" height="28" fill="#C8D0E0" stroke="#000000" stroke-width="0.4"/>
<text x="114" y="14" font-family="Arial, Helvetica, sans-serif" font-size="4.5" fill="#000000" text-anchor="middle" font-weight="normal">N₂</text>
<rect x="132" y="18" width="5" height="28" rx="1" fill="#D4D8E8" stroke="#000000" stroke-width="0.4"/>
<text x="134" y="14" font-family="Arial, Helvetica, sans-serif" font-size="4.5" fill="#000000" text-anchor="middle" font-weight="normal">A</text>
<rect x="150" y="24" width="16" height="16" rx="2" fill="#808088" stroke="#000000" stroke-width="0.4"/>
<line x1="137" y1="32" x2="150" y2="32" stroke="#CC0000" stroke-width="0.8" opacity="0.3"/>
<text x="90" y="64" font-family="Arial, Helvetica, sans-serif" font-size="7" fill="#000000" text-anchor="middle" font-weight="bold">Nomarski DIC</text>
</svg>
