<?xml version="1.0" encoding="UTF-8"?>
<svg xmlns="http://www.w3.org/2000/svg" viewBox="0 0 120 80" width="120" height="80">
<defs>
  <marker id="arrowhead" markerWidth="6" markerHeight="4" refX="5" refY="2" orient="auto">
    <polygon points="0 0, 6 2, 0 4" fill="#1a1a1a" />
  </marker>
  <marker id="arrowhead-beam" markerWidth="6" markerHeight="4" refX="5" refY="2" orient="auto">
    <polygon points="0 0, 6 2, 0 4" fill="#c0392b" />
  </marker>
  <marker id="arrowhead-gray" markerWidth="5" markerHeight="3.5" refX="4" refY="1.75" orient="auto">
    <polygon points="0 0, 5 1.75, 0 3.5" fill="#888888" />
  </marker>
</defs>
<circle cx="60" cy="40" r="15" fill="none" stroke="#333333" stroke-width="0.7" opacity="0.5"/>
<circle cx="60" cy="40" r="20" fill="none" stroke="#333333" stroke-width="0.7" opacity="0.5"/>
<circle cx="60" cy="40" r="25" fill="none" stroke="#333333" stroke-width="0.7" opacity="0.5"/>
<line x1="5" y1="40" x2="35" y2="40" stroke="#333333" stroke-width="0.7" stroke-linecap="round" />
<line x1="85" y1="40" x2="115" y2="40" stroke="#333333" stroke-width="0.7" stroke-linecap="round" />
<line x1="10" y1="40" x2="22" y2="40" stroke="#888888" stroke-width="0.5" marker-end="url(#arrowhead-gray)" />
<path d="M40,12 A30,30 0 0,1 80,12" fill="none" stroke="#1a1a1a" stroke-width="0.35" stroke-dasharray="2,2"/>
<polygon points="78,10 82,12 78,14" fill="#1a1a1a"/>
<text x="60" y="45" font-family="Arial, Helvetica, sans-serif" font-size="10" fill="#888888" text-anchor="middle" font-weight="normal" font-style="normal">Ω</text>
<text x="60" y="75" font-family="Arial, Helvetica, sans-serif" font-size="8" fill="#1a1a1a" text-anchor="middle" font-weight="bold" font-style="normal">FOG coil</text>
</svg>
