<?xml version="1.0" encoding="UTF-8"?>
<svg xmlns="http://www.w3.org/2000/svg" viewBox="0 0 160 55" width="160" height="55">
<defs>
  <marker id="arrowhead" markerWidth="6" markerHeight="4" refX="5" refY="2" orient="auto">
    <polygon points="0 0, 6 2, 0 4" fill="#1a1a1a" />
  </marker>
  <marker id="arrowhead-beam" markerWidth="6" markerHeight="4" refX="5" refY="2" orient="auto">
    <polygon points="0 0, 6 2, 0 4" fill="#c0392b" />
  </marker>
  <marker id="arrowhead-gray" markerWidth="5" markerHeight="3.5" refX="4" refY="1.75" orient="auto">
    <polygon points="0 0, 5 1.75, 0 3.5" fill="#888888" />
  </marker>
</defs>
<line x1="5" y1="27" x2="35" y2="27" stroke="#333333" stroke-width="0.7" stroke-linecap="round" />
<line x1="8" y1="27" x2="22" y2="27" stroke="#888888" stroke-width="0.5" marker-end="url(#arrowhead-gray)" />
<rect x="35" y="8" width="75" height="38" rx="3" fill="#f0f0f0" stroke="#1a1a1a" stroke-width="0.5" />
<path d="M42,14 C38,22 38,32 42,40" fill="none" stroke="#1a1a1a" stroke-width="0.75"/>
<path d="M103,14 C107,22 107,32 103,40" fill="none" stroke="#1a1a1a" stroke-width="0.75"/>
<path d="M44,20 L100,28 L44,36" fill="none" stroke="#c0392b" stroke-width="0.4" opacity="0.3"/>
<path d="M44,36 L100,20" fill="none" stroke="#c0392b" stroke-width="0.4" opacity="0.2"/>
<line x1="110" y1="27" x2="155" y2="27" stroke="#333333" stroke-width="0.7" stroke-linecap="round" />
<line x1="120" y1="27" x2="140" y2="27" stroke="#888888" stroke-width="0.5" marker-end="url(#arrowhead-gray)" />
<text x="72" y="52" font-family="Arial, Helvetica, sans-serif" font-size="8" fill="#1a1a1a" text-anchor="middle" font-weight="bold" font-style="normal">Multipass cell</text>
</svg>
