<?xml version="1.0" encoding="UTF-8"?>
<svg xmlns="http://www.w3.org/2000/svg" viewBox="0 0 200 70" width="200" height="70">
<defs>
  <marker id="arrowhead" markerWidth="6" markerHeight="4" refX="5" refY="2" orient="auto">
    <polygon points="0 0, 6 2, 0 4" fill="#1a1a1a" />
  </marker>
  <marker id="arrowhead-beam" markerWidth="6" markerHeight="4" refX="5" refY="2" orient="auto">
    <polygon points="0 0, 6 2, 0 4" fill="#c0392b" />
  </marker>
  <marker id="arrowhead-gray" markerWidth="5" markerHeight="3.5" refX="4" refY="1.75" orient="auto">
    <polygon points="0 0, 5 1.75, 0 3.5" fill="#888888" />
  </marker>
</defs>
<line x1="5" y1="35" x2="40" y2="35" stroke="#333333" stroke-width="0.7" stroke-linecap="round" />
<line x1="10" y1="35" x2="28" y2="35" stroke="#888888" stroke-width="0.5" marker-end="url(#arrowhead-gray)" />
<rect x="40" y="10" width="100" height="50" rx="3" fill="#f0f0f0" stroke="#1a1a1a" stroke-width="0.5" />
<path d="M55,35 C62,25 72,45 82,35 C92,25 102,45 112,35" fill="none" stroke="#333333" stroke-width="0.7" />
<line x1="85" y1="2" x2="85" y2="10" stroke="#c0392b" stroke-width="1"/>
<polygon points="82,2 85,0 88,2" fill="#c0392b" opacity="0.7"/>
<text x="93" y="8" font-family="Arial, Helvetica, sans-serif" font-size="6" fill="#c0392b" text-anchor="middle" font-weight="normal" font-style="normal">pump</text>
<text x="8" y="29" font-family="Arial, Helvetica, sans-serif" font-size="7" fill="#888888" text-anchor="start" font-weight="normal" font-style="italic">λ₁</text>
<text x="193" y="29" font-family="Arial, Helvetica, sans-serif" font-size="7" fill="#888888" text-anchor="end" font-weight="normal" font-style="italic">λ₂</text>
<line x1="140" y1="35" x2="195" y2="35" stroke="#333333" stroke-width="0.7" stroke-linecap="round" />
<line x1="160" y1="35" x2="180" y2="35" stroke="#888888" stroke-width="0.5" marker-end="url(#arrowhead-gray)" />
<text x="90" y="66" font-family="Arial, Helvetica, sans-serif" font-size="8" fill="#1a1a1a" text-anchor="middle" font-weight="bold" font-style="normal">Wavelength converter</text>
</svg>
