<?xml version="1.0" encoding="UTF-8"?>
<svg xmlns="http://www.w3.org/2000/svg" viewBox="0 0 80 80" width="80" height="80">
<defs>
  <marker id="arrowhead" markerWidth="6" markerHeight="4" refX="5" refY="2" orient="auto">
    <polygon points="0 0, 6 2, 0 4" fill="#1a1a1a" />
  </marker>
  <marker id="arrowhead-beam" markerWidth="6" markerHeight="4" refX="5" refY="2" orient="auto">
    <polygon points="0 0, 6 2, 0 4" fill="#c0392b" />
  </marker>
  <marker id="arrowhead-gray" markerWidth="5" markerHeight="3.5" refX="4" refY="1.75" orient="auto">
    <polygon points="0 0, 5 1.75, 0 3.5" fill="#888888" />
  </marker>
</defs>
<circle cx="40" cy="40" r="36" fill="none" stroke="#888888" stroke-width="0.35"/>
<circle cx="40" cy="40" r="28" fill="white" stroke="#1a1a1a" stroke-width="0.35"/>
<line x1="50.0" y1="40.0" x2="45.0" y2="48.7" stroke="#888888" stroke-width="0.3" opacity="0.4"/>
<line x1="45.0" y1="48.7" x2="35.0" y2="48.7" stroke="#888888" stroke-width="0.3" opacity="0.4"/>
<line x1="35.0" y1="48.7" x2="30.0" y2="40.0" stroke="#888888" stroke-width="0.3" opacity="0.4"/>
<line x1="30.0" y1="40.0" x2="35.0" y2="31.3" stroke="#888888" stroke-width="0.3" opacity="0.4"/>
<line x1="35.0" y1="31.3" x2="45.0" y2="31.3" stroke="#888888" stroke-width="0.3" opacity="0.4"/>
<line x1="45.0" y1="31.3" x2="50.0" y2="40.0" stroke="#888888" stroke-width="0.3" opacity="0.4"/>
<line x1="57.0" y1="40.0" x2="48.5" y2="54.7" stroke="#888888" stroke-width="0.3" opacity="0.4"/>
<line x1="48.5" y1="54.7" x2="31.5" y2="54.7" stroke="#888888" stroke-width="0.3" opacity="0.4"/>
<line x1="31.5" y1="54.7" x2="23.0" y2="40.0" stroke="#888888" stroke-width="0.3" opacity="0.4"/>
<line x1="23.0" y1="40.0" x2="31.5" y2="25.3" stroke="#888888" stroke-width="0.3" opacity="0.4"/>
<line x1="31.5" y1="25.3" x2="48.5" y2="25.3" stroke="#888888" stroke-width="0.3" opacity="0.4"/>
<line x1="48.5" y1="25.3" x2="57.0" y2="40.0" stroke="#888888" stroke-width="0.3" opacity="0.4"/>
<line x1="64.0" y1="40.0" x2="52.0" y2="60.8" stroke="#888888" stroke-width="0.3" opacity="0.4"/>
<line x1="52.0" y1="60.8" x2="28.0" y2="60.8" stroke="#888888" stroke-width="0.3" opacity="0.4"/>
<line x1="28.0" y1="60.8" x2="16.0" y2="40.0" stroke="#888888" stroke-width="0.3" opacity="0.4"/>
<line x1="16.0" y1="40.0" x2="28.0" y2="19.2" stroke="#888888" stroke-width="0.3" opacity="0.4"/>
<line x1="28.0" y1="19.2" x2="52.0" y2="19.2" stroke="#888888" stroke-width="0.3" opacity="0.4"/>
<line x1="52.0" y1="19.2" x2="64.0" y2="40.0" stroke="#888888" stroke-width="0.3" opacity="0.4"/>
<circle cx="40" cy="40" r="8" fill="white" stroke="#888888" stroke-width="0.5"/>
</svg>
