<?xml version="1.0" encoding="UTF-8"?>
<svg xmlns="http://www.w3.org/2000/svg" viewBox="0 0 80 80" width="80" height="80">
<defs>
  <marker id="arrowhead" markerWidth="6" markerHeight="4" refX="5" refY="2" orient="auto">
    <polygon points="0 0, 6 2, 0 4" fill="#1a1a1a" />
  </marker>
  <marker id="arrowhead-beam" markerWidth="6" markerHeight="4" refX="5" refY="2" orient="auto">
    <polygon points="0 0, 6 2, 0 4" fill="#c0392b" />
  </marker>
  <marker id="arrowhead-gray" markerWidth="5" markerHeight="3.5" refX="4" refY="1.75" orient="auto">
    <polygon points="0 0, 5 1.75, 0 3.5" fill="#888888" />
  </marker>
</defs>
<circle cx="40" cy="40" r="36" fill="none" stroke="#888888" stroke-width="0.35"/>
<circle cx="40" cy="40" r="28" fill="white" stroke="#1a1a1a" stroke-width="0.35"/>
<circle cx="40.0" cy="22.0" r="7" fill="white" stroke="#888888" stroke-width="0.4"/>
<circle cx="40.0" cy="19.5" r="3.5" fill="white" stroke="#888888" stroke-width="0.35"/>
<circle cx="55.6" cy="31.0" r="7" fill="white" stroke="#888888" stroke-width="0.4"/>
<circle cx="57.8" cy="29.8" r="3.5" fill="white" stroke="#888888" stroke-width="0.35"/>
<circle cx="55.6" cy="49.0" r="7" fill="white" stroke="#888888" stroke-width="0.4"/>
<circle cx="57.8" cy="50.2" r="3.5" fill="white" stroke="#888888" stroke-width="0.35"/>
<circle cx="40.0" cy="58.0" r="7" fill="white" stroke="#888888" stroke-width="0.4"/>
<circle cx="40.0" cy="60.5" r="3.5" fill="white" stroke="#888888" stroke-width="0.35"/>
<circle cx="24.4" cy="49.0" r="7" fill="white" stroke="#888888" stroke-width="0.4"/>
<circle cx="22.2" cy="50.3" r="3.5" fill="white" stroke="#888888" stroke-width="0.35"/>
<circle cx="24.4" cy="31.0" r="7" fill="white" stroke="#888888" stroke-width="0.4"/>
<circle cx="22.2" cy="29.8" r="3.5" fill="white" stroke="#888888" stroke-width="0.35"/>
<circle cx="40" cy="40" r="7" fill="white" stroke="#888888" stroke-width="0.5"/>
</svg>
