<?xml version="1.0" encoding="UTF-8"?>
<svg xmlns="http://www.w3.org/2000/svg" viewBox="0 0 150 65" width="150" height="65">
<defs>
  <marker id="arrowhead" markerWidth="6" markerHeight="4" refX="5" refY="2" orient="auto">
    <polygon points="0 0, 6 2, 0 4" fill="#000000" />
  </marker>
</defs>
<rect x="20" y="10" width="90" height="38" rx="2" fill="#D4D8E8" stroke="#000000" stroke-width="0.75" />
<line x1="28" y1="48" x2="28" y2="58" stroke="#000000" stroke-width="0.5"/>
<line x1="28" y1="10" x2="28" y2="3" stroke="#000000" stroke-width="0.5"/>
<line x1="39" y1="48" x2="39" y2="58" stroke="#000000" stroke-width="0.5"/>
<line x1="39" y1="10" x2="39" y2="3" stroke="#000000" stroke-width="0.5"/>
<line x1="50" y1="48" x2="50" y2="58" stroke="#000000" stroke-width="0.5"/>
<line x1="50" y1="10" x2="50" y2="3" stroke="#000000" stroke-width="0.5"/>
<line x1="61" y1="48" x2="61" y2="58" stroke="#000000" stroke-width="0.5"/>
<line x1="61" y1="10" x2="61" y2="3" stroke="#000000" stroke-width="0.5"/>
<line x1="72" y1="48" x2="72" y2="58" stroke="#000000" stroke-width="0.5"/>
<line x1="72" y1="10" x2="72" y2="3" stroke="#000000" stroke-width="0.5"/>
<line x1="83" y1="48" x2="83" y2="58" stroke="#000000" stroke-width="0.5"/>
<line x1="83" y1="10" x2="83" y2="3" stroke="#000000" stroke-width="0.5"/>
<line x1="94" y1="48" x2="94" y2="58" stroke="#000000" stroke-width="0.5"/>
<line x1="94" y1="10" x2="94" y2="3" stroke="#000000" stroke-width="0.5"/>
<rect x="45" y="20" width="30" height="16" rx="1" fill="#D4D8E8" stroke="#000000" stroke-width="0.3"/>
<line x1="110" y1="28" x2="145" y2="28" stroke="#1B1E89" stroke-width="2.5" stroke-linecap="round" />
<text x="60" y="30" font-family="Helvetica, Arial, sans-serif" font-size="6" fill="#000000" text-anchor="middle" font-weight="normal" font-style="normal">chip</text>
<text x="75" y="64" font-family="Helvetica, Arial, sans-serif" font-size="8" fill="#000000" text-anchor="middle" font-weight="bold" font-style="normal">14-pin butterfly</text>
</svg>
