<svg xmlns="http://www.w3.org/2000/svg" viewBox="0 0 180 65" width="180" height="65" font-family="Arial, Helvetica, sans-serif">
<defs>
<marker id="arrowhead" markerWidth="6" markerHeight="4" refX="5" refY="2" orient="auto"><polygon points="0,0 6,2 0,4" fill="#000000"/></marker>
<marker id="arrowhead-beam" markerWidth="6" markerHeight="4" refX="5" refY="2" orient="auto"><polygon points="0,0 6,2 0,4" fill="#CC0000"/></marker>
<linearGradient id="housing-grad" x1="0" y1="0" x2="0" y2="1"><stop offset="0%" stop-color="#B0B0B8"/><stop offset="100%" stop-color="#707078"/></linearGradient>
<linearGradient id="lens-grad" x1="0" y1="0" x2="1" y2="0"><stop offset="0%" stop-color="#D0E0F8"/><stop offset="50%" stop-color="#E8F0FF"/><stop offset="100%" stop-color="#B8C8E0"/></linearGradient>
</defs>
<rect x="20" y="8" width="130" height="40" rx="3" fill="url(#housing-grad)" stroke="#000000" stroke-width="0.75"/>
<line x1="5" y1="28" x2="20" y2="28" stroke="#CC0000" stroke-width="0.8" opacity="0.5"/>
<line x1="8" y1="28" x2="16" y2="28" stroke="#CC0000" stroke-width="0.8" marker-end="url(#arrowhead-beam)"/>
<ellipse cx="45" cy="28" rx="3" ry="10" fill="url(#lens-grad)" stroke="#000000" stroke-width="0.3"/>
<line x1="30" y1="38" x2="100" y2="38" stroke="#000000" stroke-width="0.4"/>
<line x1="50" y1="42" x2="70" y2="42" stroke="#666666" stroke-width="0.3" marker-end="url(#arrowhead)"/>
<path d="M48,22 C55,25 65,28 70,27 C75,26 85,23 95,18" fill="none" stroke="#CC0000" stroke-width="0.4" opacity="0.3"/>
<path d="M48,34 C55,31 65,28 70,29 C75,30 85,33 95,38" fill="none" stroke="#CC0000" stroke-width="0.4" opacity="0.3"/>
<rect x="105" y="18" width="18" height="20" fill="#101828" stroke="#000000" stroke-width="0.3"/>
<rect x="128" y="14" width="18" height="14" rx="1" fill="#101828" stroke="#000000" stroke-width="0.3"/>
<text x="137" y="23" font-family="Arial, Helvetica, sans-serif" font-size="4" fill="#00CC66" text-anchor="middle">M²=1.2</text>
<line x1="150" y1="28" x2="175" y2="28" stroke="#000000" stroke-width="0.4"/>
<text x="85" y="58" font-family="Arial, Helvetica, sans-serif" font-size="7" fill="#000000" text-anchor="middle" font-weight="bold">M² beam analyzer</text>
</svg>
