<?xml version="1.0" encoding="UTF-8"?>
<svg xmlns="http://www.w3.org/2000/svg" viewBox="0 0 180 90" width="180" height="90">
<defs>
  <marker id="arrowhead" markerWidth="6" markerHeight="4" refX="5" refY="2" orient="auto">
    <polygon points="0 0, 6 2, 0 4" fill="#1a1a1a" />
  </marker>
  <marker id="arrowhead-beam" markerWidth="6" markerHeight="4" refX="5" refY="2" orient="auto">
    <polygon points="0 0, 6 2, 0 4" fill="#c0392b" />
  </marker>
  <marker id="arrowhead-gray" markerWidth="5" markerHeight="3.5" refX="4" refY="1.75" orient="auto">
    <polygon points="0 0, 5 1.75, 0 3.5" fill="#888888" />
  </marker>
</defs>
<line x1="5" y1="45" x2="35" y2="45" stroke="#333333" stroke-width="0.7" stroke-linecap="round" />
<line x1="10" y1="45" x2="25" y2="45" stroke="#888888" stroke-width="0.5" marker-end="url(#arrowhead-gray)" />
<rect x="35" y="10" width="90" height="70" rx="3" fill="#f0f0f0" stroke="#1a1a1a" stroke-width="0.5" />
<path d="M50,45 C65,30 85,30 110,45" fill="none" stroke="#888888" stroke-width="0.3" opacity="0.4"/>
<path d="M50,45 C65,35 85,35 110,45" fill="none" stroke="#888888" stroke-width="0.3" opacity="0.4"/>
<path d="M50,45 C65,40 85,40 110,45" fill="none" stroke="#888888" stroke-width="0.3" opacity="0.4"/>
<path d="M50,45 C65,45 85,45 110,45" fill="none" stroke="#888888" stroke-width="0.3" opacity="0.4"/>
<path d="M50,45 C65,50 85,50 110,45" fill="none" stroke="#888888" stroke-width="0.3" opacity="0.4"/>
<path d="M50,45 C65,55 85,55 110,45" fill="none" stroke="#888888" stroke-width="0.3" opacity="0.4"/>
<path d="M50,45 C65,60 85,60 110,45" fill="none" stroke="#888888" stroke-width="0.3" opacity="0.4"/>
<text x="80" y="50" font-family="Arial, Helvetica, sans-serif" font-size="6" fill="#1a1a1a" text-anchor="middle" font-weight="normal" font-style="normal">AWG</text>
<line x1="125" y1="22" x2="175" y2="22" stroke="#333333" stroke-width="0.7" stroke-linecap="round" />
<text x="173" y="16" font-family="Arial, Helvetica, sans-serif" font-size="7" fill="#888888" text-anchor="end" font-weight="normal" font-style="italic">ch1</text>
<line x1="125" y1="38" x2="175" y2="38" stroke="#333333" stroke-width="0.7" stroke-linecap="round" />
<text x="173" y="32" font-family="Arial, Helvetica, sans-serif" font-size="7" fill="#888888" text-anchor="end" font-weight="normal" font-style="italic">ch2</text>
<line x1="125" y1="54" x2="175" y2="54" stroke="#333333" stroke-width="0.7" stroke-linecap="round" />
<text x="173" y="48" font-family="Arial, Helvetica, sans-serif" font-size="7" fill="#888888" text-anchor="end" font-weight="normal" font-style="italic">ch3</text>
<line x1="125" y1="70" x2="175" y2="70" stroke="#333333" stroke-width="0.7" stroke-linecap="round" />
<text x="173" y="64" font-family="Arial, Helvetica, sans-serif" font-size="7" fill="#888888" text-anchor="end" font-weight="normal" font-style="italic">ch4</text>
<text x="8" y="39" font-family="Arial, Helvetica, sans-serif" font-size="7" fill="#888888" text-anchor="start" font-weight="normal" font-style="italic">in</text>
<text x="80" y="88" font-family="Arial, Helvetica, sans-serif" font-size="8" fill="#1a1a1a" text-anchor="middle" font-weight="bold" font-style="normal">AWG mux/demux</text>
</svg>
