<?xml version="1.0" encoding="UTF-8"?>
<svg xmlns="http://www.w3.org/2000/svg" viewBox="0 0 200 90" width="200" height="90">
<defs>
  <marker id="arrowhead" markerWidth="6" markerHeight="4" refX="5" refY="2" orient="auto">
    <polygon points="0 0, 6 2, 0 4" fill="#1a1a1a" />
  </marker>
  <marker id="arrowhead-beam" markerWidth="6" markerHeight="4" refX="5" refY="2" orient="auto">
    <polygon points="0 0, 6 2, 0 4" fill="#c0392b" />
  </marker>
  <marker id="arrowhead-gray" markerWidth="5" markerHeight="3.5" refX="4" refY="1.75" orient="auto">
    <polygon points="0 0, 5 1.75, 0 3.5" fill="#888888" />
  </marker>
</defs>
<rect x="15" y="10" width="50" height="65" rx="3" fill="#f0f0f0" stroke="#1a1a1a" stroke-width="0.5" />
<text x="40" y="45" font-family="Arial, Helvetica, sans-serif" font-size="6" fill="#1a1a1a" text-anchor="middle" font-weight="normal" font-style="normal">MUX</text>
<line x1="5" y1="20" x2="15" y2="20" stroke="#333333" stroke-width="0.7" stroke-linecap="round" />
<line x1="5" y1="35" x2="15" y2="35" stroke="#333333" stroke-width="0.7" stroke-linecap="round" />
<line x1="5" y1="50" x2="15" y2="50" stroke="#333333" stroke-width="0.7" stroke-linecap="round" />
<line x1="5" y1="65" x2="15" y2="65" stroke="#333333" stroke-width="0.7" stroke-linecap="round" />
<line x1="65" y1="42" x2="115" y2="42" stroke="#333333" stroke-width="0.7" stroke-linecap="round" />
<line x1="70" y1="42" x2="90" y2="42" stroke="#888888" stroke-width="0.5" marker-end="url(#arrowhead-gray)" />
<rect x="115" y="10" width="50" height="65" rx="3" fill="#f0f0f0" stroke="#1a1a1a" stroke-width="0.5" />
<text x="140" y="45" font-family="Arial, Helvetica, sans-serif" font-size="6" fill="#1a1a1a" text-anchor="middle" font-weight="normal" font-style="normal">DEMUX</text>
<line x1="165" y1="20" x2="195" y2="20" stroke="#333333" stroke-width="0.7" stroke-linecap="round" />
<line x1="170" y1="20" x2="185" y2="20" stroke="#888888" stroke-width="0.5" marker-end="url(#arrowhead-gray)" />
<line x1="165" y1="35" x2="195" y2="35" stroke="#333333" stroke-width="0.7" stroke-linecap="round" />
<line x1="170" y1="35" x2="185" y2="35" stroke="#888888" stroke-width="0.5" marker-end="url(#arrowhead-gray)" />
<line x1="165" y1="50" x2="195" y2="50" stroke="#333333" stroke-width="0.7" stroke-linecap="round" />
<line x1="170" y1="50" x2="185" y2="50" stroke="#888888" stroke-width="0.5" marker-end="url(#arrowhead-gray)" />
<line x1="165" y1="65" x2="195" y2="65" stroke="#333333" stroke-width="0.7" stroke-linecap="round" />
<line x1="170" y1="65" x2="185" y2="65" stroke="#888888" stroke-width="0.5" marker-end="url(#arrowhead-gray)" />
<text x="100" y="86" font-family="Arial, Helvetica, sans-serif" font-size="8" fill="#1a1a1a" text-anchor="middle" font-weight="bold" font-style="normal">MUX/DEMUX module</text>
</svg>
