<?xml version="1.0" encoding="UTF-8"?>
<svg xmlns="http://www.w3.org/2000/svg" viewBox="0 0 180 60" width="180" height="60">
<defs>
  <marker id="arrowhead" markerWidth="6" markerHeight="4" refX="5" refY="2" orient="auto">
    <polygon points="0 0, 6 2, 0 4" fill="#000000" />
  </marker>
  <linearGradient id="fiber-grad" x1="0" y1="0" x2="0" y2="1">
      <stop offset="0%" stop-color="#ADACC6"/>
      <stop offset="22%" stop-color="#1B1E89"/>
      <stop offset="100%" stop-color="#0D0F42"/>
    </linearGradient>
  <linearGradient id="eom-grad" x1="0" y1="0" x2="0" y2="1">
      <stop offset="0%" stop-color="#F0E8F8"/>
      <stop offset="50%" stop-color="#C0B0D8"/>
      <stop offset="100%" stop-color="#8878A0"/>
    </linearGradient>
</defs>
<line x1="5" y1="30" x2="35" y2="30" stroke="url(#fiber-grad)" stroke-width="3.0" stroke-linecap="round" />
<rect x="35" y="8" width="90" height="44" rx="3" fill="url(#eom-grad)" stroke="#000000" stroke-width="0.75"/>
<path d="M45,30 L55,18 L105,18 L115,30" fill="none" stroke="#000000" stroke-width="0.5"/>
<path d="M45,30 L55,42 L105,42 L115,30" fill="none" stroke="#000000" stroke-width="0.5"/>
<rect x="65" y="14" width="30" height="3" fill="#A0A0B0" stroke="#000000" stroke-width="0.3"/>
<rect x="65" y="22" width="30" height="3" fill="#A0A0B0" stroke="#000000" stroke-width="0.3"/>
<line x1="80" y1="8" x2="80" y2="0" stroke="#000000" stroke-width="0.75"/>
<text x="87" y="5" font-family="Helvetica, Arial, sans-serif" font-size="6" fill="#000000" text-anchor="middle" font-weight="normal" font-style="normal">RF</text>
<line x1="125" y1="30" x2="175" y2="30" stroke="url(#fiber-grad)" stroke-width="3.0" stroke-linecap="round" />
<text x="80" y="58" font-family="Helvetica, Arial, sans-serif" font-size="8" fill="#000000" text-anchor="middle" font-weight="bold" font-style="normal">MZM</text>
</svg>
