<?xml version="1.0" encoding="UTF-8"?>
<svg xmlns="http://www.w3.org/2000/svg" viewBox="0 0 140 55" width="140" height="55">
<defs>
  <marker id="arrowhead" markerWidth="6" markerHeight="4" refX="5" refY="2" orient="auto">
    <polygon points="0 0, 6 2, 0 4" fill="#000000" />
  </marker>
  <linearGradient id="fiber-grad" x1="0" y1="0" x2="0" y2="1">
      <stop offset="0%" stop-color="#ADACC6"/>
      <stop offset="22%" stop-color="#1B1E89"/>
      <stop offset="100%" stop-color="#0D0F42"/>
    </linearGradient>
  <linearGradient id="comp-grad" x1="0" y1="0" x2="0" y2="1">
      <stop offset="0%" stop-color="#F0F0F8"/>
      <stop offset="50%" stop-color="#B0B0C8"/>
      <stop offset="100%" stop-color="#707088"/>
    </linearGradient>
</defs>
<line x1="5" y1="27" x2="25" y2="27" stroke="url(#fiber-grad)" stroke-width="3.0" stroke-linecap="round" />
<rect x="25" y="10" width="60" height="30" rx="2" fill="GRADIENT" stroke="#000000" stroke-width="0.75"/>
<line x1="30" y1="10" x2="31.5" y2="12" stroke="#444444" stroke-width="0.3" opacity="0.4"/>
<line x1="33" y1="10" x2="34.5" y2="12" stroke="#444444" stroke-width="0.3" opacity="0.4"/>
<line x1="36" y1="10" x2="37.5" y2="12" stroke="#444444" stroke-width="0.3" opacity="0.4"/>
<line x1="39" y1="10" x2="40.5" y2="12" stroke="#444444" stroke-width="0.3" opacity="0.4"/>
<line x1="42" y1="10" x2="43.5" y2="12" stroke="#444444" stroke-width="0.3" opacity="0.4"/>
<line x1="45" y1="10" x2="46.5" y2="12" stroke="#444444" stroke-width="0.3" opacity="0.4"/>
<line x1="48" y1="10" x2="49.5" y2="12" stroke="#444444" stroke-width="0.3" opacity="0.4"/>
<line x1="51" y1="10" x2="52.5" y2="12" stroke="#444444" stroke-width="0.3" opacity="0.4"/>
<line x1="54" y1="10" x2="55.5" y2="12" stroke="#444444" stroke-width="0.3" opacity="0.4"/>
<line x1="57" y1="10" x2="58.5" y2="12" stroke="#444444" stroke-width="0.3" opacity="0.4"/>
<line x1="60" y1="10" x2="61.5" y2="12" stroke="#444444" stroke-width="0.3" opacity="0.4"/>
<line x1="63" y1="10" x2="64.5" y2="12" stroke="#444444" stroke-width="0.3" opacity="0.4"/>
<line x1="66" y1="10" x2="67.5" y2="12" stroke="#444444" stroke-width="0.3" opacity="0.4"/>
<line x1="69" y1="10" x2="70.5" y2="12" stroke="#444444" stroke-width="0.3" opacity="0.4"/>
<line x1="72" y1="10" x2="73.5" y2="12" stroke="#444444" stroke-width="0.3" opacity="0.4"/>
<line x1="75" y1="10" x2="76.5" y2="12" stroke="#444444" stroke-width="0.3" opacity="0.4"/>
<line x1="78" y1="10" x2="79.5" y2="12" stroke="#444444" stroke-width="0.3" opacity="0.4"/>
<line x1="81" y1="10" x2="82.5" y2="12" stroke="#444444" stroke-width="0.3" opacity="0.4"/>
<line x1="40" y1="40" x2="40" y2="50" stroke="#4488CC" stroke-width="1" stroke-linecap="round"/>
<line x1="55" y1="40" x2="55" y2="50" stroke="#4488CC" stroke-width="1" stroke-linecap="round"/>
<text x="42" y="52" font-family="Helvetica, Arial, sans-serif" font-size="7" fill="#444444" text-anchor="start" font-weight="normal" font-style="normal">H₂O</text>
<line x1="87" y1="14" x2="87" y2="36" stroke="#000000" stroke-width="0.75"/>
<line x1="89" y1="25" x2="135" y2="25" stroke="#CC0000" stroke-width="0.8" opacity="0.5"/>
<text x="65" y="6" font-family="Helvetica, Arial, sans-serif" font-size="8" fill="#000000" text-anchor="middle" font-weight="bold" font-style="normal">HP-SMA (cooled)</text>
</svg>
