<?xml version="1.0" encoding="UTF-8"?>
<svg xmlns="http://www.w3.org/2000/svg" viewBox="0 0 160 55" width="160" height="55">
<defs>
  <marker id="arrowhead" markerWidth="6" markerHeight="4" refX="5" refY="2" orient="auto">
    <polygon points="0 0, 6 2, 0 4" fill="#000000" />
  </marker>
  <linearGradient id="fiber-grad" x1="0" y1="0" x2="0" y2="1">
      <stop offset="0%" stop-color="#ADACC6"/>
      <stop offset="22%" stop-color="#1B1E89"/>
      <stop offset="100%" stop-color="#0D0F42"/>
    </linearGradient>
  <linearGradient id="comp-grad" x1="0" y1="0" x2="0" y2="1">
      <stop offset="0%" stop-color="#F0F0F8"/>
      <stop offset="50%" stop-color="#B0B0C8"/>
      <stop offset="100%" stop-color="#707088"/>
    </linearGradient>
</defs>
<rect x="15" y="10" width="75" height="35" rx="3" fill="url(#comp-grad)" stroke="#000000" stroke-width="0.75" />
<path d="M40,21 C50,19 60,23 70,21" fill="none" stroke="#CC3300" stroke-width="0.5" opacity="0.5"/>
<path d="M40,24 C50,22 60,26 70,24" fill="none" stroke="#CC3300" stroke-width="0.5" opacity="0.5"/>
<path d="M40,27 C50,25 60,29 70,27" fill="none" stroke="#CC3300" stroke-width="0.5" opacity="0.5"/>
<path d="M40,30 C50,28 60,32 70,30" fill="none" stroke="#CC3300" stroke-width="0.5" opacity="0.5"/>
<path d="M40,33 C50,31 60,35 70,33" fill="none" stroke="#CC3300" stroke-width="0.5" opacity="0.5"/>
<text x="52" y="32" font-family="Helvetica, Arial, sans-serif" font-size="6" fill="#000000" text-anchor="middle" font-weight="normal" font-style="normal">ASE</text>
<line x1="90" y1="27" x2="155" y2="27" stroke="url(#fiber-grad)" stroke-width="3.0" stroke-linecap="round" />
<text x="75" y="52" font-family="Helvetica, Arial, sans-serif" font-size="8" fill="#000000" text-anchor="middle" font-weight="bold" font-style="normal">ASE source</text>
</svg>
