<?xml version="1.0" encoding="UTF-8"?>
<svg xmlns="http://www.w3.org/2000/svg" viewBox="0 0 160 55" width="160" height="55">
<defs>
  <marker id="arrowhead" markerWidth="6" markerHeight="4" refX="5" refY="2" orient="auto">
    <polygon points="0 0, 6 2, 0 4" fill="#000000" />
  </marker>
  <linearGradient id="fiber-grad" x1="0" y1="0" x2="0" y2="1">
      <stop offset="0%" stop-color="#ADACC6"/>
      <stop offset="22%" stop-color="#1B1E89"/>
      <stop offset="100%" stop-color="#0D0F42"/>
    </linearGradient>
  <linearGradient id="comp-grad" x1="0" y1="0" x2="0" y2="1">
      <stop offset="0%" stop-color="#F0F0F8"/>
      <stop offset="50%" stop-color="#B0B0C8"/>
      <stop offset="100%" stop-color="#707088"/>
    </linearGradient>
</defs>
<rect x="15" y="10" width="80" height="35" rx="3" fill="url(#comp-grad)" stroke="#000000" stroke-width="0.75" />
<path d="M30,36 L35,36 L35,30 L40,30 L40,24 L45,24 L45,18 L50,18 L55,18 L55,24 L60,24 L60,30 L65,30 L65,36 L70,36" fill="none" stroke="#CC3300" stroke-width="0.5"/>
<text x="78" y="20" font-family="Helvetica, Arial, sans-serif" font-size="6" fill="#CC6600" text-anchor="middle" font-weight="normal" font-style="normal">mid-IR</text>
<line x1="95" y1="28" x2="155" y2="28" stroke="url(#fiber-grad)" stroke-width="3.0" stroke-linecap="round" />
<line x1="35" y1="10" x2="35" y2="4" stroke="#000000" stroke-width="0.75"/>
<line x1="60" y1="10" x2="60" y2="4" stroke="#000000" stroke-width="0.75"/>
<text x="55" y="52" font-family="Helvetica, Arial, sans-serif" font-size="8" fill="#000000" text-anchor="middle" font-weight="bold" font-style="normal">QCL</text>
</svg>
