<svg xmlns="http://www.w3.org/2000/svg" viewBox="0 0 100 70" width="100" height="70" font-family="Arial, Helvetica, sans-serif">
<defs>
<marker id="arrowhead" markerWidth="6" markerHeight="4" refX="5" refY="2" orient="auto"><polygon points="0,0 6,2 0,4" fill="#000000"/></marker>
<marker id="arrowhead-beam" markerWidth="6" markerHeight="4" refX="5" refY="2" orient="auto"><polygon points="0,0 6,2 0,4" fill="#CC0000"/></marker>
<linearGradient id="housing-grad" x1="0" y1="0" x2="0" y2="1"><stop offset="0%" stop-color="#B0B0B8"/><stop offset="100%" stop-color="#707078"/></linearGradient>
</defs>
<rect x="25" y="15" width="40" height="35" rx="2" fill="url(#housing-grad)" stroke="#000000" stroke-width="0.75"/>
<circle cx="45" cy="32" r="10" fill="#B0B8C8" stroke="#000000" stroke-width="0.4"/>
<line x1="35" y1="32" x2="32" y2="32" stroke="#000000" stroke-width="0.4"/>
<line x1="55" y1="32" x2="58" y2="32" stroke="#000000" stroke-width="0.4"/>
<line x1="45" y1="22" x2="45" y2="19" stroke="#000000" stroke-width="0.4"/>
<line x1="45" y1="42" x2="45" y2="45" stroke="#000000" stroke-width="0.4"/>
<line x1="5" y1="32" x2="25" y2="32" stroke="#CC0000" stroke-width="0.8" opacity="0.4"/>
<line x1="8" y1="32" x2="18" y2="32" stroke="#CC0000" stroke-width="0.8" marker-end="url(#arrowhead-beam)"/>
<line x1="65" y1="22" x2="95" y2="10" stroke="#CC0000" stroke-width="0.8" opacity="0.4"/>
<line x1="65" y1="32" x2="95" y2="32" stroke="#CC0000" stroke-width="0.3" opacity="0.2" stroke-dasharray="2,2"/>
<text x="45" y="65" font-family="Arial, Helvetica, sans-serif" font-size="7" fill="#000000" text-anchor="middle" font-weight="bold">MEMS scanner</text>
</svg>
