<?xml version="1.0" encoding="UTF-8"?>
<svg xmlns="http://www.w3.org/2000/svg" viewBox="0 0 200 55" width="200" height="55">
<defs>
  <marker id="arrowhead" markerWidth="6" markerHeight="4" refX="5" refY="2" orient="auto">
    <polygon points="0 0, 6 2, 0 4" fill="#1a1a1a" />
  </marker>
  <marker id="arrowhead-beam" markerWidth="6" markerHeight="4" refX="5" refY="2" orient="auto">
    <polygon points="0 0, 6 2, 0 4" fill="#c0392b" />
  </marker>
  <marker id="arrowhead-gray" markerWidth="5" markerHeight="3.5" refX="4" refY="1.75" orient="auto">
    <polygon points="0 0, 5 1.75, 0 3.5" fill="#888888" />
  </marker>
</defs>
<path d="M10,24 C50,19 100,32 150,17 L190,22" fill="none" stroke="#333333" stroke-width="0.4" opacity="0.5"/>
<path d="M10,27 C50,22 100,35 150,20 L190,25" fill="none" stroke="#333333" stroke-width="0.4" opacity="0.5"/>
<path d="M10,30 C50,25 100,38 150,23 L190,28" fill="none" stroke="#333333" stroke-width="0.4" opacity="0.5"/>
<line x1="15" y1="27" x2="35" y2="24" stroke="#888888" stroke-width="0.5" marker-end="url(#arrowhead-gray)" />
<path d="M80,38 C90,42 100,38 110,42" fill="none" stroke="#888888" stroke-width="0.4" marker-end="url(#arrowhead)"/>
<text x="100" y="50" font-family="Arial, Helvetica, sans-serif" font-size="8" fill="#1a1a1a" text-anchor="middle" font-weight="bold" font-style="normal">Shape sensor (MCF)</text>
</svg>
