<?xml version="1.0" encoding="UTF-8"?>
<svg xmlns="http://www.w3.org/2000/svg" viewBox="0 0 130 65" width="130" height="65">
<defs>
  <marker id="arrowhead" markerWidth="6" markerHeight="4" refX="5" refY="2" orient="auto">
    <polygon points="0 0, 6 2, 0 4" fill="#1a1a1a" />
  </marker>
  <marker id="arrowhead-beam" markerWidth="6" markerHeight="4" refX="5" refY="2" orient="auto">
    <polygon points="0 0, 6 2, 0 4" fill="#c0392b" />
  </marker>
  <marker id="arrowhead-gray" markerWidth="5" markerHeight="3.5" refX="4" refY="1.75" orient="auto">
    <polygon points="0 0, 5 1.75, 0 3.5" fill="#888888" />
  </marker>
</defs>
<line x1="5" y1="32" x2="25" y2="32" stroke="#333333" stroke-width="0.7" stroke-linecap="round" />
<line x1="8" y1="32" x2="18" y2="32" stroke="#888888" stroke-width="0.5" marker-end="url(#arrowhead-gray)" />
<rect x="25" y="10" width="65" height="42" rx="3" fill="#f0f0f0" stroke="#1a1a1a" stroke-width="0.5" />
<path d="M45,18 C48,22 42,26 45,30" fill="none" stroke="#1a1a1a" stroke-width="0.5"/>
<rect x="40" y="30" width="10" height="10" fill="#1a1a1a" opacity="0.3" stroke="#1a1a1a" stroke-width="0.4"/>
<line x1="62" y1="28" x2="62" y2="38" stroke="#888888" stroke-width="0.3" opacity="0.4"/>
<line x1="65" y1="28" x2="65" y2="38" stroke="#888888" stroke-width="0.3" opacity="0.4"/>
<line x1="68" y1="28" x2="68" y2="38" stroke="#888888" stroke-width="0.3" opacity="0.4"/>
<line x1="71" y1="28" x2="71" y2="38" stroke="#888888" stroke-width="0.3" opacity="0.4"/>
<line x1="74" y1="28" x2="74" y2="38" stroke="#888888" stroke-width="0.3" opacity="0.4"/>
<line x1="77" y1="28" x2="77" y2="38" stroke="#888888" stroke-width="0.3" opacity="0.4"/>
<line x1="80" y1="28" x2="80" y2="38" stroke="#888888" stroke-width="0.3" opacity="0.4"/>
<line x1="55" y1="48" x2="55" y2="55" stroke="#1a1a1a" stroke-width="0.5" marker-end="url(#arrowhead)"/>
<text x="62" y="55" font-family="Arial, Helvetica, sans-serif" font-size="6" fill="#1a1a1a" text-anchor="middle" font-weight="normal" font-style="italic">a</text>
<line x1="90" y1="32" x2="125" y2="32" stroke="#333333" stroke-width="0.7" stroke-linecap="round" />
<text x="57" y="64" font-family="Arial, Helvetica, sans-serif" font-size="8" fill="#1a1a1a" text-anchor="middle" font-weight="bold" font-style="normal">Fiber accelerometer</text>
</svg>
