<svg xmlns="http://www.w3.org/2000/svg" viewBox="0 0 120 80" width="120" height="80" font-family="Arial, Helvetica, sans-serif">
<defs>
<marker id="arrowhead" markerWidth="6" markerHeight="4" refX="5" refY="2" orient="auto"><polygon points="0,0 6,2 0,4" fill="#000000"/></marker>
<marker id="arrowhead-beam" markerWidth="6" markerHeight="4" refX="5" refY="2" orient="auto"><polygon points="0,0 6,2 0,4" fill="#CC0000"/></marker>
</defs>
<path d="M60,20 L60,60 L75,60 A20,20 0 0,0 75,20 Z" fill="#B0B8C8" stroke="#000000" stroke-width="0.75"/>
<line x1="60" y1="20" x2="60" y2="60" stroke="#000000" stroke-width="1.5"/>
<line x1="60" y1="22" x2="56" y2="25" stroke="#666666" stroke-width="0.3"/>
<line x1="60" y1="27" x2="56" y2="30" stroke="#666666" stroke-width="0.3"/>
<line x1="60" y1="32" x2="56" y2="35" stroke="#666666" stroke-width="0.3"/>
<line x1="60" y1="37" x2="56" y2="40" stroke="#666666" stroke-width="0.3"/>
<line x1="60" y1="42" x2="56" y2="45" stroke="#666666" stroke-width="0.3"/>
<line x1="60" y1="47" x2="56" y2="50" stroke="#666666" stroke-width="0.3"/>
<line x1="60" y1="52" x2="56" y2="55" stroke="#666666" stroke-width="0.3"/>
<line x1="60" y1="57" x2="56" y2="60" stroke="#666666" stroke-width="0.3"/>
<line x1="5" y1="40" x2="55" y2="40" stroke="#CC0000" stroke-width="0.8" opacity="0.4"/>
<line x1="10" y1="40" x2="30" y2="40" stroke="#CC0000" stroke-width="0.8" marker-end="url(#arrowhead-beam)"/>
<line x1="58" y1="42" x2="58" y2="75" stroke="#CC0000" stroke-width="0.8" opacity="0.3"/>
<text x="70" y="42" font-family="Arial, Helvetica, sans-serif" font-size="5.5" fill="#666666" text-anchor="middle" font-weight="normal">pass</text>
<text x="50" y="76" font-family="Arial, Helvetica, sans-serif" font-size="7" fill="#000000" text-anchor="middle" font-weight="bold">D-mirror</text>
</svg>
