<svg xmlns="http://www.w3.org/2000/svg" viewBox="0 0 150 60" width="150" height="60" font-family="Arial, Helvetica, sans-serif">
<defs>
<marker id="arrowhead" markerWidth="6" markerHeight="4" refX="5" refY="2" orient="auto"><polygon points="0,0 6,2 0,4" fill="#1a1a1a"/></marker>
<marker id="arrowhead-beam" markerWidth="6" markerHeight="4" refX="5" refY="2" orient="auto"><polygon points="0,0 6,2 0,4" fill="#c0392b"/></marker>
</defs>
<rect x="30" y="10" width="55" height="35" rx="3" fill="#f0f0f0" stroke="#1a1a1a" stroke-width="0.5"/>
<polygon points="48,22 58,27 48,32" fill="#888888" opacity="0.3" stroke="#1a1a1a" stroke-width="0.3"/>
<polygon points="68,22 58,27 68,32" fill="#888888" opacity="0.3" stroke="#1a1a1a" stroke-width="0.3"/>
<circle cx="58" cy="27" r="1" fill="#888888" opacity="0.5"/>
<line x1="5" y1="27" x2="30" y2="27" stroke="#c0392b" stroke-width="0.6" opacity="0.4"/>
<line x1="8" y1="27" x2="22" y2="27" stroke="#c0392b" stroke-width="0.6" marker-end="url(#arrowhead-beam)"/>
<text x="15" y="22" font-family="Arial, Helvetica, sans-serif" font-size="4.5" fill="#888888" text-anchor="middle" font-weight="normal">fs pump</text>
<path d="M85,27 C95,22 100,32 110,27 C115,24 120,30 130,27" fill="none" stroke="#c0392b" stroke-width="0.5" opacity="0.4"/>
<line x1="100" y1="27" x2="125" y2="27" stroke="#c0392b" stroke-width="0.6" marker-end="url(#arrowhead-beam)"/>
<text x="120" y="22" font-family="Arial, Helvetica, sans-serif" font-size="5.5" fill="#888888" text-anchor="middle" font-weight="normal">THz</text>
<line x1="58" y1="10" x2="58" y2="3" stroke="#1a1a1a" stroke-width="0.4"/>
<text x="64" y="6" font-family="Arial, Helvetica, sans-serif" font-size="4.5" fill="#888888" text-anchor="middle" font-weight="normal">V_bias</text>
<text x="75" y="55" font-family="Arial, Helvetica, sans-serif" font-size="7" fill="#1a1a1a" text-anchor="middle" font-weight="bold">THz PCA source</text>
</svg>
