<?xml version="1.0" encoding="UTF-8"?>
<svg xmlns="http://www.w3.org/2000/svg" viewBox="0 0 200 40" width="200" height="40">
<defs>
  <marker id="arrowhead" markerWidth="6" markerHeight="4" refX="5" refY="2" orient="auto">
    <polygon points="0 0, 6 2, 0 4" fill="#000000" />
  </marker>
  <linearGradient id="fiber-grad" x1="0" y1="0" x2="0" y2="1">
      <stop offset="0%" stop-color="#ADACC6"/>
      <stop offset="22%" stop-color="#1B1E89"/>
      <stop offset="100%" stop-color="#0D0F42"/>
    </linearGradient>
</defs>
<line x1="10" y1="20" x2="190" y2="20" stroke="url(#fiber-grad)" stroke-width="3.0" stroke-linecap="round" />
<line x1="55.0" y1="10" x2="55.0" y2="30" stroke="#000000" stroke-width="0.5" opacity="0.5"/>
<line x1="58.0" y1="10" x2="58.0" y2="30" stroke="#000000" stroke-width="0.5" opacity="0.5"/>
<line x1="61.3" y1="10" x2="61.3" y2="30" stroke="#000000" stroke-width="0.5" opacity="0.5"/>
<line x1="64.9" y1="10" x2="64.9" y2="30" stroke="#000000" stroke-width="0.5" opacity="0.5"/>
<line x1="68.8" y1="10" x2="68.8" y2="30" stroke="#000000" stroke-width="0.5" opacity="0.5"/>
<line x1="73.0" y1="10" x2="73.0" y2="30" stroke="#000000" stroke-width="0.5" opacity="0.5"/>
<line x1="77.5" y1="10" x2="77.5" y2="30" stroke="#000000" stroke-width="0.5" opacity="0.5"/>
<line x1="82.3" y1="10" x2="82.3" y2="30" stroke="#000000" stroke-width="0.5" opacity="0.5"/>
<line x1="87.4" y1="10" x2="87.4" y2="30" stroke="#000000" stroke-width="0.5" opacity="0.5"/>
<line x1="92.8" y1="10" x2="92.8" y2="30" stroke="#000000" stroke-width="0.5" opacity="0.5"/>
<line x1="98.5" y1="10" x2="98.5" y2="30" stroke="#000000" stroke-width="0.5" opacity="0.5"/>
<line x1="104.5" y1="10" x2="104.5" y2="30" stroke="#000000" stroke-width="0.5" opacity="0.5"/>
<line x1="110.8" y1="10" x2="110.8" y2="30" stroke="#000000" stroke-width="0.5" opacity="0.5"/>
<line x1="117.4" y1="10" x2="117.4" y2="30" stroke="#000000" stroke-width="0.5" opacity="0.5"/>
<line x1="124.3" y1="10" x2="124.3" y2="30" stroke="#000000" stroke-width="0.5" opacity="0.5"/>
<line x1="131.5" y1="10" x2="131.5" y2="30" stroke="#000000" stroke-width="0.5" opacity="0.5"/>
<line x1="139.0" y1="10" x2="139.0" y2="30" stroke="#000000" stroke-width="0.5" opacity="0.5"/>
<text x="100" y="38" font-family="Helvetica, Arial, sans-serif" font-size="8" fill="#000000" text-anchor="middle" font-weight="bold" font-style="normal">CFBG</text>
</svg>
