<?xml version="1.0" encoding="UTF-8"?>
<svg xmlns="http://www.w3.org/2000/svg" viewBox="0 0 200 45" width="200" height="45">
<defs>
  <marker id="arrowhead" markerWidth="6" markerHeight="4" refX="5" refY="2" orient="auto">
    <polygon points="0 0, 6 2, 0 4" fill="#000000" />
  </marker>
  <linearGradient id="fiber-grad" x1="0" y1="0" x2="0" y2="1">
      <stop offset="0%" stop-color="#ADACC6"/>
      <stop offset="22%" stop-color="#1B1E89"/>
      <stop offset="100%" stop-color="#0D0F42"/>
    </linearGradient>
</defs>
<line x1="10" y1="22" x2="190" y2="22" stroke="url(#fiber-grad)" stroke-width="3.0" stroke-linecap="round" />
<line x1="58" y1="12" x2="62" y2="32" stroke="#000000" stroke-width="0.5" opacity="0.4"/>
<line x1="63" y1="12" x2="67" y2="32" stroke="#000000" stroke-width="0.5" opacity="0.4"/>
<line x1="68" y1="12" x2="72" y2="32" stroke="#000000" stroke-width="0.5" opacity="0.4"/>
<line x1="73" y1="12" x2="77" y2="32" stroke="#000000" stroke-width="0.5" opacity="0.4"/>
<line x1="78" y1="12" x2="82" y2="32" stroke="#000000" stroke-width="0.5" opacity="0.4"/>
<line x1="83" y1="12" x2="87" y2="32" stroke="#000000" stroke-width="0.5" opacity="0.4"/>
<line x1="88" y1="12" x2="92" y2="32" stroke="#000000" stroke-width="0.5" opacity="0.4"/>
<line x1="93" y1="12" x2="97" y2="32" stroke="#000000" stroke-width="0.5" opacity="0.4"/>
<line x1="98" y1="12" x2="102" y2="32" stroke="#000000" stroke-width="0.5" opacity="0.4"/>
<line x1="103" y1="12" x2="107" y2="32" stroke="#000000" stroke-width="0.5" opacity="0.4"/>
<line x1="108" y1="12" x2="112" y2="32" stroke="#000000" stroke-width="0.5" opacity="0.4"/>
<line x1="113" y1="12" x2="117" y2="32" stroke="#000000" stroke-width="0.5" opacity="0.4"/>
<line x1="118" y1="12" x2="122" y2="32" stroke="#000000" stroke-width="0.5" opacity="0.4"/>
<line x1="123" y1="12" x2="127" y2="32" stroke="#000000" stroke-width="0.5" opacity="0.4"/>
<line x1="128" y1="12" x2="132" y2="32" stroke="#000000" stroke-width="0.5" opacity="0.4"/>
<line x1="133" y1="12" x2="137" y2="32" stroke="#000000" stroke-width="0.5" opacity="0.4"/>
<line x1="138" y1="12" x2="142" y2="32" stroke="#000000" stroke-width="0.5" opacity="0.4"/>
<line x1="90" y1="32" x2="85" y2="40" stroke="#0066CC" stroke-width="0.4" opacity="0.5" marker-end="url(#arrowhead)"/>
<line x1="110" y1="32" x2="115" y2="40" stroke="#0066CC" stroke-width="0.4" opacity="0.5" marker-end="url(#arrowhead)"/>
<text x="100" y="43" font-family="Helvetica, Arial, sans-serif" font-size="8" fill="#000000" text-anchor="middle" font-weight="bold" font-style="normal">TFBG</text>
</svg>
