<svg xmlns="http://www.w3.org/2000/svg" viewBox="0 0 130 65" width="130" height="65" font-family="Arial, Helvetica, sans-serif">
<defs>
<marker id="arrowhead" markerWidth="6" markerHeight="4" refX="5" refY="2" orient="auto"><polygon points="0,0 6,2 0,4" fill="#000000"/></marker>
<marker id="arrowhead-beam" markerWidth="6" markerHeight="4" refX="5" refY="2" orient="auto"><polygon points="0,0 6,2 0,4" fill="#CC0000"/></marker>
</defs>
<line x1="5" y1="32" x2="42" y2="32" stroke="#CC0000" stroke-width="0.8" opacity="0.5"/>
<line x1="10" y1="32" x2="28" y2="32" stroke="#CC0000" stroke-width="0.8" marker-end="url(#arrowhead-beam)"/>
<rect x="45" y="8" width="15" height="45" rx="1" fill="#C8D8F0" stroke="#000000" stroke-width="0.75" transform="rotate(5, 52, 30)"/>
<line x1="55" y1="28" x2="100" y2="22" stroke="#CC0000" stroke-width="0.4" opacity="0.3"/>
<line x1="58" y1="32" x2="100" y2="28" stroke="#CC0000" stroke-width="0.4" opacity="0.3"/>
<rect x="105" y="12" width="18" height="38" fill="#F0F0E8" stroke="#000000" stroke-width="0.4"/>
<line x1="106" y1="16" x2="122" y2="16" stroke="#000000" stroke-width="0.5" opacity="0.50"/>
<line x1="106" y1="20" x2="122" y2="20" stroke="#000000" stroke-width="0.5" opacity="0.19"/>
<line x1="106" y1="24" x2="122" y2="24" stroke="#000000" stroke-width="0.5" opacity="0.19"/>
<line x1="106" y1="28" x2="122" y2="28" stroke="#000000" stroke-width="0.5" opacity="0.50"/>
<line x1="106" y1="32" x2="122" y2="32" stroke="#000000" stroke-width="0.5" opacity="0.24"/>
<line x1="106" y1="36" x2="122" y2="36" stroke="#000000" stroke-width="0.5" opacity="0.15"/>
<line x1="106" y1="40" x2="122" y2="40" stroke="#000000" stroke-width="0.5" opacity="0.48"/>
<line x1="106" y1="44" x2="122" y2="44" stroke="#000000" stroke-width="0.5" opacity="0.30"/>
<text x="65" y="60" font-family="Arial, Helvetica, sans-serif" font-size="7" fill="#000000" text-anchor="middle" font-weight="bold">Shearing plate</text>
</svg>
