<svg xmlns="http://www.w3.org/2000/svg" viewBox="0 0 200 70" width="200" height="70" font-family="Arial, Helvetica, sans-serif">
<defs>
<marker id="arrowhead" markerWidth="6" markerHeight="4" refX="5" refY="2" orient="auto"><polygon points="0,0 6,2 0,4" fill="#1a1a1a"/></marker>
<marker id="arrowhead-beam" markerWidth="6" markerHeight="4" refX="5" refY="2" orient="auto"><polygon points="0,0 6,2 0,4" fill="#c0392b"/></marker>
</defs>
<line x1="5" y1="32" x2="35" y2="32" stroke="#c0392b" stroke-width="0.6" opacity="0.25"/>
<line x1="5" y1="35" x2="35" y2="35" stroke="#c0392b" stroke-width="0.6" opacity="0.25"/>
<line x1="5" y1="38" x2="35" y2="38" stroke="#c0392b" stroke-width="0.6" opacity="0.25"/>
<line x1="10" y1="35" x2="25" y2="35" stroke="#c0392b" stroke-width="0.6" marker-end="url(#arrowhead-beam)"/>
<path d="M37.0,17.5 L37.0,52.5 C52,43.75 52,26.25 37.0,17.5 Z" fill="#f4f6fa" stroke="#1a1a1a" stroke-width="0.5"/>
<line x1="50" y1="22" x2="95" y2="35" stroke="#c0392b" stroke-width="0.3" opacity="0.2"/>
<line x1="50" y1="48" x2="95" y2="35" stroke="#c0392b" stroke-width="0.3" opacity="0.2"/>
<circle cx="95" cy="35" r="1.5" fill="#c0392b" opacity="0.4"/>
<line x1="95" y1="35" x2="135" y2="18" stroke="#c0392b" stroke-width="0.3" opacity="0.2"/>
<line x1="95" y1="35" x2="135" y2="52" stroke="#c0392b" stroke-width="0.3" opacity="0.2"/>
<path d="M135.0,10.0 L135.0,60.0 C156,47.5 156,22.5 135.0,10.0 Z" fill="#f4f6fa" stroke="#1a1a1a" stroke-width="0.5"/>
<line x1="152" y1="18" x2="195" y2="18" stroke="#c0392b" stroke-width="0.6" opacity="0.2"/>
<line x1="152" y1="27" x2="195" y2="27" stroke="#c0392b" stroke-width="0.6" opacity="0.2"/>
<line x1="152" y1="35" x2="195" y2="35" stroke="#c0392b" stroke-width="0.6" opacity="0.2"/>
<line x1="152" y1="43" x2="195" y2="43" stroke="#c0392b" stroke-width="0.6" opacity="0.2"/>
<line x1="152" y1="52" x2="195" y2="52" stroke="#c0392b" stroke-width="0.6" opacity="0.2"/>
<text x="100" y="66" font-family="Arial, Helvetica, sans-serif" font-size="7" fill="#1a1a1a" text-anchor="middle" font-weight="bold">Keplerian beam expander</text>
</svg>
