<?xml version="1.0" encoding="UTF-8"?>
<svg xmlns="http://www.w3.org/2000/svg" viewBox="0 0 180 55" width="180" height="55">
<defs>
  <marker id="arrowhead" markerWidth="6" markerHeight="4" refX="5" refY="2" orient="auto">
    <polygon points="0 0, 6 2, 0 4" fill="#000000" />
  </marker>
  <linearGradient id="fiber-grad" x1="0" y1="0" x2="0" y2="1">
      <stop offset="0%" stop-color="#ADACC6"/>
      <stop offset="22%" stop-color="#1B1E89"/>
      <stop offset="100%" stop-color="#0D0F42"/>
    </linearGradient>
  <linearGradient id="comp-grad" x1="0" y1="0" x2="0" y2="1">
      <stop offset="0%" stop-color="#F0F0F8"/>
      <stop offset="50%" stop-color="#B0B0C8"/>
      <stop offset="100%" stop-color="#707088"/>
    </linearGradient>
</defs>
<line x1="5" y1="27" x2="40" y2="27" stroke="#CC0000" stroke-width="0.6" opacity="0.5"/>
<path d="M42,12 C48,20 48,34 42,42" fill="none" stroke="#000000" stroke-width="0.75"/>
<line x1="48" y1="18" x2="65" y2="27" stroke="#CC0000" stroke-width="0.4" opacity="0.3"/>
<line x1="48" y1="36" x2="65" y2="27" stroke="#CC0000" stroke-width="0.4" opacity="0.3"/>
<rect x="60" y="14" width="50" height="26" rx="2" fill="url(#comp-grad)" stroke="#000000" stroke-width="0.75" />
<text x="85" y="30" font-family="Helvetica, Arial, sans-serif" font-size="6" fill="#000000" text-anchor="middle" font-weight="normal" font-style="normal">stage</text>
<line x1="115" y1="27" x2="125" y2="27" stroke="#444444" stroke-width="0.4" marker-end="url(#arrowhead)"/>
<line x1="115" y1="27" x2="115" y2="17" stroke="#444444" stroke-width="0.4" marker-end="url(#arrowhead)"/>
<text x="128" y="28" font-family="Helvetica, Arial, sans-serif" font-size="6" fill="#444444" text-anchor="middle" font-weight="normal" font-style="normal">x</text>
<text x="116" y="14" font-family="Helvetica, Arial, sans-serif" font-size="6" fill="#444444" text-anchor="middle" font-weight="normal" font-style="normal">y</text>
<line x1="110" y1="27" x2="175" y2="27" stroke="url(#fiber-grad)" stroke-width="3.0" stroke-linecap="round" />
<text x="90" y="52" font-family="Helvetica, Arial, sans-serif" font-size="8" fill="#000000" text-anchor="middle" font-weight="bold" font-style="normal">Fiber launch</text>
</svg>
