<svg xmlns="http://www.w3.org/2000/svg" viewBox="0 0 160 80" width="160" height="80" font-family="Arial, Helvetica, sans-serif">
<defs>
<marker id="arrowhead" markerWidth="6" markerHeight="4" refX="5" refY="2" orient="auto"><polygon points="0,0 6,2 0,4" fill="#1a1a1a"/></marker>
<marker id="arrowhead-beam" markerWidth="6" markerHeight="4" refX="5" refY="2" orient="auto"><polygon points="0,0 6,2 0,4" fill="#c0392b"/></marker>
</defs>
<polygon points="30,20 30,55 55,55" fill="#f4f6fa" stroke="#1a1a1a" stroke-width="0.5"/>
<polygon points="75,20 100,20 100,55" fill="#f4f6fa" stroke="#1a1a1a" stroke-width="0.5"/>
<line x1="5" y1="34" x2="30" y2="34" stroke="#c0392b" stroke-width="0.4" opacity="0.3"/>
<line x1="5" y1="37" x2="30" y2="37" stroke="#c0392b" stroke-width="0.4" opacity="0.3"/>
<line x1="5" y1="40" x2="30" y2="40" stroke="#c0392b" stroke-width="0.4" opacity="0.3"/>
<line x1="8" y1="37" x2="20" y2="37" stroke="#c0392b" stroke-width="0.6" marker-end="url(#arrowhead-beam)"/>
<line x1="100" y1="31" x2="155" y2="31" stroke="#c0392b" stroke-width="0.4" opacity="0.3"/>
<line x1="100" y1="37" x2="155" y2="37" stroke="#c0392b" stroke-width="0.4" opacity="0.3"/>
<line x1="100" y1="43" x2="155" y2="43" stroke="#c0392b" stroke-width="0.4" opacity="0.3"/>
<text x="10" y="28" font-family="Arial, Helvetica, sans-serif" font-size="5.5" fill="#888888" text-anchor="middle" font-weight="normal">elliptical</text>
<text x="140" y="28" font-family="Arial, Helvetica, sans-serif" font-size="5.5" fill="#888888" text-anchor="middle" font-weight="normal">circular</text>
<text x="65" y="72" font-family="Arial, Helvetica, sans-serif" font-size="7" fill="#1a1a1a" text-anchor="middle" font-weight="bold">Anamorphic pair</text>
</svg>
