<svg xmlns="http://www.w3.org/2000/svg" viewBox="0 0 150 65" width="150" height="65" font-family="Arial, Helvetica, sans-serif">
<defs>
<marker id="arrowhead" markerWidth="6" markerHeight="4" refX="5" refY="2" orient="auto"><polygon points="0,0 6,2 0,4" fill="#1a1a1a"/></marker>
<marker id="arrowhead-beam" markerWidth="6" markerHeight="4" refX="5" refY="2" orient="auto"><polygon points="0,0 6,2 0,4" fill="#c0392b"/></marker>
</defs>
<polygon points="42,12 48,12 55,48 42,48" fill="#f4f6fa" stroke="#1a1a1a" stroke-width="0.5"/>
<polygon points="68,12 82,12 82,48 75,48" fill="#f4f6fa" stroke="#1a1a1a" stroke-width="0.5"/>
<path d="M47,8 A6,3 0 0,1 55,6" fill="none" stroke="#888888" stroke-width="0.3" marker-end="url(#arrowhead)"/>
<path d="M78,8 A6,3 0 0,0 70,6" fill="none" stroke="#888888" stroke-width="0.3" marker-end="url(#arrowhead)"/>
<line x1="5" y1="30" x2="42" y2="30" stroke="#c0392b" stroke-width="0.6" opacity="0.5"/>
<line x1="10" y1="30" x2="28" y2="30" stroke="#c0392b" stroke-width="0.6" marker-end="url(#arrowhead-beam)"/>
<line x1="82" y1="30" x2="145" y2="30" stroke="#c0392b" stroke-width="0.6" opacity="0.5"/>
<line x1="95" y1="30" x2="130" y2="30" stroke="#c0392b" stroke-width="0.6" marker-end="url(#arrowhead-beam)"/>
<text x="62" y="55" font-family="Arial, Helvetica, sans-serif" font-size="4.5" fill="#888888" text-anchor="middle" font-weight="normal">variable pointing</text>
<text x="75" y="62" font-family="Arial, Helvetica, sans-serif" font-size="7" fill="#1a1a1a" text-anchor="middle" font-weight="bold">Risley prism pair</text>
</svg>
