<?xml version="1.0" encoding="UTF-8"?>
<svg xmlns="http://www.w3.org/2000/svg" viewBox="0 0 200 60" width="200" height="60">
<defs>
  <marker id="arrowhead" markerWidth="6" markerHeight="4" refX="5" refY="2" orient="auto">
    <polygon points="0 0, 6 2, 0 4" fill="#1a1a1a" />
  </marker>
  <marker id="arrowhead-beam" markerWidth="6" markerHeight="4" refX="5" refY="2" orient="auto">
    <polygon points="0 0, 6 2, 0 4" fill="#c0392b" />
  </marker>
  <marker id="arrowhead-gray" markerWidth="5" markerHeight="3.5" refX="4" refY="1.75" orient="auto">
    <polygon points="0 0, 5 1.75, 0 3.5" fill="#888888" />
  </marker>
</defs>
<line x1="5" y1="30" x2="25" y2="30" stroke="#333333" stroke-width="0.7" stroke-linecap="round" />
<line x1="8" y1="30" x2="18" y2="30" stroke="#888888" stroke-width="0.5" marker-end="url(#arrowhead-gray)" />
<rect x="25" y="24" width="12" height="12" rx="1" fill="#f0f0f0" stroke="#1a1a1a" stroke-width="0.5" />
<polygon points="28,27 28,33 34,30" fill="#1a1a1a" opacity="0.4"/>
<rect x="40" y="22" width="12" height="16" rx="1" fill="#f0f0f0" stroke="#1a1a1a" stroke-width="0.4"/>
<line x1="46" y1="14" x2="46" y2="22" stroke="#c0392b" stroke-width="1"/>
<polygon points="43,10 46,6 49,10" fill="#c0392b" opacity="0.7"/>
<path d="M52,30 C60,20 70,40 80,30 C90,20 100,40 110,30 C120,20 130,40 140,30" fill="none" stroke="#333333" stroke-width="0.7" />
<rect x="145" y="24" width="12" height="12" rx="1" fill="#f0f0f0" stroke="#1a1a1a" stroke-width="0.5" />
<polygon points="148,27 148,33 154,30" fill="#1a1a1a" opacity="0.4"/>
<rect x="160" y="24" width="10" height="12" rx="1" fill="#f0f0f0" stroke="#1a1a1a" stroke-width="0.3"/>
<text x="165" y="22" font-family="Arial, Helvetica, sans-serif" font-size="3.5" fill="#1a1a1a" text-anchor="middle" font-weight="normal" font-style="normal">GFF</text>
<line x1="170" y1="30" x2="195" y2="30" stroke="#333333" stroke-width="0.7" stroke-linecap="round" />
<line x1="175" y1="30" x2="190" y2="30" stroke="#888888" stroke-width="0.5" marker-end="url(#arrowhead-gray)" />
<text x="100" y="55" font-family="Arial, Helvetica, sans-serif" font-size="8" fill="#1a1a1a" text-anchor="middle" font-weight="bold" font-style="normal">Booster EDFA</text>
</svg>
