<?xml version="1.0" encoding="UTF-8"?>
<svg xmlns="http://www.w3.org/2000/svg" viewBox="0 0 200 65" width="200" height="65">
<defs>
  <marker id="arrowhead" markerWidth="6" markerHeight="4" refX="5" refY="2" orient="auto">
    <polygon points="0 0, 6 2, 0 4" fill="#1a1a1a" />
  </marker>
  <marker id="arrowhead-beam" markerWidth="6" markerHeight="4" refX="5" refY="2" orient="auto">
    <polygon points="0 0, 6 2, 0 4" fill="#c0392b" />
  </marker>
  <marker id="arrowhead-gray" markerWidth="5" markerHeight="3.5" refX="4" refY="1.75" orient="auto">
    <polygon points="0 0, 5 1.75, 0 3.5" fill="#888888" />
  </marker>
</defs>
<rect x="15" y="8" width="150" height="42" rx="3" fill="#f0f0f0" stroke="#1a1a1a" stroke-width="0.5"/>
<line x1="15" y1="29" x2="35" y2="29" stroke="#333333" stroke-width="0.7" stroke-linecap="round" />
<rect x="35" y="22" width="12" height="14" rx="1" fill="#f0f0f0" stroke="#1a1a1a" stroke-width="0.5" />
<polygon points="38,25 38,33 44,29" fill="#1a1a1a" opacity="0.3"/>
<path d="M50,29 C56,22 62,36 68,29 C74,22 80,36 86,29" fill="none" stroke="#888888" stroke-width="0.8" opacity="0.5"/>
<rect x="90" y="22" width="12" height="14" rx="1" fill="#f0f0f0" stroke="#1a1a1a" stroke-width="0.5" />
<polygon points="93,25 93,33 99,29" fill="#1a1a1a" opacity="0.3"/>
<line x1="102" y1="29" x2="165" y2="29" stroke="#333333" stroke-width="0.7" stroke-linecap="round" />
<rect x="115" y="14" width="40" height="10" rx="1" fill="#101828" stroke="#1a1a1a" stroke-width="0.2"/>
<text x="135" y="22" font-family="Arial, Helvetica, sans-serif" font-size="4" fill="#00CC66" text-anchor="middle">G=20dB</text>
<line x1="5" y1="29" x2="15" y2="29" stroke="#333333" stroke-width="0.7" stroke-linecap="round" />
<line x1="165" y1="29" x2="195" y2="29" stroke="#333333" stroke-width="0.7" stroke-linecap="round" />
<line x1="7" y1="29" x2="13" y2="29" stroke="#888888" stroke-width="0.5" marker-end="url(#arrowhead-gray)" />
<line x1="175" y1="29" x2="188" y2="29" stroke="#888888" stroke-width="0.5" marker-end="url(#arrowhead-gray)" />
<text x="90" y="60" font-family="Arial, Helvetica, sans-serif" font-size="8" fill="#1a1a1a" text-anchor="middle" font-weight="bold" font-style="normal">EDFA module</text>
</svg>
