<?xml version="1.0" encoding="UTF-8"?>
<svg xmlns="http://www.w3.org/2000/svg" viewBox="0 0 280 70" width="280" height="70">
<defs>
  <marker id="arrowhead" markerWidth="6" markerHeight="4" refX="5" refY="2" orient="auto">
    <polygon points="0 0, 6 2, 0 4" fill="#1a1a1a" />
  </marker>
  <marker id="arrowhead-beam" markerWidth="6" markerHeight="4" refX="5" refY="2" orient="auto">
    <polygon points="0 0, 6 2, 0 4" fill="#c0392b" />
  </marker>
  <marker id="arrowhead-gray" markerWidth="5" markerHeight="3.5" refX="4" refY="1.75" orient="auto">
    <polygon points="0 0, 5 1.75, 0 3.5" fill="#888888" />
  </marker>
</defs>
<line x1="5" y1="35" x2="30" y2="35" stroke="#333333" stroke-width="0.7" stroke-linecap="round" />
<line x1="10" y1="35" x2="25" y2="35" stroke="#888888" stroke-width="0.5" marker-end="url(#arrowhead-gray)" />
<path d="M30,35 C38,22 48,48 58,35 C68,22 78,48 88,35 C98,22 108,48 118,35" fill="none" stroke="#333333" stroke-width="0.7" />
<line x1="75" y1="12" x2="75" y2="28" stroke="#c0392b" stroke-width="1"/>
<text x="82" y="12" font-family="Arial, Helvetica, sans-serif" font-size="6" fill="#c0392b" text-anchor="middle" font-weight="normal" font-style="normal">Raman</text>
<line x1="125" y1="20" x2="125" y2="50" stroke="#888888" stroke-width="0.35" stroke-dasharray="2,2"/>
<rect x="130" y="28" width="14" height="14" rx="1" fill="#f0f0f0" stroke="#1a1a1a" stroke-width="0.5" />
<polygon points="133,31 133,39 141,35" fill="#1a1a1a" opacity="0.4"/>
<rect x="148" y="28" width="16" height="14" rx="1" fill="#f0f0f0" stroke="#1a1a1a" stroke-width="0.5"/>
<line x1="156" y1="12" x2="156" y2="28" stroke="#c0392b" stroke-width="1"/>
<text x="163" y="12" font-family="Arial, Helvetica, sans-serif" font-size="6" fill="#c0392b" text-anchor="middle" font-weight="normal" font-style="normal">980 nm</text>
<path d="M164,35 C172,22 182,48 192,35 C202,22 212,48 222,35" fill="none" stroke="#333333" stroke-width="0.7" />
<rect x="226" y="28" width="14" height="14" rx="1" fill="#f0f0f0" stroke="#1a1a1a" stroke-width="0.5" />
<polygon points="229,31 229,39 237,35" fill="#1a1a1a" opacity="0.4"/>
<line x1="240" y1="35" x2="275" y2="35" stroke="#333333" stroke-width="0.7" stroke-linecap="round" />
<text x="150" y="65" font-family="Arial, Helvetica, sans-serif" font-size="8" fill="#1a1a1a" text-anchor="middle" font-weight="bold" font-style="normal">Hybrid Raman+EDFA</text>
</svg>
