<svg xmlns="http://www.w3.org/2000/svg" viewBox="0 0 150 60" width="150" height="60" font-family="Arial, Helvetica, sans-serif">
<defs>
<marker id="arrowhead" markerWidth="6" markerHeight="4" refX="5" refY="2" orient="auto"><polygon points="0,0 6,2 0,4" fill="#1a1a1a"/></marker>
<marker id="arrowhead-beam" markerWidth="6" markerHeight="4" refX="5" refY="2" orient="auto"><polygon points="0,0 6,2 0,4" fill="#c0392b"/></marker>
</defs>
<rect x="35" y="8" width="60" height="36" rx="3" fill="#f0f0f0" stroke="#1a1a1a" stroke-width="0.5"/>
<rect x="45" y="14" width="38" height="22" rx="1" fill="#f4f6fa" stroke="#1a1a1a" stroke-width="0.4"/>
<line x1="50" y1="16" x2="50" y2="34" stroke="#888888" stroke-width="0.2" opacity="0.2"/>
<line x1="55" y1="16" x2="55" y2="34" stroke="#888888" stroke-width="0.2" opacity="0.2"/>
<line x1="60" y1="16" x2="60" y2="34" stroke="#888888" stroke-width="0.2" opacity="0.2"/>
<line x1="65" y1="16" x2="65" y2="34" stroke="#888888" stroke-width="0.2" opacity="0.2"/>
<line x1="70" y1="16" x2="70" y2="34" stroke="#888888" stroke-width="0.2" opacity="0.2"/>
<line x1="75" y1="16" x2="75" y2="34" stroke="#888888" stroke-width="0.2" opacity="0.2"/>
<line x1="64" y1="8" x2="64" y2="0" stroke="#1a1a1a" stroke-width="0.4"/>
<text x="70" y="5" font-family="Arial, Helvetica, sans-serif" font-size="4.5" fill="#888888" text-anchor="middle" font-weight="normal">f_RF</text>
<line x1="5" y1="26" x2="35" y2="26" stroke="#c0392b" stroke-width="0.6" opacity="0.5"/>
<line x1="10" y1="26" x2="25" y2="26" stroke="#c0392b" stroke-width="0.6" marker-end="url(#arrowhead-beam)"/>
<text x="15" y="20" font-family="Arial, Helvetica, sans-serif" font-size="5.5" fill="#c0392b" text-anchor="middle" font-weight="normal">f₀</text>
<line x1="95" y1="22" x2="145" y2="18" stroke="#c0392b" stroke-width="0.6" opacity="0.5"/>
<line x1="108" y1="21" x2="132" y2="19" stroke="#c0392b" stroke-width="0.6" marker-end="url(#arrowhead-beam)"/>
<text x="135" y="14" font-family="Arial, Helvetica, sans-serif" font-size="4.5" fill="#c0392b" text-anchor="middle" font-weight="normal">f₀±f_RF</text>
<line x1="95" y1="26" x2="145" y2="26" stroke="#c0392b" stroke-width="0.6" opacity="0.2"/>
<text x="75" y="54" font-family="Arial, Helvetica, sans-serif" font-size="7" fill="#1a1a1a" text-anchor="middle" font-weight="bold">AO freq shifter</text>
</svg>
