<svg xmlns="http://www.w3.org/2000/svg" viewBox="0 0 120 75" width="120" height="75" font-family="Arial, Helvetica, sans-serif">
<defs>
<marker id="arrowhead" markerWidth="6" markerHeight="4" refX="5" refY="2" orient="auto"><polygon points="0,0 6,2 0,4" fill="#000000"/></marker>
<marker id="arrowhead-beam" markerWidth="6" markerHeight="4" refX="5" refY="2" orient="auto"><polygon points="0,0 6,2 0,4" fill="#CC0000"/></marker>
</defs>
<rect x="30" y="40" width="50" height="20" rx="2" fill="#808088" stroke="#000000" stroke-width="0.75"/>
<ellipse cx="55" cy="32" rx="22" ry="6" fill="#B0B8C8" stroke="#000000" stroke-width="0.5"/>
<circle cx="55" cy="40" r="2" fill="#000000" opacity="0.4"/>
<path d="M30,28 A25,8 0 0,1 40,22" fill="none" stroke="#666666" stroke-width="0.4" marker-end="url(#arrowhead)"/>
<path d="M80,28 A25,8 0 0,0 70,22" fill="none" stroke="#666666" stroke-width="0.4" marker-end="url(#arrowhead)"/>
<line x1="5" y1="20" x2="35" y2="30" stroke="#CC0000" stroke-width="0.8" opacity="0.4"/>
<line x1="10" y1="22" x2="22" y2="26" stroke="#CC0000" stroke-width="0.8" marker-end="url(#arrowhead-beam)"/>
<line x1="75" y1="28" x2="115" y2="12" stroke="#CC0000" stroke-width="0.8" opacity="0.4"/>
<line x1="55" y1="60" x2="55" y2="72" stroke="#000000" stroke-width="0.4"/>
<text x="55" y="72" font-family="Arial, Helvetica, sans-serif" font-size="7" fill="#000000" text-anchor="middle" font-weight="bold">Tip-tilt mirror</text>
</svg>
