<svg xmlns="http://www.w3.org/2000/svg" viewBox="0 0 160 80" width="160" height="80" font-family="Arial, Helvetica, sans-serif">
<defs>
<marker id="arrowhead" markerWidth="6" markerHeight="4" refX="5" refY="2" orient="auto"><polygon points="0,0 6,2 0,4" fill="#1a1a1a"/></marker>
<marker id="arrowhead-beam" markerWidth="6" markerHeight="4" refX="5" refY="2" orient="auto"><polygon points="0,0 6,2 0,4" fill="#c0392b"/></marker>
</defs>
<rect x="50" y="8" width="30" height="55" rx="3" fill="#f0f0f0" stroke="#1a1a1a" stroke-width="0.5"/>
<ellipse cx="65" cy="18" rx="12" ry="4" fill="#f4f6fa" stroke="#1a1a1a" stroke-width="0.3"/>
<ellipse cx="65" cy="30" rx="12" ry="4" fill="#f4f6fa" stroke="#1a1a1a" stroke-width="0.3"/>
<ellipse cx="65" cy="42" rx="12" ry="4" fill="#f4f6fa" stroke="#1a1a1a" stroke-width="0.3"/>
<line x1="5" y1="30" x2="50" y2="35" stroke="#c0392b" stroke-width="0.4" opacity="0.3"/>
<line x1="5" y1="35" x2="50" y2="35" stroke="#c0392b" stroke-width="0.4" opacity="0.3"/>
<line x1="5" y1="40" x2="50" y2="35" stroke="#c0392b" stroke-width="0.4" opacity="0.3"/>
<line x1="80" y1="35" x2="110" y2="70" stroke="#c0392b" stroke-width="0.4" opacity="0.3"/>
<line x1="80" y1="35" x2="130" y2="70" stroke="#c0392b" stroke-width="0.4" opacity="0.3"/>
<line x1="80" y1="35" x2="150" y2="70" stroke="#c0392b" stroke-width="0.4" opacity="0.3"/>
<line x1="108" y1="70" x2="152" y2="70" stroke="#888888" stroke-width="0.35" stroke-dasharray="2,2"/>
<text x="130" y="68" font-family="Arial, Helvetica, sans-serif" font-size="4.5" fill="#888888" text-anchor="middle" font-weight="normal">flat field</text>
<text x="80" y="78" font-family="Arial, Helvetica, sans-serif" font-size="7" fill="#1a1a1a" text-anchor="middle" font-weight="bold">f-theta lens</text>
</svg>
