<?xml version="1.0" encoding="UTF-8"?>
<svg xmlns="http://www.w3.org/2000/svg" viewBox="0 0 180 55" width="180" height="55">
<defs>
  <marker id="arrowhead" markerWidth="6" markerHeight="4" refX="5" refY="2" orient="auto">
    <polygon points="0 0, 6 2, 0 4" fill="#000000" />
  </marker>
  <linearGradient id="comp-grad" x1="0" y1="0" x2="0" y2="1">
      <stop offset="0%" stop-color="#F0F0F8"/>
      <stop offset="50%" stop-color="#B0B0C8"/>
      <stop offset="100%" stop-color="#707088"/>
    </linearGradient>
</defs>
<rect x="10" y="8" width="160" height="35" rx="3" fill="GRADIENT" stroke="#000000" stroke-width="0.75"/>
<path d="M18,16 C50,16 80,19 120,16 C140,16 155,16" fill="none" stroke="GRADIENT" stroke-width="0.4" opacity="0.4"/>
<path d="M18,23 C50,23 80,20 120,23 C140,23 155,23" fill="none" stroke="GRADIENT" stroke-width="0.4" opacity="0.4"/>
<path d="M18,30 C50,30 80,33 120,30 C140,30 155,30" fill="none" stroke="GRADIENT" stroke-width="0.4" opacity="0.4"/>
<path d="M18,37 C50,37 80,34 120,37 C140,37 155,37" fill="none" stroke="GRADIENT" stroke-width="0.4" opacity="0.4"/>
<rect x="57" y="14" width="6" height="22" rx="1" fill="none" stroke="#444444" stroke-width="0.3"/>
<rect x="87" y="14" width="6" height="22" rx="1" fill="none" stroke="#444444" stroke-width="0.3"/>
<rect x="117" y="14" width="6" height="22" rx="1" fill="none" stroke="#444444" stroke-width="0.3"/>
<text x="90" y="52" font-family="Helvetica, Arial, sans-serif" font-size="8" fill="#000000" text-anchor="middle" font-weight="bold" font-style="normal">Splice tray</text>
</svg>
