<svg xmlns="http://www.w3.org/2000/svg" viewBox="0 0 120 110" width="120" height="110" font-family="Arial, Helvetica, sans-serif">
<defs>
<marker id="arrowhead" markerWidth="6" markerHeight="4" refX="5" refY="2" orient="auto"><polygon points="0,0 6,2 0,4" fill="#000000"/></marker>
<marker id="arrowhead-beam" markerWidth="6" markerHeight="4" refX="5" refY="2" orient="auto"><polygon points="0,0 6,2 0,4" fill="#CC0000"/></marker>
<linearGradient id="laser-grad" x1="0" y1="0" x2="1" y2="0"><stop offset="0%" stop-color="#404050"/><stop offset="100%" stop-color="#282838"/></linearGradient>
<linearGradient id="lens-grad" x1="0" y1="0" x2="1" y2="0"><stop offset="0%" stop-color="#D0E0F8"/><stop offset="50%" stop-color="#E8F0FF"/><stop offset="100%" stop-color="#B8C8E0"/></linearGradient>
</defs>
<rect x="25" y="80" width="50" height="20" rx="3" fill="url(#laser-grad)" stroke="#000000" stroke-width="0.75"/>
<text x="50" y="93" font-family="Arial, Helvetica, sans-serif" font-size="4.5" fill="white" text-anchor="middle" font-weight="normal">UV pulsed</text>
<path d="M50,57.0 C55,62.5 55,73.5 50,79.0 C45,73.5 45,62.5 50,57.0 Z" fill="url(#lens-grad)" stroke="#000000" stroke-width="0.75"/>
<line x1="50" y1="57" x2="50" y2="20" stroke="#6600CC" stroke-width="0.8" opacity="0.4"/>
<line x1="50" y1="48" x2="50" y2="25" stroke="#6600CC" stroke-width="0.8" marker-end="url(#arrowhead-beam)"/>
<line x1="46" y1="20" x2="46" y2="50" stroke="#6600CC" stroke-width="0.4" opacity="0.2" stroke-dasharray="2,2"/>
<line x1="60" y1="20" x2="60" y2="40" stroke="#666666" stroke-width="0.3"/>
<line x1="58" y1="20" x2="62" y2="20" stroke="#666666" stroke-width="0.3"/>
<line x1="58" y1="40" x2="62" y2="40" stroke="#666666" stroke-width="0.3"/>
<text x="68" y="32" font-family="Arial, Helvetica, sans-serif" font-size="4.5" fill="#666666" text-anchor="middle" font-weight="normal">gate</text>
<circle cx="50" cy="18" r="4" fill="#6600CC" opacity="0.15"/>
<text x="60" y="108" font-family="Arial, Helvetica, sans-serif" font-size="7" fill="#000000" text-anchor="middle" font-weight="bold">Rayleigh LGS</text>
</svg>
