<?xml version="1.0" encoding="UTF-8"?>
<svg xmlns="http://www.w3.org/2000/svg" viewBox="0 0 180 55" width="180" height="55">
<defs>
  <marker id="arrowhead" markerWidth="6" markerHeight="4" refX="5" refY="2" orient="auto">
    <polygon points="0 0, 6 2, 0 4" fill="#000000" />
  </marker>
  <linearGradient id="comp-grad" x1="0" y1="0" x2="0" y2="1">
      <stop offset="0%" stop-color="#F0F0F8"/>
      <stop offset="50%" stop-color="#B0B0C8"/>
      <stop offset="100%" stop-color="#707088"/>
    </linearGradient>
  <linearGradient id="fiber-grad" x1="0" y1="0" x2="0" y2="1">
      <stop offset="0%" stop-color="#ADACC6"/>
      <stop offset="22%" stop-color="#1B1E89"/>
      <stop offset="100%" stop-color="#0D0F42"/>
    </linearGradient>
</defs>
<line x1="5" y1="27" x2="45" y2="27" stroke="url(#fiber-grad)" stroke-width="3.0" stroke-linecap="round" />
<rect x="45" y="8" width="80" height="38" rx="3" fill="url(#comp-grad)" stroke="#000000" stroke-width="0.75" />
<polygon points="65,15 95,27 65,39" fill="#000000" opacity="0.3"/>
<line x1="50" y1="8" x2="50" y2="3" stroke="#444444" stroke-width="0.5"/>
<line x1="56" y1="8" x2="56" y2="3" stroke="#444444" stroke-width="0.5"/>
<line x1="62" y1="8" x2="62" y2="3" stroke="#444444" stroke-width="0.5"/>
<line x1="68" y1="8" x2="68" y2="3" stroke="#444444" stroke-width="0.5"/>
<line x1="74" y1="8" x2="74" y2="3" stroke="#444444" stroke-width="0.5"/>
<line x1="80" y1="8" x2="80" y2="3" stroke="#444444" stroke-width="0.5"/>
<line x1="86" y1="8" x2="86" y2="3" stroke="#444444" stroke-width="0.5"/>
<line x1="92" y1="8" x2="92" y2="3" stroke="#444444" stroke-width="0.5"/>
<line x1="98" y1="8" x2="98" y2="3" stroke="#444444" stroke-width="0.5"/>
<line x1="104" y1="8" x2="104" y2="3" stroke="#444444" stroke-width="0.5"/>
<line x1="110" y1="8" x2="110" y2="3" stroke="#444444" stroke-width="0.5"/>
<line x1="116" y1="8" x2="116" y2="3" stroke="#444444" stroke-width="0.5"/>
<text x="85" y="30" font-family="Helvetica, Arial, sans-serif" font-size="6" fill="#CC4444" text-anchor="middle" font-weight="normal" font-style="normal">HP</text>
<line x1="125" y1="27" x2="175" y2="27" stroke="url(#fiber-grad)" stroke-width="3.0" stroke-linecap="round" />
<text x="85" y="52" font-family="Helvetica, Arial, sans-serif" font-size="8" fill="#000000" text-anchor="middle" font-weight="bold" font-style="normal">HP Isolator</text>
</svg>
