<?xml version="1.0" encoding="UTF-8"?>
<svg xmlns="http://www.w3.org/2000/svg" viewBox="0 0 160 55" width="160" height="55">
<defs>
  <marker id="arrowhead" markerWidth="6" markerHeight="4" refX="5" refY="2" orient="auto">
    <polygon points="0 0, 6 2, 0 4" fill="#000000" />
  </marker>
  <linearGradient id="comp-grad" x1="0" y1="0" x2="0" y2="1">
      <stop offset="0%" stop-color="#F0F0F8"/>
      <stop offset="50%" stop-color="#B0B0C8"/>
      <stop offset="100%" stop-color="#707088"/>
    </linearGradient>
  <linearGradient id="fiber-grad" x1="0" y1="0" x2="0" y2="1">
      <stop offset="0%" stop-color="#ADACC6"/>
      <stop offset="22%" stop-color="#1B1E89"/>
      <stop offset="100%" stop-color="#0D0F42"/>
    </linearGradient>
</defs>
<line x1="5" y1="27" x2="45" y2="27" stroke="url(#fiber-grad)" stroke-width="3.0" stroke-linecap="round" />
<line x1="15" y1="22" x2="15" y2="32" stroke="#CC0000" stroke-width="0.5"/>
<line x1="23" y1="22" x2="23" y2="32" stroke="#CC0000" stroke-width="0.5"/>
<line x1="31" y1="22" x2="31" y2="32" stroke="#CC0000" stroke-width="0.5"/>
<line x1="39" y1="22" x2="39" y2="32" stroke="#CC0000" stroke-width="0.5"/>
<rect x="45" y="10" width="60" height="34" rx="2" fill="url(#comp-grad)" stroke="#000000" stroke-width="0.75" />
<polygon points="60,17 84,27 60,37" fill="#000000" opacity="0.3"/>
<line x1="105" y1="27" x2="155" y2="27" stroke="url(#fiber-grad)" stroke-width="3.0" stroke-linecap="round" />
<line x1="115" y1="22" x2="115" y2="32" stroke="#CC0000" stroke-width="0.5"/>
<line x1="123" y1="22" x2="123" y2="32" stroke="#CC0000" stroke-width="0.5"/>
<line x1="131" y1="22" x2="131" y2="32" stroke="#CC0000" stroke-width="0.5"/>
<line x1="139" y1="22" x2="139" y2="32" stroke="#CC0000" stroke-width="0.5"/>
<line x1="147" y1="22" x2="147" y2="32" stroke="#CC0000" stroke-width="0.5"/>
<text x="75" y="50" font-family="Helvetica, Arial, sans-serif" font-size="8" fill="#000000" text-anchor="middle" font-weight="bold" font-style="normal">PM Isolator</text>
</svg>
