<?xml version="1.0" encoding="UTF-8"?>
<svg xmlns="http://www.w3.org/2000/svg" viewBox="0 0 150 70" width="150" height="70">
<defs>
  <marker id="arrowhead" markerWidth="6" markerHeight="4" refX="5" refY="2" orient="auto">
    <polygon points="0 0, 6 2, 0 4" fill="#000000" />
  </marker>
</defs>
<line x1="5" y1="35" x2="25" y2="35" stroke="#1B1E89" stroke-width="2.5" stroke-linecap="round" />
<rect x="25" y="8" width="90" height="48" rx="3" fill="#D4D8E8" stroke="#000000" stroke-width="0.75" />
<rect x="32" y="14" width="50" height="28" rx="2" fill="#101828" stroke="#000000" stroke-width="0.3"/>
<circle cx="38" cy="18" r="2" fill="#0044CC" opacity="0.5249999999999999"/>
<circle cx="38" cy="24" r="2" fill="#0044CC" opacity="0.675"/>
<circle cx="38" cy="30" r="2" fill="#0044CC" opacity="0.675"/>
<circle cx="38" cy="36" r="2" fill="#0044CC" opacity="0.5249999999999999"/>
<circle cx="45" cy="18" r="2" fill="#0088CC" opacity="0.5249999999999999"/>
<circle cx="45" cy="24" r="2" fill="#0088CC" opacity="0.675"/>
<circle cx="45" cy="30" r="2" fill="#0088CC" opacity="0.675"/>
<circle cx="45" cy="36" r="2" fill="#0088CC" opacity="0.5249999999999999"/>
<circle cx="52" cy="18" r="2" fill="#00CC88" opacity="0.5249999999999999"/>
<circle cx="52" cy="24" r="2" fill="#00CC88" opacity="0.675"/>
<circle cx="52" cy="30" r="2" fill="#00CC88" opacity="0.675"/>
<circle cx="52" cy="36" r="2" fill="#00CC88" opacity="0.5249999999999999"/>
<circle cx="59" cy="18" r="2" fill="#88CC00" opacity="0.5249999999999999"/>
<circle cx="59" cy="24" r="2" fill="#88CC00" opacity="0.675"/>
<circle cx="59" cy="30" r="2" fill="#88CC00" opacity="0.675"/>
<circle cx="59" cy="36" r="2" fill="#88CC00" opacity="0.5249999999999999"/>
<circle cx="66" cy="18" r="2" fill="#CC8800" opacity="0.5249999999999999"/>
<circle cx="66" cy="24" r="2" fill="#CC8800" opacity="0.675"/>
<circle cx="66" cy="30" r="2" fill="#CC8800" opacity="0.675"/>
<circle cx="66" cy="36" r="2" fill="#CC8800" opacity="0.5249999999999999"/>
<circle cx="73" cy="18" r="2" fill="#CC4400" opacity="0.5249999999999999"/>
<circle cx="73" cy="24" r="2" fill="#CC4400" opacity="0.675"/>
<circle cx="73" cy="30" r="2" fill="#CC4400" opacity="0.675"/>
<circle cx="73" cy="36" r="2" fill="#CC4400" opacity="0.5249999999999999"/>
<text x="95" y="35" font-family="Helvetica, Arial, sans-serif" font-size="6" fill="#444444" text-anchor="middle" font-weight="normal" font-style="normal">FROG</text>
<text x="70" y="66" font-family="Helvetica, Arial, sans-serif" font-size="8" fill="#000000" text-anchor="middle" font-weight="bold" font-style="normal">FROG</text>
</svg>
