<svg xmlns="http://www.w3.org/2000/svg" viewBox="0 0 100 90" width="100" height="90" font-family="Arial, Helvetica, sans-serif">
<defs>
<marker id="arrowhead" markerWidth="6" markerHeight="4" refX="5" refY="2" orient="auto"><polygon points="0,0 6,2 0,4" fill="#000000"/></marker>
<marker id="arrowhead-beam" markerWidth="6" markerHeight="4" refX="5" refY="2" orient="auto"><polygon points="0,0 6,2 0,4" fill="#CC0000"/></marker>
<linearGradient id="mount-grad" x1="0" y1="0" x2="0" y2="1"><stop offset="0%" stop-color="#A0A0A8"/><stop offset="100%" stop-color="#606068"/></linearGradient>
<linearGradient id="mirror-grad" x1="0" y1="0" x2="0" y2="1"><stop offset="0%" stop-color="#D0D8E8"/><stop offset="100%" stop-color="#909098"/></linearGradient>
</defs>
<rect x="35" y="50" width="25" height="28" rx="2" fill="url(#mount-grad)" stroke="#000000" stroke-width="0.75"/>
<line x1="47" y1="50" x2="47" y2="38" stroke="#000000" stroke-width="1.5"/>
<rect x="33" y="20" width="28" height="4" rx="1" fill="url(#mirror-grad)" stroke="#000000" stroke-width="0.75" transform="rotate(20, 47, 28)"/>
<path d="M28,15 A22,22 0 0,1 68,15" fill="none" stroke="#666666" stroke-width="0.35" stroke-dasharray="2,2"/>
<line x1="5" y1="28" x2="38" y2="28" stroke="#CC0000" stroke-width="0.8" opacity="0.4"/>
<line x1="8" y1="28" x2="22" y2="28" stroke="#CC0000" stroke-width="0.8" marker-end="url(#arrowhead-beam)"/>
<line x1="40" y1="78" x2="40" y2="86" stroke="#000000" stroke-width="0.5"/>
<line x1="54" y1="78" x2="54" y2="86" stroke="#000000" stroke-width="0.5"/>
<text x="47" y="46" font-family="Arial, Helvetica, sans-serif" font-size="5.5" fill="#000000" text-anchor="middle" font-weight="normal">galvo</text>
</svg>
