<?xml version="1.0" encoding="UTF-8"?>
<svg xmlns="http://www.w3.org/2000/svg" viewBox="0 0 260 70" width="260" height="70">
<defs>
  <marker id="arrowhead" markerWidth="6" markerHeight="4" refX="5" refY="2" orient="auto">
    <polygon points="0 0, 6 2, 0 4" fill="#000000" />
  </marker>
</defs>
<rect x="10" y="18" width="55" height="30" rx="3" fill="#D4D8E8" stroke="#000000" stroke-width="0.75" />
<text x="37" y="36" font-family="Helvetica, Arial, sans-serif" font-size="6" fill="#000000" text-anchor="middle" font-weight="normal" font-style="normal">MO / Seed</text>
<line x1="65" y1="33" x2="85" y2="33" stroke="#1B1E89" stroke-width="2.5" stroke-linecap="round" />
<rect x="85" y="27" width="14" height="12" rx="1" fill="#D4D8E8" stroke="#000000" stroke-width="0.75" />
<polygon points="88,30 88,36 96,33" fill="#000000" opacity="0.4"/>
<line x1="99" y1="33" x2="110" y2="33" stroke="#1B1E89" stroke-width="2.5" stroke-linecap="round" />
<rect x="110" y="20" width="40" height="26" rx="2" fill="#D4D8E8" stroke="#000000" stroke-width="0.75" />
<text x="130" y="36" font-family="Helvetica, Arial, sans-serif" font-size="6" fill="#000000" text-anchor="middle" font-weight="normal" font-style="normal">Pre-amp</text>
<line x1="150" y1="33" x2="165" y2="33" stroke="#1B1E89" stroke-width="2.5" stroke-linecap="round" />
<rect x="165" y="27" width="14" height="12" rx="1" fill="#D4D8E8" stroke="#000000" stroke-width="0.75" />
<polygon points="168,30 168,36 176,33" fill="#000000" opacity="0.4"/>
<line x1="179" y1="33" x2="190" y2="33" stroke="#1B1E89" stroke-width="2.5" stroke-linecap="round" />
<rect x="190" y="18" width="50" height="30" rx="2" fill="#D4D8E8" stroke="#000000" stroke-width="0.75" />
<text x="215" y="36" font-family="Helvetica, Arial, sans-serif" font-size="6" fill="#000000" text-anchor="middle" font-weight="normal" font-style="normal">Power amp</text>
<line x1="215" y1="10" x2="215" y2="18" stroke="#CC3300" stroke-width="1"/>
<polygon points="212,6 215,2 218,6" fill="#CC3300" opacity="0.7"/>
<line x1="240" y1="33" x2="255" y2="33" stroke="#1B1E89" stroke-width="2.5" stroke-linecap="round" />
<text x="254" y="27" font-family="Helvetica, Arial, sans-serif" font-size="7" fill="#444444" text-anchor="end" font-weight="normal" font-style="normal">out</text>
<text x="130" y="66" font-family="Helvetica, Arial, sans-serif" font-size="8" fill="#000000" text-anchor="middle" font-weight="bold" font-style="normal">MOPA system</text>
</svg>
