<?xml version="1.0" encoding="UTF-8"?>
<svg xmlns="http://www.w3.org/2000/svg" viewBox="0 0 180 55" width="180" height="55">
<defs>
  <marker id="arrowhead" markerWidth="6" markerHeight="4" refX="5" refY="2" orient="auto">
    <polygon points="0 0, 6 2, 0 4" fill="#000000" />
  </marker>
</defs>
<rect x="15" y="10" width="100" height="35" rx="3" fill="#D4D8E8" stroke="#000000" stroke-width="0.75" />
<line x1="35" y1="43.6" x2="35" y2="38" stroke="#CC3300" stroke-width="0.6" opacity="0.6"/>
<line x1="40" y1="39.6" x2="40" y2="38" stroke="#CC3300" stroke-width="0.6" opacity="0.6"/>
<line x1="45" y1="35.6" x2="45" y2="38" stroke="#CC3300" stroke-width="0.6" opacity="0.6"/>
<line x1="50" y1="31.6" x2="50" y2="38" stroke="#CC3300" stroke-width="0.6" opacity="0.6"/>
<line x1="55" y1="27.6" x2="55" y2="38" stroke="#CC3300" stroke-width="0.6" opacity="0.6"/>
<line x1="60" y1="23.6" x2="60" y2="38" stroke="#CC3300" stroke-width="0.6" opacity="0.6"/>
<line x1="65" y1="19.6" x2="65" y2="38" stroke="#CC3300" stroke-width="0.6" opacity="0.6"/>
<line x1="70" y1="20.4" x2="70" y2="38" stroke="#CC3300" stroke-width="0.6" opacity="0.6"/>
<line x1="75" y1="24.4" x2="75" y2="38" stroke="#CC3300" stroke-width="0.6" opacity="0.6"/>
<line x1="80" y1="28.4" x2="80" y2="38" stroke="#CC3300" stroke-width="0.6" opacity="0.6"/>
<line x1="85" y1="32.4" x2="85" y2="38" stroke="#CC3300" stroke-width="0.6" opacity="0.6"/>
<line x1="90" y1="36.4" x2="90" y2="38" stroke="#CC3300" stroke-width="0.6" opacity="0.6"/>
<line x1="95" y1="40.4" x2="95" y2="38" stroke="#CC3300" stroke-width="0.6" opacity="0.6"/>
<line x1="115" y1="27" x2="175" y2="27" stroke="#1B1E89" stroke-width="2.5" stroke-linecap="round" />
<text x="65" y="52" font-family="Helvetica, Arial, sans-serif" font-size="8" fill="#000000" text-anchor="middle" font-weight="bold" font-style="normal">Frequency comb</text>
</svg>
