<?xml version="1.0" encoding="UTF-8"?>
<svg xmlns="http://www.w3.org/2000/svg" viewBox="0 0 180 60" width="180" height="60">
<defs>
  <marker id="arrowhead" markerWidth="6" markerHeight="4" refX="5" refY="2" orient="auto">
    <polygon points="0 0, 6 2, 0 4" fill="#000000" />
  </marker>
</defs>
<line x1="5" y1="30" x2="30" y2="30" stroke="#1B1E89" stroke-width="2.5" stroke-linecap="round" />
<rect x="30" y="8" width="100" height="44" rx="3" fill="#D4D8E8" stroke="#000000" stroke-width="0.75" />
<path d="M55,14 C60,22 60,38 55,46" fill="none" stroke="#000000" stroke-width="0.5"/>
<line x1="62" y1="22" x2="90" y2="22" stroke="#CC0000" stroke-width="0.4" opacity="0.3"/>
<line x1="62" y1="30" x2="90" y2="30" stroke="#CC0000" stroke-width="0.4" opacity="0.3"/>
<line x1="62" y1="38" x2="90" y2="38" stroke="#CC0000" stroke-width="0.4" opacity="0.3"/>
<path d="M92,14 C98,22 98,38 92,46" fill="none" stroke="#000000" stroke-width="0.5"/>
<line x1="100" y1="22" x2="118" y2="30" stroke="#CC0000" stroke-width="0.4" opacity="0.4"/>
<line x1="100" y1="38" x2="118" y2="30" stroke="#CC0000" stroke-width="0.4" opacity="0.4"/>
<circle cx="118" cy="30" r="1.5" fill="#CC0000" opacity="0.5"/>
<line x1="118" y1="30" x2="175" y2="30" stroke="#CC0000" stroke-width="0.6" opacity="0.4"/>
<text x="80" y="56" font-family="Helvetica, Arial, sans-serif" font-size="8" fill="#000000" text-anchor="middle" font-weight="bold" font-style="normal">Processing head</text>
</svg>
