<?xml version="1.0" encoding="UTF-8"?>
<svg xmlns="http://www.w3.org/2000/svg" viewBox="0 0 160 60" width="160" height="60">
<defs>
  <marker id="arrowhead" markerWidth="6" markerHeight="4" refX="5" refY="2" orient="auto">
    <polygon points="0 0, 6 2, 0 4" fill="#000000" />
  </marker>
</defs>
<rect x="15" y="10" width="80" height="40" rx="3" fill="#D4D8E8" stroke="#000000" stroke-width="0.75" />
<path d="M55,22 C60,18 65,22 70,18" fill="none" stroke="#CC3300" stroke-width="0.5"/>
<path d="M55,30 C60,26 65,30 70,26" fill="none" stroke="#CC3300" stroke-width="0.5"/>
<path d="M55,38 C60,34 65,38 70,34" fill="none" stroke="#CC3300" stroke-width="0.5"/>
<polygon points="30,20 30,40 50,30" fill="none" stroke="#000000" stroke-width="0.5"/>
<line x1="50" y1="20" x2="50" y2="40" stroke="#000000" stroke-width="0.5"/>
<line x1="95" y1="30" x2="155" y2="30" stroke="#1B1E89" stroke-width="2.5" stroke-linecap="round" />
<line x1="35" y1="10" x2="35" y2="3" stroke="#000000" stroke-width="0.75"/>
<line x1="50" y1="10" x2="50" y2="3" stroke="#000000" stroke-width="0.75"/>
<text x="55" y="58" font-family="Helvetica, Arial, sans-serif" font-size="8" fill="#000000" text-anchor="middle" font-weight="bold" font-style="normal">SLD / SLED</text>
</svg>
