<svg xmlns="http://www.w3.org/2000/svg" viewBox="0 0 150 100" width="150" height="100" font-family="Arial, Helvetica, sans-serif">
<defs>
<marker id="arrowhead" markerWidth="6" markerHeight="4" refX="5" refY="2" orient="auto"><polygon points="0,0 6,2 0,4" fill="#1a1a1a"/></marker>
<marker id="arrowhead-beam" markerWidth="6" markerHeight="4" refX="5" refY="2" orient="auto"><polygon points="0,0 6,2 0,4" fill="#c0392b"/></marker>
</defs>
<line x1="5" y1="45" x2="30" y2="45" stroke="#c0392b" stroke-width="0.6" opacity="0.5"/>
<line x1="8" y1="45" x2="22" y2="45" stroke="#c0392b" stroke-width="0.6" marker-end="url(#arrowhead-beam)"/>
<rect x="32" y="35" width="20" height="20" fill="#f4f6fa" stroke="#1a1a1a" stroke-width="0.5"/>
<text x="42" y="48" font-family="Arial, Helvetica, sans-serif" font-size="4.5" fill="#1a1a1a" text-anchor="middle" font-weight="normal">PBS</text>
<rect x="62" y="60" width="22" height="14" rx="1" fill="#f4f6fa" stroke="#1a1a1a" stroke-width="0.4"/>
<text x="73" y="70" font-family="Arial, Helvetica, sans-serif" font-size="4.5" fill="#1a1a1a" text-anchor="middle" font-weight="normal">PPKTP</text>
<line x1="90" y1="35" x2="90" y2="58" stroke="#1a1a1a" stroke-width="0.8"/>
<line x1="90.0" y1="37.9" x2="85.0" y2="37.9" stroke="#888888" stroke-width="0.25"/>
<line x1="90.0" y1="43.6" x2="85.0" y2="43.6" stroke="#888888" stroke-width="0.25"/>
<line x1="90.0" y1="49.4" x2="85.0" y2="49.4" stroke="#888888" stroke-width="0.25"/>
<line x1="90.0" y1="55.1" x2="85.0" y2="55.1" stroke="#888888" stroke-width="0.25"/>
<line x1="55" y1="78" x2="85" y2="78" stroke="#1a1a1a" stroke-width="0.8"/>
<line x1="57.5" y1="78.0" x2="57.5" y2="73.0" stroke="#888888" stroke-width="0.25"/>
<line x1="62.5" y1="78.0" x2="62.5" y2="73.0" stroke="#888888" stroke-width="0.25"/>
<line x1="67.5" y1="78.0" x2="67.5" y2="73.0" stroke="#888888" stroke-width="0.25"/>
<line x1="72.5" y1="78.0" x2="72.5" y2="73.0" stroke="#888888" stroke-width="0.25"/>
<line x1="77.5" y1="78.0" x2="77.5" y2="73.0" stroke="#888888" stroke-width="0.25"/>
<line x1="82.5" y1="78.0" x2="82.5" y2="73.0" stroke="#888888" stroke-width="0.25"/>
<path d="M52,45 L88,45 L88,55 L84,60" fill="none" stroke="#c0392b" stroke-width="0.3" opacity="0.2"/>
<path d="M42,55 L42,76 L62,68" fill="none" stroke="#c0392b" stroke-width="0.3" opacity="0.2"/>
<line x1="42" y1="35" x2="42" y2="8" stroke="#c0392b" stroke-width="0.6" opacity="0.4"/>
<line x1="42" y1="28" x2="42" y2="12" stroke="#c0392b" stroke-width="0.6" marker-end="url(#arrowhead-beam)"/>
<line x1="32" y1="45" x2="5" y2="60" stroke="#c0392b" stroke-width="0.6" opacity="0.4"/>
<text x="48" y="12" font-family="Arial, Helvetica, sans-serif" font-size="4.5" fill="#888888" text-anchor="middle" font-weight="normal">signal</text>
<text x="8" y="64" font-family="Arial, Helvetica, sans-serif" font-size="4.5" fill="#888888" text-anchor="middle" font-weight="normal">idler</text>
<text x="75" y="95" font-family="Arial, Helvetica, sans-serif" font-size="7" fill="#1a1a1a" text-anchor="middle" font-weight="bold">PPKTP Sagnac source</text>
</svg>
