<?xml version="1.0" encoding="UTF-8"?>
<svg xmlns="http://www.w3.org/2000/svg" viewBox="0 0 160 55" width="160" height="55">
<defs>
  <marker id="arrowhead" markerWidth="6" markerHeight="4" refX="5" refY="2" orient="auto">
    <polygon points="0 0, 6 2, 0 4" fill="#1a1a1a" />
  </marker>
  <marker id="arrowhead-beam" markerWidth="6" markerHeight="4" refX="5" refY="2" orient="auto">
    <polygon points="0 0, 6 2, 0 4" fill="#c0392b" />
  </marker>
  <marker id="arrowhead-gray" markerWidth="5" markerHeight="3.5" refX="4" refY="1.75" orient="auto">
    <polygon points="0 0, 5 1.75, 0 3.5" fill="#888888" />
  </marker>
</defs>
<line x1="5" y1="27" x2="40" y2="27" stroke="#333333" stroke-width="0.7" stroke-linecap="round" />
<line x1="8" y1="27" x2="25" y2="27" stroke="#888888" stroke-width="0.5" marker-end="url(#arrowhead-gray)" />
<rect x="40" y="8" width="65" height="38" rx="3" fill="#f0f0f0" stroke="#1a1a1a" stroke-width="0.5" />
<path d="M50,30 L55,22 L60,26 L65,18 L70,24 L75,20 L80,28 L85,22 L90,30" fill="none" stroke="#c0392b" stroke-width="0.4" opacity="0.4"/>
<line x1="50" y1="36" x2="90" y2="36" stroke="#c0392b" stroke-width="0.6" opacity="0.4"/>
<line x1="70" y1="31" x2="70" y2="34" stroke="#1a1a1a" stroke-width="0.3" marker-end="url(#arrowhead)"/>
<line x1="105" y1="27" x2="155" y2="27" stroke="#333333" stroke-width="0.7" stroke-linecap="round" />
<text x="72" y="52" font-family="Arial, Helvetica, sans-serif" font-size="8" fill="#1a1a1a" text-anchor="middle" font-weight="bold" font-style="normal">DGE</text>
</svg>
