<?xml version="1.0" encoding="UTF-8"?>
<svg xmlns="http://www.w3.org/2000/svg" viewBox="0 0 150 65" width="150" height="65">
<defs>
  <marker id="arrowhead" markerWidth="6" markerHeight="4" refX="5" refY="2" orient="auto">
    <polygon points="0 0, 6 2, 0 4" fill="#1a1a1a" />
  </marker>
  <marker id="arrowhead-beam" markerWidth="6" markerHeight="4" refX="5" refY="2" orient="auto">
    <polygon points="0 0, 6 2, 0 4" fill="#c0392b" />
  </marker>
  <marker id="arrowhead-gray" markerWidth="5" markerHeight="3.5" refX="4" refY="1.75" orient="auto">
    <polygon points="0 0, 5 1.75, 0 3.5" fill="#888888" />
  </marker>
</defs>
<line x1="5" y1="32" x2="25" y2="32" stroke="#333333" stroke-width="0.7" stroke-linecap="round" />
<line x1="8" y1="32" x2="18" y2="32" stroke="#888888" stroke-width="0.5" marker-end="url(#arrowhead-gray)" />
<rect x="25" y="8" width="90" height="42" rx="3" fill="#f0f0f0" stroke="#1a1a1a" stroke-width="0.5" />
<rect x="32" y="14" width="55" height="24" rx="2" fill="#101828" stroke="#1a1a1a" stroke-width="0.3"/>
<line x1="38" y1="38.0" x2="38" y2="34" stroke="#00CC66" stroke-width="2" opacity="0.7"/>
<line x1="44" y1="33.2" x2="44" y2="34" stroke="#00CC66" stroke-width="2" opacity="0.7"/>
<line x1="50" y1="28.4" x2="50" y2="34" stroke="#00CC66" stroke-width="2" opacity="0.7"/>
<line x1="56" y1="23.6" x2="56" y2="34" stroke="#00CC66" stroke-width="2" opacity="0.7"/>
<line x1="62" y1="22.0" x2="62" y2="34" stroke="#00CC66" stroke-width="2" opacity="0.7"/>
<line x1="68" y1="26.8" x2="68" y2="34" stroke="#00CC66" stroke-width="2" opacity="0.7"/>
<line x1="74" y1="31.6" x2="74" y2="34" stroke="#00CC66" stroke-width="2" opacity="0.7"/>
<line x1="80" y1="36.4" x2="80" y2="34" stroke="#00CC66" stroke-width="2" opacity="0.7"/>
<text x="60" y="44" font-family="Arial, Helvetica, sans-serif" font-size="6" fill="#1a1a1a" text-anchor="middle" font-weight="normal" font-style="normal">OCM</text>
<text x="70" y="62" font-family="Arial, Helvetica, sans-serif" font-size="8" fill="#1a1a1a" text-anchor="middle" font-weight="bold" font-style="normal">Channel monitor</text>
</svg>
