<?xml version="1.0" encoding="UTF-8"?>
<svg xmlns="http://www.w3.org/2000/svg" viewBox="0 0 200 55" width="200" height="55">
<defs>
  <marker id="arrowhead" markerWidth="6" markerHeight="4" refX="5" refY="2" orient="auto">
    <polygon points="0 0, 6 2, 0 4" fill="#1a1a1a" />
  </marker>
  <marker id="arrowhead-beam" markerWidth="6" markerHeight="4" refX="5" refY="2" orient="auto">
    <polygon points="0 0, 6 2, 0 4" fill="#c0392b" />
  </marker>
  <marker id="arrowhead-gray" markerWidth="5" markerHeight="3.5" refX="4" refY="1.75" orient="auto">
    <polygon points="0 0, 5 1.75, 0 3.5" fill="#888888" />
  </marker>
</defs>
<rect x="10" y="8" width="180" height="35" rx="3" fill="#f0f0f0" stroke="#1a1a1a" stroke-width="0.5"/>
<rect x="20" y="16" width="8" height="12" rx="1" fill="#888888" stroke="#1a1a1a" stroke-width="0.3" opacity="0.5"/>
<rect x="34" y="16" width="8" height="12" rx="1" fill="#888888" stroke="#1a1a1a" stroke-width="0.3" opacity="0.5"/>
<rect x="48" y="16" width="8" height="12" rx="1" fill="#888888" stroke="#1a1a1a" stroke-width="0.3" opacity="0.5"/>
<rect x="62" y="16" width="8" height="12" rx="1" fill="#888888" stroke="#1a1a1a" stroke-width="0.3" opacity="0.5"/>
<rect x="76" y="16" width="8" height="12" rx="1" fill="#888888" stroke="#1a1a1a" stroke-width="0.3" opacity="0.5"/>
<rect x="90" y="16" width="8" height="12" rx="1" fill="#888888" stroke="#1a1a1a" stroke-width="0.3" opacity="0.5"/>
<rect x="104" y="16" width="8" height="12" rx="1" fill="#888888" stroke="#1a1a1a" stroke-width="0.3" opacity="0.5"/>
<rect x="118" y="16" width="8" height="12" rx="1" fill="#888888" stroke="#1a1a1a" stroke-width="0.3" opacity="0.5"/>
<rect x="132" y="16" width="8" height="12" rx="1" fill="#888888" stroke="#1a1a1a" stroke-width="0.3" opacity="0.5"/>
<rect x="146" y="16" width="8" height="12" rx="1" fill="#888888" stroke="#1a1a1a" stroke-width="0.3" opacity="0.5"/>
<rect x="160" y="16" width="8" height="12" rx="1" fill="#888888" stroke="#1a1a1a" stroke-width="0.3" opacity="0.5"/>
<rect x="174" y="16" width="8" height="12" rx="1" fill="#888888" stroke="#1a1a1a" stroke-width="0.3" opacity="0.5"/>
<text x="100" y="52" font-family="Arial, Helvetica, sans-serif" font-size="8" fill="#1a1a1a" text-anchor="middle" font-weight="bold" font-style="normal">Patch panel</text>
</svg>
