<?xml version="1.0" encoding="UTF-8"?>
<svg xmlns="http://www.w3.org/2000/svg" viewBox="0 0 200 80" width="200" height="80">
<defs>
  <marker id="arrowhead" markerWidth="6" markerHeight="4" refX="5" refY="2" orient="auto">
    <polygon points="0 0, 6 2, 0 4" fill="#1a1a1a" />
  </marker>
  <marker id="arrowhead-beam" markerWidth="6" markerHeight="4" refX="5" refY="2" orient="auto">
    <polygon points="0 0, 6 2, 0 4" fill="#c0392b" />
  </marker>
  <marker id="arrowhead-gray" markerWidth="5" markerHeight="3.5" refX="4" refY="1.75" orient="auto">
    <polygon points="0 0, 5 1.75, 0 3.5" fill="#888888" />
  </marker>
</defs>
<rect x="30" y="10" width="120" height="55" rx="3" fill="#f0f0f0" stroke="#1a1a1a" stroke-width="0.5" />
<text x="90" y="40" font-family="Arial, Helvetica, sans-serif" font-size="7" fill="#1a1a1a" text-anchor="middle" font-weight="normal" font-style="italic">ROADM</text>
<line x1="5" y1="25" x2="30" y2="25" stroke="#333333" stroke-width="0.7" stroke-linecap="round" />
<line x1="5" y1="50" x2="30" y2="50" stroke="#333333" stroke-width="0.7" stroke-linecap="round" />
<line x1="8" y1="25" x2="20" y2="25" stroke="#888888" stroke-width="0.5" marker-end="url(#arrowhead-gray)" />
<line x1="150" y1="25" x2="195" y2="25" stroke="#333333" stroke-width="0.7" stroke-linecap="round" />
<line x1="150" y1="50" x2="195" y2="50" stroke="#333333" stroke-width="0.7" stroke-linecap="round" />
<line x1="165" y1="25" x2="180" y2="25" stroke="#888888" stroke-width="0.5" marker-end="url(#arrowhead-gray)" />
<line x1="70" y1="65" x2="70" y2="78" stroke="#1a1a1a" stroke-width="0.35"/>
<line x1="110" y1="65" x2="110" y2="78" stroke="#1a1a1a" stroke-width="0.35"/>
<text x="8" y="19" font-family="Arial, Helvetica, sans-serif" font-size="7" fill="#888888" text-anchor="start" font-weight="normal" font-style="italic">W in</text>
<text x="8" y="56" font-family="Arial, Helvetica, sans-serif" font-size="7" fill="#888888" text-anchor="start" font-weight="normal" font-style="italic">W out</text>
<text x="193" y="19" font-family="Arial, Helvetica, sans-serif" font-size="7" fill="#888888" text-anchor="end" font-weight="normal" font-style="italic">E out</text>
<text x="193" y="56" font-family="Arial, Helvetica, sans-serif" font-size="7" fill="#888888" text-anchor="end" font-weight="normal" font-style="italic">E in</text>
<text x="70" y="78" font-family="Arial, Helvetica, sans-serif" font-size="7" fill="#888888" text-anchor="start" font-weight="normal" font-style="italic">add</text>
<text x="110" y="78" font-family="Arial, Helvetica, sans-serif" font-size="7" fill="#888888" text-anchor="start" font-weight="normal" font-style="italic">drop</text>
</svg>
