<svg xmlns="http://www.w3.org/2000/svg" viewBox="0 0 200 70" width="200" height="70" font-family="Arial, Helvetica, sans-serif">
<defs>
<marker id="arrowhead" markerWidth="6" markerHeight="4" refX="5" refY="2" orient="auto"><polygon points="0,0 6,2 0,4" fill="#1a1a1a"/></marker>
<marker id="arrowhead-beam" markerWidth="6" markerHeight="4" refX="5" refY="2" orient="auto"><polygon points="0,0 6,2 0,4" fill="#c0392b"/></marker>
</defs>
<line x1="5" y1="35" x2="35" y2="35" stroke="#c0392b" stroke-width="0.6" opacity="0.5"/>
<line x1="8" y1="35" x2="22" y2="35" stroke="#c0392b" stroke-width="0.6" marker-end="url(#arrowhead-beam)"/>
<path d="M38.0,21.0 L38.0,49.0 C50,42.0 50,28.0 38.0,21.0 Z" fill="#f4f6fa" stroke="#1a1a1a" stroke-width="0.5"/>
<circle cx="72" cy="35" r="6" fill="#f4f6fa" stroke="#1a1a1a" stroke-width="0.4"/>
<path d="M72,35 L72,29 A6,6 0 0,1 78,35 A6,6 0 0,1 72,41 A6,6 0 0,1 66,35 A6,6 0 0,1 70,30" fill="none" stroke="#888888" stroke-width="0.3" opacity="0.4"/>
<text x="72" y="48" font-family="Arial, Helvetica, sans-serif" font-size="4.5" fill="#888888" text-anchor="middle" font-weight="normal">l=2</text>
<path d="M104.0,21.0 L104.0,49.0 C92,42.0 92,28.0 104.0,21.0 Z" fill="#f4f6fa" stroke="#1a1a1a" stroke-width="0.5"/>
<line x1="125" y1="15" x2="125" y2="28" stroke="#1a1a1a" stroke-width="0.4"/>
<line x1="125" y1="42" x2="125" y2="55" stroke="#1a1a1a" stroke-width="0.4"/>
<path d="M144.0,21.0 L144.0,49.0 C156,42.0 156,28.0 144.0,21.0 Z" fill="#f4f6fa" stroke="#1a1a1a" stroke-width="0.5"/>
<rect x="175" y="26" width="16" height="18" rx="2" fill="#f0f0f0" stroke="#1a1a1a" stroke-width="0.4"/>
<text x="100" y="65" font-family="Arial, Helvetica, sans-serif" font-size="7" fill="#1a1a1a" text-anchor="middle" font-weight="bold">Vortex coronagraph</text>
</svg>
