<?xml version="1.0" encoding="UTF-8"?>
<svg xmlns="http://www.w3.org/2000/svg" viewBox="0 0 280 70" width="280" height="70">
<defs>
  <marker id="arrowhead" markerWidth="6" markerHeight="4" refX="5" refY="2" orient="auto">
    <polygon points="0 0, 6 2, 0 4" fill="#000000" />
  </marker>
  <linearGradient id="fiber-grad" x1="0" y1="0" x2="0" y2="1">
      <stop offset="0%" stop-color="#ADACC6"/>
      <stop offset="22%" stop-color="#1B1E89"/>
      <stop offset="100%" stop-color="#0D0F42"/>
    </linearGradient>
  <linearGradient id="gain-grad" x1="0" y1="0" x2="0" y2="1">
      <stop offset="0%" stop-color="#5DC85D"/>
      <stop offset="25%" stop-color="#2D8B2D"/>
      <stop offset="100%" stop-color="#145A14"/>
    </linearGradient>
  <linearGradient id="comp-grad" x1="0" y1="0" x2="0" y2="1">
      <stop offset="0%" stop-color="#F0F0F8"/>
      <stop offset="50%" stop-color="#B0B0C8"/>
      <stop offset="100%" stop-color="#707088"/>
    </linearGradient>
</defs>
<rect x="5" y="18" width="40" height="28" rx="2" fill="url(#comp-grad)" stroke="#000000" stroke-width="0.75" />
<text x="25" y="35" font-family="Helvetica, Arial, sans-serif" font-size="6" fill="#000000" text-anchor="middle" font-weight="normal" font-style="normal">Osc</text>
<line x1="45" y1="32" x2="55" y2="32" stroke="url(#fiber-grad)" stroke-width="3.0" stroke-linecap="round" />
<rect x="55" y="18" width="45" height="28" rx="2" fill="url(#comp-grad)" stroke="#000000" stroke-width="0.75" />
<text x="77" y="35" font-family="Helvetica, Arial, sans-serif" font-size="6" fill="#000000" text-anchor="middle" font-weight="normal" font-style="normal">Stretcher</text>
<path d="M62,22 L72,22 L72,26 L82,26 L82,30 L92,30" fill="none" stroke="#CC3300" stroke-width="0.4" opacity="0.4"/>
<line x1="100" y1="32" x2="115" y2="32" stroke="url(#fiber-grad)" stroke-width="3.0" stroke-linecap="round" />
<rect x="115" y="18" width="55" height="28" rx="2" fill="url(#comp-grad)" stroke="#000000" stroke-width="0.75" />
<text x="142" y="35" font-family="Helvetica, Arial, sans-serif" font-size="6" fill="#000000" text-anchor="middle" font-weight="normal" font-style="normal">Amp chain</text>
<line x1="142" y1="10" x2="142" y2="18" stroke="#CC3300" stroke-width="1"/>
<line x1="170" y1="32" x2="185" y2="32" stroke="url(#fiber-grad)" stroke-width="3.0" stroke-linecap="round" />
<rect x="185" y="18" width="50" height="28" rx="2" fill="url(#comp-grad)" stroke="#000000" stroke-width="0.75" />
<text x="210" y="35" font-family="Helvetica, Arial, sans-serif" font-size="6" fill="#000000" text-anchor="middle" font-weight="normal" font-style="normal">Compr.</text>
<path d="M192,24 L195,24 L195,28 L198,28 L198,32 L201,32" fill="none" stroke="#CC3300" stroke-width="0.5" opacity="0.5"/>
<line x1="235" y1="32" x2="275" y2="32" stroke="url(#fiber-grad)" stroke-width="3.0" stroke-linecap="round" />
<text x="140" y="66" font-family="Helvetica, Arial, sans-serif" font-size="8" fill="#000000" text-anchor="middle" font-weight="bold" font-style="normal">CPA system</text>
</svg>
