<?xml version="1.0" encoding="UTF-8"?>
<svg xmlns="http://www.w3.org/2000/svg" viewBox="0 0 200 100" width="200" height="100">
<defs>
  <marker id="arrowhead" markerWidth="6" markerHeight="4" refX="5" refY="2" orient="auto">
    <polygon points="0 0, 6 2, 0 4" fill="#000000" />
  </marker>
  <linearGradient id="fiber-grad" x1="0" y1="0" x2="0" y2="1">
      <stop offset="0%" stop-color="#ADACC6"/>
      <stop offset="22%" stop-color="#1B1E89"/>
      <stop offset="100%" stop-color="#0D0F42"/>
    </linearGradient>
  <linearGradient id="gain-grad" x1="0" y1="0" x2="0" y2="1">
      <stop offset="0%" stop-color="#5DC85D"/>
      <stop offset="25%" stop-color="#2D8B2D"/>
      <stop offset="100%" stop-color="#145A14"/>
    </linearGradient>
  <linearGradient id="comp-grad" x1="0" y1="0" x2="0" y2="1">
      <stop offset="0%" stop-color="#F0F0F8"/>
      <stop offset="50%" stop-color="#B0B0C8"/>
      <stop offset="100%" stop-color="#707088"/>
    </linearGradient>
</defs>
<path d="M80,50 C80,20 160,20 160,50" fill="none" stroke="GRADIENT" stroke-width="3.0"/>
<path d="M80,50 C80,80 160,80 160,50" fill="none" stroke="GRADIENT" stroke-width="3.0"/>
<path d="M110,22 C118,18 128,26 136,22" fill="none" stroke="#2D8B2D" stroke-width="1.5"/>
<text x="123" y="16" font-family="Helvetica, Arial, sans-serif" font-size="6" fill="#2D8B2D" text-anchor="middle" font-weight="normal" font-style="normal">gain</text>
<rect x="72" y="42" width="16" height="16" rx="2" fill="url(#comp-grad)" stroke="#000000" stroke-width="0.75" />
<text x="80" y="53" font-family="Helvetica, Arial, sans-serif" font-size="4" fill="#000000" text-anchor="middle" font-weight="normal" font-style="normal">PBS</text>
<line x1="5" y1="50" x2="72" y2="50" stroke="url(#fiber-grad)" stroke-width="3.0" stroke-linecap="round" />
<rect x="40" y="44" width="12" height="12" rx="1" fill="url(#comp-grad)" stroke="#000000" stroke-width="0.75" />
<text x="46" y="53" font-family="Helvetica, Arial, sans-serif" font-size="4" fill="#000000" text-anchor="middle" font-weight="normal" font-style="normal">FR</text>
<text x="8" y="44" font-family="Helvetica, Arial, sans-serif" font-size="7" fill="#444444" text-anchor="start" font-weight="normal" font-style="normal">in/out</text>
<text x="100" y="96" font-family="Helvetica, Arial, sans-serif" font-size="8" fill="#000000" text-anchor="middle" font-weight="bold" font-style="normal">Figure-9 cavity</text>
</svg>
