<?xml version="1.0" encoding="UTF-8"?>
<svg xmlns="http://www.w3.org/2000/svg" viewBox="0 0 220 55" width="220" height="55">
<defs>
  <marker id="arrowhead" markerWidth="6" markerHeight="4" refX="5" refY="2" orient="auto">
    <polygon points="0 0, 6 2, 0 4" fill="#000000" />
  </marker>
  <linearGradient id="fiber-grad" x1="0" y1="0" x2="0" y2="1">
      <stop offset="0%" stop-color="#ADACC6"/>
      <stop offset="22%" stop-color="#1B1E89"/>
      <stop offset="100%" stop-color="#0D0F42"/>
    </linearGradient>
  <linearGradient id="gain-grad" x1="0" y1="0" x2="0" y2="1">
      <stop offset="0%" stop-color="#5DC85D"/>
      <stop offset="25%" stop-color="#2D8B2D"/>
      <stop offset="100%" stop-color="#145A14"/>
    </linearGradient>
  <linearGradient id="comp-grad" x1="0" y1="0" x2="0" y2="1">
      <stop offset="0%" stop-color="#F0F0F8"/>
      <stop offset="50%" stop-color="#B0B0C8"/>
      <stop offset="100%" stop-color="#707088"/>
    </linearGradient>
</defs>
<line x1="20" y1="10" x2="20" y2="40" stroke="#000000" stroke-width="1.5"/>
<line x1="20" y1="12" x2="14" y2="16" stroke="#444444" stroke-width="0.5"/>
<line x1="20" y1="17" x2="14" y2="21" stroke="#444444" stroke-width="0.5"/>
<line x1="20" y1="22" x2="14" y2="26" stroke="#444444" stroke-width="0.5"/>
<line x1="20" y1="27" x2="14" y2="31" stroke="#444444" stroke-width="0.5"/>
<line x1="20" y1="32" x2="14" y2="36" stroke="#444444" stroke-width="0.5"/>
<line x1="20" y1="37" x2="14" y2="41" stroke="#444444" stroke-width="0.5"/>
<rect x="24" y="18" width="14" height="14" rx="1" fill="url(#comp-grad)" stroke="#000000" stroke-width="0.75" />
<text x="31" y="28" font-family="Helvetica, Arial, sans-serif" font-size="4" fill="#000000" text-anchor="middle" font-weight="normal" font-style="normal">45°</text>
<text x="14" y="8" font-family="Helvetica, Arial, sans-serif" font-size="6" fill="#444444" text-anchor="middle" font-weight="normal" font-style="normal">FRM</text>
<line x1="38" y1="25" x2="70" y2="25" stroke="url(#fiber-grad)" stroke-width="3.0" stroke-linecap="round" />
<rect x="70" y="16" width="18" height="18" rx="2" fill="url(#comp-grad)" stroke="#000000" stroke-width="0.75" />
<text x="79" y="28" font-family="Helvetica, Arial, sans-serif" font-size="4" fill="#000000" text-anchor="middle" font-weight="normal" font-style="normal">PBS</text>
<path d="M88,20 C100,10 130,10 142,20" fill="none" stroke="url(#gain-grad)" stroke-width="3.0" stroke-linecap="round" />
<path d="M88,30 C100,40 130,40 142,30" fill="none" stroke="url(#fiber-grad)" stroke-width="3.0" stroke-linecap="round" />
<text x="115" y="8" font-family="Helvetica, Arial, sans-serif" font-size="6" fill="#2D8B2D" text-anchor="middle" font-weight="normal" font-style="normal">gain</text>
<line x1="142" y1="25" x2="215" y2="25" stroke="url(#fiber-grad)" stroke-width="3.0" stroke-linecap="round" />
<text x="213" y="19" font-family="Helvetica, Arial, sans-serif" font-size="7" fill="#444444" text-anchor="end" font-weight="normal" font-style="normal">out</text>
<text x="115" y="52" font-family="Helvetica, Arial, sans-serif" font-size="8" fill="#000000" text-anchor="middle" font-weight="bold" font-style="normal">Sigma cavity</text>
</svg>
