<?xml version="1.0" encoding="UTF-8"?>
<svg xmlns="http://www.w3.org/2000/svg" viewBox="0 0 280 70" width="280" height="70">
<defs>
  <marker id="arrowhead" markerWidth="6" markerHeight="4" refX="5" refY="2" orient="auto">
    <polygon points="0 0, 6 2, 0 4" fill="#000000" />
  </marker>
  <linearGradient id="fiber-grad" x1="0" y1="0" x2="0" y2="1">
      <stop offset="0%" stop-color="#ADACC6"/>
      <stop offset="22%" stop-color="#1B1E89"/>
      <stop offset="100%" stop-color="#0D0F42"/>
    </linearGradient>
  <linearGradient id="gain-grad" x1="0" y1="0" x2="0" y2="1">
      <stop offset="0%" stop-color="#5DC85D"/>
      <stop offset="25%" stop-color="#2D8B2D"/>
      <stop offset="100%" stop-color="#145A14"/>
    </linearGradient>
  <linearGradient id="comp-grad" x1="0" y1="0" x2="0" y2="1">
      <stop offset="0%" stop-color="#F0F0F8"/>
      <stop offset="50%" stop-color="#B0B0C8"/>
      <stop offset="100%" stop-color="#707088"/>
    </linearGradient>
  <linearGradient id="wdm-grad" x1="0" y1="0" x2="0" y2="1">
      <stop offset="0%" stop-color="#F8F0E0"/>
      <stop offset="50%" stop-color="#D8C8A0"/>
      <stop offset="100%" stop-color="#A89868"/>
    </linearGradient>
</defs>
<line x1="5" y1="35" x2="30" y2="35" stroke="url(#fiber-grad)" stroke-width="3.0" stroke-linecap="round" />
<path d="M30,35 C38,22 48,48 58,35 C68,22 78,48 88,35 C98,22 108,48 118,35" fill="none" stroke="url(#fiber-grad)" stroke-width="3.0" stroke-linecap="round" />
<line x1="75" y1="12" x2="75" y2="28" stroke="#CC3300" stroke-width="1"/>
<text x="82" y="12" font-family="Helvetica, Arial, sans-serif" font-size="6" fill="#CC3300" text-anchor="middle" font-weight="normal" font-style="normal">Raman</text>
<line x1="125" y1="20" x2="125" y2="50" stroke="#444444" stroke-width="0.5" stroke-dasharray="2,2"/>
<rect x="130" y="28" width="14" height="14" rx="1" fill="url(#comp-grad)" stroke="#000000" stroke-width="0.75" />
<polygon points="133,31 133,39 141,35" fill="#000000" opacity="0.4"/>
<rect x="148" y="28" width="16" height="14" rx="1" fill="GRADIENT" stroke="#000000" stroke-width="0.5"/>
<line x1="156" y1="12" x2="156" y2="28" stroke="#CC3300" stroke-width="1"/>
<text x="163" y="12" font-family="Helvetica, Arial, sans-serif" font-size="6" fill="#CC3300" text-anchor="middle" font-weight="normal" font-style="normal">980 nm</text>
<path d="M164,35 C172,22 182,48 192,35 C202,22 212,48 222,35" fill="none" stroke="url(#gain-grad)" stroke-width="3.0" stroke-linecap="round" />
<rect x="226" y="28" width="14" height="14" rx="1" fill="url(#comp-grad)" stroke="#000000" stroke-width="0.75" />
<polygon points="229,31 229,39 237,35" fill="#000000" opacity="0.4"/>
<line x1="240" y1="35" x2="275" y2="35" stroke="url(#fiber-grad)" stroke-width="3.0" stroke-linecap="round" />
<text x="150" y="65" font-family="Helvetica, Arial, sans-serif" font-size="8" fill="#000000" text-anchor="middle" font-weight="bold" font-style="normal">Hybrid Raman+EDFA</text>
</svg>
