<?xml version="1.0" encoding="UTF-8"?>
<svg xmlns="http://www.w3.org/2000/svg" viewBox="0 0 200 40" width="200" height="40">
<defs>
  <marker id="arrowhead" markerWidth="6" markerHeight="4" refX="5" refY="2" orient="auto">
    <polygon points="0 0, 6 2, 0 4" fill="#1a1a1a" />
  </marker>
  <marker id="arrowhead-beam" markerWidth="6" markerHeight="4" refX="5" refY="2" orient="auto">
    <polygon points="0 0, 6 2, 0 4" fill="#c0392b" />
  </marker>
  <marker id="arrowhead-gray" markerWidth="5" markerHeight="3.5" refX="4" refY="1.75" orient="auto">
    <polygon points="0 0, 5 1.75, 0 3.5" fill="#888888" />
  </marker>
</defs>
<line x1="10" y1="20" x2="190" y2="20" stroke="#333333" stroke-width="0.7" stroke-linecap="round" />
<line x1="15" y1="20" x2="35" y2="20" stroke="#888888" stroke-width="0.5" marker-end="url(#arrowhead-gray)" />
<line x1="55.0" y1="10" x2="55.0" y2="30" stroke="#1a1a1a" stroke-width="0.5" opacity="0.3"/>
<line x1="58.0" y1="10" x2="58.0" y2="30" stroke="#1a1a1a" stroke-width="0.5" opacity="0.3"/>
<line x1="61.3" y1="10" x2="61.3" y2="30" stroke="#1a1a1a" stroke-width="0.5" opacity="0.3"/>
<line x1="64.9" y1="10" x2="64.9" y2="30" stroke="#1a1a1a" stroke-width="0.5" opacity="0.3"/>
<line x1="68.8" y1="10" x2="68.8" y2="30" stroke="#1a1a1a" stroke-width="0.5" opacity="0.3"/>
<line x1="73.0" y1="10" x2="73.0" y2="30" stroke="#1a1a1a" stroke-width="0.5" opacity="0.3"/>
<line x1="77.5" y1="10" x2="77.5" y2="30" stroke="#1a1a1a" stroke-width="0.5" opacity="0.3"/>
<line x1="82.3" y1="10" x2="82.3" y2="30" stroke="#1a1a1a" stroke-width="0.5" opacity="0.3"/>
<line x1="87.4" y1="10" x2="87.4" y2="30" stroke="#1a1a1a" stroke-width="0.5" opacity="0.3"/>
<line x1="92.8" y1="10" x2="92.8" y2="30" stroke="#1a1a1a" stroke-width="0.5" opacity="0.3"/>
<line x1="98.5" y1="10" x2="98.5" y2="30" stroke="#1a1a1a" stroke-width="0.5" opacity="0.3"/>
<line x1="104.5" y1="10" x2="104.5" y2="30" stroke="#1a1a1a" stroke-width="0.5" opacity="0.3"/>
<line x1="110.8" y1="10" x2="110.8" y2="30" stroke="#1a1a1a" stroke-width="0.5" opacity="0.3"/>
<line x1="117.4" y1="10" x2="117.4" y2="30" stroke="#1a1a1a" stroke-width="0.5" opacity="0.3"/>
<line x1="124.3" y1="10" x2="124.3" y2="30" stroke="#1a1a1a" stroke-width="0.5" opacity="0.3"/>
<line x1="131.5" y1="10" x2="131.5" y2="30" stroke="#1a1a1a" stroke-width="0.5" opacity="0.3"/>
<line x1="139.0" y1="10" x2="139.0" y2="30" stroke="#1a1a1a" stroke-width="0.5" opacity="0.3"/>
<text x="100" y="38" font-family="Arial, Helvetica, sans-serif" font-size="8" fill="#1a1a1a" text-anchor="middle" font-weight="bold" font-style="normal">CFBG</text>
</svg>
