<?xml version="1.0" encoding="UTF-8"?>
<svg xmlns="http://www.w3.org/2000/svg" viewBox="0 0 200 42" width="200" height="42">
<defs>
  <marker id="arrowhead" markerWidth="6" markerHeight="4" refX="5" refY="2" orient="auto">
    <polygon points="0 0, 6 2, 0 4" fill="#1a1a1a" />
  </marker>
  <marker id="arrowhead-beam" markerWidth="6" markerHeight="4" refX="5" refY="2" orient="auto">
    <polygon points="0 0, 6 2, 0 4" fill="#c0392b" />
  </marker>
  <marker id="arrowhead-gray" markerWidth="5" markerHeight="3.5" refX="4" refY="1.75" orient="auto">
    <polygon points="0 0, 5 1.75, 0 3.5" fill="#888888" />
  </marker>
</defs>
<line x1="10" y1="20" x2="190" y2="20" stroke="#333333" stroke-width="0.7" stroke-linecap="round" />
<line x1="15" y1="20" x2="35" y2="20" stroke="#888888" stroke-width="0.5" marker-end="url(#arrowhead-gray)" />
<line x1="60" y1="10" x2="60" y2="30" stroke="#1a1a1a" stroke-width="0.5" opacity="0.4"/>
<line x1="65" y1="10" x2="65" y2="30" stroke="#1a1a1a" stroke-width="0.5" opacity="0.4"/>
<line x1="70" y1="10" x2="70" y2="30" stroke="#1a1a1a" stroke-width="0.5" opacity="0.4"/>
<line x1="75" y1="10" x2="75" y2="30" stroke="#1a1a1a" stroke-width="0.5" opacity="0.4"/>
<line x1="80" y1="10" x2="80" y2="30" stroke="#1a1a1a" stroke-width="0.5" opacity="0.4"/>
<line x1="85" y1="10" x2="85" y2="30" stroke="#1a1a1a" stroke-width="0.5" opacity="0.4"/>
<line x1="90" y1="10" x2="90" y2="30" stroke="#1a1a1a" stroke-width="0.5" opacity="0.4"/>
<line x1="95" y1="10" x2="95" y2="30" stroke="#1a1a1a" stroke-width="0.5" opacity="0.4"/>
<line x1="100" y1="10" x2="100" y2="30" stroke="#1a1a1a" stroke-width="0.5" opacity="0.4"/>
<line x1="105" y1="10" x2="105" y2="30" stroke="#1a1a1a" stroke-width="0.5" opacity="0.4"/>
<line x1="110" y1="10" x2="110" y2="30" stroke="#1a1a1a" stroke-width="0.5" opacity="0.4"/>
<line x1="115" y1="10" x2="115" y2="30" stroke="#1a1a1a" stroke-width="0.5" opacity="0.4"/>
<line x1="120" y1="10" x2="120" y2="30" stroke="#1a1a1a" stroke-width="0.5" opacity="0.4"/>
<line x1="125" y1="10" x2="125" y2="30" stroke="#1a1a1a" stroke-width="0.5" opacity="0.4"/>
<line x1="130" y1="10" x2="130" y2="30" stroke="#1a1a1a" stroke-width="0.5" opacity="0.4"/>
<line x1="135" y1="10" x2="135" y2="30" stroke="#1a1a1a" stroke-width="0.5" opacity="0.4"/>
<line x1="140" y1="10" x2="140" y2="30" stroke="#1a1a1a" stroke-width="0.5" opacity="0.4"/>
<line x1="100" y1="4" x2="100" y2="10" stroke="#888888" stroke-width="0.5"/>
<polygon points="98,4 100,1 102,4" fill="#888888"/>
<text x="108" y="6" font-family="Arial, Helvetica, sans-serif" font-size="6" fill="#888888" text-anchor="middle" font-weight="normal" font-style="normal">fs</text>
<text x="100" y="40" font-family="Arial, Helvetica, sans-serif" font-size="8" fill="#1a1a1a" text-anchor="middle" font-weight="bold" font-style="normal">fs-written FBG</text>
</svg>
