<?xml version="1.0" encoding="UTF-8"?>
<svg xmlns="http://www.w3.org/2000/svg" viewBox="0 0 200 40" width="200" height="40">
<defs>
  <marker id="arrowhead" markerWidth="6" markerHeight="4" refX="5" refY="2" orient="auto">
    <polygon points="0 0, 6 2, 0 4" fill="#1a1a1a" />
  </marker>
  <marker id="arrowhead-beam" markerWidth="6" markerHeight="4" refX="5" refY="2" orient="auto">
    <polygon points="0 0, 6 2, 0 4" fill="#c0392b" />
  </marker>
  <marker id="arrowhead-gray" markerWidth="5" markerHeight="3.5" refX="4" refY="1.75" orient="auto">
    <polygon points="0 0, 5 1.75, 0 3.5" fill="#888888" />
  </marker>
</defs>
<line x1="10" y1="20" x2="190" y2="20" stroke="#333333" stroke-width="0.7" stroke-linecap="round" />
<line x1="15" y1="20" x2="35" y2="20" stroke="#888888" stroke-width="0.5" marker-end="url(#arrowhead-gray)" />
<line x1="55" y1="10" x2="55" y2="30" stroke="#1a1a1a" stroke-width="0.5" opacity="0.4"/>
<line x1="59" y1="10" x2="59" y2="30" stroke="#1a1a1a" stroke-width="0.5" opacity="0.4"/>
<line x1="63" y1="10" x2="63" y2="30" stroke="#1a1a1a" stroke-width="0.5" opacity="0.4"/>
<line x1="67" y1="10" x2="67" y2="30" stroke="#1a1a1a" stroke-width="0.5" opacity="0.4"/>
<line x1="80" y1="10" x2="80" y2="30" stroke="#1a1a1a" stroke-width="0.5" opacity="0.4"/>
<line x1="84" y1="10" x2="84" y2="30" stroke="#1a1a1a" stroke-width="0.5" opacity="0.4"/>
<line x1="88" y1="10" x2="88" y2="30" stroke="#1a1a1a" stroke-width="0.5" opacity="0.4"/>
<line x1="92" y1="10" x2="92" y2="30" stroke="#1a1a1a" stroke-width="0.5" opacity="0.4"/>
<line x1="105" y1="10" x2="105" y2="30" stroke="#1a1a1a" stroke-width="0.5" opacity="0.4"/>
<line x1="109" y1="10" x2="109" y2="30" stroke="#1a1a1a" stroke-width="0.5" opacity="0.4"/>
<line x1="113" y1="10" x2="113" y2="30" stroke="#1a1a1a" stroke-width="0.5" opacity="0.4"/>
<line x1="117" y1="10" x2="117" y2="30" stroke="#1a1a1a" stroke-width="0.5" opacity="0.4"/>
<line x1="130" y1="10" x2="130" y2="30" stroke="#1a1a1a" stroke-width="0.5" opacity="0.4"/>
<line x1="134" y1="10" x2="134" y2="30" stroke="#1a1a1a" stroke-width="0.5" opacity="0.4"/>
<line x1="138" y1="10" x2="138" y2="30" stroke="#1a1a1a" stroke-width="0.5" opacity="0.4"/>
<line x1="142" y1="10" x2="142" y2="30" stroke="#1a1a1a" stroke-width="0.5" opacity="0.4"/>
<text x="100" y="38" font-family="Arial, Helvetica, sans-serif" font-size="8" fill="#1a1a1a" text-anchor="middle" font-weight="bold" font-style="normal">Sampled FBG</text>
</svg>
