<?xml version="1.0" encoding="UTF-8"?>
<svg xmlns="http://www.w3.org/2000/svg" viewBox="0 0 200 45" width="200" height="45">
<defs>
  <marker id="arrowhead" markerWidth="6" markerHeight="4" refX="5" refY="2" orient="auto">
    <polygon points="0 0, 6 2, 0 4" fill="#1a1a1a" />
  </marker>
  <marker id="arrowhead-beam" markerWidth="6" markerHeight="4" refX="5" refY="2" orient="auto">
    <polygon points="0 0, 6 2, 0 4" fill="#c0392b" />
  </marker>
  <marker id="arrowhead-gray" markerWidth="5" markerHeight="3.5" refX="4" refY="1.75" orient="auto">
    <polygon points="0 0, 5 1.75, 0 3.5" fill="#888888" />
  </marker>
</defs>
<line x1="10" y1="22" x2="190" y2="22" stroke="#333333" stroke-width="0.7" stroke-linecap="round" />
<line x1="15" y1="22" x2="35" y2="22" stroke="#888888" stroke-width="0.5" marker-end="url(#arrowhead-gray)" />
<line x1="58" y1="12" x2="62" y2="32" stroke="#1a1a1a" stroke-width="0.5" opacity="0.4"/>
<line x1="63" y1="12" x2="67" y2="32" stroke="#1a1a1a" stroke-width="0.5" opacity="0.4"/>
<line x1="68" y1="12" x2="72" y2="32" stroke="#1a1a1a" stroke-width="0.5" opacity="0.4"/>
<line x1="73" y1="12" x2="77" y2="32" stroke="#1a1a1a" stroke-width="0.5" opacity="0.4"/>
<line x1="78" y1="12" x2="82" y2="32" stroke="#1a1a1a" stroke-width="0.5" opacity="0.4"/>
<line x1="83" y1="12" x2="87" y2="32" stroke="#1a1a1a" stroke-width="0.5" opacity="0.4"/>
<line x1="88" y1="12" x2="92" y2="32" stroke="#1a1a1a" stroke-width="0.5" opacity="0.4"/>
<line x1="93" y1="12" x2="97" y2="32" stroke="#1a1a1a" stroke-width="0.5" opacity="0.4"/>
<line x1="98" y1="12" x2="102" y2="32" stroke="#1a1a1a" stroke-width="0.5" opacity="0.4"/>
<line x1="103" y1="12" x2="107" y2="32" stroke="#1a1a1a" stroke-width="0.5" opacity="0.4"/>
<line x1="108" y1="12" x2="112" y2="32" stroke="#1a1a1a" stroke-width="0.5" opacity="0.4"/>
<line x1="113" y1="12" x2="117" y2="32" stroke="#1a1a1a" stroke-width="0.5" opacity="0.4"/>
<line x1="118" y1="12" x2="122" y2="32" stroke="#1a1a1a" stroke-width="0.5" opacity="0.4"/>
<line x1="123" y1="12" x2="127" y2="32" stroke="#1a1a1a" stroke-width="0.5" opacity="0.4"/>
<line x1="128" y1="12" x2="132" y2="32" stroke="#1a1a1a" stroke-width="0.5" opacity="0.4"/>
<line x1="133" y1="12" x2="137" y2="32" stroke="#1a1a1a" stroke-width="0.5" opacity="0.4"/>
<line x1="138" y1="12" x2="142" y2="32" stroke="#1a1a1a" stroke-width="0.5" opacity="0.4"/>
<line x1="90" y1="32" x2="85" y2="40" stroke="#c0392b" stroke-width="0.4" opacity="0.5" marker-end="url(#arrowhead)"/>
<line x1="110" y1="32" x2="115" y2="40" stroke="#c0392b" stroke-width="0.4" opacity="0.5" marker-end="url(#arrowhead)"/>
<text x="100" y="43" font-family="Arial, Helvetica, sans-serif" font-size="8" fill="#1a1a1a" text-anchor="middle" font-weight="bold" font-style="normal">TFBG</text>
</svg>
