<svg xmlns="http://www.w3.org/2000/svg" viewBox="0 0 120 75" width="120" height="75" font-family="Arial, Helvetica, sans-serif">
<defs>
<marker id="arrowhead" markerWidth="6" markerHeight="4" refX="5" refY="2" orient="auto"><polygon points="0,0 6,2 0,4" fill="#1a1a1a"/></marker>
<marker id="arrowhead-beam" markerWidth="6" markerHeight="4" refX="5" refY="2" orient="auto"><polygon points="0,0 6,2 0,4" fill="#c0392b"/></marker>
</defs>
<line x1="5" y1="37" x2="40" y2="37" stroke="#c0392b" stroke-width="0.6" opacity="0.4"/>
<line x1="10" y1="37" x2="28" y2="37" stroke="#c0392b" stroke-width="0.6" marker-end="url(#arrowhead-beam)"/>
<rect x="43" y="10" width="12" height="55" fill="#f4f6fa" stroke="#1a1a1a" stroke-width="0.5"/>
<path d="M55,14 C58,16 58,20 55,22" fill="none" stroke="#1a1a1a" stroke-width="0.4"/>
<path d="M55,22 C58,24 58,28 55,30" fill="none" stroke="#1a1a1a" stroke-width="0.4"/>
<path d="M55,30 C58,32 58,36 55,38" fill="none" stroke="#1a1a1a" stroke-width="0.4"/>
<path d="M55,38 C58,40 58,44 55,46" fill="none" stroke="#1a1a1a" stroke-width="0.4"/>
<path d="M55,46 C58,48 58,52 55,54" fill="none" stroke="#1a1a1a" stroke-width="0.4"/>
<path d="M55,54 C58,56 58,60 55,62" fill="none" stroke="#1a1a1a" stroke-width="0.4"/>
<line x1="55" y1="20" x2="80" y2="21" stroke="#c0392b" stroke-width="0.3" opacity="0.25"/>
<line x1="55" y1="32" x2="80" y2="33" stroke="#c0392b" stroke-width="0.3" opacity="0.25"/>
<line x1="55" y1="44" x2="80" y2="45" stroke="#c0392b" stroke-width="0.3" opacity="0.25"/>
<line x1="55" y1="56" x2="80" y2="57" stroke="#c0392b" stroke-width="0.3" opacity="0.25"/>
<line x1="80" y1="37" x2="115" y2="37" stroke="#c0392b" stroke-width="0.6" opacity="0.3"/>
<text x="55" y="72" font-family="Arial, Helvetica, sans-serif" font-size="7" fill="#1a1a1a" text-anchor="middle" font-weight="bold">Microlens array</text>
</svg>
