<svg xmlns="http://www.w3.org/2000/svg" viewBox="0 0 110 75" width="110" height="75" font-family="Arial, Helvetica, sans-serif">
<defs>
<marker id="arrowhead" markerWidth="6" markerHeight="4" refX="5" refY="2" orient="auto"><polygon points="0,0 6,2 0,4" fill="#1a1a1a"/></marker>
<marker id="arrowhead-beam" markerWidth="6" markerHeight="4" refX="5" refY="2" orient="auto"><polygon points="0,0 6,2 0,4" fill="#c0392b"/></marker>
</defs>
<line x1="5" y1="37" x2="35" y2="37" stroke="#c0392b" stroke-width="0.6" opacity="0.4"/>
<line x1="10" y1="37" x2="25" y2="37" stroke="#c0392b" stroke-width="0.6" marker-end="url(#arrowhead-beam)"/>
<circle cx="55" cy="37" r="18" fill="#f4f6fa" stroke="#1a1a1a" stroke-width="0.5"/>
<line x1="63.0" y1="37.0" x2="70.0" y2="37.0" stroke="#1a1a1a" stroke-width="0.3" opacity="0.3"/>
<line x1="61.9" y1="41.0" x2="68.0" y2="44.5" stroke="#1a1a1a" stroke-width="0.3" opacity="0.3"/>
<line x1="59.0" y1="43.9" x2="62.5" y2="50.0" stroke="#1a1a1a" stroke-width="0.3" opacity="0.3"/>
<line x1="55.0" y1="45.0" x2="55.0" y2="52.0" stroke="#1a1a1a" stroke-width="0.3" opacity="0.3"/>
<line x1="51.0" y1="43.9" x2="47.5" y2="50.0" stroke="#1a1a1a" stroke-width="0.3" opacity="0.3"/>
<line x1="48.1" y1="41.0" x2="42.0" y2="44.5" stroke="#1a1a1a" stroke-width="0.3" opacity="0.3"/>
<line x1="47.0" y1="37.0" x2="40.0" y2="37.0" stroke="#1a1a1a" stroke-width="0.3" opacity="0.3"/>
<line x1="48.1" y1="33.0" x2="42.0" y2="29.5" stroke="#1a1a1a" stroke-width="0.3" opacity="0.3"/>
<line x1="51.0" y1="30.1" x2="47.5" y2="24.0" stroke="#1a1a1a" stroke-width="0.3" opacity="0.3"/>
<line x1="55.0" y1="29.0" x2="55.0" y2="22.0" stroke="#1a1a1a" stroke-width="0.3" opacity="0.3"/>
<line x1="59.0" y1="30.1" x2="62.5" y2="24.0" stroke="#1a1a1a" stroke-width="0.3" opacity="0.3"/>
<line x1="61.9" y1="33.0" x2="68.0" y2="29.5" stroke="#1a1a1a" stroke-width="0.3" opacity="0.3"/>
<text x="55" y="39" font-family="Arial, Helvetica, sans-serif" font-size="5.5" fill="#1a1a1a" text-anchor="middle" font-weight="normal">q</text>
<circle cx="90" cy="37" r="7" fill="none" stroke="#c0392b" stroke-width="0.5" opacity="0.3"/>
<text x="55" y="68" font-family="Arial, Helvetica, sans-serif" font-size="7" fill="#1a1a1a" text-anchor="middle" font-weight="bold">q-plate</text>
</svg>
