<svg xmlns="http://www.w3.org/2000/svg" viewBox="0 0 100 70" width="100" height="70" font-family="Arial, Helvetica, sans-serif">
<defs>
<marker id="arrowhead" markerWidth="6" markerHeight="4" refX="5" refY="2" orient="auto"><polygon points="0,0 6,2 0,4" fill="#000000"/></marker>
<marker id="arrowhead-beam" markerWidth="6" markerHeight="4" refX="5" refY="2" orient="auto"><polygon points="0,0 6,2 0,4" fill="#CC0000"/></marker>
</defs>
<rect x="8" y="8" width="80" height="45" rx="2" fill="#D4D8E8" stroke="#000000" stroke-width="0.75"/>
<circle cx="18" cy="15" r="1.2" fill="none" stroke="#666666" stroke-width="0.25"/>
<circle cx="18" cy="23" r="1.2" fill="none" stroke="#666666" stroke-width="0.25"/>
<circle cx="18" cy="31" r="1.2" fill="none" stroke="#666666" stroke-width="0.25"/>
<circle cx="18" cy="39" r="1.2" fill="none" stroke="#666666" stroke-width="0.25"/>
<circle cx="18" cy="47" r="1.2" fill="none" stroke="#666666" stroke-width="0.25"/>
<circle cx="28" cy="15" r="1.2" fill="none" stroke="#666666" stroke-width="0.25"/>
<circle cx="28" cy="23" r="1.2" fill="none" stroke="#666666" stroke-width="0.25"/>
<circle cx="28" cy="31" r="1.2" fill="none" stroke="#666666" stroke-width="0.25"/>
<circle cx="28" cy="39" r="1.2" fill="none" stroke="#666666" stroke-width="0.25"/>
<circle cx="28" cy="47" r="1.2" fill="none" stroke="#666666" stroke-width="0.25"/>
<circle cx="38" cy="15" r="1.2" fill="none" stroke="#666666" stroke-width="0.25"/>
<circle cx="38" cy="23" r="1.2" fill="none" stroke="#666666" stroke-width="0.25"/>
<circle cx="38" cy="31" r="1.2" fill="none" stroke="#666666" stroke-width="0.25"/>
<circle cx="38" cy="39" r="1.2" fill="none" stroke="#666666" stroke-width="0.25"/>
<circle cx="38" cy="47" r="1.2" fill="none" stroke="#666666" stroke-width="0.25"/>
<circle cx="48" cy="15" r="1.2" fill="none" stroke="#666666" stroke-width="0.25"/>
<circle cx="48" cy="23" r="1.2" fill="none" stroke="#666666" stroke-width="0.25"/>
<circle cx="48" cy="31" r="1.2" fill="none" stroke="#666666" stroke-width="0.25"/>
<circle cx="48" cy="39" r="1.2" fill="none" stroke="#666666" stroke-width="0.25"/>
<circle cx="48" cy="47" r="1.2" fill="none" stroke="#666666" stroke-width="0.25"/>
<circle cx="58" cy="15" r="1.2" fill="none" stroke="#666666" stroke-width="0.25"/>
<circle cx="58" cy="23" r="1.2" fill="none" stroke="#666666" stroke-width="0.25"/>
<circle cx="58" cy="31" r="1.2" fill="none" stroke="#666666" stroke-width="0.25"/>
<circle cx="58" cy="39" r="1.2" fill="none" stroke="#666666" stroke-width="0.25"/>
<circle cx="58" cy="47" r="1.2" fill="none" stroke="#666666" stroke-width="0.25"/>
<circle cx="68" cy="15" r="1.2" fill="none" stroke="#666666" stroke-width="0.25"/>
<circle cx="68" cy="23" r="1.2" fill="none" stroke="#666666" stroke-width="0.25"/>
<circle cx="68" cy="31" r="1.2" fill="none" stroke="#666666" stroke-width="0.25"/>
<circle cx="68" cy="39" r="1.2" fill="none" stroke="#666666" stroke-width="0.25"/>
<circle cx="68" cy="47" r="1.2" fill="none" stroke="#666666" stroke-width="0.25"/>
<circle cx="78" cy="15" r="1.2" fill="none" stroke="#666666" stroke-width="0.25"/>
<circle cx="78" cy="23" r="1.2" fill="none" stroke="#666666" stroke-width="0.25"/>
<circle cx="78" cy="31" r="1.2" fill="none" stroke="#666666" stroke-width="0.25"/>
<circle cx="78" cy="39" r="1.2" fill="none" stroke="#666666" stroke-width="0.25"/>
<circle cx="78" cy="47" r="1.2" fill="none" stroke="#666666" stroke-width="0.25"/>
<text x="48" y="62" font-family="Arial, Helvetica, sans-serif" font-size="7" fill="#000000" text-anchor="middle" font-weight="bold">Breadboard</text>
</svg>
