<svg xmlns="http://www.w3.org/2000/svg" viewBox="0 0 130 75" width="130" height="75" font-family="Arial, Helvetica, sans-serif">
<defs>
<marker id="arrowhead" markerWidth="6" markerHeight="4" refX="5" refY="2" orient="auto"><polygon points="0,0 6,2 0,4" fill="#000000"/></marker>
<marker id="arrowhead-beam" markerWidth="6" markerHeight="4" refX="5" refY="2" orient="auto"><polygon points="0,0 6,2 0,4" fill="#CC0000"/></marker>
</defs>
<polygon points="30,15 30,55 62,55 62,15" fill="#C8D0E0" stroke="#000000" stroke-width="0.75"/>
<polygon points="62,15 62,55 95,55 95,15" fill="#C8D0E0" stroke="#000000" stroke-width="0.75"/>
<line x1="62" y1="15" x2="62" y2="55" stroke="#000000" stroke-width="0.35"/>
<line x1="35" y1="25" x2="35" y2="45" stroke="#666666" stroke-width="0.35" stroke-dasharray="2,2"/>
<line x1="70" y1="35" x2="88" y2="35" stroke="#666666" stroke-width="0.35" stroke-dasharray="2,2"/>
<line x1="5" y1="35" x2="30" y2="35" stroke="#CC0000" stroke-width="0.8" opacity="0.5"/>
<line x1="8" y1="35" x2="22" y2="35" stroke="#CC0000" stroke-width="0.8" marker-end="url(#arrowhead-beam)"/>
<line x1="95" y1="35" x2="125" y2="35" stroke="#CC0000" stroke-width="0.5" opacity="0.5"/>
<line x1="95" y1="40" x2="125" y2="50" stroke="#0066CC" stroke-width="0.5" opacity="0.4"/>
<text x="122" y="32" font-family="Arial, Helvetica, sans-serif" font-size="5.5" fill="#CC0000" text-anchor="middle" font-weight="normal">o</text>
<text x="122" y="54" font-family="Arial, Helvetica, sans-serif" font-size="5.5" fill="#0066CC" text-anchor="middle" font-weight="normal">e</text>
<text x="62" y="70" font-family="Arial, Helvetica, sans-serif" font-size="7" fill="#000000" text-anchor="middle" font-weight="bold">Rochon prism</text>
</svg>
