<?xml version="1.0" encoding="UTF-8"?>
<svg xmlns="http://www.w3.org/2000/svg" viewBox="0 0 180 90" width="180" height="90">
<defs>
  <marker id="arrowhead" markerWidth="6" markerHeight="4" refX="5" refY="2" orient="auto">
    <polygon points="0 0, 6 2, 0 4" fill="#000000" />
  </marker>
  <linearGradient id="fiber-grad" x1="0" y1="0" x2="0" y2="1">
      <stop offset="0%" stop-color="#ADACC6"/>
      <stop offset="22%" stop-color="#1B1E89"/>
      <stop offset="100%" stop-color="#0D0F42"/>
    </linearGradient>
  <linearGradient id="comp-grad" x1="0" y1="0" x2="0" y2="1">
      <stop offset="0%" stop-color="#F0F0F8"/>
      <stop offset="50%" stop-color="#B0B0C8"/>
      <stop offset="100%" stop-color="#707088"/>
    </linearGradient>
</defs>
<rect x="40" y="10" width="80" height="70" rx="3" fill="url(#comp-grad)" stroke="#000000" stroke-width="0.75" />
<text x="80" y="48" font-family="Helvetica, Arial, sans-serif" font-size="6" fill="#000000" text-anchor="middle" font-weight="normal" font-style="normal">X-point</text>
<circle cx="55" cy="25" r="3" fill="#00CC66" stroke="#000000" stroke-width="0.2" opacity="0.6"/>
<circle cx="55" cy="43" r="3" fill="#00CC66" stroke="#000000" stroke-width="0.2" opacity="0.3"/>
<circle cx="55" cy="61" r="3" fill="#00CC66" stroke="#000000" stroke-width="0.2" opacity="0.3"/>
<circle cx="75" cy="25" r="3" fill="#00CC66" stroke="#000000" stroke-width="0.2" opacity="0.3"/>
<circle cx="75" cy="43" r="3" fill="#00CC66" stroke="#000000" stroke-width="0.2" opacity="0.3"/>
<circle cx="75" cy="61" r="3" fill="#00CC66" stroke="#000000" stroke-width="0.2" opacity="0.6"/>
<circle cx="95" cy="25" r="3" fill="#00CC66" stroke="#000000" stroke-width="0.2" opacity="0.3"/>
<circle cx="95" cy="43" r="3" fill="#00CC66" stroke="#000000" stroke-width="0.2" opacity="0.6"/>
<circle cx="95" cy="61" r="3" fill="#00CC66" stroke="#000000" stroke-width="0.2" opacity="0.3"/>
<line x1="5" y1="25" x2="40" y2="25" stroke="url(#fiber-grad)" stroke-width="3.0" stroke-linecap="round" />
<line x1="120" y1="25" x2="175" y2="25" stroke="url(#fiber-grad)" stroke-width="3.0" stroke-linecap="round" />
<line x1="5" y1="43" x2="40" y2="43" stroke="url(#fiber-grad)" stroke-width="3.0" stroke-linecap="round" />
<line x1="120" y1="43" x2="175" y2="43" stroke="url(#fiber-grad)" stroke-width="3.0" stroke-linecap="round" />
<line x1="5" y1="61" x2="40" y2="61" stroke="url(#fiber-grad)" stroke-width="3.0" stroke-linecap="round" />
<line x1="120" y1="61" x2="175" y2="61" stroke="url(#fiber-grad)" stroke-width="3.0" stroke-linecap="round" />
<text x="90" y="86" font-family="Helvetica, Arial, sans-serif" font-size="8" fill="#000000" text-anchor="middle" font-weight="bold" font-style="normal">Crosspoint switch</text>
</svg>
