<?xml version="1.0" encoding="UTF-8"?>
<svg xmlns="http://www.w3.org/2000/svg" viewBox="0 0 180 55" width="180" height="55">
<defs>
  <marker id="arrowhead" markerWidth="6" markerHeight="4" refX="5" refY="2" orient="auto">
    <polygon points="0 0, 6 2, 0 4" fill="#1a1a1a" />
  </marker>
  <marker id="arrowhead-beam" markerWidth="6" markerHeight="4" refX="5" refY="2" orient="auto">
    <polygon points="0 0, 6 2, 0 4" fill="#c0392b" />
  </marker>
  <marker id="arrowhead-gray" markerWidth="5" markerHeight="3.5" refX="4" refY="1.75" orient="auto">
    <polygon points="0 0, 5 1.75, 0 3.5" fill="#888888" />
  </marker>
</defs>
<line x1="5" y1="27" x2="25" y2="27" stroke="#333333" stroke-width="0.7" stroke-linecap="round" />
<line x1="8" y1="27" x2="18" y2="27" stroke="#888888" stroke-width="0.5" marker-end="url(#arrowhead-gray)" />
<rect x="25" y="21" width="12" height="12" rx="1" fill="#f0f0f0" stroke="#1a1a1a" stroke-width="0.5" />
<polygon points="28,24 28,30 34,27" fill="#1a1a1a" opacity="0.4"/>
<rect x="42" y="21" width="14" height="12" rx="1" fill="#f0f0f0" stroke="#1a1a1a" stroke-width="0.4"/>
<text x="49" y="30" font-family="Arial, Helvetica, sans-serif" font-size="4" fill="#1a1a1a" text-anchor="middle" font-weight="normal" font-style="normal">W</text>
<line x1="49" y1="12" x2="49" y2="21" stroke="#c0392b" stroke-width="1"/>
<polygon points="46,8 49,4 52,8" fill="#c0392b" opacity="0.7"/>
<path d="M56,27 C64,18 74,36 84,27 C94,18 104,36 114,27" fill="none" stroke="#333333" stroke-width="0.7" />
<rect x="120" y="21" width="12" height="12" rx="1" fill="#f0f0f0" stroke="#1a1a1a" stroke-width="0.5" />
<polygon points="123,24 123,30 129,27" fill="#1a1a1a" opacity="0.4"/>
<line x1="132" y1="27" x2="175" y2="27" stroke="#333333" stroke-width="0.7" stroke-linecap="round" />
<line x1="150" y1="27" x2="165" y2="27" stroke="#888888" stroke-width="0.5" marker-end="url(#arrowhead-gray)" />
<text x="90" y="52" font-family="Arial, Helvetica, sans-serif" font-size="8" fill="#1a1a1a" text-anchor="middle" font-weight="bold" font-style="normal">Amplifier stage</text>
</svg>
