<?xml version="1.0" encoding="UTF-8"?>
<svg xmlns="http://www.w3.org/2000/svg" viewBox="0 0 200 60" width="200" height="60">
<defs>
  <marker id="arrowhead" markerWidth="6" markerHeight="4" refX="5" refY="2" orient="auto">
    <polygon points="0 0, 6 2, 0 4" fill="#1a1a1a" />
  </marker>
  <marker id="arrowhead-beam" markerWidth="6" markerHeight="4" refX="5" refY="2" orient="auto">
    <polygon points="0 0, 6 2, 0 4" fill="#c0392b" />
  </marker>
  <marker id="arrowhead-gray" markerWidth="5" markerHeight="3.5" refX="4" refY="1.75" orient="auto">
    <polygon points="0 0, 5 1.75, 0 3.5" fill="#888888" />
  </marker>
</defs>
<rect x="15" y="8" width="150" height="40" rx="3" fill="#f0f0f0" stroke="#1a1a1a" stroke-width="0.5"/>
<polygon points="60,16 60,40 110,28" fill="none" stroke="#1a1a1a" stroke-width="0.5"/>
<rect x="120" y="14" width="35" height="12" rx="1" fill="#101828" stroke="#1a1a1a" stroke-width="0.2"/>
<text x="137" y="23" font-family="Arial, Helvetica, sans-serif" font-size="4" fill="#00CC66" text-anchor="middle">G=18dB</text>
<circle cx="125" cy="38" r="2.5" fill="#888888" opacity="0.4"/>
<circle cx="135" cy="38" r="2.5" fill="#1a1a1a" opacity="0.15"/>
<line x1="5" y1="28" x2="15" y2="28" stroke="#333333" stroke-width="0.7" stroke-linecap="round" />
<line x1="165" y1="28" x2="195" y2="28" stroke="#333333" stroke-width="0.7" stroke-linecap="round" />
<line x1="7" y1="28" x2="13" y2="28" stroke="#888888" stroke-width="0.5" marker-end="url(#arrowhead-gray)" />
<line x1="175" y1="28" x2="188" y2="28" stroke="#888888" stroke-width="0.5" marker-end="url(#arrowhead-gray)" />
<text x="90" y="56" font-family="Arial, Helvetica, sans-serif" font-size="8" fill="#1a1a1a" text-anchor="middle" font-weight="bold" font-style="normal">Amplifier module</text>
</svg>
