<?xml version="1.0" encoding="UTF-8"?>
<svg xmlns="http://www.w3.org/2000/svg" viewBox="0 0 160 55" width="160" height="55">
<defs>
  <marker id="arrowhead" markerWidth="6" markerHeight="4" refX="5" refY="2" orient="auto">
    <polygon points="0 0, 6 2, 0 4" fill="#1a1a1a" />
  </marker>
  <marker id="arrowhead-beam" markerWidth="6" markerHeight="4" refX="5" refY="2" orient="auto">
    <polygon points="0 0, 6 2, 0 4" fill="#c0392b" />
  </marker>
  <marker id="arrowhead-gray" markerWidth="5" markerHeight="3.5" refX="4" refY="1.75" orient="auto">
    <polygon points="0 0, 5 1.75, 0 3.5" fill="#888888" />
  </marker>
</defs>
<line x1="5" y1="27" x2="30" y2="27" stroke="#333333" stroke-width="0.7" stroke-linecap="round" />
<line x1="10" y1="27" x2="22" y2="27" stroke="#888888" stroke-width="0.5" marker-end="url(#arrowhead-gray)" />
<rect x="30" y="22" width="14" height="10" rx="1" fill="#f0f0f0" stroke="#1a1a1a" stroke-width="0.4"/>
<line x1="37" y1="12" x2="37" y2="22" stroke="#c0392b" stroke-width="1"/>
<polygon points="34,8 37,4 40,8" fill="#c0392b" opacity="0.7"/>
<path d="M44,27 C52,18 62,36 72,27 C82,18 92,36 102,27 C112,18 122,36 130,27" fill="none" stroke="#333333" stroke-width="0.7" />
<line x1="130" y1="27" x2="155" y2="27" stroke="#333333" stroke-width="0.7" stroke-linecap="round" />
<line x1="138" y1="27" x2="150" y2="27" stroke="#888888" stroke-width="0.5" marker-end="url(#arrowhead-gray)" />
<text x="80" y="52" font-family="Arial, Helvetica, sans-serif" font-size="8" fill="#1a1a1a" text-anchor="middle" font-weight="bold" font-style="normal">EDFA gain block</text>
</svg>
