<?xml version="1.0" encoding="UTF-8"?>
<svg xmlns="http://www.w3.org/2000/svg" viewBox="0 0 220 70" width="220" height="70">
<defs>
  <marker id="arrowhead" markerWidth="6" markerHeight="4" refX="5" refY="2" orient="auto">
    <polygon points="0 0, 6 2, 0 4" fill="#1a1a1a" />
  </marker>
  <marker id="arrowhead-beam" markerWidth="6" markerHeight="4" refX="5" refY="2" orient="auto">
    <polygon points="0 0, 6 2, 0 4" fill="#c0392b" />
  </marker>
  <marker id="arrowhead-gray" markerWidth="5" markerHeight="3.5" refX="4" refY="1.75" orient="auto">
    <polygon points="0 0, 5 1.75, 0 3.5" fill="#888888" />
  </marker>
</defs>
<line x1="5" y1="35" x2="30" y2="35" stroke="#333333" stroke-width="0.7" stroke-linecap="round" />
<rect x="30" y="28" width="16" height="14" rx="1" fill="#f0f0f0" stroke="#1a1a1a" stroke-width="0.5" />
<polygon points="34,31 34,39 43,35" fill="#1a1a1a" opacity="0.4"/>
<rect x="50" y="27" width="20" height="16" rx="2" fill="#f0f0f0" stroke="#1a1a1a" stroke-width="0.5"/>
<text x="60" y="38" font-family="Arial, Helvetica, sans-serif" font-size="4" fill="#1a1a1a" text-anchor="middle" font-weight="normal" font-style="normal">WDM</text>
<line x1="60" y1="12" x2="60" y2="27" stroke="#c0392b" stroke-width="1.5" stroke-linecap="round"/>
<polygon points="56,7 60,2 64,7 62,7 62,12 58,12 58,7" fill="#c0392b" opacity="0.7"/>
<text x="68" y="8" font-family="Arial, Helvetica, sans-serif" font-size="6" fill="#c0392b" text-anchor="middle" font-weight="normal" font-style="normal">976 nm</text>
<path d="M70,35 C78,22 88,48 98,35 C108,22 118,48 128,35 C138,22 148,48 158,35" fill="none" stroke="#333333" stroke-width="0.7" />
<rect x="162" y="28" width="16" height="14" rx="1" fill="#f0f0f0" stroke="#1a1a1a" stroke-width="0.5" />
<polygon points="166,31 166,39 175,35" fill="#1a1a1a" opacity="0.4"/>
<line x1="178" y1="35" x2="215" y2="35" stroke="#333333" stroke-width="0.7" stroke-linecap="round" />
<line x1="10" y1="35" x2="25" y2="35" stroke="#888888" stroke-width="0.5" marker-end="url(#arrowhead-gray)" />
<line x1="190" y1="35" x2="205" y2="35" stroke="#888888" stroke-width="0.5" marker-end="url(#arrowhead-gray)" />
<text x="110" y="65" font-family="Arial, Helvetica, sans-serif" font-size="8" fill="#1a1a1a" text-anchor="middle" font-weight="bold" font-style="normal">YDFA</text>
</svg>
