<?xml version="1.0" encoding="UTF-8"?>
<svg xmlns="http://www.w3.org/2000/svg" viewBox="0 0 160 90" width="160" height="90">
<defs>
  <marker id="arrowhead" markerWidth="6" markerHeight="4" refX="5" refY="2" orient="auto">
    <polygon points="0 0, 6 2, 0 4" fill="#000000" />
  </marker>
</defs>
<rect x="35" y="10" width="75" height="65" rx="3" fill="#D4D8E8" stroke="#000000" stroke-width="0.75" />
<rect x="50" y="20" width="40" height="40" rx="2" fill="#4060A0" stroke="#000000" stroke-width="0.4" opacity="0.15"/>
<line x1="52" y1="22" x2="62" y2="58" stroke="#4060A0" stroke-width="0.4" opacity="0.3"/>
<line x1="59" y1="22" x2="69" y2="58" stroke="#4060A0" stroke-width="0.4" opacity="0.3"/>
<line x1="66" y1="22" x2="76" y2="58" stroke="#4060A0" stroke-width="0.4" opacity="0.3"/>
<line x1="73" y1="22" x2="83" y2="58" stroke="#4060A0" stroke-width="0.4" opacity="0.3"/>
<line x1="80" y1="22" x2="90" y2="58" stroke="#4060A0" stroke-width="0.4" opacity="0.3"/>
<line x1="87" y1="22" x2="97" y2="58" stroke="#4060A0" stroke-width="0.4" opacity="0.3"/>
<text x="70" y="45" font-family="Helvetica, Arial, sans-serif" font-size="6" fill="#000000" text-anchor="middle" font-weight="normal" font-style="normal">LCoS</text>
<line x1="5" y1="22" x2="35" y2="22" stroke="#1B1E89" stroke-width="2.5" stroke-linecap="round" />
<line x1="110" y1="22" x2="155" y2="22" stroke="#1B1E89" stroke-width="2.5" stroke-linecap="round" />
<line x1="5" y1="38" x2="35" y2="38" stroke="#1B1E89" stroke-width="2.5" stroke-linecap="round" />
<line x1="110" y1="38" x2="155" y2="38" stroke="#1B1E89" stroke-width="2.5" stroke-linecap="round" />
<line x1="5" y1="54" x2="35" y2="54" stroke="#1B1E89" stroke-width="2.5" stroke-linecap="round" />
<line x1="110" y1="54" x2="155" y2="54" stroke="#1B1E89" stroke-width="2.5" stroke-linecap="round" />
<text x="80" y="86" font-family="Helvetica, Arial, sans-serif" font-size="8" fill="#000000" text-anchor="middle" font-weight="bold" font-style="normal">LCoS switch</text>
</svg>
