<?xml version="1.0" encoding="UTF-8"?>
<svg xmlns="http://www.w3.org/2000/svg" viewBox="0 0 200 50" width="200" height="50">
<defs>
  <marker id="arrowhead" markerWidth="6" markerHeight="4" refX="5" refY="2" orient="auto">
    <polygon points="0 0, 6 2, 0 4" fill="#000000" />
  </marker>
</defs>
<rect x="10" y="12" width="180" height="20" rx="3" fill="#D4D8E8" stroke="#000000" stroke-width="0.75"/>
<line x1="10" y1="22" x2="190" y2="22" stroke="#1B1E89" stroke-width="2" opacity="0.6"/>
<circle cx="25" cy="22" r="1.5" fill="white" stroke="#444444" stroke-width="0.3" opacity="0.5"/>
<circle cx="35" cy="22" r="1.5" fill="white" stroke="#444444" stroke-width="0.3" opacity="0.5"/>
<circle cx="45" cy="22" r="1.5" fill="white" stroke="#444444" stroke-width="0.3" opacity="0.5"/>
<circle cx="55" cy="22" r="1.5" fill="white" stroke="#444444" stroke-width="0.3" opacity="0.5"/>
<circle cx="65" cy="22" r="1.5" fill="white" stroke="#444444" stroke-width="0.3" opacity="0.5"/>
<circle cx="75" cy="22" r="1.5" fill="white" stroke="#444444" stroke-width="0.3" opacity="0.5"/>
<circle cx="85" cy="22" r="1.5" fill="white" stroke="#444444" stroke-width="0.3" opacity="0.5"/>
<circle cx="115" cy="22" r="1.5" fill="white" stroke="#444444" stroke-width="0.3" opacity="0.5"/>
<circle cx="125" cy="22" r="1.5" fill="white" stroke="#444444" stroke-width="0.3" opacity="0.5"/>
<circle cx="135" cy="22" r="1.5" fill="white" stroke="#444444" stroke-width="0.3" opacity="0.5"/>
<circle cx="145" cy="22" r="1.5" fill="white" stroke="#444444" stroke-width="0.3" opacity="0.5"/>
<circle cx="155" cy="22" r="1.5" fill="white" stroke="#444444" stroke-width="0.3" opacity="0.5"/>
<circle cx="165" cy="22" r="1.5" fill="white" stroke="#444444" stroke-width="0.3" opacity="0.5"/>
<circle cx="175" cy="22" r="1.5" fill="white" stroke="#444444" stroke-width="0.3" opacity="0.5"/>
<text x="100" y="8" font-family="Helvetica, Arial, sans-serif" font-size="6" fill="#444444" text-anchor="middle" font-weight="normal" font-style="normal">~100 µm core</text>
<text x="100" y="46" font-family="Helvetica, Arial, sans-serif" font-size="8" fill="#000000" text-anchor="middle" font-weight="bold" font-style="normal">Rod-type fiber</text>
</svg>
