<?xml version="1.0" encoding="UTF-8"?>
<svg xmlns="http://www.w3.org/2000/svg" viewBox="0 0 180 55" width="180" height="55">
<defs>
  <marker id="arrowhead" markerWidth="6" markerHeight="4" refX="5" refY="2" orient="auto">
    <polygon points="0 0, 6 2, 0 4" fill="#000000" />
  </marker>
</defs>
<rect x="15" y="10" width="55" height="35" rx="2" fill="#F0E8D8" stroke="#000000" stroke-width="0.75"/>
<polygon points="30,18 30,37 50,27.5" fill="#CC3300" stroke="#000000" stroke-width="0.5" opacity="1"/>
<line x1="50" y1="18" x2="50" y2="37" stroke="#000000" stroke-width="0.75"/>
<rect x="75" y="14" width="16" height="26" rx="1" fill="#D4D8E8" stroke="#000000" stroke-width="0.5"/>
<line x1="77" y1="17" x2="89" y2="17" stroke="#444444" stroke-width="0.3" opacity="0.4"/>
<line x1="77" y1="20" x2="89" y2="20" stroke="#444444" stroke-width="0.3" opacity="0.4"/>
<line x1="77" y1="23" x2="89" y2="23" stroke="#444444" stroke-width="0.3" opacity="0.4"/>
<line x1="77" y1="26" x2="89" y2="26" stroke="#444444" stroke-width="0.3" opacity="0.4"/>
<line x1="77" y1="29" x2="89" y2="29" stroke="#444444" stroke-width="0.3" opacity="0.4"/>
<line x1="77" y1="32" x2="89" y2="32" stroke="#444444" stroke-width="0.3" opacity="0.4"/>
<line x1="77" y1="35" x2="89" y2="35" stroke="#444444" stroke-width="0.3" opacity="0.4"/>
<text x="83" y="44" font-family="Helvetica, Arial, sans-serif" font-size="6" fill="#000000" text-anchor="middle" font-weight="normal" font-style="normal">VBG</text>
<line x1="91" y1="27.5" x2="175" y2="27.5" stroke="#CC3300" stroke-width="2.5" stroke-linecap="round" />
<line x1="30" y1="10" x2="30" y2="3" stroke="#000000" stroke-width="0.75"/>
<text x="100" y="52" font-family="Helvetica, Arial, sans-serif" font-size="8" fill="#000000" text-anchor="middle" font-weight="bold" font-style="normal">VBG-stabilized pump</text>
</svg>
