<svg xmlns="http://www.w3.org/2000/svg" viewBox="0 0 120 80" width="120" height="80" font-family="Arial, Helvetica, sans-serif">
<defs>
<marker id="arrowhead" markerWidth="6" markerHeight="4" refX="5" refY="2" orient="auto"><polygon points="0,0 6,2 0,4" fill="#000000"/></marker>
<marker id="arrowhead-beam" markerWidth="6" markerHeight="4" refX="5" refY="2" orient="auto"><polygon points="0,0 6,2 0,4" fill="#CC0000"/></marker>
</defs>
<rect x="48" y="15" width="22" height="45" rx="2" fill="#808088" stroke="#000000" stroke-width="0.75"/>
<line x1="48" y1="15" x2="68" y2="50" stroke="#000000" stroke-width="1.5"/>
<line x1="49.2" y1="17.2" x2="44.9" y2="19.7" stroke="#666666" stroke-width="0.3"/>
<line x1="51.8" y1="21.6" x2="47.4" y2="24.0" stroke="#666666" stroke-width="0.3"/>
<line x1="54.2" y1="25.9" x2="49.9" y2="28.4" stroke="#666666" stroke-width="0.3"/>
<line x1="56.8" y1="30.3" x2="52.4" y2="32.8" stroke="#666666" stroke-width="0.3"/>
<line x1="59.2" y1="34.7" x2="54.9" y2="37.2" stroke="#666666" stroke-width="0.3"/>
<line x1="61.8" y1="39.1" x2="57.4" y2="41.5" stroke="#666666" stroke-width="0.3"/>
<line x1="64.2" y1="43.4" x2="59.9" y2="45.9" stroke="#666666" stroke-width="0.3"/>
<line x1="66.8" y1="47.8" x2="62.4" y2="50.3" stroke="#666666" stroke-width="0.3"/>
<line x1="70" y1="25" x2="90" y2="25" stroke="#0088CC" stroke-width="0.5"/>
<line x1="70" y1="42" x2="90" y2="42" stroke="#0088CC" stroke-width="0.5"/>
<text x="95" y="28" font-family="Arial, Helvetica, sans-serif" font-size="4.5" fill="#0088CC" text-anchor="middle" font-weight="normal">in</text>
<text x="95" y="45" font-family="Arial, Helvetica, sans-serif" font-size="4.5" fill="#0088CC" text-anchor="middle" font-weight="normal">out</text>
<line x1="5" y1="60" x2="55" y2="35" stroke="#CC0000" stroke-width="0.8" opacity="0.5"/>
<line x1="10" y1="58" x2="30" y2="48" stroke="#CC0000" stroke-width="0.8" marker-end="url(#arrowhead-beam)"/>
<line x1="58" y1="28" x2="115" y2="28" stroke="#CC0000" stroke-width="0.8" opacity="0.5"/>
<line x1="70" y1="28" x2="100" y2="28" stroke="#CC0000" stroke-width="0.8" marker-end="url(#arrowhead-beam)"/>
<text x="60" y="75" font-family="Arial, Helvetica, sans-serif" font-size="7" fill="#000000" text-anchor="middle" font-weight="bold">HP turning mirror</text>
</svg>
