<?xml version="1.0" encoding="UTF-8"?>
<svg xmlns="http://www.w3.org/2000/svg" viewBox="0 0 200 90" width="200" height="90">
<defs>
  <marker id="arrowhead" markerWidth="6" markerHeight="4" refX="5" refY="2" orient="auto">
    <polygon points="0 0, 6 2, 0 4" fill="#000000" />
  </marker>
  <linearGradient id="fiber-grad" x1="0" y1="0" x2="0" y2="1">
      <stop offset="0%" stop-color="#ADACC6"/>
      <stop offset="22%" stop-color="#1B1E89"/>
      <stop offset="100%" stop-color="#0D0F42"/>
    </linearGradient>
  <linearGradient id="comp-grad" x1="0" y1="0" x2="0" y2="1">
      <stop offset="0%" stop-color="#F0F0F8"/>
      <stop offset="50%" stop-color="#B0B0C8"/>
      <stop offset="100%" stop-color="#707088"/>
    </linearGradient>
</defs>
<rect x="15" y="10" width="50" height="65" rx="3" fill="url(#comp-grad)" stroke="#000000" stroke-width="0.75" />
<text x="40" y="45" font-family="Helvetica, Arial, sans-serif" font-size="6" fill="#000000" text-anchor="middle" font-weight="normal" font-style="normal">MUX</text>
<line x1="5" y1="20" x2="15" y2="20" stroke="url(#fiber-grad)" stroke-width="3.0" stroke-linecap="round" />
<line x1="5" y1="35" x2="15" y2="35" stroke="url(#fiber-grad)" stroke-width="3.0" stroke-linecap="round" />
<line x1="5" y1="50" x2="15" y2="50" stroke="url(#fiber-grad)" stroke-width="3.0" stroke-linecap="round" />
<line x1="5" y1="65" x2="15" y2="65" stroke="url(#fiber-grad)" stroke-width="3.0" stroke-linecap="round" />
<line x1="65" y1="42" x2="115" y2="42" stroke="url(#fiber-grad)" stroke-width="3.0" stroke-linecap="round" />
<rect x="115" y="10" width="50" height="65" rx="3" fill="url(#comp-grad)" stroke="#000000" stroke-width="0.75" />
<text x="140" y="45" font-family="Helvetica, Arial, sans-serif" font-size="6" fill="#000000" text-anchor="middle" font-weight="normal" font-style="normal">DEMUX</text>
<line x1="165" y1="20" x2="195" y2="20" stroke="url(#fiber-grad)" stroke-width="3.0" stroke-linecap="round" />
<line x1="165" y1="35" x2="195" y2="35" stroke="url(#fiber-grad)" stroke-width="3.0" stroke-linecap="round" />
<line x1="165" y1="50" x2="195" y2="50" stroke="url(#fiber-grad)" stroke-width="3.0" stroke-linecap="round" />
<line x1="165" y1="65" x2="195" y2="65" stroke="url(#fiber-grad)" stroke-width="3.0" stroke-linecap="round" />
<text x="100" y="86" font-family="Helvetica, Arial, sans-serif" font-size="8" fill="#000000" text-anchor="middle" font-weight="bold" font-style="normal">MUX/DEMUX module</text>
</svg>
