<svg xmlns="http://www.w3.org/2000/svg" viewBox="0 0 200 80" width="200" height="80" font-family="Arial, Helvetica, sans-serif">
<defs>
<marker id="arrowhead" markerWidth="6" markerHeight="4" refX="5" refY="2" orient="auto"><polygon points="0,0 6,2 0,4" fill="#000000"/></marker>
<marker id="arrowhead-beam" markerWidth="6" markerHeight="4" refX="5" refY="2" orient="auto"><polygon points="0,0 6,2 0,4" fill="#CC0000"/></marker>
<linearGradient id="crystal-grad" x1="0" y1="0" x2="1" y2="1"><stop offset="0%" stop-color="#E8D8F0"/><stop offset="100%" stop-color="#C0A8D0"/></linearGradient>
<linearGradient id="bs-grad" x1="0" y1="0" x2="1" y2="1"><stop offset="0%" stop-color="#D8E0F0"/><stop offset="50%" stop-color="#F0F4FF" stop-opacity="0.8"/><stop offset="100%" stop-color="#B8C0D8"/></linearGradient>
</defs>
<line x1="5" y1="40" x2="45" y2="40" stroke="#6600CC" stroke-width="0.8" opacity="0.5"/>
<line x1="10" y1="40" x2="30" y2="40" stroke="#6600CC" stroke-width="0.8" marker-end="url(#arrowhead-beam)"/>
<rect x="48" y="22" width="28" height="35" rx="2" fill="url(#crystal-grad)" stroke="#000000" stroke-width="0.75"/>
<text x="62" y="42" font-family="Arial, Helvetica, sans-serif" font-size="5.5" fill="#000000" text-anchor="middle" font-weight="normal">SPDC</text>
<line x1="76" y1="34" x2="190" y2="34" stroke="#CC0000" stroke-width="0.8" opacity="0.4"/>
<line x1="100" y1="34" x2="170" y2="34" stroke="#CC0000" stroke-width="0.8" marker-end="url(#arrowhead-beam)"/>
<text x="180" y="28" font-family="Arial, Helvetica, sans-serif" font-size="4.5" fill="#666666" text-anchor="middle" font-weight="normal">single photon</text>
<line x1="76" y1="48" x2="110" y2="68" stroke="#CC0000" stroke-width="0.8" opacity="0.4"/>
<rect x="112" y="60" width="14" height="14" rx="2" fill="url(#detector-grad)" stroke="#000000" stroke-width="0.4" opacity="0.7"/>
<text x="119" y="70" font-family="Arial, Helvetica, sans-serif" font-size="4.5" fill="white" text-anchor="middle" font-weight="normal">H</text>
<path d="M126,67 L145,67 L145,40 L160,40" fill="none" stroke="#666666" stroke-width="0.4" stroke-dasharray="2,2"/>
<text x="150" y="62" font-family="Arial, Helvetica, sans-serif" font-size="4.5" fill="#666666" text-anchor="middle" font-weight="normal">herald</text>
<text x="100" y="78" font-family="Arial, Helvetica, sans-serif" font-size="7" fill="#000000" text-anchor="middle" font-weight="bold">Heralded SPS</text>
</svg>
