<?xml version="1.0" encoding="UTF-8"?>
<svg xmlns="http://www.w3.org/2000/svg" viewBox="0 0 80 80" width="80" height="80">
<defs>
  <marker id="arrowhead" markerWidth="6" markerHeight="4" refX="5" refY="2" orient="auto">
    <polygon points="0 0, 6 2, 0 4" fill="#000000" />
  </marker>
</defs>
<circle cx="40" cy="40" r="36" fill="#E8B830" stroke="#000000" stroke-width="0.75"/>
<circle cx="40" cy="40" r="28" fill="#D4D8E8" stroke="#000000" stroke-width="0.5"/>
<circle cx="58.0" cy="40.0" r="2" fill="white" stroke="#404060" stroke-width="0.3"/>
<circle cx="56.9" cy="46.2" r="2" fill="white" stroke="#404060" stroke-width="0.3"/>
<circle cx="53.8" cy="51.6" r="2" fill="white" stroke="#404060" stroke-width="0.3"/>
<circle cx="49.0" cy="55.6" r="2" fill="white" stroke="#404060" stroke-width="0.3"/>
<circle cx="43.1" cy="57.7" r="2" fill="white" stroke="#404060" stroke-width="0.3"/>
<circle cx="36.9" cy="57.7" r="2" fill="white" stroke="#404060" stroke-width="0.3"/>
<circle cx="31.0" cy="55.6" r="2" fill="white" stroke="#404060" stroke-width="0.3"/>
<circle cx="26.2" cy="51.6" r="2" fill="white" stroke="#404060" stroke-width="0.3"/>
<circle cx="23.1" cy="46.2" r="2" fill="white" stroke="#404060" stroke-width="0.3"/>
<circle cx="22.0" cy="40.0" r="2" fill="white" stroke="#404060" stroke-width="0.3"/>
<circle cx="23.1" cy="33.8" r="2" fill="white" stroke="#404060" stroke-width="0.3"/>
<circle cx="26.2" cy="28.4" r="2" fill="white" stroke="#404060" stroke-width="0.3"/>
<circle cx="31.0" cy="24.4" r="2" fill="white" stroke="#404060" stroke-width="0.3"/>
<circle cx="36.9" cy="22.3" r="2" fill="white" stroke="#404060" stroke-width="0.3"/>
<circle cx="43.1" cy="22.3" r="2" fill="white" stroke="#404060" stroke-width="0.3"/>
<circle cx="49.0" cy="24.4" r="2" fill="white" stroke="#404060" stroke-width="0.3"/>
<circle cx="53.8" cy="28.4" r="2" fill="white" stroke="#404060" stroke-width="0.3"/>
<circle cx="56.9" cy="33.8" r="2" fill="white" stroke="#404060" stroke-width="0.3"/>
<circle cx="40" cy="40" r="14" fill="#E8E0D0" stroke="#000000" stroke-width="0.4"/>
<circle cx="40" cy="40" r="4" fill="#1B1E89" stroke="#000000" stroke-width="0.4"/>
</svg>
