<?xml version="1.0" encoding="UTF-8"?>
<svg xmlns="http://www.w3.org/2000/svg" viewBox="0 0 80 80" width="80" height="80">
<defs>
  <marker id="arrowhead" markerWidth="6" markerHeight="4" refX="5" refY="2" orient="auto">
    <polygon points="0 0, 6 2, 0 4" fill="#000000" />
  </marker>
</defs>
<circle cx="40" cy="40" r="36" fill="#E8B830" stroke="#000" stroke-width="0.75"/>
<circle cx="40" cy="40" r="28" fill="#D4D8E8" stroke="#000" stroke-width="0.5"/>
<circle cx="40" cy="31" r="2.8" fill="#FFFFFF" stroke="#404060" stroke-width="0.4"/>
<circle cx="47.8" cy="35.5" r="2.8" fill="#FFFFFF" stroke="#404060" stroke-width="0.4"/>
<circle cx="47.8" cy="44.5" r="2.8" fill="#FFFFFF" stroke="#404060" stroke-width="0.4"/>
<circle cx="40" cy="49" r="2.8" fill="#FFFFFF" stroke="#404060" stroke-width="0.4"/>
<circle cx="32.2" cy="44.5" r="2.8" fill="#FFFFFF" stroke="#404060" stroke-width="0.4"/>
<circle cx="32.2" cy="35.5" r="2.8" fill="#FFFFFF" stroke="#404060" stroke-width="0.4"/>
<circle cx="40" cy="22.5" r="2.5" fill="#FFFFFF" stroke="#404060" stroke-width="0.35"/>
<circle cx="47.6" cy="26.2" r="2.5" fill="#FFFFFF" stroke="#404060" stroke-width="0.35"/>
<circle cx="55.2" cy="31.5" r="2.5" fill="#FFFFFF" stroke="#404060" stroke-width="0.35"/>
<circle cx="55.2" cy="40" r="2.5" fill="#FFFFFF" stroke="#404060" stroke-width="0.35"/>
<circle cx="55.2" cy="48.5" r="2.5" fill="#FFFFFF" stroke="#404060" stroke-width="0.35"/>
<circle cx="47.6" cy="53.8" r="2.5" fill="#FFFFFF" stroke="#404060" stroke-width="0.35"/>
<circle cx="40" cy="57.5" r="2.5" fill="#FFFFFF" stroke="#404060" stroke-width="0.35"/>
<circle cx="32.4" cy="53.8" r="2.5" fill="#FFFFFF" stroke="#404060" stroke-width="0.35"/>
<circle cx="24.8" cy="48.5" r="2.5" fill="#FFFFFF" stroke="#404060" stroke-width="0.35"/>
<circle cx="24.8" cy="40" r="2.5" fill="#FFFFFF" stroke="#404060" stroke-width="0.35"/>
<circle cx="24.8" cy="31.5" r="2.5" fill="#FFFFFF" stroke="#404060" stroke-width="0.35"/>
<circle cx="32.4" cy="26.2" r="2.5" fill="#FFFFFF" stroke="#404060" stroke-width="0.35"/>
<circle cx="40" cy="40" r="3.5" fill="#A0A8D8" stroke="#1B1E89" stroke-width="0.5"/>
</svg>
