<svg xmlns="http://www.w3.org/2000/svg" viewBox="0 0 110 75" width="110" height="75" font-family="Arial, Helvetica, sans-serif">
<defs>
<marker id="arrowhead" markerWidth="6" markerHeight="4" refX="5" refY="2" orient="auto"><polygon points="0,0 6,2 0,4" fill="#000000"/></marker>
<marker id="arrowhead-beam" markerWidth="6" markerHeight="4" refX="5" refY="2" orient="auto"><polygon points="0,0 6,2 0,4" fill="#CC0000"/></marker>
<linearGradient id="lens-grad" x1="0" y1="0" x2="1" y2="0"><stop offset="0%" stop-color="#D0E0F8"/><stop offset="50%" stop-color="#E8F0FF"/><stop offset="100%" stop-color="#B8C8E0"/></linearGradient>
</defs>
<path d="M55,17.0 C65,27.0 65,47.0 55,57.0 C45,47.0 45,27.0 55,17.0 Z" fill="url(#lens-grad)" stroke="#000000" stroke-width="0.75"/>
<line x1="78" y1="20" x2="78" y2="54" stroke="#000000" stroke-width="1.5"/>
<line x1="78.0" y1="22.8" x2="73.0" y2="22.8" stroke="#666666" stroke-width="0.3"/>
<line x1="78.0" y1="28.5" x2="73.0" y2="28.5" stroke="#666666" stroke-width="0.3"/>
<line x1="78.0" y1="34.2" x2="73.0" y2="34.2" stroke="#666666" stroke-width="0.3"/>
<line x1="78.0" y1="39.8" x2="73.0" y2="39.8" stroke="#666666" stroke-width="0.3"/>
<line x1="78.0" y1="45.5" x2="73.0" y2="45.5" stroke="#666666" stroke-width="0.3"/>
<line x1="78.0" y1="51.2" x2="73.0" y2="51.2" stroke="#666666" stroke-width="0.3"/>
<line x1="5" y1="30" x2="47" y2="30" stroke="#CC0000" stroke-width="0.8" opacity="0.4"/>
<line x1="8" y1="30" x2="28" y2="30" stroke="#CC0000" stroke-width="0.8" marker-end="url(#arrowhead-beam)"/>
<line x1="62" y1="30" x2="78" y2="37" stroke="#CC0000" stroke-width="0.4" opacity="0.25"/>
<line x1="78" y1="37" x2="62" y2="44" stroke="#CC0000" stroke-width="0.4" opacity="0.25"/>
<line x1="47" y1="44" x2="5" y2="44" stroke="#CC0000" stroke-width="0.8" opacity="0.35"/>
<line x1="35" y1="44" x2="12" y2="44" stroke="#CC0000" stroke-width="0.8" marker-end="url(#arrowhead-beam)"/>
<text x="50" y="68" font-family="Arial, Helvetica, sans-serif" font-size="7" fill="#000000" text-anchor="middle" font-weight="bold">Cat's eye retro</text>
</svg>
