<?xml version="1.0" encoding="UTF-8"?>
<svg xmlns="http://www.w3.org/2000/svg" viewBox="0 0 160 50" width="160" height="50">
<defs>
  <marker id="arrowhead" markerWidth="6" markerHeight="4" refX="5" refY="2" orient="auto">
    <polygon points="0 0, 6 2, 0 4" fill="#000000" />
  </marker>
  <linearGradient id="fiber-grad" x1="0" y1="0" x2="0" y2="1">
      <stop offset="0%" stop-color="#ADACC6"/>
      <stop offset="22%" stop-color="#1B1E89"/>
      <stop offset="100%" stop-color="#0D0F42"/>
    </linearGradient>
  <linearGradient id="comp-grad" x1="0" y1="0" x2="0" y2="1">
      <stop offset="0%" stop-color="#F0F0F8"/>
      <stop offset="50%" stop-color="#B0B0C8"/>
      <stop offset="100%" stop-color="#707088"/>
    </linearGradient>
</defs>
<line x1="5" y1="25" x2="45" y2="25" stroke="url(#fiber-grad)" stroke-width="3.0" stroke-linecap="round" />
<rect x="45" y="8" width="60" height="34" rx="2" fill="url(#comp-grad)" stroke="#000000" stroke-width="0.75" />
<line x1="75" y1="25" x2="83.0" y2="25.0" stroke="#000000" stroke-width="0.4" opacity="0.3"/>
<line x1="75" y1="25" x2="80.7" y2="30.7" stroke="#000000" stroke-width="0.4" opacity="0.3"/>
<line x1="75" y1="25" x2="75.0" y2="33.0" stroke="#000000" stroke-width="0.4" opacity="0.3"/>
<line x1="75" y1="25" x2="69.3" y2="30.7" stroke="#000000" stroke-width="0.4" opacity="0.3"/>
<line x1="75" y1="25" x2="67.0" y2="25.0" stroke="#000000" stroke-width="0.4" opacity="0.3"/>
<line x1="75" y1="25" x2="69.3" y2="19.3" stroke="#000000" stroke-width="0.4" opacity="0.3"/>
<line x1="75" y1="25" x2="75.0" y2="17.0" stroke="#000000" stroke-width="0.4" opacity="0.3"/>
<line x1="75" y1="25" x2="80.7" y2="19.3" stroke="#000000" stroke-width="0.4" opacity="0.3"/>
<line x1="105" y1="25" x2="155" y2="25" stroke="url(#fiber-grad)" stroke-width="3.0" stroke-linecap="round" />
<text x="75" y="48" font-family="Helvetica, Arial, sans-serif" font-size="8" fill="#000000" text-anchor="middle" font-weight="bold" font-style="normal">Pol scrambler</text>
</svg>
