<?xml version="1.0" encoding="UTF-8"?>
<svg xmlns="http://www.w3.org/2000/svg" viewBox="0 0 180 70" width="180" height="70">
<defs>
  <marker id="arrowhead" markerWidth="6" markerHeight="4" refX="5" refY="2" orient="auto">
    <polygon points="0 0, 6 2, 0 4" fill="#000000" />
  </marker>
  <linearGradient id="fiber-grad" x1="0" y1="0" x2="0" y2="1">
      <stop offset="0%" stop-color="#ADACC6"/>
      <stop offset="22%" stop-color="#1B1E89"/>
      <stop offset="100%" stop-color="#0D0F42"/>
    </linearGradient>
  <linearGradient id="comp-grad" x1="0" y1="0" x2="0" y2="1">
      <stop offset="0%" stop-color="#F0F0F8"/>
      <stop offset="50%" stop-color="#B0B0C8"/>
      <stop offset="100%" stop-color="#707088"/>
    </linearGradient>
</defs>
<line x1="5" y1="35" x2="40" y2="35" stroke="url(#fiber-grad)" stroke-width="3.0" stroke-linecap="round" />
<rect x="40" y="10" width="90" height="50" rx="3" fill="url(#comp-grad)" stroke="#000000" stroke-width="0.75" />
<path d="M55,35 L65,20 L100,20 L110,35" fill="none" stroke="#000000" stroke-width="0.4"/>
<path d="M55,35 L65,50 L100,50 L110,35" fill="none" stroke="#000000" stroke-width="0.4"/>
<rect x="75" y="16" width="15" height="8" fill="none" stroke="#000000" stroke-width="0.3"/>
<text x="82" y="22" font-family="Helvetica, Arial, sans-serif" font-size="6" fill="#000000" text-anchor="middle" font-weight="normal" font-style="normal">τ</text>
<line x1="130" y1="25" x2="175" y2="25" stroke="url(#fiber-grad)" stroke-width="3.0" stroke-linecap="round" />
<line x1="130" y1="45" x2="175" y2="45" stroke="url(#fiber-grad)" stroke-width="3.0" stroke-linecap="round" />
<text x="173" y="19" font-family="Helvetica, Arial, sans-serif" font-size="7" fill="#444444" text-anchor="end" font-weight="normal" font-style="normal">+</text>
<text x="173" y="51" font-family="Helvetica, Arial, sans-serif" font-size="7" fill="#444444" text-anchor="end" font-weight="normal" font-style="normal">−</text>
<text x="85" y="68" font-family="Helvetica, Arial, sans-serif" font-size="8" fill="#000000" text-anchor="middle" font-weight="bold" font-style="normal">DPSK demod</text>
</svg>
