<?xml version="1.0" encoding="UTF-8"?>
<svg xmlns="http://www.w3.org/2000/svg" viewBox="0 0 100 55" width="100" height="55">
<defs>
  <marker id="arrowhead" markerWidth="6" markerHeight="4" refX="5" refY="2" orient="auto">
    <polygon points="0 0, 6 2, 0 4" fill="#000000" />
  </marker>
  <linearGradient id="fiber-grad" x1="0" y1="0" x2="0" y2="1">
      <stop offset="0%" stop-color="#ADACC6"/>
      <stop offset="22%" stop-color="#1B1E89"/>
      <stop offset="100%" stop-color="#0D0F42"/>
    </linearGradient>
  <linearGradient id="comp-grad" x1="0" y1="0" x2="0" y2="1">
      <stop offset="0%" stop-color="#F0F0F8"/>
      <stop offset="50%" stop-color="#B0B0C8"/>
      <stop offset="100%" stop-color="#707088"/>
    </linearGradient>
</defs>
<line x1="5" y1="27" x2="40" y2="27" stroke="url(#fiber-grad)" stroke-width="3.0" stroke-linecap="round" />
<rect x="40" y="10" width="20" height="34" rx="1" fill="GRADIENT" stroke="#000000" stroke-width="0.75"/>
<line x1="60" y1="10" x2="60" y2="44" stroke="#000000" stroke-width="1.5"/>
<line x1="60" y1="12" x2="64" y2="8" stroke="#444444" stroke-width="0.5"/>
<line x1="60" y1="17" x2="64" y2="13" stroke="#444444" stroke-width="0.5"/>
<line x1="60" y1="22" x2="64" y2="18" stroke="#444444" stroke-width="0.5"/>
<line x1="60" y1="27" x2="64" y2="23" stroke="#444444" stroke-width="0.5"/>
<line x1="60" y1="32" x2="64" y2="28" stroke="#444444" stroke-width="0.5"/>
<line x1="60" y1="37" x2="64" y2="33" stroke="#444444" stroke-width="0.5"/>
<line x1="60" y1="42" x2="64" y2="38" stroke="#444444" stroke-width="0.5"/>
<rect x="40" y="22" width="5" height="10" fill="#CC3300" opacity="0.3" stroke="none"/>
<path d="M35,30 L28,33" fill="none" stroke="#444444" stroke-width="0.4" marker-end="url(#arrowhead)"/>
<text x="45" y="52" font-family="Helvetica, Arial, sans-serif" font-size="8" fill="#000000" text-anchor="middle" font-weight="bold" font-style="normal">SAM</text>
</svg>
