<?xml version="1.0" encoding="UTF-8"?>
<svg xmlns="http://www.w3.org/2000/svg" viewBox="0 0 180 80" width="180" height="80">
<defs>
  <marker id="arrowhead" markerWidth="6" markerHeight="4" refX="5" refY="2" orient="auto">
    <polygon points="0 0, 6 2, 0 4" fill="#000000" />
  </marker>
  <linearGradient id="fiber-grad" x1="0" y1="0" x2="0" y2="1">
      <stop offset="0%" stop-color="#ADACC6"/>
      <stop offset="22%" stop-color="#1B1E89"/>
      <stop offset="100%" stop-color="#0D0F42"/>
    </linearGradient>
  <linearGradient id="comp-grad" x1="0" y1="0" x2="0" y2="1">
      <stop offset="0%" stop-color="#F0F0F8"/>
      <stop offset="50%" stop-color="#B0B0C8"/>
      <stop offset="100%" stop-color="#707088"/>
    </linearGradient>
</defs>
<line x1="5" y1="40" x2="35" y2="40" stroke="url(#fiber-grad)" stroke-width="3.0" stroke-linecap="round" />
<rect x="35" y="8" width="80" height="64" rx="3" fill="url(#comp-grad)" stroke="#000000" stroke-width="0.75" />
<path d="M45,40 L60,40 L75,22" fill="none" stroke="#000000" stroke-width="0.4"/>
<path d="M60,40 L75,58" fill="none" stroke="#000000" stroke-width="0.4"/>
<path d="M75,22 L90,15" fill="none" stroke="#000000" stroke-width="0.4"/>
<path d="M75,22 L90,30" fill="none" stroke="#000000" stroke-width="0.4"/>
<path d="M75,58 L90,50" fill="none" stroke="#000000" stroke-width="0.4"/>
<path d="M75,58 L90,65" fill="none" stroke="#000000" stroke-width="0.4"/>
<text x="65" y="45" font-family="Helvetica, Arial, sans-serif" font-size="6" fill="#000000" text-anchor="middle" font-weight="normal" font-style="normal">1×N</text>
<line x1="115" y1="15" x2="175" y2="15" stroke="url(#fiber-grad)" stroke-width="3.0" stroke-linecap="round" />
<line x1="115" y1="30" x2="175" y2="30" stroke="url(#fiber-grad)" stroke-width="3.0" stroke-linecap="round" />
<line x1="115" y1="50" x2="175" y2="50" stroke="url(#fiber-grad)" stroke-width="3.0" stroke-linecap="round" />
<line x1="115" y1="65" x2="175" y2="65" stroke="url(#fiber-grad)" stroke-width="3.0" stroke-linecap="round" />
<text x="8" y="34" font-family="Helvetica, Arial, sans-serif" font-size="7" fill="#444444" text-anchor="start" font-weight="normal" font-style="normal">in</text>
<text x="90" y="78" font-family="Helvetica, Arial, sans-serif" font-size="8" fill="#000000" text-anchor="middle" font-weight="bold" font-style="normal">PLC splitter</text>
</svg>
