<svg xmlns="http://www.w3.org/2000/svg" viewBox="0 0 160 80" width="160" height="80" font-family="Arial, Helvetica, sans-serif">
<defs>
<marker id="arrowhead" markerWidth="6" markerHeight="4" refX="5" refY="2" orient="auto"><polygon points="0,0 6,2 0,4" fill="#000000"/></marker>
<marker id="arrowhead-beam" markerWidth="6" markerHeight="4" refX="5" refY="2" orient="auto"><polygon points="0,0 6,2 0,4" fill="#CC0000"/></marker>
<linearGradient id="lens-grad" x1="0" y1="0" x2="1" y2="0"><stop offset="0%" stop-color="#D0E0F8"/><stop offset="50%" stop-color="#E8F0FF"/><stop offset="100%" stop-color="#B8C8E0"/></linearGradient>
<linearGradient id="housing-grad" x1="0" y1="0" x2="0" y2="1"><stop offset="0%" stop-color="#B0B0B8"/><stop offset="100%" stop-color="#707078"/></linearGradient>
</defs>
<rect x="50" y="8" width="30" height="55" rx="3" fill="url(#housing-grad)" stroke="#000000" stroke-width="0.75"/>
<ellipse cx="65" cy="18" rx="12" ry="4" fill="url(#lens-grad)" stroke="#000000" stroke-width="0.3"/>
<ellipse cx="65" cy="30" rx="12" ry="4" fill="url(#lens-grad)" stroke="#000000" stroke-width="0.3"/>
<ellipse cx="65" cy="42" rx="12" ry="4" fill="url(#lens-grad)" stroke="#000000" stroke-width="0.3"/>
<line x1="5" y1="30" x2="50" y2="35" stroke="#CC0000" stroke-width="0.4" opacity="0.3"/>
<line x1="5" y1="35" x2="50" y2="35" stroke="#CC0000" stroke-width="0.4" opacity="0.3"/>
<line x1="5" y1="40" x2="50" y2="35" stroke="#CC0000" stroke-width="0.4" opacity="0.3"/>
<line x1="80" y1="35" x2="110" y2="70" stroke="#CC0000" stroke-width="0.4" opacity="0.3"/>
<line x1="80" y1="35" x2="130" y2="70" stroke="#CC0000" stroke-width="0.4" opacity="0.3"/>
<line x1="80" y1="35" x2="150" y2="70" stroke="#CC0000" stroke-width="0.4" opacity="0.3"/>
<line x1="108" y1="70" x2="152" y2="70" stroke="#666666" stroke-width="0.35" stroke-dasharray="2,2"/>
<text x="130" y="68" font-family="Arial, Helvetica, sans-serif" font-size="4.5" fill="#666666" text-anchor="middle" font-weight="normal">flat field</text>
<text x="80" y="78" font-family="Arial, Helvetica, sans-serif" font-size="7" fill="#000000" text-anchor="middle" font-weight="bold">f-theta lens</text>
</svg>
