<svg xmlns="http://www.w3.org/2000/svg" viewBox="0 0 180 65" width="180" height="65" font-family="Arial, Helvetica, sans-serif">
<defs>
<marker id="arrowhead" markerWidth="6" markerHeight="4" refX="5" refY="2" orient="auto"><polygon points="0,0 6,2 0,4" fill="#000000"/></marker>
<marker id="arrowhead-beam" markerWidth="6" markerHeight="4" refX="5" refY="2" orient="auto"><polygon points="0,0 6,2 0,4" fill="#CC0000"/></marker>
<linearGradient id="lens-grad" x1="0" y1="0" x2="1" y2="0"><stop offset="0%" stop-color="#D0E0F8"/><stop offset="50%" stop-color="#E8F0FF"/><stop offset="100%" stop-color="#B8C8E0"/></linearGradient>
</defs>
<line x1="10" y1="18" x2="10" y2="48" stroke="#000000" stroke-width="0.4" stroke-dasharray="2,2"/>
<text x="10" y="14" font-family="Arial, Helvetica, sans-serif" font-size="4.5" fill="#666666" text-anchor="middle" font-weight="normal">obj</text>
<path d="M55,17.0 C63,25.0 63,41.0 55,49.0 C47,41.0 47,25.0 55,17.0 Z" fill="url(#lens-grad)" stroke="#000000" stroke-width="0.75"/>
<path d="M120,17.0 C128,25.0 128,41.0 120,49.0 C112,41.0 112,25.0 120,17.0 Z" fill="url(#lens-grad)" stroke="#000000" stroke-width="0.75"/>
<line x1="165" y1="18" x2="165" y2="48" stroke="#000000" stroke-width="0.4" stroke-dasharray="2,2"/>
<text x="165" y="14" font-family="Arial, Helvetica, sans-serif" font-size="4.5" fill="#666666" text-anchor="middle" font-weight="normal">img</text>
<path d="M10,22 L48,30 L62,30 L112,38 L128,38 L165,44" fill="none" stroke="#CC0000" stroke-width="0.3" opacity="0.2"/>
<path d="M10,44 L48,36 L62,36 L112,28 L128,28 L165,22" fill="none" stroke="#CC0000" stroke-width="0.3" opacity="0.2"/>
<text x="87" y="14" font-family="Arial, Helvetica, sans-serif" font-size="5.5" fill="#666666" text-anchor="middle" font-weight="normal">1:1</text>
<text x="87" y="60" font-family="Arial, Helvetica, sans-serif" font-size="7" fill="#000000" text-anchor="middle" font-weight="bold">Relay lens (4f)</text>
</svg>
