<svg xmlns="http://www.w3.org/2000/svg" viewBox="0 0 160 70" width="160" height="70" font-family="Arial, Helvetica, sans-serif">
<defs>
<marker id="arrowhead" markerWidth="6" markerHeight="4" refX="5" refY="2" orient="auto"><polygon points="0,0 6,2 0,4" fill="#000000"/></marker>
<marker id="arrowhead-beam" markerWidth="6" markerHeight="4" refX="5" refY="2" orient="auto"><polygon points="0,0 6,2 0,4" fill="#CC0000"/></marker>
<linearGradient id="lens-grad" x1="0" y1="0" x2="1" y2="0"><stop offset="0%" stop-color="#D0E0F8"/><stop offset="50%" stop-color="#E8F0FF"/><stop offset="100%" stop-color="#B8C8E0"/></linearGradient>
<linearGradient id="housing-grad" x1="0" y1="0" x2="0" y2="1"><stop offset="0%" stop-color="#B0B0B8"/><stop offset="100%" stop-color="#707078"/></linearGradient>
</defs>
<rect x="40" y="8" width="55" height="48" rx="3" fill="url(#housing-grad)" stroke="#000000" stroke-width="0.75"/>
<ellipse cx="55" cy="32" rx="3" ry="14" fill="url(#lens-grad)" stroke="#000000" stroke-width="0.3"/>
<ellipse cx="80" cy="32" rx="3" ry="16" fill="url(#lens-grad)" stroke="#000000" stroke-width="0.3"/>
<line x1="67" y1="14" x2="67" y2="26" stroke="#000000" stroke-width="0.4"/>
<line x1="67" y1="38" x2="67" y2="50" stroke="#000000" stroke-width="0.4"/>
<line x1="5" y1="25" x2="40" y2="25" stroke="#CC0000" stroke-width="0.3" opacity="0.2"/>
<line x1="5" y1="32" x2="40" y2="32" stroke="#CC0000" stroke-width="0.3" opacity="0.2"/>
<line x1="5" y1="39" x2="40" y2="39" stroke="#CC0000" stroke-width="0.3" opacity="0.2"/>
<line x1="95" y1="32" x2="155" y2="32" stroke="#CC0000" stroke-width="0.8" opacity="0.4"/>
<text x="15" y="18" font-family="Arial, Helvetica, sans-serif" font-size="4.5" fill="#666666" text-anchor="middle" font-weight="normal">telecentric</text>
<text x="80" y="65" font-family="Arial, Helvetica, sans-serif" font-size="7" fill="#000000" text-anchor="middle" font-weight="bold">Telecentric lens</text>
</svg>
