<svg xmlns="http://www.w3.org/2000/svg" viewBox="0 0 130 65" width="130" height="65" font-family="Arial, Helvetica, sans-serif">
<defs>
<marker id="arrowhead" markerWidth="6" markerHeight="4" refX="5" refY="2" orient="auto"><polygon points="0,0 6,2 0,4" fill="#1a1a1a"/></marker>
<marker id="arrowhead-beam" markerWidth="6" markerHeight="4" refX="5" refY="2" orient="auto"><polygon points="0,0 6,2 0,4" fill="#c0392b"/></marker>
</defs>
<path d="M25,15 C18,28 18,42 25,55" fill="none" stroke="#1a1a1a" stroke-width="0.6"/>
<path d="M95,15 C102,28 102,42 95,55" fill="none" stroke="#1a1a1a" stroke-width="0.6"/>
<rect x="48" y="38" width="24" height="10" rx="2" fill="#f0f0f0" stroke="#1a1a1a" stroke-width="0.4" opacity="0.5"/>
<text x="60" y="36" font-family="Arial, Helvetica, sans-serif" font-size="4.5" fill="#888888" text-anchor="middle" font-weight="normal">sample</text>
<line x1="60" y1="38" x2="47" y2="23" stroke="#c0392b" stroke-width="0.3" opacity="0.15"/>
<line x1="60" y1="38" x2="53" y2="19" stroke="#c0392b" stroke-width="0.3" opacity="0.15"/>
<line x1="60" y1="38" x2="60" y2="18" stroke="#c0392b" stroke-width="0.3" opacity="0.15"/>
<line x1="60" y1="38" x2="67" y2="19" stroke="#c0392b" stroke-width="0.3" opacity="0.15"/>
<line x1="60" y1="38" x2="73" y2="23" stroke="#c0392b" stroke-width="0.3" opacity="0.15"/>
<line x1="5" y1="35" x2="25" y2="35" stroke="#c0392b" stroke-width="0.6" opacity="0.4"/>
<line x1="8" y1="35" x2="18" y2="35" stroke="#c0392b" stroke-width="0.6" marker-end="url(#arrowhead-beam)"/>
<line x1="95" y1="35" x2="125" y2="35" stroke="#c0392b" stroke-width="0.6" opacity="0.3"/>
<text x="65" y="60" font-family="Arial, Helvetica, sans-serif" font-size="7" fill="#1a1a1a" text-anchor="middle" font-weight="bold">Diffuse reflectance</text>
</svg>
