<svg xmlns="http://www.w3.org/2000/svg" viewBox="0 0 120 80" width="120" height="80" font-family="Arial, Helvetica, sans-serif">
<defs>
<marker id="arrowhead" markerWidth="6" markerHeight="4" refX="5" refY="2" orient="auto"><polygon points="0,0 6,2 0,4" fill="#1a1a1a"/></marker>
<marker id="arrowhead-beam" markerWidth="6" markerHeight="4" refX="5" refY="2" orient="auto"><polygon points="0,0 6,2 0,4" fill="#c0392b"/></marker>
</defs>
<circle cx="60" cy="40" r="28" fill="#f0f0f0" stroke="#1a1a1a" stroke-width="0.5"/>
<rect x="5" y="35" width="6" height="10" fill="#f0f0f0" stroke="#1a1a1a" stroke-width="0.4"/>
<line x1="1" y1="40" x2="11" y2="40" stroke="#c0392b" stroke-width="0.6" opacity="0.4"/>
<line x1="2" y1="40" x2="8" y2="40" stroke="#c0392b" stroke-width="0.6" marker-end="url(#arrowhead-beam)"/>
<rect x="88" y="35" width="6" height="10" fill="#f0f0f0" stroke="#1a1a1a" stroke-width="0.4"/>
<line x1="68" y1="40" x2="80" y2="40" stroke="#888888" stroke-width="0.3" opacity="0.2"/>
<line x1="66" y1="46" x2="74" y2="54" stroke="#888888" stroke-width="0.3" opacity="0.2"/>
<line x1="60" y1="48" x2="60" y2="60" stroke="#888888" stroke-width="0.3" opacity="0.2"/>
<line x1="54" y1="46" x2="46" y2="54" stroke="#888888" stroke-width="0.3" opacity="0.2"/>
<line x1="52" y1="40" x2="40" y2="40" stroke="#888888" stroke-width="0.3" opacity="0.2"/>
<line x1="54" y1="34" x2="46" y2="26" stroke="#888888" stroke-width="0.3" opacity="0.2"/>
<line x1="60" y1="32" x2="60" y2="20" stroke="#888888" stroke-width="0.3" opacity="0.2"/>
<line x1="66" y1="34" x2="74" y2="26" stroke="#888888" stroke-width="0.3" opacity="0.2"/>
<line x1="50" y1="30" x2="50" y2="50" stroke="#1a1a1a" stroke-width="0.4" opacity="0.4"/>
<text x="100" y="42" font-family="Arial, Helvetica, sans-serif" font-size="4.5" fill="#888888" text-anchor="middle" font-weight="normal">det</text>
<text x="60" y="75" font-family="Arial, Helvetica, sans-serif" font-size="7" fill="#1a1a1a" text-anchor="middle" font-weight="bold">Integrating sphere</text>
</svg>
