<?xml version="1.0" encoding="UTF-8"?>
<svg xmlns="http://www.w3.org/2000/svg" viewBox="0 0 120 45" width="120" height="45">
<defs>
  <marker id="arrowhead" markerWidth="6" markerHeight="4" refX="5" refY="2" orient="auto">
    <polygon points="0 0, 6 2, 0 4" fill="#000000" />
  </marker>
  <linearGradient id="fiber-grad" x1="0" y1="0" x2="0" y2="1">
      <stop offset="0%" stop-color="#ADACC6"/>
      <stop offset="22%" stop-color="#1B1E89"/>
      <stop offset="100%" stop-color="#0D0F42"/>
    </linearGradient>
  <linearGradient id="housing-grad" x1="0" y1="0" x2="0" y2="1">
      <stop offset="0%" stop-color="#E0D8C0"/>
      <stop offset="50%" stop-color="#C0B898"/>
      <stop offset="100%" stop-color="#908868"/>
    </linearGradient>
</defs>
<line x1="5" y1="22" x2="25" y2="22" stroke="url(#fiber-grad)" stroke-width="3.0" stroke-linecap="round" />
<rect x="25" y="10" width="50" height="24" rx="2" fill="url(#housing-grad)" stroke="#000000" stroke-width="0.75"/>
<line x1="30" y1="10" x2="31.5" y2="12" stroke="#444444" stroke-width="0.3" opacity="0.4"/>
<line x1="30" y1="34" x2="31.5" y2="32" stroke="#444444" stroke-width="0.3" opacity="0.4"/>
<line x1="33" y1="10" x2="34.5" y2="12" stroke="#444444" stroke-width="0.3" opacity="0.4"/>
<line x1="33" y1="34" x2="34.5" y2="32" stroke="#444444" stroke-width="0.3" opacity="0.4"/>
<line x1="36" y1="10" x2="37.5" y2="12" stroke="#444444" stroke-width="0.3" opacity="0.4"/>
<line x1="36" y1="34" x2="37.5" y2="32" stroke="#444444" stroke-width="0.3" opacity="0.4"/>
<line x1="39" y1="10" x2="40.5" y2="12" stroke="#444444" stroke-width="0.3" opacity="0.4"/>
<line x1="39" y1="34" x2="40.5" y2="32" stroke="#444444" stroke-width="0.3" opacity="0.4"/>
<line x1="42" y1="10" x2="43.5" y2="12" stroke="#444444" stroke-width="0.3" opacity="0.4"/>
<line x1="42" y1="34" x2="43.5" y2="32" stroke="#444444" stroke-width="0.3" opacity="0.4"/>
<line x1="45" y1="10" x2="46.5" y2="12" stroke="#444444" stroke-width="0.3" opacity="0.4"/>
<line x1="45" y1="34" x2="46.5" y2="32" stroke="#444444" stroke-width="0.3" opacity="0.4"/>
<line x1="48" y1="10" x2="49.5" y2="12" stroke="#444444" stroke-width="0.3" opacity="0.4"/>
<line x1="48" y1="34" x2="49.5" y2="32" stroke="#444444" stroke-width="0.3" opacity="0.4"/>
<line x1="51" y1="10" x2="52.5" y2="12" stroke="#444444" stroke-width="0.3" opacity="0.4"/>
<line x1="51" y1="34" x2="52.5" y2="32" stroke="#444444" stroke-width="0.3" opacity="0.4"/>
<line x1="54" y1="10" x2="55.5" y2="12" stroke="#444444" stroke-width="0.3" opacity="0.4"/>
<line x1="54" y1="34" x2="55.5" y2="32" stroke="#444444" stroke-width="0.3" opacity="0.4"/>
<line x1="57" y1="10" x2="58.5" y2="12" stroke="#444444" stroke-width="0.3" opacity="0.4"/>
<line x1="57" y1="34" x2="58.5" y2="32" stroke="#444444" stroke-width="0.3" opacity="0.4"/>
<line x1="60" y1="10" x2="61.5" y2="12" stroke="#444444" stroke-width="0.3" opacity="0.4"/>
<line x1="60" y1="34" x2="61.5" y2="32" stroke="#444444" stroke-width="0.3" opacity="0.4"/>
<line x1="63" y1="10" x2="64.5" y2="12" stroke="#444444" stroke-width="0.3" opacity="0.4"/>
<line x1="63" y1="34" x2="64.5" y2="32" stroke="#444444" stroke-width="0.3" opacity="0.4"/>
<line x1="66" y1="10" x2="67.5" y2="12" stroke="#444444" stroke-width="0.3" opacity="0.4"/>
<line x1="66" y1="34" x2="67.5" y2="32" stroke="#444444" stroke-width="0.3" opacity="0.4"/>
<line x1="69" y1="10" x2="70.5" y2="12" stroke="#444444" stroke-width="0.3" opacity="0.4"/>
<line x1="69" y1="34" x2="70.5" y2="32" stroke="#444444" stroke-width="0.3" opacity="0.4"/>
<line x1="77" y1="12" x2="77" y2="32" stroke="#000000" stroke-width="0.75"/>
<text x="50" y="42" font-family="Helvetica, Arial, sans-serif" font-size="6" fill="#000000" text-anchor="middle" font-weight="bold" font-style="normal">SMA 905</text>
</svg>
