<?xml version="1.0" encoding="UTF-8"?>
<svg xmlns="http://www.w3.org/2000/svg" viewBox="0 0 140 60" width="140" height="60">
<defs>
  <marker id="arrowhead" markerWidth="6" markerHeight="4" refX="5" refY="2" orient="auto">
    <polygon points="0 0, 6 2, 0 4" fill="#1a1a1a" />
  </marker>
  <marker id="arrowhead-beam" markerWidth="6" markerHeight="4" refX="5" refY="2" orient="auto">
    <polygon points="0 0, 6 2, 0 4" fill="#c0392b" />
  </marker>
  <marker id="arrowhead-gray" markerWidth="5" markerHeight="3.5" refX="4" refY="1.75" orient="auto">
    <polygon points="0 0, 5 1.75, 0 3.5" fill="#888888" />
  </marker>
</defs>
<rect x="15" y="8" width="80" height="42" rx="3" fill="#f0f0f0" stroke="#1a1a1a" stroke-width="0.5" />
<rect x="22" y="14" width="50" height="22" rx="2" fill="#101828" stroke="#1a1a1a" stroke-width="0.3"/>
<path d="M26,30 C30,18 36,36 42,24 C48,36 52,18 56,30 C60,36 64,22 68,30" fill="none" stroke="#00CC66" stroke-width="0.7"/>
<text x="55" y="44" font-family="Arial, Helvetica, sans-serif" font-size="6" fill="#1a1a1a" text-anchor="middle" font-weight="normal" font-style="normal">AWG</text>
<line x1="95" y1="30" x2="135" y2="30" stroke="#1a1a1a" stroke-width="0.35"/>
<text x="133" y="24" font-family="Arial, Helvetica, sans-serif" font-size="7" fill="#888888" text-anchor="end" font-weight="normal" font-style="italic">out</text>
<text x="55" y="58" font-family="Arial, Helvetica, sans-serif" font-size="8" fill="#1a1a1a" text-anchor="middle" font-weight="bold" font-style="normal">Waveform gen</text>
</svg>
