<?xml version="1.0" encoding="UTF-8"?>
<svg xmlns="http://www.w3.org/2000/svg" viewBox="0 0 120 55" width="120" height="55">
<defs>
  <marker id="arrowhead" markerWidth="6" markerHeight="4" refX="5" refY="2" orient="auto">
    <polygon points="0 0, 6 2, 0 4" fill="#1a1a1a" />
  </marker>
  <marker id="arrowhead-beam" markerWidth="6" markerHeight="4" refX="5" refY="2" orient="auto">
    <polygon points="0 0, 6 2, 0 4" fill="#c0392b" />
  </marker>
  <marker id="arrowhead-gray" markerWidth="5" markerHeight="3.5" refX="4" refY="1.75" orient="auto">
    <polygon points="0 0, 5 1.75, 0 3.5" fill="#888888" />
  </marker>
</defs>
<rect x="15" y="8" width="75" height="38" rx="2" fill="#f0f0f0" stroke="#1a1a1a" stroke-width="0.5" />
<text x="52" y="30" font-family="Arial, Helvetica, sans-serif" font-size="7" fill="#1a1a1a" text-anchor="middle" font-weight="normal" font-style="italic">FPGA</text>
<line x1="5" y1="16" x2="15" y2="16" stroke="#1a1a1a" stroke-width="0.4"/>
<line x1="90" y1="16" x2="115" y2="16" stroke="#1a1a1a" stroke-width="0.4"/>
<line x1="5" y1="22" x2="15" y2="22" stroke="#1a1a1a" stroke-width="0.4"/>
<line x1="90" y1="22" x2="115" y2="22" stroke="#1a1a1a" stroke-width="0.4"/>
<line x1="5" y1="28" x2="15" y2="28" stroke="#1a1a1a" stroke-width="0.4"/>
<line x1="90" y1="28" x2="115" y2="28" stroke="#1a1a1a" stroke-width="0.4"/>
<line x1="5" y1="34" x2="15" y2="34" stroke="#1a1a1a" stroke-width="0.4"/>
<line x1="90" y1="34" x2="115" y2="34" stroke="#1a1a1a" stroke-width="0.4"/>
<line x1="5" y1="40" x2="15" y2="40" stroke="#1a1a1a" stroke-width="0.4"/>
<line x1="90" y1="40" x2="115" y2="40" stroke="#1a1a1a" stroke-width="0.4"/>
<text x="52" y="52" font-family="Arial, Helvetica, sans-serif" font-size="8" fill="#1a1a1a" text-anchor="middle" font-weight="bold" font-style="normal">FPGA</text>
</svg>
