<?xml version="1.0" encoding="UTF-8"?>
<svg xmlns="http://www.w3.org/2000/svg" viewBox="0 0 180 80" width="180" height="80">
<defs>
  <marker id="arrowhead" markerWidth="6" markerHeight="4" refX="5" refY="2" orient="auto">
    <polygon points="0 0, 6 2, 0 4" fill="#1a1a1a" />
  </marker>
  <marker id="arrowhead-beam" markerWidth="6" markerHeight="4" refX="5" refY="2" orient="auto">
    <polygon points="0 0, 6 2, 0 4" fill="#c0392b" />
  </marker>
  <marker id="arrowhead-gray" markerWidth="5" markerHeight="3.5" refX="4" refY="1.75" orient="auto">
    <polygon points="0 0, 5 1.75, 0 3.5" fill="#888888" />
  </marker>
</defs>
<rect x="35" y="10" width="90" height="55" rx="3" fill="#f0f0f0" stroke="#1a1a1a" stroke-width="0.5" />
<rect x="55" y="18" width="30" height="22" rx="1" fill="#888888" stroke="#1a1a1a" stroke-width="0.4" opacity="0.3"/>
<path d="M90,22 C94,28 94,36 90,42" fill="none" stroke="#1a1a1a" stroke-width="0.4"/>
<text x="80" y="50" font-family="Arial, Helvetica, sans-serif" font-size="6" fill="#1a1a1a" text-anchor="middle" font-weight="normal" font-style="normal">LCoS</text>
<line x1="5" y1="37" x2="35" y2="37" stroke="#333333" stroke-width="0.7" stroke-linecap="round" />
<line x1="10" y1="37" x2="25" y2="37" stroke="#888888" stroke-width="0.5" marker-end="url(#arrowhead-gray)" />
<line x1="125" y1="20" x2="175" y2="20" stroke="#333333" stroke-width="0.7" stroke-linecap="round" />
<line x1="125" y1="33" x2="175" y2="33" stroke="#333333" stroke-width="0.7" stroke-linecap="round" />
<line x1="125" y1="46" x2="175" y2="46" stroke="#333333" stroke-width="0.7" stroke-linecap="round" />
<line x1="125" y1="59" x2="175" y2="59" stroke="#333333" stroke-width="0.7" stroke-linecap="round" />
<text x="8" y="31" font-family="Arial, Helvetica, sans-serif" font-size="7" fill="#888888" text-anchor="start" font-weight="normal" font-style="italic">in</text>
<text x="173" y="14" font-family="Arial, Helvetica, sans-serif" font-size="7" fill="#888888" text-anchor="end" font-weight="normal" font-style="italic">ch1</text>
<text x="80" y="74" font-family="Arial, Helvetica, sans-serif" font-size="8" fill="#1a1a1a" text-anchor="middle" font-weight="bold" font-style="normal">LCoS WSS</text>
</svg>
