<?xml version="1.0" encoding="UTF-8"?>
<svg xmlns="http://www.w3.org/2000/svg" viewBox="0 0 160 90" width="160" height="90">
<defs>
  <marker id="arrowhead" markerWidth="6" markerHeight="4" refX="5" refY="2" orient="auto">
    <polygon points="0 0, 6 2, 0 4" fill="#1a1a1a" />
  </marker>
  <marker id="arrowhead-beam" markerWidth="6" markerHeight="4" refX="5" refY="2" orient="auto">
    <polygon points="0 0, 6 2, 0 4" fill="#c0392b" />
  </marker>
  <marker id="arrowhead-gray" markerWidth="5" markerHeight="3.5" refX="4" refY="1.75" orient="auto">
    <polygon points="0 0, 5 1.75, 0 3.5" fill="#888888" />
  </marker>
</defs>
<rect x="35" y="10" width="80" height="65" rx="3" fill="#f0f0f0" stroke="#1a1a1a" stroke-width="0.5" />
<text x="75" y="45" font-family="Arial, Helvetica, sans-serif" font-size="7" fill="#1a1a1a" text-anchor="middle" font-weight="normal" font-style="italic">OXC</text>
<line x1="5" y1="25" x2="35" y2="25" stroke="#333333" stroke-width="0.7" stroke-linecap="round" />
<line x1="10" y1="25" x2="25" y2="25" stroke="#888888" stroke-width="0.5" marker-end="url(#arrowhead-gray)" />
<line x1="5" y1="42" x2="35" y2="42" stroke="#333333" stroke-width="0.7" stroke-linecap="round" />
<line x1="10" y1="42" x2="25" y2="42" stroke="#888888" stroke-width="0.5" marker-end="url(#arrowhead-gray)" />
<line x1="5" y1="60" x2="35" y2="60" stroke="#333333" stroke-width="0.7" stroke-linecap="round" />
<line x1="10" y1="60" x2="25" y2="60" stroke="#888888" stroke-width="0.5" marker-end="url(#arrowhead-gray)" />
<line x1="115" y1="25" x2="155" y2="25" stroke="#333333" stroke-width="0.7" stroke-linecap="round" />
<line x1="125" y1="25" x2="140" y2="25" stroke="#888888" stroke-width="0.5" marker-end="url(#arrowhead-gray)" />
<line x1="115" y1="42" x2="155" y2="42" stroke="#333333" stroke-width="0.7" stroke-linecap="round" />
<line x1="125" y1="42" x2="140" y2="42" stroke="#888888" stroke-width="0.5" marker-end="url(#arrowhead-gray)" />
<line x1="115" y1="60" x2="155" y2="60" stroke="#333333" stroke-width="0.7" stroke-linecap="round" />
<line x1="125" y1="60" x2="140" y2="60" stroke="#888888" stroke-width="0.5" marker-end="url(#arrowhead-gray)" />
<line x1="45" y1="25" x2="105" y2="60" stroke="#1a1a1a" stroke-width="0.4" stroke-dasharray="2,2" opacity="0.4"/>
<line x1="45" y1="42" x2="105" y2="25" stroke="#1a1a1a" stroke-width="0.4" stroke-dasharray="2,2" opacity="0.4"/>
<line x1="45" y1="60" x2="105" y2="42" stroke="#1a1a1a" stroke-width="0.4" stroke-dasharray="2,2" opacity="0.4"/>
<text x="75" y="85" font-family="Arial, Helvetica, sans-serif" font-size="8" fill="#1a1a1a" text-anchor="middle" font-weight="bold" font-style="normal">Optical cross-connect</text>
</svg>
