<?xml version="1.0" encoding="UTF-8"?>
<svg xmlns="http://www.w3.org/2000/svg" viewBox="0 0 280 80" width="280" height="80">
<defs>
  <marker id="arrowhead" markerWidth="6" markerHeight="4" refX="5" refY="2" orient="auto">
    <polygon points="0 0, 6 2, 0 4" fill="#1a1a1a" />
  </marker>
  <marker id="arrowhead-beam" markerWidth="6" markerHeight="4" refX="5" refY="2" orient="auto">
    <polygon points="0 0, 6 2, 0 4" fill="#c0392b" />
  </marker>
  <marker id="arrowhead-gray" markerWidth="5" markerHeight="3.5" refX="4" refY="1.75" orient="auto">
    <polygon points="0 0, 5 1.75, 0 3.5" fill="#888888" />
  </marker>
</defs>
<rect x="15" y="8" width="240" height="55" rx="4" fill="#f0f0f0" stroke="#1a1a1a" stroke-width="0.5"/>
<rect x="25" y="16" width="40" height="30" rx="2" fill="none" stroke="#1a1a1a" stroke-width="0.4"/>
<text x="45" y="34" font-family="Arial, Helvetica, sans-serif" font-size="6" fill="#1a1a1a" text-anchor="middle" font-weight="normal" font-style="normal">Mux</text>
<rect x="75" y="22" width="35" height="20" rx="2" fill="none" stroke="#1a1a1a" stroke-width="0.4"/>
<text x="92" y="35" font-family="Arial, Helvetica, sans-serif" font-size="6" fill="#1a1a1a" text-anchor="middle" font-weight="normal" font-style="normal">BA</text>
<rect x="120" y="22" width="30" height="20" rx="2" fill="none" stroke="#1a1a1a" stroke-width="0.4"/>
<text x="135" y="35" font-family="Arial, Helvetica, sans-serif" font-size="6" fill="#1a1a1a" text-anchor="middle" font-weight="normal" font-style="normal">OSC</text>
<rect x="160" y="22" width="35" height="20" rx="2" fill="none" stroke="#1a1a1a" stroke-width="0.4"/>
<text x="177" y="35" font-family="Arial, Helvetica, sans-serif" font-size="6" fill="#1a1a1a" text-anchor="middle" font-weight="normal" font-style="normal">PA</text>
<rect x="205" y="16" width="40" height="30" rx="2" fill="none" stroke="#1a1a1a" stroke-width="0.4"/>
<text x="225" y="34" font-family="Arial, Helvetica, sans-serif" font-size="6" fill="#1a1a1a" text-anchor="middle" font-weight="normal" font-style="normal">Demux</text>
<line x1="65" y1="32" x2="75" y2="32" stroke="#1a1a1a" stroke-width="0.3"/>
<line x1="110" y1="32" x2="120" y2="32" stroke="#1a1a1a" stroke-width="0.3"/>
<line x1="150" y1="32" x2="160" y2="32" stroke="#1a1a1a" stroke-width="0.3"/>
<line x1="195" y1="32" x2="205" y2="32" stroke="#1a1a1a" stroke-width="0.3"/>
<line x1="2" y1="20" x2="15" y2="20" stroke="#333333" stroke-width="0.7" stroke-linecap="round" />
<line x1="2" y1="30" x2="15" y2="30" stroke="#333333" stroke-width="0.7" stroke-linecap="round" />
<line x1="2" y1="40" x2="15" y2="40" stroke="#333333" stroke-width="0.7" stroke-linecap="round" />
<line x1="255" y1="32" x2="278" y2="32" stroke="#333333" stroke-width="0.7" stroke-linecap="round" />
<line x1="260" y1="32" x2="273" y2="32" stroke="#888888" stroke-width="0.5" marker-end="url(#arrowhead-gray)" />
<text x="140" y="74" font-family="Arial, Helvetica, sans-serif" font-size="8" fill="#1a1a1a" text-anchor="middle" font-weight="bold" font-style="normal">WDM terminal</text>
</svg>
