<?xml version="1.0" encoding="UTF-8"?>
<svg xmlns="http://www.w3.org/2000/svg" viewBox="0 0 160 55" width="160" height="55">
<defs>
  <marker id="arrowhead" markerWidth="6" markerHeight="4" refX="5" refY="2" orient="auto">
    <polygon points="0 0, 6 2, 0 4" fill="#000000" />
  </marker>
</defs>
<line x1="5" y1="27" x2="45" y2="27" stroke="#1B1E89" stroke-width="2.5" stroke-linecap="round" />
<rect x="45" y="8" width="60" height="38" rx="2" fill="#D4D8E8" stroke="#000000" stroke-width="0.75" />
<line x1="75" y1="27" x2="91" y2="18" stroke="#CC3300" stroke-width="0.4" opacity="0.3"/>
<line x1="75" y1="27" x2="84" y2="11" stroke="#CC3300" stroke-width="0.4" opacity="0.3"/>
<line x1="75" y1="27" x2="75" y2="9" stroke="#CC3300" stroke-width="0.4" opacity="0.3"/>
<line x1="75" y1="27" x2="66" y2="11" stroke="#CC3300" stroke-width="0.4" opacity="0.3"/>
<line x1="75" y1="27" x2="59" y2="18" stroke="#CC3300" stroke-width="0.4" opacity="0.3"/>
<line x1="50" y1="8" x2="50" y2="3" stroke="#444444" stroke-width="0.5"/>
<line x1="56" y1="8" x2="56" y2="3" stroke="#444444" stroke-width="0.5"/>
<line x1="62" y1="8" x2="62" y2="3" stroke="#444444" stroke-width="0.5"/>
<line x1="68" y1="8" x2="68" y2="3" stroke="#444444" stroke-width="0.5"/>
<line x1="74" y1="8" x2="74" y2="3" stroke="#444444" stroke-width="0.5"/>
<line x1="80" y1="8" x2="80" y2="3" stroke="#444444" stroke-width="0.5"/>
<line x1="86" y1="8" x2="86" y2="3" stroke="#444444" stroke-width="0.5"/>
<line x1="92" y1="8" x2="92" y2="3" stroke="#444444" stroke-width="0.5"/>
<line x1="98" y1="8" x2="98" y2="3" stroke="#444444" stroke-width="0.5"/>
<line x1="105" y1="27" x2="155" y2="27" stroke="#1B1E89" stroke-width="2.5" stroke-linecap="round" />
<text x="75" y="52" font-family="Helvetica, Arial, sans-serif" font-size="8" fill="#000000" text-anchor="middle" font-weight="bold" font-style="normal">HP CLS</text>
</svg>
