<svg xmlns="http://www.w3.org/2000/svg" viewBox="0 0 120 65" width="120" height="65" font-family="Arial, Helvetica, sans-serif">
<defs>
<marker id="arrowhead" markerWidth="6" markerHeight="4" refX="5" refY="2" orient="auto"><polygon points="0,0 6,2 0,4" fill="#000000"/></marker>
<marker id="arrowhead-beam" markerWidth="6" markerHeight="4" refX="5" refY="2" orient="auto"><polygon points="0,0 6,2 0,4" fill="#CC0000"/></marker>
<linearGradient id="glass-grad" x1="0" y1="0" x2="1" y2="1"><stop offset="0%" stop-color="#D8E4F8"/><stop offset="100%" stop-color="#A8B8D8"/></linearGradient>
</defs>
<path d="M5,42 C12,40 20,25 30,22 C35,30 38,38 42,40" fill="none" stroke="#CC0000" stroke-width="0.4" opacity="0.3"/>
<line x1="5" y1="32" x2="42" y2="32" stroke="#CC0000" stroke-width="0.8" opacity="0.4"/>
<line x1="10" y1="32" x2="28" y2="32" stroke="#CC0000" stroke-width="0.8" marker-end="url(#arrowhead-beam)"/>
<rect x="45" y="8" width="10" height="48" rx="1" fill="url(#glass-grad)" stroke="#000000" stroke-width="0.75"/>
<line x1="45" y1="12" x2="55" y2="12" stroke="#666666" stroke-width="0.2" opacity="0.2"/>
<line x1="45" y1="15" x2="55" y2="15" stroke="#666666" stroke-width="0.2" opacity="0.2"/>
<line x1="45" y1="18" x2="55" y2="18" stroke="#666666" stroke-width="0.2" opacity="0.2"/>
<line x1="45" y1="21" x2="55" y2="21" stroke="#666666" stroke-width="0.2" opacity="0.2"/>
<line x1="45" y1="24" x2="55" y2="24" stroke="#666666" stroke-width="0.2" opacity="0.2"/>
<line x1="45" y1="27" x2="55" y2="27" stroke="#666666" stroke-width="0.2" opacity="0.2"/>
<line x1="45" y1="30" x2="55" y2="30" stroke="#666666" stroke-width="0.2" opacity="0.2"/>
<line x1="45" y1="33" x2="55" y2="33" stroke="#666666" stroke-width="0.2" opacity="0.2"/>
<line x1="45" y1="36" x2="55" y2="36" stroke="#666666" stroke-width="0.2" opacity="0.2"/>
<line x1="45" y1="39" x2="55" y2="39" stroke="#666666" stroke-width="0.2" opacity="0.2"/>
<line x1="45" y1="42" x2="55" y2="42" stroke="#666666" stroke-width="0.2" opacity="0.2"/>
<line x1="45" y1="45" x2="55" y2="45" stroke="#666666" stroke-width="0.2" opacity="0.2"/>
<line x1="45" y1="48" x2="55" y2="48" stroke="#666666" stroke-width="0.2" opacity="0.2"/>
<line x1="45" y1="51" x2="55" y2="51" stroke="#666666" stroke-width="0.2" opacity="0.2"/>
<line x1="55" y1="32" x2="115" y2="32" stroke="#CC0000" stroke-width="0.8" opacity="0.4"/>
<path d="M70,42 L75,42 L75,22 L95,22 L95,42 L100,42" fill="none" stroke="#CC0000" stroke-width="0.4" opacity="0.3"/>
<text x="55" y="62" font-family="Arial, Helvetica, sans-serif" font-size="7" fill="#000000" text-anchor="middle" font-weight="bold">Top-hat DOE</text>
</svg>
