<?xml version="1.0" encoding="UTF-8"?>
<svg xmlns="http://www.w3.org/2000/svg" viewBox="0 0 200 100" width="200" height="100">
<defs>
  <marker id="arrowhead" markerWidth="6" markerHeight="4" refX="5" refY="2" orient="auto">
    <polygon points="0 0, 6 2, 0 4" fill="#1a1a1a" />
  </marker>
  <marker id="arrowhead-beam" markerWidth="6" markerHeight="4" refX="5" refY="2" orient="auto">
    <polygon points="0 0, 6 2, 0 4" fill="#c0392b" />
  </marker>
  <marker id="arrowhead-gray" markerWidth="5" markerHeight="3.5" refX="4" refY="1.75" orient="auto">
    <polygon points="0 0, 5 1.75, 0 3.5" fill="#888888" />
  </marker>
</defs>
<line x1="5" y1="20" x2="60" y2="20" stroke="#333333" stroke-width="0.7" stroke-linecap="round" />
<line x1="10" y1="20" x2="28" y2="20" stroke="#888888" stroke-width="0.5" marker-end="url(#arrowhead-gray)" />
<line x1="5" y1="50" x2="60" y2="50" stroke="#333333" stroke-width="0.7" stroke-linecap="round" />
<line x1="10" y1="50" x2="28" y2="50" stroke="#888888" stroke-width="0.5" marker-end="url(#arrowhead-gray)" />
<line x1="5" y1="80" x2="60" y2="80" stroke="#333333" stroke-width="0.7" stroke-linecap="round" />
<line x1="10" y1="80" x2="28" y2="80" stroke="#888888" stroke-width="0.5" marker-end="url(#arrowhead-gray)" />
<rect x="60" y="12" width="50" height="76" rx="3" fill="#f0f0f0" stroke="#1a1a1a" stroke-width="0.5" />
<text x="85" y="55" font-family="Arial, Helvetica, sans-serif" font-size="6" fill="#1a1a1a" text-anchor="middle" font-weight="normal" font-style="normal">N×1</text>
<line x1="110" y1="50" x2="195" y2="50" stroke="#333333" stroke-width="0.7" stroke-linecap="round" />
<line x1="150" y1="50" x2="170" y2="50" stroke="#888888" stroke-width="0.5" marker-end="url(#arrowhead-gray)" />
<text x="8" y="14" font-family="Arial, Helvetica, sans-serif" font-size="7" fill="#888888" text-anchor="start" font-weight="normal" font-style="italic">P1</text>
<text x="8" y="44" font-family="Arial, Helvetica, sans-serif" font-size="7" fill="#888888" text-anchor="start" font-weight="normal" font-style="italic">P2</text>
<text x="8" y="74" font-family="Arial, Helvetica, sans-serif" font-size="7" fill="#888888" text-anchor="start" font-weight="normal" font-style="italic">Sig</text>
<text x="193" y="44" font-family="Arial, Helvetica, sans-serif" font-size="7" fill="#888888" text-anchor="end" font-weight="normal" font-style="italic">out</text>
<text x="100" y="98" font-family="Arial, Helvetica, sans-serif" font-size="8" fill="#1a1a1a" text-anchor="middle" font-weight="bold" font-style="normal">Pump combiner</text>
</svg>
