<?xml version="1.0" encoding="UTF-8"?>
<svg xmlns="http://www.w3.org/2000/svg" viewBox="0 0 180 55" width="180" height="55">
<defs>
  <marker id="arrowhead" markerWidth="6" markerHeight="4" refX="5" refY="2" orient="auto">
    <polygon points="0 0, 6 2, 0 4" fill="#1a1a1a" />
  </marker>
  <marker id="arrowhead-beam" markerWidth="6" markerHeight="4" refX="5" refY="2" orient="auto">
    <polygon points="0 0, 6 2, 0 4" fill="#c0392b" />
  </marker>
  <marker id="arrowhead-gray" markerWidth="5" markerHeight="3.5" refX="4" refY="1.75" orient="auto">
    <polygon points="0 0, 5 1.75, 0 3.5" fill="#888888" />
  </marker>
</defs>
<rect x="15" y="10" width="55" height="35" rx="2" fill="#f0f0f0" stroke="#1a1a1a" stroke-width="0.5"/>
<polygon points="30,18 30,37 50,27.5" fill="#1a1a1a" stroke="#1a1a1a" stroke-width="0.5" opacity="0.4"/>
<line x1="50" y1="18" x2="50" y2="37" stroke="#1a1a1a" stroke-width="0.75"/>
<rect x="75" y="14" width="16" height="26" rx="1" fill="#f0f0f0" stroke="#1a1a1a" stroke-width="0.5"/>
<line x1="77" y1="17" x2="89" y2="17" stroke="#888888" stroke-width="0.3" opacity="0.4"/>
<line x1="77" y1="20" x2="89" y2="20" stroke="#888888" stroke-width="0.3" opacity="0.4"/>
<line x1="77" y1="23" x2="89" y2="23" stroke="#888888" stroke-width="0.3" opacity="0.4"/>
<line x1="77" y1="26" x2="89" y2="26" stroke="#888888" stroke-width="0.3" opacity="0.4"/>
<line x1="77" y1="29" x2="89" y2="29" stroke="#888888" stroke-width="0.3" opacity="0.4"/>
<line x1="77" y1="32" x2="89" y2="32" stroke="#888888" stroke-width="0.3" opacity="0.4"/>
<line x1="77" y1="35" x2="89" y2="35" stroke="#888888" stroke-width="0.3" opacity="0.4"/>
<text x="83" y="44" font-family="Arial, Helvetica, sans-serif" font-size="6" fill="#1a1a1a" text-anchor="middle" font-weight="normal" font-style="normal">VBG</text>
<line x1="91" y1="27.5" x2="175" y2="27.5" stroke="#333333" stroke-width="0.7" stroke-linecap="round" />
<line x1="30" y1="10" x2="30" y2="3" stroke="#1a1a1a" stroke-width="0.75"/>
<text x="100" y="52" font-family="Arial, Helvetica, sans-serif" font-size="8" fill="#1a1a1a" text-anchor="middle" font-weight="bold" font-style="normal">VBG-stabilized pump</text>
</svg>
