<svg xmlns="http://www.w3.org/2000/svg" viewBox="0 0 170 65" width="170" height="65" font-family="Arial, Helvetica, sans-serif">
<defs>
<marker id="arrowhead" markerWidth="6" markerHeight="4" refX="5" refY="2" orient="auto"><polygon points="0,0 6,2 0,4" fill="#000000"/></marker>
<marker id="arrowhead-beam" markerWidth="6" markerHeight="4" refX="5" refY="2" orient="auto"><polygon points="0,0 6,2 0,4" fill="#CC0000"/></marker>
<linearGradient id="housing-grad" x1="0" y1="0" x2="0" y2="1"><stop offset="0%" stop-color="#B0B0B8"/><stop offset="100%" stop-color="#707078"/></linearGradient>
<linearGradient id="lens-grad" x1="0" y1="0" x2="1" y2="0"><stop offset="0%" stop-color="#D0E0F8"/><stop offset="50%" stop-color="#E8F0FF"/><stop offset="100%" stop-color="#B8C8E0"/></linearGradient>
</defs>
<rect x="45" y="10" width="65" height="35" rx="3" fill="url(#housing-grad)" stroke="#000000" stroke-width="0.75"/>
<ellipse cx="60" cy="27" rx="3" ry="12" fill="url(#lens-grad)" stroke="#000000" stroke-width="0.3"/>
<ellipse cx="95" cy="27" rx="3" ry="14" fill="url(#lens-grad)" stroke="#000000" stroke-width="0.3"/>
<path d="M5,40 C15,38 25,20 35,18 C38,32 40,38 45,38" fill="none" stroke="#CC0000" stroke-width="0.4" opacity="0.3"/>
<line x1="5" y1="27" x2="45" y2="27" stroke="#CC0000" stroke-width="0.8" opacity="0.4"/>
<line x1="10" y1="27" x2="28" y2="27" stroke="#CC0000" stroke-width="0.8" marker-end="url(#arrowhead-beam)"/>
<path d="M115,38 L120,38 L120,18 L145,18 L145,38 L155,38" fill="none" stroke="#CC0000" stroke-width="0.4" opacity="0.3"/>
<line x1="110" y1="27" x2="165" y2="27" stroke="#CC0000" stroke-width="0.8" opacity="0.4"/>
<text x="8" y="48" font-family="Arial, Helvetica, sans-serif" font-size="4.5" fill="#666666" text-anchor="middle" font-weight="normal">Gaussian</text>
<text x="140" y="48" font-family="Arial, Helvetica, sans-serif" font-size="4.5" fill="#666666" text-anchor="middle" font-weight="normal">flat-top</text>
<text x="77" y="58" font-family="Arial, Helvetica, sans-serif" font-size="7" fill="#000000" text-anchor="middle" font-weight="bold">Beam shaper</text>
</svg>
