<svg xmlns="http://www.w3.org/2000/svg" viewBox="0 0 160 70" width="160" height="70" font-family="Arial, Helvetica, sans-serif">
<defs>
<marker id="arrowhead" markerWidth="6" markerHeight="4" refX="5" refY="2" orient="auto"><polygon points="0,0 6,2 0,4" fill="#000000"/></marker>
<marker id="arrowhead-beam" markerWidth="6" markerHeight="4" refX="5" refY="2" orient="auto"><polygon points="0,0 6,2 0,4" fill="#CC0000"/></marker>
</defs>
<line x1="5" y1="35" x2="25" y2="35" stroke="#CC0000" stroke-width="0.8" opacity="0.5"/>
<line x1="8" y1="35" x2="18" y2="35" stroke="#CC0000" stroke-width="0.8" marker-end="url(#arrowhead-beam)"/>
<path d="M31.5,21.0 L31.5,49.0 C42,42.0 42,28.0 31.5,21.0 Z" fill="#C8D8F0" stroke="#000000" stroke-width="0.75"/>
<rect x="65" y="24" width="14" height="14" fill="#101828" stroke="#000000" stroke-width="0.3" opacity="0.6"/>
<text x="72" y="22" font-family="Arial, Helvetica, sans-serif" font-size="4.5" fill="#666666" text-anchor="middle" font-weight="normal">I₁</text>
<rect x="100" y="28" width="14" height="14" fill="#101828" stroke="#000000" stroke-width="0.3" opacity="0.6"/>
<text x="107" y="26" font-family="Arial, Helvetica, sans-serif" font-size="4.5" fill="#666666" text-anchor="middle" font-weight="normal">I₂</text>
<line x1="42" y1="22" x2="82" y2="35" stroke="#CC0000" stroke-width="0.3" opacity="0.2"/>
<line x1="42" y1="48" x2="82" y2="35" stroke="#CC0000" stroke-width="0.3" opacity="0.2"/>
<circle cx="82" cy="35" r="1.5" fill="#CC0000" opacity="0.3"/>
<line x1="82" y1="35" x2="114" y2="28" stroke="#CC0000" stroke-width="0.3" opacity="0.2"/>
<line x1="82" y1="35" x2="114" y2="42" stroke="#CC0000" stroke-width="0.3" opacity="0.2"/>
<text x="125" y="38" font-family="Arial, Helvetica, sans-serif" font-size="5.5" fill="#666666" text-anchor="middle" font-weight="normal">I₂ - I₁</text>
<text x="80" y="64" font-family="Arial, Helvetica, sans-serif" font-size="7" fill="#000000" text-anchor="middle" font-weight="bold">Curvature WFS</text>
</svg>
