<svg xmlns="http://www.w3.org/2000/svg" viewBox="0 0 170 75" width="170" height="75" font-family="Arial, Helvetica, sans-serif">
<defs>
<marker id="arrowhead" markerWidth="6" markerHeight="4" refX="5" refY="2" orient="auto"><polygon points="0,0 6,2 0,4" fill="#000000"/></marker>
<marker id="arrowhead-beam" markerWidth="6" markerHeight="4" refX="5" refY="2" orient="auto"><polygon points="0,0 6,2 0,4" fill="#CC0000"/></marker>
</defs>
<line x1="5" y1="37" x2="40" y2="37" stroke="#CC0000" stroke-width="0.8" opacity="0.4"/>
<line x1="10" y1="37" x2="28" y2="37" stroke="#CC0000" stroke-width="0.8" marker-end="url(#arrowhead-beam)"/>
<rect x="43" y="10" width="10" height="55" fill="#C8D8F0" stroke="#000000" stroke-width="0.75"/>
<path d="M53,14 C56,16 56,20 53,22" fill="none" stroke="#000000" stroke-width="0.3"/>
<path d="M53,22 C56,24 56,28 53,30" fill="none" stroke="#000000" stroke-width="0.3"/>
<path d="M53,30 C56,32 56,36 53,38" fill="none" stroke="#000000" stroke-width="0.3"/>
<path d="M53,38 C56,40 56,44 53,46" fill="none" stroke="#000000" stroke-width="0.3"/>
<path d="M53,46 C56,48 56,52 53,54" fill="none" stroke="#000000" stroke-width="0.3"/>
<path d="M53,54 C56,56 56,60 53,62" fill="none" stroke="#000000" stroke-width="0.3"/>
<line x1="53" y1="20" x2="92.2" y2="21" stroke="#CC0000" stroke-width="0.3" opacity="0.2"/>
<circle cx="92.2" cy="21" r="1.5" fill="#CC0000" opacity="0.3"/>
<line x1="53" y1="32" x2="94.0" y2="33" stroke="#CC0000" stroke-width="0.3" opacity="0.2"/>
<circle cx="94.0" cy="33" r="1.5" fill="#CC0000" opacity="0.3"/>
<line x1="53" y1="44" x2="95.8" y2="45" stroke="#CC0000" stroke-width="0.3" opacity="0.2"/>
<circle cx="95.8" cy="45" r="1.5" fill="#CC0000" opacity="0.3"/>
<line x1="53" y1="56" x2="97.5" y2="57" stroke="#CC0000" stroke-width="0.3" opacity="0.2"/>
<circle cx="97.5" cy="57" r="1.5" fill="#CC0000" opacity="0.3"/>
<rect x="85" y="12" width="40" height="50" rx="2" fill="#808088" stroke="#000000" stroke-width="0.75"/>
<rect x="88" y="18" width="20" height="32" rx="1" fill="#101828" stroke="#000000" stroke-width="0.3"/>
<line x1="125" y1="37" x2="165" y2="37" stroke="#000000" stroke-width="0.4"/>
<text x="85" y="70" font-family="Arial, Helvetica, sans-serif" font-size="7" fill="#000000" text-anchor="middle" font-weight="bold">Shack-Hartmann WFS</text>
</svg>
