<svg xmlns="http://www.w3.org/2000/svg" viewBox="0 0 170 62" width="170" height="62" font-family="Arial, Helvetica, sans-serif">
<defs>
<marker id="arrowhead" markerWidth="6" markerHeight="4" refX="5" refY="2" orient="auto"><polygon points="0,0 6,2 0,4" fill="#000000"/></marker>
<marker id="arrowhead-beam" markerWidth="6" markerHeight="4" refX="5" refY="2" orient="auto"><polygon points="0,0 6,2 0,4" fill="#CC0000"/></marker>
</defs>
<rect x="30" y="10" width="40" height="35" rx="2" fill="#808088" stroke="#000000" stroke-width="0.75"/>
<text x="50" y="32" font-family="Arial, Helvetica, sans-serif" font-size="4.5" fill="#000000" text-anchor="middle" font-weight="normal">X-AOD</text>
<line x1="50" y1="10" x2="50" y2="3" stroke="#000000" stroke-width="0.4"/>
<text x="54" y="6" font-family="Arial, Helvetica, sans-serif" font-size="4.5" fill="#666666" text-anchor="middle" font-weight="normal">RF_x</text>
<rect x="90" y="10" width="40" height="35" rx="2" fill="#808088" stroke="#000000" stroke-width="0.75"/>
<text x="110" y="32" font-family="Arial, Helvetica, sans-serif" font-size="4.5" fill="#000000" text-anchor="middle" font-weight="normal">Y-AOD</text>
<line x1="110" y1="10" x2="110" y2="3" stroke="#000000" stroke-width="0.4"/>
<text x="114" y="6" font-family="Arial, Helvetica, sans-serif" font-size="4.5" fill="#666666" text-anchor="middle" font-weight="normal">RF_y</text>
<line x1="5" y1="27" x2="30" y2="27" stroke="#CC0000" stroke-width="0.8" opacity="0.5"/>
<line x1="8" y1="27" x2="22" y2="27" stroke="#CC0000" stroke-width="0.8" marker-end="url(#arrowhead-beam)"/>
<line x1="70" y1="27" x2="90" y2="27" stroke="#CC0000" stroke-width="0.8" opacity="0.3"/>
<line x1="130" y1="27" x2="165" y2="27" stroke="#CC0000" stroke-width="0.8" opacity="0.5"/>
<line x1="140" y1="27" x2="158" y2="27" stroke="#CC0000" stroke-width="0.8" marker-end="url(#arrowhead-beam)"/>
<text x="85" y="56" font-family="Arial, Helvetica, sans-serif" font-size="7" fill="#000000" text-anchor="middle" font-weight="bold">2-axis AOD</text>
</svg>
