<svg xmlns="http://www.w3.org/2000/svg" viewBox="0 0 180 65" width="180" height="65" font-family="Arial, Helvetica, sans-serif">
<defs>
<marker id="arrowhead" markerWidth="6" markerHeight="4" refX="5" refY="2" orient="auto"><polygon points="0,0 6,2 0,4" fill="#000000"/></marker>
<marker id="arrowhead-beam" markerWidth="6" markerHeight="4" refX="5" refY="2" orient="auto"><polygon points="0,0 6,2 0,4" fill="#CC0000"/></marker>
<linearGradient id="housing-grad" x1="0" y1="0" x2="0" y2="1"><stop offset="0%" stop-color="#B0B0B8"/><stop offset="100%" stop-color="#707078"/></linearGradient>
</defs>
<line x1="5" y1="32" x2="30" y2="32" stroke="#CC0000" stroke-width="0.8" opacity="0.5"/>
<line x1="8" y1="32" x2="22" y2="32" stroke="#CC0000" stroke-width="0.8" marker-end="url(#arrowhead-beam)"/>
<rect x="32" y="22" width="4" height="20" fill="#B0B8C8" stroke="#000000" stroke-width="0.4"/>
<text x="34" y="18" font-family="Arial, Helvetica, sans-serif" font-size="4.5" fill="#666666" text-anchor="middle" font-weight="normal">FSM</text>
<line x1="36" y1="32" x2="100" y2="32" stroke="#CC0000" stroke-width="0.8" opacity="0.4"/>
<rect x="102" y="24" width="14" height="14" fill="#202040" stroke="#000000" stroke-width="0.3" opacity="0.5"/>
<line x1="109" y1="24" x2="109" y2="38" stroke="#000000" stroke-width="0.2"/>
<line x1="102" y1="31" x2="116" y2="31" stroke="#000000" stroke-width="0.2"/>
<text x="109" y="20" font-family="Arial, Helvetica, sans-serif" font-size="4.5" fill="#666666" text-anchor="middle" font-weight="normal">QD</text>
<path d="M109,38 L109,48 L34,48 L34,42" fill="none" stroke="#666666" stroke-width="0.4" stroke-dasharray="2,2" marker-end="url(#arrowhead)"/>
<text x="70" y="52" font-family="Arial, Helvetica, sans-serif" font-size="4.5" fill="#666666" text-anchor="middle" font-weight="normal">feedback</text>
<line x1="116" y1="32" x2="175" y2="32" stroke="#CC0000" stroke-width="0.8" opacity="0.5"/>
<line x1="130" y1="32" x2="160" y2="32" stroke="#CC0000" stroke-width="0.8" marker-end="url(#arrowhead-beam)"/>
<text x="90" y="62" font-family="Arial, Helvetica, sans-serif" font-size="7" fill="#000000" text-anchor="middle" font-weight="bold">Beam stabilizer</text>
</svg>
