<svg xmlns="http://www.w3.org/2000/svg" viewBox="0 0 110 80" width="110" height="80" font-family="Arial, Helvetica, sans-serif">
<defs>
<marker id="arrowhead" markerWidth="6" markerHeight="4" refX="5" refY="2" orient="auto"><polygon points="0,0 6,2 0,4" fill="#000000"/></marker>
<marker id="arrowhead-beam" markerWidth="6" markerHeight="4" refX="5" refY="2" orient="auto"><polygon points="0,0 6,2 0,4" fill="#CC0000"/></marker>
</defs>
<circle cx="55" cy="38" r="22" fill="none" stroke="#000000" stroke-width="0.75"/>
<path d="M55,38 L77,38 A22,22 0 0,1 71,54 Z" fill="#808088" stroke="#000000" stroke-width="0.3" opacity="0.5"/>
<path d="M55,38 L55,60 A22,22 0 0,1 39,54 Z" fill="#808088" stroke="#000000" stroke-width="0.3" opacity="0.5"/>
<path d="M55,38 L33,38 A22,22 0 0,1 39,22 Z" fill="#808088" stroke="#000000" stroke-width="0.3" opacity="0.5"/>
<path d="M55,38 L55,16 A22,22 0 0,1 71,22 Z" fill="#808088" stroke="#000000" stroke-width="0.3" opacity="0.5"/>
<circle cx="55" cy="38" r="4" fill="#808088" stroke="#000000" stroke-width="0.4"/>
<path d="M55,12 A26,26 0 0,1 78,20" fill="none" stroke="#666666" stroke-width="0.4" marker-end="url(#arrowhead)"/>
<line x1="5" y1="38" x2="33" y2="38" stroke="#CC0000" stroke-width="0.8" opacity="0.3"/>
<line x1="77" y1="38" x2="105" y2="38" stroke="#CC0000" stroke-width="0.8" opacity="0.3"/>
<text x="55" y="75" font-family="Arial, Helvetica, sans-serif" font-size="7" fill="#000000" text-anchor="middle" font-weight="bold">Optical chopper</text>
</svg>
