<svg xmlns="http://www.w3.org/2000/svg" viewBox="0 0 160 60" width="160" height="60" font-family="Arial, Helvetica, sans-serif">
<defs>
<marker id="arrowhead" markerWidth="6" markerHeight="4" refX="5" refY="2" orient="auto"><polygon points="0,0 6,2 0,4" fill="#000000"/></marker>
<marker id="arrowhead-beam" markerWidth="6" markerHeight="4" refX="5" refY="2" orient="auto"><polygon points="0,0 6,2 0,4" fill="#CC0000"/></marker>
<linearGradient id="wp-grad" x1="0" y1="0" x2="0" y2="1"><stop offset="0%" stop-color="#E0E8F8"/><stop offset="100%" stop-color="#B0B8D0"/></linearGradient>
<linearGradient id="bs-grad" x1="0" y1="0" x2="1" y2="1"><stop offset="0%" stop-color="#D8E0F0"/><stop offset="50%" stop-color="#F0F4FF" stop-opacity="0.8"/><stop offset="100%" stop-color="#B8C0D8"/></linearGradient>
</defs>
<line x1="5" y1="30" x2="30" y2="30" stroke="#CC0000" stroke-width="0.8" opacity="0.5"/>
<line x1="10" y1="30" x2="22" y2="30" stroke="#CC0000" stroke-width="0.8" marker-end="url(#arrowhead-beam)"/>
<rect x="33" y="12" width="8" height="36" rx="1" fill="url(#wp-grad)" stroke="#000000" stroke-width="0.75"/>
<text x="37" y="8" font-family="Arial, Helvetica, sans-serif" font-size="4.5" fill="#000000" text-anchor="middle" font-weight="normal">λ/2</text>
<path d="M30,8 A8,4 0 0,1 42,6" fill="none" stroke="#666666" stroke-width="0.3" marker-end="url(#arrowhead)"/>
<line x1="41" y1="30" x2="58" y2="30" stroke="#CC0000" stroke-width="0.8" opacity="0.4"/>
<rect x="60" y="15" width="28" height="28" fill="url(#bs-grad)" stroke="#000000" stroke-width="0.75"/>
<line x1="60" y1="43" x2="88" y2="15" stroke="#4060C0" stroke-width="0.4" opacity="0.3"/>
<line x1="88" y1="29" x2="155" y2="29" stroke="#CC0000" stroke-width="0.8" opacity="0.5"/>
<line x1="100" y1="29" x2="140" y2="29" stroke="#CC0000" stroke-width="0.8" marker-end="url(#arrowhead-beam)"/>
<line x1="74" y1="43" x2="74" y2="55" stroke="#CC0000" stroke-width="0.8" opacity="0.3"/>
<rect x="68" y="52" width="12" height="5" fill="#404048" stroke="#000000" stroke-width="0.3" opacity="0.5"/>
<text x="74" y="55" font-family="Arial, Helvetica, sans-serif" font-size="4.5" fill="#666666" text-anchor="middle" font-weight="normal">dump</text>
<text x="80" y="10" font-family="Arial, Helvetica, sans-serif" font-size="7" fill="#000000" text-anchor="middle" font-weight="bold">Variable attenuator</text>
</svg>
