<svg xmlns="http://www.w3.org/2000/svg" viewBox="0 0 100 75" width="100" height="75" font-family="Arial, Helvetica, sans-serif">
<defs>
<marker id="arrowhead" markerWidth="6" markerHeight="4" refX="5" refY="2" orient="auto"><polygon points="0,0 6,2 0,4" fill="#000000"/></marker>
<marker id="arrowhead-beam" markerWidth="6" markerHeight="4" refX="5" refY="2" orient="auto"><polygon points="0,0 6,2 0,4" fill="#CC0000"/></marker>
<linearGradient id="mount-grad" x1="0" y1="0" x2="0" y2="1"><stop offset="0%" stop-color="#A0A0A8"/><stop offset="100%" stop-color="#606068"/></linearGradient>
</defs>
<rect x="18" y="10" width="55" height="48" rx="2" fill="url(#mount-grad)" stroke="#000000" stroke-width="0.75"/>
<circle cx="22" cy="14" r="2.5" fill="none" stroke="#000000" stroke-width="0.3"/>
<circle cx="22" cy="54" r="2.5" fill="none" stroke="#000000" stroke-width="0.3"/>
<circle cx="69" cy="14" r="2.5" fill="none" stroke="#000000" stroke-width="0.3"/>
<circle cx="69" cy="54" r="2.5" fill="none" stroke="#000000" stroke-width="0.3"/>
<circle cx="45" cy="34" r="14" fill="none" stroke="#000000" stroke-width="0.5"/>
<circle cx="45" cy="34" r="11" fill="#C8D8F0" stroke="#000000" stroke-width="0.3" opacity="0.3"/>
<path d="M32,20 A15,15 0 0,1 45,18" fill="none" stroke="#666666" stroke-width="0.3" marker-end="url(#arrowhead)"/>
<line x1="5" y1="34" x2="18" y2="34" stroke="#CC0000" stroke-width="0.8" opacity="0.3"/>
<line x1="73" y1="34" x2="95" y2="34" stroke="#CC0000" stroke-width="0.8" opacity="0.3"/>
<text x="45" y="70" font-family="Arial, Helvetica, sans-serif" font-size="7" fill="#000000" text-anchor="middle" font-weight="bold">Cage rotation mount</text>
</svg>
