<svg xmlns="http://www.w3.org/2000/svg" viewBox="0 0 150 60" width="150" height="60" font-family="Arial, Helvetica, sans-serif">
<defs>
<marker id="arrowhead" markerWidth="6" markerHeight="4" refX="5" refY="2" orient="auto"><polygon points="0,0 6,2 0,4" fill="#1a1a1a"/></marker>
<marker id="arrowhead-beam" markerWidth="6" markerHeight="4" refX="5" refY="2" orient="auto"><polygon points="0,0 6,2 0,4" fill="#c0392b"/></marker>
</defs>
<rect x="20" y="8" width="100" height="38" rx="3" fill="#f0f0f0" stroke="#1a1a1a" stroke-width="0.5"/>
<line x1="5" y1="15" x2="20" y2="15" stroke="#1a1a1a" stroke-width="0.5"/>
<text x="12" y="13" font-family="Arial, Helvetica, sans-serif" font-size="4.5" fill="#888888" text-anchor="middle" font-weight="normal">Ch1</text>
<line x1="5" y1="25" x2="20" y2="25" stroke="#1a1a1a" stroke-width="0.5"/>
<text x="12" y="23" font-family="Arial, Helvetica, sans-serif" font-size="4.5" fill="#888888" text-anchor="middle" font-weight="normal">Ch2</text>
<line x1="5" y1="35" x2="20" y2="35" stroke="#1a1a1a" stroke-width="0.5"/>
<text x="12" y="33" font-family="Arial, Helvetica, sans-serif" font-size="4.5" fill="#888888" text-anchor="middle" font-weight="normal">Ch3</text>
<path d="M55,15 L55,35 L70,35 A10,10 0 0,0 70,15 Z" fill="none" stroke="#1a1a1a" stroke-width="0.5"/>
<text x="65" y="28" font-family="Arial, Helvetica, sans-serif" font-size="7" fill="#1a1a1a" text-anchor="middle" font-weight="normal">&amp;</text>
<line x1="80" y1="25" x2="115" y2="25" stroke="#1a1a1a" stroke-width="0.5"/>
<rect x="90" y="14" width="25" height="20" rx="2" fill="#101828" stroke="#1a1a1a" stroke-width="0.3"/>
<text x="102" y="27" font-family="Arial, Helvetica, sans-serif" font-size="5" fill="#00CC66" text-anchor="middle">1.2k/s</text>
<line x1="120" y1="27" x2="145" y2="27" stroke="#1a1a1a" stroke-width="0.4"/>
<text x="70" y="54" font-family="Arial, Helvetica, sans-serif" font-size="7" fill="#1a1a1a" text-anchor="middle" font-weight="bold">Coincidence module</text>
</svg>
