<svg xmlns="http://www.w3.org/2000/svg" viewBox="0 0 140 70" width="140" height="70" font-family="Arial, Helvetica, sans-serif">
<defs>
<marker id="arrowhead" markerWidth="6" markerHeight="4" refX="5" refY="2" orient="auto"><polygon points="0,0 6,2 0,4" fill="#000000"/></marker>
<marker id="arrowhead-beam" markerWidth="6" markerHeight="4" refX="5" refY="2" orient="auto"><polygon points="0,0 6,2 0,4" fill="#CC0000"/></marker>
<linearGradient id="housing-grad" x1="0" y1="0" x2="0" y2="1"><stop offset="0%" stop-color="#B0B0B8"/><stop offset="100%" stop-color="#707078"/></linearGradient>
<linearGradient id="crystal-grad" x1="0" y1="0" x2="1" y2="1"><stop offset="0%" stop-color="#E8D8F0"/><stop offset="100%" stop-color="#C0A8D0"/></linearGradient>
</defs>
<rect x="28" y="10" width="70" height="40" rx="3" fill="url(#housing-grad)" stroke="#000000" stroke-width="0.75"/>
<path d="M32,18 C35,16 38,20 41,18" fill="none" stroke="#CC4400" stroke-width="0.3" opacity="0.2"/>
<path d="M85,18 C88,16 91,20 94,18" fill="none" stroke="#CC4400" stroke-width="0.3" opacity="0.2"/>
<path d="M32,26 C35,24 38,28 41,26" fill="none" stroke="#CC4400" stroke-width="0.3" opacity="0.2"/>
<path d="M85,26 C88,24 91,28 94,26" fill="none" stroke="#CC4400" stroke-width="0.3" opacity="0.2"/>
<path d="M32,34 C35,32 38,36 41,34" fill="none" stroke="#CC4400" stroke-width="0.3" opacity="0.2"/>
<path d="M85,34 C88,32 91,36 94,34" fill="none" stroke="#CC4400" stroke-width="0.3" opacity="0.2"/>
<path d="M32,42 C35,40 38,44 41,42" fill="none" stroke="#CC4400" stroke-width="0.3" opacity="0.2"/>
<path d="M85,42 C88,40 91,44 94,42" fill="none" stroke="#CC4400" stroke-width="0.3" opacity="0.2"/>
<rect x="50" y="18" width="26" height="24" rx="1" fill="url(#crystal-grad)" stroke="#000000" stroke-width="0.4"/>
<text x="63" y="33" font-family="Arial, Helvetica, sans-serif" font-size="5.5" fill="#000000" text-anchor="middle" font-weight="normal">NLO</text>
<line x1="5" y1="30" x2="28" y2="30" stroke="#CC0000" stroke-width="0.8" opacity="0.4"/>
<line x1="8" y1="30" x2="20" y2="30" stroke="#CC0000" stroke-width="0.8" marker-end="url(#arrowhead-beam)"/>
<line x1="98" y1="30" x2="135" y2="30" stroke="#CC0000" stroke-width="0.8" opacity="0.4"/>
<rect x="100" y="14" width="18" height="10" rx="1" fill="url(#housing-grad)" stroke="#000000" stroke-width="0.3"/>
<text x="109" y="22" font-family="Arial, Helvetica, sans-serif" font-size="4.5" fill="#CC4400" text-anchor="middle" font-weight="normal">T ctrl</text>
<line x1="118" y1="19" x2="135" y2="19" stroke="#000000" stroke-width="0.3"/>
<text x="63" y="62" font-family="Arial, Helvetica, sans-serif" font-size="7" fill="#000000" text-anchor="middle" font-weight="bold">Crystal oven</text>
</svg>
