<?xml version="1.0" encoding="UTF-8"?>
<svg xmlns="http://www.w3.org/2000/svg" viewBox="0 0 140 55" width="140" height="55">
<defs>
  <marker id="arrowhead" markerWidth="6" markerHeight="4" refX="5" refY="2" orient="auto">
    <polygon points="0 0, 6 2, 0 4" fill="#000000" />
  </marker>
  <linearGradient id="fiber-grad" x1="0" y1="0" x2="0" y2="1">
      <stop offset="0%" stop-color="#ADACC6"/>
      <stop offset="22%" stop-color="#1B1E89"/>
      <stop offset="100%" stop-color="#0D0F42"/>
    </linearGradient>
  <linearGradient id="comp-grad" x1="0" y1="0" x2="0" y2="1">
      <stop offset="0%" stop-color="#F0F0F8"/>
      <stop offset="50%" stop-color="#B0B0C8"/>
      <stop offset="100%" stop-color="#707088"/>
    </linearGradient>
</defs>
<line x1="5" y1="27" x2="40" y2="27" stroke="url(#fiber-grad)" stroke-width="3.0" stroke-linecap="round" />
<rect x="40" y="10" width="55" height="34" rx="2" fill="url(#comp-grad)" stroke="#000000" stroke-width="0.75" />
<polygon points="78,16 78,38 58,27" fill="#333366" stroke="#000000" stroke-width="0.5" opacity="1"/>
<line x1="58" y1="16" x2="58" y2="38" stroke="#000000" stroke-width="0.75"/>
<line x1="44" y1="30.0" x2="52" y2="28.5" stroke="#1B1E89" stroke-width="0.5" opacity="0.5"/>
<line x1="44" y1="27.0" x2="52" y2="27.0" stroke="#1B1E89" stroke-width="0.5" opacity="0.5"/>
<line x1="44" y1="24.0" x2="52" y2="25.5" stroke="#1B1E89" stroke-width="0.5" opacity="0.5"/>
<line x1="67" y1="10" x2="67" y2="3" stroke="#000000" stroke-width="0.75"/>
<line x1="67" y1="44" x2="67" y2="52" stroke="#000000" stroke-width="0.75"/>
<circle cx="110" cy="27" r="6" fill="none" stroke="#000000" stroke-width="0.5"/>
<circle cx="110" cy="27" r="2" fill="#000000"/>
<text x="80" y="53" font-family="Helvetica, Arial, sans-serif" font-size="8" fill="#000000" text-anchor="middle" font-weight="bold" font-style="normal">Photodetector</text>
</svg>
