<?xml version="1.0" encoding="UTF-8"?>
<svg xmlns="http://www.w3.org/2000/svg" viewBox="0 0 180 55" width="180" height="55">
<defs>
  <marker id="arrowhead" markerWidth="6" markerHeight="4" refX="5" refY="2" orient="auto">
    <polygon points="0 0, 6 2, 0 4" fill="#000000" />
  </marker>
  <linearGradient id="fiber-grad" x1="0" y1="0" x2="0" y2="1">
      <stop offset="0%" stop-color="#ADACC6"/>
      <stop offset="22%" stop-color="#1B1E89"/>
      <stop offset="100%" stop-color="#0D0F42"/>
    </linearGradient>
  <linearGradient id="comp-grad" x1="0" y1="0" x2="0" y2="1">
      <stop offset="0%" stop-color="#F0F0F8"/>
      <stop offset="50%" stop-color="#B0B0C8"/>
      <stop offset="100%" stop-color="#707088"/>
    </linearGradient>
</defs>
<rect x="15" y="10" width="100" height="35" rx="3" fill="url(#comp-grad)" stroke="#000000" stroke-width="0.75" />
<polygon points="30,20 30,36 50,28" fill="none" stroke="#000000" stroke-width="0.5"/>
<line x1="50" y1="20" x2="50" y2="36" stroke="#000000" stroke-width="0.5"/>
<line x1="70" y1="18" x2="70" y2="38" stroke="#000000" stroke-width="0.3" opacity="0.3"/>
<line x1="73" y1="18" x2="73" y2="38" stroke="#000000" stroke-width="0.3" opacity="0.3"/>
<line x1="76" y1="18" x2="76" y2="38" stroke="#000000" stroke-width="0.3" opacity="0.3"/>
<line x1="79" y1="18" x2="79" y2="38" stroke="#000000" stroke-width="0.3" opacity="0.3"/>
<line x1="82" y1="18" x2="82" y2="38" stroke="#000000" stroke-width="0.3" opacity="0.3"/>
<line x1="85" y1="18" x2="85" y2="38" stroke="#000000" stroke-width="0.3" opacity="0.3"/>
<line x1="88" y1="18" x2="88" y2="38" stroke="#000000" stroke-width="0.3" opacity="0.3"/>
<line x1="91" y1="18" x2="91" y2="38" stroke="#000000" stroke-width="0.3" opacity="0.3"/>
<line x1="94" y1="18" x2="94" y2="38" stroke="#000000" stroke-width="0.3" opacity="0.3"/>
<line x1="97" y1="18" x2="97" y2="38" stroke="#000000" stroke-width="0.3" opacity="0.3"/>
<line x1="100" y1="18" x2="100" y2="38" stroke="#000000" stroke-width="0.3" opacity="0.3"/>
<line x1="103" y1="18" x2="103" y2="38" stroke="#000000" stroke-width="0.3" opacity="0.3"/>
<path d="M80,14 L95,14" fill="none" stroke="#000000" stroke-width="0.5" marker-end="url(#arrowhead)"/>
<text x="87" y="11" font-family="Helvetica, Arial, sans-serif" font-size="6" fill="#444444" text-anchor="middle" font-weight="normal" font-style="normal">tune</text>
<line x1="115" y1="28" x2="175" y2="28" stroke="url(#fiber-grad)" stroke-width="3.0" stroke-linecap="round" />
<line x1="35" y1="10" x2="35" y2="4" stroke="#000000" stroke-width="0.75"/>
<text x="65" y="52" font-family="Helvetica, Arial, sans-serif" font-size="8" fill="#000000" text-anchor="middle" font-weight="bold" font-style="normal">ECL / tunable</text>
</svg>
