<?xml version="1.0" encoding="UTF-8"?>
<svg xmlns="http://www.w3.org/2000/svg" viewBox="0 0 200 70" width="200" height="70">
<defs>
  <marker id="arrowhead" markerWidth="6" markerHeight="4" refX="5" refY="2" orient="auto">
    <polygon points="0 0, 6 2, 0 4" fill="#000000" />
  </marker>
  <linearGradient id="fiber-grad" x1="0" y1="0" x2="0" y2="1">
      <stop offset="0%" stop-color="#ADACC6"/>
      <stop offset="22%" stop-color="#1B1E89"/>
      <stop offset="100%" stop-color="#0D0F42"/>
    </linearGradient>
  <linearGradient id="comp-grad" x1="0" y1="0" x2="0" y2="1">
      <stop offset="0%" stop-color="#F0F0F8"/>
      <stop offset="50%" stop-color="#B0B0C8"/>
      <stop offset="100%" stop-color="#707088"/>
    </linearGradient>
</defs>
<rect x="15" y="12" width="100" height="40" rx="3" fill="url(#comp-grad)" stroke="#000000" stroke-width="0.75" />
<line x1="30" y1="20" x2="30" y2="44" stroke="#000000" stroke-width="0.75"/>
<path d="M30,32 C40,25 55,39 65,32 C75,25 90,39 100,32" fill="none" stroke="#CC0000" stroke-width="0.6"/>
<line x1="100" y1="20" x2="100" y2="44" stroke="#000000" stroke-width="0.5"/>
<line x1="102" y1="20" x2="102" y2="44" stroke="#000000" stroke-width="0.5"/>
<line x1="115" y1="32" x2="195" y2="32" stroke="url(#fiber-grad)" stroke-width="3.0" stroke-linecap="round" />
<polygon points="118,28 126,32 118,36" fill="#CC0000" opacity="0.5"/>
<text x="65" y="8" font-family="Helvetica, Arial, sans-serif" font-size="8" fill="#000000" text-anchor="middle" font-weight="bold" font-style="normal">LASER</text>
<text x="193" y="26" font-family="Helvetica, Arial, sans-serif" font-size="7" fill="#444444" text-anchor="end" font-weight="normal" font-style="normal">out</text>
<text x="100" y="65" font-family="Helvetica, Arial, sans-serif" font-size="8" fill="#000000" text-anchor="middle" font-weight="bold" font-style="normal">Fiber laser source</text>
</svg>
