<?xml version="1.0" encoding="UTF-8"?>
<svg xmlns="http://www.w3.org/2000/svg" viewBox="0 0 180 55" width="180" height="55">
<defs>
  <marker id="arrowhead" markerWidth="6" markerHeight="4" refX="5" refY="2" orient="auto">
    <polygon points="0 0, 6 2, 0 4" fill="#000000" />
  </marker>
  <linearGradient id="fiber-grad" x1="0" y1="0" x2="0" y2="1">
      <stop offset="0%" stop-color="#ADACC6"/>
      <stop offset="22%" stop-color="#1B1E89"/>
      <stop offset="100%" stop-color="#0D0F42"/>
    </linearGradient>
  <linearGradient id="comp-grad" x1="0" y1="0" x2="0" y2="1">
      <stop offset="0%" stop-color="#F0F0F8"/>
      <stop offset="50%" stop-color="#B0B0C8"/>
      <stop offset="100%" stop-color="#707088"/>
    </linearGradient>
</defs>
<rect x="15" y="10" width="100" height="35" rx="3" fill="url(#comp-grad)" stroke="#000000" stroke-width="0.75" />
<line x1="40" y1="16" x2="40" y2="40" stroke="#CC0000" stroke-width="0.6"/>
<line x1="38" y1="28" x2="42" y2="28" stroke="#CC0000" stroke-width="0.4"/>
<text x="52" y="28" font-family="Helvetica, Arial, sans-serif" font-size="6" fill="#444444" text-anchor="middle" font-weight="normal" font-style="normal">Δν &lt; kHz</text>
<line x1="70" y1="18" x2="70" y2="38" stroke="#000000" stroke-width="0.4" opacity="0.3"/>
<line x1="73" y1="18" x2="73" y2="38" stroke="#000000" stroke-width="0.4" opacity="0.3"/>
<line x1="76" y1="18" x2="76" y2="38" stroke="#000000" stroke-width="0.4" opacity="0.3"/>
<line x1="79" y1="18" x2="79" y2="38" stroke="#000000" stroke-width="0.4" opacity="0.3"/>
<line x1="90" y1="18" x2="90" y2="38" stroke="#000000" stroke-width="0.4" opacity="0.3"/>
<line x1="93" y1="18" x2="93" y2="38" stroke="#000000" stroke-width="0.4" opacity="0.3"/>
<line x1="96" y1="18" x2="96" y2="38" stroke="#000000" stroke-width="0.4" opacity="0.3"/>
<line x1="99" y1="18" x2="99" y2="38" stroke="#000000" stroke-width="0.4" opacity="0.3"/>
<line x1="115" y1="28" x2="175" y2="28" stroke="url(#fiber-grad)" stroke-width="3.0" stroke-linecap="round" />
<text x="65" y="52" font-family="Helvetica, Arial, sans-serif" font-size="8" fill="#000000" text-anchor="middle" font-weight="bold" font-style="normal">Single-freq laser</text>
</svg>
