<?xml version="1.0" encoding="UTF-8"?>
<svg xmlns="http://www.w3.org/2000/svg" viewBox="0 0 140 55" width="140" height="55">
<defs>
  <marker id="arrowhead" markerWidth="6" markerHeight="4" refX="5" refY="2" orient="auto">
    <polygon points="0 0, 6 2, 0 4" fill="#1a1a1a" />
  </marker>
  <marker id="arrowhead-beam" markerWidth="6" markerHeight="4" refX="5" refY="2" orient="auto">
    <polygon points="0 0, 6 2, 0 4" fill="#c0392b" />
  </marker>
  <marker id="arrowhead-gray" markerWidth="5" markerHeight="3.5" refX="4" refY="1.75" orient="auto">
    <polygon points="0 0, 5 1.75, 0 3.5" fill="#888888" />
  </marker>
</defs>
<line x1="5" y1="27" x2="40" y2="27" stroke="#333333" stroke-width="0.7" stroke-linecap="round" />
<rect x="40" y="10" width="55" height="34" rx="2" fill="#f0f0f0" stroke="#1a1a1a" stroke-width="0.5" />
<polygon points="78,16 78,38 58,27" fill="#1a1a1a" stroke="#1a1a1a" stroke-width="0.5" opacity="0.4"/>
<line x1="58" y1="16" x2="58" y2="38" stroke="#1a1a1a" stroke-width="0.75"/>
<line x1="44" y1="30.0" x2="52" y2="28.5" stroke="#888888" stroke-width="0.35" opacity="0.5"/>
<line x1="44" y1="27.0" x2="52" y2="27.0" stroke="#888888" stroke-width="0.35" opacity="0.5"/>
<line x1="44" y1="24.0" x2="52" y2="25.5" stroke="#888888" stroke-width="0.35" opacity="0.5"/>
<line x1="67" y1="10" x2="67" y2="3" stroke="#1a1a1a" stroke-width="0.75"/>
<line x1="67" y1="44" x2="67" y2="52" stroke="#1a1a1a" stroke-width="0.75"/>
<circle cx="110" cy="27" r="6" fill="none" stroke="#1a1a1a" stroke-width="0.5"/>
<circle cx="110" cy="27" r="2" fill="#1a1a1a"/>
<line x1="10" y1="27" x2="28" y2="27" stroke="#888888" stroke-width="0.5" marker-end="url(#arrowhead-gray)" />
<text x="80" y="53" font-family="Arial, Helvetica, sans-serif" font-size="8" fill="#1a1a1a" text-anchor="middle" font-weight="bold" font-style="normal">Photodetector</text>
</svg>
