<svg xmlns="http://www.w3.org/2000/svg" viewBox="0 0 180 70" width="180" height="70" font-family="Arial, Helvetica, sans-serif">
<defs>
<marker id="arrowhead" markerWidth="6" markerHeight="4" refX="5" refY="2" orient="auto"><polygon points="0,0 6,2 0,4" fill="#000000"/></marker>
<marker id="arrowhead-beam" markerWidth="6" markerHeight="4" refX="5" refY="2" orient="auto"><polygon points="0,0 6,2 0,4" fill="#CC0000"/></marker>
</defs>
<line x1="5" y1="32" x2="45" y2="32" stroke="#CC0000" stroke-width="0.8" opacity="0.25"/>
<line x1="5" y1="35" x2="45" y2="35" stroke="#CC0000" stroke-width="0.8" opacity="0.25"/>
<line x1="5" y1="38" x2="45" y2="38" stroke="#CC0000" stroke-width="0.8" opacity="0.25"/>
<line x1="10" y1="35" x2="28" y2="35" stroke="#CC0000" stroke-width="0.8" marker-end="url(#arrowhead-beam)"/>
<path d="M44.0,17.5 L44.0,52.5 L56.0,52.5 C50,43.75 50,26.25 56.0,17.5 Z" fill="#C8D8F0" stroke="#000000" stroke-width="0.75"/>
<line x1="58" y1="22" x2="105" y2="15" stroke="#CC0000" stroke-width="0.3" opacity="0.2"/>
<line x1="58" y1="35" x2="105" y2="35" stroke="#CC0000" stroke-width="0.3" opacity="0.2"/>
<line x1="58" y1="48" x2="105" y2="55" stroke="#CC0000" stroke-width="0.3" opacity="0.2"/>
<path d="M108.0,10.0 L108.0,60.0 C129,47.5 129,22.5 108.0,10.0 Z" fill="#C8D8F0" stroke="#000000" stroke-width="0.75"/>
<line x1="125" y1="18" x2="175" y2="18" stroke="#CC0000" stroke-width="0.8" opacity="0.2"/>
<line x1="125" y1="27" x2="175" y2="27" stroke="#CC0000" stroke-width="0.8" opacity="0.2"/>
<line x1="125" y1="35" x2="175" y2="35" stroke="#CC0000" stroke-width="0.8" opacity="0.2"/>
<line x1="125" y1="43" x2="175" y2="43" stroke="#CC0000" stroke-width="0.8" opacity="0.2"/>
<line x1="125" y1="52" x2="175" y2="52" stroke="#CC0000" stroke-width="0.8" opacity="0.2"/>
<text x="90" y="66" font-family="Arial, Helvetica, sans-serif" font-size="7" fill="#000000" text-anchor="middle" font-weight="bold">Galilean beam expander</text>
</svg>
