<svg xmlns="http://www.w3.org/2000/svg" viewBox="0 0 110 70" width="110" height="70" font-family="Arial, Helvetica, sans-serif">
<defs>
<marker id="arrowhead" markerWidth="6" markerHeight="4" refX="5" refY="2" orient="auto"><polygon points="0,0 6,2 0,4" fill="#000000"/></marker>
<marker id="arrowhead-beam" markerWidth="6" markerHeight="4" refX="5" refY="2" orient="auto"><polygon points="0,0 6,2 0,4" fill="#CC0000"/></marker>
</defs>
<rect x="30" y="35" width="30" height="22" rx="2" fill="#808088" stroke="#000000" stroke-width="0.75"/>
<line x1="45" y1="35" x2="45" y2="25" stroke="#000000" stroke-width="1.5"/>
<rect x="32" y="12" width="26" height="4" rx="1" fill="#B0B8C8" stroke="#000000" stroke-width="0.5"/>
<path d="M25,10 C30,5 35,15 40,10 C45,5 50,15 55,10 C60,5 65,15 68,10" fill="none" stroke="#666666" stroke-width="0.4" opacity="0.4"/>
<line x1="5" y1="14" x2="32" y2="14" stroke="#CC0000" stroke-width="0.8" opacity="0.4"/>
<line x1="8" y1="14" x2="22" y2="14" stroke="#CC0000" stroke-width="0.8" marker-end="url(#arrowhead-beam)"/>
<text x="80" y="10" font-family="Arial, Helvetica, sans-serif" font-size="4.5" fill="#666666" text-anchor="middle" font-weight="normal">sinusoidal</text>
<text x="45" y="65" font-family="Arial, Helvetica, sans-serif" font-size="7" fill="#000000" text-anchor="middle" font-weight="bold">Resonant scanner</text>
</svg>
