<svg xmlns="http://www.w3.org/2000/svg" viewBox="0 0 150 60" width="150" height="60" font-family="Arial, Helvetica, sans-serif">
<defs>
<marker id="arrowhead" markerWidth="6" markerHeight="4" refX="5" refY="2" orient="auto"><polygon points="0,0 6,2 0,4" fill="#1a1a1a"/></marker>
<marker id="arrowhead-beam" markerWidth="6" markerHeight="4" refX="5" refY="2" orient="auto"><polygon points="0,0 6,2 0,4" fill="#c0392b"/></marker>
</defs>
<rect x="20" y="8" width="100" height="38" rx="3" fill="#f0f0f0" stroke="#1a1a1a" stroke-width="0.5"/>
<rect x="30" y="14" width="5" height="14" rx="1" fill="#202040" stroke="#1a1a1a" stroke-width="0.2" opacity="0.4"/>
<rect x="38" y="14" width="5" height="14" rx="1" fill="#202040" stroke="#1a1a1a" stroke-width="0.2" opacity="0.4"/>
<rect x="46" y="14" width="5" height="14" rx="1" fill="#202040" stroke="#1a1a1a" stroke-width="0.2" opacity="0.4"/>
<rect x="54" y="14" width="5" height="14" rx="1" fill="#202040" stroke="#1a1a1a" stroke-width="0.2" opacity="0.4"/>
<rect x="62" y="14" width="5" height="14" rx="1" fill="#202040" stroke="#1a1a1a" stroke-width="0.2" opacity="0.4"/>
<rect x="70" y="14" width="5" height="14" rx="1" fill="#202040" stroke="#1a1a1a" stroke-width="0.2" opacity="0.4"/>
<rect x="78" y="14" width="5" height="14" rx="1" fill="#202040" stroke="#1a1a1a" stroke-width="0.2" opacity="0.4"/>
<rect x="86" y="14" width="5" height="14" rx="1" fill="#202040" stroke="#1a1a1a" stroke-width="0.2" opacity="0.4"/>
<rect x="94" y="14" width="5" height="14" rx="1" fill="#202040" stroke="#1a1a1a" stroke-width="0.2" opacity="0.4"/>
<rect x="102" y="14" width="5" height="14" rx="1" fill="#202040" stroke="#1a1a1a" stroke-width="0.2" opacity="0.4"/>
<text x="70" y="38" font-family="Arial, Helvetica, sans-serif" font-size="4.5" fill="#888888" text-anchor="middle" font-weight="normal">N channels</text>
<line x1="5" y1="27" x2="20" y2="27" stroke="#1a1a1a" stroke-width="0.5"/>
<text x="12" y="22" font-family="Arial, Helvetica, sans-serif" font-size="4.5" fill="#888888" text-anchor="middle" font-weight="normal">cmd</text>
<line x1="120" y1="27" x2="145" y2="27" stroke="#1a1a1a" stroke-width="0.5"/>
<text x="138" y="22" font-family="Arial, Helvetica, sans-serif" font-size="4.5" fill="#888888" text-anchor="middle" font-weight="normal">HV</text>
<text x="70" y="54" font-family="Arial, Helvetica, sans-serif" font-size="7" fill="#1a1a1a" text-anchor="middle" font-weight="bold">DM driver</text>
</svg>
