<svg xmlns="http://www.w3.org/2000/svg" viewBox="0 0 120 110" width="120" height="110" font-family="Arial, Helvetica, sans-serif">
<defs>
<marker id="arrowhead" markerWidth="6" markerHeight="4" refX="5" refY="2" orient="auto"><polygon points="0,0 6,2 0,4" fill="#1a1a1a"/></marker>
<marker id="arrowhead-beam" markerWidth="6" markerHeight="4" refX="5" refY="2" orient="auto"><polygon points="0,0 6,2 0,4" fill="#c0392b"/></marker>
</defs>
<rect x="25" y="80" width="50" height="20" rx="3" fill="#f0f0f0" stroke="#1a1a1a" stroke-width="0.5"/>
<text x="50" y="93" font-family="Arial, Helvetica, sans-serif" font-size="4.5" fill="#888888" text-anchor="middle" font-weight="normal">UV pulsed</text>
<path d="M50,57.0 C55,62.5 55,73.5 50,79.0 C45,73.5 45,62.5 50,57.0 Z" fill="#f4f6fa" stroke="#1a1a1a" stroke-width="0.5"/>
<line x1="50" y1="57" x2="50" y2="20" stroke="#c0392b" stroke-width="0.8" opacity="0.4"/>
<line x1="50" y1="48" x2="50" y2="25" stroke="#c0392b" stroke-width="0.6" marker-end="url(#arrowhead-beam)"/>
<line x1="46" y1="20" x2="46" y2="50" stroke="#c0392b" stroke-width="0.4" opacity="0.2" stroke-dasharray="2,2"/>
<line x1="60" y1="20" x2="60" y2="40" stroke="#888888" stroke-width="0.3"/>
<line x1="58" y1="20" x2="62" y2="20" stroke="#888888" stroke-width="0.3"/>
<line x1="58" y1="40" x2="62" y2="40" stroke="#888888" stroke-width="0.3"/>
<text x="68" y="32" font-family="Arial, Helvetica, sans-serif" font-size="4.5" fill="#888888" text-anchor="middle" font-weight="normal">gate</text>
<circle cx="50" cy="18" r="4" fill="#c0392b" opacity="0.15"/>
<text x="60" y="108" font-family="Arial, Helvetica, sans-serif" font-size="7" fill="#1a1a1a" text-anchor="middle" font-weight="bold">Rayleigh LGS</text>
</svg>
