<svg xmlns="http://www.w3.org/2000/svg" viewBox="0 0 100 110" width="100" height="110" font-family="Arial, Helvetica, sans-serif">
<defs>
<marker id="arrowhead" markerWidth="6" markerHeight="4" refX="5" refY="2" orient="auto"><polygon points="0,0 6,2 0,4" fill="#1a1a1a"/></marker>
<marker id="arrowhead-beam" markerWidth="6" markerHeight="4" refX="5" refY="2" orient="auto"><polygon points="0,0 6,2 0,4" fill="#c0392b"/></marker>
</defs>
<rect x="25" y="5" width="45" height="65" rx="3" fill="#f0f0f0" stroke="#1a1a1a" stroke-width="0.5"/>
<line x1="47" y1="0" x2="47" y2="15" stroke="#c0392b" stroke-width="0.6" opacity="0.4"/>
<ellipse cx="47" cy="22" rx="12" ry="3" fill="#f4f6fa" stroke="#1a1a1a" stroke-width="0.3"/>
<ellipse cx="47" cy="50" rx="14" ry="3" fill="#f4f6fa" stroke="#1a1a1a" stroke-width="0.3"/>
<line x1="35" y1="53" x2="47" y2="85" stroke="#c0392b" stroke-width="0.4" opacity="0.3"/>
<line x1="47" y1="53" x2="47" y2="85" stroke="#c0392b" stroke-width="0.4" opacity="0.3"/>
<line x1="59" y1="53" x2="47" y2="85" stroke="#c0392b" stroke-width="0.4" opacity="0.3"/>
<polygon points="38,70 56,70 52,82 42,82" fill="#f0f0f0" stroke="#1a1a1a" stroke-width="0.4"/>
<line x1="33" y1="64" x2="61" y2="64" stroke="#888888" stroke-width="0.3" opacity="0.4"/>
<line x1="47" y1="82" x2="47" y2="100" stroke="#888888" stroke-width="0.4" opacity="0.3" marker-end="url(#arrowhead)"/>
<rect x="15" y="98" width="65" height="8" fill="#f0f0f0" stroke="#1a1a1a" stroke-width="0.4"/>
<circle cx="47" cy="98" r="2" fill="#c0392b" opacity="0.5"/>
<text x="47" y="88" font-family="Arial, Helvetica, sans-serif" font-size="4.5" fill="#888888" text-anchor="middle" font-weight="normal">focus</text>
<text x="50" y="108" font-family="Arial, Helvetica, sans-serif" font-size="5.5" fill="#1a1a1a" text-anchor="middle" font-weight="bold">Cutting head</text>
</svg>
