<?xml version="1.0" encoding="UTF-8"?>
<svg xmlns="http://www.w3.org/2000/svg" viewBox="0 0 180 60" width="180" height="60">
<defs>
  <marker id="arrowhead" markerWidth="6" markerHeight="4" refX="5" refY="2" orient="auto">
    <polygon points="0 0, 6 2, 0 4" fill="#1a1a1a" />
  </marker>
  <marker id="arrowhead-beam" markerWidth="6" markerHeight="4" refX="5" refY="2" orient="auto">
    <polygon points="0 0, 6 2, 0 4" fill="#c0392b" />
  </marker>
  <marker id="arrowhead-gray" markerWidth="5" markerHeight="3.5" refX="4" refY="1.75" orient="auto">
    <polygon points="0 0, 5 1.75, 0 3.5" fill="#888888" />
  </marker>
</defs>
<rect x="15" y="8" width="110" height="42" rx="2" fill="#f0f0f0" stroke="#1a1a1a" stroke-width="0.5"/>
<rect x="22" y="14" width="25" height="16" rx="1" fill="none" stroke="#1a1a1a" stroke-width="0.3"/>
<text x="34" y="24" font-family="Arial, Helvetica, sans-serif" font-size="3.5" fill="#1a1a1a" text-anchor="middle" font-weight="normal" font-style="normal">Tx</text>
<rect x="55" y="14" width="25" height="16" rx="1" fill="none" stroke="#1a1a1a" stroke-width="0.3"/>
<text x="67" y="24" font-family="Arial, Helvetica, sans-serif" font-size="3.5" fill="#1a1a1a" text-anchor="middle" font-weight="normal" font-style="normal">DSP</text>
<rect x="88" y="14" width="25" height="16" rx="1" fill="none" stroke="#1a1a1a" stroke-width="0.3"/>
<text x="100" y="24" font-family="Arial, Helvetica, sans-serif" font-size="3.5" fill="#1a1a1a" text-anchor="middle" font-weight="normal" font-style="normal">Rx</text>
<rect x="22" y="34" width="91" height="10" rx="1" fill="none" stroke="#1a1a1a" stroke-width="0.3"/>
<text x="67" y="42" font-family="Arial, Helvetica, sans-serif" font-size="3.5" fill="#1a1a1a" text-anchor="middle" font-weight="normal" font-style="normal">Coherent optics</text>
<rect x="5" y="16" width="10" height="26" fill="#1a1a1a" opacity="0.2"/>
<line x1="125" y1="22" x2="175" y2="22" stroke="#333333" stroke-width="0.7" stroke-linecap="round" />
<line x1="125" y1="38" x2="175" y2="38" stroke="#333333" stroke-width="0.7" stroke-linecap="round" />
<line x1="135" y1="22" x2="150" y2="22" stroke="#888888" stroke-width="0.5" marker-end="url(#arrowhead-gray)" />
<text x="173" y="16" font-family="Arial, Helvetica, sans-serif" font-size="7" fill="#888888" text-anchor="end" font-weight="normal" font-style="italic">Tx</text>
<text x="173" y="44" font-family="Arial, Helvetica, sans-serif" font-size="7" fill="#888888" text-anchor="end" font-weight="normal" font-style="italic">Rx</text>
<text x="90" y="58" font-family="Arial, Helvetica, sans-serif" font-size="8" fill="#1a1a1a" text-anchor="middle" font-weight="bold" font-style="normal">Coherent transceiver</text>
</svg>
