<?xml version="1.0" encoding="UTF-8"?>
<svg xmlns="http://www.w3.org/2000/svg" viewBox="0 0 180 70" width="180" height="70">
<defs>
  <marker id="arrowhead" markerWidth="6" markerHeight="4" refX="5" refY="2" orient="auto">
    <polygon points="0 0, 6 2, 0 4" fill="#1a1a1a" />
  </marker>
  <marker id="arrowhead-beam" markerWidth="6" markerHeight="4" refX="5" refY="2" orient="auto">
    <polygon points="0 0, 6 2, 0 4" fill="#c0392b" />
  </marker>
  <marker id="arrowhead-gray" markerWidth="5" markerHeight="3.5" refX="4" refY="1.75" orient="auto">
    <polygon points="0 0, 5 1.75, 0 3.5" fill="#888888" />
  </marker>
</defs>
<line x1="5" y1="35" x2="40" y2="35" stroke="#333333" stroke-width="0.7" stroke-linecap="round" />
<line x1="10" y1="35" x2="28" y2="35" stroke="#888888" stroke-width="0.5" marker-end="url(#arrowhead-gray)" />
<rect x="40" y="10" width="90" height="50" rx="3" fill="#f0f0f0" stroke="#1a1a1a" stroke-width="0.5" />
<path d="M55,35 L65,20 L100,20 L110,35" fill="none" stroke="#1a1a1a" stroke-width="0.4"/>
<path d="M55,35 L65,50 L100,50 L110,35" fill="none" stroke="#1a1a1a" stroke-width="0.4"/>
<rect x="75" y="16" width="15" height="8" fill="none" stroke="#1a1a1a" stroke-width="0.3"/>
<text x="82" y="22" font-family="Arial, Helvetica, sans-serif" font-size="6" fill="#1a1a1a" text-anchor="middle" font-weight="normal" font-style="normal">τ</text>
<line x1="130" y1="25" x2="175" y2="25" stroke="#333333" stroke-width="0.7" stroke-linecap="round" />
<line x1="130" y1="45" x2="175" y2="45" stroke="#333333" stroke-width="0.7" stroke-linecap="round" />
<line x1="145" y1="25" x2="160" y2="25" stroke="#888888" stroke-width="0.5" marker-end="url(#arrowhead-gray)" />
<line x1="145" y1="45" x2="160" y2="45" stroke="#888888" stroke-width="0.5" marker-end="url(#arrowhead-gray)" />
<text x="173" y="19" font-family="Arial, Helvetica, sans-serif" font-size="7" fill="#888888" text-anchor="end" font-weight="normal" font-style="italic">+</text>
<text x="173" y="51" font-family="Arial, Helvetica, sans-serif" font-size="7" fill="#888888" text-anchor="end" font-weight="normal" font-style="italic">−</text>
<text x="85" y="68" font-family="Arial, Helvetica, sans-serif" font-size="8" fill="#1a1a1a" text-anchor="middle" font-weight="bold" font-style="normal">DPSK demod</text>
</svg>
