<svg xmlns="http://www.w3.org/2000/svg" viewBox="0 0 130 80" width="130" height="80" font-family="Arial, Helvetica, sans-serif">
<defs>
<marker id="arrowhead" markerWidth="6" markerHeight="4" refX="5" refY="2" orient="auto"><polygon points="0,0 6,2 0,4" fill="#1a1a1a"/></marker>
<marker id="arrowhead-beam" markerWidth="6" markerHeight="4" refX="5" refY="2" orient="auto"><polygon points="0,0 6,2 0,4" fill="#c0392b"/></marker>
</defs>
<polygon points="35,15 35,55 65,55 65,15" fill="#f4f6fa" stroke="#1a1a1a" stroke-width="0.5"/>
<polygon points="65,15 65,55 95,55 95,15" fill="#f4f6fa" stroke="#1a1a1a" stroke-width="0.5"/>
<line x1="65" y1="15" x2="65" y2="55" stroke="#1a1a1a" stroke-width="0.35"/>
<line x1="40" y1="35" x2="60" y2="35" stroke="#888888" stroke-width="0.35" stroke-dasharray="2,2"/>
<line x1="70" y1="25" x2="70" y2="45" stroke="#888888" stroke-width="0.35" stroke-dasharray="2,2"/>
<line x1="5" y1="35" x2="35" y2="35" stroke="#c0392b" stroke-width="0.6" opacity="0.5"/>
<line x1="8" y1="35" x2="22" y2="35" stroke="#c0392b" stroke-width="0.6" marker-end="url(#arrowhead-beam)"/>
<line x1="95" y1="30" x2="125" y2="22" stroke="#c0392b" stroke-width="0.5" opacity="0.5"/>
<line x1="95" y1="40" x2="125" y2="48" stroke="#c0392b" stroke-width="0.5" opacity="0.5"/>
<text x="122" y="19" font-family="Arial, Helvetica, sans-serif" font-size="5.5" fill="#c0392b" text-anchor="middle" font-weight="normal">e</text>
<text x="122" y="52" font-family="Arial, Helvetica, sans-serif" font-size="5.5" fill="#c0392b" text-anchor="middle" font-weight="normal">o</text>
<text x="65" y="72" font-family="Arial, Helvetica, sans-serif" font-size="7" fill="#1a1a1a" text-anchor="middle" font-weight="bold">Wollaston prism</text>
</svg>
