<?xml version="1.0" encoding="UTF-8"?>
<svg xmlns="http://www.w3.org/2000/svg" viewBox="0 0 180 55" width="180" height="55">
<defs>
  <marker id="arrowhead" markerWidth="6" markerHeight="4" refX="5" refY="2" orient="auto">
    <polygon points="0 0, 6 2, 0 4" fill="#1a1a1a" />
  </marker>
  <marker id="arrowhead-beam" markerWidth="6" markerHeight="4" refX="5" refY="2" orient="auto">
    <polygon points="0 0, 6 2, 0 4" fill="#c0392b" />
  </marker>
  <marker id="arrowhead-gray" markerWidth="5" markerHeight="3.5" refX="4" refY="1.75" orient="auto">
    <polygon points="0 0, 5 1.75, 0 3.5" fill="#888888" />
  </marker>
</defs>
<line x1="5" y1="27" x2="40" y2="27" stroke="#c0392b" stroke-width="0.6" opacity="0.5"/>
<path d="M42,12 C48,20 48,34 42,42" fill="none" stroke="#1a1a1a" stroke-width="0.75"/>
<line x1="48" y1="18" x2="65" y2="27" stroke="#c0392b" stroke-width="0.4" opacity="0.3"/>
<line x1="48" y1="36" x2="65" y2="27" stroke="#c0392b" stroke-width="0.4" opacity="0.3"/>
<rect x="60" y="14" width="50" height="26" rx="2" fill="#f0f0f0" stroke="#1a1a1a" stroke-width="0.5" />
<text x="85" y="30" font-family="Arial, Helvetica, sans-serif" font-size="6" fill="#1a1a1a" text-anchor="middle" font-weight="normal" font-style="normal">stage</text>
<line x1="115" y1="27" x2="125" y2="27" stroke="#888888" stroke-width="0.4" marker-end="url(#arrowhead)"/>
<line x1="115" y1="27" x2="115" y2="17" stroke="#888888" stroke-width="0.4" marker-end="url(#arrowhead)"/>
<text x="128" y="28" font-family="Arial, Helvetica, sans-serif" font-size="6" fill="#888888" text-anchor="middle" font-weight="normal" font-style="normal">x</text>
<text x="116" y="14" font-family="Arial, Helvetica, sans-serif" font-size="6" fill="#888888" text-anchor="middle" font-weight="normal" font-style="normal">y</text>
<line x1="110" y1="27" x2="175" y2="27" stroke="#333333" stroke-width="0.7" stroke-linecap="round" />
<line x1="140" y1="27" x2="158" y2="27" stroke="#888888" stroke-width="0.5" marker-end="url(#arrowhead-gray)" />
<text x="90" y="52" font-family="Arial, Helvetica, sans-serif" font-size="8" fill="#1a1a1a" text-anchor="middle" font-weight="bold" font-style="normal">Fiber launch</text>
</svg>
