<?xml version="1.0" encoding="UTF-8"?>
<svg xmlns="http://www.w3.org/2000/svg" viewBox="0 0 110 80" width="110" height="80">
<defs>
  <marker id="arrowhead" markerWidth="6" markerHeight="4" refX="5" refY="2" orient="auto">
    <polygon points="0 0, 6 2, 0 4" fill="#1a1a1a" />
  </marker>
  <marker id="arrowhead-beam" markerWidth="6" markerHeight="4" refX="5" refY="2" orient="auto">
    <polygon points="0 0, 6 2, 0 4" fill="#c0392b" />
  </marker>
  <marker id="arrowhead-gray" markerWidth="5" markerHeight="3.5" refX="4" refY="1.75" orient="auto">
    <polygon points="0 0, 5 1.75, 0 3.5" fill="#888888" />
  </marker>
</defs>
<rect x="35" y="40" width="30" height="30" rx="2" fill="#f0f0f0" stroke="#1a1a1a" stroke-width="0.5" />
<line x1="50" y1="40" x2="50" y2="30" stroke="#1a1a1a" stroke-width="1.5"/>
<line x1="35" y1="22" x2="65" y2="12" stroke="#1a1a1a" stroke-width="1.5"/>
<path d="M30,10 A25,25 0 0,1 70,10" fill="none" stroke="#1a1a1a" stroke-width="0.35" stroke-dasharray="2,2"/>
<path d="M68,14 L72,10 L66,8" fill="none" stroke="#1a1a1a" stroke-width="0.35"/>
<line x1="5" y1="22" x2="37" y2="22" stroke="#333333" stroke-width="0.7" stroke-linecap="round" />
<line x1="8" y1="22" x2="20" y2="22" stroke="#888888" stroke-width="0.5" marker-end="url(#arrowhead-gray)" />
<line x1="42" y1="70" x2="42" y2="78" stroke="#1a1a1a" stroke-width="0.75"/>
<line x1="58" y1="70" x2="58" y2="78" stroke="#1a1a1a" stroke-width="0.75"/>
<text x="50" y="38" font-family="Arial, Helvetica, sans-serif" font-size="6" fill="#1a1a1a" text-anchor="middle" font-weight="normal" font-style="normal">Galvo</text>
</svg>
