<?xml version="1.0" encoding="UTF-8"?>
<svg xmlns="http://www.w3.org/2000/svg" viewBox="0 0 140 55" width="140" height="55">
<defs>
  <marker id="arrowhead" markerWidth="6" markerHeight="4" refX="5" refY="2" orient="auto">
    <polygon points="0 0, 6 2, 0 4" fill="#1a1a1a" />
  </marker>
  <marker id="arrowhead-beam" markerWidth="6" markerHeight="4" refX="5" refY="2" orient="auto">
    <polygon points="0 0, 6 2, 0 4" fill="#c0392b" />
  </marker>
  <marker id="arrowhead-gray" markerWidth="5" markerHeight="3.5" refX="4" refY="1.75" orient="auto">
    <polygon points="0 0, 5 1.75, 0 3.5" fill="#888888" />
  </marker>
</defs>
<line x1="5" y1="27" x2="25" y2="27" stroke="#333333" stroke-width="0.7" stroke-linecap="round" />
<line x1="8" y1="27" x2="18" y2="27" stroke="#888888" stroke-width="0.5" marker-end="url(#arrowhead-gray)" />
<rect x="25" y="8" width="75" height="38" rx="3" fill="#f0f0f0" stroke="#1a1a1a" stroke-width="0.5" />
<line x1="38" y1="14" x2="38" y2="32" stroke="#1a1a1a" stroke-width="0.5" opacity="0.5"/>
<line x1="50" y1="22" x2="50" y2="40" stroke="#1a1a1a" stroke-width="0.5" opacity="0.5"/>
<line x1="62" y1="14" x2="62" y2="32" stroke="#1a1a1a" stroke-width="0.5" opacity="0.5"/>
<line x1="74" y1="22" x2="74" y2="40" stroke="#1a1a1a" stroke-width="0.5" opacity="0.5"/>
<line x1="86" y1="14" x2="86" y2="32" stroke="#1a1a1a" stroke-width="0.5" opacity="0.5"/>
<path d="M35,27 L44,20 L50,30 L56,16 L62,34 L68,18 L74,36 L80,22 L88,27" fill="none" stroke="#c0392b" stroke-width="0.4" opacity="0.4"/>
<line x1="62" y1="8" x2="62" y2="2" stroke="#1a1a1a" stroke-width="0.75"/>
<text x="69" y="5" font-family="Arial, Helvetica, sans-serif" font-size="6" fill="#1a1a1a" text-anchor="middle" font-weight="normal" font-style="normal">HV</text>
<line x1="100" y1="27" x2="135" y2="27" stroke="#1a1a1a" stroke-width="0.35"/>
<text x="133" y="21" font-family="Arial, Helvetica, sans-serif" font-size="7" fill="#888888" text-anchor="end" font-weight="normal" font-style="italic">out</text>
<text x="62" y="52" font-family="Arial, Helvetica, sans-serif" font-size="8" fill="#1a1a1a" text-anchor="middle" font-weight="bold" font-style="normal">PMT</text>
</svg>
