<?xml version="1.0" encoding="UTF-8"?>
<svg xmlns="http://www.w3.org/2000/svg" viewBox="0 0 140 60" width="140" height="60">
<defs>
  <marker id="arrowhead" markerWidth="6" markerHeight="4" refX="5" refY="2" orient="auto">
    <polygon points="0 0, 6 2, 0 4" fill="#1a1a1a" />
  </marker>
  <marker id="arrowhead-beam" markerWidth="6" markerHeight="4" refX="5" refY="2" orient="auto">
    <polygon points="0 0, 6 2, 0 4" fill="#c0392b" />
  </marker>
  <marker id="arrowhead-gray" markerWidth="5" markerHeight="3.5" refX="4" refY="1.75" orient="auto">
    <polygon points="0 0, 5 1.75, 0 3.5" fill="#888888" />
  </marker>
</defs>
<line x1="5" y1="30" x2="30" y2="30" stroke="#333333" stroke-width="0.7" stroke-linecap="round" />
<line x1="8" y1="30" x2="20" y2="30" stroke="#888888" stroke-width="0.5" marker-end="url(#arrowhead-gray)" />
<rect x="30" y="8" width="65" height="44" rx="3" fill="#f0f0f0" stroke="#1a1a1a" stroke-width="0.5" />
<path d="M40,18 L60,18 L60,24 L40,24 L40,30 L60,30 L60,36 L40,36 L40,42 L60,42" fill="none" stroke="#1a1a1a" stroke-width="0.5" opacity="0.6"/>
<text x="78" y="28" font-family="Arial, Helvetica, sans-serif" font-size="10" fill="#888888" text-anchor="middle" opacity="0.5">❄</text>
<text x="78" y="40" font-family="Arial, Helvetica, sans-serif" font-size="6" fill="#888888" text-anchor="middle" font-weight="normal" font-style="normal">~1 K</text>
<line x1="95" y1="30" x2="135" y2="30" stroke="#1a1a1a" stroke-width="0.35"/>
<text x="133" y="24" font-family="Arial, Helvetica, sans-serif" font-size="7" fill="#888888" text-anchor="end" font-weight="normal" font-style="italic">out</text>
<text x="62" y="58" font-family="Arial, Helvetica, sans-serif" font-size="8" fill="#1a1a1a" text-anchor="middle" font-weight="bold" font-style="normal">SNSPD</text>
</svg>
