<?xml version="1.0" encoding="UTF-8"?>
<svg xmlns="http://www.w3.org/2000/svg" viewBox="0 0 140 55" width="140" height="55">
<defs>
  <marker id="arrowhead" markerWidth="6" markerHeight="4" refX="5" refY="2" orient="auto">
    <polygon points="0 0, 6 2, 0 4" fill="#000000" />
  </marker>
</defs>
<line x1="5" y1="27" x2="40" y2="27" stroke="#1B1E89" stroke-width="2.5" stroke-linecap="round" />
<rect x="40" y="10" width="60" height="34" rx="2" fill="#D4D8E8" stroke="#000000" stroke-width="0.75" />
<polygon points="52,16 52,38 75,27" fill="none" stroke="#CC3300" stroke-width="0.5"/>
<line x1="82" y1="14" x2="82" y2="40" stroke="#000000" stroke-width="1"/>
<line x1="82" y1="16" x2="86" y2="12" stroke="#444444" stroke-width="0.5"/>
<line x1="82" y1="21" x2="86" y2="17" stroke="#444444" stroke-width="0.5"/>
<line x1="82" y1="26" x2="86" y2="22" stroke="#444444" stroke-width="0.5"/>
<line x1="82" y1="31" x2="86" y2="27" stroke="#444444" stroke-width="0.5"/>
<line x1="82" y1="36" x2="86" y2="32" stroke="#444444" stroke-width="0.5"/>
<line x1="62" y1="10" x2="62" y2="3" stroke="#000000" stroke-width="0.75"/>
<text x="69" y="6" font-family="Helvetica, Arial, sans-serif" font-size="6" fill="#000000" text-anchor="middle" font-weight="normal" font-style="normal">I</text>
<path d="M25,23 L30,27 L25,31" fill="none" stroke="#444444" stroke-width="0.4"/>
<text x="60" y="52" font-family="Helvetica, Arial, sans-serif" font-size="8" fill="#000000" text-anchor="middle" font-weight="bold" font-style="normal">RSOA</text>
</svg>
