<svg xmlns="http://www.w3.org/2000/svg" viewBox="0 0 120 80" width="120" height="80" font-family="Arial, Helvetica, sans-serif">
<defs>
<marker id="arrowhead" markerWidth="6" markerHeight="4" refX="5" refY="2" orient="auto"><polygon points="0,0 6,2 0,4" fill="#1a1a1a"/></marker>
<marker id="arrowhead-beam" markerWidth="6" markerHeight="4" refX="5" refY="2" orient="auto"><polygon points="0,0 6,2 0,4" fill="#c0392b"/></marker>
</defs>
<line x1="5" y1="40" x2="50" y2="40" stroke="#c0392b" stroke-width="0.6" opacity="0.4"/>
<rect x="52" y="15" width="6" height="50" fill="#f4f6fa" stroke="#1a1a1a" stroke-width="0.5"/>
<line x1="58" y1="18" x2="62" y2="18" stroke="#1a1a1a" stroke-width="0.4"/>
<line x1="62" y1="18" x2="62" y2="23" stroke="#1a1a1a" stroke-width="0.4"/>
<line x1="58" y1="24" x2="62" y2="24" stroke="#1a1a1a" stroke-width="0.4"/>
<line x1="62" y1="24" x2="62" y2="29" stroke="#1a1a1a" stroke-width="0.4"/>
<line x1="58" y1="30" x2="62" y2="30" stroke="#1a1a1a" stroke-width="0.4"/>
<line x1="62" y1="30" x2="62" y2="35" stroke="#1a1a1a" stroke-width="0.4"/>
<line x1="58" y1="36" x2="62" y2="36" stroke="#1a1a1a" stroke-width="0.4"/>
<line x1="62" y1="36" x2="62" y2="41" stroke="#1a1a1a" stroke-width="0.4"/>
<line x1="58" y1="42" x2="62" y2="42" stroke="#1a1a1a" stroke-width="0.4"/>
<line x1="62" y1="42" x2="62" y2="47" stroke="#1a1a1a" stroke-width="0.4"/>
<line x1="58" y1="48" x2="62" y2="48" stroke="#1a1a1a" stroke-width="0.4"/>
<line x1="62" y1="48" x2="62" y2="53" stroke="#1a1a1a" stroke-width="0.4"/>
<line x1="58" y1="54" x2="62" y2="54" stroke="#1a1a1a" stroke-width="0.4"/>
<line x1="62" y1="54" x2="62" y2="59" stroke="#1a1a1a" stroke-width="0.4"/>
<line x1="58" y1="60" x2="62" y2="60" stroke="#1a1a1a" stroke-width="0.4"/>
<line x1="62" y1="60" x2="62" y2="65" stroke="#1a1a1a" stroke-width="0.4"/>
<line x1="65" y1="40" x2="115" y2="40" stroke="#c0392b" stroke-width="0.6" opacity="0.4"/>
<line x1="10" y1="40" x2="30" y2="40" stroke="#c0392b" stroke-width="0.6" marker-end="url(#arrowhead-beam)"/>
<text x="60" y="75" font-family="Arial, Helvetica, sans-serif" font-size="7" fill="#1a1a1a" text-anchor="middle" font-weight="bold">Fresnel lens</text>
</svg>
