<svg xmlns="http://www.w3.org/2000/svg" viewBox="0 0 170 65" width="170" height="65" font-family="Arial, Helvetica, sans-serif">
<defs>
<marker id="arrowhead" markerWidth="6" markerHeight="4" refX="5" refY="2" orient="auto"><polygon points="0,0 6,2 0,4" fill="#000000"/></marker>
<marker id="arrowhead-beam" markerWidth="6" markerHeight="4" refX="5" refY="2" orient="auto"><polygon points="0,0 6,2 0,4" fill="#CC0000"/></marker>
<linearGradient id="lens-grad" x1="0" y1="0" x2="1" y2="0"><stop offset="0%" stop-color="#D0E0F8"/><stop offset="50%" stop-color="#E8F0FF"/><stop offset="100%" stop-color="#B8C8E0"/></linearGradient>
</defs>
<line x1="5" y1="20" x2="40" y2="20" stroke="#CC0000" stroke-width="0.8" opacity="0.15"/>
<line x1="5" y1="28" x2="40" y2="28" stroke="#CC0000" stroke-width="0.8" opacity="0.15"/>
<line x1="5" y1="33" x2="40" y2="33" stroke="#CC0000" stroke-width="0.8" opacity="0.15"/>
<line x1="5" y1="38" x2="40" y2="38" stroke="#CC0000" stroke-width="0.8" opacity="0.15"/>
<line x1="5" y1="46" x2="40" y2="46" stroke="#CC0000" stroke-width="0.8" opacity="0.15"/>
<line x1="10" y1="33" x2="28" y2="33" stroke="#CC0000" stroke-width="0.8" marker-end="url(#arrowhead-beam)"/>
<path d="M42.0,13.0 L42.0,53.0 C60,43.0 60,23.0 42.0,13.0 Z" fill="url(#lens-grad)" stroke="#000000" stroke-width="0.75"/>
<line x1="58" y1="20" x2="100" y2="30" stroke="#CC0000" stroke-width="0.3" opacity="0.15"/>
<line x1="58" y1="46" x2="100" y2="36" stroke="#CC0000" stroke-width="0.3" opacity="0.15"/>
<path d="M112.5,22.0 L112.5,44.0 L103.5,44.0 C108,38.5 108,27.5 103.5,22.0 Z" fill="url(#lens-grad)" stroke="#000000" stroke-width="0.75"/>
<line x1="118" y1="30" x2="165" y2="30" stroke="#CC0000" stroke-width="0.8" opacity="0.2"/>
<line x1="118" y1="33" x2="165" y2="33" stroke="#CC0000" stroke-width="0.8" opacity="0.2"/>
<line x1="118" y1="36" x2="165" y2="36" stroke="#CC0000" stroke-width="0.8" opacity="0.2"/>
<text x="85" y="60" font-family="Arial, Helvetica, sans-serif" font-size="7" fill="#000000" text-anchor="middle" font-weight="bold">Beam reducer</text>
</svg>
