<svg xmlns="http://www.w3.org/2000/svg" viewBox="0 0 180 65" width="180" height="65" font-family="Arial, Helvetica, sans-serif">
<defs>
<marker id="arrowhead" markerWidth="6" markerHeight="4" refX="5" refY="2" orient="auto"><polygon points="0,0 6,2 0,4" fill="#000000"/></marker>
<marker id="arrowhead-beam" markerWidth="6" markerHeight="4" refX="5" refY="2" orient="auto"><polygon points="0,0 6,2 0,4" fill="#CC0000"/></marker>
<linearGradient id="housing-grad" x1="0" y1="0" x2="0" y2="1"><stop offset="0%" stop-color="#B0B0B8"/><stop offset="100%" stop-color="#707078"/></linearGradient>
<linearGradient id="lens-grad" x1="0" y1="0" x2="1" y2="0"><stop offset="0%" stop-color="#D0E0F8"/><stop offset="50%" stop-color="#E8F0FF"/><stop offset="100%" stop-color="#B8C8E0"/></linearGradient>
</defs>
<rect x="30" y="8" width="95" height="40" rx="4" fill="url(#housing-grad)" stroke="#000000" stroke-width="0.75"/>
<ellipse cx="50" cy="28" rx="3" ry="12" fill="url(#lens-grad)" stroke="#000000" stroke-width="0.3"/>
<ellipse cx="75" cy="28" rx="3" ry="10" fill="url(#lens-grad)" stroke="#000000" stroke-width="0.3"/>
<ellipse cx="108" cy="28" rx="4" ry="14" fill="url(#lens-grad)" stroke="#000000" stroke-width="0.3"/>
<line x1="68" y1="44" x2="82" y2="44" stroke="#666666" stroke-width="0.3" marker-end="url(#arrowhead)"/>
<line x1="82" y1="46" x2="68" y2="46" stroke="#666666" stroke-width="0.3" marker-end="url(#arrowhead)"/>
<text x="75" y="52" font-family="Arial, Helvetica, sans-serif" font-size="4.5" fill="#666666" text-anchor="middle" font-weight="normal">zoom</text>
<line x1="5" y1="26" x2="30" y2="26" stroke="#CC0000" stroke-width="0.8" opacity="0.2"/>
<line x1="5" y1="28" x2="30" y2="28" stroke="#CC0000" stroke-width="0.8" opacity="0.2"/>
<line x1="5" y1="30" x2="30" y2="30" stroke="#CC0000" stroke-width="0.8" opacity="0.2"/>
<line x1="10" y1="28" x2="22" y2="28" stroke="#CC0000" stroke-width="0.8" marker-end="url(#arrowhead-beam)"/>
<line x1="125" y1="18" x2="175" y2="18" stroke="#CC0000" stroke-width="0.8" opacity="0.15"/>
<line x1="125" y1="24" x2="175" y2="24" stroke="#CC0000" stroke-width="0.8" opacity="0.15"/>
<line x1="125" y1="28" x2="175" y2="28" stroke="#CC0000" stroke-width="0.8" opacity="0.15"/>
<line x1="125" y1="32" x2="175" y2="32" stroke="#CC0000" stroke-width="0.8" opacity="0.15"/>
<line x1="125" y1="38" x2="175" y2="38" stroke="#CC0000" stroke-width="0.8" opacity="0.15"/>
<text x="90" y="60" font-family="Arial, Helvetica, sans-serif" font-size="7" fill="#000000" text-anchor="middle" font-weight="bold">Variable zoom expander</text>
</svg>
