<svg xmlns="http://www.w3.org/2000/svg" viewBox="0 0 170 60" width="170" height="60" font-family="Arial, Helvetica, sans-serif">
<defs>
<marker id="arrowhead" markerWidth="6" markerHeight="4" refX="5" refY="2" orient="auto"><polygon points="0,0 6,2 0,4" fill="#1a1a1a"/></marker>
<marker id="arrowhead-beam" markerWidth="6" markerHeight="4" refX="5" refY="2" orient="auto"><polygon points="0,0 6,2 0,4" fill="#c0392b"/></marker>
</defs>
<rect x="15" y="10" width="90" height="35" rx="3" fill="#f0f0f0" stroke="#1a1a1a" stroke-width="0.5"/>
<line x1="30" y1="22" x2="30" y2="32" stroke="#1a1a1a" stroke-width="0.3"/>
<line x1="25" y1="27" x2="35" y2="27" stroke="#1a1a1a" stroke-width="0.3"/>
<ellipse cx="95" cy="27" rx="3" ry="12" fill="#f4f6fa" stroke="#1a1a1a" stroke-width="0.3"/>
<line x1="98" y1="27" x2="140" y2="27" stroke="#c0392b" stroke-width="0.6" opacity="0.4"/>
<line x1="105" y1="27" x2="130" y2="27" stroke="#c0392b" stroke-width="0.6" marker-end="url(#arrowhead-beam)"/>
<line x1="140" y1="30" x2="98" y2="30" stroke="#c0392b" stroke-width="0.4" opacity="0.2" stroke-dasharray="2,2"/>
<line x1="142" y1="15" x2="142" y2="42" stroke="#1a1a1a" stroke-width="0.8"/>
<line x1="142.0" y1="17.7" x2="137.0" y2="17.7" stroke="#888888" stroke-width="0.25"/>
<line x1="142.0" y1="23.1" x2="137.0" y2="23.1" stroke="#888888" stroke-width="0.25"/>
<line x1="142.0" y1="28.5" x2="137.0" y2="28.5" stroke="#888888" stroke-width="0.25"/>
<line x1="142.0" y1="33.9" x2="137.0" y2="33.9" stroke="#888888" stroke-width="0.25"/>
<line x1="142.0" y1="39.3" x2="137.0" y2="39.3" stroke="#888888" stroke-width="0.25"/>
<circle cx="15" cy="27" r="5" fill="none" stroke="#1a1a1a" stroke-width="0.4"/>
<text x="55" y="15" font-family="Arial, Helvetica, sans-serif" font-size="4.5" fill="#888888" text-anchor="middle" font-weight="normal">arcsec</text>
<text x="85" y="55" font-family="Arial, Helvetica, sans-serif" font-size="7" fill="#1a1a1a" text-anchor="middle" font-weight="bold">Autocollimator</text>
</svg>
