<?xml version="1.0" encoding="UTF-8"?>
<svg xmlns="http://www.w3.org/2000/svg" viewBox="0 0 200 42" width="200" height="42">
<defs>
  <marker id="arrowhead" markerWidth="6" markerHeight="4" refX="5" refY="2" orient="auto">
    <polygon points="0 0, 6 2, 0 4" fill="#000000" />
  </marker>
</defs>
<line x1="10" y1="20" x2="190" y2="20" stroke="#1B1E89" stroke-width="2.5" stroke-linecap="round" />
<line x1="60" y1="10" x2="60" y2="30" stroke="#000000" stroke-width="0.6" opacity="0.5"/>
<line x1="65" y1="10" x2="65" y2="30" stroke="#000000" stroke-width="0.6" opacity="0.5"/>
<line x1="70" y1="10" x2="70" y2="30" stroke="#000000" stroke-width="0.6" opacity="0.5"/>
<line x1="75" y1="10" x2="75" y2="30" stroke="#000000" stroke-width="0.6" opacity="0.5"/>
<line x1="80" y1="10" x2="80" y2="30" stroke="#000000" stroke-width="0.6" opacity="0.5"/>
<line x1="85" y1="10" x2="85" y2="30" stroke="#000000" stroke-width="0.6" opacity="0.5"/>
<line x1="90" y1="10" x2="90" y2="30" stroke="#000000" stroke-width="0.6" opacity="0.5"/>
<line x1="95" y1="10" x2="95" y2="30" stroke="#000000" stroke-width="0.6" opacity="0.5"/>
<line x1="100" y1="10" x2="100" y2="30" stroke="#000000" stroke-width="0.6" opacity="0.5"/>
<line x1="105" y1="10" x2="105" y2="30" stroke="#000000" stroke-width="0.6" opacity="0.5"/>
<line x1="110" y1="10" x2="110" y2="30" stroke="#000000" stroke-width="0.6" opacity="0.5"/>
<line x1="115" y1="10" x2="115" y2="30" stroke="#000000" stroke-width="0.6" opacity="0.5"/>
<line x1="120" y1="10" x2="120" y2="30" stroke="#000000" stroke-width="0.6" opacity="0.5"/>
<line x1="125" y1="10" x2="125" y2="30" stroke="#000000" stroke-width="0.6" opacity="0.5"/>
<line x1="130" y1="10" x2="130" y2="30" stroke="#000000" stroke-width="0.6" opacity="0.5"/>
<line x1="135" y1="10" x2="135" y2="30" stroke="#000000" stroke-width="0.6" opacity="0.5"/>
<line x1="140" y1="10" x2="140" y2="30" stroke="#000000" stroke-width="0.6" opacity="0.5"/>
<text x="100" y="8" font-family="Helvetica, Arial, sans-serif" font-size="6" fill="#CC4444" text-anchor="middle" font-weight="normal" font-style="normal">&gt;1000°C</text>
<text x="100" y="40" font-family="Helvetica, Arial, sans-serif" font-size="8" fill="#000000" text-anchor="middle" font-weight="bold" font-style="normal">Regenerated FBG</text>
</svg>
