<svg xmlns="http://www.w3.org/2000/svg" viewBox="0 0 180 65" width="180" height="65" font-family="Arial, Helvetica, sans-serif">
<defs>
<marker id="arrowhead" markerWidth="6" markerHeight="4" refX="5" refY="2" orient="auto"><polygon points="0,0 6,2 0,4" fill="#000000"/></marker>
<marker id="arrowhead-beam" markerWidth="6" markerHeight="4" refX="5" refY="2" orient="auto"><polygon points="0,0 6,2 0,4" fill="#CC0000"/></marker>
</defs>
<rect x="25" y="8" width="110" height="40" rx="4" fill="#808088" stroke="#000000" stroke-width="0.75"/>
<rect x="32" y="15" width="6" height="24" rx="1" fill="#D4D8E8" stroke="#000000" stroke-width="0.3"/>
<rect x="55" y="12" width="30" height="28" rx="2" fill="#E0D0E8" stroke="#000000" stroke-width="0.4"/>
<line x1="60" y1="26" x2="80" y2="26" stroke="#6666AA" stroke-width="0.5" marker-end="url(#arrowhead)" opacity="0.3"/>
<text x="70" y="34" font-family="Arial, Helvetica, sans-serif" font-size="5.5" fill="#000000" text-anchor="middle" font-weight="normal">TGG</text>
<rect x="100" y="15" width="6" height="24" rx="1" fill="#D4D8E8" stroke="#000000" stroke-width="0.3"/>
<line x1="60" y1="48" x2="60" y2="55" stroke="#0088CC" stroke-width="0.5"/>
<line x1="80" y1="48" x2="80" y2="55" stroke="#0088CC" stroke-width="0.5"/>
<text x="70" y="58" font-family="Arial, Helvetica, sans-serif" font-size="4.5" fill="#0088CC" text-anchor="middle" font-weight="normal">H₂O</text>
<line x1="5" y1="28" x2="25" y2="28" stroke="#CC0000" stroke-width="0.8" opacity="0.5"/>
<line x1="8" y1="28" x2="18" y2="28" stroke="#CC0000" stroke-width="0.8" marker-end="url(#arrowhead-beam)"/>
<line x1="135" y1="28" x2="175" y2="28" stroke="#CC0000" stroke-width="0.8" opacity="0.5"/>
<line x1="145" y1="28" x2="165" y2="28" stroke="#CC0000" stroke-width="0.8" marker-end="url(#arrowhead-beam)"/>
<text x="90" y="62" font-family="Arial, Helvetica, sans-serif" font-size="7" fill="#000000" text-anchor="middle" font-weight="bold">HP isolator (kW)</text>
</svg>
