<svg xmlns="http://www.w3.org/2000/svg" viewBox="0 0 200 100" width="200" height="100" font-family="Arial, Helvetica, sans-serif">
<defs>
<marker id="arrowhead" markerWidth="6" markerHeight="4" refX="5" refY="2" orient="auto"><polygon points="0,0 6,2 0,4" fill="#1a1a1a"/></marker>
<marker id="arrowhead-beam" markerWidth="6" markerHeight="4" refX="5" refY="2" orient="auto"><polygon points="0,0 6,2 0,4" fill="#c0392b"/></marker>
</defs>
<rect x="22" y="35" width="6" height="25" rx="1" fill="#f4f6fa" stroke="#1a1a1a" stroke-width="0.4"/>
<text x="25" y="32" font-family="Arial, Helvetica, sans-serif" font-size="4.5" fill="#1a1a1a" text-anchor="middle" font-weight="normal">λ/2</text>
<line x1="5" y1="47" x2="22" y2="47" stroke="#c0392b" stroke-width="0.6" opacity="0.5"/>
<line x1="7" y1="47" x2="16" y2="47" stroke="#c0392b" stroke-width="0.6" marker-end="url(#arrowhead-beam)"/>
<rect x="45" y="30" width="35" height="35" fill="#f4f6fa" stroke="#1a1a1a" stroke-width="0.5"/>
<line x1="45" y1="65" x2="80" y2="30" stroke="#888888" stroke-width="0.5" opacity="0.4"/>
<text x="62" y="50" font-family="Arial, Helvetica, sans-serif" font-size="5.5" fill="#1a1a1a" text-anchor="middle" font-weight="normal">PBS</text>
<line x1="28" y1="47" x2="45" y2="47" stroke="#c0392b" stroke-width="0.6" opacity="0.4"/>
<line x1="62" y1="5" x2="62" y2="30" stroke="#c0392b" stroke-width="0.6" opacity="0.5"/>
<line x1="62" y1="10" x2="62" y2="22" stroke="#c0392b" stroke-width="0.6" marker-end="url(#arrowhead-beam)"/>
<line x1="80" y1="47" x2="125" y2="47" stroke="#c0392b" stroke-width="0.6" opacity="0.4"/>
<rect x="100" y="40" width="5" height="14" rx="1" fill="#f4f6fa" stroke="#1a1a1a" stroke-width="0.3"/>
<rect x="125" y="38" width="20" height="20" fill="#f4f6fa" stroke="#1a1a1a" stroke-width="0.4"/>
<line x1="145" y1="47" x2="175" y2="47" stroke="#c0392b" stroke-width="0.6" opacity="0.3"/>
<rect x="178" y="40" width="14" height="14" rx="2" fill="#1a1a1a" stroke="#1a1a1a" stroke-width="0.3" opacity="0.3"/>
<line x1="135" y1="58" x2="135" y2="80" stroke="#c0392b" stroke-width="0.6" opacity="0.3"/>
<rect x="128" y="82" width="14" height="14" rx="2" fill="#1a1a1a" stroke="#1a1a1a" stroke-width="0.3" opacity="0.3"/>
<line x1="62" y1="65" x2="62" y2="80" stroke="#c0392b" stroke-width="0.6" opacity="0.3"/>
<rect x="55" y="82" width="14" height="14" rx="2" fill="#1a1a1a" stroke="#1a1a1a" stroke-width="0.3" opacity="0.3"/>
<text x="100" y="98" font-family="Arial, Helvetica, sans-serif" font-size="7" fill="#1a1a1a" text-anchor="middle" font-weight="bold">Bell state analyzer</text>
</svg>
