<svg xmlns="http://www.w3.org/2000/svg" viewBox="0 0 180 65" width="180" height="65" font-family="Arial, Helvetica, sans-serif">
<defs>
<marker id="arrowhead" markerWidth="6" markerHeight="4" refX="5" refY="2" orient="auto"><polygon points="0,0 6,2 0,4" fill="#1a1a1a"/></marker>
<marker id="arrowhead-beam" markerWidth="6" markerHeight="4" refX="5" refY="2" orient="auto"><polygon points="0,0 6,2 0,4" fill="#c0392b"/></marker>
</defs>
<line x1="5" y1="32" x2="25" y2="32" stroke="#c0392b" stroke-width="0.6" opacity="0.5"/>
<line x1="8" y1="32" x2="18" y2="32" stroke="#c0392b" stroke-width="0.6" marker-end="url(#arrowhead-beam)"/>
<rect x="28" y="15" width="6" height="34" rx="1" fill="#f4f6fa" stroke="#1a1a1a" stroke-width="0.4"/>
<text x="31" y="12" font-family="Arial, Helvetica, sans-serif" font-size="4.5" fill="#1a1a1a" text-anchor="middle" font-weight="normal">λ/4</text>
<rect x="45" y="15" width="6" height="34" rx="1" fill="#f4f6fa" stroke="#1a1a1a" stroke-width="0.4"/>
<text x="48" y="12" font-family="Arial, Helvetica, sans-serif" font-size="4.5" fill="#1a1a1a" text-anchor="middle" font-weight="normal">λ/2</text>
<line x1="34" y1="32" x2="45" y2="32" stroke="#c0392b" stroke-width="0.6" opacity="0.3"/>
<line x1="51" y1="32" x2="68" y2="32" stroke="#c0392b" stroke-width="0.6" opacity="0.3"/>
<rect x="70" y="18" width="26" height="26" fill="#f4f6fa" stroke="#1a1a1a" stroke-width="0.5"/>
<text x="83" y="34" font-family="Arial, Helvetica, sans-serif" font-size="4.5" fill="#1a1a1a" text-anchor="middle" font-weight="normal">PBS</text>
<line x1="96" y1="31" x2="130" y2="31" stroke="#c0392b" stroke-width="0.6" opacity="0.4"/>
<rect x="133" y="23" width="14" height="14" rx="2" fill="#1a1a1a" stroke="#1a1a1a" stroke-width="0.3" opacity="0.3"/>
<line x1="83" y1="44" x2="83" y2="58" stroke="#c0392b" stroke-width="0.6" opacity="0.4"/>
<rect x="76" y="58" width="14" height="14" rx="2" fill="#1a1a1a" stroke="#1a1a1a" stroke-width="0.3" opacity="0.3"/>
<path d="M31,50 A5,3 0 1,1 36,50" fill="none" stroke="#888888" stroke-width="0.3" marker-end="url(#arrowhead)"/>
<path d="M48,50 A5,3 0 1,1 53,50" fill="none" stroke="#888888" stroke-width="0.3" marker-end="url(#arrowhead)"/>
<text x="155" y="32" font-family="Arial, Helvetica, sans-serif" font-size="5.5" fill="#888888" text-anchor="middle" font-weight="normal">rho</text>
<text x="100" y="60" font-family="Arial, Helvetica, sans-serif" font-size="7" fill="#1a1a1a" text-anchor="middle" font-weight="bold">State tomography</text>
</svg>
