<svg xmlns="http://www.w3.org/2000/svg" viewBox="0 0 110 70" width="110" height="70" font-family="Arial, Helvetica, sans-serif">
<defs>
<marker id="arrowhead" markerWidth="6" markerHeight="4" refX="5" refY="2" orient="auto"><polygon points="0,0 6,2 0,4" fill="#1a1a1a"/></marker>
<marker id="arrowhead-beam" markerWidth="6" markerHeight="4" refX="5" refY="2" orient="auto"><polygon points="0,0 6,2 0,4" fill="#c0392b"/></marker>
</defs>
<line x1="5" y1="35" x2="30" y2="35" stroke="#c0392b" stroke-width="0.6" opacity="0.5"/>
<line x1="8" y1="35" x2="22" y2="35" stroke="#c0392b" stroke-width="0.6" marker-end="url(#arrowhead-beam)"/>
<rect x="33" y="10" width="40" height="46" rx="3" fill="#f0f0f0" stroke="#1a1a1a" stroke-width="0.5"/>
<rect x="36" y="16" width="14" height="14" fill="#202038" stroke="#1a1a1a" stroke-width="0.3" opacity="0.6"/>
<rect x="52" y="16" width="14" height="14" fill="#202038" stroke="#1a1a1a" stroke-width="0.3" opacity="0.6"/>
<rect x="36" y="32" width="14" height="14" fill="#202038" stroke="#1a1a1a" stroke-width="0.3" opacity="0.6"/>
<rect x="52" y="32" width="14" height="14" fill="#202038" stroke="#1a1a1a" stroke-width="0.3" opacity="0.6"/>
<line x1="50" y1="16" x2="50" y2="46" stroke="#1a1a1a" stroke-width="0.3"/>
<line x1="36" y1="30" x2="66" y2="30" stroke="#1a1a1a" stroke-width="0.3"/>
<line x1="73" y1="20" x2="85" y2="20" stroke="#1a1a1a" stroke-width="0.3"/>
<line x1="73" y1="30" x2="85" y2="30" stroke="#1a1a1a" stroke-width="0.3"/>
<line x1="73" y1="38" x2="85" y2="38" stroke="#1a1a1a" stroke-width="0.3"/>
<line x1="73" y1="48" x2="85" y2="48" stroke="#1a1a1a" stroke-width="0.3"/>
<text x="53" y="65" font-family="Arial, Helvetica, sans-serif" font-size="7" fill="#1a1a1a" text-anchor="middle" font-weight="bold">Quad-cell detector</text>
</svg>
