<svg xmlns="http://www.w3.org/2000/svg" viewBox="0 0 160 60" width="160" height="60" font-family="Arial, Helvetica, sans-serif">
<defs>
<marker id="arrowhead" markerWidth="6" markerHeight="4" refX="5" refY="2" orient="auto"><polygon points="0,0 6,2 0,4" fill="#000000"/></marker>
<marker id="arrowhead-beam" markerWidth="6" markerHeight="4" refX="5" refY="2" orient="auto"><polygon points="0,0 6,2 0,4" fill="#CC0000"/></marker>
<linearGradient id="housing-grad" x1="0" y1="0" x2="0" y2="1"><stop offset="0%" stop-color="#B0B0B8"/><stop offset="100%" stop-color="#707078"/></linearGradient>
<linearGradient id="lens-grad" x1="0" y1="0" x2="1" y2="0"><stop offset="0%" stop-color="#D0E0F8"/><stop offset="50%" stop-color="#E8F0FF"/><stop offset="100%" stop-color="#B8C8E0"/></linearGradient>
</defs>
<rect x="30" y="8" width="80" height="38" rx="3" fill="url(#housing-grad)" stroke="#000000" stroke-width="0.75"/>
<ellipse cx="65" cy="27" rx="3" ry="12" fill="url(#lens-grad)" stroke="#000000" stroke-width="0.3"/>
<line x1="38" y1="38" x2="102" y2="38" stroke="#666666" stroke-width="0.4"/>
<rect x="95" y="15" width="12" height="15" rx="1" fill="url(#housing-grad)" stroke="#000000" stroke-width="0.3"/>
<text x="101" y="25" font-family="Arial, Helvetica, sans-serif" font-size="4.5" fill="#000000" text-anchor="middle" font-weight="normal">M</text>
<line x1="55" y1="42" x2="75" y2="42" stroke="#666666" stroke-width="0.3" marker-end="url(#arrowhead)"/>
<line x1="75" y1="44" x2="55" y2="44" stroke="#666666" stroke-width="0.3" marker-end="url(#arrowhead)"/>
<line x1="5" y1="27" x2="30" y2="27" stroke="#CC0000" stroke-width="0.8" opacity="0.4"/>
<line x1="8" y1="27" x2="22" y2="27" stroke="#CC0000" stroke-width="0.8" marker-end="url(#arrowhead-beam)"/>
<line x1="110" y1="27" x2="155" y2="27" stroke="#CC0000" stroke-width="0.8" opacity="0.4"/>
<text x="80" y="55" font-family="Arial, Helvetica, sans-serif" font-size="7" fill="#000000" text-anchor="middle" font-weight="bold">Focus shifter</text>
</svg>
