<svg xmlns="http://www.w3.org/2000/svg" viewBox="0 0 120 70" width="120" height="70" font-family="Arial, Helvetica, sans-serif">
<defs>
<marker id="arrowhead" markerWidth="6" markerHeight="4" refX="5" refY="2" orient="auto"><polygon points="0,0 6,2 0,4" fill="#000000"/></marker>
<marker id="arrowhead-beam" markerWidth="6" markerHeight="4" refX="5" refY="2" orient="auto"><polygon points="0,0 6,2 0,4" fill="#CC0000"/></marker>
<linearGradient id="housing-grad" x1="0" y1="0" x2="0" y2="1"><stop offset="0%" stop-color="#B0B0B8"/><stop offset="100%" stop-color="#707078"/></linearGradient>
</defs>
<rect x="30" y="10" width="45" height="40" rx="3" fill="url(#housing-grad)" stroke="#000000" stroke-width="0.75"/>
<ellipse cx="52" cy="30" rx="12" ry="3" fill="#C8D8F0" stroke="#000000" stroke-width="0.3"/>
<path d="M52,50 C48,55 45,58 50,62 C55,65 58,58 55,55 C52,52 48,55 52,60" fill="none" stroke="#CC0000" stroke-width="0.4" opacity="0.3"/>
<line x1="52" y1="0" x2="52" y2="10" stroke="#CC0000" stroke-width="0.8" opacity="0.4"/>
<path d="M62,18 A12,12 0 1,1 72,25" fill="none" stroke="#666666" stroke-width="0.3" marker-end="url(#arrowhead)"/>
<text x="52" y="68" font-family="Arial, Helvetica, sans-serif" font-size="7" fill="#000000" text-anchor="middle" font-weight="bold">Wobble optic</text>
</svg>
