<svg xmlns="http://www.w3.org/2000/svg" viewBox="0 0 90 75" width="90" height="75" font-family="Arial, Helvetica, sans-serif">
<defs>
<marker id="arrowhead" markerWidth="6" markerHeight="4" refX="5" refY="2" orient="auto"><polygon points="0,0 6,2 0,4" fill="#1a1a1a"/></marker>
<marker id="arrowhead-beam" markerWidth="6" markerHeight="4" refX="5" refY="2" orient="auto"><polygon points="0,0 6,2 0,4" fill="#c0392b"/></marker>
</defs>
<rect x="10" y="5" width="60" height="55" rx="2" fill="#f0f0f0" stroke="#1a1a1a" stroke-width="0.5" opacity="0.3"/>
<path d="M12,10 C22,13 32,8 42,12 C52,14 62,9 68,11" fill="none" stroke="#888888" stroke-width="0.3" opacity="0.2"/>
<path d="M12,16 C22,19 32,14 42,18 C52,20 62,15 68,17" fill="none" stroke="#888888" stroke-width="0.3" opacity="0.2"/>
<path d="M12,22 C22,25 32,20 42,24 C52,26 62,21 68,23" fill="none" stroke="#888888" stroke-width="0.3" opacity="0.2"/>
<path d="M12,28 C22,31 32,26 42,30 C52,32 62,27 68,29" fill="none" stroke="#888888" stroke-width="0.3" opacity="0.2"/>
<path d="M12,34 C22,37 32,32 42,36 C52,38 62,33 68,35" fill="none" stroke="#888888" stroke-width="0.3" opacity="0.2"/>
<path d="M12,40 C22,43 32,38 42,42 C52,44 62,39 68,41" fill="none" stroke="#888888" stroke-width="0.3" opacity="0.2"/>
<path d="M12,46 C22,49 32,44 42,48 C52,50 62,45 68,47" fill="none" stroke="#888888" stroke-width="0.3" opacity="0.2"/>
<path d="M12,52 C22,55 32,50 42,54 C52,56 62,51 68,53" fill="none" stroke="#888888" stroke-width="0.3" opacity="0.2"/>
<rect x="10" y="3" width="60" height="4" rx="1" fill="#f0f0f0" stroke="#1a1a1a" stroke-width="0.4"/>
<polygon points="40,22 35,32 45,32" fill="#888888" stroke="#1a1a1a" stroke-width="0.3" opacity="0.5"/>
<text x="40" y="30" font-family="Arial, Helvetica, sans-serif" font-size="5.5" fill="#1a1a1a" text-anchor="middle" font-weight="bold">!</text>
<text x="40" y="70" font-family="Arial, Helvetica, sans-serif" font-size="7" fill="#1a1a1a" text-anchor="middle" font-weight="bold">Safety curtain</text>
</svg>
