<?xml version="1.0" encoding="UTF-8"?>
<svg xmlns="http://www.w3.org/2000/svg" viewBox="0 0 110 42" width="110" height="42">
<defs>
  <marker id="arrowhead" markerWidth="6" markerHeight="4" refX="5" refY="2" orient="auto">
    <polygon points="0 0, 6 2, 0 4" fill="#1a1a1a" />
  </marker>
  <marker id="arrowhead-beam" markerWidth="6" markerHeight="4" refX="5" refY="2" orient="auto">
    <polygon points="0 0, 6 2, 0 4" fill="#c0392b" />
  </marker>
  <marker id="arrowhead-gray" markerWidth="5" markerHeight="3.5" refX="4" refY="1.75" orient="auto">
    <polygon points="0 0, 5 1.75, 0 3.5" fill="#888888" />
  </marker>
</defs>
<line x1="5" y1="13" x2="22" y2="13" stroke="#333333" stroke-width="0.4"/>
<line x1="5" y1="20" x2="22" y2="20" stroke="#333333" stroke-width="0.4"/>
<line x1="5" y1="27" x2="22" y2="27" stroke="#333333" stroke-width="0.4"/>
<rect x="22" y="6" width="45" height="28" rx="2" fill="#f0f0f0" stroke="#1a1a1a" stroke-width="0.5"/>
<circle cx="32" cy="20" r="1.2" fill="#1a1a1a" opacity="0.3"/>
<circle cx="39" cy="20" r="1.2" fill="#1a1a1a" opacity="0.3"/>
<circle cx="46" cy="20" r="1.2" fill="#1a1a1a" opacity="0.3"/>
<circle cx="53" cy="20" r="1.2" fill="#1a1a1a" opacity="0.3"/>
<rect x="67" y="10" width="10" height="20" rx="1" fill="#888888" stroke="#1a1a1a" stroke-width="0.3" opacity="0.4"/>
<line x1="79" y1="10" x2="79" y2="30" stroke="#1a1a1a" stroke-width="0.75"/>
<text x="45" y="40" font-family="Arial, Helvetica, sans-serif" font-size="6" fill="#1a1a1a" text-anchor="middle" font-weight="bold" font-style="normal">MMC</text>
</svg>
