<svg xmlns="http://www.w3.org/2000/svg" viewBox="0 0 140 65" width="140" height="65" font-family="Arial, Helvetica, sans-serif">
<defs>
<marker id="arrowhead" markerWidth="6" markerHeight="4" refX="5" refY="2" orient="auto"><polygon points="0,0 6,2 0,4" fill="#000000"/></marker>
<marker id="arrowhead-beam" markerWidth="6" markerHeight="4" refX="5" refY="2" orient="auto"><polygon points="0,0 6,2 0,4" fill="#CC0000"/></marker>
<linearGradient id="glass-grad" x1="0" y1="0" x2="1" y2="1"><stop offset="0%" stop-color="#D8E4F8"/><stop offset="100%" stop-color="#A8B8D8"/></linearGradient>
<linearGradient id="housing-grad" x1="0" y1="0" x2="0" y2="1"><stop offset="0%" stop-color="#B0B0B8"/><stop offset="100%" stop-color="#707078"/></linearGradient>
</defs>
<rect x="25" y="20" width="80" height="28" rx="2" fill="url(#housing-grad)" stroke="#000000" stroke-width="0.75"/>
<polygon points="40,20 90,20 85,10 45,10" fill="#E0D0E8" stroke="#000000" stroke-width="0.5"/>
<path d="M40,18 L50,10 L62,18 L74,10 L86,18" fill="none" stroke="#CC0000" stroke-width="0.4" opacity="0.3"/>
<rect x="45" y="2" width="40" height="8" rx="1" fill="#D8C0A0" stroke="#000000" stroke-width="0.3" opacity="0.5"/>
<text x="65" y="7" font-family="Arial, Helvetica, sans-serif" font-size="4.5" fill="#666666" text-anchor="middle" font-weight="normal">sample</text>
<line x1="5" y1="34" x2="25" y2="34" stroke="#CC0000" stroke-width="0.8" opacity="0.4"/>
<line x1="8" y1="34" x2="18" y2="34" stroke="#CC0000" stroke-width="0.8" marker-end="url(#arrowhead-beam)"/>
<line x1="105" y1="34" x2="135" y2="34" stroke="#CC0000" stroke-width="0.8" opacity="0.4"/>
<text x="65" y="58" font-family="Arial, Helvetica, sans-serif" font-size="7" fill="#000000" text-anchor="middle" font-weight="bold">ATR accessory</text>
</svg>
