<?xml version="1.0" encoding="UTF-8"?>
<svg xmlns="http://www.w3.org/2000/svg" viewBox="0 0 200 70" width="200" height="70">
<defs>
  <marker id="arrowhead" markerWidth="6" markerHeight="4" refX="5" refY="2" orient="auto">
    <polygon points="0 0, 6 2, 0 4" fill="#1a1a1a" />
  </marker>
  <marker id="arrowhead-beam" markerWidth="6" markerHeight="4" refX="5" refY="2" orient="auto">
    <polygon points="0 0, 6 2, 0 4" fill="#c0392b" />
  </marker>
  <marker id="arrowhead-gray" markerWidth="5" markerHeight="3.5" refX="4" refY="1.75" orient="auto">
    <polygon points="0 0, 5 1.75, 0 3.5" fill="#888888" />
  </marker>
</defs>
<rect x="30" y="10" width="100" height="45" rx="3" fill="#f0f0f0" stroke="#1a1a1a" stroke-width="0.5" />
<polygon points="60,20 60,44 85,32" fill="none" stroke="#1a1a1a" stroke-width="0.5"/>
<line x1="10" y1="32" x2="60" y2="32" stroke="#c0392b" stroke-width="0.6"/>
<text x="20" y="26" font-family="Arial, Helvetica, sans-serif" font-size="6" fill="#c0392b" text-anchor="middle" font-weight="normal" font-style="normal">pump</text>
<line x1="85" y1="26" x2="120" y2="20" stroke="#888888" stroke-width="0.5"/>
<line x1="85" y1="38" x2="120" y2="44" stroke="#888888" stroke-width="0.5"/>
<line x1="120" y1="20" x2="195" y2="20" stroke="#333333" stroke-width="0.7" stroke-linecap="round" />
<line x1="120" y1="44" x2="195" y2="44" stroke="#333333" stroke-width="0.7" stroke-linecap="round" />
<line x1="150" y1="20" x2="170" y2="20" stroke="#888888" stroke-width="0.5" marker-end="url(#arrowhead-gray)" />
<line x1="150" y1="44" x2="170" y2="44" stroke="#888888" stroke-width="0.5" marker-end="url(#arrowhead-gray)" />
<text x="193" y="14" font-family="Arial, Helvetica, sans-serif" font-size="7" fill="#888888" text-anchor="end" font-weight="normal" font-style="italic">signal</text>
<text x="193" y="50" font-family="Arial, Helvetica, sans-serif" font-size="7" fill="#888888" text-anchor="end" font-weight="normal" font-style="italic">idler</text>
<text x="80" y="66" font-family="Arial, Helvetica, sans-serif" font-size="8" fill="#1a1a1a" text-anchor="middle" font-weight="bold" font-style="normal">Entangled photon source</text>
</svg>
