<?xml version="1.0" encoding="UTF-8"?>
<svg xmlns="http://www.w3.org/2000/svg" viewBox="0 0 140 45" width="140" height="45">
<defs>
  <marker id="arrowhead" markerWidth="6" markerHeight="4" refX="5" refY="2" orient="auto">
    <polygon points="0 0, 6 2, 0 4" fill="#1a1a1a" />
  </marker>
  <marker id="arrowhead-beam" markerWidth="6" markerHeight="4" refX="5" refY="2" orient="auto">
    <polygon points="0 0, 6 2, 0 4" fill="#c0392b" />
  </marker>
  <marker id="arrowhead-gray" markerWidth="5" markerHeight="3.5" refX="4" refY="1.75" orient="auto">
    <polygon points="0 0, 5 1.75, 0 3.5" fill="#888888" />
  </marker>
</defs>
<line x1="5" y1="22" x2="40" y2="22" stroke="#333333" stroke-width="0.7" stroke-linecap="round" />
<rect x="40" y="8" width="50" height="28" rx="2" fill="#f0f0f0" stroke="#1a1a1a" stroke-width="0.5" />
<path d="M48,22 C52,14 56,14 60,22 C64,30 68,30 72,22 C76,18 80,18 82,22" fill="none" stroke="#c0392b" stroke-width="0.5"/>
<line x1="48" y1="16" x2="82" y2="16" stroke="#888888" stroke-width="0.35" stroke-dasharray="1.5,1.5"/>
<line x1="48" y1="28" x2="82" y2="28" stroke="#888888" stroke-width="0.35" stroke-dasharray="1.5,1.5"/>
<line x1="90" y1="22" x2="135" y2="22" stroke="#333333" stroke-width="0.7" stroke-linecap="round" />
<line x1="10" y1="22" x2="28" y2="22" stroke="#888888" stroke-width="0.5" marker-end="url(#arrowhead-gray)" />
<text x="65" y="42" font-family="Arial, Helvetica, sans-serif" font-size="8" fill="#1a1a1a" text-anchor="middle" font-weight="bold" font-style="normal">Power limiter</text>
</svg>
