<?xml version="1.0" encoding="UTF-8"?>
<svg xmlns="http://www.w3.org/2000/svg" viewBox="0 0 160 42" width="160" height="42">
<defs>
  <marker id="arrowhead" markerWidth="6" markerHeight="4" refX="5" refY="2" orient="auto">
    <polygon points="0 0, 6 2, 0 4" fill="#1a1a1a" />
  </marker>
  <marker id="arrowhead-beam" markerWidth="6" markerHeight="4" refX="5" refY="2" orient="auto">
    <polygon points="0 0, 6 2, 0 4" fill="#c0392b" />
  </marker>
  <marker id="arrowhead-gray" markerWidth="5" markerHeight="3.5" refX="4" refY="1.75" orient="auto">
    <polygon points="0 0, 5 1.75, 0 3.5" fill="#888888" />
  </marker>
</defs>
<line x1="5" y1="21" x2="70" y2="21" stroke="#333333" stroke-width="0.7" stroke-linecap="round" />
<line x1="90" y1="21" x2="155" y2="21" stroke="#333333" stroke-width="0.7" stroke-linecap="round" />
<line x1="10" y1="21" x2="30" y2="21" stroke="#888888" stroke-width="0.5" marker-end="url(#arrowhead-gray)" />
<rect x="55" y="8" width="50" height="26" rx="3" fill="#f0f0f0" stroke="#1a1a1a" stroke-width="0.5"/>
<path d="M62,21 L70,16 L78,21 L70,26 Z" fill="none" stroke="#1a1a1a" stroke-width="0.3" opacity="0.4"/>
<circle cx="80" cy="21" r="2" fill="#888888" opacity="0.4"/>
<line x1="60" y1="8" x2="60" y2="4" stroke="#1a1a1a" stroke-width="0.4"/>
<line x1="100" y1="8" x2="100" y2="4" stroke="#1a1a1a" stroke-width="0.4"/>
<line x1="60" y1="4" x2="100" y2="4" stroke="#1a1a1a" stroke-width="0.4"/>
<text x="80" y="40" font-family="Arial, Helvetica, sans-serif" font-size="8" fill="#1a1a1a" text-anchor="middle" font-weight="bold" font-style="normal">Mechanical splice</text>
</svg>
