<svg xmlns="http://www.w3.org/2000/svg" viewBox="0 0 100 75" width="100" height="75" font-family="Arial, Helvetica, sans-serif">
<defs>
<marker id="arrowhead" markerWidth="6" markerHeight="4" refX="5" refY="2" orient="auto"><polygon points="0,0 6,2 0,4" fill="#1a1a1a"/></marker>
<marker id="arrowhead-beam" markerWidth="6" markerHeight="4" refX="5" refY="2" orient="auto"><polygon points="0,0 6,2 0,4" fill="#c0392b"/></marker>
</defs>
<rect x="15" y="50" width="65" height="10" rx="2" fill="#f0f0f0" stroke="#1a1a1a" stroke-width="0.5"/>
<path d="M20,50 A35,35 0 0,1 75,50" fill="none" stroke="#f0f0f0" stroke-width="3"/>
<path d="M20,50 A35,35 0 0,1 75,50" fill="none" stroke="#1a1a1a" stroke-width="0.5"/>
<line x1="47" y1="50" x2="47" y2="18" stroke="#1a1a1a" stroke-width="0.5"/>
<line x1="47" y1="18" x2="42" y2="15" stroke="#1a1a1a" stroke-width="0.3"/>
<line x1="47" y1="18" x2="52" y2="15" stroke="#1a1a1a" stroke-width="0.3"/>
<circle cx="33" cy="26" r="0.5" fill="#1a1a1a" opacity="0.3"/>
<circle cx="40" cy="23" r="0.5" fill="#1a1a1a" opacity="0.3"/>
<circle cx="47" cy="22" r="0.5" fill="#1a1a1a" opacity="0.3"/>
<circle cx="54" cy="23" r="0.5" fill="#1a1a1a" opacity="0.3"/>
<circle cx="61" cy="26" r="0.5" fill="#1a1a1a" opacity="0.3"/>
<text x="47" y="72" font-family="Arial, Helvetica, sans-serif" font-size="7" fill="#1a1a1a" text-anchor="middle" font-weight="bold">Goniometer</text>
</svg>
