<?xml version="1.0" encoding="UTF-8"?>
<svg xmlns="http://www.w3.org/2000/svg" viewBox="0 0 280 70" width="280" height="70">
<defs>
  <marker id="arrowhead" markerWidth="6" markerHeight="4" refX="5" refY="2" orient="auto">
    <polygon points="0 0, 6 2, 0 4" fill="#1a1a1a" />
  </marker>
  <marker id="arrowhead-beam" markerWidth="6" markerHeight="4" refX="5" refY="2" orient="auto">
    <polygon points="0 0, 6 2, 0 4" fill="#c0392b" />
  </marker>
  <marker id="arrowhead-gray" markerWidth="5" markerHeight="3.5" refX="4" refY="1.75" orient="auto">
    <polygon points="0 0, 5 1.75, 0 3.5" fill="#888888" />
  </marker>
</defs>
<rect x="5" y="18" width="40" height="28" rx="2" fill="#f0f0f0" stroke="#1a1a1a" stroke-width="0.5" />
<text x="25" y="35" font-family="Arial, Helvetica, sans-serif" font-size="6" fill="#1a1a1a" text-anchor="middle" font-weight="normal" font-style="normal">Osc</text>
<line x1="45" y1="32" x2="55" y2="32" stroke="#333333" stroke-width="0.7" stroke-linecap="round" />
<rect x="55" y="18" width="45" height="28" rx="2" fill="#f0f0f0" stroke="#1a1a1a" stroke-width="0.5" />
<text x="77" y="35" font-family="Arial, Helvetica, sans-serif" font-size="6" fill="#1a1a1a" text-anchor="middle" font-weight="normal" font-style="normal">Stretcher</text>
<path d="M62,22 L72,22 L72,26 L82,26 L82,30 L92,30" fill="none" stroke="#c0392b" stroke-width="0.4" opacity="0.4"/>
<line x1="100" y1="32" x2="115" y2="32" stroke="#333333" stroke-width="0.7" stroke-linecap="round" />
<rect x="115" y="18" width="55" height="28" rx="2" fill="#f0f0f0" stroke="#1a1a1a" stroke-width="0.5" />
<text x="142" y="35" font-family="Arial, Helvetica, sans-serif" font-size="6" fill="#1a1a1a" text-anchor="middle" font-weight="normal" font-style="normal">Amp chain</text>
<line x1="142" y1="10" x2="142" y2="18" stroke="#c0392b" stroke-width="1"/>
<line x1="170" y1="32" x2="185" y2="32" stroke="#333333" stroke-width="0.7" stroke-linecap="round" />
<rect x="185" y="18" width="50" height="28" rx="2" fill="#f0f0f0" stroke="#1a1a1a" stroke-width="0.5" />
<text x="210" y="35" font-family="Arial, Helvetica, sans-serif" font-size="6" fill="#1a1a1a" text-anchor="middle" font-weight="normal" font-style="normal">Compr.</text>
<path d="M192,24 L195,24 L195,28 L198,28 L198,32 L201,32" fill="none" stroke="#c0392b" stroke-width="0.5" opacity="0.5"/>
<line x1="235" y1="32" x2="275" y2="32" stroke="#333333" stroke-width="0.7" stroke-linecap="round" />
<line x1="250" y1="32" x2="268" y2="32" stroke="#888888" stroke-width="0.5" marker-end="url(#arrowhead-gray)" />
<text x="140" y="66" font-family="Arial, Helvetica, sans-serif" font-size="8" fill="#1a1a1a" text-anchor="middle" font-weight="bold" font-style="normal">CPA system</text>
</svg>
