<?xml version="1.0" encoding="UTF-8"?>
<svg xmlns="http://www.w3.org/2000/svg" viewBox="0 0 220 100" width="220" height="100">
<defs>
  <marker id="arrowhead" markerWidth="6" markerHeight="4" refX="5" refY="2" orient="auto">
    <polygon points="0 0, 6 2, 0 4" fill="#1a1a1a" />
  </marker>
  <marker id="arrowhead-beam" markerWidth="6" markerHeight="4" refX="5" refY="2" orient="auto">
    <polygon points="0 0, 6 2, 0 4" fill="#c0392b" />
  </marker>
  <marker id="arrowhead-gray" markerWidth="5" markerHeight="3.5" refX="4" refY="1.75" orient="auto">
    <polygon points="0 0, 5 1.75, 0 3.5" fill="#888888" />
  </marker>
</defs>
<ellipse cx="70" cy="50" rx="40" ry="30" fill="none" stroke="#333333" stroke-width="0.7"/>
<ellipse cx="150" cy="50" rx="40" ry="30" fill="none" stroke="#333333" stroke-width="0.7"/>
<circle cx="110" cy="50" r="4" fill="#f0f0f0" stroke="#1a1a1a" stroke-width="0.5"/>
<path d="M145,22 C150,20 155,24 160,22" fill="none" stroke="#888888" stroke-width="1.5"/>
<text x="152" y="18" font-family="Arial, Helvetica, sans-serif" font-size="6" fill="#888888" text-anchor="middle" font-weight="normal" font-style="normal">gain</text>
<rect x="50" y="43" width="12" height="12" rx="1" fill="#f0f0f0" stroke="#1a1a1a" stroke-width="0.5" />
<polygon points="53,46 53,52 59,49" fill="#1a1a1a" opacity="0.4"/>
<line x1="70" y1="80" x2="70" y2="96" stroke="#333333" stroke-width="0.7" stroke-linecap="round" />
<line x1="70" y1="85" x2="70" y2="93" stroke="#888888" stroke-width="0.5" marker-end="url(#arrowhead-gray)" />
<text x="76" y="94" font-family="Arial, Helvetica, sans-serif" font-size="7" fill="#888888" text-anchor="start" font-weight="normal" font-style="italic">out</text>
<text x="110" y="96" font-family="Arial, Helvetica, sans-serif" font-size="8" fill="#1a1a1a" text-anchor="middle" font-weight="bold" font-style="normal">Figure-8 cavity</text>
</svg>
