<?xml version="1.0" encoding="UTF-8"?>
<svg xmlns="http://www.w3.org/2000/svg" viewBox="0 0 200 100" width="200" height="100">
<defs>
  <marker id="arrowhead" markerWidth="6" markerHeight="4" refX="5" refY="2" orient="auto">
    <polygon points="0 0, 6 2, 0 4" fill="#1a1a1a" />
  </marker>
  <marker id="arrowhead-beam" markerWidth="6" markerHeight="4" refX="5" refY="2" orient="auto">
    <polygon points="0 0, 6 2, 0 4" fill="#c0392b" />
  </marker>
  <marker id="arrowhead-gray" markerWidth="5" markerHeight="3.5" refX="4" refY="1.75" orient="auto">
    <polygon points="0 0, 5 1.75, 0 3.5" fill="#888888" />
  </marker>
</defs>
<path d="M80,50 C80,20 160,20 160,50" fill="none" stroke="#333333" stroke-width="0.7"/>
<path d="M80,50 C80,80 160,80 160,50" fill="none" stroke="#333333" stroke-width="0.7"/>
<path d="M110,22 C118,18 128,26 136,22" fill="none" stroke="#888888" stroke-width="1.5"/>
<text x="123" y="16" font-family="Arial, Helvetica, sans-serif" font-size="6" fill="#888888" text-anchor="middle" font-weight="normal" font-style="normal">gain</text>
<rect x="72" y="42" width="16" height="16" rx="2" fill="#f0f0f0" stroke="#1a1a1a" stroke-width="0.5" />
<text x="80" y="53" font-family="Arial, Helvetica, sans-serif" font-size="4" fill="#1a1a1a" text-anchor="middle" font-weight="normal" font-style="normal">PBS</text>
<line x1="5" y1="50" x2="72" y2="50" stroke="#333333" stroke-width="0.7" stroke-linecap="round" />
<line x1="10" y1="50" x2="30" y2="50" stroke="#888888" stroke-width="0.5" marker-end="url(#arrowhead-gray)" />
<rect x="40" y="44" width="12" height="12" rx="1" fill="#f0f0f0" stroke="#1a1a1a" stroke-width="0.5" />
<text x="46" y="53" font-family="Arial, Helvetica, sans-serif" font-size="4" fill="#1a1a1a" text-anchor="middle" font-weight="normal" font-style="normal">FR</text>
<text x="8" y="44" font-family="Arial, Helvetica, sans-serif" font-size="7" fill="#888888" text-anchor="start" font-weight="normal" font-style="italic">in/out</text>
<text x="100" y="96" font-family="Arial, Helvetica, sans-serif" font-size="8" fill="#1a1a1a" text-anchor="middle" font-weight="bold" font-style="normal">Figure-9 cavity</text>
</svg>
