<?xml version="1.0" encoding="UTF-8"?>
<svg xmlns="http://www.w3.org/2000/svg" viewBox="0 0 200 100" width="200" height="100">
<defs>
  <marker id="arrowhead" markerWidth="6" markerHeight="4" refX="5" refY="2" orient="auto">
    <polygon points="0 0, 6 2, 0 4" fill="#1a1a1a" />
  </marker>
  <marker id="arrowhead-beam" markerWidth="6" markerHeight="4" refX="5" refY="2" orient="auto">
    <polygon points="0 0, 6 2, 0 4" fill="#c0392b" />
  </marker>
  <marker id="arrowhead-gray" markerWidth="5" markerHeight="3.5" refX="4" refY="1.75" orient="auto">
    <polygon points="0 0, 5 1.75, 0 3.5" fill="#888888" />
  </marker>
</defs>
<line x1="5" y1="50" x2="40" y2="50" stroke="#333333" stroke-width="0.7" stroke-linecap="round" />
<line x1="155" y1="50" x2="195" y2="50" stroke="#333333" stroke-width="0.7" stroke-linecap="round" />
<line x1="10" y1="50" x2="25" y2="50" stroke="#888888" stroke-width="0.5" marker-end="url(#arrowhead-gray)" />
<circle cx="55" cy="50" r="3" fill="#1a1a1a"/>
<path d="M55,47 C55,15 140,15 140,47" fill="none" stroke="#333333" stroke-width="0.7"/>
<path d="M55,53 C55,80 80,80 90,65" fill="none" stroke="#333333" stroke-width="0.7"/>
<path d="M90,65 C100,55 110,55 120,65" fill="none" stroke="#1a1a1a" stroke-width="1.2"/>
<path d="M120,65 C130,80 140,80 140,53" fill="none" stroke="#333333" stroke-width="0.7"/>
<circle cx="140" cy="50" r="3" fill="#1a1a1a"/>
<line x1="140" y1="50" x2="155" y2="50" stroke="#333333" stroke-width="0.7" stroke-linecap="round" />
<text x="97" y="30" font-family="Arial, Helvetica, sans-serif" font-size="6" fill="#888888" text-anchor="middle" font-weight="normal" font-style="normal">gain</text>
<text x="100" y="96" font-family="Arial, Helvetica, sans-serif" font-size="8" fill="#1a1a1a" text-anchor="middle" font-weight="bold" font-style="normal">NALM</text>
</svg>
