<?xml version="1.0" encoding="UTF-8"?>
<svg xmlns="http://www.w3.org/2000/svg" viewBox="0 0 180 120" width="180" height="120">
<defs>
  <marker id="arrowhead" markerWidth="6" markerHeight="4" refX="5" refY="2" orient="auto">
    <polygon points="0 0, 6 2, 0 4" fill="#1a1a1a" />
  </marker>
  <marker id="arrowhead-beam" markerWidth="6" markerHeight="4" refX="5" refY="2" orient="auto">
    <polygon points="0 0, 6 2, 0 4" fill="#c0392b" />
  </marker>
  <marker id="arrowhead-gray" markerWidth="5" markerHeight="3.5" refX="4" refY="1.75" orient="auto">
    <polygon points="0 0, 5 1.75, 0 3.5" fill="#888888" />
  </marker>
</defs>
<line x1="30" y1="25" x2="150" y2="25" stroke="#333333" stroke-width="0.7" stroke-linecap="round" />
<line x1="150" y1="25" x2="150" y2="85" stroke="#333333" stroke-width="0.7" stroke-linecap="round" />
<line x1="150" y1="85" x2="30" y2="85" stroke="#333333" stroke-width="0.7" stroke-linecap="round" />
<line x1="30" y1="85" x2="30" y2="25" stroke="#333333" stroke-width="0.7" stroke-linecap="round" />
<line x1="60" y1="25" x2="80" y2="25" stroke="#888888" stroke-width="0.5" marker-end="url(#arrowhead-gray)" />
<line x1="80" y1="85" x2="60" y2="85" stroke="#888888" stroke-width="0.5" marker-end="url(#arrowhead-gray)" />
<path d="M70,25 C78,15 88,35 98,25" fill="none" stroke="#333333" stroke-width="0.7" />
<text x="84" y="15" font-family="Arial, Helvetica, sans-serif" font-size="6" fill="#888888" text-anchor="middle" font-weight="normal" font-style="normal">gain</text>
<rect x="143" y="48" width="14" height="14" rx="1" fill="#f0f0f0" stroke="#1a1a1a" stroke-width="0.5" />
<polygon points="147,51 147,59 154,55" fill="#1a1a1a" opacity="0.4"/>
<circle cx="90" cy="85" r="3" fill="#1a1a1a"/>
<line x1="90" y1="88" x2="90" y2="110" stroke="#333333" stroke-width="0.7" stroke-linecap="round" />
<line x1="90" y1="95" x2="90" y2="108" stroke="#888888" stroke-width="0.5" marker-end="url(#arrowhead-gray)" />
<text x="95" y="108" font-family="Arial, Helvetica, sans-serif" font-size="7" fill="#888888" text-anchor="start" font-weight="normal" font-style="italic">out</text>
<text x="90" y="118" font-family="Arial, Helvetica, sans-serif" font-size="8" fill="#1a1a1a" text-anchor="middle" font-weight="bold" font-style="normal">Ring cavity</text>
</svg>
