<?xml version="1.0" encoding="UTF-8"?>
<svg xmlns="http://www.w3.org/2000/svg" viewBox="0 0 220 55" width="220" height="55">
<defs>
  <marker id="arrowhead" markerWidth="6" markerHeight="4" refX="5" refY="2" orient="auto">
    <polygon points="0 0, 6 2, 0 4" fill="#1a1a1a" />
  </marker>
  <marker id="arrowhead-beam" markerWidth="6" markerHeight="4" refX="5" refY="2" orient="auto">
    <polygon points="0 0, 6 2, 0 4" fill="#c0392b" />
  </marker>
  <marker id="arrowhead-gray" markerWidth="5" markerHeight="3.5" refX="4" refY="1.75" orient="auto">
    <polygon points="0 0, 5 1.75, 0 3.5" fill="#888888" />
  </marker>
</defs>
<line x1="20" y1="10" x2="20" y2="40" stroke="#1a1a1a" stroke-width="1.5"/>
<line x1="20" y1="12" x2="14" y2="16" stroke="#888888" stroke-width="0.35"/>
<line x1="20" y1="17" x2="14" y2="21" stroke="#888888" stroke-width="0.35"/>
<line x1="20" y1="22" x2="14" y2="26" stroke="#888888" stroke-width="0.35"/>
<line x1="20" y1="27" x2="14" y2="31" stroke="#888888" stroke-width="0.35"/>
<line x1="20" y1="32" x2="14" y2="36" stroke="#888888" stroke-width="0.35"/>
<line x1="20" y1="37" x2="14" y2="41" stroke="#888888" stroke-width="0.35"/>
<rect x="24" y="18" width="14" height="14" rx="1" fill="#f0f0f0" stroke="#1a1a1a" stroke-width="0.5" />
<text x="31" y="28" font-family="Arial, Helvetica, sans-serif" font-size="4" fill="#1a1a1a" text-anchor="middle" font-weight="normal" font-style="normal">45°</text>
<text x="14" y="8" font-family="Arial, Helvetica, sans-serif" font-size="6" fill="#888888" text-anchor="middle" font-weight="normal" font-style="normal">FRM</text>
<line x1="38" y1="25" x2="70" y2="25" stroke="#333333" stroke-width="0.7" stroke-linecap="round" />
<rect x="70" y="16" width="18" height="18" rx="2" fill="#f0f0f0" stroke="#1a1a1a" stroke-width="0.5" />
<text x="79" y="28" font-family="Arial, Helvetica, sans-serif" font-size="4" fill="#1a1a1a" text-anchor="middle" font-weight="normal" font-style="normal">PBS</text>
<path d="M88,20 C100,10 130,10 142,20" fill="none" stroke="#333333" stroke-width="0.7" />
<path d="M88,30 C100,40 130,40 142,30" fill="none" stroke="#333333" stroke-width="0.7" />
<text x="115" y="8" font-family="Arial, Helvetica, sans-serif" font-size="6" fill="#888888" text-anchor="middle" font-weight="normal" font-style="normal">gain</text>
<line x1="142" y1="25" x2="215" y2="25" stroke="#333333" stroke-width="0.7" stroke-linecap="round" />
<line x1="170" y1="25" x2="190" y2="25" stroke="#888888" stroke-width="0.5" marker-end="url(#arrowhead-gray)" />
<text x="213" y="19" font-family="Arial, Helvetica, sans-serif" font-size="7" fill="#888888" text-anchor="end" font-weight="normal" font-style="italic">out</text>
<text x="115" y="52" font-family="Arial, Helvetica, sans-serif" font-size="8" fill="#1a1a1a" text-anchor="middle" font-weight="bold" font-style="normal">Sigma cavity</text>
</svg>
