<svg xmlns="http://www.w3.org/2000/svg" viewBox="0 0 100 80" width="100" height="80" font-family="Arial, Helvetica, sans-serif">
<defs>
<marker id="arrowhead" markerWidth="6" markerHeight="4" refX="5" refY="2" orient="auto"><polygon points="0,0 6,2 0,4" fill="#000000"/></marker>
<marker id="arrowhead-beam" markerWidth="6" markerHeight="4" refX="5" refY="2" orient="auto"><polygon points="0,0 6,2 0,4" fill="#CC0000"/></marker>
<linearGradient id="mount-grad" x1="0" y1="0" x2="0" y2="1"><stop offset="0%" stop-color="#A0A0A8"/><stop offset="100%" stop-color="#606068"/></linearGradient>
</defs>
<circle cx="50" cy="38" r="25" fill="url(#mount-grad)" stroke="#000000" stroke-width="0.75"/>
<circle cx="50" cy="38" r="18" fill="#D4D8E8" stroke="#000000" stroke-width="0.4"/>
<line x1="72.0" y1="38.0" x2="75.0" y2="38.0" stroke="#000000" stroke-width="0.3"/>
<line x1="69.1" y1="49.0" x2="71.7" y2="50.5" stroke="#000000" stroke-width="0.3"/>
<line x1="61.0" y1="57.1" x2="62.5" y2="59.7" stroke="#000000" stroke-width="0.3"/>
<line x1="50.0" y1="60.0" x2="50.0" y2="63.0" stroke="#000000" stroke-width="0.3"/>
<line x1="39.0" y1="57.1" x2="37.5" y2="59.7" stroke="#000000" stroke-width="0.3"/>
<line x1="30.9" y1="49.0" x2="28.3" y2="50.5" stroke="#000000" stroke-width="0.3"/>
<line x1="28.0" y1="38.0" x2="25.0" y2="38.0" stroke="#000000" stroke-width="0.3"/>
<line x1="30.9" y1="27.0" x2="28.3" y2="25.5" stroke="#000000" stroke-width="0.3"/>
<line x1="39.0" y1="18.9" x2="37.5" y2="16.3" stroke="#000000" stroke-width="0.3"/>
<line x1="50.0" y1="16.0" x2="50.0" y2="13.0" stroke="#000000" stroke-width="0.3"/>
<line x1="61.0" y1="18.9" x2="62.5" y2="16.3" stroke="#000000" stroke-width="0.3"/>
<line x1="69.1" y1="27.0" x2="71.7" y2="25.5" stroke="#000000" stroke-width="0.3"/>
<path d="M65,15 A20,20 0 0,1 75,30" fill="none" stroke="#666666" stroke-width="0.4" marker-end="url(#arrowhead)"/>
<text x="50" y="75" font-family="Arial, Helvetica, sans-serif" font-size="7" fill="#000000" text-anchor="middle" font-weight="bold">Rotation stage</text>
</svg>
