<svg xmlns="http://www.w3.org/2000/svg" viewBox="0 0 140 65" width="140" height="65" font-family="Arial, Helvetica, sans-serif">
<defs>
<marker id="arrowhead" markerWidth="6" markerHeight="4" refX="5" refY="2" orient="auto"><polygon points="0,0 6,2 0,4" fill="#000000"/></marker>
<marker id="arrowhead-beam" markerWidth="6" markerHeight="4" refX="5" refY="2" orient="auto"><polygon points="0,0 6,2 0,4" fill="#CC0000"/></marker>
<linearGradient id="housing-grad" x1="0" y1="0" x2="0" y2="1"><stop offset="0%" stop-color="#B0B0B8"/><stop offset="100%" stop-color="#707078"/></linearGradient>
</defs>
<rect x="30" y="8" width="60" height="40" rx="3" fill="url(#housing-grad)" stroke="#000000" stroke-width="0.75"/>
<rect x="34" y="12" width="52" height="32" rx="2" fill="none" stroke="#4488CC" stroke-width="0.4" stroke-dasharray="2,2"/>
<text x="60" y="15" font-family="Arial, Helvetica, sans-serif" font-size="4.5" fill="#4488CC" text-anchor="middle" font-weight="normal">2 K</text>
<path d="M45,22 L55,22 L55,26 L45,26 L45,30 L55,30 L55,34 L45,34 L45,38 L55,38" fill="none" stroke="#CC8800" stroke-width="0.4" opacity="0.4"/>
<line x1="5" y1="28" x2="30" y2="28" stroke="#CC0000" stroke-width="0.8" opacity="0.5"/>
<line x1="8" y1="28" x2="22" y2="28" stroke="#CC0000" stroke-width="0.8" marker-end="url(#arrowhead-beam)"/>
<line x1="90" y1="28" x2="135" y2="28" stroke="#000000" stroke-width="0.4"/>
<text x="120" y="24" font-family="Arial, Helvetica, sans-serif" font-size="4.5" fill="#666666" text-anchor="middle" font-weight="normal">TCSPC</text>
<text x="60" y="58" font-family="Arial, Helvetica, sans-serif" font-size="7" fill="#000000" text-anchor="middle" font-weight="bold">SNSPD</text>
</svg>
