<svg xmlns="http://www.w3.org/2000/svg" viewBox="0 0 160 80" width="160" height="80" font-family="Arial, Helvetica, sans-serif">
<defs>
<marker id="arrowhead" markerWidth="6" markerHeight="4" refX="5" refY="2" orient="auto"><polygon points="0,0 6,2 0,4" fill="#1a1a1a"/></marker>
<marker id="arrowhead-beam" markerWidth="6" markerHeight="4" refX="5" refY="2" orient="auto"><polygon points="0,0 6,2 0,4" fill="#c0392b"/></marker>
</defs>
<rect x="30" y="35" width="15" height="22" rx="2" fill="#f0f0f0" stroke="#1a1a1a" stroke-width="0.5"/>
<line x1="30" y1="25" x2="48" y2="32" stroke="#1a1a1a" stroke-width="0.8"/>
<line x1="32" y1="26" x2="30" y2="23" stroke="#888888" stroke-width="0.25"/>
<line x1="37" y1="28" x2="35" y2="25" stroke="#888888" stroke-width="0.25"/>
<line x1="41" y1="29" x2="39" y2="26" stroke="#888888" stroke-width="0.25"/>
<line x1="46" y1="31" x2="44" y2="28" stroke="#888888" stroke-width="0.25"/>
<rect x="75" y="30" width="15" height="22" rx="2" fill="#f0f0f0" stroke="#1a1a1a" stroke-width="0.5"/>
<line x1="68" y1="22" x2="75" y2="48" stroke="#1a1a1a" stroke-width="0.8"/>
<line x1="69" y1="25" x2="72" y2="24" stroke="#888888" stroke-width="0.25"/>
<line x1="71" y1="32" x2="74" y2="31" stroke="#888888" stroke-width="0.25"/>
<line x1="72" y1="38" x2="75" y2="37" stroke="#888888" stroke-width="0.25"/>
<line x1="74" y1="45" x2="77" y2="44" stroke="#888888" stroke-width="0.25"/>
<line x1="5" y1="28" x2="35" y2="28" stroke="#c0392b" stroke-width="0.6" opacity="0.5"/>
<line x1="8" y1="28" x2="22" y2="28" stroke="#c0392b" stroke-width="0.6" marker-end="url(#arrowhead-beam)"/>
<line x1="42" y1="30" x2="70" y2="35" stroke="#c0392b" stroke-width="0.6" opacity="0.3"/>
<line x1="72" y1="30" x2="120" y2="20" stroke="#c0392b" stroke-width="0.4" opacity="0.3"/>
<line x1="72" y1="35" x2="120" y2="35" stroke="#c0392b" stroke-width="0.4" opacity="0.3"/>
<line x1="72" y1="40" x2="120" y2="50" stroke="#c0392b" stroke-width="0.4" opacity="0.3"/>
<rect x="110" y="15" width="40" height="40" fill="none" stroke="#888888" stroke-width="0.35" stroke-dasharray="2,2"/>
<text x="130" y="38" font-family="Arial, Helvetica, sans-serif" font-size="4.5" fill="#888888" text-anchor="middle" font-weight="normal">scan field</text>
<text x="80" y="72" font-family="Arial, Helvetica, sans-serif" font-size="7" fill="#1a1a1a" text-anchor="middle" font-weight="bold">2D galvo scanner</text>
</svg>
