<svg xmlns="http://www.w3.org/2000/svg" viewBox="0 0 150 65" width="150" height="65" font-family="Arial, Helvetica, sans-serif">
<defs>
<marker id="arrowhead" markerWidth="6" markerHeight="4" refX="5" refY="2" orient="auto"><polygon points="0,0 6,2 0,4" fill="#1a1a1a"/></marker>
<marker id="arrowhead-beam" markerWidth="6" markerHeight="4" refX="5" refY="2" orient="auto"><polygon points="0,0 6,2 0,4" fill="#c0392b"/></marker>
</defs>
<line x1="5" y1="32" x2="30" y2="32" stroke="#c0392b" stroke-width="0.6" opacity="0.5"/>
<line x1="8" y1="32" x2="20" y2="32" stroke="#c0392b" stroke-width="0.6" marker-end="url(#arrowhead-beam)"/>
<rect x="33" y="8" width="70" height="48" rx="3" fill="#f0f0f0" stroke="#1a1a1a" stroke-width="0.5"/>
<rect x="36" y="16" width="18" height="18" rx="1" fill="#101828" stroke="#1a1a1a" stroke-width="0.3"/>
<rect x="38" y="18" width="2" height="2" fill="#333366" opacity="0.3"/>
<rect x="38" y="21" width="2" height="2" fill="#333366" opacity="0.3"/>
<rect x="38" y="24" width="2" height="2" fill="#333366" opacity="0.3"/>
<rect x="38" y="27" width="2" height="2" fill="#333366" opacity="0.3"/>
<rect x="38" y="30" width="2" height="2" fill="#333366" opacity="0.3"/>
<rect x="41" y="18" width="2" height="2" fill="#333366" opacity="0.3"/>
<rect x="41" y="21" width="2" height="2" fill="#333366" opacity="0.3"/>
<rect x="41" y="24" width="2" height="2" fill="#333366" opacity="0.3"/>
<rect x="41" y="27" width="2" height="2" fill="#333366" opacity="0.3"/>
<rect x="41" y="30" width="2" height="2" fill="#333366" opacity="0.3"/>
<rect x="44" y="18" width="2" height="2" fill="#333366" opacity="0.3"/>
<rect x="44" y="21" width="2" height="2" fill="#333366" opacity="0.3"/>
<rect x="44" y="24" width="2" height="2" fill="#333366" opacity="0.3"/>
<rect x="44" y="27" width="2" height="2" fill="#333366" opacity="0.3"/>
<rect x="44" y="30" width="2" height="2" fill="#333366" opacity="0.3"/>
<rect x="47" y="18" width="2" height="2" fill="#333366" opacity="0.3"/>
<rect x="47" y="21" width="2" height="2" fill="#333366" opacity="0.3"/>
<rect x="47" y="24" width="2" height="2" fill="#333366" opacity="0.3"/>
<rect x="47" y="27" width="2" height="2" fill="#333366" opacity="0.3"/>
<rect x="47" y="30" width="2" height="2" fill="#333366" opacity="0.3"/>
<rect x="50" y="18" width="2" height="2" fill="#333366" opacity="0.3"/>
<rect x="50" y="21" width="2" height="2" fill="#333366" opacity="0.3"/>
<rect x="50" y="24" width="2" height="2" fill="#333366" opacity="0.3"/>
<rect x="50" y="27" width="2" height="2" fill="#333366" opacity="0.3"/>
<rect x="50" y="30" width="2" height="2" fill="#333366" opacity="0.3"/>
<text x="76" y="35" font-family="Arial, Helvetica, sans-serif" font-size="5.5" fill="#1a1a1a" text-anchor="middle" font-weight="normal">sCMOS</text>
<line x1="103" y1="32" x2="145" y2="32" stroke="#1a1a1a" stroke-width="0.4"/>
<text x="75" y="60" font-family="Arial, Helvetica, sans-serif" font-size="7" fill="#1a1a1a" text-anchor="middle" font-weight="bold">sCMOS camera</text>
</svg>
