<?xml version="1.0" encoding="UTF-8"?>
<svg xmlns="http://www.w3.org/2000/svg" viewBox="0 0 150 70" width="150" height="70">
<defs>
  <marker id="arrowhead" markerWidth="6" markerHeight="4" refX="5" refY="2" orient="auto">
    <polygon points="0 0, 6 2, 0 4" fill="#1a1a1a" />
  </marker>
  <marker id="arrowhead-beam" markerWidth="6" markerHeight="4" refX="5" refY="2" orient="auto">
    <polygon points="0 0, 6 2, 0 4" fill="#c0392b" />
  </marker>
  <marker id="arrowhead-gray" markerWidth="5" markerHeight="3.5" refX="4" refY="1.75" orient="auto">
    <polygon points="0 0, 5 1.75, 0 3.5" fill="#888888" />
  </marker>
</defs>
<line x1="5" y1="35" x2="25" y2="35" stroke="#333333" stroke-width="0.7" stroke-linecap="round" />
<line x1="8" y1="35" x2="18" y2="35" stroke="#888888" stroke-width="0.5" marker-end="url(#arrowhead-gray)" />
<rect x="25" y="8" width="90" height="48" rx="3" fill="#f0f0f0" stroke="#1a1a1a" stroke-width="0.5" />
<rect x="32" y="14" width="50" height="28" rx="2" fill="#101828" stroke="#1a1a1a" stroke-width="0.3"/>
<circle cx="38" cy="18" r="2" fill="#0044CC" opacity="0.5249999999999999"/>
<circle cx="38" cy="24" r="2" fill="#0044CC" opacity="0.675"/>
<circle cx="38" cy="30" r="2" fill="#0044CC" opacity="0.675"/>
<circle cx="38" cy="36" r="2" fill="#0044CC" opacity="0.5249999999999999"/>
<circle cx="45" cy="18" r="2" fill="#0088CC" opacity="0.5249999999999999"/>
<circle cx="45" cy="24" r="2" fill="#0088CC" opacity="0.675"/>
<circle cx="45" cy="30" r="2" fill="#0088CC" opacity="0.675"/>
<circle cx="45" cy="36" r="2" fill="#0088CC" opacity="0.5249999999999999"/>
<circle cx="52" cy="18" r="2" fill="#00CC88" opacity="0.5249999999999999"/>
<circle cx="52" cy="24" r="2" fill="#00CC88" opacity="0.675"/>
<circle cx="52" cy="30" r="2" fill="#00CC88" opacity="0.675"/>
<circle cx="52" cy="36" r="2" fill="#00CC88" opacity="0.5249999999999999"/>
<circle cx="59" cy="18" r="2" fill="#88CC00" opacity="0.5249999999999999"/>
<circle cx="59" cy="24" r="2" fill="#88CC00" opacity="0.675"/>
<circle cx="59" cy="30" r="2" fill="#88CC00" opacity="0.675"/>
<circle cx="59" cy="36" r="2" fill="#88CC00" opacity="0.5249999999999999"/>
<circle cx="66" cy="18" r="2" fill="#CC8800" opacity="0.5249999999999999"/>
<circle cx="66" cy="24" r="2" fill="#CC8800" opacity="0.675"/>
<circle cx="66" cy="30" r="2" fill="#CC8800" opacity="0.675"/>
<circle cx="66" cy="36" r="2" fill="#CC8800" opacity="0.5249999999999999"/>
<circle cx="73" cy="18" r="2" fill="#CC4400" opacity="0.5249999999999999"/>
<circle cx="73" cy="24" r="2" fill="#CC4400" opacity="0.675"/>
<circle cx="73" cy="30" r="2" fill="#CC4400" opacity="0.675"/>
<circle cx="73" cy="36" r="2" fill="#CC4400" opacity="0.5249999999999999"/>
<text x="95" y="35" font-family="Arial, Helvetica, sans-serif" font-size="6" fill="#888888" text-anchor="middle" font-weight="normal" font-style="normal">FROG</text>
<text x="70" y="66" font-family="Arial, Helvetica, sans-serif" font-size="8" fill="#1a1a1a" text-anchor="middle" font-weight="bold" font-style="normal">FROG</text>
</svg>
