<?xml version="1.0" encoding="UTF-8"?>
<svg xmlns="http://www.w3.org/2000/svg" viewBox="0 0 160 55" width="160" height="55">
<defs>
  <marker id="arrowhead" markerWidth="6" markerHeight="4" refX="5" refY="2" orient="auto">
    <polygon points="0 0, 6 2, 0 4" fill="#1a1a1a" />
  </marker>
  <marker id="arrowhead-beam" markerWidth="6" markerHeight="4" refX="5" refY="2" orient="auto">
    <polygon points="0 0, 6 2, 0 4" fill="#c0392b" />
  </marker>
  <marker id="arrowhead-gray" markerWidth="5" markerHeight="3.5" refX="4" refY="1.75" orient="auto">
    <polygon points="0 0, 5 1.75, 0 3.5" fill="#888888" />
  </marker>
</defs>
<line x1="5" y1="27" x2="45" y2="27" stroke="#333333" stroke-width="0.7" stroke-linecap="round" />
<line x1="10" y1="27" x2="28" y2="27" stroke="#888888" stroke-width="0.5" marker-end="url(#arrowhead-gray)" />
<rect x="45" y="8" width="60" height="38" rx="2" fill="#f0f0f0" stroke="#1a1a1a" stroke-width="0.5" />
<line x1="75" y1="27" x2="91" y2="18" stroke="#888888" stroke-width="0.4" opacity="0.3"/>
<line x1="75" y1="27" x2="84" y2="11" stroke="#888888" stroke-width="0.4" opacity="0.3"/>
<line x1="75" y1="27" x2="75" y2="9" stroke="#888888" stroke-width="0.4" opacity="0.3"/>
<line x1="75" y1="27" x2="66" y2="11" stroke="#888888" stroke-width="0.4" opacity="0.3"/>
<line x1="75" y1="27" x2="59" y2="18" stroke="#888888" stroke-width="0.4" opacity="0.3"/>
<line x1="50" y1="8" x2="50" y2="3" stroke="#888888" stroke-width="0.35"/>
<line x1="56" y1="8" x2="56" y2="3" stroke="#888888" stroke-width="0.35"/>
<line x1="62" y1="8" x2="62" y2="3" stroke="#888888" stroke-width="0.35"/>
<line x1="68" y1="8" x2="68" y2="3" stroke="#888888" stroke-width="0.35"/>
<line x1="74" y1="8" x2="74" y2="3" stroke="#888888" stroke-width="0.35"/>
<line x1="80" y1="8" x2="80" y2="3" stroke="#888888" stroke-width="0.35"/>
<line x1="86" y1="8" x2="86" y2="3" stroke="#888888" stroke-width="0.35"/>
<line x1="92" y1="8" x2="92" y2="3" stroke="#888888" stroke-width="0.35"/>
<line x1="98" y1="8" x2="98" y2="3" stroke="#888888" stroke-width="0.35"/>
<line x1="105" y1="27" x2="155" y2="27" stroke="#333333" stroke-width="0.7" stroke-linecap="round" />
<text x="75" y="52" font-family="Arial, Helvetica, sans-serif" font-size="8" fill="#1a1a1a" text-anchor="middle" font-weight="bold" font-style="normal">HP CLS</text>
</svg>
