<?xml version="1.0" encoding="UTF-8"?>
<svg xmlns="http://www.w3.org/2000/svg" viewBox="0 0 160 50" width="160" height="50">
<defs>
  <marker id="arrowhead" markerWidth="6" markerHeight="4" refX="5" refY="2" orient="auto">
    <polygon points="0 0, 6 2, 0 4" fill="#1a1a1a" />
  </marker>
  <marker id="arrowhead-beam" markerWidth="6" markerHeight="4" refX="5" refY="2" orient="auto">
    <polygon points="0 0, 6 2, 0 4" fill="#c0392b" />
  </marker>
  <marker id="arrowhead-gray" markerWidth="5" markerHeight="3.5" refX="4" refY="1.75" orient="auto">
    <polygon points="0 0, 5 1.75, 0 3.5" fill="#888888" />
  </marker>
</defs>
<line x1="5" y1="25" x2="45" y2="25" stroke="#333333" stroke-width="0.7" stroke-linecap="round" />
<rect x="45" y="8" width="60" height="34" rx="2" fill="#f0f0f0" stroke="#1a1a1a" stroke-width="0.5" />
<circle cx="58" cy="17" r="1" fill="#c0392b" opacity="0.4"/>
<circle cx="54" cy="18" r="1" fill="#c0392b" opacity="0.4"/>
<circle cx="65" cy="19" r="1" fill="#c0392b" opacity="0.4"/>
<circle cx="58" cy="30" r="1" fill="#c0392b" opacity="0.4"/>
<circle cx="61" cy="36" r="1" fill="#c0392b" opacity="0.4"/>
<circle cx="60" cy="23" r="1" fill="#c0392b" opacity="0.4"/>
<circle cx="62" cy="18" r="1" fill="#c0392b" opacity="0.4"/>
<circle cx="68" cy="22" r="1" fill="#c0392b" opacity="0.4"/>
<circle cx="58" cy="30" r="1" fill="#c0392b" opacity="0.4"/>
<circle cx="53" cy="29" r="1" fill="#c0392b" opacity="0.4"/>
<circle cx="67" cy="21" r="1" fill="#c0392b" opacity="0.4"/>
<circle cx="69" cy="26" r="1" fill="#c0392b" opacity="0.4"/>
<line x1="80" y1="14" x2="100" y2="14" stroke="#c0392b" stroke-width="0.5" opacity="0.25"/>
<line x1="80" y1="18" x2="100" y2="18" stroke="#c0392b" stroke-width="0.5" opacity="0.25"/>
<line x1="80" y1="22" x2="100" y2="22" stroke="#c0392b" stroke-width="0.5" opacity="0.25"/>
<line x1="80" y1="26" x2="100" y2="26" stroke="#c0392b" stroke-width="0.5" opacity="0.25"/>
<line x1="80" y1="30" x2="100" y2="30" stroke="#c0392b" stroke-width="0.5" opacity="0.25"/>
<line x1="80" y1="34" x2="100" y2="34" stroke="#c0392b" stroke-width="0.5" opacity="0.25"/>
<line x1="105" y1="25" x2="155" y2="25" stroke="#333333" stroke-width="0.7" stroke-linecap="round" />
<text x="75" y="48" font-family="Arial, Helvetica, sans-serif" font-size="8" fill="#1a1a1a" text-anchor="middle" font-weight="bold" font-style="normal">Homogenizer</text>
</svg>
