<?xml version="1.0" encoding="UTF-8"?>
<svg xmlns="http://www.w3.org/2000/svg" viewBox="0 0 180 80" width="180" height="80">
<defs>
  <marker id="arrowhead" markerWidth="6" markerHeight="4" refX="5" refY="2" orient="auto">
    <polygon points="0 0, 6 2, 0 4" fill="#000000" />
  </marker>
  <linearGradient id="fiber-grad" x1="0" y1="0" x2="0" y2="1">
      <stop offset="0%" stop-color="#ADACC6"/>
      <stop offset="22%" stop-color="#1B1E89"/>
      <stop offset="100%" stop-color="#0D0F42"/>
    </linearGradient>
  <linearGradient id="comp-grad" x1="0" y1="0" x2="0" y2="1">
      <stop offset="0%" stop-color="#F0F0F8"/>
      <stop offset="50%" stop-color="#B0B0C8"/>
      <stop offset="100%" stop-color="#707088"/>
    </linearGradient>
</defs>
<rect x="35" y="10" width="90" height="55" rx="3" fill="url(#comp-grad)" stroke="#000000" stroke-width="0.75" />
<rect x="55" y="18" width="30" height="22" rx="1" fill="#4060A0" stroke="#000000" stroke-width="0.4" opacity="0.3"/>
<path d="M90,22 C94,28 94,36 90,42" fill="none" stroke="#000000" stroke-width="0.4"/>
<text x="80" y="50" font-family="Helvetica, Arial, sans-serif" font-size="6" fill="#000000" text-anchor="middle" font-weight="normal" font-style="normal">LCoS</text>
<line x1="5" y1="37" x2="35" y2="37" stroke="url(#fiber-grad)" stroke-width="3.0" stroke-linecap="round" />
<line x1="125" y1="20" x2="175" y2="20" stroke="url(#fiber-grad)" stroke-width="3.0" stroke-linecap="round" />
<line x1="125" y1="33" x2="175" y2="33" stroke="url(#fiber-grad)" stroke-width="3.0" stroke-linecap="round" />
<line x1="125" y1="46" x2="175" y2="46" stroke="url(#fiber-grad)" stroke-width="3.0" stroke-linecap="round" />
<line x1="125" y1="59" x2="175" y2="59" stroke="url(#fiber-grad)" stroke-width="3.0" stroke-linecap="round" />
<text x="8" y="31" font-family="Helvetica, Arial, sans-serif" font-size="7" fill="#444444" text-anchor="start" font-weight="normal" font-style="normal">in</text>
<text x="173" y="14" font-family="Helvetica, Arial, sans-serif" font-size="7" fill="#444444" text-anchor="end" font-weight="normal" font-style="normal">ch1</text>
<text x="80" y="74" font-family="Helvetica, Arial, sans-serif" font-size="8" fill="#000000" text-anchor="middle" font-weight="bold" font-style="normal">LCoS WSS</text>
</svg>
