<?xml version="1.0" encoding="UTF-8"?>
<svg xmlns="http://www.w3.org/2000/svg" viewBox="0 0 200 55" width="200" height="55">
<defs>
  <marker id="arrowhead" markerWidth="6" markerHeight="4" refX="5" refY="2" orient="auto">
    <polygon points="0 0, 6 2, 0 4" fill="#000000" />
  </marker>
  <linearGradient id="comp-grad" x1="0" y1="0" x2="0" y2="1">
      <stop offset="0%" stop-color="#F0F0F8"/>
      <stop offset="50%" stop-color="#B0B0C8"/>
      <stop offset="100%" stop-color="#707088"/>
    </linearGradient>
</defs>
<rect x="10" y="8" width="180" height="35" rx="3" fill="GRADIENT" stroke="#000000" stroke-width="0.75"/>
<rect x="20" y="16" width="8" height="12" rx="1" fill="url(#comp-grad)" stroke="#000000" stroke-width="0.3" opacity="0.5"/>
<rect x="34" y="16" width="8" height="12" rx="1" fill="url(#comp-grad)" stroke="#000000" stroke-width="0.3" opacity="0.5"/>
<rect x="48" y="16" width="8" height="12" rx="1" fill="url(#comp-grad)" stroke="#000000" stroke-width="0.3" opacity="0.5"/>
<rect x="62" y="16" width="8" height="12" rx="1" fill="url(#comp-grad)" stroke="#000000" stroke-width="0.3" opacity="0.5"/>
<rect x="76" y="16" width="8" height="12" rx="1" fill="url(#comp-grad)" stroke="#000000" stroke-width="0.3" opacity="0.5"/>
<rect x="90" y="16" width="8" height="12" rx="1" fill="url(#comp-grad)" stroke="#000000" stroke-width="0.3" opacity="0.5"/>
<rect x="104" y="16" width="8" height="12" rx="1" fill="url(#comp-grad)" stroke="#000000" stroke-width="0.3" opacity="0.5"/>
<rect x="118" y="16" width="8" height="12" rx="1" fill="url(#comp-grad)" stroke="#000000" stroke-width="0.3" opacity="0.5"/>
<rect x="132" y="16" width="8" height="12" rx="1" fill="url(#comp-grad)" stroke="#000000" stroke-width="0.3" opacity="0.5"/>
<rect x="146" y="16" width="8" height="12" rx="1" fill="url(#comp-grad)" stroke="#000000" stroke-width="0.3" opacity="0.5"/>
<rect x="160" y="16" width="8" height="12" rx="1" fill="url(#comp-grad)" stroke="#000000" stroke-width="0.3" opacity="0.5"/>
<rect x="174" y="16" width="8" height="12" rx="1" fill="url(#comp-grad)" stroke="#000000" stroke-width="0.3" opacity="0.5"/>
<text x="100" y="52" font-family="Helvetica, Arial, sans-serif" font-size="8" fill="#000000" text-anchor="middle" font-weight="bold" font-style="normal">Patch panel</text>
</svg>
